%TF.GenerationSoftware,KiCad,Pcbnew,(6.0.9-0)*%
%TF.CreationDate,2023-02-24T22:58:18+01:00*%
%TF.ProjectId,FilamentSpoolScale,46696c61-6d65-46e7-9453-706f6f6c5363,rev?*%
%TF.SameCoordinates,Original*%
%TF.FileFunction,Copper,L2,Bot*%
%TF.FilePolarity,Positive*%
%FSLAX46Y46*%
G04 Gerber Fmt 4.6, Leading zero omitted, Abs format (unit mm)*
G04 Created by KiCad (PCBNEW (6.0.9-0)) date 2023-02-24 22:58:18*
%MOMM*%
%LPD*%
G01*
G04 APERTURE LIST*
%TA.AperFunction,ComponentPad*%
%ADD10C,3.600000*%
%TD*%
%TA.AperFunction,ConnectorPad*%
%ADD11C,5.600000*%
%TD*%
%TA.AperFunction,ComponentPad*%
%ADD12R,1.600000X1.600000*%
%TD*%
%TA.AperFunction,ComponentPad*%
%ADD13O,1.600000X1.600000*%
%TD*%
%TA.AperFunction,ComponentPad*%
%ADD14C,1.700000*%
%TD*%
%TA.AperFunction,ComponentPad*%
%ADD15R,2.200000X2.200000*%
%TD*%
%TA.AperFunction,ComponentPad*%
%ADD16O,2.200000X2.200000*%
%TD*%
%TA.AperFunction,ComponentPad*%
%ADD17C,2.000000*%
%TD*%
%TA.AperFunction,ComponentPad*%
%ADD18R,1.700000X1.700000*%
%TD*%
%TA.AperFunction,ComponentPad*%
%ADD19O,1.700000X1.700000*%
%TD*%
%TA.AperFunction,ComponentPad*%
%ADD20R,2.400000X2.400000*%
%TD*%
%TA.AperFunction,ComponentPad*%
%ADD21C,2.400000*%
%TD*%
%TA.AperFunction,ComponentPad*%
%ADD22C,1.600000*%
%TD*%
%TA.AperFunction,ViaPad*%
%ADD23C,0.508000*%
%TD*%
%TA.AperFunction,Conductor*%
%ADD24C,0.200000*%
%TD*%
%TA.AperFunction,Conductor*%
%ADD25C,0.254000*%
%TD*%
G04 APERTURE END LIST*
D10*
%TO.P,H5,1,1*%
%TO.N,GND*%
X29800000Y-38000000D03*
D11*
X29800000Y-38000000D03*
%TD*%
%TO.P,H2,1,1*%
%TO.N,GND*%
X128000000Y-33500000D03*
D10*
X128000000Y-33500000D03*
%TD*%
D12*
%TO.P,A1,1,TX1*%
%TO.N,/TX*%
X92450000Y-55000000D03*
D13*
%TO.P,A1,2,RX1*%
%TO.N,/RX*%
X94990000Y-55000000D03*
%TO.P,A1,3,~{RESET}*%
%TO.N,unconnected-(A1-Pad3)*%
X97530000Y-55000000D03*
%TO.P,A1,4,GND*%
%TO.N,GND*%
X100070000Y-55000000D03*
%TO.P,A1,5,D2*%
%TO.N,/BT1*%
X102610000Y-55000000D03*
%TO.P,A1,6,D3*%
%TO.N,/BT2*%
X105150000Y-55000000D03*
%TO.P,A1,7,D4*%
%TO.N,/DT*%
X107690000Y-55000000D03*
%TO.P,A1,8,D5*%
%TO.N,/SCK*%
X110230000Y-55000000D03*
%TO.P,A1,9,D6*%
%TO.N,unconnected-(A1-Pad9)*%
X112770000Y-55000000D03*
%TO.P,A1,10,D7*%
%TO.N,unconnected-(A1-Pad10)*%
X115310000Y-55000000D03*
%TO.P,A1,11,D8*%
%TO.N,unconnected-(A1-Pad11)*%
X117850000Y-55000000D03*
%TO.P,A1,12,D9*%
%TO.N,unconnected-(A1-Pad12)*%
X120390000Y-55000000D03*
%TO.P,A1,13,D10*%
%TO.N,unconnected-(A1-Pad13)*%
X122930000Y-55000000D03*
%TO.P,A1,14,MOSI*%
%TO.N,unconnected-(A1-Pad14)*%
X125470000Y-55000000D03*
%TO.P,A1,15,MISO*%
%TO.N,unconnected-(A1-Pad15)*%
X128010000Y-55000000D03*
%TO.P,A1,16,SCK*%
%TO.N,unconnected-(A1-Pad16)*%
X128010000Y-39760000D03*
%TO.P,A1,17,3V3*%
%TO.N,unconnected-(A1-Pad17)*%
X125470000Y-39760000D03*
%TO.P,A1,18,AREF*%
%TO.N,unconnected-(A1-Pad18)*%
X122930000Y-39760000D03*
%TO.P,A1,19,A0*%
%TO.N,unconnected-(A1-Pad19)*%
X120390000Y-39760000D03*
%TO.P,A1,20,A1*%
%TO.N,unconnected-(A1-Pad20)*%
X117850000Y-39760000D03*
%TO.P,A1,21,A2*%
%TO.N,unconnected-(A1-Pad21)*%
X115310000Y-39760000D03*
%TO.P,A1,22,A3*%
%TO.N,unconnected-(A1-Pad22)*%
X112770000Y-39760000D03*
%TO.P,A1,23,SDA/A4*%
%TO.N,/SDA*%
X110230000Y-39760000D03*
%TO.P,A1,24,SCL/A5*%
%TO.N,/SCL*%
X107690000Y-39760000D03*
%TO.P,A1,25,A6*%
%TO.N,unconnected-(A1-Pad25)*%
X105150000Y-39760000D03*
%TO.P,A1,26,A7*%
%TO.N,unconnected-(A1-Pad26)*%
X102610000Y-39760000D03*
%TO.P,A1,27,+5V*%
%TO.N,+5V*%
X100070000Y-39760000D03*
%TO.P,A1,28,~{RESET}*%
%TO.N,unconnected-(A1-Pad28)*%
X97530000Y-39760000D03*
%TO.P,A1,29,GND*%
%TO.N,GND*%
X94990000Y-39760000D03*
%TO.P,A1,30,VIN*%
%TO.N,BATT*%
X92450000Y-39760000D03*
%TD*%
D14*
%TO.P,J1,1,Pin_1*%
%TO.N,/SDA*%
X50600000Y-27900000D03*
%TO.P,J1,2,Pin_2*%
%TO.N,/SCL*%
X48060000Y-27900000D03*
%TO.P,J1,3,Pin_3*%
%TO.N,+5V*%
X45520000Y-27900000D03*
%TO.P,J1,4,Pin_4*%
%TO.N,GND*%
X42980000Y-27900000D03*
%TD*%
D10*
%TO.P,H4,1,1*%
%TO.N,GND*%
X91500000Y-61500000D03*
D11*
X91500000Y-61500000D03*
%TD*%
%TO.P,H6,1,1*%
%TO.N,GND*%
X29800000Y-57000000D03*
D10*
X29800000Y-57000000D03*
%TD*%
D11*
%TO.P,H1,1,1*%
%TO.N,GND*%
X91500000Y-33500000D03*
D10*
X91500000Y-33500000D03*
%TD*%
D15*
%TO.P,D1,1,A*%
%TO.N,Net-(D1-Pad1)*%
X86300000Y-32790000D03*
D16*
%TO.P,D1,2,K*%
%TO.N,BATT*%
X86300000Y-40410000D03*
%TD*%
D17*
%TO.P,SW1,1,1*%
%TO.N,/BT1*%
X44550000Y-66000000D03*
X44550000Y-59500000D03*
%TO.P,SW1,2,2*%
%TO.N,GND*%
X49050000Y-66000000D03*
X49050000Y-59500000D03*
%TD*%
D18*
%TO.P,J5,1,Pin_1*%
%TO.N,/SDA*%
X74000000Y-41150000D03*
D19*
%TO.P,J5,2,Pin_2*%
%TO.N,/SCL*%
X74000000Y-43690000D03*
%TO.P,J5,3,Pin_3*%
%TO.N,+5V*%
X74000000Y-46230000D03*
%TO.P,J5,4,Pin_4*%
%TO.N,GND*%
X74000000Y-48770000D03*
%TO.P,J5,5,Pin_5*%
%TO.N,/BT1*%
X74000000Y-51310000D03*
%TO.P,J5,6,Pin_6*%
%TO.N,/BT2*%
X74000000Y-53850000D03*
%TD*%
D18*
%TO.P,J4,1,Pin_1*%
%TO.N,/RX*%
X84125000Y-62400000D03*
D19*
%TO.P,J4,2,Pin_2*%
%TO.N,/TX*%
X81585000Y-62400000D03*
%TO.P,J4,3,Pin_3*%
%TO.N,GND*%
X79045000Y-62400000D03*
%TD*%
D10*
%TO.P,H3,1,1*%
%TO.N,GND*%
X128000000Y-61500000D03*
D11*
X128000000Y-61500000D03*
%TD*%
D17*
%TO.P,SW2,1,1*%
%TO.N,+5V*%
X31800000Y-44000000D03*
X31800000Y-50500000D03*
%TO.P,SW2,2,2*%
%TO.N,/BT2*%
X27300000Y-44000000D03*
X27300000Y-50500000D03*
%TD*%
D20*
%TO.P,J3,1,Pin_1*%
%TO.N,GND*%
X78400000Y-34700000D03*
D21*
%TO.P,J3,2,Pin_2*%
%TO.N,Net-(D1-Pad1)*%
X81900000Y-34700000D03*
%TD*%
D18*
%TO.P,J6,1,Pin_1*%
%TO.N,/SDA*%
X36175000Y-41150000D03*
D19*
%TO.P,J6,2,Pin_2*%
%TO.N,/SCL*%
X36175000Y-43690000D03*
%TO.P,J6,3,Pin_3*%
%TO.N,+5V*%
X36175000Y-46230000D03*
%TO.P,J6,4,Pin_4*%
%TO.N,GND*%
X36175000Y-48770000D03*
%TO.P,J6,5,Pin_5*%
%TO.N,/BT1*%
X36175000Y-51310000D03*
%TO.P,J6,6,Pin_6*%
%TO.N,/BT2*%
X36175000Y-53850000D03*
%TD*%
D14*
%TO.P,J2,1,Pin_1*%
%TO.N,+5V*%
X125200000Y-43550000D03*
%TO.P,J2,2,Pin_2*%
%TO.N,/SCK*%
X125200000Y-46090000D03*
%TO.P,J2,3,Pin_3*%
%TO.N,/DT*%
X125200000Y-48630000D03*
%TO.P,J2,4,Pin_4*%
%TO.N,GND*%
X125200000Y-51170000D03*
%TD*%
D22*
%TO.P,R1,1*%
%TO.N,/BT2*%
X38910000Y-54010000D03*
D13*
%TO.P,R1,2*%
%TO.N,GND*%
X38910000Y-64170000D03*
%TD*%
D23*
%TO.N,GND*%
X73900000Y-35300000D03*
X108800000Y-60600000D03*
X79800000Y-48700000D03*
X80000000Y-56800000D03*
X105700000Y-49800000D03*
X109700000Y-34400000D03*
X34600000Y-61100000D03*
X34900000Y-32700000D03*
X60200000Y-33300000D03*
X59700000Y-51200000D03*
X54800000Y-48100000D03*
%TO.N,/SCL*%
X102950000Y-44500000D03*
%TO.N,/SDA*%
X106495000Y-43495000D03*
%TO.N,/BT2*%
X69400000Y-49200000D03*
%TO.N,/BT1*%
X69400000Y-48500000D03*
%TO.N,GND*%
X69400000Y-47800000D03*
%TO.N,+5V*%
X69400000Y-47200000D03*
%TO.N,/SCL*%
X69400000Y-46500000D03*
%TO.N,/SDA*%
X69400000Y-45800000D03*
%TO.N,+5V*%
X71400000Y-47200000D03*
%TO.N,GND*%
X71400000Y-47800000D03*
%TO.N,/BT1*%
X71400000Y-48500000D03*
%TO.N,/SCL*%
X71400000Y-46500000D03*
%TO.N,/BT2*%
X71400000Y-49200000D03*
%TO.N,/SDA*%
X71400000Y-45800000D03*
%TD*%
D24*
%TO.N,/SCL*%
X102950000Y-44500000D02*
X74810000Y-44500000D01*
X74810000Y-44500000D02*
X74000000Y-43690000D01*
D25*
%TO.N,/SDA*%
X74000000Y-41150000D02*
X80050000Y-41150000D01*
X82395000Y-43495000D02*
X106495000Y-43495000D01*
X80050000Y-41150000D02*
X82395000Y-43495000D01*
D24*
%TO.N,/SCK*%
X125200000Y-46090000D02*
X119140000Y-46090000D01*
X119140000Y-46090000D02*
X110230000Y-55000000D01*
%TO.N,/BT1*%
X102610000Y-55000000D02*
X98920000Y-51310000D01*
X98920000Y-51310000D02*
X74000000Y-51310000D01*
D25*
X44550000Y-59500000D02*
X44550000Y-66000000D01*
%TO.N,+5V*%
X31800000Y-44000000D02*
X34030000Y-46230000D01*
X34030000Y-46230000D02*
X36175000Y-46230000D01*
%TO.N,/BT2*%
X27300000Y-44000000D02*
X27300000Y-50500000D01*
X27300000Y-50500000D02*
X29700000Y-52900000D01*
X29700000Y-52900000D02*
X35225000Y-52900000D01*
X35225000Y-52900000D02*
X36175000Y-53850000D01*
X36175000Y-53850000D02*
X38750000Y-53850000D01*
X38750000Y-53850000D02*
X38910000Y-54010000D01*
%TO.N,/SCL*%
X46200000Y-29760000D02*
X45240000Y-29760000D01*
X45240000Y-29760000D02*
X34300000Y-40700000D01*
X36175000Y-43690000D02*
X34790000Y-43690000D01*
X34790000Y-43690000D02*
X34300000Y-43200000D01*
X34300000Y-43200000D02*
X34300000Y-40700000D01*
X46200000Y-29760000D02*
X48060000Y-27900000D01*
%TO.N,/SDA*%
X36175000Y-41150000D02*
X37350000Y-41150000D01*
X37350000Y-41150000D02*
X50600000Y-27900000D01*
%TD*%
%TA.AperFunction,Conductor*%
%TO.N,GND*%
G36*
X47171647Y-25531867D02*
G01*
X47969273Y-25562295D01*
X48084664Y-25566697D01*
X48089917Y-25567007D01*
X49000714Y-25639954D01*
X49005953Y-25640484D01*
X49912887Y-25751417D01*
X49918098Y-25752165D01*
X50819629Y-25900894D01*
X50824805Y-25901860D01*
X51351306Y-26011490D01*
X51719312Y-26088118D01*
X51724425Y-26089295D01*
X51869901Y-26125989D01*
X52610383Y-26312766D01*
X52615460Y-26314160D01*
X53152659Y-26473807D01*
X53385132Y-26542894D01*
X53491305Y-26574447D01*
X53496313Y-26576050D01*
X53636158Y-26624054D01*
X54360507Y-26872698D01*
X54365451Y-26874511D01*
X55216512Y-27207011D01*
X55221374Y-27209029D01*
X55805183Y-27465720D01*
X55964098Y-27535592D01*
X56057790Y-27576787D01*
X56062541Y-27578995D01*
X56273598Y-27682522D01*
X56882889Y-27981391D01*
X56887567Y-27983808D01*
X57690386Y-28420124D01*
X57694958Y-28422735D01*
X57923075Y-28559355D01*
X58478820Y-28892194D01*
X58483246Y-28894971D01*
X59242306Y-29393809D01*
X59246836Y-29396786D01*
X59251168Y-29399764D01*
X59902930Y-29868213D01*
X59993111Y-29933030D01*
X59997321Y-29936191D01*
X60583161Y-30395562D01*
X60716350Y-30499999D01*
X60720421Y-30503331D01*
X60726474Y-30508500D01*
X61415241Y-31096663D01*
X61419168Y-31100161D01*
X62088337Y-31721765D01*
X62088609Y-31722018D01*
X62092381Y-31725671D01*
X62201852Y-31836233D01*
X62735259Y-32374957D01*
X62738885Y-32378775D01*
X63354083Y-33054357D01*
X63357546Y-33058324D01*
X63943960Y-33758993D01*
X63947254Y-33763100D01*
X64503898Y-34487677D01*
X64507017Y-34491918D01*
X65032891Y-35239098D01*
X65035831Y-35243466D01*
X65198447Y-35496340D01*
X65525912Y-36005558D01*
X65530044Y-36011984D01*
X65532795Y-36016465D01*
X65930611Y-36695897D01*
X65994460Y-36804946D01*
X65997020Y-36809535D01*
X66253058Y-37291985D01*
X66425353Y-37616638D01*
X66427719Y-37621330D01*
X66666808Y-38121228D01*
X66821954Y-38445614D01*
X66824125Y-38450409D01*
X67134564Y-39175896D01*
X67183567Y-39290416D01*
X67185536Y-39295294D01*
X67508675Y-40147223D01*
X67509584Y-40149620D01*
X67511341Y-40154562D01*
X67799415Y-41021682D01*
X67800970Y-41026713D01*
X68052557Y-41905082D01*
X68053901Y-41910172D01*
X68268575Y-42798298D01*
X68269705Y-42803440D01*
X68445633Y-43692408D01*
X68447087Y-43699757D01*
X68447999Y-43704933D01*
X68473785Y-43871498D01*
X68587783Y-44607899D01*
X68588479Y-44613118D01*
X68685573Y-45477994D01*
X68686106Y-45500047D01*
X68684967Y-45517934D01*
X68682796Y-45517796D01*
X68677763Y-45554800D01*
X68656600Y-45612947D01*
X68656599Y-45612951D01*
X68654190Y-45619570D01*
X68653307Y-45626556D01*
X68653307Y-45626558D01*
X68649623Y-45655720D01*
X68632750Y-45789286D01*
X68649443Y-45959536D01*
X68651667Y-45966221D01*
X68700435Y-46112824D01*
X68702958Y-46183776D01*
X68699278Y-46195690D01*
X68656600Y-46312947D01*
X68656599Y-46312952D01*
X68654190Y-46319570D01*
X68632750Y-46489286D01*
X68649443Y-46659536D01*
X68651667Y-46666221D01*
X68700435Y-46812824D01*
X68702958Y-46883776D01*
X68699278Y-46895690D01*
X68656600Y-47012947D01*
X68656599Y-47012952D01*
X68654190Y-47019570D01*
X68632750Y-47189286D01*
X68649443Y-47359536D01*
X68703440Y-47521856D01*
X68707087Y-47527878D01*
X68707088Y-47527880D01*
X68788406Y-47662154D01*
X68788409Y-47662157D01*
X68792056Y-47668180D01*
X68875655Y-47754748D01*
X68883758Y-47763139D01*
X68916690Y-47826035D01*
X68910390Y-47896752D01*
X68881278Y-47940690D01*
X68805366Y-48015028D01*
X68801547Y-48020953D01*
X68801546Y-48020955D01*
X68796135Y-48029352D01*
X68712698Y-48158820D01*
X68710287Y-48165443D01*
X68710286Y-48165446D01*
X68656600Y-48312947D01*
X68656599Y-48312952D01*
X68654190Y-48319570D01*
X68632750Y-48489286D01*
X68649443Y-48659536D01*
X68651667Y-48666221D01*
X68700435Y-48812824D01*
X68702958Y-48883776D01*
X68699278Y-48895690D01*
X68656600Y-49012947D01*
X68656599Y-49012952D01*
X68654190Y-49019570D01*
X68632750Y-49189286D01*
X68649443Y-49359536D01*
X68672894Y-49430031D01*
X68682891Y-49460084D01*
X68688586Y-49513560D01*
X68684518Y-49550743D01*
X68593698Y-50380807D01*
X68593015Y-50386034D01*
X68576811Y-50492662D01*
X68456879Y-51281851D01*
X68455589Y-51290339D01*
X68454692Y-51295513D01*
X68398752Y-51582275D01*
X68279557Y-52193294D01*
X68278440Y-52198445D01*
X68140538Y-52775716D01*
X68090371Y-52985719D01*
X68065910Y-53088113D01*
X68064580Y-53093206D01*
X67818286Y-53961703D01*
X67815026Y-53973197D01*
X67813487Y-53978221D01*
X67534943Y-54823938D01*
X67527347Y-54847001D01*
X67525599Y-54851959D01*
X67463140Y-55017892D01*
X67203356Y-55708048D01*
X67201396Y-55712941D01*
X66843644Y-56554767D01*
X66841481Y-56559574D01*
X66448837Y-57385690D01*
X66446475Y-57390403D01*
X66019610Y-58199393D01*
X66017053Y-58204002D01*
X65556742Y-58994400D01*
X65553995Y-58998899D01*
X65384828Y-59263289D01*
X65085121Y-59731699D01*
X65061005Y-59769389D01*
X65058074Y-59773765D01*
X65048908Y-59786851D01*
X64533305Y-60522937D01*
X64530191Y-60527191D01*
X63974534Y-61253774D01*
X63971245Y-61257893D01*
X63385686Y-61960596D01*
X63382227Y-61964574D01*
X62767812Y-62642146D01*
X62764192Y-62645975D01*
X62256308Y-63161028D01*
X62121942Y-63297290D01*
X62118163Y-63300965D01*
X61449244Y-63924835D01*
X61445314Y-63928349D01*
X60750900Y-64523683D01*
X60746830Y-64527028D01*
X60135613Y-65008180D01*
X60028122Y-65092797D01*
X60023912Y-65095971D01*
X59282131Y-65631212D01*
X59277793Y-65634206D01*
X58932575Y-65861971D01*
X58514305Y-66137933D01*
X58509861Y-66140733D01*
X57725956Y-66612093D01*
X57721383Y-66614714D01*
X56918481Y-67052858D01*
X56913802Y-67055286D01*
X56093260Y-67459473D01*
X56088484Y-67461703D01*
X55251724Y-67831228D01*
X55246892Y-67833242D01*
X55068095Y-67903419D01*
X54395423Y-68167440D01*
X54390478Y-68169263D01*
X53525782Y-68467553D01*
X53520777Y-68469163D01*
X52644365Y-68731024D01*
X52639283Y-68732427D01*
X51752716Y-68957394D01*
X51747581Y-68958584D01*
X50852329Y-69146284D01*
X50847149Y-69147257D01*
X49944866Y-69297341D01*
X49939649Y-69298097D01*
X49031865Y-69410312D01*
X49026622Y-69410849D01*
X48114959Y-69484996D01*
X48109700Y-69485314D01*
X48053832Y-69487511D01*
X47195701Y-69521265D01*
X47190431Y-69521362D01*
X46747611Y-69520244D01*
X46275715Y-69519053D01*
X46270481Y-69518929D01*
X45356670Y-69478364D01*
X45351429Y-69478022D01*
X44826386Y-69432650D01*
X44440143Y-69399272D01*
X44434902Y-69398709D01*
X44200824Y-69368573D01*
X43527652Y-69281906D01*
X43522475Y-69281129D01*
X42620948Y-69126489D01*
X42615801Y-69125496D01*
X42047190Y-69003280D01*
X41721496Y-68933276D01*
X41716366Y-68932060D01*
X41386418Y-68846560D01*
X40830925Y-68702614D01*
X40825901Y-68701200D01*
X39950767Y-68434901D01*
X39945776Y-68433267D01*
X39192823Y-68169263D01*
X39082606Y-68130618D01*
X39077669Y-68128770D01*
X38227908Y-67790281D01*
X38223053Y-67788228D01*
X37388225Y-67414507D01*
X37383460Y-67412254D01*
X36697344Y-67069969D01*
X36564935Y-67003913D01*
X36560273Y-67001464D01*
X35759570Y-66559259D01*
X35755054Y-66556641D01*
X34973517Y-66081314D01*
X34969072Y-66078481D01*
X34851416Y-66000000D01*
X43036835Y-66000000D01*
X43055465Y-66236711D01*
X43056619Y-66241518D01*
X43056620Y-66241524D01*
X43086122Y-66364408D01*
X43110895Y-66467594D01*
X43112788Y-66472165D01*
X43112789Y-66472167D01*
X43199772Y-66682163D01*
X43201760Y-66686963D01*
X43204346Y-66691183D01*
X43323241Y-66885202D01*
X43323245Y-66885208D01*
X43325824Y-66889416D01*
X43423616Y-67003916D01*
X43467491Y-67055286D01*
X43480031Y-67069969D01*
X43660584Y-67224176D01*
X43664792Y-67226755D01*
X43664798Y-67226759D01*
X43858084Y-67345205D01*
X43863037Y-67348240D01*
X43867607Y-67350133D01*
X43867611Y-67350135D01*
X44077833Y-67437211D01*
X44082406Y-67439105D01*
X44162609Y-67458360D01*
X44308476Y-67493380D01*
X44308482Y-67493381D01*
X44313289Y-67494535D01*
X44550000Y-67513165D01*
X44786711Y-67494535D01*
X44791518Y-67493381D01*
X44791524Y-67493380D01*
X44937391Y-67458360D01*
X45017594Y-67439105D01*
X45022167Y-67437211D01*
X45232389Y-67350135D01*
X45232393Y-67350133D01*
X45236963Y-67348240D01*
X45241916Y-67345205D01*
X45425556Y-67232670D01*
X48182160Y-67232670D01*
X48187887Y-67240320D01*
X48359042Y-67345205D01*
X48367837Y-67349687D01*
X48577988Y-67436734D01*
X48587373Y-67439783D01*
X48808554Y-67492885D01*
X48818301Y-67494428D01*
X49045070Y-67512275D01*
X49054930Y-67512275D01*
X49281699Y-67494428D01*
X49291446Y-67492885D01*
X49512627Y-67439783D01*
X49522012Y-67436734D01*
X49732163Y-67349687D01*
X49740958Y-67345205D01*
X49908445Y-67242568D01*
X49917907Y-67232110D01*
X49914124Y-67223334D01*
X49062812Y-66372022D01*
X49048868Y-66364408D01*
X49047035Y-66364539D01*
X49040420Y-66368790D01*
X48188920Y-67220290D01*
X48182160Y-67232670D01*
X45425556Y-67232670D01*
X45435202Y-67226759D01*
X45435208Y-67226755D01*
X45439416Y-67224176D01*
X45619969Y-67069969D01*
X45632510Y-67055286D01*
X45676384Y-67003916D01*
X45774176Y-66889416D01*
X45776755Y-66885208D01*
X45776759Y-66885202D01*
X45895654Y-66691183D01*
X45898240Y-66686963D01*
X45900229Y-66682163D01*
X45987211Y-66472167D01*
X45987212Y-66472165D01*
X45989105Y-66467594D01*
X46013878Y-66364408D01*
X46043380Y-66241524D01*
X46043381Y-66241518D01*
X46044535Y-66236711D01*
X46062777Y-66004930D01*
X47537725Y-66004930D01*
X47555572Y-66231699D01*
X47557115Y-66241446D01*
X47610217Y-66462627D01*
X47613266Y-66472012D01*
X47700313Y-66682163D01*
X47704795Y-66690958D01*
X47807432Y-66858445D01*
X47817890Y-66867907D01*
X47826666Y-66864124D01*
X48677978Y-66012812D01*
X48684356Y-66001132D01*
X49414408Y-66001132D01*
X49414539Y-66002965D01*
X49418790Y-66009580D01*
X50270290Y-66861080D01*
X50282670Y-66867840D01*
X50290320Y-66862113D01*
X50395205Y-66690958D01*
X50399687Y-66682163D01*
X50486734Y-66472012D01*
X50489783Y-66462627D01*
X50542885Y-66241446D01*
X50544428Y-66231699D01*
X50562275Y-66004930D01*
X50562275Y-65995070D01*
X50544428Y-65768301D01*
X50542885Y-65758554D01*
X50489783Y-65537373D01*
X50486734Y-65527988D01*
X50399687Y-65317837D01*
X50395205Y-65309042D01*
X50292568Y-65141555D01*
X50282110Y-65132093D01*
X50273334Y-65135876D01*
X49422022Y-65987188D01*
X49414408Y-66001132D01*
X48684356Y-66001132D01*
X48685592Y-65998868D01*
X48685461Y-65997035D01*
X48681210Y-65990420D01*
X47829710Y-65138920D01*
X47817330Y-65132160D01*
X47809680Y-65137887D01*
X47704795Y-65309042D01*
X47700313Y-65317837D01*
X47613266Y-65527988D01*
X47610217Y-65537373D01*
X47557115Y-65758554D01*
X47555572Y-65768301D01*
X47537725Y-65995070D01*
X47537725Y-66004930D01*
X46062777Y-66004930D01*
X46063165Y-66000000D01*
X46044535Y-65763289D01*
X45989105Y-65532406D01*
X45979120Y-65508300D01*
X45900135Y-65317611D01*
X45900133Y-65317607D01*
X45898240Y-65313037D01*
X45892289Y-65303326D01*
X45776759Y-65114798D01*
X45776755Y-65114792D01*
X45774176Y-65110584D01*
X45619969Y-64930031D01*
X45439416Y-64775824D01*
X45426469Y-64767890D01*
X48182093Y-64767890D01*
X48185876Y-64776666D01*
X49037188Y-65627978D01*
X49051132Y-65635592D01*
X49052965Y-65635461D01*
X49059580Y-65631210D01*
X49911080Y-64779710D01*
X49917840Y-64767330D01*
X49912113Y-64759680D01*
X49740958Y-64654795D01*
X49732163Y-64650313D01*
X49522012Y-64563266D01*
X49512627Y-64560217D01*
X49291446Y-64507115D01*
X49281699Y-64505572D01*
X49054930Y-64487725D01*
X49045070Y-64487725D01*
X48818301Y-64505572D01*
X48808554Y-64507115D01*
X48587373Y-64560217D01*
X48577988Y-64563266D01*
X48367837Y-64650313D01*
X48359042Y-64654795D01*
X48191555Y-64757432D01*
X48182093Y-64767890D01*
X45426469Y-64767890D01*
X45245664Y-64657092D01*
X45198034Y-64604445D01*
X45185500Y-64549660D01*
X45185500Y-60950340D01*
X45205502Y-60882219D01*
X45245664Y-60842908D01*
X45425555Y-60732670D01*
X48182160Y-60732670D01*
X48187887Y-60740320D01*
X48359042Y-60845205D01*
X48367837Y-60849687D01*
X48577988Y-60936734D01*
X48587373Y-60939783D01*
X48808554Y-60992885D01*
X48818301Y-60994428D01*
X49045070Y-61012275D01*
X49054930Y-61012275D01*
X49281699Y-60994428D01*
X49291446Y-60992885D01*
X49512627Y-60939783D01*
X49522012Y-60936734D01*
X49732163Y-60849687D01*
X49740958Y-60845205D01*
X49908445Y-60742568D01*
X49917907Y-60732110D01*
X49914124Y-60723334D01*
X49062812Y-59872022D01*
X49048868Y-59864408D01*
X49047035Y-59864539D01*
X49040420Y-59868790D01*
X48188920Y-60720290D01*
X48182160Y-60732670D01*
X45425555Y-60732670D01*
X45439416Y-60724176D01*
X45619969Y-60569969D01*
X45774176Y-60389416D01*
X45776755Y-60385208D01*
X45776759Y-60385202D01*
X45895654Y-60191183D01*
X45898240Y-60186963D01*
X45900229Y-60182163D01*
X45987211Y-59972167D01*
X45987212Y-59972165D01*
X45989105Y-59967594D01*
X46031517Y-59790937D01*
X46043380Y-59741524D01*
X46043381Y-59741518D01*
X46044535Y-59736711D01*
X46062777Y-59504930D01*
X47537725Y-59504930D01*
X47555572Y-59731699D01*
X47557115Y-59741446D01*
X47610217Y-59962627D01*
X47613266Y-59972012D01*
X47700313Y-60182163D01*
X47704795Y-60190958D01*
X47807432Y-60358445D01*
X47817890Y-60367907D01*
X47826666Y-60364124D01*
X48677978Y-59512812D01*
X48684356Y-59501132D01*
X49414408Y-59501132D01*
X49414539Y-59502965D01*
X49418790Y-59509580D01*
X50270290Y-60361080D01*
X50282670Y-60367840D01*
X50290320Y-60362113D01*
X50395205Y-60190958D01*
X50399687Y-60182163D01*
X50486734Y-59972012D01*
X50489783Y-59962627D01*
X50542885Y-59741446D01*
X50544428Y-59731699D01*
X50562275Y-59504930D01*
X50562275Y-59495070D01*
X50544428Y-59268301D01*
X50542885Y-59258554D01*
X50489783Y-59037373D01*
X50486734Y-59027988D01*
X50399687Y-58817837D01*
X50395205Y-58809042D01*
X50292568Y-58641555D01*
X50282110Y-58632093D01*
X50273334Y-58635876D01*
X49422022Y-59487188D01*
X49414408Y-59501132D01*
X48684356Y-59501132D01*
X48685592Y-59498868D01*
X48685461Y-59497035D01*
X48681210Y-59490420D01*
X47829710Y-58638920D01*
X47817330Y-58632160D01*
X47809680Y-58637887D01*
X47704795Y-58809042D01*
X47700313Y-58817837D01*
X47613266Y-59027988D01*
X47610217Y-59037373D01*
X47557115Y-59258554D01*
X47555572Y-59268301D01*
X47537725Y-59495070D01*
X47537725Y-59504930D01*
X46062777Y-59504930D01*
X46063165Y-59500000D01*
X46044535Y-59263289D01*
X46014888Y-59139798D01*
X45990260Y-59037218D01*
X45989105Y-59032406D01*
X45974850Y-58997991D01*
X45900135Y-58817611D01*
X45900133Y-58817607D01*
X45898240Y-58813037D01*
X45880950Y-58784823D01*
X45776759Y-58614798D01*
X45776755Y-58614792D01*
X45774176Y-58610584D01*
X45619969Y-58430031D01*
X45606705Y-58418702D01*
X45574957Y-58391587D01*
X45439416Y-58275824D01*
X45435208Y-58273245D01*
X45435202Y-58273241D01*
X45426470Y-58267890D01*
X48182093Y-58267890D01*
X48185876Y-58276666D01*
X49037188Y-59127978D01*
X49051132Y-59135592D01*
X49052965Y-59135461D01*
X49059580Y-59131210D01*
X49911080Y-58279710D01*
X49917840Y-58267330D01*
X49912113Y-58259680D01*
X49740958Y-58154795D01*
X49732163Y-58150313D01*
X49522012Y-58063266D01*
X49512627Y-58060217D01*
X49291446Y-58007115D01*
X49281699Y-58005572D01*
X49054930Y-57987725D01*
X49045070Y-57987725D01*
X48818301Y-58005572D01*
X48808554Y-58007115D01*
X48587373Y-58060217D01*
X48577988Y-58063266D01*
X48367837Y-58150313D01*
X48359042Y-58154795D01*
X48191555Y-58257432D01*
X48182093Y-58267890D01*
X45426470Y-58267890D01*
X45241183Y-58154346D01*
X45236963Y-58151760D01*
X45232393Y-58149867D01*
X45232389Y-58149865D01*
X45022167Y-58062789D01*
X45022165Y-58062788D01*
X45017594Y-58060895D01*
X44937391Y-58041640D01*
X44791524Y-58006620D01*
X44791518Y-58006619D01*
X44786711Y-58005465D01*
X44550000Y-57986835D01*
X44313289Y-58005465D01*
X44308482Y-58006619D01*
X44308476Y-58006620D01*
X44162609Y-58041640D01*
X44082406Y-58060895D01*
X44077835Y-58062788D01*
X44077833Y-58062789D01*
X43867611Y-58149865D01*
X43867607Y-58149867D01*
X43863037Y-58151760D01*
X43858817Y-58154346D01*
X43664798Y-58273241D01*
X43664792Y-58273245D01*
X43660584Y-58275824D01*
X43525043Y-58391587D01*
X43493296Y-58418702D01*
X43480031Y-58430031D01*
X43325824Y-58610584D01*
X43323245Y-58614792D01*
X43323241Y-58614798D01*
X43219050Y-58784823D01*
X43201760Y-58813037D01*
X43199867Y-58817607D01*
X43199865Y-58817611D01*
X43125150Y-58997991D01*
X43110895Y-59032406D01*
X43109740Y-59037218D01*
X43085113Y-59139798D01*
X43055465Y-59263289D01*
X43036835Y-59500000D01*
X43055465Y-59736711D01*
X43056619Y-59741518D01*
X43056620Y-59741524D01*
X43068483Y-59790937D01*
X43110895Y-59967594D01*
X43112788Y-59972165D01*
X43112789Y-59972167D01*
X43199772Y-60182163D01*
X43201760Y-60186963D01*
X43204346Y-60191183D01*
X43323241Y-60385202D01*
X43323245Y-60385208D01*
X43325824Y-60389416D01*
X43480031Y-60569969D01*
X43660584Y-60724176D01*
X43854336Y-60842908D01*
X43901966Y-60895555D01*
X43914500Y-60950340D01*
X43914500Y-64549660D01*
X43894498Y-64617781D01*
X43854336Y-64657092D01*
X43660584Y-64775824D01*
X43480031Y-64930031D01*
X43325824Y-65110584D01*
X43323245Y-65114792D01*
X43323241Y-65114798D01*
X43207711Y-65303326D01*
X43201760Y-65313037D01*
X43199867Y-65317607D01*
X43199865Y-65317611D01*
X43120880Y-65508300D01*
X43110895Y-65532406D01*
X43055465Y-65763289D01*
X43036835Y-66000000D01*
X34851416Y-66000000D01*
X34305110Y-65635592D01*
X34208141Y-65570910D01*
X34203824Y-65567898D01*
X34161755Y-65537218D01*
X33841033Y-65303326D01*
X33464784Y-65028939D01*
X33460591Y-65025745D01*
X32744737Y-64456345D01*
X32740681Y-64452978D01*
X32721681Y-64436522D01*
X37627273Y-64436522D01*
X37674764Y-64613761D01*
X37678510Y-64624053D01*
X37770586Y-64821511D01*
X37776069Y-64831007D01*
X37901028Y-65009467D01*
X37908084Y-65017875D01*
X38062125Y-65171916D01*
X38070533Y-65178972D01*
X38248993Y-65303931D01*
X38258489Y-65309414D01*
X38455947Y-65401490D01*
X38466239Y-65405236D01*
X38638503Y-65451394D01*
X38652599Y-65451058D01*
X38656000Y-65443116D01*
X38656000Y-65437967D01*
X39164000Y-65437967D01*
X39167973Y-65451498D01*
X39176522Y-65452727D01*
X39353761Y-65405236D01*
X39364053Y-65401490D01*
X39561511Y-65309414D01*
X39571007Y-65303931D01*
X39749467Y-65178972D01*
X39757875Y-65171916D01*
X39911916Y-65017875D01*
X39918972Y-65009467D01*
X40043931Y-64831007D01*
X40049414Y-64821511D01*
X40141490Y-64624053D01*
X40145236Y-64613761D01*
X40191394Y-64441497D01*
X40191058Y-64427401D01*
X40183116Y-64424000D01*
X39182115Y-64424000D01*
X39166876Y-64428475D01*
X39165671Y-64429865D01*
X39164000Y-64437548D01*
X39164000Y-65437967D01*
X38656000Y-65437967D01*
X38656000Y-64442115D01*
X38651525Y-64426876D01*
X38650135Y-64425671D01*
X38642452Y-64424000D01*
X37642033Y-64424000D01*
X37628502Y-64427973D01*
X37627273Y-64436522D01*
X32721681Y-64436522D01*
X32100496Y-63898503D01*
X37628606Y-63898503D01*
X37628942Y-63912599D01*
X37636884Y-63916000D01*
X38637885Y-63916000D01*
X38653124Y-63911525D01*
X38654329Y-63910135D01*
X38656000Y-63902452D01*
X38656000Y-63897885D01*
X39164000Y-63897885D01*
X39168475Y-63913124D01*
X39169865Y-63914329D01*
X39177548Y-63916000D01*
X40177967Y-63916000D01*
X40191498Y-63912027D01*
X40192727Y-63903478D01*
X40145236Y-63726239D01*
X40141490Y-63715947D01*
X40049414Y-63518489D01*
X40043931Y-63508993D01*
X39918972Y-63330533D01*
X39911916Y-63322125D01*
X39757875Y-63168084D01*
X39749467Y-63161028D01*
X39571007Y-63036069D01*
X39561511Y-63030586D01*
X39364053Y-62938510D01*
X39353761Y-62934764D01*
X39181497Y-62888606D01*
X39167401Y-62888942D01*
X39164000Y-62896884D01*
X39164000Y-63897885D01*
X38656000Y-63897885D01*
X38656000Y-62902033D01*
X38652027Y-62888502D01*
X38643478Y-62887273D01*
X38466239Y-62934764D01*
X38455947Y-62938510D01*
X38258489Y-63030586D01*
X38248993Y-63036069D01*
X38070533Y-63161028D01*
X38062125Y-63168084D01*
X37908084Y-63322125D01*
X37901028Y-63330533D01*
X37776069Y-63508993D01*
X37770586Y-63518489D01*
X37678510Y-63715947D01*
X37674764Y-63726239D01*
X37628606Y-63898503D01*
X32100496Y-63898503D01*
X32099782Y-63897885D01*
X32049270Y-63854136D01*
X32045361Y-63850604D01*
X31942365Y-63753567D01*
X31379601Y-63223366D01*
X31375841Y-63219672D01*
X31060743Y-62896884D01*
X30736896Y-62565133D01*
X30733297Y-62561288D01*
X30716352Y-62542410D01*
X30122282Y-61880590D01*
X30118877Y-61876634D01*
X29614086Y-61264598D01*
X29536865Y-61170971D01*
X29533597Y-61166836D01*
X28981611Y-60437452D01*
X28978522Y-60433187D01*
X28975998Y-60429545D01*
X28953635Y-60362162D01*
X28971253Y-60293386D01*
X29023257Y-60245053D01*
X29093137Y-60232508D01*
X29107260Y-60234857D01*
X29244187Y-60265715D01*
X29250912Y-60266853D01*
X29600143Y-60306643D01*
X29606933Y-60307046D01*
X29958419Y-60308886D01*
X29965220Y-60308554D01*
X30314853Y-60272423D01*
X30321581Y-60271357D01*
X30665274Y-60197676D01*
X30671822Y-60195897D01*
X31005549Y-60085527D01*
X31011891Y-60083041D01*
X31331718Y-59937288D01*
X31337777Y-59934121D01*
X31639995Y-59754676D01*
X31645659Y-59750884D01*
X31926732Y-59539849D01*
X31931958Y-59535464D01*
X31941613Y-59526428D01*
X31949682Y-59512750D01*
X31949654Y-59512024D01*
X31944512Y-59503723D01*
X29812810Y-57372020D01*
X29798869Y-57364408D01*
X29797034Y-57364539D01*
X29790420Y-57368790D01*
X28408413Y-58750797D01*
X28346101Y-58784823D01*
X28275286Y-58779758D01*
X28230223Y-58750797D01*
X28049203Y-58569777D01*
X28015177Y-58507465D01*
X28020242Y-58436650D01*
X28049203Y-58391587D01*
X29427978Y-57012812D01*
X29434356Y-57001131D01*
X30164408Y-57001131D01*
X30164539Y-57002966D01*
X30168790Y-57009580D01*
X32299009Y-59139798D01*
X32312605Y-59147223D01*
X32322218Y-59140522D01*
X32422518Y-59023912D01*
X32426676Y-59018514D01*
X32625762Y-58728840D01*
X32629310Y-58723029D01*
X32795942Y-58413559D01*
X32798849Y-58407381D01*
X32931090Y-58081713D01*
X32933304Y-58075283D01*
X33029598Y-57737237D01*
X33031105Y-57730607D01*
X33090332Y-57384118D01*
X33091112Y-57377378D01*
X33112668Y-57024925D01*
X33112784Y-57021323D01*
X33112853Y-57001819D01*
X33112761Y-56998194D01*
X33093666Y-56645615D01*
X33092931Y-56638849D01*
X33036130Y-56291985D01*
X33034663Y-56285313D01*
X32940736Y-55946627D01*
X32938562Y-55940163D01*
X32808598Y-55613578D01*
X32805742Y-55607398D01*
X32641269Y-55296763D01*
X32637769Y-55290937D01*
X32440697Y-54999862D01*
X32436590Y-54994453D01*
X32323565Y-54861179D01*
X32310740Y-54852743D01*
X32300416Y-54858795D01*
X30172020Y-56987190D01*
X30164408Y-57001131D01*
X29434356Y-57001131D01*
X29435592Y-56998868D01*
X29435461Y-56997035D01*
X29431210Y-56990420D01*
X27300992Y-54860203D01*
X27287455Y-54852811D01*
X27277753Y-54859599D01*
X27170430Y-54985257D01*
X27166296Y-54990664D01*
X26968215Y-55281041D01*
X26964697Y-55286851D01*
X26799134Y-55596922D01*
X26796259Y-55603087D01*
X26683404Y-55883820D01*
X26639437Y-55939564D01*
X26572312Y-55962689D01*
X26503341Y-55945852D01*
X26454421Y-55894399D01*
X26450287Y-55885518D01*
X26334735Y-55609753D01*
X26332808Y-55604870D01*
X26332148Y-55603087D01*
X26014902Y-54747191D01*
X26013175Y-54742213D01*
X25731429Y-53872016D01*
X25729910Y-53866968D01*
X25607823Y-53428026D01*
X25484795Y-52985698D01*
X25483494Y-52980612D01*
X25458239Y-52872477D01*
X25275455Y-52089871D01*
X25274368Y-52084731D01*
X25272078Y-52072665D01*
X25152342Y-51441939D01*
X25103775Y-51186106D01*
X25102900Y-51180908D01*
X25002937Y-50500000D01*
X25786835Y-50500000D01*
X25805465Y-50736711D01*
X25806619Y-50741518D01*
X25806620Y-50741524D01*
X25836493Y-50865954D01*
X25860895Y-50967594D01*
X25862788Y-50972165D01*
X25862789Y-50972167D01*
X25948702Y-51179580D01*
X25951760Y-51186963D01*
X25954346Y-51191183D01*
X26073241Y-51385202D01*
X26073245Y-51385208D01*
X26075824Y-51389416D01*
X26230031Y-51569969D01*
X26410584Y-51724176D01*
X26414792Y-51726755D01*
X26414798Y-51726759D01*
X26608817Y-51845654D01*
X26613037Y-51848240D01*
X26617607Y-51850133D01*
X26617611Y-51850135D01*
X26807720Y-51928880D01*
X26832406Y-51939105D01*
X26900301Y-51955405D01*
X27058476Y-51993380D01*
X27058482Y-51993381D01*
X27063289Y-51994535D01*
X27300000Y-52013165D01*
X27536711Y-51994535D01*
X27541518Y-51993381D01*
X27541524Y-51993380D01*
X27757670Y-51941488D01*
X27828578Y-51945035D01*
X27876179Y-51974912D01*
X29194750Y-53293483D01*
X29202326Y-53301809D01*
X29206447Y-53308303D01*
X29212222Y-53313726D01*
X29256265Y-53355085D01*
X29259107Y-53357840D01*
X29278906Y-53377639D01*
X29282037Y-53380068D01*
X29282042Y-53380072D01*
X29282128Y-53380139D01*
X29291153Y-53387847D01*
X29323494Y-53418217D01*
X29330439Y-53422035D01*
X29330443Y-53422038D01*
X29341334Y-53428026D01*
X29357855Y-53438878D01*
X29373934Y-53451350D01*
X29414662Y-53468974D01*
X29425315Y-53474193D01*
X29430059Y-53476801D01*
X29438044Y-53481191D01*
X29488101Y-53531539D01*
X29502991Y-53600956D01*
X29477989Y-53667404D01*
X29421030Y-53709786D01*
X29390728Y-53716891D01*
X29273719Y-53729395D01*
X29267010Y-53730482D01*
X28923586Y-53805361D01*
X28917011Y-53807172D01*
X28583683Y-53918702D01*
X28577361Y-53921205D01*
X28258034Y-54068079D01*
X28251991Y-54071265D01*
X27950401Y-54251763D01*
X27944755Y-54255571D01*
X27664408Y-54467596D01*
X27659211Y-54471987D01*
X27657972Y-54473155D01*
X27649950Y-54486862D01*
X27649986Y-54487704D01*
X27655037Y-54495826D01*
X29003188Y-55843978D01*
X29787190Y-56627980D01*
X29801131Y-56635592D01*
X29802966Y-56635461D01*
X29809580Y-56631210D01*
X31942798Y-54497991D01*
X31950412Y-54484047D01*
X31950344Y-54483089D01*
X31945836Y-54476272D01*
X31944418Y-54475065D01*
X31664813Y-54262064D01*
X31659187Y-54258240D01*
X31358214Y-54076681D01*
X31352202Y-54073484D01*
X31033370Y-53925487D01*
X31027070Y-53922967D01*
X30694129Y-53810273D01*
X30687551Y-53808437D01*
X30579636Y-53784513D01*
X30517459Y-53750241D01*
X30483681Y-53687795D01*
X30489027Y-53617000D01*
X30531799Y-53560333D01*
X30598417Y-53535786D01*
X30606907Y-53535500D01*
X34702118Y-53535500D01*
X34770239Y-53555502D01*
X34816732Y-53609158D01*
X34827405Y-53674889D01*
X34821464Y-53730482D01*
X34812251Y-53816695D01*
X34812548Y-53821848D01*
X34812548Y-53821851D01*
X34818202Y-53919908D01*
X34825110Y-54039715D01*
X34826247Y-54044761D01*
X34826248Y-54044767D01*
X34838802Y-54100471D01*
X34874222Y-54257639D01*
X34911010Y-54348238D01*
X34946542Y-54435742D01*
X34958266Y-54464616D01*
X35074987Y-54655088D01*
X35221250Y-54823938D01*
X35393126Y-54966632D01*
X35586000Y-55079338D01*
X35794692Y-55159030D01*
X35799760Y-55160061D01*
X35799763Y-55160062D01*
X35907017Y-55181883D01*
X36013597Y-55203567D01*
X36018772Y-55203757D01*
X36018774Y-55203757D01*
X36231673Y-55211564D01*
X36231677Y-55211564D01*
X36236837Y-55211753D01*
X36241957Y-55211097D01*
X36241959Y-55211097D01*
X36453288Y-55184025D01*
X36453289Y-55184025D01*
X36458416Y-55183368D01*
X36463366Y-55181883D01*
X36667429Y-55120661D01*
X36667434Y-55120659D01*
X36672384Y-55119174D01*
X36872994Y-55020896D01*
X37054860Y-54891173D01*
X37085939Y-54860203D01*
X37199344Y-54747193D01*
X37213096Y-54733489D01*
X37272594Y-54650689D01*
X37340438Y-54556273D01*
X37340439Y-54556272D01*
X37343453Y-54552077D01*
X37345746Y-54547438D01*
X37346247Y-54546605D01*
X37398477Y-54498516D01*
X37454250Y-54485500D01*
X37607689Y-54485500D01*
X37675810Y-54505502D01*
X37721883Y-54558249D01*
X37772477Y-54666749D01*
X37816270Y-54729292D01*
X37879807Y-54820031D01*
X37903802Y-54854300D01*
X38065700Y-55016198D01*
X38070208Y-55019355D01*
X38070211Y-55019357D01*
X38072409Y-55020896D01*
X38253251Y-55147523D01*
X38258233Y-55149846D01*
X38258238Y-55149849D01*
X38414270Y-55222607D01*
X38460757Y-55244284D01*
X38466065Y-55245706D01*
X38466067Y-55245707D01*
X38676598Y-55302119D01*
X38676600Y-55302119D01*
X38681913Y-55303543D01*
X38910000Y-55323498D01*
X39138087Y-55303543D01*
X39143400Y-55302119D01*
X39143402Y-55302119D01*
X39353933Y-55245707D01*
X39353935Y-55245706D01*
X39359243Y-55244284D01*
X39405730Y-55222607D01*
X39561762Y-55149849D01*
X39561767Y-55149846D01*
X39566749Y-55147523D01*
X39747591Y-55020896D01*
X39749789Y-55019357D01*
X39749792Y-55019355D01*
X39754300Y-55016198D01*
X39916198Y-54854300D01*
X39940194Y-54820031D01*
X39994682Y-54742213D01*
X40047523Y-54666749D01*
X40049846Y-54661767D01*
X40049849Y-54661762D01*
X40141961Y-54464225D01*
X40141961Y-54464224D01*
X40144284Y-54459243D01*
X40150423Y-54436334D01*
X40202119Y-54243402D01*
X40202119Y-54243400D01*
X40203543Y-54238087D01*
X40223498Y-54010000D01*
X40203543Y-53781913D01*
X40199952Y-53768510D01*
X40145707Y-53566067D01*
X40145706Y-53566065D01*
X40144284Y-53560757D01*
X40141834Y-53555502D01*
X40049849Y-53358238D01*
X40049846Y-53358233D01*
X40047523Y-53353251D01*
X39950368Y-53214500D01*
X39919357Y-53170211D01*
X39919355Y-53170208D01*
X39916198Y-53165700D01*
X39754300Y-53003802D01*
X39749792Y-53000645D01*
X39749789Y-53000643D01*
X39671611Y-52945902D01*
X39566749Y-52872477D01*
X39561767Y-52870154D01*
X39561762Y-52870151D01*
X39364225Y-52778039D01*
X39364224Y-52778039D01*
X39359243Y-52775716D01*
X39353935Y-52774294D01*
X39353933Y-52774293D01*
X39143402Y-52717881D01*
X39143400Y-52717881D01*
X39138087Y-52716457D01*
X38910000Y-52696502D01*
X38681913Y-52716457D01*
X38676600Y-52717881D01*
X38676598Y-52717881D01*
X38466067Y-52774293D01*
X38466065Y-52774294D01*
X38460757Y-52775716D01*
X38455776Y-52778039D01*
X38455775Y-52778039D01*
X38258238Y-52870151D01*
X38258233Y-52870154D01*
X38253251Y-52872477D01*
X38148389Y-52945902D01*
X38070211Y-53000643D01*
X38070208Y-53000645D01*
X38065700Y-53003802D01*
X37903802Y-53165700D01*
X37901060Y-53169616D01*
X37842139Y-53208818D01*
X37804726Y-53214500D01*
X37450511Y-53214500D01*
X37382390Y-53194498D01*
X37344719Y-53156940D01*
X37257822Y-53022617D01*
X37257820Y-53022614D01*
X37255014Y-53018277D01*
X37104670Y-52853051D01*
X37100619Y-52849852D01*
X37100615Y-52849848D01*
X36933414Y-52717800D01*
X36933410Y-52717798D01*
X36929359Y-52714598D01*
X36888053Y-52691796D01*
X36838084Y-52641364D01*
X36823312Y-52571921D01*
X36848428Y-52505516D01*
X36875780Y-52478909D01*
X36935329Y-52436433D01*
X37054860Y-52351173D01*
X37104299Y-52301907D01*
X37171221Y-52235218D01*
X37213096Y-52193489D01*
X37272594Y-52110689D01*
X37340435Y-52016277D01*
X37343453Y-52012077D01*
X37384572Y-51928880D01*
X37440136Y-51816453D01*
X37440137Y-51816451D01*
X37442430Y-51811811D01*
X37507370Y-51598069D01*
X37536529Y-51376590D01*
X37538156Y-51310000D01*
X37519852Y-51087361D01*
X37465431Y-50870702D01*
X37376354Y-50665840D01*
X37270111Y-50501613D01*
X37257822Y-50482617D01*
X37257820Y-50482614D01*
X37255014Y-50478277D01*
X37104670Y-50313051D01*
X37100619Y-50309852D01*
X37100615Y-50309848D01*
X36933414Y-50177800D01*
X36933410Y-50177798D01*
X36929359Y-50174598D01*
X36887569Y-50151529D01*
X36837598Y-50101097D01*
X36822826Y-50031654D01*
X36847942Y-49965248D01*
X36875294Y-49938641D01*
X37050328Y-49813792D01*
X37058200Y-49807139D01*
X37209052Y-49656812D01*
X37215730Y-49648965D01*
X37340003Y-49476020D01*
X37345313Y-49467183D01*
X37439670Y-49276267D01*
X37443469Y-49266672D01*
X37505377Y-49062910D01*
X37507555Y-49052837D01*
X37508986Y-49041962D01*
X37506775Y-49027778D01*
X37493617Y-49024000D01*
X34858225Y-49024000D01*
X34844694Y-49027973D01*
X34843257Y-49037966D01*
X34873565Y-49172446D01*
X34876645Y-49182275D01*
X34956770Y-49379603D01*
X34961413Y-49388794D01*
X35072694Y-49570388D01*
X35078777Y-49578699D01*
X35218213Y-49739667D01*
X35225580Y-49746883D01*
X35389434Y-49882916D01*
X35397881Y-49888831D01*
X35466969Y-49929203D01*
X35515693Y-49980842D01*
X35528764Y-50050625D01*
X35502033Y-50116396D01*
X35461584Y-50149752D01*
X35448607Y-50156507D01*
X35444474Y-50159610D01*
X35444471Y-50159612D01*
X35274100Y-50287530D01*
X35269965Y-50290635D01*
X35266393Y-50294373D01*
X35144065Y-50422382D01*
X35115629Y-50452138D01*
X34989743Y-50636680D01*
X34974003Y-50670590D01*
X34925391Y-50775316D01*
X34895688Y-50839305D01*
X34835989Y-51054570D01*
X34812251Y-51276695D01*
X34812548Y-51281848D01*
X34812548Y-51281851D01*
X34818011Y-51376590D01*
X34825110Y-51499715D01*
X34826247Y-51504761D01*
X34826248Y-51504767D01*
X34843716Y-51582275D01*
X34874222Y-51717639D01*
X34912461Y-51811811D01*
X34955783Y-51918500D01*
X34958266Y-51924616D01*
X35001112Y-51994535D01*
X35048990Y-52072665D01*
X35067528Y-52141199D01*
X35046071Y-52208876D01*
X34991432Y-52254209D01*
X34941557Y-52264500D01*
X31813406Y-52264500D01*
X31806399Y-52262443D01*
X31786594Y-52264500D01*
X30015423Y-52264500D01*
X29947302Y-52244498D01*
X29926328Y-52227595D01*
X28774912Y-51076179D01*
X28740886Y-51013867D01*
X28741488Y-50957670D01*
X28793380Y-50741524D01*
X28793381Y-50741518D01*
X28794535Y-50736711D01*
X28813165Y-50500000D01*
X30286835Y-50500000D01*
X30305465Y-50736711D01*
X30306619Y-50741518D01*
X30306620Y-50741524D01*
X30336493Y-50865954D01*
X30360895Y-50967594D01*
X30362788Y-50972165D01*
X30362789Y-50972167D01*
X30448702Y-51179580D01*
X30451760Y-51186963D01*
X30454346Y-51191183D01*
X30573241Y-51385202D01*
X30573245Y-51385208D01*
X30575824Y-51389416D01*
X30730031Y-51569969D01*
X30910584Y-51724176D01*
X30914792Y-51726755D01*
X30914798Y-51726759D01*
X31108817Y-51845654D01*
X31113037Y-51848240D01*
X31117607Y-51850133D01*
X31117611Y-51850135D01*
X31307720Y-51928880D01*
X31332406Y-51939105D01*
X31400301Y-51955405D01*
X31558476Y-51993380D01*
X31558482Y-51993381D01*
X31563289Y-51994535D01*
X31773299Y-52011064D01*
X31796480Y-52012888D01*
X31798773Y-52013762D01*
X31803520Y-52012888D01*
X31826701Y-52011064D01*
X32036711Y-51994535D01*
X32041518Y-51993381D01*
X32041524Y-51993380D01*
X32199699Y-51955405D01*
X32267594Y-51939105D01*
X32292280Y-51928880D01*
X32482389Y-51850135D01*
X32482393Y-51850133D01*
X32486963Y-51848240D01*
X32491183Y-51845654D01*
X32685202Y-51726759D01*
X32685208Y-51726755D01*
X32689416Y-51724176D01*
X32869969Y-51569969D01*
X33024176Y-51389416D01*
X33026755Y-51385208D01*
X33026759Y-51385202D01*
X33145654Y-51191183D01*
X33148240Y-51186963D01*
X33151299Y-51179580D01*
X33237211Y-50972167D01*
X33237212Y-50972165D01*
X33239105Y-50967594D01*
X33263507Y-50865954D01*
X33293380Y-50741524D01*
X33293381Y-50741518D01*
X33294535Y-50736711D01*
X33313165Y-50500000D01*
X33294535Y-50263289D01*
X33269645Y-50159612D01*
X33247323Y-50066638D01*
X33239105Y-50032406D01*
X33234852Y-50022138D01*
X33150135Y-49817611D01*
X33150133Y-49817607D01*
X33148240Y-49813037D01*
X33107547Y-49746632D01*
X33026759Y-49614798D01*
X33026755Y-49614792D01*
X33024176Y-49610584D01*
X32869969Y-49430031D01*
X32689416Y-49275824D01*
X32685203Y-49273242D01*
X32685202Y-49273241D01*
X32491183Y-49154346D01*
X32486963Y-49151760D01*
X32482393Y-49149867D01*
X32482389Y-49149865D01*
X32272167Y-49062789D01*
X32272165Y-49062788D01*
X32267594Y-49060895D01*
X32149720Y-49032596D01*
X32041524Y-49006620D01*
X32041518Y-49006619D01*
X32036711Y-49005465D01*
X31800000Y-48986835D01*
X31563289Y-49005465D01*
X31558482Y-49006619D01*
X31558476Y-49006620D01*
X31450280Y-49032596D01*
X31332406Y-49060895D01*
X31327835Y-49062788D01*
X31327833Y-49062789D01*
X31117611Y-49149865D01*
X31117607Y-49149867D01*
X31113037Y-49151760D01*
X31108817Y-49154346D01*
X30914798Y-49273241D01*
X30914797Y-49273242D01*
X30910584Y-49275824D01*
X30730031Y-49430031D01*
X30575824Y-49610584D01*
X30573245Y-49614792D01*
X30573241Y-49614798D01*
X30492453Y-49746632D01*
X30451760Y-49813037D01*
X30449867Y-49817607D01*
X30449865Y-49817611D01*
X30365148Y-50022138D01*
X30360895Y-50032406D01*
X30352677Y-50066638D01*
X30330356Y-50159612D01*
X30305465Y-50263289D01*
X30286835Y-50500000D01*
X28813165Y-50500000D01*
X28794535Y-50263289D01*
X28769645Y-50159612D01*
X28747323Y-50066638D01*
X28739105Y-50032406D01*
X28734852Y-50022138D01*
X28650135Y-49817611D01*
X28650133Y-49817607D01*
X28648240Y-49813037D01*
X28607547Y-49746632D01*
X28526759Y-49614798D01*
X28526755Y-49614792D01*
X28524176Y-49610584D01*
X28369969Y-49430031D01*
X28189416Y-49275824D01*
X27995664Y-49157092D01*
X27948034Y-49104445D01*
X27935500Y-49049660D01*
X27935500Y-45450340D01*
X27955502Y-45382219D01*
X27995664Y-45342908D01*
X28189416Y-45224176D01*
X28369969Y-45069969D01*
X28524176Y-44889416D01*
X28526755Y-44885208D01*
X28526759Y-44885202D01*
X28645654Y-44691183D01*
X28648240Y-44686963D01*
X28655581Y-44669242D01*
X28737211Y-44472167D01*
X28737212Y-44472165D01*
X28739105Y-44467594D01*
X28758774Y-44385666D01*
X28793380Y-44241524D01*
X28793381Y-44241518D01*
X28794535Y-44236711D01*
X28813165Y-44000000D01*
X30286835Y-44000000D01*
X30305465Y-44236711D01*
X30306619Y-44241518D01*
X30306620Y-44241524D01*
X30341226Y-44385666D01*
X30360895Y-44467594D01*
X30362788Y-44472165D01*
X30362789Y-44472167D01*
X30444420Y-44669242D01*
X30451760Y-44686963D01*
X30454346Y-44691183D01*
X30573241Y-44885202D01*
X30573245Y-44885208D01*
X30575824Y-44889416D01*
X30730031Y-45069969D01*
X30910584Y-45224176D01*
X30914792Y-45226755D01*
X30914798Y-45226759D01*
X31065810Y-45319299D01*
X31113037Y-45348240D01*
X31117607Y-45350133D01*
X31117611Y-45350135D01*
X31280821Y-45417738D01*
X31332406Y-45439105D01*
X31380245Y-45450590D01*
X31558476Y-45493380D01*
X31558482Y-45493381D01*
X31563289Y-45494535D01*
X31800000Y-45513165D01*
X32036711Y-45494535D01*
X32041518Y-45493381D01*
X32041524Y-45493380D01*
X32170234Y-45462479D01*
X32257672Y-45441487D01*
X32328578Y-45445034D01*
X32376179Y-45474911D01*
X33524745Y-46623477D01*
X33532322Y-46631803D01*
X33536447Y-46638303D01*
X33542225Y-46643729D01*
X33542226Y-46643730D01*
X33586281Y-46685100D01*
X33589123Y-46687855D01*
X33608906Y-46707638D01*
X33612114Y-46710126D01*
X33621143Y-46717837D01*
X33653494Y-46748217D01*
X33660443Y-46752037D01*
X33671329Y-46758022D01*
X33687853Y-46768876D01*
X33703933Y-46781349D01*
X33711210Y-46784498D01*
X33744650Y-46798969D01*
X33755311Y-46804192D01*
X33787247Y-46821749D01*
X33787252Y-46821751D01*
X33794197Y-46825569D01*
X33801871Y-46827539D01*
X33801878Y-46827542D01*
X33813913Y-46830632D01*
X33832618Y-46837036D01*
X33844013Y-46841967D01*
X33851292Y-46845117D01*
X33871502Y-46848318D01*
X33895127Y-46852060D01*
X33906740Y-46854465D01*
X33949718Y-46865500D01*
X33970065Y-46865500D01*
X33989777Y-46867051D01*
X34009879Y-46870235D01*
X34017771Y-46869489D01*
X34054056Y-46866059D01*
X34065914Y-46865500D01*
X34900500Y-46865500D01*
X34968621Y-46885502D01*
X35007933Y-46925666D01*
X35072287Y-47030683D01*
X35072291Y-47030688D01*
X35074987Y-47035088D01*
X35221250Y-47203938D01*
X35393126Y-47346632D01*
X35415209Y-47359536D01*
X35466955Y-47389774D01*
X35515679Y-47441412D01*
X35528750Y-47511195D01*
X35502019Y-47576967D01*
X35461562Y-47610327D01*
X35453457Y-47614546D01*
X35444738Y-47620036D01*
X35274433Y-47747905D01*
X35266726Y-47754748D01*
X35119590Y-47908717D01*
X35113104Y-47916727D01*
X34993098Y-48092649D01*
X34988000Y-48101623D01*
X34898338Y-48294783D01*
X34894775Y-48304470D01*
X34839389Y-48504183D01*
X34840912Y-48512607D01*
X34853292Y-48516000D01*
X37493344Y-48516000D01*
X37506875Y-48512027D01*
X37508180Y-48502947D01*
X37466214Y-48335875D01*
X37462894Y-48326124D01*
X37377972Y-48130814D01*
X37373105Y-48121739D01*
X37257426Y-47942926D01*
X37251136Y-47934757D01*
X37107806Y-47777240D01*
X37100273Y-47770215D01*
X36933139Y-47638222D01*
X36924556Y-47632520D01*
X36887602Y-47612120D01*
X36837631Y-47561687D01*
X36822859Y-47492245D01*
X36847975Y-47425839D01*
X36875327Y-47399232D01*
X36941655Y-47351921D01*
X37054860Y-47271173D01*
X37100847Y-47225347D01*
X37144052Y-47182292D01*
X37213096Y-47113489D01*
X37272594Y-47030689D01*
X37340435Y-46936277D01*
X37343453Y-46932077D01*
X37346622Y-46925666D01*
X37440136Y-46736453D01*
X37440137Y-46736451D01*
X37442430Y-46731811D01*
X37507370Y-46518069D01*
X37536529Y-46296590D01*
X37538156Y-46230000D01*
X37519852Y-46007361D01*
X37465431Y-45790702D01*
X37376354Y-45585840D01*
X37308854Y-45481501D01*
X37257822Y-45402617D01*
X37257820Y-45402614D01*
X37255014Y-45398277D01*
X37104670Y-45233051D01*
X37100619Y-45229852D01*
X37100615Y-45229848D01*
X36933414Y-45097800D01*
X36933410Y-45097798D01*
X36929359Y-45094598D01*
X36888053Y-45071796D01*
X36838084Y-45021364D01*
X36823312Y-44951921D01*
X36848428Y-44885516D01*
X36875780Y-44858909D01*
X36941655Y-44811921D01*
X37054860Y-44731173D01*
X37213096Y-44573489D01*
X37272594Y-44490689D01*
X37340435Y-44396277D01*
X37343453Y-44392077D01*
X37346622Y-44385666D01*
X37440136Y-44196453D01*
X37440137Y-44196451D01*
X37442430Y-44191811D01*
X37502205Y-43995070D01*
X37505865Y-43983023D01*
X37505865Y-43983021D01*
X37507370Y-43978069D01*
X37536529Y-43756590D01*
X37537791Y-43704942D01*
X37538074Y-43693365D01*
X37538074Y-43693361D01*
X37538156Y-43690000D01*
X37519852Y-43467361D01*
X37465431Y-43250702D01*
X37376354Y-43045840D01*
X37317989Y-42955622D01*
X37257822Y-42862617D01*
X37257820Y-42862614D01*
X37255014Y-42858277D01*
X37239127Y-42840817D01*
X37107798Y-42696488D01*
X37076746Y-42632642D01*
X37085141Y-42562143D01*
X37130317Y-42507375D01*
X37156761Y-42493706D01*
X37263297Y-42453767D01*
X37271705Y-42450615D01*
X37388261Y-42363261D01*
X37475615Y-42246705D01*
X37526745Y-42110316D01*
X37533500Y-42048134D01*
X37533500Y-41850231D01*
X37553502Y-41782110D01*
X37604798Y-41738552D01*
X37604394Y-41737869D01*
X37608372Y-41735516D01*
X37608373Y-41735515D01*
X37611219Y-41733832D01*
X37621906Y-41727512D01*
X37639664Y-41718812D01*
X37651215Y-41714239D01*
X37651221Y-41714235D01*
X37658588Y-41711319D01*
X37694491Y-41685234D01*
X37704410Y-41678719D01*
X37735768Y-41660174D01*
X37735772Y-41660171D01*
X37742598Y-41656134D01*
X37756982Y-41641750D01*
X37772016Y-41628909D01*
X37782073Y-41621602D01*
X37788487Y-41616942D01*
X37816778Y-41582744D01*
X37824767Y-41573965D01*
X50146900Y-29251833D01*
X50209212Y-29217807D01*
X50261112Y-29217457D01*
X50438597Y-29253567D01*
X50443772Y-29253757D01*
X50443774Y-29253757D01*
X50656673Y-29261564D01*
X50656677Y-29261564D01*
X50661837Y-29261753D01*
X50666957Y-29261097D01*
X50666959Y-29261097D01*
X50878288Y-29234025D01*
X50878289Y-29234025D01*
X50883416Y-29233368D01*
X50888366Y-29231883D01*
X51092429Y-29170661D01*
X51092434Y-29170659D01*
X51097384Y-29169174D01*
X51297994Y-29070896D01*
X51479860Y-28941173D01*
X51529022Y-28892183D01*
X51634435Y-28787137D01*
X51638096Y-28783489D01*
X51768453Y-28602077D01*
X51789568Y-28559355D01*
X51865136Y-28406453D01*
X51865137Y-28406451D01*
X51867430Y-28401811D01*
X51932370Y-28188069D01*
X51961529Y-27966590D01*
X51963156Y-27900000D01*
X51944852Y-27677361D01*
X51890431Y-27460702D01*
X51801354Y-27255840D01*
X51680014Y-27068277D01*
X51529670Y-26903051D01*
X51525619Y-26899852D01*
X51525615Y-26899848D01*
X51358414Y-26767800D01*
X51358410Y-26767798D01*
X51354359Y-26764598D01*
X51158789Y-26656638D01*
X51153920Y-26654914D01*
X51153916Y-26654912D01*
X50953087Y-26583795D01*
X50953083Y-26583794D01*
X50948212Y-26582069D01*
X50943119Y-26581162D01*
X50943116Y-26581161D01*
X50733373Y-26543800D01*
X50733367Y-26543799D01*
X50728284Y-26542894D01*
X50654452Y-26541992D01*
X50510081Y-26540228D01*
X50510079Y-26540228D01*
X50504911Y-26540165D01*
X50284091Y-26573955D01*
X50071756Y-26643357D01*
X49873607Y-26746507D01*
X49869474Y-26749610D01*
X49869471Y-26749612D01*
X49705536Y-26872698D01*
X49694965Y-26880635D01*
X49540629Y-27042138D01*
X49433201Y-27199621D01*
X49378293Y-27244621D01*
X49307768Y-27252792D01*
X49244021Y-27221538D01*
X49223324Y-27197054D01*
X49142822Y-27072617D01*
X49142820Y-27072614D01*
X49140014Y-27068277D01*
X48989670Y-26903051D01*
X48985619Y-26899852D01*
X48985615Y-26899848D01*
X48818414Y-26767800D01*
X48818410Y-26767798D01*
X48814359Y-26764598D01*
X48618789Y-26656638D01*
X48613920Y-26654914D01*
X48613916Y-26654912D01*
X48413087Y-26583795D01*
X48413083Y-26583794D01*
X48408212Y-26582069D01*
X48403119Y-26581162D01*
X48403116Y-26581161D01*
X48193373Y-26543800D01*
X48193367Y-26543799D01*
X48188284Y-26542894D01*
X48114452Y-26541992D01*
X47970081Y-26540228D01*
X47970079Y-26540228D01*
X47964911Y-26540165D01*
X47744091Y-26573955D01*
X47531756Y-26643357D01*
X47333607Y-26746507D01*
X47329474Y-26749610D01*
X47329471Y-26749612D01*
X47165536Y-26872698D01*
X47154965Y-26880635D01*
X47000629Y-27042138D01*
X46893201Y-27199621D01*
X46838293Y-27244621D01*
X46767768Y-27252792D01*
X46704021Y-27221538D01*
X46683324Y-27197054D01*
X46602822Y-27072617D01*
X46602820Y-27072614D01*
X46600014Y-27068277D01*
X46449670Y-26903051D01*
X46445619Y-26899852D01*
X46445615Y-26899848D01*
X46278414Y-26767800D01*
X46278410Y-26767798D01*
X46274359Y-26764598D01*
X46078789Y-26656638D01*
X46073920Y-26654914D01*
X46073916Y-26654912D01*
X45873087Y-26583795D01*
X45873083Y-26583794D01*
X45868212Y-26582069D01*
X45863119Y-26581162D01*
X45863116Y-26581161D01*
X45653373Y-26543800D01*
X45653367Y-26543799D01*
X45648284Y-26542894D01*
X45574452Y-26541992D01*
X45430081Y-26540228D01*
X45430079Y-26540228D01*
X45424911Y-26540165D01*
X45204091Y-26573955D01*
X44991756Y-26643357D01*
X44793607Y-26746507D01*
X44789474Y-26749610D01*
X44789471Y-26749612D01*
X44625536Y-26872698D01*
X44614965Y-26880635D01*
X44460629Y-27042138D01*
X44353204Y-27199618D01*
X44352898Y-27200066D01*
X44297987Y-27245069D01*
X44227462Y-27253240D01*
X44163715Y-27221986D01*
X44143017Y-27197501D01*
X44113062Y-27151197D01*
X44102377Y-27141995D01*
X44092812Y-27146398D01*
X43352022Y-27887188D01*
X43344408Y-27901132D01*
X43344539Y-27902965D01*
X43348790Y-27909580D01*
X44090474Y-28651264D01*
X44102484Y-28657823D01*
X44114223Y-28648855D01*
X44148022Y-28601819D01*
X44149277Y-28602721D01*
X44196391Y-28559355D01*
X44266330Y-28547148D01*
X44331767Y-28574691D01*
X44359580Y-28606513D01*
X44417287Y-28700683D01*
X44417291Y-28700688D01*
X44419987Y-28705088D01*
X44566250Y-28873938D01*
X44738126Y-29016632D01*
X44749063Y-29023023D01*
X44815824Y-29062035D01*
X44864548Y-29113674D01*
X44877619Y-29183457D01*
X44850888Y-29249229D01*
X44841349Y-29259918D01*
X44833014Y-29268253D01*
X44817980Y-29281094D01*
X44801513Y-29293058D01*
X44796460Y-29299166D01*
X44773228Y-29327249D01*
X44765238Y-29336029D01*
X33906517Y-40194750D01*
X33898191Y-40202326D01*
X33891697Y-40206447D01*
X33886274Y-40212222D01*
X33844915Y-40256265D01*
X33842160Y-40259107D01*
X33822361Y-40278906D01*
X33819937Y-40282031D01*
X33819929Y-40282040D01*
X33819863Y-40282126D01*
X33812155Y-40291151D01*
X33781783Y-40323494D01*
X33777965Y-40330438D01*
X33777964Y-40330440D01*
X33771978Y-40341329D01*
X33761127Y-40357847D01*
X33748650Y-40373933D01*
X33731024Y-40414666D01*
X33725807Y-40425314D01*
X33704431Y-40464197D01*
X33702460Y-40471872D01*
X33702458Y-40471878D01*
X33699369Y-40483911D01*
X33692966Y-40502613D01*
X33684883Y-40521292D01*
X33680436Y-40549369D01*
X33677940Y-40565127D01*
X33675535Y-40576740D01*
X33664500Y-40619718D01*
X33664500Y-40640065D01*
X33662949Y-40659776D01*
X33659765Y-40679879D01*
X33660511Y-40687771D01*
X33663941Y-40724056D01*
X33664500Y-40735914D01*
X33664500Y-43120980D01*
X33663970Y-43132214D01*
X33662292Y-43139719D01*
X33662541Y-43147638D01*
X33664438Y-43208012D01*
X33664500Y-43211969D01*
X33664500Y-43239983D01*
X33664996Y-43243908D01*
X33664996Y-43243909D01*
X33665008Y-43244004D01*
X33665941Y-43255849D01*
X33667335Y-43300205D01*
X33671063Y-43313037D01*
X33673013Y-43319748D01*
X33677023Y-43339112D01*
X33679573Y-43359299D01*
X33682489Y-43366663D01*
X33682490Y-43366668D01*
X33695907Y-43400556D01*
X33699752Y-43411785D01*
X33712131Y-43454393D01*
X33716169Y-43461220D01*
X33716170Y-43461223D01*
X33722488Y-43471906D01*
X33731188Y-43489664D01*
X33735761Y-43501215D01*
X33735765Y-43501221D01*
X33738681Y-43508588D01*
X33743339Y-43514999D01*
X33743340Y-43515001D01*
X33764764Y-43544488D01*
X33771281Y-43554410D01*
X33789826Y-43585768D01*
X33789829Y-43585772D01*
X33793866Y-43592598D01*
X33808250Y-43606982D01*
X33821091Y-43622016D01*
X33833058Y-43638487D01*
X33839166Y-43643540D01*
X33867255Y-43666777D01*
X33876035Y-43674767D01*
X34284750Y-44083482D01*
X34292322Y-44091803D01*
X34296447Y-44098303D01*
X34333206Y-44132822D01*
X34346266Y-44145086D01*
X34349108Y-44147841D01*
X34368906Y-44167639D01*
X34372037Y-44170068D01*
X34372042Y-44170072D01*
X34372128Y-44170139D01*
X34381153Y-44177847D01*
X34385959Y-44182360D01*
X34413494Y-44208217D01*
X34420439Y-44212035D01*
X34420443Y-44212038D01*
X34431334Y-44218026D01*
X34447855Y-44228878D01*
X34463934Y-44241350D01*
X34504655Y-44258971D01*
X34515311Y-44264192D01*
X34547245Y-44281748D01*
X34547251Y-44281750D01*
X34554197Y-44285569D01*
X34561872Y-44287540D01*
X34561878Y-44287542D01*
X34573911Y-44290631D01*
X34592613Y-44297034D01*
X34611292Y-44305117D01*
X34619118Y-44306357D01*
X34619123Y-44306358D01*
X34655120Y-44312060D01*
X34666740Y-44314466D01*
X34702037Y-44323528D01*
X34709718Y-44325500D01*
X34730066Y-44325500D01*
X34749778Y-44327051D01*
X34769880Y-44330235D01*
X34814055Y-44326059D01*
X34825914Y-44325500D01*
X34900500Y-44325500D01*
X34968621Y-44345502D01*
X35007933Y-44385666D01*
X35072287Y-44490683D01*
X35072291Y-44490688D01*
X35074987Y-44495088D01*
X35221250Y-44663938D01*
X35393126Y-44806632D01*
X35419078Y-44821797D01*
X35466445Y-44849476D01*
X35515169Y-44901114D01*
X35528240Y-44970897D01*
X35501509Y-45036669D01*
X35461055Y-45070027D01*
X35448607Y-45076507D01*
X35444474Y-45079610D01*
X35444471Y-45079612D01*
X35274100Y-45207530D01*
X35269965Y-45210635D01*
X35254557Y-45226759D01*
X35136656Y-45350135D01*
X35115629Y-45372138D01*
X35112715Y-45376410D01*
X35112714Y-45376411D01*
X35084523Y-45417738D01*
X35016173Y-45517936D01*
X35001460Y-45539504D01*
X34946549Y-45584507D01*
X34897372Y-45594500D01*
X34345423Y-45594500D01*
X34277302Y-45574498D01*
X34256328Y-45557595D01*
X33274912Y-44576179D01*
X33240886Y-44513867D01*
X33241488Y-44457670D01*
X33293380Y-44241524D01*
X33293381Y-44241518D01*
X33294535Y-44236711D01*
X33313165Y-44000000D01*
X33294535Y-43763289D01*
X33292719Y-43755721D01*
X33251916Y-43585768D01*
X33239105Y-43532406D01*
X33234110Y-43520347D01*
X33150135Y-43317611D01*
X33150133Y-43317607D01*
X33148240Y-43313037D01*
X33145041Y-43307817D01*
X33026759Y-43114798D01*
X33026755Y-43114792D01*
X33024176Y-43110584D01*
X32869969Y-42930031D01*
X32689416Y-42775824D01*
X32685208Y-42773245D01*
X32685202Y-42773241D01*
X32491183Y-42654346D01*
X32486963Y-42651760D01*
X32482393Y-42649867D01*
X32482389Y-42649865D01*
X32272167Y-42562789D01*
X32272165Y-42562788D01*
X32267594Y-42560895D01*
X32168797Y-42537176D01*
X32041524Y-42506620D01*
X32041518Y-42506619D01*
X32036711Y-42505465D01*
X31800000Y-42486835D01*
X31563289Y-42505465D01*
X31558482Y-42506619D01*
X31558476Y-42506620D01*
X31431203Y-42537176D01*
X31332406Y-42560895D01*
X31327835Y-42562788D01*
X31327833Y-42562789D01*
X31117611Y-42649865D01*
X31117607Y-42649867D01*
X31113037Y-42651760D01*
X31108817Y-42654346D01*
X30914798Y-42773241D01*
X30914792Y-42773245D01*
X30910584Y-42775824D01*
X30730031Y-42930031D01*
X30575824Y-43110584D01*
X30573245Y-43114792D01*
X30573241Y-43114798D01*
X30454959Y-43307817D01*
X30451760Y-43313037D01*
X30449867Y-43317607D01*
X30449865Y-43317611D01*
X30365890Y-43520347D01*
X30360895Y-43532406D01*
X30348084Y-43585768D01*
X30307282Y-43755721D01*
X30305465Y-43763289D01*
X30286835Y-44000000D01*
X28813165Y-44000000D01*
X28794535Y-43763289D01*
X28792719Y-43755721D01*
X28751916Y-43585768D01*
X28739105Y-43532406D01*
X28734110Y-43520347D01*
X28650135Y-43317611D01*
X28650133Y-43317607D01*
X28648240Y-43313037D01*
X28645041Y-43307817D01*
X28526759Y-43114798D01*
X28526755Y-43114792D01*
X28524176Y-43110584D01*
X28369969Y-42930031D01*
X28189416Y-42775824D01*
X28185208Y-42773245D01*
X28185202Y-42773241D01*
X27991183Y-42654346D01*
X27986963Y-42651760D01*
X27982393Y-42649867D01*
X27982389Y-42649865D01*
X27772167Y-42562789D01*
X27772165Y-42562788D01*
X27767594Y-42560895D01*
X27668797Y-42537176D01*
X27541524Y-42506620D01*
X27541518Y-42506619D01*
X27536711Y-42505465D01*
X27300000Y-42486835D01*
X27063289Y-42505465D01*
X27058482Y-42506619D01*
X27058476Y-42506620D01*
X26931203Y-42537176D01*
X26832406Y-42560895D01*
X26827835Y-42562788D01*
X26827833Y-42562789D01*
X26617611Y-42649865D01*
X26617607Y-42649867D01*
X26613037Y-42651760D01*
X26608817Y-42654346D01*
X26414798Y-42773241D01*
X26414792Y-42773245D01*
X26410584Y-42775824D01*
X26230031Y-42930031D01*
X26075824Y-43110584D01*
X26073245Y-43114792D01*
X26073241Y-43114798D01*
X25954959Y-43307817D01*
X25951760Y-43313037D01*
X25949867Y-43317607D01*
X25949865Y-43317611D01*
X25865890Y-43520347D01*
X25860895Y-43532406D01*
X25848084Y-43585768D01*
X25807282Y-43755721D01*
X25805465Y-43763289D01*
X25786835Y-44000000D01*
X25805465Y-44236711D01*
X25806619Y-44241518D01*
X25806620Y-44241524D01*
X25841226Y-44385666D01*
X25860895Y-44467594D01*
X25862788Y-44472165D01*
X25862789Y-44472167D01*
X25944420Y-44669242D01*
X25951760Y-44686963D01*
X25954346Y-44691183D01*
X26073241Y-44885202D01*
X26073245Y-44885208D01*
X26075824Y-44889416D01*
X26230031Y-45069969D01*
X26410584Y-45224176D01*
X26604336Y-45342908D01*
X26651966Y-45395555D01*
X26664500Y-45450340D01*
X26664500Y-49049660D01*
X26644498Y-49117781D01*
X26604336Y-49157092D01*
X26410584Y-49275824D01*
X26230031Y-49430031D01*
X26075824Y-49610584D01*
X26073245Y-49614792D01*
X26073241Y-49614798D01*
X25992453Y-49746632D01*
X25951760Y-49813037D01*
X25949867Y-49817607D01*
X25949865Y-49817611D01*
X25865148Y-50022138D01*
X25860895Y-50032406D01*
X25852677Y-50066638D01*
X25830356Y-50159612D01*
X25805465Y-50263289D01*
X25786835Y-50500000D01*
X25002937Y-50500000D01*
X24970037Y-50275899D01*
X24969381Y-50270669D01*
X24886939Y-49480282D01*
X24874488Y-49360913D01*
X24874052Y-49355667D01*
X24872586Y-49332077D01*
X24852745Y-49012947D01*
X24817295Y-48442745D01*
X24817078Y-48437479D01*
X24804218Y-47802617D01*
X24799506Y-47569973D01*
X24801226Y-47546523D01*
X24803576Y-47532552D01*
X24803645Y-47526886D01*
X24803687Y-47526618D01*
X24803652Y-47526346D01*
X24803729Y-47520000D01*
X24803040Y-47515186D01*
X24803039Y-47515177D01*
X24800626Y-47498330D01*
X24799381Y-47477833D01*
X24800242Y-47436669D01*
X24808726Y-47030683D01*
X24817646Y-46603891D01*
X24817865Y-46598631D01*
X24875105Y-45686694D01*
X24875545Y-45681447D01*
X24927605Y-45184955D01*
X24970830Y-44772729D01*
X24971485Y-44767526D01*
X24974728Y-44745516D01*
X25104654Y-43863577D01*
X25105530Y-43858385D01*
X25266525Y-43012401D01*
X25276351Y-42960769D01*
X25277443Y-42955622D01*
X25283431Y-42930031D01*
X25485604Y-42065975D01*
X25486907Y-42060886D01*
X25490459Y-42048134D01*
X25732067Y-41180671D01*
X25733581Y-41175642D01*
X25742955Y-41146722D01*
X25898368Y-40667216D01*
X25947255Y-40516381D01*
X27649160Y-40516381D01*
X27649237Y-40517470D01*
X27651698Y-40521206D01*
X27925632Y-40731404D01*
X27931262Y-40735259D01*
X28231591Y-40917862D01*
X28237593Y-40921080D01*
X28555897Y-41070184D01*
X28562202Y-41072732D01*
X28894743Y-41186587D01*
X28901313Y-41188446D01*
X29244183Y-41265714D01*
X29250912Y-41266853D01*
X29600143Y-41306643D01*
X29606933Y-41307046D01*
X29958419Y-41308886D01*
X29965220Y-41308554D01*
X30314853Y-41272423D01*
X30321581Y-41271357D01*
X30665274Y-41197676D01*
X30671822Y-41195897D01*
X31005549Y-41085527D01*
X31011891Y-41083041D01*
X31331718Y-40937288D01*
X31337777Y-40934121D01*
X31639995Y-40754676D01*
X31645659Y-40750884D01*
X31926732Y-40539849D01*
X31931958Y-40535464D01*
X31941613Y-40526428D01*
X31949682Y-40512750D01*
X31949654Y-40512024D01*
X31944512Y-40503723D01*
X29812810Y-38372020D01*
X29798869Y-38364408D01*
X29797034Y-38364539D01*
X29790420Y-38368790D01*
X27656774Y-40502437D01*
X27649160Y-40516381D01*
X25947255Y-40516381D01*
X26015297Y-40306447D01*
X26017025Y-40301473D01*
X26231599Y-39723029D01*
X26334806Y-39444808D01*
X26336736Y-39439921D01*
X26397373Y-39295298D01*
X26461833Y-39141554D01*
X26506619Y-39086465D01*
X26574079Y-39064335D01*
X26642793Y-39082189D01*
X26690947Y-39134359D01*
X26695266Y-39144094D01*
X26786581Y-39375912D01*
X26789412Y-39382095D01*
X26952803Y-39693310D01*
X26956286Y-39699152D01*
X27152330Y-39990896D01*
X27156433Y-39996340D01*
X27276425Y-40138836D01*
X27289164Y-40147279D01*
X27299608Y-40141181D01*
X29427980Y-38012810D01*
X29434357Y-38001131D01*
X30164408Y-38001131D01*
X30164539Y-38002966D01*
X30168790Y-38009580D01*
X32299009Y-40139798D01*
X32312605Y-40147223D01*
X32322218Y-40140522D01*
X32422518Y-40023912D01*
X32426676Y-40018514D01*
X32625762Y-39728840D01*
X32629310Y-39723029D01*
X32795942Y-39413559D01*
X32798849Y-39407381D01*
X32931090Y-39081713D01*
X32933304Y-39075283D01*
X33029598Y-38737237D01*
X33031105Y-38730607D01*
X33090332Y-38384118D01*
X33091112Y-38377378D01*
X33112668Y-38024925D01*
X33112784Y-38021323D01*
X33112853Y-38001819D01*
X33112761Y-37998194D01*
X33093666Y-37645615D01*
X33092931Y-37638849D01*
X33036130Y-37291985D01*
X33034663Y-37285313D01*
X32940736Y-36946627D01*
X32938562Y-36940163D01*
X32808598Y-36613578D01*
X32805742Y-36607398D01*
X32641269Y-36296763D01*
X32637769Y-36290937D01*
X32440697Y-35999862D01*
X32436590Y-35994453D01*
X32323565Y-35861179D01*
X32310740Y-35852743D01*
X32300416Y-35858795D01*
X30172020Y-37987190D01*
X30164408Y-38001131D01*
X29434357Y-38001131D01*
X29435592Y-37998869D01*
X29435461Y-37997034D01*
X29431210Y-37990420D01*
X28049203Y-36608413D01*
X28015177Y-36546101D01*
X28020242Y-36475286D01*
X28049203Y-36430223D01*
X28230223Y-36249203D01*
X28292535Y-36215177D01*
X28363350Y-36220242D01*
X28408413Y-36249203D01*
X29787188Y-37627978D01*
X29801132Y-37635592D01*
X29802965Y-37635461D01*
X29809580Y-37631210D01*
X31942798Y-35497991D01*
X31950412Y-35484047D01*
X31950344Y-35483089D01*
X31945836Y-35476272D01*
X31944418Y-35475065D01*
X31664813Y-35262064D01*
X31659187Y-35258240D01*
X31358214Y-35076681D01*
X31352202Y-35073484D01*
X31033370Y-34925487D01*
X31027070Y-34922967D01*
X30694129Y-34810273D01*
X30687551Y-34808437D01*
X30344417Y-34732367D01*
X30337678Y-34731251D01*
X29988310Y-34692680D01*
X29981529Y-34692301D01*
X29630015Y-34691687D01*
X29623242Y-34692042D01*
X29273720Y-34729395D01*
X29267011Y-34730482D01*
X29155424Y-34754812D01*
X29084606Y-34749781D01*
X29027750Y-34707261D01*
X29002907Y-34640753D01*
X29017966Y-34571371D01*
X29028104Y-34555676D01*
X29532510Y-33889053D01*
X29535774Y-33884922D01*
X30117057Y-33179964D01*
X30120491Y-33175973D01*
X30730695Y-32495941D01*
X30734292Y-32492096D01*
X31372403Y-31838120D01*
X31376158Y-31834429D01*
X32041037Y-31207681D01*
X32044943Y-31204151D01*
X32317888Y-30967596D01*
X32735410Y-30605741D01*
X32739426Y-30602404D01*
X33454340Y-30033323D01*
X33458491Y-30030159D01*
X34030191Y-29612873D01*
X34196518Y-29491471D01*
X34200835Y-29488456D01*
X34618497Y-29209579D01*
X34895154Y-29024853D01*
X42219977Y-29024853D01*
X42225258Y-29031907D01*
X42386756Y-29126279D01*
X42396042Y-29130729D01*
X42595001Y-29206703D01*
X42604899Y-29209579D01*
X42813595Y-29252038D01*
X42823823Y-29253257D01*
X43036650Y-29261062D01*
X43046936Y-29260595D01*
X43258185Y-29233534D01*
X43268262Y-29231392D01*
X43472255Y-29170191D01*
X43481842Y-29166433D01*
X43673098Y-29072738D01*
X43681944Y-29067465D01*
X43729247Y-29033723D01*
X43737648Y-29023023D01*
X43730660Y-29009870D01*
X42992812Y-28272022D01*
X42978868Y-28264408D01*
X42977035Y-28264539D01*
X42970420Y-28268790D01*
X42226737Y-29012473D01*
X42219977Y-29024853D01*
X34895154Y-29024853D01*
X34960736Y-28981063D01*
X34965122Y-28978265D01*
X35745587Y-28503044D01*
X35750109Y-28500419D01*
X36549705Y-28058243D01*
X36554365Y-28055792D01*
X36922493Y-27871863D01*
X41618050Y-27871863D01*
X41630309Y-28084477D01*
X41631745Y-28094697D01*
X41678565Y-28302446D01*
X41681645Y-28312275D01*
X41761770Y-28509603D01*
X41766413Y-28518794D01*
X41846460Y-28649420D01*
X41856916Y-28658880D01*
X41865694Y-28655096D01*
X42607978Y-27912812D01*
X42615592Y-27898868D01*
X42615461Y-27897035D01*
X42611210Y-27890420D01*
X41869849Y-27149059D01*
X41858313Y-27142759D01*
X41846031Y-27152382D01*
X41798089Y-27222662D01*
X41793004Y-27231613D01*
X41703338Y-27424783D01*
X41699775Y-27434470D01*
X41642864Y-27639681D01*
X41640933Y-27649800D01*
X41618302Y-27861574D01*
X41618050Y-27871863D01*
X36922493Y-27871863D01*
X37311782Y-27677361D01*
X37371707Y-27647421D01*
X37376460Y-27645168D01*
X37377794Y-27644570D01*
X38210202Y-27271278D01*
X38215047Y-27269227D01*
X38309283Y-27231613D01*
X38533805Y-27141995D01*
X39063602Y-26930527D01*
X39068531Y-26928677D01*
X39501714Y-26776427D01*
X42221223Y-26776427D01*
X42227968Y-26788758D01*
X42967188Y-27527978D01*
X42981132Y-27535592D01*
X42982965Y-27535461D01*
X42989580Y-27531210D01*
X43733389Y-26787401D01*
X43740410Y-26774544D01*
X43733611Y-26765213D01*
X43729554Y-26762518D01*
X43543117Y-26659599D01*
X43533705Y-26655369D01*
X43332959Y-26584280D01*
X43322989Y-26581646D01*
X43113327Y-26544301D01*
X43103073Y-26543331D01*
X42890116Y-26540728D01*
X42879832Y-26541448D01*
X42669321Y-26573661D01*
X42659293Y-26576050D01*
X42456868Y-26642212D01*
X42447359Y-26646209D01*
X42258466Y-26744540D01*
X42249734Y-26750039D01*
X42229677Y-26765099D01*
X42221223Y-26776427D01*
X39501714Y-26776427D01*
X39847449Y-26654912D01*
X39930580Y-26625694D01*
X39935580Y-26624054D01*
X40809457Y-26357374D01*
X40814524Y-26355942D01*
X41347585Y-26217327D01*
X41698848Y-26125986D01*
X41703946Y-26124774D01*
X42597091Y-25931967D01*
X42602246Y-25930966D01*
X43111904Y-25843049D01*
X43502633Y-25775648D01*
X43507839Y-25774861D01*
X44413962Y-25657290D01*
X44419196Y-25656722D01*
X44477345Y-25651636D01*
X45329433Y-25577110D01*
X45334651Y-25576763D01*
X46247444Y-25535249D01*
X46252676Y-25535120D01*
X46679311Y-25533559D01*
X47166383Y-25531776D01*
X47171647Y-25531867D01*
G37*
%TD.AperFunction*%
%TA.AperFunction,Conductor*%
G36*
X89669099Y-30528502D02*
G01*
X89715592Y-30582158D01*
X89725696Y-30652432D01*
X89696202Y-30717012D01*
X89665684Y-30742616D01*
X89650401Y-30751763D01*
X89644755Y-30755571D01*
X89364408Y-30967596D01*
X89359211Y-30971987D01*
X89357972Y-30973155D01*
X89349950Y-30986862D01*
X89349986Y-30987704D01*
X89355037Y-30995826D01*
X90736044Y-32376834D01*
X91487190Y-33127980D01*
X91501131Y-33135592D01*
X91502966Y-33135461D01*
X91509580Y-33131210D01*
X93642798Y-30997991D01*
X93650412Y-30984047D01*
X93650344Y-30983089D01*
X93645836Y-30976272D01*
X93644418Y-30975065D01*
X93364813Y-30762064D01*
X93359188Y-30758240D01*
X93332912Y-30742390D01*
X93284914Y-30690076D01*
X93272819Y-30620118D01*
X93300466Y-30554725D01*
X93359077Y-30514661D01*
X93397995Y-30508500D01*
X126100978Y-30508500D01*
X126169099Y-30528502D01*
X126215592Y-30582158D01*
X126225696Y-30652432D01*
X126196202Y-30717012D01*
X126165684Y-30742616D01*
X126150401Y-30751763D01*
X126144755Y-30755571D01*
X125864408Y-30967596D01*
X125859211Y-30971987D01*
X125857972Y-30973155D01*
X125849950Y-30986862D01*
X125849986Y-30987704D01*
X125855037Y-30995826D01*
X127236044Y-32376834D01*
X127987190Y-33127980D01*
X128001131Y-33135592D01*
X128002966Y-33135461D01*
X128009580Y-33131210D01*
X130142798Y-30997991D01*
X130150412Y-30984047D01*
X130150344Y-30983089D01*
X130145836Y-30976272D01*
X130144418Y-30975065D01*
X129864813Y-30762064D01*
X129859188Y-30758240D01*
X129832912Y-30742390D01*
X129784914Y-30690076D01*
X129772819Y-30620118D01*
X129800466Y-30554725D01*
X129859077Y-30514661D01*
X129897995Y-30508500D01*
X130865500Y-30508500D01*
X130933621Y-30528502D01*
X130980114Y-30582158D01*
X130991500Y-30634500D01*
X130991500Y-31607151D01*
X130971498Y-31675272D01*
X130917842Y-31721765D01*
X130847568Y-31731869D01*
X130782988Y-31702375D01*
X130761164Y-31677792D01*
X130640697Y-31499862D01*
X130636590Y-31494453D01*
X130523565Y-31361179D01*
X130510740Y-31352743D01*
X130500416Y-31358795D01*
X128372020Y-33487190D01*
X128364408Y-33501131D01*
X128364539Y-33502966D01*
X128368790Y-33509580D01*
X130499009Y-35639798D01*
X130512605Y-35647223D01*
X130522218Y-35640522D01*
X130622518Y-35523912D01*
X130626676Y-35518514D01*
X130761660Y-35322110D01*
X130816728Y-35277299D01*
X130887281Y-35269374D01*
X130950919Y-35300850D01*
X130987436Y-35361735D01*
X130991500Y-35393477D01*
X130991500Y-59607151D01*
X130971498Y-59675272D01*
X130917842Y-59721765D01*
X130847568Y-59731869D01*
X130782988Y-59702375D01*
X130761164Y-59677792D01*
X130640697Y-59499862D01*
X130636590Y-59494453D01*
X130523565Y-59361179D01*
X130510740Y-59352743D01*
X130500416Y-59358795D01*
X128372020Y-61487190D01*
X128364408Y-61501131D01*
X128364539Y-61502966D01*
X128368790Y-61509580D01*
X130499009Y-63639798D01*
X130512605Y-63647223D01*
X130522218Y-63640522D01*
X130622518Y-63523912D01*
X130626676Y-63518514D01*
X130761660Y-63322110D01*
X130816728Y-63277299D01*
X130887281Y-63269374D01*
X130950919Y-63300850D01*
X130987436Y-63361735D01*
X130991500Y-63393477D01*
X130991500Y-64365500D01*
X130971498Y-64433621D01*
X130917842Y-64480114D01*
X130865500Y-64491500D01*
X129900142Y-64491500D01*
X129832021Y-64471498D01*
X129785528Y-64417842D01*
X129775424Y-64347568D01*
X129804918Y-64282988D01*
X129835816Y-64257157D01*
X129839999Y-64254674D01*
X129845659Y-64250884D01*
X130126732Y-64039849D01*
X130131958Y-64035464D01*
X130141613Y-64026428D01*
X130149682Y-64012750D01*
X130149654Y-64012024D01*
X130144512Y-64003723D01*
X128012810Y-61872020D01*
X127998869Y-61864408D01*
X127997034Y-61864539D01*
X127990420Y-61868790D01*
X125856774Y-64002437D01*
X125849160Y-64016381D01*
X125849237Y-64017470D01*
X125851698Y-64021206D01*
X126125632Y-64231404D01*
X126131262Y-64235259D01*
X126168398Y-64257838D01*
X126216213Y-64310319D01*
X126228065Y-64380319D01*
X126200189Y-64445615D01*
X126141438Y-64485474D01*
X126102939Y-64491500D01*
X93400142Y-64491500D01*
X93332021Y-64471498D01*
X93285528Y-64417842D01*
X93275424Y-64347568D01*
X93304918Y-64282988D01*
X93335816Y-64257157D01*
X93339999Y-64254674D01*
X93345659Y-64250884D01*
X93626732Y-64039849D01*
X93631958Y-64035464D01*
X93641613Y-64026428D01*
X93649682Y-64012750D01*
X93649654Y-64012024D01*
X93644512Y-64003723D01*
X91512810Y-61872020D01*
X91498869Y-61864408D01*
X91497034Y-61864539D01*
X91490420Y-61868790D01*
X89356774Y-64002437D01*
X89349160Y-64016381D01*
X89349237Y-64017470D01*
X89351698Y-64021206D01*
X89625632Y-64231404D01*
X89631262Y-64235259D01*
X89668398Y-64257838D01*
X89716213Y-64310319D01*
X89728065Y-64380319D01*
X89700189Y-64445615D01*
X89641438Y-64485474D01*
X89602939Y-64491500D01*
X72134500Y-64491500D01*
X72066379Y-64471498D01*
X72019886Y-64417842D01*
X72008500Y-64365500D01*
X72008500Y-62667966D01*
X77713257Y-62667966D01*
X77743565Y-62802446D01*
X77746645Y-62812275D01*
X77826770Y-63009603D01*
X77831413Y-63018794D01*
X77942694Y-63200388D01*
X77948777Y-63208699D01*
X78088213Y-63369667D01*
X78095580Y-63376883D01*
X78259434Y-63512916D01*
X78267881Y-63518831D01*
X78451756Y-63626279D01*
X78461042Y-63630729D01*
X78660001Y-63706703D01*
X78669899Y-63709579D01*
X78773250Y-63730606D01*
X78787299Y-63729410D01*
X78791000Y-63719065D01*
X78791000Y-63718517D01*
X79299000Y-63718517D01*
X79303064Y-63732359D01*
X79316478Y-63734393D01*
X79323184Y-63733534D01*
X79333262Y-63731392D01*
X79537255Y-63670191D01*
X79546842Y-63666433D01*
X79738095Y-63572739D01*
X79746945Y-63567464D01*
X79920328Y-63443792D01*
X79928200Y-63437139D01*
X80079052Y-63286812D01*
X80085730Y-63278965D01*
X80213022Y-63101819D01*
X80214279Y-63102722D01*
X80261373Y-63059362D01*
X80331311Y-63047145D01*
X80396751Y-63074678D01*
X80424579Y-63106511D01*
X80484987Y-63205088D01*
X80631250Y-63373938D01*
X80803126Y-63516632D01*
X80996000Y-63629338D01*
X81000825Y-63631180D01*
X81000826Y-63631181D01*
X81042836Y-63647223D01*
X81204692Y-63709030D01*
X81209760Y-63710061D01*
X81209763Y-63710062D01*
X81289276Y-63726239D01*
X81423597Y-63753567D01*
X81428772Y-63753757D01*
X81428774Y-63753757D01*
X81641673Y-63761564D01*
X81641677Y-63761564D01*
X81646837Y-63761753D01*
X81651957Y-63761097D01*
X81651959Y-63761097D01*
X81863288Y-63734025D01*
X81863289Y-63734025D01*
X81868416Y-63733368D01*
X81873366Y-63731883D01*
X82077429Y-63670661D01*
X82077434Y-63670659D01*
X82082384Y-63669174D01*
X82282994Y-63570896D01*
X82464860Y-63441173D01*
X82573091Y-63333319D01*
X82635462Y-63299404D01*
X82706268Y-63304592D01*
X82763030Y-63347238D01*
X82780012Y-63378341D01*
X82802055Y-63437139D01*
X82824385Y-63496705D01*
X82911739Y-63613261D01*
X83028295Y-63700615D01*
X83164684Y-63751745D01*
X83226866Y-63758500D01*
X85023134Y-63758500D01*
X85085316Y-63751745D01*
X85221705Y-63700615D01*
X85338261Y-63613261D01*
X85425615Y-63496705D01*
X85476745Y-63360316D01*
X85483500Y-63298134D01*
X85483500Y-61501866D01*
X85482410Y-61491832D01*
X88187333Y-61491832D01*
X88205117Y-61842893D01*
X88205827Y-61849649D01*
X88261420Y-62196723D01*
X88262859Y-62203378D01*
X88355608Y-62542410D01*
X88357757Y-62548871D01*
X88486581Y-62875912D01*
X88489412Y-62882095D01*
X88652803Y-63193310D01*
X88656286Y-63199152D01*
X88852330Y-63490896D01*
X88856433Y-63496340D01*
X88976425Y-63638836D01*
X88989164Y-63647279D01*
X88999608Y-63641181D01*
X91127980Y-61512810D01*
X91134357Y-61501131D01*
X91864408Y-61501131D01*
X91864539Y-61502966D01*
X91868790Y-61509580D01*
X93999009Y-63639798D01*
X94012605Y-63647223D01*
X94022218Y-63640522D01*
X94122518Y-63523912D01*
X94126676Y-63518514D01*
X94325762Y-63228840D01*
X94329310Y-63223029D01*
X94495942Y-62913559D01*
X94498849Y-62907381D01*
X94631090Y-62581713D01*
X94633304Y-62575283D01*
X94729598Y-62237237D01*
X94731105Y-62230607D01*
X94790332Y-61884118D01*
X94791112Y-61877378D01*
X94812668Y-61524925D01*
X94812784Y-61521323D01*
X94812853Y-61501819D01*
X94812761Y-61498194D01*
X94812416Y-61491832D01*
X124687333Y-61491832D01*
X124705117Y-61842893D01*
X124705827Y-61849649D01*
X124761420Y-62196723D01*
X124762859Y-62203378D01*
X124855608Y-62542410D01*
X124857757Y-62548871D01*
X124986581Y-62875912D01*
X124989412Y-62882095D01*
X125152803Y-63193310D01*
X125156286Y-63199152D01*
X125352330Y-63490896D01*
X125356433Y-63496340D01*
X125476425Y-63638836D01*
X125489164Y-63647279D01*
X125499608Y-63641181D01*
X127627980Y-61512810D01*
X127635592Y-61498869D01*
X127635461Y-61497034D01*
X127631210Y-61490420D01*
X125500992Y-59360203D01*
X125487455Y-59352811D01*
X125477753Y-59359599D01*
X125370430Y-59485257D01*
X125366296Y-59490664D01*
X125168215Y-59781041D01*
X125164697Y-59786851D01*
X124999134Y-60096922D01*
X124996259Y-60103087D01*
X124865155Y-60429218D01*
X124862962Y-60435658D01*
X124767846Y-60774044D01*
X124766363Y-60780679D01*
X124708350Y-61127354D01*
X124707591Y-61134126D01*
X124687357Y-61485037D01*
X124687333Y-61491832D01*
X94812416Y-61491832D01*
X94793666Y-61145615D01*
X94792931Y-61138849D01*
X94736130Y-60791985D01*
X94734663Y-60785313D01*
X94640736Y-60446627D01*
X94638562Y-60440163D01*
X94508598Y-60113578D01*
X94505742Y-60107398D01*
X94341269Y-59796763D01*
X94337769Y-59790937D01*
X94140697Y-59499862D01*
X94136590Y-59494453D01*
X94023565Y-59361179D01*
X94010740Y-59352743D01*
X94000416Y-59358795D01*
X91872020Y-61487190D01*
X91864408Y-61501131D01*
X91134357Y-61501131D01*
X91135592Y-61498869D01*
X91135461Y-61497034D01*
X91131210Y-61490420D01*
X89000992Y-59360203D01*
X88987455Y-59352811D01*
X88977753Y-59359599D01*
X88870430Y-59485257D01*
X88866296Y-59490664D01*
X88668215Y-59781041D01*
X88664697Y-59786851D01*
X88499134Y-60096922D01*
X88496259Y-60103087D01*
X88365155Y-60429218D01*
X88362962Y-60435658D01*
X88267846Y-60774044D01*
X88266363Y-60780679D01*
X88208350Y-61127354D01*
X88207591Y-61134126D01*
X88187357Y-61485037D01*
X88187333Y-61491832D01*
X85482410Y-61491832D01*
X85476745Y-61439684D01*
X85425615Y-61303295D01*
X85338261Y-61186739D01*
X85221705Y-61099385D01*
X85085316Y-61048255D01*
X85023134Y-61041500D01*
X83226866Y-61041500D01*
X83164684Y-61048255D01*
X83028295Y-61099385D01*
X82911739Y-61186739D01*
X82824385Y-61303295D01*
X82821233Y-61311703D01*
X82779919Y-61421907D01*
X82737277Y-61478671D01*
X82670716Y-61503371D01*
X82601367Y-61488163D01*
X82568743Y-61462476D01*
X82518151Y-61406875D01*
X82518142Y-61406866D01*
X82514670Y-61403051D01*
X82510619Y-61399852D01*
X82510615Y-61399848D01*
X82343414Y-61267800D01*
X82343410Y-61267798D01*
X82339359Y-61264598D01*
X82319752Y-61253774D01*
X82287136Y-61235769D01*
X82143789Y-61156638D01*
X82138920Y-61154914D01*
X82138916Y-61154912D01*
X81938087Y-61083795D01*
X81938083Y-61083794D01*
X81933212Y-61082069D01*
X81928119Y-61081162D01*
X81928116Y-61081161D01*
X81718373Y-61043800D01*
X81718367Y-61043799D01*
X81713284Y-61042894D01*
X81639452Y-61041992D01*
X81495081Y-61040228D01*
X81495079Y-61040228D01*
X81489911Y-61040165D01*
X81269091Y-61073955D01*
X81056756Y-61143357D01*
X80858607Y-61246507D01*
X80854474Y-61249610D01*
X80854471Y-61249612D01*
X80684100Y-61377530D01*
X80679965Y-61380635D01*
X80654541Y-61407240D01*
X80553656Y-61512810D01*
X80525629Y-61542138D01*
X80522715Y-61546410D01*
X80522714Y-61546411D01*
X80417898Y-61700066D01*
X80362987Y-61745069D01*
X80292462Y-61753240D01*
X80228715Y-61721986D01*
X80208018Y-61697502D01*
X80127426Y-61572926D01*
X80121136Y-61564757D01*
X79977806Y-61407240D01*
X79970273Y-61400215D01*
X79803139Y-61268222D01*
X79794552Y-61262517D01*
X79608117Y-61159599D01*
X79598705Y-61155369D01*
X79397959Y-61084280D01*
X79387988Y-61081646D01*
X79316837Y-61068972D01*
X79303540Y-61070432D01*
X79299000Y-61084989D01*
X79299000Y-63718517D01*
X78791000Y-63718517D01*
X78791000Y-62672115D01*
X78786525Y-62656876D01*
X78785135Y-62655671D01*
X78777452Y-62654000D01*
X77728225Y-62654000D01*
X77714694Y-62657973D01*
X77713257Y-62667966D01*
X72008500Y-62667966D01*
X72008500Y-62134183D01*
X77709389Y-62134183D01*
X77710912Y-62142607D01*
X77723292Y-62146000D01*
X78772885Y-62146000D01*
X78788124Y-62141525D01*
X78789329Y-62140135D01*
X78791000Y-62132452D01*
X78791000Y-61083102D01*
X78787082Y-61069758D01*
X78772806Y-61067771D01*
X78734324Y-61073660D01*
X78724288Y-61076051D01*
X78521868Y-61142212D01*
X78512359Y-61146209D01*
X78323463Y-61244542D01*
X78314738Y-61250036D01*
X78144433Y-61377905D01*
X78136726Y-61384748D01*
X77989590Y-61538717D01*
X77983104Y-61546727D01*
X77863098Y-61722649D01*
X77858000Y-61731623D01*
X77768338Y-61924783D01*
X77764775Y-61934470D01*
X77709389Y-62134183D01*
X72008500Y-62134183D01*
X72008500Y-58986862D01*
X89349950Y-58986862D01*
X89349986Y-58987704D01*
X89355037Y-58995826D01*
X90625676Y-60266466D01*
X91487190Y-61127980D01*
X91501131Y-61135592D01*
X91502966Y-61135461D01*
X91509580Y-61131210D01*
X93642798Y-58997991D01*
X93648875Y-58986862D01*
X125849950Y-58986862D01*
X125849986Y-58987704D01*
X125855037Y-58995826D01*
X127125676Y-60266466D01*
X127987190Y-61127980D01*
X128001131Y-61135592D01*
X128002966Y-61135461D01*
X128009580Y-61131210D01*
X128874324Y-60266466D01*
X130142798Y-58997991D01*
X130150412Y-58984047D01*
X130150344Y-58983090D01*
X130145834Y-58976271D01*
X130144418Y-58975065D01*
X129864813Y-58762064D01*
X129859187Y-58758240D01*
X129558214Y-58576681D01*
X129552202Y-58573484D01*
X129233370Y-58425487D01*
X129227070Y-58422967D01*
X128894129Y-58310273D01*
X128887551Y-58308437D01*
X128544417Y-58232367D01*
X128537678Y-58231251D01*
X128188310Y-58192680D01*
X128181529Y-58192301D01*
X127830015Y-58191687D01*
X127823242Y-58192042D01*
X127473720Y-58229395D01*
X127467010Y-58230482D01*
X127123586Y-58305361D01*
X127117011Y-58307172D01*
X126783683Y-58418702D01*
X126777361Y-58421205D01*
X126458034Y-58568079D01*
X126451991Y-58571265D01*
X126150401Y-58751763D01*
X126144755Y-58755571D01*
X125864408Y-58967596D01*
X125859211Y-58971987D01*
X125857972Y-58973155D01*
X125849950Y-58986862D01*
X93648875Y-58986862D01*
X93650412Y-58984047D01*
X93650344Y-58983089D01*
X93645836Y-58976272D01*
X93644418Y-58975065D01*
X93364813Y-58762064D01*
X93359187Y-58758240D01*
X93058214Y-58576681D01*
X93052202Y-58573484D01*
X92733370Y-58425487D01*
X92727070Y-58422967D01*
X92394129Y-58310273D01*
X92387551Y-58308437D01*
X92044417Y-58232367D01*
X92037678Y-58231251D01*
X91688310Y-58192680D01*
X91681529Y-58192301D01*
X91330015Y-58191687D01*
X91323242Y-58192042D01*
X90973720Y-58229395D01*
X90967010Y-58230482D01*
X90623586Y-58305361D01*
X90617011Y-58307172D01*
X90283683Y-58418702D01*
X90277361Y-58421205D01*
X89958034Y-58568079D01*
X89951991Y-58571265D01*
X89650401Y-58751763D01*
X89644755Y-58755571D01*
X89364408Y-58967596D01*
X89359211Y-58971987D01*
X89357972Y-58973155D01*
X89349950Y-58986862D01*
X72008500Y-58986862D01*
X72008500Y-55848134D01*
X91141500Y-55848134D01*
X91148255Y-55910316D01*
X91199385Y-56046705D01*
X91286739Y-56163261D01*
X91403295Y-56250615D01*
X91539684Y-56301745D01*
X91601866Y-56308500D01*
X93298134Y-56308500D01*
X93360316Y-56301745D01*
X93496705Y-56250615D01*
X93613261Y-56163261D01*
X93700615Y-56046705D01*
X93751745Y-55910316D01*
X93752917Y-55899526D01*
X93753803Y-55897394D01*
X93754425Y-55894778D01*
X93754848Y-55894879D01*
X93780155Y-55833965D01*
X93838517Y-55793537D01*
X93909471Y-55791078D01*
X93970490Y-55827371D01*
X93977489Y-55836031D01*
X93980643Y-55839789D01*
X93983802Y-55844300D01*
X94145700Y-56006198D01*
X94150208Y-56009355D01*
X94150211Y-56009357D01*
X94191542Y-56038297D01*
X94333251Y-56137523D01*
X94338233Y-56139846D01*
X94338238Y-56139849D01*
X94534765Y-56231490D01*
X94540757Y-56234284D01*
X94546065Y-56235706D01*
X94546067Y-56235707D01*
X94756598Y-56292119D01*
X94756600Y-56292119D01*
X94761913Y-56293543D01*
X94990000Y-56313498D01*
X95218087Y-56293543D01*
X95223400Y-56292119D01*
X95223402Y-56292119D01*
X95433933Y-56235707D01*
X95433935Y-56235706D01*
X95439243Y-56234284D01*
X95445235Y-56231490D01*
X95641762Y-56139849D01*
X95641767Y-56139846D01*
X95646749Y-56137523D01*
X95788458Y-56038297D01*
X95829789Y-56009357D01*
X95829792Y-56009355D01*
X95834300Y-56006198D01*
X95996198Y-55844300D01*
X96127523Y-55656749D01*
X96129846Y-55651767D01*
X96129849Y-55651762D01*
X96145805Y-55617543D01*
X96192722Y-55564258D01*
X96260999Y-55544797D01*
X96328959Y-55565339D01*
X96374195Y-55617543D01*
X96390151Y-55651762D01*
X96390154Y-55651767D01*
X96392477Y-55656749D01*
X96523802Y-55844300D01*
X96685700Y-56006198D01*
X96690208Y-56009355D01*
X96690211Y-56009357D01*
X96731542Y-56038297D01*
X96873251Y-56137523D01*
X96878233Y-56139846D01*
X96878238Y-56139849D01*
X97074765Y-56231490D01*
X97080757Y-56234284D01*
X97086065Y-56235706D01*
X97086067Y-56235707D01*
X97296598Y-56292119D01*
X97296600Y-56292119D01*
X97301913Y-56293543D01*
X97530000Y-56313498D01*
X97758087Y-56293543D01*
X97763400Y-56292119D01*
X97763402Y-56292119D01*
X97973933Y-56235707D01*
X97973935Y-56235706D01*
X97979243Y-56234284D01*
X97985235Y-56231490D01*
X98181762Y-56139849D01*
X98181767Y-56139846D01*
X98186749Y-56137523D01*
X98328458Y-56038297D01*
X98369789Y-56009357D01*
X98369792Y-56009355D01*
X98374300Y-56006198D01*
X98536198Y-55844300D01*
X98667523Y-55656749D01*
X98669846Y-55651767D01*
X98669849Y-55651762D01*
X98686081Y-55616951D01*
X98732998Y-55563666D01*
X98801275Y-55544205D01*
X98869235Y-55564747D01*
X98914471Y-55616951D01*
X98930586Y-55651511D01*
X98936069Y-55661007D01*
X99061028Y-55839467D01*
X99068084Y-55847875D01*
X99222125Y-56001916D01*
X99230533Y-56008972D01*
X99408993Y-56133931D01*
X99418489Y-56139414D01*
X99615947Y-56231490D01*
X99626239Y-56235236D01*
X99798503Y-56281394D01*
X99812599Y-56281058D01*
X99816000Y-56273116D01*
X99816000Y-53732033D01*
X99812027Y-53718502D01*
X99803478Y-53717273D01*
X99626239Y-53764764D01*
X99615947Y-53768510D01*
X99418489Y-53860586D01*
X99408993Y-53866069D01*
X99230533Y-53991028D01*
X99222125Y-53998084D01*
X99068084Y-54152125D01*
X99061028Y-54160533D01*
X98936069Y-54338993D01*
X98930586Y-54348489D01*
X98914471Y-54383049D01*
X98867554Y-54436334D01*
X98799277Y-54455795D01*
X98731317Y-54435253D01*
X98686081Y-54383049D01*
X98669849Y-54348238D01*
X98669846Y-54348233D01*
X98667523Y-54343251D01*
X98590049Y-54232607D01*
X98539357Y-54160211D01*
X98539355Y-54160208D01*
X98536198Y-54155700D01*
X98374300Y-53993802D01*
X98369792Y-53990645D01*
X98369789Y-53990643D01*
X98259246Y-53913240D01*
X98186749Y-53862477D01*
X98181767Y-53860154D01*
X98181762Y-53860151D01*
X97984225Y-53768039D01*
X97984224Y-53768039D01*
X97979243Y-53765716D01*
X97973935Y-53764294D01*
X97973933Y-53764293D01*
X97763402Y-53707881D01*
X97763400Y-53707881D01*
X97758087Y-53706457D01*
X97530000Y-53686502D01*
X97301913Y-53706457D01*
X97296600Y-53707881D01*
X97296598Y-53707881D01*
X97086067Y-53764293D01*
X97086065Y-53764294D01*
X97080757Y-53765716D01*
X97075776Y-53768039D01*
X97075775Y-53768039D01*
X96878238Y-53860151D01*
X96878233Y-53860154D01*
X96873251Y-53862477D01*
X96800754Y-53913240D01*
X96690211Y-53990643D01*
X96690208Y-53990645D01*
X96685700Y-53993802D01*
X96523802Y-54155700D01*
X96520645Y-54160208D01*
X96520643Y-54160211D01*
X96469951Y-54232607D01*
X96392477Y-54343251D01*
X96390154Y-54348233D01*
X96390151Y-54348238D01*
X96374195Y-54382457D01*
X96327278Y-54435742D01*
X96259001Y-54455203D01*
X96191041Y-54434661D01*
X96145805Y-54382457D01*
X96129849Y-54348238D01*
X96129846Y-54348233D01*
X96127523Y-54343251D01*
X96050049Y-54232607D01*
X95999357Y-54160211D01*
X95999355Y-54160208D01*
X95996198Y-54155700D01*
X95834300Y-53993802D01*
X95829792Y-53990645D01*
X95829789Y-53990643D01*
X95719246Y-53913240D01*
X95646749Y-53862477D01*
X95641767Y-53860154D01*
X95641762Y-53860151D01*
X95444225Y-53768039D01*
X95444224Y-53768039D01*
X95439243Y-53765716D01*
X95433935Y-53764294D01*
X95433933Y-53764293D01*
X95223402Y-53707881D01*
X95223400Y-53707881D01*
X95218087Y-53706457D01*
X94990000Y-53686502D01*
X94761913Y-53706457D01*
X94756600Y-53707881D01*
X94756598Y-53707881D01*
X94546067Y-53764293D01*
X94546065Y-53764294D01*
X94540757Y-53765716D01*
X94535776Y-53768039D01*
X94535775Y-53768039D01*
X94338238Y-53860151D01*
X94338233Y-53860154D01*
X94333251Y-53862477D01*
X94260754Y-53913240D01*
X94150211Y-53990643D01*
X94150208Y-53990645D01*
X94145700Y-53993802D01*
X93983802Y-54155700D01*
X93980643Y-54160211D01*
X93977108Y-54164424D01*
X93975974Y-54163473D01*
X93925929Y-54203471D01*
X93855310Y-54210776D01*
X93791951Y-54178742D01*
X93755970Y-54117538D01*
X93752918Y-54100483D01*
X93751745Y-54089684D01*
X93700615Y-53953295D01*
X93613261Y-53836739D01*
X93496705Y-53749385D01*
X93360316Y-53698255D01*
X93298134Y-53691500D01*
X91601866Y-53691500D01*
X91539684Y-53698255D01*
X91403295Y-53749385D01*
X91286739Y-53836739D01*
X91199385Y-53953295D01*
X91148255Y-54089684D01*
X91141500Y-54151866D01*
X91141500Y-55848134D01*
X72008500Y-55848134D01*
X72008500Y-53816695D01*
X72637251Y-53816695D01*
X72637548Y-53821848D01*
X72637548Y-53821851D01*
X72643202Y-53919908D01*
X72650110Y-54039715D01*
X72651247Y-54044761D01*
X72651248Y-54044767D01*
X72663802Y-54100471D01*
X72699222Y-54257639D01*
X72736010Y-54348238D01*
X72771542Y-54435742D01*
X72783266Y-54464616D01*
X72899987Y-54655088D01*
X73046250Y-54823938D01*
X73218126Y-54966632D01*
X73411000Y-55079338D01*
X73619692Y-55159030D01*
X73624760Y-55160061D01*
X73624763Y-55160062D01*
X73732017Y-55181883D01*
X73838597Y-55203567D01*
X73843772Y-55203757D01*
X73843774Y-55203757D01*
X74056673Y-55211564D01*
X74056677Y-55211564D01*
X74061837Y-55211753D01*
X74066957Y-55211097D01*
X74066959Y-55211097D01*
X74278288Y-55184025D01*
X74278289Y-55184025D01*
X74283416Y-55183368D01*
X74288366Y-55181883D01*
X74492429Y-55120661D01*
X74492434Y-55120659D01*
X74497384Y-55119174D01*
X74697994Y-55020896D01*
X74879860Y-54891173D01*
X74910939Y-54860203D01*
X75024344Y-54747193D01*
X75038096Y-54733489D01*
X75097594Y-54650689D01*
X75165435Y-54556277D01*
X75168453Y-54552077D01*
X75171158Y-54546605D01*
X75265136Y-54356453D01*
X75265137Y-54356451D01*
X75267430Y-54351811D01*
X75327140Y-54155283D01*
X75330865Y-54143023D01*
X75330865Y-54143021D01*
X75332370Y-54138069D01*
X75361529Y-53916590D01*
X75362680Y-53869497D01*
X75363074Y-53853365D01*
X75363074Y-53853361D01*
X75363156Y-53850000D01*
X75344852Y-53627361D01*
X75290431Y-53410702D01*
X75201354Y-53205840D01*
X75080014Y-53018277D01*
X74929670Y-52853051D01*
X74925619Y-52849852D01*
X74925615Y-52849848D01*
X74758414Y-52717800D01*
X74758410Y-52717798D01*
X74754359Y-52714598D01*
X74713053Y-52691796D01*
X74663084Y-52641364D01*
X74648312Y-52571921D01*
X74673428Y-52505516D01*
X74700780Y-52478909D01*
X74760329Y-52436433D01*
X74879860Y-52351173D01*
X74929299Y-52301907D01*
X74996221Y-52235218D01*
X75038096Y-52193489D01*
X75097594Y-52110689D01*
X75165435Y-52016277D01*
X75168453Y-52012077D01*
X75180019Y-51988675D01*
X75228132Y-51936467D01*
X75292977Y-51918500D01*
X98615761Y-51918500D01*
X98683882Y-51938502D01*
X98704856Y-51955405D01*
X100309373Y-53559922D01*
X100343399Y-53622234D01*
X100336105Y-53698617D01*
X100324000Y-53726885D01*
X100324000Y-56267967D01*
X100327973Y-56281498D01*
X100336522Y-56282727D01*
X100513761Y-56235236D01*
X100524053Y-56231490D01*
X100721511Y-56139414D01*
X100731007Y-56133931D01*
X100909467Y-56008972D01*
X100917875Y-56001916D01*
X101071916Y-55847875D01*
X101078972Y-55839467D01*
X101203931Y-55661007D01*
X101209414Y-55651511D01*
X101225529Y-55616951D01*
X101272446Y-55563666D01*
X101340723Y-55544205D01*
X101408683Y-55564747D01*
X101453919Y-55616951D01*
X101470151Y-55651762D01*
X101470154Y-55651767D01*
X101472477Y-55656749D01*
X101603802Y-55844300D01*
X101765700Y-56006198D01*
X101770208Y-56009355D01*
X101770211Y-56009357D01*
X101811542Y-56038297D01*
X101953251Y-56137523D01*
X101958233Y-56139846D01*
X101958238Y-56139849D01*
X102154765Y-56231490D01*
X102160757Y-56234284D01*
X102166065Y-56235706D01*
X102166067Y-56235707D01*
X102376598Y-56292119D01*
X102376600Y-56292119D01*
X102381913Y-56293543D01*
X102610000Y-56313498D01*
X102838087Y-56293543D01*
X102843400Y-56292119D01*
X102843402Y-56292119D01*
X103053933Y-56235707D01*
X103053935Y-56235706D01*
X103059243Y-56234284D01*
X103065235Y-56231490D01*
X103261762Y-56139849D01*
X103261767Y-56139846D01*
X103266749Y-56137523D01*
X103408458Y-56038297D01*
X103449789Y-56009357D01*
X103449792Y-56009355D01*
X103454300Y-56006198D01*
X103616198Y-55844300D01*
X103747523Y-55656749D01*
X103749846Y-55651767D01*
X103749849Y-55651762D01*
X103765805Y-55617543D01*
X103812722Y-55564258D01*
X103880999Y-55544797D01*
X103948959Y-55565339D01*
X103994195Y-55617543D01*
X104010151Y-55651762D01*
X104010154Y-55651767D01*
X104012477Y-55656749D01*
X104143802Y-55844300D01*
X104305700Y-56006198D01*
X104310208Y-56009355D01*
X104310211Y-56009357D01*
X104351542Y-56038297D01*
X104493251Y-56137523D01*
X104498233Y-56139846D01*
X104498238Y-56139849D01*
X104694765Y-56231490D01*
X104700757Y-56234284D01*
X104706065Y-56235706D01*
X104706067Y-56235707D01*
X104916598Y-56292119D01*
X104916600Y-56292119D01*
X104921913Y-56293543D01*
X105150000Y-56313498D01*
X105378087Y-56293543D01*
X105383400Y-56292119D01*
X105383402Y-56292119D01*
X105593933Y-56235707D01*
X105593935Y-56235706D01*
X105599243Y-56234284D01*
X105605235Y-56231490D01*
X105801762Y-56139849D01*
X105801767Y-56139846D01*
X105806749Y-56137523D01*
X105948458Y-56038297D01*
X105989789Y-56009357D01*
X105989792Y-56009355D01*
X105994300Y-56006198D01*
X106156198Y-55844300D01*
X106287523Y-55656749D01*
X106289846Y-55651767D01*
X106289849Y-55651762D01*
X106305805Y-55617543D01*
X106352722Y-55564258D01*
X106420999Y-55544797D01*
X106488959Y-55565339D01*
X106534195Y-55617543D01*
X106550151Y-55651762D01*
X106550154Y-55651767D01*
X106552477Y-55656749D01*
X106683802Y-55844300D01*
X106845700Y-56006198D01*
X106850208Y-56009355D01*
X106850211Y-56009357D01*
X106891542Y-56038297D01*
X107033251Y-56137523D01*
X107038233Y-56139846D01*
X107038238Y-56139849D01*
X107234765Y-56231490D01*
X107240757Y-56234284D01*
X107246065Y-56235706D01*
X107246067Y-56235707D01*
X107456598Y-56292119D01*
X107456600Y-56292119D01*
X107461913Y-56293543D01*
X107690000Y-56313498D01*
X107918087Y-56293543D01*
X107923400Y-56292119D01*
X107923402Y-56292119D01*
X108133933Y-56235707D01*
X108133935Y-56235706D01*
X108139243Y-56234284D01*
X108145235Y-56231490D01*
X108341762Y-56139849D01*
X108341767Y-56139846D01*
X108346749Y-56137523D01*
X108488458Y-56038297D01*
X108529789Y-56009357D01*
X108529792Y-56009355D01*
X108534300Y-56006198D01*
X108696198Y-55844300D01*
X108827523Y-55656749D01*
X108829846Y-55651767D01*
X108829849Y-55651762D01*
X108845805Y-55617543D01*
X108892722Y-55564258D01*
X108960999Y-55544797D01*
X109028959Y-55565339D01*
X109074195Y-55617543D01*
X109090151Y-55651762D01*
X109090154Y-55651767D01*
X109092477Y-55656749D01*
X109223802Y-55844300D01*
X109385700Y-56006198D01*
X109390208Y-56009355D01*
X109390211Y-56009357D01*
X109431542Y-56038297D01*
X109573251Y-56137523D01*
X109578233Y-56139846D01*
X109578238Y-56139849D01*
X109774765Y-56231490D01*
X109780757Y-56234284D01*
X109786065Y-56235706D01*
X109786067Y-56235707D01*
X109996598Y-56292119D01*
X109996600Y-56292119D01*
X110001913Y-56293543D01*
X110230000Y-56313498D01*
X110458087Y-56293543D01*
X110463400Y-56292119D01*
X110463402Y-56292119D01*
X110673933Y-56235707D01*
X110673935Y-56235706D01*
X110679243Y-56234284D01*
X110685235Y-56231490D01*
X110881762Y-56139849D01*
X110881767Y-56139846D01*
X110886749Y-56137523D01*
X111028458Y-56038297D01*
X111069789Y-56009357D01*
X111069792Y-56009355D01*
X111074300Y-56006198D01*
X111236198Y-55844300D01*
X111367523Y-55656749D01*
X111369846Y-55651767D01*
X111369849Y-55651762D01*
X111385805Y-55617543D01*
X111432722Y-55564258D01*
X111500999Y-55544797D01*
X111568959Y-55565339D01*
X111614195Y-55617543D01*
X111630151Y-55651762D01*
X111630154Y-55651767D01*
X111632477Y-55656749D01*
X111763802Y-55844300D01*
X111925700Y-56006198D01*
X111930208Y-56009355D01*
X111930211Y-56009357D01*
X111971542Y-56038297D01*
X112113251Y-56137523D01*
X112118233Y-56139846D01*
X112118238Y-56139849D01*
X112314765Y-56231490D01*
X112320757Y-56234284D01*
X112326065Y-56235706D01*
X112326067Y-56235707D01*
X112536598Y-56292119D01*
X112536600Y-56292119D01*
X112541913Y-56293543D01*
X112770000Y-56313498D01*
X112998087Y-56293543D01*
X113003400Y-56292119D01*
X113003402Y-56292119D01*
X113213933Y-56235707D01*
X113213935Y-56235706D01*
X113219243Y-56234284D01*
X113225235Y-56231490D01*
X113421762Y-56139849D01*
X113421767Y-56139846D01*
X113426749Y-56137523D01*
X113568458Y-56038297D01*
X113609789Y-56009357D01*
X113609792Y-56009355D01*
X113614300Y-56006198D01*
X113776198Y-55844300D01*
X113907523Y-55656749D01*
X113909846Y-55651767D01*
X113909849Y-55651762D01*
X113925805Y-55617543D01*
X113972722Y-55564258D01*
X114040999Y-55544797D01*
X114108959Y-55565339D01*
X114154195Y-55617543D01*
X114170151Y-55651762D01*
X114170154Y-55651767D01*
X114172477Y-55656749D01*
X114303802Y-55844300D01*
X114465700Y-56006198D01*
X114470208Y-56009355D01*
X114470211Y-56009357D01*
X114511542Y-56038297D01*
X114653251Y-56137523D01*
X114658233Y-56139846D01*
X114658238Y-56139849D01*
X114854765Y-56231490D01*
X114860757Y-56234284D01*
X114866065Y-56235706D01*
X114866067Y-56235707D01*
X115076598Y-56292119D01*
X115076600Y-56292119D01*
X115081913Y-56293543D01*
X115310000Y-56313498D01*
X115538087Y-56293543D01*
X115543400Y-56292119D01*
X115543402Y-56292119D01*
X115753933Y-56235707D01*
X115753935Y-56235706D01*
X115759243Y-56234284D01*
X115765235Y-56231490D01*
X115961762Y-56139849D01*
X115961767Y-56139846D01*
X115966749Y-56137523D01*
X116108458Y-56038297D01*
X116149789Y-56009357D01*
X116149792Y-56009355D01*
X116154300Y-56006198D01*
X116316198Y-55844300D01*
X116447523Y-55656749D01*
X116449846Y-55651767D01*
X116449849Y-55651762D01*
X116465805Y-55617543D01*
X116512722Y-55564258D01*
X116580999Y-55544797D01*
X116648959Y-55565339D01*
X116694195Y-55617543D01*
X116710151Y-55651762D01*
X116710154Y-55651767D01*
X116712477Y-55656749D01*
X116843802Y-55844300D01*
X117005700Y-56006198D01*
X117010208Y-56009355D01*
X117010211Y-56009357D01*
X117051542Y-56038297D01*
X117193251Y-56137523D01*
X117198233Y-56139846D01*
X117198238Y-56139849D01*
X117394765Y-56231490D01*
X117400757Y-56234284D01*
X117406065Y-56235706D01*
X117406067Y-56235707D01*
X117616598Y-56292119D01*
X117616600Y-56292119D01*
X117621913Y-56293543D01*
X117850000Y-56313498D01*
X118078087Y-56293543D01*
X118083400Y-56292119D01*
X118083402Y-56292119D01*
X118293933Y-56235707D01*
X118293935Y-56235706D01*
X118299243Y-56234284D01*
X118305235Y-56231490D01*
X118501762Y-56139849D01*
X118501767Y-56139846D01*
X118506749Y-56137523D01*
X118648458Y-56038297D01*
X118689789Y-56009357D01*
X118689792Y-56009355D01*
X118694300Y-56006198D01*
X118856198Y-55844300D01*
X118987523Y-55656749D01*
X118989846Y-55651767D01*
X118989849Y-55651762D01*
X119005805Y-55617543D01*
X119052722Y-55564258D01*
X119120999Y-55544797D01*
X119188959Y-55565339D01*
X119234195Y-55617543D01*
X119250151Y-55651762D01*
X119250154Y-55651767D01*
X119252477Y-55656749D01*
X119383802Y-55844300D01*
X119545700Y-56006198D01*
X119550208Y-56009355D01*
X119550211Y-56009357D01*
X119591542Y-56038297D01*
X119733251Y-56137523D01*
X119738233Y-56139846D01*
X119738238Y-56139849D01*
X119934765Y-56231490D01*
X119940757Y-56234284D01*
X119946065Y-56235706D01*
X119946067Y-56235707D01*
X120156598Y-56292119D01*
X120156600Y-56292119D01*
X120161913Y-56293543D01*
X120390000Y-56313498D01*
X120618087Y-56293543D01*
X120623400Y-56292119D01*
X120623402Y-56292119D01*
X120833933Y-56235707D01*
X120833935Y-56235706D01*
X120839243Y-56234284D01*
X120845235Y-56231490D01*
X121041762Y-56139849D01*
X121041767Y-56139846D01*
X121046749Y-56137523D01*
X121188458Y-56038297D01*
X121229789Y-56009357D01*
X121229792Y-56009355D01*
X121234300Y-56006198D01*
X121396198Y-55844300D01*
X121527523Y-55656749D01*
X121529846Y-55651767D01*
X121529849Y-55651762D01*
X121545805Y-55617543D01*
X121592722Y-55564258D01*
X121660999Y-55544797D01*
X121728959Y-55565339D01*
X121774195Y-55617543D01*
X121790151Y-55651762D01*
X121790154Y-55651767D01*
X121792477Y-55656749D01*
X121923802Y-55844300D01*
X122085700Y-56006198D01*
X122090208Y-56009355D01*
X122090211Y-56009357D01*
X122131542Y-56038297D01*
X122273251Y-56137523D01*
X122278233Y-56139846D01*
X122278238Y-56139849D01*
X122474765Y-56231490D01*
X122480757Y-56234284D01*
X122486065Y-56235706D01*
X122486067Y-56235707D01*
X122696598Y-56292119D01*
X122696600Y-56292119D01*
X122701913Y-56293543D01*
X122930000Y-56313498D01*
X123158087Y-56293543D01*
X123163400Y-56292119D01*
X123163402Y-56292119D01*
X123373933Y-56235707D01*
X123373935Y-56235706D01*
X123379243Y-56234284D01*
X123385235Y-56231490D01*
X123581762Y-56139849D01*
X123581767Y-56139846D01*
X123586749Y-56137523D01*
X123728458Y-56038297D01*
X123769789Y-56009357D01*
X123769792Y-56009355D01*
X123774300Y-56006198D01*
X123936198Y-55844300D01*
X124067523Y-55656749D01*
X124069846Y-55651767D01*
X124069849Y-55651762D01*
X124085805Y-55617543D01*
X124132722Y-55564258D01*
X124200999Y-55544797D01*
X124268959Y-55565339D01*
X124314195Y-55617543D01*
X124330151Y-55651762D01*
X124330154Y-55651767D01*
X124332477Y-55656749D01*
X124463802Y-55844300D01*
X124625700Y-56006198D01*
X124630208Y-56009355D01*
X124630211Y-56009357D01*
X124671542Y-56038297D01*
X124813251Y-56137523D01*
X124818233Y-56139846D01*
X124818238Y-56139849D01*
X125014765Y-56231490D01*
X125020757Y-56234284D01*
X125026065Y-56235706D01*
X125026067Y-56235707D01*
X125236598Y-56292119D01*
X125236600Y-56292119D01*
X125241913Y-56293543D01*
X125470000Y-56313498D01*
X125698087Y-56293543D01*
X125703400Y-56292119D01*
X125703402Y-56292119D01*
X125913933Y-56235707D01*
X125913935Y-56235706D01*
X125919243Y-56234284D01*
X125925235Y-56231490D01*
X126121762Y-56139849D01*
X126121767Y-56139846D01*
X126126749Y-56137523D01*
X126268458Y-56038297D01*
X126309789Y-56009357D01*
X126309792Y-56009355D01*
X126314300Y-56006198D01*
X126476198Y-55844300D01*
X126607523Y-55656749D01*
X126609846Y-55651767D01*
X126609849Y-55651762D01*
X126625805Y-55617543D01*
X126672722Y-55564258D01*
X126740999Y-55544797D01*
X126808959Y-55565339D01*
X126854195Y-55617543D01*
X126870151Y-55651762D01*
X126870154Y-55651767D01*
X126872477Y-55656749D01*
X127003802Y-55844300D01*
X127165700Y-56006198D01*
X127170208Y-56009355D01*
X127170211Y-56009357D01*
X127211542Y-56038297D01*
X127353251Y-56137523D01*
X127358233Y-56139846D01*
X127358238Y-56139849D01*
X127554765Y-56231490D01*
X127560757Y-56234284D01*
X127566065Y-56235706D01*
X127566067Y-56235707D01*
X127776598Y-56292119D01*
X127776600Y-56292119D01*
X127781913Y-56293543D01*
X128010000Y-56313498D01*
X128238087Y-56293543D01*
X128243400Y-56292119D01*
X128243402Y-56292119D01*
X128453933Y-56235707D01*
X128453935Y-56235706D01*
X128459243Y-56234284D01*
X128465235Y-56231490D01*
X128661762Y-56139849D01*
X128661767Y-56139846D01*
X128666749Y-56137523D01*
X128808458Y-56038297D01*
X128849789Y-56009357D01*
X128849792Y-56009355D01*
X128854300Y-56006198D01*
X129016198Y-55844300D01*
X129147523Y-55656749D01*
X129149846Y-55651767D01*
X129149849Y-55651762D01*
X129241961Y-55454225D01*
X129241961Y-55454224D01*
X129244284Y-55449243D01*
X129283325Y-55303543D01*
X129302119Y-55233402D01*
X129302119Y-55233400D01*
X129303543Y-55228087D01*
X129323498Y-55000000D01*
X129303543Y-54771913D01*
X129296919Y-54747193D01*
X129245707Y-54556067D01*
X129245706Y-54556065D01*
X129244284Y-54550757D01*
X129241500Y-54544787D01*
X129149849Y-54348238D01*
X129149846Y-54348233D01*
X129147523Y-54343251D01*
X129070049Y-54232607D01*
X129019357Y-54160211D01*
X129019355Y-54160208D01*
X129016198Y-54155700D01*
X128854300Y-53993802D01*
X128849792Y-53990645D01*
X128849789Y-53990643D01*
X128739246Y-53913240D01*
X128666749Y-53862477D01*
X128661767Y-53860154D01*
X128661762Y-53860151D01*
X128464225Y-53768039D01*
X128464224Y-53768039D01*
X128459243Y-53765716D01*
X128453935Y-53764294D01*
X128453933Y-53764293D01*
X128243402Y-53707881D01*
X128243400Y-53707881D01*
X128238087Y-53706457D01*
X128010000Y-53686502D01*
X127781913Y-53706457D01*
X127776600Y-53707881D01*
X127776598Y-53707881D01*
X127566067Y-53764293D01*
X127566065Y-53764294D01*
X127560757Y-53765716D01*
X127555776Y-53768039D01*
X127555775Y-53768039D01*
X127358238Y-53860151D01*
X127358233Y-53860154D01*
X127353251Y-53862477D01*
X127280754Y-53913240D01*
X127170211Y-53990643D01*
X127170208Y-53990645D01*
X127165700Y-53993802D01*
X127003802Y-54155700D01*
X127000645Y-54160208D01*
X127000643Y-54160211D01*
X126949951Y-54232607D01*
X126872477Y-54343251D01*
X126870154Y-54348233D01*
X126870151Y-54348238D01*
X126854195Y-54382457D01*
X126807278Y-54435742D01*
X126739001Y-54455203D01*
X126671041Y-54434661D01*
X126625805Y-54382457D01*
X126609849Y-54348238D01*
X126609846Y-54348233D01*
X126607523Y-54343251D01*
X126530049Y-54232607D01*
X126479357Y-54160211D01*
X126479355Y-54160208D01*
X126476198Y-54155700D01*
X126314300Y-53993802D01*
X126309792Y-53990645D01*
X126309789Y-53990643D01*
X126199246Y-53913240D01*
X126126749Y-53862477D01*
X126121767Y-53860154D01*
X126121762Y-53860151D01*
X125924225Y-53768039D01*
X125924224Y-53768039D01*
X125919243Y-53765716D01*
X125913935Y-53764294D01*
X125913933Y-53764293D01*
X125703402Y-53707881D01*
X125703400Y-53707881D01*
X125698087Y-53706457D01*
X125470000Y-53686502D01*
X125241913Y-53706457D01*
X125236600Y-53707881D01*
X125236598Y-53707881D01*
X125026067Y-53764293D01*
X125026065Y-53764294D01*
X125020757Y-53765716D01*
X125015776Y-53768039D01*
X125015775Y-53768039D01*
X124818238Y-53860151D01*
X124818233Y-53860154D01*
X124813251Y-53862477D01*
X124740754Y-53913240D01*
X124630211Y-53990643D01*
X124630208Y-53990645D01*
X124625700Y-53993802D01*
X124463802Y-54155700D01*
X124460645Y-54160208D01*
X124460643Y-54160211D01*
X124409951Y-54232607D01*
X124332477Y-54343251D01*
X124330154Y-54348233D01*
X124330151Y-54348238D01*
X124314195Y-54382457D01*
X124267278Y-54435742D01*
X124199001Y-54455203D01*
X124131041Y-54434661D01*
X124085805Y-54382457D01*
X124069849Y-54348238D01*
X124069846Y-54348233D01*
X124067523Y-54343251D01*
X123990049Y-54232607D01*
X123939357Y-54160211D01*
X123939355Y-54160208D01*
X123936198Y-54155700D01*
X123774300Y-53993802D01*
X123769792Y-53990645D01*
X123769789Y-53990643D01*
X123659246Y-53913240D01*
X123586749Y-53862477D01*
X123581767Y-53860154D01*
X123581762Y-53860151D01*
X123384225Y-53768039D01*
X123384224Y-53768039D01*
X123379243Y-53765716D01*
X123373935Y-53764294D01*
X123373933Y-53764293D01*
X123163402Y-53707881D01*
X123163400Y-53707881D01*
X123158087Y-53706457D01*
X122930000Y-53686502D01*
X122701913Y-53706457D01*
X122696600Y-53707881D01*
X122696598Y-53707881D01*
X122486067Y-53764293D01*
X122486065Y-53764294D01*
X122480757Y-53765716D01*
X122475776Y-53768039D01*
X122475775Y-53768039D01*
X122278238Y-53860151D01*
X122278233Y-53860154D01*
X122273251Y-53862477D01*
X122200754Y-53913240D01*
X122090211Y-53990643D01*
X122090208Y-53990645D01*
X122085700Y-53993802D01*
X121923802Y-54155700D01*
X121920645Y-54160208D01*
X121920643Y-54160211D01*
X121869951Y-54232607D01*
X121792477Y-54343251D01*
X121790154Y-54348233D01*
X121790151Y-54348238D01*
X121774195Y-54382457D01*
X121727278Y-54435742D01*
X121659001Y-54455203D01*
X121591041Y-54434661D01*
X121545805Y-54382457D01*
X121529849Y-54348238D01*
X121529846Y-54348233D01*
X121527523Y-54343251D01*
X121450049Y-54232607D01*
X121399357Y-54160211D01*
X121399355Y-54160208D01*
X121396198Y-54155700D01*
X121234300Y-53993802D01*
X121229792Y-53990645D01*
X121229789Y-53990643D01*
X121119246Y-53913240D01*
X121046749Y-53862477D01*
X121041767Y-53860154D01*
X121041762Y-53860151D01*
X120844225Y-53768039D01*
X120844224Y-53768039D01*
X120839243Y-53765716D01*
X120833935Y-53764294D01*
X120833933Y-53764293D01*
X120623402Y-53707881D01*
X120623400Y-53707881D01*
X120618087Y-53706457D01*
X120390000Y-53686502D01*
X120161913Y-53706457D01*
X120156600Y-53707881D01*
X120156598Y-53707881D01*
X119946067Y-53764293D01*
X119946065Y-53764294D01*
X119940757Y-53765716D01*
X119935776Y-53768039D01*
X119935775Y-53768039D01*
X119738238Y-53860151D01*
X119738233Y-53860154D01*
X119733251Y-53862477D01*
X119660754Y-53913240D01*
X119550211Y-53990643D01*
X119550208Y-53990645D01*
X119545700Y-53993802D01*
X119383802Y-54155700D01*
X119380645Y-54160208D01*
X119380643Y-54160211D01*
X119329951Y-54232607D01*
X119252477Y-54343251D01*
X119250154Y-54348233D01*
X119250151Y-54348238D01*
X119234195Y-54382457D01*
X119187278Y-54435742D01*
X119119001Y-54455203D01*
X119051041Y-54434661D01*
X119005805Y-54382457D01*
X118989849Y-54348238D01*
X118989846Y-54348233D01*
X118987523Y-54343251D01*
X118910049Y-54232607D01*
X118859357Y-54160211D01*
X118859355Y-54160208D01*
X118856198Y-54155700D01*
X118694300Y-53993802D01*
X118689792Y-53990645D01*
X118689789Y-53990643D01*
X118579246Y-53913240D01*
X118506749Y-53862477D01*
X118501767Y-53860154D01*
X118501762Y-53860151D01*
X118304225Y-53768039D01*
X118304224Y-53768039D01*
X118299243Y-53765716D01*
X118293935Y-53764294D01*
X118293933Y-53764293D01*
X118083402Y-53707881D01*
X118083400Y-53707881D01*
X118078087Y-53706457D01*
X117850000Y-53686502D01*
X117621913Y-53706457D01*
X117616600Y-53707881D01*
X117616598Y-53707881D01*
X117406067Y-53764293D01*
X117406065Y-53764294D01*
X117400757Y-53765716D01*
X117395776Y-53768039D01*
X117395775Y-53768039D01*
X117198238Y-53860151D01*
X117198233Y-53860154D01*
X117193251Y-53862477D01*
X117120754Y-53913240D01*
X117010211Y-53990643D01*
X117010208Y-53990645D01*
X117005700Y-53993802D01*
X116843802Y-54155700D01*
X116840645Y-54160208D01*
X116840643Y-54160211D01*
X116789951Y-54232607D01*
X116712477Y-54343251D01*
X116710154Y-54348233D01*
X116710151Y-54348238D01*
X116694195Y-54382457D01*
X116647278Y-54435742D01*
X116579001Y-54455203D01*
X116511041Y-54434661D01*
X116465805Y-54382457D01*
X116449849Y-54348238D01*
X116449846Y-54348233D01*
X116447523Y-54343251D01*
X116370049Y-54232607D01*
X116319357Y-54160211D01*
X116319355Y-54160208D01*
X116316198Y-54155700D01*
X116154300Y-53993802D01*
X116149792Y-53990645D01*
X116149789Y-53990643D01*
X116039246Y-53913240D01*
X115966749Y-53862477D01*
X115961767Y-53860154D01*
X115961762Y-53860151D01*
X115764225Y-53768039D01*
X115764224Y-53768039D01*
X115759243Y-53765716D01*
X115753935Y-53764294D01*
X115753933Y-53764293D01*
X115543402Y-53707881D01*
X115543400Y-53707881D01*
X115538087Y-53706457D01*
X115310000Y-53686502D01*
X115081913Y-53706457D01*
X115076600Y-53707881D01*
X115076598Y-53707881D01*
X114866067Y-53764293D01*
X114866065Y-53764294D01*
X114860757Y-53765716D01*
X114855776Y-53768039D01*
X114855775Y-53768039D01*
X114658238Y-53860151D01*
X114658233Y-53860154D01*
X114653251Y-53862477D01*
X114580754Y-53913240D01*
X114470211Y-53990643D01*
X114470208Y-53990645D01*
X114465700Y-53993802D01*
X114303802Y-54155700D01*
X114300645Y-54160208D01*
X114300643Y-54160211D01*
X114249951Y-54232607D01*
X114172477Y-54343251D01*
X114170154Y-54348233D01*
X114170151Y-54348238D01*
X114154195Y-54382457D01*
X114107278Y-54435742D01*
X114039001Y-54455203D01*
X113971041Y-54434661D01*
X113925805Y-54382457D01*
X113909849Y-54348238D01*
X113909846Y-54348233D01*
X113907523Y-54343251D01*
X113830049Y-54232607D01*
X113779357Y-54160211D01*
X113779355Y-54160208D01*
X113776198Y-54155700D01*
X113614300Y-53993802D01*
X113609792Y-53990645D01*
X113609789Y-53990643D01*
X113499246Y-53913240D01*
X113426749Y-53862477D01*
X113421767Y-53860154D01*
X113421762Y-53860151D01*
X113224225Y-53768039D01*
X113224224Y-53768039D01*
X113219243Y-53765716D01*
X113213935Y-53764294D01*
X113213933Y-53764293D01*
X113003402Y-53707881D01*
X113003400Y-53707881D01*
X112998087Y-53706457D01*
X112770000Y-53686502D01*
X112764525Y-53686981D01*
X112764514Y-53686981D01*
X112713825Y-53691416D01*
X112644220Y-53677428D01*
X112593228Y-53628029D01*
X112577037Y-53558903D01*
X112600789Y-53491997D01*
X112613748Y-53476801D01*
X113795696Y-52294853D01*
X124439977Y-52294853D01*
X124445258Y-52301907D01*
X124606756Y-52396279D01*
X124616042Y-52400729D01*
X124815001Y-52476703D01*
X124824899Y-52479579D01*
X125033595Y-52522038D01*
X125043823Y-52523257D01*
X125256650Y-52531062D01*
X125266936Y-52530595D01*
X125478185Y-52503534D01*
X125488262Y-52501392D01*
X125692255Y-52440191D01*
X125701842Y-52436433D01*
X125893098Y-52342738D01*
X125901944Y-52337465D01*
X125949247Y-52303723D01*
X125957648Y-52293023D01*
X125950660Y-52279870D01*
X125212812Y-51542022D01*
X125198868Y-51534408D01*
X125197035Y-51534539D01*
X125190420Y-51538790D01*
X124446737Y-52282473D01*
X124439977Y-52294853D01*
X113795696Y-52294853D01*
X114948686Y-51141863D01*
X123838050Y-51141863D01*
X123850309Y-51354477D01*
X123851745Y-51364697D01*
X123898565Y-51572446D01*
X123901645Y-51582275D01*
X123981770Y-51779603D01*
X123986413Y-51788794D01*
X124066460Y-51919420D01*
X124076916Y-51928880D01*
X124085694Y-51925096D01*
X124827978Y-51182812D01*
X124834356Y-51171132D01*
X125564408Y-51171132D01*
X125564539Y-51172965D01*
X125568790Y-51179580D01*
X126310474Y-51921264D01*
X126322484Y-51927823D01*
X126334223Y-51918855D01*
X126365004Y-51876019D01*
X126370315Y-51867180D01*
X126464670Y-51676267D01*
X126468469Y-51666672D01*
X126530376Y-51462915D01*
X126532555Y-51452834D01*
X126560590Y-51239887D01*
X126561109Y-51233212D01*
X126562572Y-51173364D01*
X126562378Y-51166646D01*
X126544781Y-50952604D01*
X126543096Y-50942424D01*
X126491214Y-50735875D01*
X126487894Y-50726124D01*
X126402972Y-50530814D01*
X126398105Y-50521739D01*
X126333063Y-50421197D01*
X126322377Y-50411995D01*
X126312812Y-50416398D01*
X125572022Y-51157188D01*
X125564408Y-51171132D01*
X124834356Y-51171132D01*
X124835592Y-51168868D01*
X124835461Y-51167035D01*
X124831210Y-51160420D01*
X124089849Y-50419059D01*
X124078313Y-50412759D01*
X124066031Y-50422382D01*
X124018089Y-50492662D01*
X124013004Y-50501613D01*
X123923338Y-50694783D01*
X123919775Y-50704470D01*
X123862864Y-50909681D01*
X123860933Y-50919800D01*
X123838302Y-51131574D01*
X123838050Y-51141863D01*
X114948686Y-51141863D01*
X119355144Y-46735405D01*
X119417456Y-46701379D01*
X119444239Y-46698500D01*
X123908954Y-46698500D01*
X123977075Y-46718502D01*
X124016387Y-46758665D01*
X124099987Y-46895088D01*
X124246250Y-47063938D01*
X124418126Y-47206632D01*
X124450153Y-47225347D01*
X124491445Y-47249476D01*
X124540169Y-47301114D01*
X124553240Y-47370897D01*
X124526509Y-47436669D01*
X124486055Y-47470027D01*
X124473607Y-47476507D01*
X124469474Y-47479610D01*
X124469471Y-47479612D01*
X124299100Y-47607530D01*
X124294965Y-47610635D01*
X124291393Y-47614373D01*
X124149229Y-47763139D01*
X124140629Y-47772138D01*
X124137715Y-47776410D01*
X124137714Y-47776411D01*
X124125404Y-47794457D01*
X124014743Y-47956680D01*
X123984908Y-48020955D01*
X123951629Y-48092649D01*
X123920688Y-48159305D01*
X123860989Y-48374570D01*
X123837251Y-48596695D01*
X123837548Y-48601848D01*
X123837548Y-48601851D01*
X123843011Y-48696590D01*
X123850110Y-48819715D01*
X123851247Y-48824761D01*
X123851248Y-48824767D01*
X123861093Y-48868450D01*
X123899222Y-49037639D01*
X123983266Y-49244616D01*
X124000808Y-49273242D01*
X124088965Y-49417101D01*
X124099987Y-49435088D01*
X124246250Y-49603938D01*
X124418126Y-49746632D01*
X124491955Y-49789774D01*
X124540679Y-49841412D01*
X124553750Y-49911195D01*
X124527019Y-49976967D01*
X124486562Y-50010327D01*
X124478460Y-50014544D01*
X124469734Y-50020039D01*
X124449677Y-50035099D01*
X124441223Y-50046427D01*
X124447968Y-50058758D01*
X125187188Y-50797978D01*
X125201132Y-50805592D01*
X125202965Y-50805461D01*
X125209580Y-50801210D01*
X125953389Y-50057401D01*
X125960410Y-50044544D01*
X125953611Y-50035213D01*
X125949559Y-50032521D01*
X125912602Y-50012120D01*
X125862631Y-49961687D01*
X125847859Y-49892245D01*
X125872975Y-49825839D01*
X125900327Y-49799232D01*
X125923797Y-49782491D01*
X126079860Y-49671173D01*
X126238096Y-49513489D01*
X126249539Y-49497565D01*
X126365435Y-49336277D01*
X126368453Y-49332077D01*
X126397532Y-49273241D01*
X126465136Y-49136453D01*
X126465137Y-49136451D01*
X126467430Y-49131811D01*
X126513735Y-48979403D01*
X126530865Y-48923023D01*
X126530865Y-48923021D01*
X126532370Y-48918069D01*
X126561529Y-48696590D01*
X126562271Y-48666221D01*
X126563074Y-48633365D01*
X126563074Y-48633361D01*
X126563156Y-48630000D01*
X126544852Y-48407361D01*
X126490431Y-48190702D01*
X126401354Y-47985840D01*
X126313597Y-47850188D01*
X126282822Y-47802617D01*
X126282820Y-47802614D01*
X126280014Y-47798277D01*
X126129670Y-47633051D01*
X126125619Y-47629852D01*
X126125615Y-47629848D01*
X125958414Y-47497800D01*
X125958410Y-47497798D01*
X125954359Y-47494598D01*
X125913053Y-47471796D01*
X125863084Y-47421364D01*
X125848312Y-47351921D01*
X125873428Y-47285516D01*
X125900780Y-47258909D01*
X125958884Y-47217464D01*
X126079860Y-47131173D01*
X126238096Y-46973489D01*
X126264836Y-46936277D01*
X126365435Y-46796277D01*
X126368453Y-46792077D01*
X126392813Y-46742789D01*
X126465136Y-46596453D01*
X126465137Y-46596451D01*
X126467430Y-46591811D01*
X126532370Y-46378069D01*
X126561529Y-46156590D01*
X126562459Y-46118525D01*
X126563074Y-46093365D01*
X126563074Y-46093361D01*
X126563156Y-46090000D01*
X126544852Y-45867361D01*
X126490431Y-45650702D01*
X126401354Y-45445840D01*
X126334764Y-45342907D01*
X126282822Y-45262617D01*
X126282820Y-45262614D01*
X126280014Y-45258277D01*
X126129670Y-45093051D01*
X126125619Y-45089852D01*
X126125615Y-45089848D01*
X125958414Y-44957800D01*
X125958410Y-44957798D01*
X125954359Y-44954598D01*
X125913053Y-44931796D01*
X125863084Y-44881364D01*
X125848312Y-44811921D01*
X125873428Y-44745516D01*
X125900780Y-44718909D01*
X125953889Y-44681027D01*
X126079860Y-44591173D01*
X126094907Y-44576179D01*
X126183225Y-44488169D01*
X126238096Y-44433489D01*
X126264836Y-44396277D01*
X126365435Y-44256277D01*
X126368453Y-44252077D01*
X126372199Y-44244499D01*
X126465136Y-44056453D01*
X126465137Y-44056451D01*
X126467430Y-44051811D01*
X126521287Y-43874547D01*
X126530865Y-43843023D01*
X126530865Y-43843021D01*
X126532370Y-43838069D01*
X126561529Y-43616590D01*
X126563156Y-43550000D01*
X126544852Y-43327361D01*
X126490431Y-43110702D01*
X126401354Y-42905840D01*
X126333439Y-42800859D01*
X126282822Y-42722617D01*
X126282820Y-42722614D01*
X126280014Y-42718277D01*
X126129670Y-42553051D01*
X126125619Y-42549852D01*
X126125615Y-42549848D01*
X125958414Y-42417800D01*
X125958410Y-42417798D01*
X125954359Y-42414598D01*
X125758789Y-42306638D01*
X125753920Y-42304914D01*
X125753916Y-42304912D01*
X125553087Y-42233795D01*
X125553083Y-42233794D01*
X125548212Y-42232069D01*
X125543119Y-42231162D01*
X125543116Y-42231161D01*
X125333373Y-42193800D01*
X125333367Y-42193799D01*
X125328284Y-42192894D01*
X125254452Y-42191992D01*
X125110081Y-42190228D01*
X125110079Y-42190228D01*
X125104911Y-42190165D01*
X124884091Y-42223955D01*
X124671756Y-42293357D01*
X124641443Y-42309137D01*
X124551265Y-42356081D01*
X124473607Y-42396507D01*
X124469474Y-42399610D01*
X124469471Y-42399612D01*
X124299100Y-42527530D01*
X124294965Y-42530635D01*
X124291393Y-42534373D01*
X124158835Y-42673087D01*
X124140629Y-42692138D01*
X124137715Y-42696410D01*
X124137714Y-42696411D01*
X124135560Y-42699569D01*
X124014743Y-42876680D01*
X123920688Y-43079305D01*
X123860989Y-43294570D01*
X123837251Y-43516695D01*
X123837548Y-43521848D01*
X123837548Y-43521851D01*
X123847806Y-43699757D01*
X123850110Y-43739715D01*
X123851247Y-43744761D01*
X123851248Y-43744767D01*
X123865844Y-43809533D01*
X123899222Y-43957639D01*
X123983266Y-44164616D01*
X124030395Y-44241524D01*
X124094113Y-44345502D01*
X124099987Y-44355088D01*
X124246250Y-44523938D01*
X124418126Y-44666632D01*
X124459529Y-44690826D01*
X124491445Y-44709476D01*
X124540169Y-44761114D01*
X124553240Y-44830897D01*
X124526509Y-44896669D01*
X124486055Y-44930027D01*
X124473607Y-44936507D01*
X124469474Y-44939610D01*
X124469471Y-44939612D01*
X124299100Y-45067530D01*
X124294965Y-45070635D01*
X124140629Y-45232138D01*
X124137715Y-45236410D01*
X124137714Y-45236411D01*
X124122798Y-45258277D01*
X124014743Y-45416680D01*
X124013945Y-45418400D01*
X123963589Y-45467088D01*
X123905074Y-45481500D01*
X119188136Y-45481500D01*
X119171693Y-45480422D01*
X119140000Y-45476250D01*
X119131811Y-45477328D01*
X119100126Y-45481499D01*
X119100117Y-45481500D01*
X119100115Y-45481500D01*
X119100109Y-45481501D01*
X119100107Y-45481501D01*
X119001104Y-45494535D01*
X118989337Y-45496084D01*
X118989336Y-45496084D01*
X118981149Y-45497162D01*
X118833124Y-45558476D01*
X118812244Y-45574498D01*
X118737937Y-45631515D01*
X118737921Y-45631529D01*
X118712566Y-45650984D01*
X118712563Y-45650987D01*
X118706013Y-45656013D01*
X118700983Y-45662568D01*
X118686548Y-45681379D01*
X118675681Y-45693770D01*
X110671132Y-53698319D01*
X110608820Y-53732345D01*
X110549426Y-53730931D01*
X110463402Y-53707881D01*
X110463400Y-53707881D01*
X110458087Y-53706457D01*
X110230000Y-53686502D01*
X110001913Y-53706457D01*
X109996600Y-53707881D01*
X109996598Y-53707881D01*
X109786067Y-53764293D01*
X109786065Y-53764294D01*
X109780757Y-53765716D01*
X109775776Y-53768039D01*
X109775775Y-53768039D01*
X109578238Y-53860151D01*
X109578233Y-53860154D01*
X109573251Y-53862477D01*
X109500754Y-53913240D01*
X109390211Y-53990643D01*
X109390208Y-53990645D01*
X109385700Y-53993802D01*
X109223802Y-54155700D01*
X109220645Y-54160208D01*
X109220643Y-54160211D01*
X109169951Y-54232607D01*
X109092477Y-54343251D01*
X109090154Y-54348233D01*
X109090151Y-54348238D01*
X109074195Y-54382457D01*
X109027278Y-54435742D01*
X108959001Y-54455203D01*
X108891041Y-54434661D01*
X108845805Y-54382457D01*
X108829849Y-54348238D01*
X108829846Y-54348233D01*
X108827523Y-54343251D01*
X108750049Y-54232607D01*
X108699357Y-54160211D01*
X108699355Y-54160208D01*
X108696198Y-54155700D01*
X108534300Y-53993802D01*
X108529792Y-53990645D01*
X108529789Y-53990643D01*
X108419246Y-53913240D01*
X108346749Y-53862477D01*
X108341767Y-53860154D01*
X108341762Y-53860151D01*
X108144225Y-53768039D01*
X108144224Y-53768039D01*
X108139243Y-53765716D01*
X108133935Y-53764294D01*
X108133933Y-53764293D01*
X107923402Y-53707881D01*
X107923400Y-53707881D01*
X107918087Y-53706457D01*
X107690000Y-53686502D01*
X107461913Y-53706457D01*
X107456600Y-53707881D01*
X107456598Y-53707881D01*
X107246067Y-53764293D01*
X107246065Y-53764294D01*
X107240757Y-53765716D01*
X107235776Y-53768039D01*
X107235775Y-53768039D01*
X107038238Y-53860151D01*
X107038233Y-53860154D01*
X107033251Y-53862477D01*
X106960754Y-53913240D01*
X106850211Y-53990643D01*
X106850208Y-53990645D01*
X106845700Y-53993802D01*
X106683802Y-54155700D01*
X106680645Y-54160208D01*
X106680643Y-54160211D01*
X106629951Y-54232607D01*
X106552477Y-54343251D01*
X106550154Y-54348233D01*
X106550151Y-54348238D01*
X106534195Y-54382457D01*
X106487278Y-54435742D01*
X106419001Y-54455203D01*
X106351041Y-54434661D01*
X106305805Y-54382457D01*
X106289849Y-54348238D01*
X106289846Y-54348233D01*
X106287523Y-54343251D01*
X106210049Y-54232607D01*
X106159357Y-54160211D01*
X106159355Y-54160208D01*
X106156198Y-54155700D01*
X105994300Y-53993802D01*
X105989792Y-53990645D01*
X105989789Y-53990643D01*
X105879246Y-53913240D01*
X105806749Y-53862477D01*
X105801767Y-53860154D01*
X105801762Y-53860151D01*
X105604225Y-53768039D01*
X105604224Y-53768039D01*
X105599243Y-53765716D01*
X105593935Y-53764294D01*
X105593933Y-53764293D01*
X105383402Y-53707881D01*
X105383400Y-53707881D01*
X105378087Y-53706457D01*
X105150000Y-53686502D01*
X104921913Y-53706457D01*
X104916600Y-53707881D01*
X104916598Y-53707881D01*
X104706067Y-53764293D01*
X104706065Y-53764294D01*
X104700757Y-53765716D01*
X104695776Y-53768039D01*
X104695775Y-53768039D01*
X104498238Y-53860151D01*
X104498233Y-53860154D01*
X104493251Y-53862477D01*
X104420754Y-53913240D01*
X104310211Y-53990643D01*
X104310208Y-53990645D01*
X104305700Y-53993802D01*
X104143802Y-54155700D01*
X104140645Y-54160208D01*
X104140643Y-54160211D01*
X104089951Y-54232607D01*
X104012477Y-54343251D01*
X104010154Y-54348233D01*
X104010151Y-54348238D01*
X103994195Y-54382457D01*
X103947278Y-54435742D01*
X103879001Y-54455203D01*
X103811041Y-54434661D01*
X103765805Y-54382457D01*
X103749849Y-54348238D01*
X103749846Y-54348233D01*
X103747523Y-54343251D01*
X103670049Y-54232607D01*
X103619357Y-54160211D01*
X103619355Y-54160208D01*
X103616198Y-54155700D01*
X103454300Y-53993802D01*
X103449792Y-53990645D01*
X103449789Y-53990643D01*
X103339246Y-53913240D01*
X103266749Y-53862477D01*
X103261767Y-53860154D01*
X103261762Y-53860151D01*
X103064225Y-53768039D01*
X103064224Y-53768039D01*
X103059243Y-53765716D01*
X103053935Y-53764294D01*
X103053933Y-53764293D01*
X102843402Y-53707881D01*
X102843400Y-53707881D01*
X102838087Y-53706457D01*
X102610000Y-53686502D01*
X102381913Y-53706457D01*
X102376600Y-53707881D01*
X102376598Y-53707881D01*
X102290574Y-53730931D01*
X102219597Y-53729241D01*
X102168868Y-53698319D01*
X99384315Y-50913766D01*
X99373448Y-50901375D01*
X99359013Y-50882563D01*
X99353987Y-50876013D01*
X99322075Y-50851526D01*
X99322072Y-50851523D01*
X99262214Y-50805592D01*
X99233429Y-50783504D01*
X99233427Y-50783503D01*
X99226876Y-50778476D01*
X99078851Y-50717162D01*
X99070664Y-50716084D01*
X99070663Y-50716084D01*
X99059458Y-50714609D01*
X99028262Y-50710502D01*
X98959885Y-50701500D01*
X98959882Y-50701500D01*
X98959874Y-50701499D01*
X98928189Y-50697328D01*
X98920000Y-50696250D01*
X98888307Y-50700422D01*
X98871864Y-50701500D01*
X75292978Y-50701500D01*
X75224857Y-50681498D01*
X75187186Y-50643940D01*
X75182490Y-50636680D01*
X75095111Y-50501613D01*
X75082822Y-50482617D01*
X75082820Y-50482614D01*
X75080014Y-50478277D01*
X74929670Y-50313051D01*
X74925619Y-50309852D01*
X74925615Y-50309848D01*
X74758414Y-50177800D01*
X74758410Y-50177798D01*
X74754359Y-50174598D01*
X74712569Y-50151529D01*
X74662598Y-50101097D01*
X74647826Y-50031654D01*
X74672942Y-49965248D01*
X74700294Y-49938641D01*
X74875328Y-49813792D01*
X74883200Y-49807139D01*
X75034052Y-49656812D01*
X75040730Y-49648965D01*
X75165003Y-49476020D01*
X75170313Y-49467183D01*
X75264670Y-49276267D01*
X75268469Y-49266672D01*
X75330377Y-49062910D01*
X75332555Y-49052837D01*
X75333986Y-49041962D01*
X75331775Y-49027778D01*
X75318617Y-49024000D01*
X72683225Y-49024000D01*
X72669694Y-49027973D01*
X72668257Y-49037966D01*
X72698565Y-49172446D01*
X72701645Y-49182275D01*
X72781770Y-49379603D01*
X72786413Y-49388794D01*
X72897694Y-49570388D01*
X72903777Y-49578699D01*
X73043213Y-49739667D01*
X73050580Y-49746883D01*
X73214434Y-49882916D01*
X73222881Y-49888831D01*
X73291969Y-49929203D01*
X73340693Y-49980842D01*
X73353764Y-50050625D01*
X73327033Y-50116396D01*
X73286584Y-50149752D01*
X73273607Y-50156507D01*
X73269474Y-50159610D01*
X73269471Y-50159612D01*
X73099100Y-50287530D01*
X73094965Y-50290635D01*
X73091393Y-50294373D01*
X72969065Y-50422382D01*
X72940629Y-50452138D01*
X72814743Y-50636680D01*
X72799003Y-50670590D01*
X72750391Y-50775316D01*
X72720688Y-50839305D01*
X72660989Y-51054570D01*
X72637251Y-51276695D01*
X72637548Y-51281848D01*
X72637548Y-51281851D01*
X72643011Y-51376590D01*
X72650110Y-51499715D01*
X72651247Y-51504761D01*
X72651248Y-51504767D01*
X72668716Y-51582275D01*
X72699222Y-51717639D01*
X72737461Y-51811811D01*
X72780783Y-51918500D01*
X72783266Y-51924616D01*
X72899987Y-52115088D01*
X73046250Y-52283938D01*
X73218126Y-52426632D01*
X73241330Y-52440191D01*
X73291445Y-52469476D01*
X73340169Y-52521114D01*
X73353240Y-52590897D01*
X73326509Y-52656669D01*
X73286055Y-52690027D01*
X73273607Y-52696507D01*
X73269474Y-52699610D01*
X73269471Y-52699612D01*
X73168110Y-52775716D01*
X73094965Y-52830635D01*
X73091393Y-52834373D01*
X72951644Y-52980612D01*
X72940629Y-52992138D01*
X72814743Y-53176680D01*
X72799825Y-53208818D01*
X72730652Y-53357840D01*
X72720688Y-53379305D01*
X72660989Y-53594570D01*
X72637251Y-53816695D01*
X72008500Y-53816695D01*
X72008500Y-49700119D01*
X72029551Y-49630393D01*
X72082471Y-49550743D01*
X72143218Y-49390826D01*
X72148601Y-49352527D01*
X72166475Y-49225347D01*
X72166475Y-49225344D01*
X72167026Y-49221425D01*
X72167325Y-49200000D01*
X72148256Y-49030000D01*
X72140115Y-49006620D01*
X72099307Y-48889435D01*
X72095795Y-48818525D01*
X72100511Y-48803255D01*
X72140717Y-48697412D01*
X72140719Y-48697406D01*
X72143218Y-48690826D01*
X72155723Y-48601851D01*
X72166475Y-48525347D01*
X72166475Y-48525344D01*
X72167026Y-48521425D01*
X72167325Y-48500000D01*
X72148256Y-48330000D01*
X72135993Y-48294783D01*
X72094314Y-48175097D01*
X72094313Y-48175095D01*
X72091999Y-48168450D01*
X72068482Y-48130814D01*
X72005081Y-48029352D01*
X72001348Y-48023378D01*
X71988159Y-48010096D01*
X71916924Y-47938362D01*
X71883117Y-47875931D01*
X71888429Y-47805133D01*
X71919438Y-47758332D01*
X71933178Y-47745248D01*
X71987805Y-47693227D01*
X72025249Y-47636870D01*
X72042679Y-47610635D01*
X72082471Y-47550743D01*
X72143218Y-47390826D01*
X72147616Y-47359536D01*
X72166475Y-47225347D01*
X72166475Y-47225344D01*
X72167026Y-47221425D01*
X72167224Y-47207240D01*
X72167270Y-47203962D01*
X72167270Y-47203957D01*
X72167325Y-47200000D01*
X72148256Y-47030000D01*
X72129848Y-46977137D01*
X72099307Y-46889435D01*
X72095795Y-46818525D01*
X72100511Y-46803255D01*
X72140717Y-46697412D01*
X72140719Y-46697406D01*
X72143218Y-46690826D01*
X72149837Y-46643730D01*
X72166475Y-46525347D01*
X72166475Y-46525344D01*
X72167026Y-46521425D01*
X72167325Y-46500000D01*
X72148256Y-46330000D01*
X72103631Y-46201851D01*
X72101835Y-46196695D01*
X72637251Y-46196695D01*
X72637548Y-46201848D01*
X72637548Y-46201851D01*
X72643011Y-46296590D01*
X72650110Y-46419715D01*
X72651247Y-46424761D01*
X72651248Y-46424767D01*
X72665789Y-46489286D01*
X72699222Y-46637639D01*
X72739346Y-46736453D01*
X72772672Y-46818525D01*
X72783266Y-46844616D01*
X72798508Y-46869489D01*
X72897288Y-47030683D01*
X72899987Y-47035088D01*
X73046250Y-47203938D01*
X73218126Y-47346632D01*
X73240209Y-47359536D01*
X73291955Y-47389774D01*
X73340679Y-47441412D01*
X73353750Y-47511195D01*
X73327019Y-47576967D01*
X73286562Y-47610327D01*
X73278457Y-47614546D01*
X73269738Y-47620036D01*
X73099433Y-47747905D01*
X73091726Y-47754748D01*
X72944590Y-47908717D01*
X72938104Y-47916727D01*
X72818098Y-48092649D01*
X72813000Y-48101623D01*
X72723338Y-48294783D01*
X72719775Y-48304470D01*
X72664389Y-48504183D01*
X72665912Y-48512607D01*
X72678292Y-48516000D01*
X75318344Y-48516000D01*
X75331875Y-48512027D01*
X75333180Y-48502947D01*
X75291214Y-48335875D01*
X75287894Y-48326124D01*
X75202972Y-48130814D01*
X75198105Y-48121739D01*
X75082426Y-47942926D01*
X75076136Y-47934757D01*
X74932806Y-47777240D01*
X74925273Y-47770215D01*
X74758139Y-47638222D01*
X74749556Y-47632520D01*
X74712602Y-47612120D01*
X74662631Y-47561687D01*
X74647859Y-47492245D01*
X74672975Y-47425839D01*
X74700327Y-47399232D01*
X74766655Y-47351921D01*
X74879860Y-47271173D01*
X74925847Y-47225347D01*
X74969052Y-47182292D01*
X75038096Y-47113489D01*
X75097594Y-47030689D01*
X75165435Y-46936277D01*
X75168453Y-46932077D01*
X75171622Y-46925666D01*
X75265136Y-46736453D01*
X75265137Y-46736451D01*
X75267430Y-46731811D01*
X75332370Y-46518069D01*
X75361529Y-46296590D01*
X75363156Y-46230000D01*
X75344852Y-46007361D01*
X75290431Y-45790702D01*
X75201354Y-45585840D01*
X75133854Y-45481501D01*
X75082822Y-45402617D01*
X75082820Y-45402614D01*
X75080014Y-45398277D01*
X75076538Y-45394457D01*
X75076533Y-45394450D01*
X75008151Y-45319299D01*
X74977099Y-45255453D01*
X74985495Y-45184955D01*
X75030672Y-45130187D01*
X75101345Y-45108500D01*
X102449712Y-45108500D01*
X102518705Y-45129068D01*
X102604030Y-45184903D01*
X102610634Y-45187359D01*
X102610636Y-45187360D01*
X102757757Y-45242074D01*
X102757759Y-45242074D01*
X102764367Y-45244532D01*
X102838750Y-45254457D01*
X102926949Y-45266226D01*
X102926953Y-45266226D01*
X102933930Y-45267157D01*
X102940941Y-45266519D01*
X102940945Y-45266519D01*
X103097273Y-45252292D01*
X103097275Y-45252292D01*
X103104292Y-45251653D01*
X103110990Y-45249477D01*
X103110993Y-45249476D01*
X103260289Y-45200966D01*
X103260291Y-45200965D01*
X103266985Y-45198790D01*
X103413924Y-45111197D01*
X103537805Y-44993227D01*
X103632471Y-44850743D01*
X103679276Y-44727529D01*
X103690718Y-44697408D01*
X103690719Y-44697406D01*
X103693218Y-44690826D01*
X103694595Y-44681027D01*
X103716475Y-44525347D01*
X103716475Y-44525344D01*
X103717026Y-44521425D01*
X103717325Y-44500000D01*
X103698256Y-44330000D01*
X103692847Y-44314466D01*
X103687091Y-44297935D01*
X103683579Y-44227026D01*
X103718961Y-44165474D01*
X103782004Y-44132822D01*
X103806083Y-44130500D01*
X106035972Y-44130500D01*
X106104964Y-44151067D01*
X106149030Y-44179903D01*
X106155634Y-44182359D01*
X106155636Y-44182360D01*
X106302757Y-44237074D01*
X106302759Y-44237074D01*
X106309367Y-44239532D01*
X106388454Y-44250085D01*
X106471949Y-44261226D01*
X106471953Y-44261226D01*
X106478930Y-44262157D01*
X106485941Y-44261519D01*
X106485945Y-44261519D01*
X106642273Y-44247292D01*
X106642275Y-44247292D01*
X106649292Y-44246653D01*
X106655990Y-44244477D01*
X106655993Y-44244476D01*
X106805289Y-44195966D01*
X106805291Y-44195965D01*
X106811985Y-44193790D01*
X106883654Y-44151067D01*
X106952872Y-44109805D01*
X106952874Y-44109804D01*
X106958924Y-44106197D01*
X107082805Y-43988227D01*
X107092963Y-43972939D01*
X107147283Y-43891179D01*
X107177471Y-43845743D01*
X107219711Y-43734547D01*
X107235718Y-43692408D01*
X107235719Y-43692406D01*
X107238218Y-43685826D01*
X107248313Y-43613997D01*
X107261475Y-43520347D01*
X107261475Y-43520344D01*
X107262026Y-43516425D01*
X107262325Y-43495000D01*
X107243256Y-43325000D01*
X107237273Y-43307817D01*
X107189314Y-43170097D01*
X107189313Y-43170095D01*
X107186999Y-43163450D01*
X107096348Y-43018378D01*
X106975809Y-42896994D01*
X106908770Y-42854450D01*
X106837316Y-42809104D01*
X106837313Y-42809102D01*
X106831373Y-42805333D01*
X106824740Y-42802971D01*
X106676854Y-42750311D01*
X106676849Y-42750310D01*
X106670219Y-42747949D01*
X106663231Y-42747116D01*
X106663228Y-42747115D01*
X106547655Y-42733334D01*
X106500357Y-42727694D01*
X106493354Y-42728430D01*
X106493353Y-42728430D01*
X106448958Y-42733096D01*
X106330228Y-42745575D01*
X106320267Y-42748966D01*
X106174953Y-42798435D01*
X106174950Y-42798436D01*
X106168289Y-42800704D01*
X106103085Y-42840818D01*
X106037065Y-42859500D01*
X82710422Y-42859500D01*
X82642301Y-42839498D01*
X82621327Y-42822595D01*
X81595619Y-41796886D01*
X80555250Y-40756517D01*
X80547674Y-40748191D01*
X80543553Y-40741697D01*
X80493734Y-40694914D01*
X80490893Y-40692160D01*
X80471094Y-40672361D01*
X80467969Y-40669937D01*
X80467960Y-40669929D01*
X80467874Y-40669863D01*
X80458849Y-40662155D01*
X80432285Y-40637210D01*
X80426506Y-40631783D01*
X80418980Y-40627645D01*
X80408671Y-40621978D01*
X80392153Y-40611127D01*
X80376067Y-40598650D01*
X80335334Y-40581024D01*
X80324686Y-40575807D01*
X80305259Y-40565127D01*
X80285803Y-40554431D01*
X80278128Y-40552460D01*
X80278122Y-40552458D01*
X80266089Y-40549369D01*
X80247387Y-40542966D01*
X80228708Y-40534883D01*
X80194872Y-40529524D01*
X80184873Y-40527940D01*
X80173260Y-40525535D01*
X80130282Y-40514500D01*
X80109935Y-40514500D01*
X80090224Y-40512949D01*
X80077950Y-40511005D01*
X80070121Y-40509765D01*
X80062229Y-40510511D01*
X80025944Y-40513941D01*
X80014086Y-40514500D01*
X75484500Y-40514500D01*
X75416379Y-40494498D01*
X75369886Y-40440842D01*
X75363177Y-40410000D01*
X84686526Y-40410000D01*
X84706391Y-40662403D01*
X84707545Y-40667210D01*
X84707546Y-40667216D01*
X84730282Y-40761916D01*
X84765495Y-40908591D01*
X84767388Y-40913162D01*
X84767389Y-40913164D01*
X84833802Y-41073498D01*
X84862384Y-41142502D01*
X84994672Y-41358376D01*
X85159102Y-41550898D01*
X85351624Y-41715328D01*
X85567498Y-41847616D01*
X85572068Y-41849509D01*
X85572072Y-41849511D01*
X85796836Y-41942611D01*
X85801409Y-41944505D01*
X85886032Y-41964821D01*
X86042784Y-42002454D01*
X86042790Y-42002455D01*
X86047597Y-42003609D01*
X86300000Y-42023474D01*
X86552403Y-42003609D01*
X86557210Y-42002455D01*
X86557216Y-42002454D01*
X86713968Y-41964821D01*
X86798591Y-41944505D01*
X86803164Y-41942611D01*
X87027928Y-41849511D01*
X87027932Y-41849509D01*
X87032502Y-41847616D01*
X87248376Y-41715328D01*
X87440898Y-41550898D01*
X87605328Y-41358376D01*
X87737616Y-41142502D01*
X87766199Y-41073498D01*
X87832611Y-40913164D01*
X87832612Y-40913162D01*
X87834505Y-40908591D01*
X87869718Y-40761916D01*
X87892454Y-40667216D01*
X87892455Y-40667210D01*
X87893609Y-40662403D01*
X87913474Y-40410000D01*
X87893609Y-40157597D01*
X87891119Y-40147223D01*
X87835660Y-39916221D01*
X87834505Y-39911409D01*
X87832611Y-39906836D01*
X87771790Y-39760000D01*
X91136502Y-39760000D01*
X91156457Y-39988087D01*
X91157881Y-39993400D01*
X91157881Y-39993402D01*
X91213974Y-40202740D01*
X91215716Y-40209243D01*
X91218039Y-40214224D01*
X91218039Y-40214225D01*
X91310151Y-40411762D01*
X91310154Y-40411767D01*
X91312477Y-40416749D01*
X91380923Y-40514500D01*
X91439846Y-40598650D01*
X91443802Y-40604300D01*
X91605700Y-40766198D01*
X91610208Y-40769355D01*
X91610211Y-40769357D01*
X91631746Y-40784436D01*
X91793251Y-40897523D01*
X91798233Y-40899846D01*
X91798238Y-40899849D01*
X91949979Y-40970606D01*
X92000757Y-40994284D01*
X92006065Y-40995706D01*
X92006067Y-40995707D01*
X92216598Y-41052119D01*
X92216600Y-41052119D01*
X92221913Y-41053543D01*
X92450000Y-41073498D01*
X92678087Y-41053543D01*
X92683400Y-41052119D01*
X92683402Y-41052119D01*
X92893933Y-40995707D01*
X92893935Y-40995706D01*
X92899243Y-40994284D01*
X92950021Y-40970606D01*
X93101762Y-40899849D01*
X93101767Y-40899846D01*
X93106749Y-40897523D01*
X93268254Y-40784436D01*
X93289789Y-40769357D01*
X93289792Y-40769355D01*
X93294300Y-40766198D01*
X93456198Y-40604300D01*
X93460155Y-40598650D01*
X93519077Y-40514500D01*
X93587523Y-40416749D01*
X93589846Y-40411767D01*
X93589849Y-40411762D01*
X93606081Y-40376951D01*
X93652998Y-40323666D01*
X93721275Y-40304205D01*
X93789235Y-40324747D01*
X93834471Y-40376951D01*
X93850586Y-40411511D01*
X93856069Y-40421007D01*
X93981028Y-40599467D01*
X93988084Y-40607875D01*
X94142125Y-40761916D01*
X94150533Y-40768972D01*
X94328993Y-40893931D01*
X94338489Y-40899414D01*
X94535947Y-40991490D01*
X94546239Y-40995236D01*
X94718503Y-41041394D01*
X94732599Y-41041058D01*
X94736000Y-41033116D01*
X94736000Y-41027967D01*
X95244000Y-41027967D01*
X95247973Y-41041498D01*
X95256522Y-41042727D01*
X95433761Y-40995236D01*
X95444053Y-40991490D01*
X95641511Y-40899414D01*
X95651007Y-40893931D01*
X95829467Y-40768972D01*
X95837875Y-40761916D01*
X95991916Y-40607875D01*
X95998972Y-40599467D01*
X96123931Y-40421007D01*
X96129414Y-40411511D01*
X96145529Y-40376951D01*
X96192446Y-40323666D01*
X96260723Y-40304205D01*
X96328683Y-40324747D01*
X96373919Y-40376951D01*
X96390151Y-40411762D01*
X96390154Y-40411767D01*
X96392477Y-40416749D01*
X96460923Y-40514500D01*
X96519846Y-40598650D01*
X96523802Y-40604300D01*
X96685700Y-40766198D01*
X96690208Y-40769355D01*
X96690211Y-40769357D01*
X96711746Y-40784436D01*
X96873251Y-40897523D01*
X96878233Y-40899846D01*
X96878238Y-40899849D01*
X97029979Y-40970606D01*
X97080757Y-40994284D01*
X97086065Y-40995706D01*
X97086067Y-40995707D01*
X97296598Y-41052119D01*
X97296600Y-41052119D01*
X97301913Y-41053543D01*
X97530000Y-41073498D01*
X97758087Y-41053543D01*
X97763400Y-41052119D01*
X97763402Y-41052119D01*
X97973933Y-40995707D01*
X97973935Y-40995706D01*
X97979243Y-40994284D01*
X98030021Y-40970606D01*
X98181762Y-40899849D01*
X98181767Y-40899846D01*
X98186749Y-40897523D01*
X98348254Y-40784436D01*
X98369789Y-40769357D01*
X98369792Y-40769355D01*
X98374300Y-40766198D01*
X98536198Y-40604300D01*
X98540155Y-40598650D01*
X98599077Y-40514500D01*
X98667523Y-40416749D01*
X98669846Y-40411767D01*
X98669849Y-40411762D01*
X98685805Y-40377543D01*
X98732722Y-40324258D01*
X98800999Y-40304797D01*
X98868959Y-40325339D01*
X98914195Y-40377543D01*
X98930151Y-40411762D01*
X98930154Y-40411767D01*
X98932477Y-40416749D01*
X99000923Y-40514500D01*
X99059846Y-40598650D01*
X99063802Y-40604300D01*
X99225700Y-40766198D01*
X99230208Y-40769355D01*
X99230211Y-40769357D01*
X99251746Y-40784436D01*
X99413251Y-40897523D01*
X99418233Y-40899846D01*
X99418238Y-40899849D01*
X99569979Y-40970606D01*
X99620757Y-40994284D01*
X99626065Y-40995706D01*
X99626067Y-40995707D01*
X99836598Y-41052119D01*
X99836600Y-41052119D01*
X99841913Y-41053543D01*
X100070000Y-41073498D01*
X100298087Y-41053543D01*
X100303400Y-41052119D01*
X100303402Y-41052119D01*
X100513933Y-40995707D01*
X100513935Y-40995706D01*
X100519243Y-40994284D01*
X100570021Y-40970606D01*
X100721762Y-40899849D01*
X100721767Y-40899846D01*
X100726749Y-40897523D01*
X100888254Y-40784436D01*
X100909789Y-40769357D01*
X100909792Y-40769355D01*
X100914300Y-40766198D01*
X101076198Y-40604300D01*
X101080155Y-40598650D01*
X101139077Y-40514500D01*
X101207523Y-40416749D01*
X101209846Y-40411767D01*
X101209849Y-40411762D01*
X101225805Y-40377543D01*
X101272722Y-40324258D01*
X101340999Y-40304797D01*
X101408959Y-40325339D01*
X101454195Y-40377543D01*
X101470151Y-40411762D01*
X101470154Y-40411767D01*
X101472477Y-40416749D01*
X101540923Y-40514500D01*
X101599846Y-40598650D01*
X101603802Y-40604300D01*
X101765700Y-40766198D01*
X101770208Y-40769355D01*
X101770211Y-40769357D01*
X101791746Y-40784436D01*
X101953251Y-40897523D01*
X101958233Y-40899846D01*
X101958238Y-40899849D01*
X102109979Y-40970606D01*
X102160757Y-40994284D01*
X102166065Y-40995706D01*
X102166067Y-40995707D01*
X102376598Y-41052119D01*
X102376600Y-41052119D01*
X102381913Y-41053543D01*
X102610000Y-41073498D01*
X102838087Y-41053543D01*
X102843400Y-41052119D01*
X102843402Y-41052119D01*
X103053933Y-40995707D01*
X103053935Y-40995706D01*
X103059243Y-40994284D01*
X103110021Y-40970606D01*
X103261762Y-40899849D01*
X103261767Y-40899846D01*
X103266749Y-40897523D01*
X103428254Y-40784436D01*
X103449789Y-40769357D01*
X103449792Y-40769355D01*
X103454300Y-40766198D01*
X103616198Y-40604300D01*
X103620155Y-40598650D01*
X103679077Y-40514500D01*
X103747523Y-40416749D01*
X103749846Y-40411767D01*
X103749849Y-40411762D01*
X103765805Y-40377543D01*
X103812722Y-40324258D01*
X103880999Y-40304797D01*
X103948959Y-40325339D01*
X103994195Y-40377543D01*
X104010151Y-40411762D01*
X104010154Y-40411767D01*
X104012477Y-40416749D01*
X104080923Y-40514500D01*
X104139846Y-40598650D01*
X104143802Y-40604300D01*
X104305700Y-40766198D01*
X104310208Y-40769355D01*
X104310211Y-40769357D01*
X104331746Y-40784436D01*
X104493251Y-40897523D01*
X104498233Y-40899846D01*
X104498238Y-40899849D01*
X104649979Y-40970606D01*
X104700757Y-40994284D01*
X104706065Y-40995706D01*
X104706067Y-40995707D01*
X104916598Y-41052119D01*
X104916600Y-41052119D01*
X104921913Y-41053543D01*
X105150000Y-41073498D01*
X105378087Y-41053543D01*
X105383400Y-41052119D01*
X105383402Y-41052119D01*
X105593933Y-40995707D01*
X105593935Y-40995706D01*
X105599243Y-40994284D01*
X105650021Y-40970606D01*
X105801762Y-40899849D01*
X105801767Y-40899846D01*
X105806749Y-40897523D01*
X105968254Y-40784436D01*
X105989789Y-40769357D01*
X105989792Y-40769355D01*
X105994300Y-40766198D01*
X106156198Y-40604300D01*
X106160155Y-40598650D01*
X106219077Y-40514500D01*
X106287523Y-40416749D01*
X106289846Y-40411767D01*
X106289849Y-40411762D01*
X106305805Y-40377543D01*
X106352722Y-40324258D01*
X106420999Y-40304797D01*
X106488959Y-40325339D01*
X106534195Y-40377543D01*
X106550151Y-40411762D01*
X106550154Y-40411767D01*
X106552477Y-40416749D01*
X106620923Y-40514500D01*
X106679846Y-40598650D01*
X106683802Y-40604300D01*
X106845700Y-40766198D01*
X106850208Y-40769355D01*
X106850211Y-40769357D01*
X106871746Y-40784436D01*
X107033251Y-40897523D01*
X107038233Y-40899846D01*
X107038238Y-40899849D01*
X107189979Y-40970606D01*
X107240757Y-40994284D01*
X107246065Y-40995706D01*
X107246067Y-40995707D01*
X107456598Y-41052119D01*
X107456600Y-41052119D01*
X107461913Y-41053543D01*
X107690000Y-41073498D01*
X107918087Y-41053543D01*
X107923400Y-41052119D01*
X107923402Y-41052119D01*
X108133933Y-40995707D01*
X108133935Y-40995706D01*
X108139243Y-40994284D01*
X108190021Y-40970606D01*
X108341762Y-40899849D01*
X108341767Y-40899846D01*
X108346749Y-40897523D01*
X108508254Y-40784436D01*
X108529789Y-40769357D01*
X108529792Y-40769355D01*
X108534300Y-40766198D01*
X108696198Y-40604300D01*
X108700155Y-40598650D01*
X108759077Y-40514500D01*
X108827523Y-40416749D01*
X108829846Y-40411767D01*
X108829849Y-40411762D01*
X108845805Y-40377543D01*
X108892722Y-40324258D01*
X108960999Y-40304797D01*
X109028959Y-40325339D01*
X109074195Y-40377543D01*
X109090151Y-40411762D01*
X109090154Y-40411767D01*
X109092477Y-40416749D01*
X109160923Y-40514500D01*
X109219846Y-40598650D01*
X109223802Y-40604300D01*
X109385700Y-40766198D01*
X109390208Y-40769355D01*
X109390211Y-40769357D01*
X109411746Y-40784436D01*
X109573251Y-40897523D01*
X109578233Y-40899846D01*
X109578238Y-40899849D01*
X109729979Y-40970606D01*
X109780757Y-40994284D01*
X109786065Y-40995706D01*
X109786067Y-40995707D01*
X109996598Y-41052119D01*
X109996600Y-41052119D01*
X110001913Y-41053543D01*
X110230000Y-41073498D01*
X110458087Y-41053543D01*
X110463400Y-41052119D01*
X110463402Y-41052119D01*
X110673933Y-40995707D01*
X110673935Y-40995706D01*
X110679243Y-40994284D01*
X110730021Y-40970606D01*
X110881762Y-40899849D01*
X110881767Y-40899846D01*
X110886749Y-40897523D01*
X111048254Y-40784436D01*
X111069789Y-40769357D01*
X111069792Y-40769355D01*
X111074300Y-40766198D01*
X111236198Y-40604300D01*
X111240155Y-40598650D01*
X111299077Y-40514500D01*
X111367523Y-40416749D01*
X111369846Y-40411767D01*
X111369849Y-40411762D01*
X111385805Y-40377543D01*
X111432722Y-40324258D01*
X111500999Y-40304797D01*
X111568959Y-40325339D01*
X111614195Y-40377543D01*
X111630151Y-40411762D01*
X111630154Y-40411767D01*
X111632477Y-40416749D01*
X111700923Y-40514500D01*
X111759846Y-40598650D01*
X111763802Y-40604300D01*
X111925700Y-40766198D01*
X111930208Y-40769355D01*
X111930211Y-40769357D01*
X111951746Y-40784436D01*
X112113251Y-40897523D01*
X112118233Y-40899846D01*
X112118238Y-40899849D01*
X112269979Y-40970606D01*
X112320757Y-40994284D01*
X112326065Y-40995706D01*
X112326067Y-40995707D01*
X112536598Y-41052119D01*
X112536600Y-41052119D01*
X112541913Y-41053543D01*
X112770000Y-41073498D01*
X112998087Y-41053543D01*
X113003400Y-41052119D01*
X113003402Y-41052119D01*
X113213933Y-40995707D01*
X113213935Y-40995706D01*
X113219243Y-40994284D01*
X113270021Y-40970606D01*
X113421762Y-40899849D01*
X113421767Y-40899846D01*
X113426749Y-40897523D01*
X113588254Y-40784436D01*
X113609789Y-40769357D01*
X113609792Y-40769355D01*
X113614300Y-40766198D01*
X113776198Y-40604300D01*
X113780155Y-40598650D01*
X113839077Y-40514500D01*
X113907523Y-40416749D01*
X113909846Y-40411767D01*
X113909849Y-40411762D01*
X113925805Y-40377543D01*
X113972722Y-40324258D01*
X114040999Y-40304797D01*
X114108959Y-40325339D01*
X114154195Y-40377543D01*
X114170151Y-40411762D01*
X114170154Y-40411767D01*
X114172477Y-40416749D01*
X114240923Y-40514500D01*
X114299846Y-40598650D01*
X114303802Y-40604300D01*
X114465700Y-40766198D01*
X114470208Y-40769355D01*
X114470211Y-40769357D01*
X114491746Y-40784436D01*
X114653251Y-40897523D01*
X114658233Y-40899846D01*
X114658238Y-40899849D01*
X114809979Y-40970606D01*
X114860757Y-40994284D01*
X114866065Y-40995706D01*
X114866067Y-40995707D01*
X115076598Y-41052119D01*
X115076600Y-41052119D01*
X115081913Y-41053543D01*
X115310000Y-41073498D01*
X115538087Y-41053543D01*
X115543400Y-41052119D01*
X115543402Y-41052119D01*
X115753933Y-40995707D01*
X115753935Y-40995706D01*
X115759243Y-40994284D01*
X115810021Y-40970606D01*
X115961762Y-40899849D01*
X115961767Y-40899846D01*
X115966749Y-40897523D01*
X116128254Y-40784436D01*
X116149789Y-40769357D01*
X116149792Y-40769355D01*
X116154300Y-40766198D01*
X116316198Y-40604300D01*
X116320155Y-40598650D01*
X116379077Y-40514500D01*
X116447523Y-40416749D01*
X116449846Y-40411767D01*
X116449849Y-40411762D01*
X116465805Y-40377543D01*
X116512722Y-40324258D01*
X116580999Y-40304797D01*
X116648959Y-40325339D01*
X116694195Y-40377543D01*
X116710151Y-40411762D01*
X116710154Y-40411767D01*
X116712477Y-40416749D01*
X116780923Y-40514500D01*
X116839846Y-40598650D01*
X116843802Y-40604300D01*
X117005700Y-40766198D01*
X117010208Y-40769355D01*
X117010211Y-40769357D01*
X117031746Y-40784436D01*
X117193251Y-40897523D01*
X117198233Y-40899846D01*
X117198238Y-40899849D01*
X117349979Y-40970606D01*
X117400757Y-40994284D01*
X117406065Y-40995706D01*
X117406067Y-40995707D01*
X117616598Y-41052119D01*
X117616600Y-41052119D01*
X117621913Y-41053543D01*
X117850000Y-41073498D01*
X118078087Y-41053543D01*
X118083400Y-41052119D01*
X118083402Y-41052119D01*
X118293933Y-40995707D01*
X118293935Y-40995706D01*
X118299243Y-40994284D01*
X118350021Y-40970606D01*
X118501762Y-40899849D01*
X118501767Y-40899846D01*
X118506749Y-40897523D01*
X118668254Y-40784436D01*
X118689789Y-40769357D01*
X118689792Y-40769355D01*
X118694300Y-40766198D01*
X118856198Y-40604300D01*
X118860155Y-40598650D01*
X118919077Y-40514500D01*
X118987523Y-40416749D01*
X118989846Y-40411767D01*
X118989849Y-40411762D01*
X119005805Y-40377543D01*
X119052722Y-40324258D01*
X119120999Y-40304797D01*
X119188959Y-40325339D01*
X119234195Y-40377543D01*
X119250151Y-40411762D01*
X119250154Y-40411767D01*
X119252477Y-40416749D01*
X119320923Y-40514500D01*
X119379846Y-40598650D01*
X119383802Y-40604300D01*
X119545700Y-40766198D01*
X119550208Y-40769355D01*
X119550211Y-40769357D01*
X119571746Y-40784436D01*
X119733251Y-40897523D01*
X119738233Y-40899846D01*
X119738238Y-40899849D01*
X119889979Y-40970606D01*
X119940757Y-40994284D01*
X119946065Y-40995706D01*
X119946067Y-40995707D01*
X120156598Y-41052119D01*
X120156600Y-41052119D01*
X120161913Y-41053543D01*
X120390000Y-41073498D01*
X120618087Y-41053543D01*
X120623400Y-41052119D01*
X120623402Y-41052119D01*
X120833933Y-40995707D01*
X120833935Y-40995706D01*
X120839243Y-40994284D01*
X120890021Y-40970606D01*
X121041762Y-40899849D01*
X121041767Y-40899846D01*
X121046749Y-40897523D01*
X121208254Y-40784436D01*
X121229789Y-40769357D01*
X121229792Y-40769355D01*
X121234300Y-40766198D01*
X121396198Y-40604300D01*
X121400155Y-40598650D01*
X121459077Y-40514500D01*
X121527523Y-40416749D01*
X121529846Y-40411767D01*
X121529849Y-40411762D01*
X121545805Y-40377543D01*
X121592722Y-40324258D01*
X121660999Y-40304797D01*
X121728959Y-40325339D01*
X121774195Y-40377543D01*
X121790151Y-40411762D01*
X121790154Y-40411767D01*
X121792477Y-40416749D01*
X121860923Y-40514500D01*
X121919846Y-40598650D01*
X121923802Y-40604300D01*
X122085700Y-40766198D01*
X122090208Y-40769355D01*
X122090211Y-40769357D01*
X122111746Y-40784436D01*
X122273251Y-40897523D01*
X122278233Y-40899846D01*
X122278238Y-40899849D01*
X122429979Y-40970606D01*
X122480757Y-40994284D01*
X122486065Y-40995706D01*
X122486067Y-40995707D01*
X122696598Y-41052119D01*
X122696600Y-41052119D01*
X122701913Y-41053543D01*
X122930000Y-41073498D01*
X123158087Y-41053543D01*
X123163400Y-41052119D01*
X123163402Y-41052119D01*
X123373933Y-40995707D01*
X123373935Y-40995706D01*
X123379243Y-40994284D01*
X123430021Y-40970606D01*
X123581762Y-40899849D01*
X123581767Y-40899846D01*
X123586749Y-40897523D01*
X123748254Y-40784436D01*
X123769789Y-40769357D01*
X123769792Y-40769355D01*
X123774300Y-40766198D01*
X123936198Y-40604300D01*
X123940155Y-40598650D01*
X123999077Y-40514500D01*
X124067523Y-40416749D01*
X124069846Y-40411767D01*
X124069849Y-40411762D01*
X124085805Y-40377543D01*
X124132722Y-40324258D01*
X124200999Y-40304797D01*
X124268959Y-40325339D01*
X124314195Y-40377543D01*
X124330151Y-40411762D01*
X124330154Y-40411767D01*
X124332477Y-40416749D01*
X124400923Y-40514500D01*
X124459846Y-40598650D01*
X124463802Y-40604300D01*
X124625700Y-40766198D01*
X124630208Y-40769355D01*
X124630211Y-40769357D01*
X124651746Y-40784436D01*
X124813251Y-40897523D01*
X124818233Y-40899846D01*
X124818238Y-40899849D01*
X124969979Y-40970606D01*
X125020757Y-40994284D01*
X125026065Y-40995706D01*
X125026067Y-40995707D01*
X125236598Y-41052119D01*
X125236600Y-41052119D01*
X125241913Y-41053543D01*
X125470000Y-41073498D01*
X125698087Y-41053543D01*
X125703400Y-41052119D01*
X125703402Y-41052119D01*
X125913933Y-40995707D01*
X125913935Y-40995706D01*
X125919243Y-40994284D01*
X125970021Y-40970606D01*
X126121762Y-40899849D01*
X126121767Y-40899846D01*
X126126749Y-40897523D01*
X126288254Y-40784436D01*
X126309789Y-40769357D01*
X126309792Y-40769355D01*
X126314300Y-40766198D01*
X126476198Y-40604300D01*
X126480155Y-40598650D01*
X126539077Y-40514500D01*
X126607523Y-40416749D01*
X126609846Y-40411767D01*
X126609849Y-40411762D01*
X126625805Y-40377543D01*
X126672722Y-40324258D01*
X126740999Y-40304797D01*
X126808959Y-40325339D01*
X126854195Y-40377543D01*
X126870151Y-40411762D01*
X126870154Y-40411767D01*
X126872477Y-40416749D01*
X126940923Y-40514500D01*
X126999846Y-40598650D01*
X127003802Y-40604300D01*
X127165700Y-40766198D01*
X127170208Y-40769355D01*
X127170211Y-40769357D01*
X127191746Y-40784436D01*
X127353251Y-40897523D01*
X127358233Y-40899846D01*
X127358238Y-40899849D01*
X127509979Y-40970606D01*
X127560757Y-40994284D01*
X127566065Y-40995706D01*
X127566067Y-40995707D01*
X127776598Y-41052119D01*
X127776600Y-41052119D01*
X127781913Y-41053543D01*
X128010000Y-41073498D01*
X128238087Y-41053543D01*
X128243400Y-41052119D01*
X128243402Y-41052119D01*
X128453933Y-40995707D01*
X128453935Y-40995706D01*
X128459243Y-40994284D01*
X128510021Y-40970606D01*
X128661762Y-40899849D01*
X128661767Y-40899846D01*
X128666749Y-40897523D01*
X128828254Y-40784436D01*
X128849789Y-40769357D01*
X128849792Y-40769355D01*
X128854300Y-40766198D01*
X129016198Y-40604300D01*
X129020155Y-40598650D01*
X129079077Y-40514500D01*
X129147523Y-40416749D01*
X129149846Y-40411767D01*
X129149849Y-40411762D01*
X129241961Y-40214225D01*
X129241961Y-40214224D01*
X129244284Y-40209243D01*
X129246027Y-40202740D01*
X129302119Y-39993402D01*
X129302119Y-39993400D01*
X129303543Y-39988087D01*
X129323498Y-39760000D01*
X129303543Y-39531913D01*
X129263399Y-39382095D01*
X129245707Y-39316067D01*
X129245706Y-39316065D01*
X129244284Y-39310757D01*
X129241961Y-39305775D01*
X129149849Y-39108238D01*
X129149846Y-39108233D01*
X129147523Y-39103251D01*
X129071711Y-38994980D01*
X129019357Y-38920211D01*
X129019355Y-38920208D01*
X129016198Y-38915700D01*
X128854300Y-38753802D01*
X128849792Y-38750645D01*
X128849789Y-38750643D01*
X128771611Y-38695902D01*
X128666749Y-38622477D01*
X128661767Y-38620154D01*
X128661762Y-38620151D01*
X128464225Y-38528039D01*
X128464224Y-38528039D01*
X128459243Y-38525716D01*
X128453935Y-38524294D01*
X128453933Y-38524293D01*
X128243402Y-38467881D01*
X128243400Y-38467881D01*
X128238087Y-38466457D01*
X128010000Y-38446502D01*
X127781913Y-38466457D01*
X127776600Y-38467881D01*
X127776598Y-38467881D01*
X127566067Y-38524293D01*
X127566065Y-38524294D01*
X127560757Y-38525716D01*
X127555776Y-38528039D01*
X127555775Y-38528039D01*
X127358238Y-38620151D01*
X127358233Y-38620154D01*
X127353251Y-38622477D01*
X127248389Y-38695902D01*
X127170211Y-38750643D01*
X127170208Y-38750645D01*
X127165700Y-38753802D01*
X127003802Y-38915700D01*
X127000645Y-38920208D01*
X127000643Y-38920211D01*
X126948289Y-38994980D01*
X126872477Y-39103251D01*
X126870154Y-39108233D01*
X126870151Y-39108238D01*
X126854195Y-39142457D01*
X126807278Y-39195742D01*
X126739001Y-39215203D01*
X126671041Y-39194661D01*
X126625805Y-39142457D01*
X126609849Y-39108238D01*
X126609846Y-39108233D01*
X126607523Y-39103251D01*
X126531711Y-38994980D01*
X126479357Y-38920211D01*
X126479355Y-38920208D01*
X126476198Y-38915700D01*
X126314300Y-38753802D01*
X126309792Y-38750645D01*
X126309789Y-38750643D01*
X126231611Y-38695902D01*
X126126749Y-38622477D01*
X126121767Y-38620154D01*
X126121762Y-38620151D01*
X125924225Y-38528039D01*
X125924224Y-38528039D01*
X125919243Y-38525716D01*
X125913935Y-38524294D01*
X125913933Y-38524293D01*
X125703402Y-38467881D01*
X125703400Y-38467881D01*
X125698087Y-38466457D01*
X125470000Y-38446502D01*
X125241913Y-38466457D01*
X125236600Y-38467881D01*
X125236598Y-38467881D01*
X125026067Y-38524293D01*
X125026065Y-38524294D01*
X125020757Y-38525716D01*
X125015776Y-38528039D01*
X125015775Y-38528039D01*
X124818238Y-38620151D01*
X124818233Y-38620154D01*
X124813251Y-38622477D01*
X124708389Y-38695902D01*
X124630211Y-38750643D01*
X124630208Y-38750645D01*
X124625700Y-38753802D01*
X124463802Y-38915700D01*
X124460645Y-38920208D01*
X124460643Y-38920211D01*
X124408289Y-38994980D01*
X124332477Y-39103251D01*
X124330154Y-39108233D01*
X124330151Y-39108238D01*
X124314195Y-39142457D01*
X124267278Y-39195742D01*
X124199001Y-39215203D01*
X124131041Y-39194661D01*
X124085805Y-39142457D01*
X124069849Y-39108238D01*
X124069846Y-39108233D01*
X124067523Y-39103251D01*
X123991711Y-38994980D01*
X123939357Y-38920211D01*
X123939355Y-38920208D01*
X123936198Y-38915700D01*
X123774300Y-38753802D01*
X123769792Y-38750645D01*
X123769789Y-38750643D01*
X123691611Y-38695902D01*
X123586749Y-38622477D01*
X123581767Y-38620154D01*
X123581762Y-38620151D01*
X123384225Y-38528039D01*
X123384224Y-38528039D01*
X123379243Y-38525716D01*
X123373935Y-38524294D01*
X123373933Y-38524293D01*
X123163402Y-38467881D01*
X123163400Y-38467881D01*
X123158087Y-38466457D01*
X122930000Y-38446502D01*
X122701913Y-38466457D01*
X122696600Y-38467881D01*
X122696598Y-38467881D01*
X122486067Y-38524293D01*
X122486065Y-38524294D01*
X122480757Y-38525716D01*
X122475776Y-38528039D01*
X122475775Y-38528039D01*
X122278238Y-38620151D01*
X122278233Y-38620154D01*
X122273251Y-38622477D01*
X122168389Y-38695902D01*
X122090211Y-38750643D01*
X122090208Y-38750645D01*
X122085700Y-38753802D01*
X121923802Y-38915700D01*
X121920645Y-38920208D01*
X121920643Y-38920211D01*
X121868289Y-38994980D01*
X121792477Y-39103251D01*
X121790154Y-39108233D01*
X121790151Y-39108238D01*
X121774195Y-39142457D01*
X121727278Y-39195742D01*
X121659001Y-39215203D01*
X121591041Y-39194661D01*
X121545805Y-39142457D01*
X121529849Y-39108238D01*
X121529846Y-39108233D01*
X121527523Y-39103251D01*
X121451711Y-38994980D01*
X121399357Y-38920211D01*
X121399355Y-38920208D01*
X121396198Y-38915700D01*
X121234300Y-38753802D01*
X121229792Y-38750645D01*
X121229789Y-38750643D01*
X121151611Y-38695902D01*
X121046749Y-38622477D01*
X121041767Y-38620154D01*
X121041762Y-38620151D01*
X120844225Y-38528039D01*
X120844224Y-38528039D01*
X120839243Y-38525716D01*
X120833935Y-38524294D01*
X120833933Y-38524293D01*
X120623402Y-38467881D01*
X120623400Y-38467881D01*
X120618087Y-38466457D01*
X120390000Y-38446502D01*
X120161913Y-38466457D01*
X120156600Y-38467881D01*
X120156598Y-38467881D01*
X119946067Y-38524293D01*
X119946065Y-38524294D01*
X119940757Y-38525716D01*
X119935776Y-38528039D01*
X119935775Y-38528039D01*
X119738238Y-38620151D01*
X119738233Y-38620154D01*
X119733251Y-38622477D01*
X119628389Y-38695902D01*
X119550211Y-38750643D01*
X119550208Y-38750645D01*
X119545700Y-38753802D01*
X119383802Y-38915700D01*
X119380645Y-38920208D01*
X119380643Y-38920211D01*
X119328289Y-38994980D01*
X119252477Y-39103251D01*
X119250154Y-39108233D01*
X119250151Y-39108238D01*
X119234195Y-39142457D01*
X119187278Y-39195742D01*
X119119001Y-39215203D01*
X119051041Y-39194661D01*
X119005805Y-39142457D01*
X118989849Y-39108238D01*
X118989846Y-39108233D01*
X118987523Y-39103251D01*
X118911711Y-38994980D01*
X118859357Y-38920211D01*
X118859355Y-38920208D01*
X118856198Y-38915700D01*
X118694300Y-38753802D01*
X118689792Y-38750645D01*
X118689789Y-38750643D01*
X118611611Y-38695902D01*
X118506749Y-38622477D01*
X118501767Y-38620154D01*
X118501762Y-38620151D01*
X118304225Y-38528039D01*
X118304224Y-38528039D01*
X118299243Y-38525716D01*
X118293935Y-38524294D01*
X118293933Y-38524293D01*
X118083402Y-38467881D01*
X118083400Y-38467881D01*
X118078087Y-38466457D01*
X117850000Y-38446502D01*
X117621913Y-38466457D01*
X117616600Y-38467881D01*
X117616598Y-38467881D01*
X117406067Y-38524293D01*
X117406065Y-38524294D01*
X117400757Y-38525716D01*
X117395776Y-38528039D01*
X117395775Y-38528039D01*
X117198238Y-38620151D01*
X117198233Y-38620154D01*
X117193251Y-38622477D01*
X117088389Y-38695902D01*
X117010211Y-38750643D01*
X117010208Y-38750645D01*
X117005700Y-38753802D01*
X116843802Y-38915700D01*
X116840645Y-38920208D01*
X116840643Y-38920211D01*
X116788289Y-38994980D01*
X116712477Y-39103251D01*
X116710154Y-39108233D01*
X116710151Y-39108238D01*
X116694195Y-39142457D01*
X116647278Y-39195742D01*
X116579001Y-39215203D01*
X116511041Y-39194661D01*
X116465805Y-39142457D01*
X116449849Y-39108238D01*
X116449846Y-39108233D01*
X116447523Y-39103251D01*
X116371711Y-38994980D01*
X116319357Y-38920211D01*
X116319355Y-38920208D01*
X116316198Y-38915700D01*
X116154300Y-38753802D01*
X116149792Y-38750645D01*
X116149789Y-38750643D01*
X116071611Y-38695902D01*
X115966749Y-38622477D01*
X115961767Y-38620154D01*
X115961762Y-38620151D01*
X115764225Y-38528039D01*
X115764224Y-38528039D01*
X115759243Y-38525716D01*
X115753935Y-38524294D01*
X115753933Y-38524293D01*
X115543402Y-38467881D01*
X115543400Y-38467881D01*
X115538087Y-38466457D01*
X115310000Y-38446502D01*
X115081913Y-38466457D01*
X115076600Y-38467881D01*
X115076598Y-38467881D01*
X114866067Y-38524293D01*
X114866065Y-38524294D01*
X114860757Y-38525716D01*
X114855776Y-38528039D01*
X114855775Y-38528039D01*
X114658238Y-38620151D01*
X114658233Y-38620154D01*
X114653251Y-38622477D01*
X114548389Y-38695902D01*
X114470211Y-38750643D01*
X114470208Y-38750645D01*
X114465700Y-38753802D01*
X114303802Y-38915700D01*
X114300645Y-38920208D01*
X114300643Y-38920211D01*
X114248289Y-38994980D01*
X114172477Y-39103251D01*
X114170154Y-39108233D01*
X114170151Y-39108238D01*
X114154195Y-39142457D01*
X114107278Y-39195742D01*
X114039001Y-39215203D01*
X113971041Y-39194661D01*
X113925805Y-39142457D01*
X113909849Y-39108238D01*
X113909846Y-39108233D01*
X113907523Y-39103251D01*
X113831711Y-38994980D01*
X113779357Y-38920211D01*
X113779355Y-38920208D01*
X113776198Y-38915700D01*
X113614300Y-38753802D01*
X113609792Y-38750645D01*
X113609789Y-38750643D01*
X113531611Y-38695902D01*
X113426749Y-38622477D01*
X113421767Y-38620154D01*
X113421762Y-38620151D01*
X113224225Y-38528039D01*
X113224224Y-38528039D01*
X113219243Y-38525716D01*
X113213935Y-38524294D01*
X113213933Y-38524293D01*
X113003402Y-38467881D01*
X113003400Y-38467881D01*
X112998087Y-38466457D01*
X112770000Y-38446502D01*
X112541913Y-38466457D01*
X112536600Y-38467881D01*
X112536598Y-38467881D01*
X112326067Y-38524293D01*
X112326065Y-38524294D01*
X112320757Y-38525716D01*
X112315776Y-38528039D01*
X112315775Y-38528039D01*
X112118238Y-38620151D01*
X112118233Y-38620154D01*
X112113251Y-38622477D01*
X112008389Y-38695902D01*
X111930211Y-38750643D01*
X111930208Y-38750645D01*
X111925700Y-38753802D01*
X111763802Y-38915700D01*
X111760645Y-38920208D01*
X111760643Y-38920211D01*
X111708289Y-38994980D01*
X111632477Y-39103251D01*
X111630154Y-39108233D01*
X111630151Y-39108238D01*
X111614195Y-39142457D01*
X111567278Y-39195742D01*
X111499001Y-39215203D01*
X111431041Y-39194661D01*
X111385805Y-39142457D01*
X111369849Y-39108238D01*
X111369846Y-39108233D01*
X111367523Y-39103251D01*
X111291711Y-38994980D01*
X111239357Y-38920211D01*
X111239355Y-38920208D01*
X111236198Y-38915700D01*
X111074300Y-38753802D01*
X111069792Y-38750645D01*
X111069789Y-38750643D01*
X110991611Y-38695902D01*
X110886749Y-38622477D01*
X110881767Y-38620154D01*
X110881762Y-38620151D01*
X110684225Y-38528039D01*
X110684224Y-38528039D01*
X110679243Y-38525716D01*
X110673935Y-38524294D01*
X110673933Y-38524293D01*
X110463402Y-38467881D01*
X110463400Y-38467881D01*
X110458087Y-38466457D01*
X110230000Y-38446502D01*
X110001913Y-38466457D01*
X109996600Y-38467881D01*
X109996598Y-38467881D01*
X109786067Y-38524293D01*
X109786065Y-38524294D01*
X109780757Y-38525716D01*
X109775776Y-38528039D01*
X109775775Y-38528039D01*
X109578238Y-38620151D01*
X109578233Y-38620154D01*
X109573251Y-38622477D01*
X109468389Y-38695902D01*
X109390211Y-38750643D01*
X109390208Y-38750645D01*
X109385700Y-38753802D01*
X109223802Y-38915700D01*
X109220645Y-38920208D01*
X109220643Y-38920211D01*
X109168289Y-38994980D01*
X109092477Y-39103251D01*
X109090154Y-39108233D01*
X109090151Y-39108238D01*
X109074195Y-39142457D01*
X109027278Y-39195742D01*
X108959001Y-39215203D01*
X108891041Y-39194661D01*
X108845805Y-39142457D01*
X108829849Y-39108238D01*
X108829846Y-39108233D01*
X108827523Y-39103251D01*
X108751711Y-38994980D01*
X108699357Y-38920211D01*
X108699355Y-38920208D01*
X108696198Y-38915700D01*
X108534300Y-38753802D01*
X108529792Y-38750645D01*
X108529789Y-38750643D01*
X108451611Y-38695902D01*
X108346749Y-38622477D01*
X108341767Y-38620154D01*
X108341762Y-38620151D01*
X108144225Y-38528039D01*
X108144224Y-38528039D01*
X108139243Y-38525716D01*
X108133935Y-38524294D01*
X108133933Y-38524293D01*
X107923402Y-38467881D01*
X107923400Y-38467881D01*
X107918087Y-38466457D01*
X107690000Y-38446502D01*
X107461913Y-38466457D01*
X107456600Y-38467881D01*
X107456598Y-38467881D01*
X107246067Y-38524293D01*
X107246065Y-38524294D01*
X107240757Y-38525716D01*
X107235776Y-38528039D01*
X107235775Y-38528039D01*
X107038238Y-38620151D01*
X107038233Y-38620154D01*
X107033251Y-38622477D01*
X106928389Y-38695902D01*
X106850211Y-38750643D01*
X106850208Y-38750645D01*
X106845700Y-38753802D01*
X106683802Y-38915700D01*
X106680645Y-38920208D01*
X106680643Y-38920211D01*
X106628289Y-38994980D01*
X106552477Y-39103251D01*
X106550154Y-39108233D01*
X106550151Y-39108238D01*
X106534195Y-39142457D01*
X106487278Y-39195742D01*
X106419001Y-39215203D01*
X106351041Y-39194661D01*
X106305805Y-39142457D01*
X106289849Y-39108238D01*
X106289846Y-39108233D01*
X106287523Y-39103251D01*
X106211711Y-38994980D01*
X106159357Y-38920211D01*
X106159355Y-38920208D01*
X106156198Y-38915700D01*
X105994300Y-38753802D01*
X105989792Y-38750645D01*
X105989789Y-38750643D01*
X105911611Y-38695902D01*
X105806749Y-38622477D01*
X105801767Y-38620154D01*
X105801762Y-38620151D01*
X105604225Y-38528039D01*
X105604224Y-38528039D01*
X105599243Y-38525716D01*
X105593935Y-38524294D01*
X105593933Y-38524293D01*
X105383402Y-38467881D01*
X105383400Y-38467881D01*
X105378087Y-38466457D01*
X105150000Y-38446502D01*
X104921913Y-38466457D01*
X104916600Y-38467881D01*
X104916598Y-38467881D01*
X104706067Y-38524293D01*
X104706065Y-38524294D01*
X104700757Y-38525716D01*
X104695776Y-38528039D01*
X104695775Y-38528039D01*
X104498238Y-38620151D01*
X104498233Y-38620154D01*
X104493251Y-38622477D01*
X104388389Y-38695902D01*
X104310211Y-38750643D01*
X104310208Y-38750645D01*
X104305700Y-38753802D01*
X104143802Y-38915700D01*
X104140645Y-38920208D01*
X104140643Y-38920211D01*
X104088289Y-38994980D01*
X104012477Y-39103251D01*
X104010154Y-39108233D01*
X104010151Y-39108238D01*
X103994195Y-39142457D01*
X103947278Y-39195742D01*
X103879001Y-39215203D01*
X103811041Y-39194661D01*
X103765805Y-39142457D01*
X103749849Y-39108238D01*
X103749846Y-39108233D01*
X103747523Y-39103251D01*
X103671711Y-38994980D01*
X103619357Y-38920211D01*
X103619355Y-38920208D01*
X103616198Y-38915700D01*
X103454300Y-38753802D01*
X103449792Y-38750645D01*
X103449789Y-38750643D01*
X103371611Y-38695902D01*
X103266749Y-38622477D01*
X103261767Y-38620154D01*
X103261762Y-38620151D01*
X103064225Y-38528039D01*
X103064224Y-38528039D01*
X103059243Y-38525716D01*
X103053935Y-38524294D01*
X103053933Y-38524293D01*
X102843402Y-38467881D01*
X102843400Y-38467881D01*
X102838087Y-38466457D01*
X102610000Y-38446502D01*
X102381913Y-38466457D01*
X102376600Y-38467881D01*
X102376598Y-38467881D01*
X102166067Y-38524293D01*
X102166065Y-38524294D01*
X102160757Y-38525716D01*
X102155776Y-38528039D01*
X102155775Y-38528039D01*
X101958238Y-38620151D01*
X101958233Y-38620154D01*
X101953251Y-38622477D01*
X101848389Y-38695902D01*
X101770211Y-38750643D01*
X101770208Y-38750645D01*
X101765700Y-38753802D01*
X101603802Y-38915700D01*
X101600645Y-38920208D01*
X101600643Y-38920211D01*
X101548289Y-38994980D01*
X101472477Y-39103251D01*
X101470154Y-39108233D01*
X101470151Y-39108238D01*
X101454195Y-39142457D01*
X101407278Y-39195742D01*
X101339001Y-39215203D01*
X101271041Y-39194661D01*
X101225805Y-39142457D01*
X101209849Y-39108238D01*
X101209846Y-39108233D01*
X101207523Y-39103251D01*
X101131711Y-38994980D01*
X101079357Y-38920211D01*
X101079355Y-38920208D01*
X101076198Y-38915700D01*
X100914300Y-38753802D01*
X100909792Y-38750645D01*
X100909789Y-38750643D01*
X100831611Y-38695902D01*
X100726749Y-38622477D01*
X100721767Y-38620154D01*
X100721762Y-38620151D01*
X100524225Y-38528039D01*
X100524224Y-38528039D01*
X100519243Y-38525716D01*
X100513935Y-38524294D01*
X100513933Y-38524293D01*
X100303402Y-38467881D01*
X100303400Y-38467881D01*
X100298087Y-38466457D01*
X100070000Y-38446502D01*
X99841913Y-38466457D01*
X99836600Y-38467881D01*
X99836598Y-38467881D01*
X99626067Y-38524293D01*
X99626065Y-38524294D01*
X99620757Y-38525716D01*
X99615776Y-38528039D01*
X99615775Y-38528039D01*
X99418238Y-38620151D01*
X99418233Y-38620154D01*
X99413251Y-38622477D01*
X99308389Y-38695902D01*
X99230211Y-38750643D01*
X99230208Y-38750645D01*
X99225700Y-38753802D01*
X99063802Y-38915700D01*
X99060645Y-38920208D01*
X99060643Y-38920211D01*
X99008289Y-38994980D01*
X98932477Y-39103251D01*
X98930154Y-39108233D01*
X98930151Y-39108238D01*
X98914195Y-39142457D01*
X98867278Y-39195742D01*
X98799001Y-39215203D01*
X98731041Y-39194661D01*
X98685805Y-39142457D01*
X98669849Y-39108238D01*
X98669846Y-39108233D01*
X98667523Y-39103251D01*
X98591711Y-38994980D01*
X98539357Y-38920211D01*
X98539355Y-38920208D01*
X98536198Y-38915700D01*
X98374300Y-38753802D01*
X98369792Y-38750645D01*
X98369789Y-38750643D01*
X98291611Y-38695902D01*
X98186749Y-38622477D01*
X98181767Y-38620154D01*
X98181762Y-38620151D01*
X97984225Y-38528039D01*
X97984224Y-38528039D01*
X97979243Y-38525716D01*
X97973935Y-38524294D01*
X97973933Y-38524293D01*
X97763402Y-38467881D01*
X97763400Y-38467881D01*
X97758087Y-38466457D01*
X97530000Y-38446502D01*
X97301913Y-38466457D01*
X97296600Y-38467881D01*
X97296598Y-38467881D01*
X97086067Y-38524293D01*
X97086065Y-38524294D01*
X97080757Y-38525716D01*
X97075776Y-38528039D01*
X97075775Y-38528039D01*
X96878238Y-38620151D01*
X96878233Y-38620154D01*
X96873251Y-38622477D01*
X96768389Y-38695902D01*
X96690211Y-38750643D01*
X96690208Y-38750645D01*
X96685700Y-38753802D01*
X96523802Y-38915700D01*
X96520645Y-38920208D01*
X96520643Y-38920211D01*
X96468289Y-38994980D01*
X96392477Y-39103251D01*
X96390154Y-39108233D01*
X96390151Y-39108238D01*
X96373919Y-39143049D01*
X96327002Y-39196334D01*
X96258725Y-39215795D01*
X96190765Y-39195253D01*
X96145529Y-39143049D01*
X96129414Y-39108489D01*
X96123931Y-39098993D01*
X95998972Y-38920533D01*
X95991916Y-38912125D01*
X95837875Y-38758084D01*
X95829467Y-38751028D01*
X95651007Y-38626069D01*
X95641511Y-38620586D01*
X95444053Y-38528510D01*
X95433761Y-38524764D01*
X95261497Y-38478606D01*
X95247401Y-38478942D01*
X95244000Y-38486884D01*
X95244000Y-41027967D01*
X94736000Y-41027967D01*
X94736000Y-38492033D01*
X94732027Y-38478502D01*
X94723478Y-38477273D01*
X94546239Y-38524764D01*
X94535947Y-38528510D01*
X94338489Y-38620586D01*
X94328993Y-38626069D01*
X94150533Y-38751028D01*
X94142125Y-38758084D01*
X93988084Y-38912125D01*
X93981028Y-38920533D01*
X93856069Y-39098993D01*
X93850586Y-39108489D01*
X93834471Y-39143049D01*
X93787554Y-39196334D01*
X93719277Y-39215795D01*
X93651317Y-39195253D01*
X93606081Y-39143049D01*
X93589849Y-39108238D01*
X93589846Y-39108233D01*
X93587523Y-39103251D01*
X93511711Y-38994980D01*
X93459357Y-38920211D01*
X93459355Y-38920208D01*
X93456198Y-38915700D01*
X93294300Y-38753802D01*
X93289792Y-38750645D01*
X93289789Y-38750643D01*
X93211611Y-38695902D01*
X93106749Y-38622477D01*
X93101767Y-38620154D01*
X93101762Y-38620151D01*
X92904225Y-38528039D01*
X92904224Y-38528039D01*
X92899243Y-38525716D01*
X92893935Y-38524294D01*
X92893933Y-38524293D01*
X92683402Y-38467881D01*
X92683400Y-38467881D01*
X92678087Y-38466457D01*
X92450000Y-38446502D01*
X92221913Y-38466457D01*
X92216600Y-38467881D01*
X92216598Y-38467881D01*
X92006067Y-38524293D01*
X92006065Y-38524294D01*
X92000757Y-38525716D01*
X91995776Y-38528039D01*
X91995775Y-38528039D01*
X91798238Y-38620151D01*
X91798233Y-38620154D01*
X91793251Y-38622477D01*
X91688389Y-38695902D01*
X91610211Y-38750643D01*
X91610208Y-38750645D01*
X91605700Y-38753802D01*
X91443802Y-38915700D01*
X91440645Y-38920208D01*
X91440643Y-38920211D01*
X91388289Y-38994980D01*
X91312477Y-39103251D01*
X91310154Y-39108233D01*
X91310151Y-39108238D01*
X91218039Y-39305775D01*
X91215716Y-39310757D01*
X91214294Y-39316065D01*
X91214293Y-39316067D01*
X91196601Y-39382095D01*
X91156457Y-39531913D01*
X91136502Y-39760000D01*
X87771790Y-39760000D01*
X87739511Y-39682072D01*
X87739509Y-39682068D01*
X87737616Y-39677498D01*
X87605328Y-39461624D01*
X87440898Y-39269102D01*
X87248376Y-39104672D01*
X87032502Y-38972384D01*
X87027932Y-38970491D01*
X87027928Y-38970489D01*
X86803164Y-38877389D01*
X86803162Y-38877388D01*
X86798591Y-38875495D01*
X86713968Y-38855179D01*
X86557216Y-38817546D01*
X86557210Y-38817545D01*
X86552403Y-38816391D01*
X86300000Y-38796526D01*
X86047597Y-38816391D01*
X86042790Y-38817545D01*
X86042784Y-38817546D01*
X85886032Y-38855179D01*
X85801409Y-38875495D01*
X85796838Y-38877388D01*
X85796836Y-38877389D01*
X85572072Y-38970489D01*
X85572068Y-38970491D01*
X85567498Y-38972384D01*
X85351624Y-39104672D01*
X85159102Y-39269102D01*
X84994672Y-39461624D01*
X84862384Y-39677498D01*
X84860491Y-39682068D01*
X84860489Y-39682072D01*
X84767389Y-39906836D01*
X84765495Y-39911409D01*
X84764340Y-39916221D01*
X84708882Y-40147223D01*
X84706391Y-40157597D01*
X84686526Y-40410000D01*
X75363177Y-40410000D01*
X75358500Y-40388500D01*
X75358500Y-40251866D01*
X75351745Y-40189684D01*
X75300615Y-40053295D01*
X75213261Y-39936739D01*
X75096705Y-39849385D01*
X74960316Y-39798255D01*
X74898134Y-39791500D01*
X73101866Y-39791500D01*
X73039684Y-39798255D01*
X72903295Y-39849385D01*
X72786739Y-39936739D01*
X72699385Y-40053295D01*
X72648255Y-40189684D01*
X72641500Y-40251866D01*
X72641500Y-42048134D01*
X72648255Y-42110316D01*
X72699385Y-42246705D01*
X72786739Y-42363261D01*
X72903295Y-42450615D01*
X72911704Y-42453767D01*
X72911705Y-42453768D01*
X73020451Y-42494535D01*
X73077216Y-42537176D01*
X73101916Y-42603738D01*
X73086709Y-42673087D01*
X73067316Y-42699568D01*
X72949749Y-42822595D01*
X72940629Y-42832138D01*
X72937715Y-42836410D01*
X72937714Y-42836411D01*
X72907042Y-42881375D01*
X72814743Y-43016680D01*
X72799003Y-43050590D01*
X72749387Y-43157479D01*
X72720688Y-43219305D01*
X72660989Y-43434570D01*
X72637251Y-43656695D01*
X72637548Y-43661848D01*
X72637548Y-43661851D01*
X72649340Y-43866368D01*
X72650110Y-43879715D01*
X72651247Y-43884761D01*
X72651248Y-43884767D01*
X72667671Y-43957639D01*
X72699222Y-44097639D01*
X72751760Y-44227026D01*
X72780189Y-44297037D01*
X72783266Y-44304616D01*
X72814195Y-44355088D01*
X72897288Y-44490683D01*
X72899987Y-44495088D01*
X73046250Y-44663938D01*
X73218126Y-44806632D01*
X73244078Y-44821797D01*
X73291445Y-44849476D01*
X73340169Y-44901114D01*
X73353240Y-44970897D01*
X73326509Y-45036669D01*
X73286055Y-45070027D01*
X73273607Y-45076507D01*
X73269474Y-45079610D01*
X73269471Y-45079612D01*
X73099100Y-45207530D01*
X73094965Y-45210635D01*
X73079557Y-45226759D01*
X72961656Y-45350135D01*
X72940629Y-45372138D01*
X72937715Y-45376410D01*
X72937714Y-45376411D01*
X72874929Y-45468450D01*
X72814743Y-45556680D01*
X72720688Y-45759305D01*
X72660989Y-45974570D01*
X72637251Y-46196695D01*
X72101835Y-46196695D01*
X72099307Y-46189435D01*
X72095795Y-46118525D01*
X72100511Y-46103255D01*
X72140717Y-45997412D01*
X72140719Y-45997406D01*
X72143218Y-45990826D01*
X72160570Y-45867361D01*
X72166475Y-45825347D01*
X72166475Y-45825344D01*
X72167026Y-45821425D01*
X72167325Y-45800000D01*
X72148256Y-45630000D01*
X72134533Y-45590590D01*
X72094314Y-45475097D01*
X72094313Y-45475095D01*
X72091999Y-45468450D01*
X72027646Y-45365464D01*
X72008500Y-45298694D01*
X72008500Y-35944669D01*
X76692001Y-35944669D01*
X76692371Y-35951490D01*
X76697895Y-36002352D01*
X76701521Y-36017604D01*
X76746676Y-36138054D01*
X76755214Y-36153649D01*
X76831715Y-36255724D01*
X76844276Y-36268285D01*
X76946351Y-36344786D01*
X76961946Y-36353324D01*
X77082394Y-36398478D01*
X77097649Y-36402105D01*
X77148514Y-36407631D01*
X77155328Y-36408000D01*
X78127885Y-36408000D01*
X78143124Y-36403525D01*
X78144329Y-36402135D01*
X78146000Y-36394452D01*
X78146000Y-36389884D01*
X78654000Y-36389884D01*
X78658475Y-36405123D01*
X78659865Y-36406328D01*
X78667548Y-36407999D01*
X79644669Y-36407999D01*
X79651490Y-36407629D01*
X79702352Y-36402105D01*
X79717604Y-36398479D01*
X79838054Y-36353324D01*
X79853649Y-36344786D01*
X79955724Y-36268285D01*
X79968285Y-36255724D01*
X80044786Y-36153649D01*
X80053324Y-36138054D01*
X80098478Y-36017606D01*
X80102105Y-36002351D01*
X80107631Y-35951486D01*
X80108000Y-35944672D01*
X80108000Y-35475406D01*
X80128002Y-35407285D01*
X80181658Y-35360792D01*
X80251932Y-35350688D01*
X80316512Y-35380182D01*
X80344991Y-35415767D01*
X80455025Y-35620551D01*
X80457820Y-35624294D01*
X80457822Y-35624297D01*
X80604171Y-35820282D01*
X80604176Y-35820288D01*
X80606963Y-35824020D01*
X80610272Y-35827300D01*
X80610277Y-35827306D01*
X80735546Y-35951486D01*
X80787307Y-36002797D01*
X80791069Y-36005555D01*
X80791072Y-36005558D01*
X80896764Y-36083054D01*
X80992094Y-36152953D01*
X80996229Y-36155129D01*
X80996233Y-36155131D01*
X81110362Y-36215177D01*
X81216827Y-36271191D01*
X81273371Y-36290937D01*
X81452021Y-36353324D01*
X81456568Y-36354912D01*
X81706050Y-36402278D01*
X81826532Y-36407011D01*
X81955125Y-36412064D01*
X81955130Y-36412064D01*
X81959793Y-36412247D01*
X82058774Y-36401407D01*
X82207569Y-36385112D01*
X82207575Y-36385111D01*
X82212222Y-36384602D01*
X82321680Y-36355784D01*
X82453273Y-36321138D01*
X82457793Y-36319948D01*
X82609719Y-36254676D01*
X82686807Y-36221557D01*
X82686810Y-36221555D01*
X82691110Y-36219708D01*
X82695090Y-36217245D01*
X82695094Y-36217243D01*
X82903064Y-36088547D01*
X82903066Y-36088545D01*
X82907047Y-36086082D01*
X82966840Y-36035464D01*
X82989382Y-36016381D01*
X89349160Y-36016381D01*
X89349237Y-36017470D01*
X89351698Y-36021206D01*
X89625632Y-36231404D01*
X89631262Y-36235259D01*
X89931591Y-36417862D01*
X89937593Y-36421080D01*
X90255897Y-36570184D01*
X90262202Y-36572732D01*
X90594743Y-36686587D01*
X90601313Y-36688446D01*
X90944183Y-36765714D01*
X90950912Y-36766853D01*
X91300143Y-36806643D01*
X91306933Y-36807046D01*
X91658419Y-36808886D01*
X91665220Y-36808554D01*
X92014853Y-36772423D01*
X92021581Y-36771357D01*
X92365274Y-36697676D01*
X92371822Y-36695897D01*
X92705549Y-36585527D01*
X92711891Y-36583041D01*
X93031718Y-36437288D01*
X93037777Y-36434121D01*
X93339995Y-36254676D01*
X93345659Y-36250884D01*
X93626732Y-36039849D01*
X93631958Y-36035464D01*
X93641613Y-36026428D01*
X93647540Y-36016381D01*
X125849160Y-36016381D01*
X125849237Y-36017470D01*
X125851698Y-36021206D01*
X126125632Y-36231404D01*
X126131262Y-36235259D01*
X126431591Y-36417862D01*
X126437593Y-36421080D01*
X126755897Y-36570184D01*
X126762202Y-36572732D01*
X127094743Y-36686587D01*
X127101313Y-36688446D01*
X127444183Y-36765714D01*
X127450912Y-36766853D01*
X127800143Y-36806643D01*
X127806933Y-36807046D01*
X128158419Y-36808886D01*
X128165220Y-36808554D01*
X128514853Y-36772423D01*
X128521581Y-36771357D01*
X128865274Y-36697676D01*
X128871822Y-36695897D01*
X129205549Y-36585527D01*
X129211891Y-36583041D01*
X129531718Y-36437288D01*
X129537777Y-36434121D01*
X129839995Y-36254676D01*
X129845659Y-36250884D01*
X130126732Y-36039849D01*
X130131958Y-36035464D01*
X130141613Y-36026428D01*
X130149682Y-36012750D01*
X130149654Y-36012024D01*
X130144512Y-36003723D01*
X128012810Y-33872020D01*
X127998869Y-33864408D01*
X127997034Y-33864539D01*
X127990420Y-33868790D01*
X125856774Y-36002437D01*
X125849160Y-36016381D01*
X93647540Y-36016381D01*
X93649682Y-36012750D01*
X93649654Y-36012024D01*
X93644512Y-36003723D01*
X91512810Y-33872020D01*
X91498869Y-33864408D01*
X91497034Y-33864539D01*
X91490420Y-33868790D01*
X89356774Y-36002437D01*
X89349160Y-36016381D01*
X82989382Y-36016381D01*
X83097289Y-35925031D01*
X83097291Y-35925029D01*
X83100862Y-35922006D01*
X83268295Y-35731084D01*
X83326123Y-35641181D01*
X83403141Y-35521442D01*
X83405669Y-35517512D01*
X83509967Y-35285980D01*
X83578896Y-35041575D01*
X83610943Y-34789667D01*
X83611988Y-34749781D01*
X83613208Y-34703160D01*
X83613291Y-34700000D01*
X83597828Y-34491918D01*
X83594818Y-34451411D01*
X83594817Y-34451407D01*
X83594472Y-34446759D01*
X83592974Y-34440135D01*
X83539459Y-34203639D01*
X83538428Y-34199082D01*
X83521816Y-34156365D01*
X83448084Y-33966762D01*
X83448083Y-33966760D01*
X83446391Y-33962409D01*
X83432517Y-33938134D01*
X84691500Y-33938134D01*
X84698255Y-34000316D01*
X84749385Y-34136705D01*
X84836739Y-34253261D01*
X84953295Y-34340615D01*
X85089684Y-34391745D01*
X85151866Y-34398500D01*
X87448134Y-34398500D01*
X87510316Y-34391745D01*
X87646705Y-34340615D01*
X87763261Y-34253261D01*
X87850615Y-34136705D01*
X87901745Y-34000316D01*
X87908500Y-33938134D01*
X87908500Y-33491832D01*
X88187333Y-33491832D01*
X88205117Y-33842893D01*
X88205827Y-33849649D01*
X88261420Y-34196723D01*
X88262859Y-34203378D01*
X88355608Y-34542410D01*
X88357757Y-34548871D01*
X88486581Y-34875912D01*
X88489412Y-34882095D01*
X88652803Y-35193310D01*
X88656286Y-35199152D01*
X88852330Y-35490896D01*
X88856433Y-35496340D01*
X88976425Y-35638836D01*
X88989164Y-35647279D01*
X88999608Y-35641181D01*
X91127980Y-33512810D01*
X91134357Y-33501131D01*
X91864408Y-33501131D01*
X91864539Y-33502966D01*
X91868790Y-33509580D01*
X93999009Y-35639798D01*
X94012605Y-35647223D01*
X94022218Y-35640522D01*
X94122518Y-35523912D01*
X94126676Y-35518514D01*
X94325762Y-35228840D01*
X94329310Y-35223029D01*
X94495942Y-34913559D01*
X94498849Y-34907381D01*
X94631090Y-34581713D01*
X94633304Y-34575283D01*
X94729598Y-34237237D01*
X94731105Y-34230607D01*
X94790332Y-33884118D01*
X94791112Y-33877378D01*
X94812668Y-33524925D01*
X94812784Y-33521323D01*
X94812853Y-33501819D01*
X94812761Y-33498194D01*
X94812416Y-33491832D01*
X124687333Y-33491832D01*
X124705117Y-33842893D01*
X124705827Y-33849649D01*
X124761420Y-34196723D01*
X124762859Y-34203378D01*
X124855608Y-34542410D01*
X124857757Y-34548871D01*
X124986581Y-34875912D01*
X124989412Y-34882095D01*
X125152803Y-35193310D01*
X125156286Y-35199152D01*
X125352330Y-35490896D01*
X125356433Y-35496340D01*
X125476425Y-35638836D01*
X125489164Y-35647279D01*
X125499608Y-35641181D01*
X127627980Y-33512810D01*
X127635592Y-33498869D01*
X127635461Y-33497034D01*
X127631210Y-33490420D01*
X125500992Y-31360203D01*
X125487455Y-31352811D01*
X125477753Y-31359599D01*
X125370430Y-31485257D01*
X125366296Y-31490664D01*
X125168215Y-31781041D01*
X125164697Y-31786851D01*
X124999134Y-32096922D01*
X124996259Y-32103087D01*
X124865155Y-32429218D01*
X124862962Y-32435658D01*
X124767846Y-32774044D01*
X124766363Y-32780679D01*
X124708350Y-33127354D01*
X124707591Y-33134126D01*
X124687357Y-33485037D01*
X124687333Y-33491832D01*
X94812416Y-33491832D01*
X94793666Y-33145615D01*
X94792931Y-33138849D01*
X94736130Y-32791985D01*
X94734663Y-32785313D01*
X94640736Y-32446627D01*
X94638562Y-32440163D01*
X94508598Y-32113578D01*
X94505742Y-32107398D01*
X94341269Y-31796763D01*
X94337769Y-31790937D01*
X94140697Y-31499862D01*
X94136590Y-31494453D01*
X94023565Y-31361179D01*
X94010740Y-31352743D01*
X94000416Y-31358795D01*
X91872020Y-33487190D01*
X91864408Y-33501131D01*
X91134357Y-33501131D01*
X91135592Y-33498869D01*
X91135461Y-33497034D01*
X91131210Y-33490420D01*
X89000992Y-31360203D01*
X88987455Y-31352811D01*
X88977753Y-31359599D01*
X88870430Y-31485257D01*
X88866296Y-31490664D01*
X88668215Y-31781041D01*
X88664697Y-31786851D01*
X88499134Y-32096922D01*
X88496259Y-32103087D01*
X88365155Y-32429218D01*
X88362962Y-32435658D01*
X88267846Y-32774044D01*
X88266363Y-32780679D01*
X88208350Y-33127354D01*
X88207591Y-33134126D01*
X88187357Y-33485037D01*
X88187333Y-33491832D01*
X87908500Y-33491832D01*
X87908500Y-31641866D01*
X87901745Y-31579684D01*
X87850615Y-31443295D01*
X87763261Y-31326739D01*
X87646705Y-31239385D01*
X87510316Y-31188255D01*
X87448134Y-31181500D01*
X85151866Y-31181500D01*
X85089684Y-31188255D01*
X84953295Y-31239385D01*
X84836739Y-31326739D01*
X84749385Y-31443295D01*
X84698255Y-31579684D01*
X84691500Y-31641866D01*
X84691500Y-33938134D01*
X83432517Y-33938134D01*
X83425866Y-33926498D01*
X83322702Y-33745997D01*
X83322700Y-33745995D01*
X83320383Y-33741940D01*
X83163171Y-33542517D01*
X82992957Y-33382396D01*
X82981610Y-33371722D01*
X82981608Y-33371720D01*
X82978209Y-33368523D01*
X82824579Y-33261946D01*
X82773393Y-33226437D01*
X82773390Y-33226435D01*
X82769561Y-33223779D01*
X82765384Y-33221719D01*
X82765377Y-33221715D01*
X82545996Y-33113528D01*
X82545992Y-33113527D01*
X82541810Y-33111464D01*
X82299960Y-33034047D01*
X82295355Y-33033297D01*
X82053935Y-32993980D01*
X82053934Y-32993980D01*
X82049323Y-32993229D01*
X81922365Y-32991567D01*
X81800083Y-32989966D01*
X81800080Y-32989966D01*
X81795406Y-32989905D01*
X81543787Y-33024149D01*
X81299993Y-33095208D01*
X81069380Y-33201522D01*
X81065471Y-33204085D01*
X80860928Y-33338189D01*
X80860923Y-33338193D01*
X80857015Y-33340755D01*
X80810360Y-33382396D01*
X80675273Y-33502966D01*
X80667562Y-33509848D01*
X80505183Y-33705087D01*
X80373447Y-33922182D01*
X80371638Y-33926496D01*
X80371637Y-33926498D01*
X80350196Y-33977629D01*
X80305407Y-34032715D01*
X80237946Y-34054841D01*
X80169233Y-34036983D01*
X80121081Y-33984810D01*
X80107999Y-33928903D01*
X80107999Y-33455331D01*
X80107629Y-33448510D01*
X80102105Y-33397648D01*
X80098479Y-33382396D01*
X80053324Y-33261946D01*
X80044786Y-33246351D01*
X79968285Y-33144276D01*
X79955724Y-33131715D01*
X79853649Y-33055214D01*
X79838054Y-33046676D01*
X79717606Y-33001522D01*
X79702351Y-32997895D01*
X79651486Y-32992369D01*
X79644672Y-32992000D01*
X78672115Y-32992000D01*
X78656876Y-32996475D01*
X78655671Y-32997865D01*
X78654000Y-33005548D01*
X78654000Y-36389884D01*
X78146000Y-36389884D01*
X78146000Y-34972115D01*
X78141525Y-34956876D01*
X78140135Y-34955671D01*
X78132452Y-34954000D01*
X76710116Y-34954000D01*
X76694877Y-34958475D01*
X76693672Y-34959865D01*
X76692001Y-34967548D01*
X76692001Y-35944669D01*
X72008500Y-35944669D01*
X72008500Y-34427885D01*
X76692000Y-34427885D01*
X76696475Y-34443124D01*
X76697865Y-34444329D01*
X76705548Y-34446000D01*
X78127885Y-34446000D01*
X78143124Y-34441525D01*
X78144329Y-34440135D01*
X78146000Y-34432452D01*
X78146000Y-33010116D01*
X78141525Y-32994877D01*
X78140135Y-32993672D01*
X78132452Y-32992001D01*
X77155331Y-32992001D01*
X77148510Y-32992371D01*
X77097648Y-32997895D01*
X77082396Y-33001521D01*
X76961946Y-33046676D01*
X76946351Y-33055214D01*
X76844276Y-33131715D01*
X76831715Y-33144276D01*
X76755214Y-33246351D01*
X76746676Y-33261946D01*
X76701522Y-33382394D01*
X76697895Y-33397649D01*
X76692369Y-33448514D01*
X76692000Y-33455328D01*
X76692000Y-34427885D01*
X72008500Y-34427885D01*
X72008500Y-30634500D01*
X72028502Y-30566379D01*
X72082158Y-30519886D01*
X72134500Y-30508500D01*
X89600978Y-30508500D01*
X89669099Y-30528502D01*
G37*
%TD.AperFunction*%
%TD*%
M02*
