%TF.GenerationSoftware,KiCad,Pcbnew,(6.0.9-0)*%
%TF.CreationDate,2023-03-02T18:02:04+01:00*%
%TF.ProjectId,FilamentSpoolScale,46696c61-6d65-46e7-9453-706f6f6c5363,rev?*%
%TF.SameCoordinates,Original*%
%TF.FileFunction,Soldermask,Top*%
%TF.FilePolarity,Negative*%
%FSLAX46Y46*%
G04 Gerber Fmt 4.6, Leading zero omitted, Abs format (unit mm)*
G04 Created by KiCad (PCBNEW (6.0.9-0)) date 2023-03-02 18:02:04*
%MOMM*%
%LPD*%
G01*
G04 APERTURE LIST*
%ADD10C,5.600000*%
%ADD11C,3.600000*%
%ADD12R,1.700000X1.700000*%
%ADD13O,1.700000X1.700000*%
%ADD14R,1.600000X1.600000*%
%ADD15O,1.600000X1.600000*%
%ADD16C,2.000000*%
%ADD17R,2.200000X2.200000*%
%ADD18O,2.200000X2.200000*%
%ADD19C,1.700000*%
%ADD20R,2.400000X2.400000*%
%ADD21C,2.400000*%
%ADD22C,1.600000*%
G04 APERTURE END LIST*
D10*
%TO.C,H5*%
X29800000Y-38000000D03*
D11*
X29800000Y-38000000D03*
%TD*%
%TO.C,H2*%
X128000000Y-35750000D03*
D10*
X128000000Y-35750000D03*
%TD*%
D12*
%TO.C,J5*%
X74100000Y-39900000D03*
D13*
X74100000Y-42440000D03*
X74100000Y-44980000D03*
X74100000Y-47520000D03*
X74100000Y-50060000D03*
X74100000Y-52600000D03*
X74100000Y-55140000D03*
%TD*%
D14*
%TO.C,A1*%
X92450000Y-55000000D03*
D15*
X94990000Y-55000000D03*
X97530000Y-55000000D03*
X100070000Y-55000000D03*
X102610000Y-55000000D03*
X105150000Y-55000000D03*
X107690000Y-55000000D03*
X110230000Y-55000000D03*
X112770000Y-55000000D03*
X115310000Y-55000000D03*
X117850000Y-55000000D03*
X120390000Y-55000000D03*
X122930000Y-55000000D03*
X125470000Y-55000000D03*
X128010000Y-55000000D03*
X128010000Y-39760000D03*
X125470000Y-39760000D03*
X122930000Y-39760000D03*
X120390000Y-39760000D03*
X117850000Y-39760000D03*
X115310000Y-39760000D03*
X112770000Y-39760000D03*
X110230000Y-39760000D03*
X107690000Y-39760000D03*
X105150000Y-39760000D03*
X102610000Y-39760000D03*
X100070000Y-39760000D03*
X97530000Y-39760000D03*
X94990000Y-39760000D03*
X92450000Y-39760000D03*
%TD*%
D16*
%TO.C,SW3*%
X43500000Y-31900000D03*
X50000000Y-31900000D03*
X50000000Y-27400000D03*
X43500000Y-27400000D03*
%TD*%
D11*
%TO.C,H4*%
X91500000Y-59250000D03*
D10*
X91500000Y-59250000D03*
%TD*%
D11*
%TO.C,H6*%
X29800000Y-57000000D03*
D10*
X29800000Y-57000000D03*
%TD*%
D12*
%TO.C,J6*%
X37400000Y-39900000D03*
D13*
X37400000Y-42440000D03*
X37400000Y-44980000D03*
X37400000Y-47520000D03*
X37400000Y-50060000D03*
X37400000Y-52600000D03*
X37400000Y-55140000D03*
%TD*%
D10*
%TO.C,H1*%
X91500000Y-35750000D03*
D11*
X91500000Y-35750000D03*
%TD*%
D17*
%TO.C,D1*%
X86200000Y-34790000D03*
D18*
X86200000Y-42410000D03*
%TD*%
D16*
%TO.C,SW1*%
X43500000Y-62950000D03*
X50000000Y-62950000D03*
X43500000Y-67450000D03*
X50000000Y-67450000D03*
%TD*%
D19*
%TO.C,J1*%
X58800000Y-51310000D03*
X58800000Y-48770000D03*
X58800000Y-46230000D03*
X58800000Y-43690000D03*
%TD*%
D12*
%TO.C,J4*%
X85600000Y-60200000D03*
D13*
X83060000Y-60200000D03*
X80520000Y-60200000D03*
X77980000Y-60200000D03*
%TD*%
D10*
%TO.C,H3*%
X128000000Y-59250000D03*
D11*
X128000000Y-59250000D03*
%TD*%
D16*
%TO.C,SW2*%
X31800000Y-44000000D03*
X31800000Y-50500000D03*
X27300000Y-44000000D03*
X27300000Y-50500000D03*
%TD*%
D20*
%TO.C,J3*%
X78250000Y-36850000D03*
D21*
X81750000Y-36850000D03*
%TD*%
D19*
%TO.C,J2*%
X125200000Y-43550000D03*
X125200000Y-46090000D03*
X125200000Y-48630000D03*
X125200000Y-51170000D03*
%TD*%
D22*
%TO.C,R1*%
X60180000Y-59800000D03*
D15*
X50020000Y-59800000D03*
%TD*%
D22*
%TO.C,R3*%
X60180000Y-35000000D03*
D15*
X50020000Y-35000000D03*
%TD*%
D22*
%TO.C,R2*%
X34100000Y-42100000D03*
D15*
X34100000Y-52260000D03*
%TD*%
M02*
