%TF.GenerationSoftware,KiCad,Pcbnew,(6.0.9-0)*%
%TF.CreationDate,2023-03-02T18:02:03+01:00*%
%TF.ProjectId,FilamentSpoolScale,46696c61-6d65-46e7-9453-706f6f6c5363,rev?*%
%TF.SameCoordinates,Original*%
%TF.FileFunction,Copper,L1,Top*%
%TF.FilePolarity,Positive*%
%FSLAX46Y46*%
G04 Gerber Fmt 4.6, Leading zero omitted, Abs format (unit mm)*
G04 Created by KiCad (PCBNEW (6.0.9-0)) date 2023-03-02 18:02:03*
%MOMM*%
%LPD*%
G01*
G04 APERTURE LIST*
%TA.AperFunction,ConnectorPad*%
%ADD10C,5.600000*%
%TD*%
%TA.AperFunction,ComponentPad*%
%ADD11C,3.600000*%
%TD*%
%TA.AperFunction,ComponentPad*%
%ADD12R,1.700000X1.700000*%
%TD*%
%TA.AperFunction,ComponentPad*%
%ADD13O,1.700000X1.700000*%
%TD*%
%TA.AperFunction,ComponentPad*%
%ADD14R,1.600000X1.600000*%
%TD*%
%TA.AperFunction,ComponentPad*%
%ADD15O,1.600000X1.600000*%
%TD*%
%TA.AperFunction,ComponentPad*%
%ADD16C,2.000000*%
%TD*%
%TA.AperFunction,ComponentPad*%
%ADD17R,2.200000X2.200000*%
%TD*%
%TA.AperFunction,ComponentPad*%
%ADD18O,2.200000X2.200000*%
%TD*%
%TA.AperFunction,ComponentPad*%
%ADD19C,1.700000*%
%TD*%
%TA.AperFunction,ComponentPad*%
%ADD20R,2.400000X2.400000*%
%TD*%
%TA.AperFunction,ComponentPad*%
%ADD21C,2.400000*%
%TD*%
%TA.AperFunction,ComponentPad*%
%ADD22C,1.600000*%
%TD*%
%TA.AperFunction,ViaPad*%
%ADD23C,0.508000*%
%TD*%
%TA.AperFunction,Conductor*%
%ADD24C,0.200000*%
%TD*%
%TA.AperFunction,Conductor*%
%ADD25C,0.254000*%
%TD*%
%TA.AperFunction,Conductor*%
%ADD26C,1.270000*%
%TD*%
G04 APERTURE END LIST*
D10*
%TO.P,H5,1,1*%
%TO.N,GND*%
X29800000Y-38000000D03*
D11*
X29800000Y-38000000D03*
%TD*%
%TO.P,H2,1,1*%
%TO.N,GND*%
X128000000Y-35750000D03*
D10*
X128000000Y-35750000D03*
%TD*%
D12*
%TO.P,J5,1,Pin_1*%
%TO.N,/SCL*%
X74100000Y-39900000D03*
D13*
%TO.P,J5,2,Pin_2*%
%TO.N,/SDA*%
X74100000Y-42440000D03*
%TO.P,J5,3,Pin_3*%
%TO.N,GND*%
X74100000Y-44980000D03*
%TO.P,J5,4,Pin_4*%
%TO.N,+5V*%
X74100000Y-47520000D03*
%TO.P,J5,5,Pin_5*%
%TO.N,/BT3*%
X74100000Y-50060000D03*
%TO.P,J5,6,Pin_6*%
%TO.N,/BT2*%
X74100000Y-52600000D03*
%TO.P,J5,7,Pin_7*%
%TO.N,/BT1*%
X74100000Y-55140000D03*
%TD*%
D14*
%TO.P,A1,1,TX1*%
%TO.N,/TX*%
X92450000Y-55000000D03*
D15*
%TO.P,A1,2,RX1*%
%TO.N,/RX*%
X94990000Y-55000000D03*
%TO.P,A1,3,~{RESET}*%
%TO.N,unconnected-(A1-Pad3)*%
X97530000Y-55000000D03*
%TO.P,A1,4,GND*%
%TO.N,GND*%
X100070000Y-55000000D03*
%TO.P,A1,5,D2*%
%TO.N,/DT*%
X102610000Y-55000000D03*
%TO.P,A1,6,D3*%
%TO.N,/SCK*%
X105150000Y-55000000D03*
%TO.P,A1,7,D4*%
%TO.N,unconnected-(A1-Pad7)*%
X107690000Y-55000000D03*
%TO.P,A1,8,D5*%
%TO.N,/BT1*%
X110230000Y-55000000D03*
%TO.P,A1,9,D6*%
%TO.N,/BT2*%
X112770000Y-55000000D03*
%TO.P,A1,10,D7*%
%TO.N,/BT3*%
X115310000Y-55000000D03*
%TO.P,A1,11,D8*%
%TO.N,unconnected-(A1-Pad11)*%
X117850000Y-55000000D03*
%TO.P,A1,12,D9*%
%TO.N,unconnected-(A1-Pad12)*%
X120390000Y-55000000D03*
%TO.P,A1,13,D10*%
%TO.N,unconnected-(A1-Pad13)*%
X122930000Y-55000000D03*
%TO.P,A1,14,MOSI*%
%TO.N,unconnected-(A1-Pad14)*%
X125470000Y-55000000D03*
%TO.P,A1,15,MISO*%
%TO.N,unconnected-(A1-Pad15)*%
X128010000Y-55000000D03*
%TO.P,A1,16,SCK*%
%TO.N,unconnected-(A1-Pad16)*%
X128010000Y-39760000D03*
%TO.P,A1,17,3V3*%
%TO.N,unconnected-(A1-Pad17)*%
X125470000Y-39760000D03*
%TO.P,A1,18,AREF*%
%TO.N,unconnected-(A1-Pad18)*%
X122930000Y-39760000D03*
%TO.P,A1,19,A0*%
%TO.N,unconnected-(A1-Pad19)*%
X120390000Y-39760000D03*
%TO.P,A1,20,A1*%
%TO.N,unconnected-(A1-Pad20)*%
X117850000Y-39760000D03*
%TO.P,A1,21,A2*%
%TO.N,unconnected-(A1-Pad21)*%
X115310000Y-39760000D03*
%TO.P,A1,22,A3*%
%TO.N,unconnected-(A1-Pad22)*%
X112770000Y-39760000D03*
%TO.P,A1,23,SDA/A4*%
%TO.N,/SDA*%
X110230000Y-39760000D03*
%TO.P,A1,24,SCL/A5*%
%TO.N,/SCL*%
X107690000Y-39760000D03*
%TO.P,A1,25,A6*%
%TO.N,unconnected-(A1-Pad25)*%
X105150000Y-39760000D03*
%TO.P,A1,26,A7*%
%TO.N,unconnected-(A1-Pad26)*%
X102610000Y-39760000D03*
%TO.P,A1,27,+5V*%
%TO.N,+5V*%
X100070000Y-39760000D03*
%TO.P,A1,28,~{RESET}*%
%TO.N,unconnected-(A1-Pad28)*%
X97530000Y-39760000D03*
%TO.P,A1,29,GND*%
%TO.N,GND*%
X94990000Y-39760000D03*
%TO.P,A1,30,VIN*%
%TO.N,BATT*%
X92450000Y-39760000D03*
%TD*%
D16*
%TO.P,SW3,1,1*%
%TO.N,/BT3*%
X43500000Y-31900000D03*
X50000000Y-31900000D03*
%TO.P,SW3,2,2*%
%TO.N,GND*%
X50000000Y-27400000D03*
X43500000Y-27400000D03*
%TD*%
D11*
%TO.P,H4,1,1*%
%TO.N,GND*%
X91500000Y-59250000D03*
D10*
X91500000Y-59250000D03*
%TD*%
D11*
%TO.P,H6,1,1*%
%TO.N,GND*%
X29800000Y-57000000D03*
D10*
X29800000Y-57000000D03*
%TD*%
D12*
%TO.P,J6,1,Pin_1*%
%TO.N,/SCL*%
X37400000Y-39900000D03*
D13*
%TO.P,J6,2,Pin_2*%
%TO.N,/SDA*%
X37400000Y-42440000D03*
%TO.P,J6,3,Pin_3*%
%TO.N,GND*%
X37400000Y-44980000D03*
%TO.P,J6,4,Pin_4*%
%TO.N,+5V*%
X37400000Y-47520000D03*
%TO.P,J6,5,Pin_5*%
%TO.N,/BT3*%
X37400000Y-50060000D03*
%TO.P,J6,6,Pin_6*%
%TO.N,/BT2*%
X37400000Y-52600000D03*
%TO.P,J6,7,Pin_7*%
%TO.N,/BT1*%
X37400000Y-55140000D03*
%TD*%
D10*
%TO.P,H1,1,1*%
%TO.N,GND*%
X91500000Y-35750000D03*
D11*
X91500000Y-35750000D03*
%TD*%
D17*
%TO.P,D1,1,A*%
%TO.N,Net-(D1-Pad1)*%
X86200000Y-34790000D03*
D18*
%TO.P,D1,2,K*%
%TO.N,BATT*%
X86200000Y-42410000D03*
%TD*%
D16*
%TO.P,SW1,1,1*%
%TO.N,/BT1*%
X43500000Y-62950000D03*
X50000000Y-62950000D03*
%TO.P,SW1,2,2*%
%TO.N,GND*%
X43500000Y-67450000D03*
X50000000Y-67450000D03*
%TD*%
D19*
%TO.P,J1,1,Pin_1*%
%TO.N,/SDA*%
X58800000Y-51310000D03*
%TO.P,J1,2,Pin_2*%
%TO.N,/SCL*%
X58800000Y-48770000D03*
%TO.P,J1,3,Pin_3*%
%TO.N,+5V*%
X58800000Y-46230000D03*
%TO.P,J1,4,Pin_4*%
%TO.N,GND*%
X58800000Y-43690000D03*
%TD*%
D12*
%TO.P,J4,1,Pin_1*%
%TO.N,/RX*%
X85600000Y-60200000D03*
D13*
%TO.P,J4,2,Pin_2*%
%TO.N,/TX*%
X83060000Y-60200000D03*
%TO.P,J4,3,Pin_3*%
%TO.N,+5V*%
X80520000Y-60200000D03*
%TO.P,J4,4,Pin_4*%
%TO.N,GND*%
X77980000Y-60200000D03*
%TD*%
D10*
%TO.P,H3,1,1*%
%TO.N,GND*%
X128000000Y-59250000D03*
D11*
X128000000Y-59250000D03*
%TD*%
D16*
%TO.P,SW2,1,1*%
%TO.N,/BT2*%
X31800000Y-44000000D03*
X31800000Y-50500000D03*
%TO.P,SW2,2,2*%
%TO.N,GND*%
X27300000Y-44000000D03*
X27300000Y-50500000D03*
%TD*%
D20*
%TO.P,J3,1,Pin_1*%
%TO.N,GND*%
X78250000Y-36850000D03*
D21*
%TO.P,J3,2,Pin_2*%
%TO.N,Net-(D1-Pad1)*%
X81750000Y-36850000D03*
%TD*%
D19*
%TO.P,J2,1,Pin_1*%
%TO.N,+5V*%
X125200000Y-43550000D03*
%TO.P,J2,2,Pin_2*%
%TO.N,/SCK*%
X125200000Y-46090000D03*
%TO.P,J2,3,Pin_3*%
%TO.N,/DT*%
X125200000Y-48630000D03*
%TO.P,J2,4,Pin_4*%
%TO.N,GND*%
X125200000Y-51170000D03*
%TD*%
D22*
%TO.P,R1,1*%
%TO.N,+5V*%
X60180000Y-59800000D03*
D15*
%TO.P,R1,2*%
%TO.N,/BT1*%
X50020000Y-59800000D03*
%TD*%
D22*
%TO.P,R3,1*%
%TO.N,+5V*%
X60180000Y-35000000D03*
D15*
%TO.P,R3,2*%
%TO.N,/BT3*%
X50020000Y-35000000D03*
%TD*%
D22*
%TO.P,R2,1*%
%TO.N,+5V*%
X34100000Y-42100000D03*
D15*
%TO.P,R2,2*%
%TO.N,/BT2*%
X34100000Y-52260000D03*
%TD*%
D23*
%TO.N,GND*%
X71500000Y-46800000D03*
X69500000Y-46800000D03*
X104500000Y-48800000D03*
%TO.N,/BT1*%
X71500000Y-49600000D03*
X69300000Y-49600000D03*
%TO.N,/DT*%
X109000000Y-48700000D03*
%TO.N,/BT3*%
X69500000Y-48200000D03*
X71500000Y-48200000D03*
%TO.N,/SDA*%
X69400000Y-46100000D03*
X71500000Y-46100000D03*
%TO.N,/SCL*%
X71500000Y-45400000D03*
X69300000Y-45400000D03*
%TO.N,+5V*%
X71500000Y-47500000D03*
X69500000Y-47500000D03*
%TO.N,/BT2*%
X69400000Y-48900000D03*
X71500000Y-48900000D03*
%TD*%
D24*
%TO.N,/TX*%
X87700000Y-60500000D02*
X87700000Y-57300000D01*
X90000000Y-55000000D02*
X92450000Y-55000000D01*
X83500000Y-61600000D02*
X86600000Y-61600000D01*
X86600000Y-61600000D02*
X87700000Y-60500000D01*
X83060000Y-61160000D02*
X83500000Y-61600000D01*
X87700000Y-57300000D02*
X90000000Y-55000000D01*
X83060000Y-60200000D02*
X83060000Y-61160000D01*
%TO.N,/RX*%
X85600000Y-56700000D02*
X85600000Y-60200000D01*
X88800000Y-53500000D02*
X85600000Y-56700000D01*
X94990000Y-55000000D02*
X94990000Y-54240000D01*
X94990000Y-54240000D02*
X94250000Y-53500000D01*
X94250000Y-53500000D02*
X88800000Y-53500000D01*
%TO.N,GND*%
X71500000Y-46800000D02*
X72280000Y-46800000D01*
X69500000Y-46800000D02*
X71500000Y-46800000D01*
X72280000Y-46800000D02*
X74100000Y-44980000D01*
%TO.N,/BT1*%
X110230000Y-55000000D02*
X108030000Y-52800000D01*
X50020000Y-57680000D02*
X52560000Y-55140000D01*
X50020000Y-57680000D02*
X50020000Y-59800000D01*
X53060000Y-55140000D02*
X60860000Y-55140000D01*
X72500000Y-53540000D02*
X74100000Y-55140000D01*
X108030000Y-52800000D02*
X80100000Y-52800000D01*
X77760000Y-55140000D02*
X74100000Y-55140000D01*
X60860000Y-55140000D02*
X66400000Y-49600000D01*
X80100000Y-52800000D02*
X77760000Y-55140000D01*
X66400000Y-49600000D02*
X69300000Y-49600000D01*
X71500000Y-49600000D02*
X72500000Y-50600000D01*
X52560000Y-55140000D02*
X53060000Y-55140000D01*
X69300000Y-49600000D02*
X71500000Y-49600000D01*
X72500000Y-50600000D02*
X72500000Y-53540000D01*
X37400000Y-55140000D02*
X53060000Y-55140000D01*
%TO.N,/DT*%
X109070000Y-48630000D02*
X125200000Y-48630000D01*
X109000000Y-48700000D02*
X109070000Y-48630000D01*
%TO.N,/BT3*%
X59600000Y-53500000D02*
X51600000Y-53500000D01*
X64900000Y-48200000D02*
X59600000Y-53500000D01*
X72240000Y-48200000D02*
X74100000Y-50060000D01*
X115310000Y-55000000D02*
X111770000Y-51460000D01*
X69500000Y-48200000D02*
X71500000Y-48200000D01*
X71500000Y-48200000D02*
X72240000Y-48200000D01*
X75500000Y-51460000D02*
X74100000Y-50060000D01*
X51600000Y-53500000D02*
X48160000Y-50060000D01*
X111770000Y-51460000D02*
X75500000Y-51460000D01*
X69500000Y-48200000D02*
X64900000Y-48200000D01*
X48160000Y-50060000D02*
X37400000Y-50060000D01*
%TO.N,/SDA*%
X69400000Y-46100000D02*
X71500000Y-46100000D01*
X60300000Y-48600000D02*
X62800000Y-46100000D01*
X72950000Y-43590000D02*
X74100000Y-42440000D01*
X62800000Y-46100000D02*
X69400000Y-46100000D01*
X58800000Y-51310000D02*
X60300000Y-49810000D01*
X43340000Y-42440000D02*
X52210000Y-51310000D01*
X72950000Y-44950000D02*
X72950000Y-43590000D01*
X71500000Y-46100000D02*
X71800000Y-46100000D01*
X52210000Y-51310000D02*
X58800000Y-51310000D01*
X71800000Y-46100000D02*
X72950000Y-44950000D01*
X37400000Y-42440000D02*
X43340000Y-42440000D01*
X60300000Y-49810000D02*
X60300000Y-48600000D01*
%TO.N,/SCL*%
X51130000Y-48770000D02*
X42260000Y-39900000D01*
X69300000Y-45400000D02*
X62170000Y-45400000D01*
X42260000Y-39900000D02*
X37400000Y-39900000D01*
X72500000Y-41500000D02*
X74100000Y-39900000D01*
X62170000Y-45400000D02*
X58800000Y-48770000D01*
X69300000Y-45400000D02*
X71500000Y-45400000D01*
X58800000Y-48770000D02*
X51130000Y-48770000D01*
X72500000Y-44400000D02*
X72500000Y-41500000D01*
X71500000Y-45400000D02*
X72500000Y-44400000D01*
D25*
%TO.N,+5V*%
X100100000Y-44700000D02*
X101500000Y-46100000D01*
X93600000Y-46230000D02*
X100070000Y-39760000D01*
X100070000Y-39760000D02*
X100070000Y-42441659D01*
D24*
X34100000Y-44220000D02*
X34100000Y-42100000D01*
D25*
X100070000Y-42441659D02*
X100100000Y-42471659D01*
D24*
X69500000Y-47500000D02*
X71500000Y-47500000D01*
D25*
X100100000Y-42471659D02*
X100100000Y-44700000D01*
D24*
X71520000Y-47520000D02*
X71500000Y-47500000D01*
X74100000Y-47520000D02*
X92310000Y-47520000D01*
D25*
X122650000Y-46100000D02*
X125200000Y-43550000D01*
X101500000Y-46100000D02*
X122650000Y-46100000D01*
D24*
X37400000Y-47520000D02*
X34100000Y-44220000D01*
X92310000Y-47520000D02*
X93600000Y-46230000D01*
X74100000Y-47520000D02*
X71520000Y-47520000D01*
D26*
%TO.N,BATT*%
X86200000Y-42410000D02*
X88850000Y-39760000D01*
X88850000Y-39760000D02*
X92450000Y-39760000D01*
%TO.N,Net-(D1-Pad1)*%
X84140000Y-36850000D02*
X86200000Y-34790000D01*
X81750000Y-36850000D02*
X84140000Y-36850000D01*
D24*
%TO.N,/BT2*%
X71500000Y-48900000D02*
X71583475Y-48900000D01*
X71583475Y-48900000D02*
X72950000Y-50266525D01*
X72950000Y-50266525D02*
X72950000Y-51450000D01*
X60000000Y-54300000D02*
X49100000Y-54300000D01*
X47400000Y-52600000D02*
X37400000Y-52600000D01*
X74100000Y-52600000D02*
X78800000Y-52600000D01*
X109870000Y-52100000D02*
X112770000Y-55000000D01*
X69400000Y-48900000D02*
X65400000Y-48900000D01*
X49100000Y-54300000D02*
X47400000Y-52600000D01*
X71500000Y-48900000D02*
X69400000Y-48900000D01*
X72950000Y-51450000D02*
X74100000Y-52600000D01*
X65400000Y-48900000D02*
X60000000Y-54300000D01*
X78800000Y-52600000D02*
X79300000Y-52100000D01*
X79300000Y-52100000D02*
X109870000Y-52100000D01*
%TD*%
%TA.AperFunction,Conductor*%
%TO.N,GND*%
G36*
X46890694Y-25552069D02*
G01*
X47331830Y-25554105D01*
X47337122Y-25554241D01*
X47980716Y-25584270D01*
X48253875Y-25597015D01*
X48259149Y-25597373D01*
X49173289Y-25678611D01*
X49178539Y-25679188D01*
X49285059Y-25693185D01*
X49498028Y-25721168D01*
X49562962Y-25749874D01*
X49602069Y-25809129D01*
X49602932Y-25880121D01*
X49565276Y-25940309D01*
X49529831Y-25962503D01*
X49317837Y-26050313D01*
X49309042Y-26054795D01*
X49141555Y-26157432D01*
X49132093Y-26167890D01*
X49135876Y-26176666D01*
X49987188Y-27027978D01*
X50001132Y-27035592D01*
X50002965Y-27035461D01*
X50009580Y-27031210D01*
X50861080Y-26179710D01*
X50867840Y-26167330D01*
X50857701Y-26153786D01*
X50832890Y-26087266D01*
X50847981Y-26017892D01*
X50898183Y-25967690D01*
X50967558Y-25952598D01*
X50980216Y-25954150D01*
X50985848Y-25955133D01*
X50997826Y-25957222D01*
X51003015Y-25958240D01*
X51581814Y-26084434D01*
X51899699Y-26153742D01*
X51904830Y-26154974D01*
X52121701Y-26211896D01*
X52792521Y-26387966D01*
X52797611Y-26389417D01*
X53137379Y-26494032D01*
X53674737Y-26659485D01*
X53679708Y-26661130D01*
X54404598Y-26918123D01*
X54544747Y-26967809D01*
X54549697Y-26969682D01*
X54713424Y-27035592D01*
X55401071Y-27312412D01*
X55405911Y-27314480D01*
X56128887Y-27641446D01*
X56242134Y-27692662D01*
X56246902Y-27694941D01*
X56399883Y-27772022D01*
X57066478Y-28107895D01*
X57071154Y-28110375D01*
X57341374Y-28261080D01*
X57742214Y-28484633D01*
X57872686Y-28557399D01*
X57877249Y-28560071D01*
X58659309Y-29040371D01*
X58663727Y-29043214D01*
X59186385Y-29395260D01*
X59424913Y-29555926D01*
X59429240Y-29558974D01*
X60168230Y-30103209D01*
X60172425Y-30106437D01*
X60887882Y-30681209D01*
X60891938Y-30684610D01*
X61582636Y-31288934D01*
X61586545Y-31292502D01*
X62224676Y-31900000D01*
X62251245Y-31925294D01*
X62255001Y-31929023D01*
X62892549Y-32589184D01*
X62896145Y-32593068D01*
X63446699Y-33213287D01*
X63505389Y-33279404D01*
X63508818Y-33283433D01*
X63552658Y-33337211D01*
X64088709Y-33994765D01*
X64091967Y-33998937D01*
X64641495Y-34734024D01*
X64644546Y-34738291D01*
X65048454Y-35328769D01*
X65162704Y-35495793D01*
X65165600Y-35500224D01*
X65651476Y-36278802D01*
X65654183Y-36283350D01*
X66106929Y-37081644D01*
X66109443Y-37086302D01*
X66292546Y-37443310D01*
X66521048Y-37888836D01*
X66528266Y-37902910D01*
X66530575Y-37907655D01*
X66712771Y-38302953D01*
X66914742Y-38741157D01*
X66916843Y-38745978D01*
X67265661Y-39594869D01*
X67267569Y-39599805D01*
X67325658Y-39760000D01*
X67562764Y-40413882D01*
X67580428Y-40462596D01*
X67582127Y-40467609D01*
X67858463Y-41342750D01*
X67859951Y-41347830D01*
X67950244Y-41682072D01*
X68087713Y-42190948D01*
X68099302Y-42233849D01*
X68100570Y-42238971D01*
X68201937Y-42688401D01*
X68302489Y-43134222D01*
X68303545Y-43139408D01*
X68467690Y-44042369D01*
X68468527Y-44047596D01*
X68486907Y-44180120D01*
X68548202Y-44622072D01*
X68551824Y-44648191D01*
X68541370Y-44718413D01*
X68494610Y-44771836D01*
X68427019Y-44791500D01*
X62218144Y-44791500D01*
X62201698Y-44790422D01*
X62178188Y-44787327D01*
X62170000Y-44786249D01*
X62124175Y-44792282D01*
X62066538Y-44799870D01*
X62011149Y-44807162D01*
X61863124Y-44868476D01*
X61835835Y-44889416D01*
X61767937Y-44941515D01*
X61767921Y-44941529D01*
X61742566Y-44960984D01*
X61742563Y-44960987D01*
X61736013Y-44966013D01*
X61730983Y-44972568D01*
X61716548Y-44991379D01*
X61705681Y-45003770D01*
X60377986Y-46331465D01*
X60315674Y-46365491D01*
X60244859Y-46360426D01*
X60188023Y-46317879D01*
X60163212Y-46251359D01*
X60162929Y-46239293D01*
X60163074Y-46233366D01*
X60163074Y-46233361D01*
X60163156Y-46230000D01*
X60144852Y-46007361D01*
X60090431Y-45790702D01*
X60001354Y-45585840D01*
X59907174Y-45440260D01*
X59882822Y-45402617D01*
X59882820Y-45402614D01*
X59880014Y-45398277D01*
X59729670Y-45233051D01*
X59725619Y-45229852D01*
X59725615Y-45229848D01*
X59558414Y-45097800D01*
X59558410Y-45097798D01*
X59554359Y-45094598D01*
X59545755Y-45089848D01*
X59517270Y-45074124D01*
X59512569Y-45071529D01*
X59462598Y-45021097D01*
X59447826Y-44951654D01*
X59472942Y-44885248D01*
X59500293Y-44858642D01*
X59549247Y-44823723D01*
X59557648Y-44813023D01*
X59550660Y-44799870D01*
X58812812Y-44062022D01*
X58798868Y-44054408D01*
X58797035Y-44054539D01*
X58790420Y-44058790D01*
X58046737Y-44802473D01*
X58039977Y-44814853D01*
X58045258Y-44821907D01*
X58091969Y-44849203D01*
X58140693Y-44900841D01*
X58153764Y-44970624D01*
X58127033Y-45036396D01*
X58086584Y-45069752D01*
X58073607Y-45076507D01*
X58069474Y-45079610D01*
X58069471Y-45079612D01*
X57901399Y-45205804D01*
X57894965Y-45210635D01*
X57882830Y-45223334D01*
X57761656Y-45350135D01*
X57740629Y-45372138D01*
X57614743Y-45556680D01*
X57520688Y-45759305D01*
X57460989Y-45974570D01*
X57437251Y-46196695D01*
X57437548Y-46201848D01*
X57437548Y-46201851D01*
X57447042Y-46366507D01*
X57450110Y-46419715D01*
X57451247Y-46424761D01*
X57451248Y-46424767D01*
X57467671Y-46497639D01*
X57499222Y-46637639D01*
X57583266Y-46844616D01*
X57699987Y-47035088D01*
X57846250Y-47203938D01*
X58018126Y-47346632D01*
X58044078Y-47361797D01*
X58091445Y-47389476D01*
X58140169Y-47441114D01*
X58153240Y-47510897D01*
X58126509Y-47576669D01*
X58086055Y-47610027D01*
X58073607Y-47616507D01*
X58069474Y-47619610D01*
X58069471Y-47619612D01*
X57907102Y-47741522D01*
X57894965Y-47750635D01*
X57740629Y-47912138D01*
X57737715Y-47916410D01*
X57737714Y-47916411D01*
X57709523Y-47957738D01*
X57614743Y-48096680D01*
X57613945Y-48098400D01*
X57563589Y-48147088D01*
X57505074Y-48161500D01*
X51434239Y-48161500D01*
X51366118Y-48141498D01*
X51345144Y-48124595D01*
X46882412Y-43661863D01*
X57438050Y-43661863D01*
X57450309Y-43874477D01*
X57451745Y-43884697D01*
X57498565Y-44092446D01*
X57501645Y-44102275D01*
X57581770Y-44299603D01*
X57586413Y-44308794D01*
X57666460Y-44439420D01*
X57676916Y-44448880D01*
X57685694Y-44445096D01*
X58427978Y-43702812D01*
X58434356Y-43691132D01*
X59164408Y-43691132D01*
X59164539Y-43692965D01*
X59168790Y-43699580D01*
X59910474Y-44441264D01*
X59922484Y-44447823D01*
X59934223Y-44438855D01*
X59965004Y-44396019D01*
X59970315Y-44387180D01*
X60064670Y-44196267D01*
X60068469Y-44186672D01*
X60130376Y-43982915D01*
X60132555Y-43972834D01*
X60160590Y-43759887D01*
X60161109Y-43753212D01*
X60162572Y-43693364D01*
X60162378Y-43686646D01*
X60144781Y-43472604D01*
X60143096Y-43462424D01*
X60091214Y-43255875D01*
X60087894Y-43246124D01*
X60002972Y-43050814D01*
X59998105Y-43041739D01*
X59933063Y-42941197D01*
X59922377Y-42931995D01*
X59912812Y-42936398D01*
X59172022Y-43677188D01*
X59164408Y-43691132D01*
X58434356Y-43691132D01*
X58435592Y-43688868D01*
X58435461Y-43687035D01*
X58431210Y-43680420D01*
X57689849Y-42939059D01*
X57678313Y-42932759D01*
X57666031Y-42942382D01*
X57618089Y-43012662D01*
X57613004Y-43021613D01*
X57523338Y-43214783D01*
X57519775Y-43224470D01*
X57462864Y-43429681D01*
X57460933Y-43439800D01*
X57438302Y-43651574D01*
X57438050Y-43661863D01*
X46882412Y-43661863D01*
X45786976Y-42566427D01*
X58041223Y-42566427D01*
X58047968Y-42578758D01*
X58787188Y-43317978D01*
X58801132Y-43325592D01*
X58802965Y-43325461D01*
X58809580Y-43321210D01*
X59553389Y-42577401D01*
X59560410Y-42564544D01*
X59553611Y-42555213D01*
X59549554Y-42552518D01*
X59363117Y-42449599D01*
X59353705Y-42445369D01*
X59152959Y-42374280D01*
X59142989Y-42371646D01*
X58933327Y-42334301D01*
X58923073Y-42333331D01*
X58710116Y-42330728D01*
X58699832Y-42331448D01*
X58489321Y-42363661D01*
X58479293Y-42366050D01*
X58276868Y-42432212D01*
X58267359Y-42436209D01*
X58078466Y-42534540D01*
X58069734Y-42540039D01*
X58049677Y-42555099D01*
X58041223Y-42566427D01*
X45786976Y-42566427D01*
X42724315Y-39503766D01*
X42713448Y-39491375D01*
X42699013Y-39472563D01*
X42693987Y-39466013D01*
X42662075Y-39441526D01*
X42662072Y-39441523D01*
X42615915Y-39406105D01*
X42573429Y-39373504D01*
X42573427Y-39373503D01*
X42566876Y-39368476D01*
X42418851Y-39307162D01*
X42410664Y-39306084D01*
X42410663Y-39306084D01*
X42399458Y-39304609D01*
X42368262Y-39300502D01*
X42299885Y-39291500D01*
X42299882Y-39291500D01*
X42299874Y-39291499D01*
X42268189Y-39287328D01*
X42260000Y-39286250D01*
X42228307Y-39290422D01*
X42211864Y-39291500D01*
X38884500Y-39291500D01*
X38816379Y-39271498D01*
X38769886Y-39217842D01*
X38758500Y-39165500D01*
X38758500Y-39001866D01*
X38751745Y-38939684D01*
X38700615Y-38803295D01*
X38613261Y-38686739D01*
X38496705Y-38599385D01*
X38360316Y-38548255D01*
X38298134Y-38541500D01*
X36501866Y-38541500D01*
X36439684Y-38548255D01*
X36303295Y-38599385D01*
X36186739Y-38686739D01*
X36099385Y-38803295D01*
X36048255Y-38939684D01*
X36041500Y-39001866D01*
X36041500Y-40798134D01*
X36048255Y-40860316D01*
X36099385Y-40996705D01*
X36186739Y-41113261D01*
X36303295Y-41200615D01*
X36311704Y-41203767D01*
X36311705Y-41203768D01*
X36420451Y-41244535D01*
X36477216Y-41287176D01*
X36501916Y-41353738D01*
X36486709Y-41423087D01*
X36467316Y-41449568D01*
X36340629Y-41582138D01*
X36337715Y-41586410D01*
X36337714Y-41586411D01*
X36275579Y-41677498D01*
X36214743Y-41766680D01*
X36120688Y-41969305D01*
X36060989Y-42184570D01*
X36037251Y-42406695D01*
X36037548Y-42411848D01*
X36037548Y-42411851D01*
X36045505Y-42549848D01*
X36050110Y-42629715D01*
X36051247Y-42634761D01*
X36051248Y-42634767D01*
X36070516Y-42720264D01*
X36099222Y-42847639D01*
X36136042Y-42938316D01*
X36180783Y-43048500D01*
X36183266Y-43054616D01*
X36299987Y-43245088D01*
X36446250Y-43413938D01*
X36618126Y-43556632D01*
X36670536Y-43587258D01*
X36691955Y-43599774D01*
X36740679Y-43651412D01*
X36753750Y-43721195D01*
X36727019Y-43786967D01*
X36686562Y-43820327D01*
X36678457Y-43824546D01*
X36669738Y-43830036D01*
X36499433Y-43957905D01*
X36491726Y-43964748D01*
X36344590Y-44118717D01*
X36338104Y-44126727D01*
X36218098Y-44302649D01*
X36213000Y-44311623D01*
X36123338Y-44504783D01*
X36119775Y-44514470D01*
X36064389Y-44714183D01*
X36065912Y-44722607D01*
X36078292Y-44726000D01*
X38718344Y-44726000D01*
X38731875Y-44722027D01*
X38733180Y-44712947D01*
X38691214Y-44545875D01*
X38687894Y-44536124D01*
X38602972Y-44340814D01*
X38598105Y-44331739D01*
X38482426Y-44152926D01*
X38476136Y-44144757D01*
X38332806Y-43987240D01*
X38325273Y-43980215D01*
X38158139Y-43848222D01*
X38149556Y-43842520D01*
X38112602Y-43822120D01*
X38062631Y-43771687D01*
X38047859Y-43702245D01*
X38072975Y-43635839D01*
X38100327Y-43609232D01*
X38131133Y-43587258D01*
X38279860Y-43481173D01*
X38438096Y-43323489D01*
X38442158Y-43317837D01*
X38565435Y-43146277D01*
X38568453Y-43142077D01*
X38580019Y-43118675D01*
X38628132Y-43066467D01*
X38692977Y-43048500D01*
X43035761Y-43048500D01*
X43103882Y-43068502D01*
X43124856Y-43085405D01*
X51745685Y-51706234D01*
X51756552Y-51718625D01*
X51776013Y-51743987D01*
X51782563Y-51749013D01*
X51807921Y-51768471D01*
X51807928Y-51768477D01*
X51863029Y-51810757D01*
X51903125Y-51841524D01*
X52051150Y-51902838D01*
X52170115Y-51918500D01*
X52170120Y-51918500D01*
X52170129Y-51918501D01*
X52201812Y-51922672D01*
X52210000Y-51923750D01*
X52241693Y-51919578D01*
X52258136Y-51918500D01*
X57508954Y-51918500D01*
X57577075Y-51938502D01*
X57616387Y-51978665D01*
X57636731Y-52011864D01*
X57699987Y-52115088D01*
X57846250Y-52283938D01*
X58018126Y-52426632D01*
X58211000Y-52539338D01*
X58419692Y-52619030D01*
X58467052Y-52628666D01*
X58532739Y-52642030D01*
X58595505Y-52675211D01*
X58630367Y-52737059D01*
X58626258Y-52807936D01*
X58584481Y-52865341D01*
X58518302Y-52891046D01*
X58507619Y-52891500D01*
X51904239Y-52891500D01*
X51836118Y-52871498D01*
X51815144Y-52854595D01*
X48624315Y-49663766D01*
X48613448Y-49651375D01*
X48599013Y-49632563D01*
X48593987Y-49626013D01*
X48562075Y-49601526D01*
X48562072Y-49601523D01*
X48532707Y-49578990D01*
X48473429Y-49533504D01*
X48473427Y-49533503D01*
X48466876Y-49528476D01*
X48318851Y-49467162D01*
X48310664Y-49466084D01*
X48310663Y-49466084D01*
X48299458Y-49464609D01*
X48268003Y-49460468D01*
X48199885Y-49451500D01*
X48199882Y-49451500D01*
X48199874Y-49451499D01*
X48168189Y-49447328D01*
X48160000Y-49446250D01*
X48128307Y-49450422D01*
X48111864Y-49451500D01*
X38692978Y-49451500D01*
X38624857Y-49431498D01*
X38587186Y-49393940D01*
X38582490Y-49386680D01*
X38542124Y-49324284D01*
X38482822Y-49232617D01*
X38482820Y-49232614D01*
X38480014Y-49228277D01*
X38329670Y-49063051D01*
X38325619Y-49059852D01*
X38325615Y-49059848D01*
X38158414Y-48927800D01*
X38158410Y-48927798D01*
X38154359Y-48924598D01*
X38113053Y-48901796D01*
X38063084Y-48851364D01*
X38048312Y-48781921D01*
X38073428Y-48715516D01*
X38100780Y-48688909D01*
X38144603Y-48657650D01*
X38279860Y-48561173D01*
X38438096Y-48403489D01*
X38497594Y-48320689D01*
X38565435Y-48226277D01*
X38568453Y-48222077D01*
X38574375Y-48210096D01*
X38665136Y-48026453D01*
X38665137Y-48026451D01*
X38667430Y-48021811D01*
X38732370Y-47808069D01*
X38761529Y-47586590D01*
X38761611Y-47583240D01*
X38763074Y-47523365D01*
X38763074Y-47523361D01*
X38763156Y-47520000D01*
X38744852Y-47297361D01*
X38690431Y-47080702D01*
X38601354Y-46875840D01*
X38541487Y-46783299D01*
X38482822Y-46692617D01*
X38482820Y-46692614D01*
X38480014Y-46688277D01*
X38329670Y-46523051D01*
X38325619Y-46519852D01*
X38325615Y-46519848D01*
X38158414Y-46387800D01*
X38158410Y-46387798D01*
X38154359Y-46384598D01*
X38112569Y-46361529D01*
X38062598Y-46311097D01*
X38047826Y-46241654D01*
X38072942Y-46175248D01*
X38100294Y-46148641D01*
X38275328Y-46023792D01*
X38283200Y-46017139D01*
X38434052Y-45866812D01*
X38440730Y-45858965D01*
X38565003Y-45686020D01*
X38570313Y-45677183D01*
X38664670Y-45486267D01*
X38668469Y-45476672D01*
X38730377Y-45272910D01*
X38732555Y-45262837D01*
X38733986Y-45251962D01*
X38731775Y-45237778D01*
X38718617Y-45234000D01*
X36083226Y-45234000D01*
X36070944Y-45237606D01*
X35999948Y-45237605D01*
X35946353Y-45205804D01*
X34745405Y-44004856D01*
X34711379Y-43942544D01*
X34708500Y-43915761D01*
X34708500Y-43336899D01*
X34728502Y-43268778D01*
X34762229Y-43233686D01*
X34939789Y-43109357D01*
X34939792Y-43109355D01*
X34944300Y-43106198D01*
X35106198Y-42944300D01*
X35113560Y-42933787D01*
X35221918Y-42779035D01*
X35237523Y-42756749D01*
X35239846Y-42751767D01*
X35239849Y-42751762D01*
X35331961Y-42554225D01*
X35331961Y-42554224D01*
X35334284Y-42549243D01*
X35338269Y-42534373D01*
X35392119Y-42333402D01*
X35392119Y-42333400D01*
X35393543Y-42328087D01*
X35413498Y-42100000D01*
X35393543Y-41871913D01*
X35334284Y-41650757D01*
X35316499Y-41612617D01*
X35239849Y-41448238D01*
X35239846Y-41448233D01*
X35237523Y-41443251D01*
X35128017Y-41286860D01*
X35109357Y-41260211D01*
X35109355Y-41260208D01*
X35106198Y-41255700D01*
X34944300Y-41093802D01*
X34939792Y-41090645D01*
X34939789Y-41090643D01*
X34850278Y-41027967D01*
X34756749Y-40962477D01*
X34751767Y-40960154D01*
X34751762Y-40960151D01*
X34554225Y-40868039D01*
X34554224Y-40868039D01*
X34549243Y-40865716D01*
X34543935Y-40864294D01*
X34543933Y-40864293D01*
X34333402Y-40807881D01*
X34333400Y-40807881D01*
X34328087Y-40806457D01*
X34100000Y-40786502D01*
X33871913Y-40806457D01*
X33866600Y-40807881D01*
X33866598Y-40807881D01*
X33656067Y-40864293D01*
X33656065Y-40864294D01*
X33650757Y-40865716D01*
X33645776Y-40868039D01*
X33645775Y-40868039D01*
X33448238Y-40960151D01*
X33448233Y-40960154D01*
X33443251Y-40962477D01*
X33349722Y-41027967D01*
X33260211Y-41090643D01*
X33260208Y-41090645D01*
X33255700Y-41093802D01*
X33093802Y-41255700D01*
X33090645Y-41260208D01*
X33090643Y-41260211D01*
X33071983Y-41286860D01*
X32962477Y-41443251D01*
X32960154Y-41448233D01*
X32960151Y-41448238D01*
X32883501Y-41612617D01*
X32865716Y-41650757D01*
X32806457Y-41871913D01*
X32786502Y-42100000D01*
X32806457Y-42328087D01*
X32807881Y-42333400D01*
X32807881Y-42333402D01*
X32861732Y-42534373D01*
X32865716Y-42549243D01*
X32868039Y-42554224D01*
X32868039Y-42554225D01*
X32912733Y-42650072D01*
X32923394Y-42720264D01*
X32894414Y-42785077D01*
X32834994Y-42823933D01*
X32764000Y-42824496D01*
X32716707Y-42799133D01*
X32693175Y-42779034D01*
X32693171Y-42779031D01*
X32689416Y-42775824D01*
X32685208Y-42773245D01*
X32685202Y-42773241D01*
X32491183Y-42654346D01*
X32486963Y-42651760D01*
X32482393Y-42649867D01*
X32482389Y-42649865D01*
X32272167Y-42562789D01*
X32272165Y-42562788D01*
X32267594Y-42560895D01*
X32175641Y-42538819D01*
X32041524Y-42506620D01*
X32041518Y-42506619D01*
X32036711Y-42505465D01*
X31800000Y-42486835D01*
X31563289Y-42505465D01*
X31558482Y-42506619D01*
X31558476Y-42506620D01*
X31424359Y-42538819D01*
X31332406Y-42560895D01*
X31327835Y-42562788D01*
X31327833Y-42562789D01*
X31117611Y-42649865D01*
X31117607Y-42649867D01*
X31113037Y-42651760D01*
X31108817Y-42654346D01*
X30914798Y-42773241D01*
X30914792Y-42773245D01*
X30910584Y-42775824D01*
X30730031Y-42930031D01*
X30575824Y-43110584D01*
X30573245Y-43114792D01*
X30573241Y-43114798D01*
X30491008Y-43248990D01*
X30451760Y-43313037D01*
X30449867Y-43317607D01*
X30449865Y-43317611D01*
X30362789Y-43527833D01*
X30360895Y-43532406D01*
X30355079Y-43556632D01*
X30309912Y-43744767D01*
X30305465Y-43763289D01*
X30286835Y-44000000D01*
X30305465Y-44236711D01*
X30306619Y-44241518D01*
X30306620Y-44241524D01*
X30323492Y-44311798D01*
X30360895Y-44467594D01*
X30362788Y-44472165D01*
X30362789Y-44472167D01*
X30449772Y-44682163D01*
X30451760Y-44686963D01*
X30454346Y-44691183D01*
X30573241Y-44885202D01*
X30573245Y-44885208D01*
X30575824Y-44889416D01*
X30730031Y-45069969D01*
X30910584Y-45224176D01*
X30914792Y-45226755D01*
X30914798Y-45226759D01*
X30990110Y-45272910D01*
X31113037Y-45348240D01*
X31117607Y-45350133D01*
X31117611Y-45350135D01*
X31327833Y-45437211D01*
X31332406Y-45439105D01*
X31380245Y-45450590D01*
X31558476Y-45493380D01*
X31558482Y-45493381D01*
X31563289Y-45494535D01*
X31800000Y-45513165D01*
X32036711Y-45494535D01*
X32041518Y-45493381D01*
X32041524Y-45493380D01*
X32219755Y-45450590D01*
X32267594Y-45439105D01*
X32272167Y-45437211D01*
X32482389Y-45350135D01*
X32482393Y-45350133D01*
X32486963Y-45348240D01*
X32609890Y-45272910D01*
X32685202Y-45226759D01*
X32685208Y-45226755D01*
X32689416Y-45224176D01*
X32869969Y-45069969D01*
X33024176Y-44889416D01*
X33026755Y-44885208D01*
X33026759Y-44885202D01*
X33145654Y-44691183D01*
X33148240Y-44686963D01*
X33150229Y-44682163D01*
X33237211Y-44472167D01*
X33237212Y-44472165D01*
X33239105Y-44467594D01*
X33261727Y-44373367D01*
X33297080Y-44311798D01*
X33360106Y-44279116D01*
X33430797Y-44285697D01*
X33486709Y-44329451D01*
X33505954Y-44370174D01*
X33506083Y-44370657D01*
X33507162Y-44378851D01*
X33568476Y-44526876D01*
X33573503Y-44533427D01*
X33573504Y-44533429D01*
X33641520Y-44622069D01*
X33641526Y-44622075D01*
X33666013Y-44653987D01*
X33672568Y-44659017D01*
X33691379Y-44673452D01*
X33703770Y-44684319D01*
X36057454Y-47038003D01*
X36091480Y-47100315D01*
X36089776Y-47160769D01*
X36060989Y-47264570D01*
X36060441Y-47269700D01*
X36060440Y-47269704D01*
X36056933Y-47302522D01*
X36037251Y-47486695D01*
X36037548Y-47491848D01*
X36037548Y-47491851D01*
X36042991Y-47586250D01*
X36050110Y-47709715D01*
X36051247Y-47714761D01*
X36051248Y-47714767D01*
X36072275Y-47808069D01*
X36099222Y-47927639D01*
X36149526Y-48051524D01*
X36180783Y-48128500D01*
X36183266Y-48134616D01*
X36299987Y-48325088D01*
X36446250Y-48493938D01*
X36618126Y-48636632D01*
X36688595Y-48677811D01*
X36691445Y-48679476D01*
X36740169Y-48731114D01*
X36753240Y-48800897D01*
X36726509Y-48866669D01*
X36686055Y-48900027D01*
X36673607Y-48906507D01*
X36669474Y-48909610D01*
X36669471Y-48909612D01*
X36528877Y-49015173D01*
X36494965Y-49040635D01*
X36340629Y-49202138D01*
X36337715Y-49206410D01*
X36337714Y-49206411D01*
X36296158Y-49267330D01*
X36214743Y-49386680D01*
X36187092Y-49446250D01*
X36129330Y-49570688D01*
X36120688Y-49589305D01*
X36060989Y-49804570D01*
X36037251Y-50026695D01*
X36037548Y-50031848D01*
X36037548Y-50031851D01*
X36048887Y-50228502D01*
X36050110Y-50249715D01*
X36051247Y-50254761D01*
X36051248Y-50254767D01*
X36060174Y-50294373D01*
X36099222Y-50467639D01*
X36156419Y-50608500D01*
X36180783Y-50668500D01*
X36183266Y-50674616D01*
X36221318Y-50736711D01*
X36291662Y-50851502D01*
X36299987Y-50865088D01*
X36446250Y-51033938D01*
X36579477Y-51144545D01*
X36598599Y-51160420D01*
X36618126Y-51176632D01*
X36688595Y-51217811D01*
X36691445Y-51219476D01*
X36740169Y-51271114D01*
X36753240Y-51340897D01*
X36726509Y-51406669D01*
X36686055Y-51440027D01*
X36673607Y-51446507D01*
X36669474Y-51449610D01*
X36669471Y-51449612D01*
X36504898Y-51573177D01*
X36494965Y-51580635D01*
X36491393Y-51584373D01*
X36355326Y-51726759D01*
X36340629Y-51742138D01*
X36214743Y-51926680D01*
X36188645Y-51982903D01*
X36129330Y-52110688D01*
X36120688Y-52129305D01*
X36060989Y-52344570D01*
X36037251Y-52566695D01*
X36037548Y-52571848D01*
X36037548Y-52571851D01*
X36046876Y-52733632D01*
X36050110Y-52789715D01*
X36051247Y-52794761D01*
X36051248Y-52794767D01*
X36066239Y-52861283D01*
X36099222Y-53007639D01*
X36136640Y-53099789D01*
X36180783Y-53208500D01*
X36183266Y-53214616D01*
X36212487Y-53262301D01*
X36296777Y-53399849D01*
X36299987Y-53405088D01*
X36446250Y-53573938D01*
X36618126Y-53716632D01*
X36662675Y-53742664D01*
X36691445Y-53759476D01*
X36740169Y-53811114D01*
X36753240Y-53880897D01*
X36726509Y-53946669D01*
X36686055Y-53980027D01*
X36673607Y-53986507D01*
X36669474Y-53989610D01*
X36669471Y-53989612D01*
X36499100Y-54117530D01*
X36494965Y-54120635D01*
X36340629Y-54282138D01*
X36337715Y-54286410D01*
X36337714Y-54286411D01*
X36295539Y-54348238D01*
X36214743Y-54466680D01*
X36120688Y-54669305D01*
X36060989Y-54884570D01*
X36037251Y-55106695D01*
X36037548Y-55111848D01*
X36037548Y-55111851D01*
X36047874Y-55290937D01*
X36050110Y-55329715D01*
X36051247Y-55334761D01*
X36051248Y-55334767D01*
X36068018Y-55409180D01*
X36099222Y-55547639D01*
X36149526Y-55671524D01*
X36180783Y-55748500D01*
X36183266Y-55754616D01*
X36205610Y-55791078D01*
X36278985Y-55910815D01*
X36299987Y-55945088D01*
X36446250Y-56113938D01*
X36618126Y-56256632D01*
X36811000Y-56369338D01*
X36815825Y-56371180D01*
X36815826Y-56371181D01*
X36856904Y-56386867D01*
X37019692Y-56449030D01*
X37024760Y-56450061D01*
X37024763Y-56450062D01*
X37132017Y-56471883D01*
X37238597Y-56493567D01*
X37243772Y-56493757D01*
X37243774Y-56493757D01*
X37456673Y-56501564D01*
X37456677Y-56501564D01*
X37461837Y-56501753D01*
X37466957Y-56501097D01*
X37466959Y-56501097D01*
X37678288Y-56474025D01*
X37678289Y-56474025D01*
X37683416Y-56473368D01*
X37688366Y-56471883D01*
X37892429Y-56410661D01*
X37892434Y-56410659D01*
X37897384Y-56409174D01*
X38097994Y-56310896D01*
X38279860Y-56181173D01*
X38438096Y-56023489D01*
X38448528Y-56008972D01*
X38565435Y-55846277D01*
X38568453Y-55842077D01*
X38575721Y-55827371D01*
X38580019Y-55818675D01*
X38628132Y-55766467D01*
X38692977Y-55748500D01*
X50786761Y-55748500D01*
X50854882Y-55768502D01*
X50901375Y-55822158D01*
X50911479Y-55892432D01*
X50881985Y-55957012D01*
X50875856Y-55963595D01*
X49623766Y-57215685D01*
X49611375Y-57226552D01*
X49586013Y-57246013D01*
X49561526Y-57277925D01*
X49561523Y-57277928D01*
X49561517Y-57277936D01*
X49495064Y-57364539D01*
X49488476Y-57373124D01*
X49427162Y-57521149D01*
X49427162Y-57521150D01*
X49411500Y-57640115D01*
X49411500Y-57640120D01*
X49406250Y-57680000D01*
X49408944Y-57700460D01*
X49410422Y-57711690D01*
X49411500Y-57728136D01*
X49411500Y-58563101D01*
X49391498Y-58631222D01*
X49357771Y-58666314D01*
X49180211Y-58790643D01*
X49180208Y-58790645D01*
X49175700Y-58793802D01*
X49013802Y-58955700D01*
X49010645Y-58960208D01*
X49010643Y-58960211D01*
X48987040Y-58993920D01*
X48882477Y-59143251D01*
X48880154Y-59148233D01*
X48880151Y-59148238D01*
X48833227Y-59248869D01*
X48785716Y-59350757D01*
X48784294Y-59356065D01*
X48784293Y-59356067D01*
X48733770Y-59544621D01*
X48726457Y-59571913D01*
X48706502Y-59800000D01*
X48726457Y-60028087D01*
X48727881Y-60033400D01*
X48727881Y-60033402D01*
X48771899Y-60197676D01*
X48785716Y-60249243D01*
X48788039Y-60254224D01*
X48788039Y-60254225D01*
X48880151Y-60451762D01*
X48880154Y-60451767D01*
X48882477Y-60456749D01*
X48912762Y-60500000D01*
X49000927Y-60625912D01*
X49013802Y-60644300D01*
X49175700Y-60806198D01*
X49180208Y-60809355D01*
X49180211Y-60809357D01*
X49234178Y-60847145D01*
X49363251Y-60937523D01*
X49368233Y-60939846D01*
X49368238Y-60939849D01*
X49565775Y-61031961D01*
X49570757Y-61034284D01*
X49576065Y-61035706D01*
X49576067Y-61035707D01*
X49786598Y-61092119D01*
X49786600Y-61092119D01*
X49791913Y-61093543D01*
X50020000Y-61113498D01*
X50248087Y-61093543D01*
X50253400Y-61092119D01*
X50253402Y-61092119D01*
X50463933Y-61035707D01*
X50463935Y-61035706D01*
X50469243Y-61034284D01*
X50474225Y-61031961D01*
X50671762Y-60939849D01*
X50671767Y-60939846D01*
X50676749Y-60937523D01*
X50805822Y-60847145D01*
X50859789Y-60809357D01*
X50859792Y-60809355D01*
X50864300Y-60806198D01*
X51026198Y-60644300D01*
X51039074Y-60625912D01*
X51127238Y-60500000D01*
X51157523Y-60456749D01*
X51159846Y-60451767D01*
X51159849Y-60451762D01*
X51251961Y-60254225D01*
X51251961Y-60254224D01*
X51254284Y-60249243D01*
X51268102Y-60197676D01*
X51312119Y-60033402D01*
X51312119Y-60033400D01*
X51313543Y-60028087D01*
X51333498Y-59800000D01*
X58866502Y-59800000D01*
X58886457Y-60028087D01*
X58887881Y-60033400D01*
X58887881Y-60033402D01*
X58931899Y-60197676D01*
X58945716Y-60249243D01*
X58948039Y-60254224D01*
X58948039Y-60254225D01*
X59040151Y-60451762D01*
X59040154Y-60451767D01*
X59042477Y-60456749D01*
X59072762Y-60500000D01*
X59160927Y-60625912D01*
X59173802Y-60644300D01*
X59335700Y-60806198D01*
X59340208Y-60809355D01*
X59340211Y-60809357D01*
X59394178Y-60847145D01*
X59523251Y-60937523D01*
X59528233Y-60939846D01*
X59528238Y-60939849D01*
X59725775Y-61031961D01*
X59730757Y-61034284D01*
X59736065Y-61035706D01*
X59736067Y-61035707D01*
X59946598Y-61092119D01*
X59946600Y-61092119D01*
X59951913Y-61093543D01*
X60180000Y-61113498D01*
X60408087Y-61093543D01*
X60413400Y-61092119D01*
X60413402Y-61092119D01*
X60623933Y-61035707D01*
X60623935Y-61035706D01*
X60629243Y-61034284D01*
X60634225Y-61031961D01*
X60831762Y-60939849D01*
X60831767Y-60939846D01*
X60836749Y-60937523D01*
X60965822Y-60847145D01*
X61019789Y-60809357D01*
X61019792Y-60809355D01*
X61024300Y-60806198D01*
X61186198Y-60644300D01*
X61199074Y-60625912D01*
X61287238Y-60500000D01*
X61317523Y-60456749D01*
X61319846Y-60451767D01*
X61319849Y-60451762D01*
X61411961Y-60254225D01*
X61411961Y-60254224D01*
X61414284Y-60249243D01*
X61428102Y-60197676D01*
X61472119Y-60033402D01*
X61472119Y-60033400D01*
X61473543Y-60028087D01*
X61493498Y-59800000D01*
X61473543Y-59571913D01*
X61466230Y-59544621D01*
X61415707Y-59356067D01*
X61415706Y-59356065D01*
X61414284Y-59350757D01*
X61366773Y-59248869D01*
X61319849Y-59148238D01*
X61319846Y-59148233D01*
X61317523Y-59143251D01*
X61212960Y-58993920D01*
X61189357Y-58960211D01*
X61189355Y-58960208D01*
X61186198Y-58955700D01*
X61024300Y-58793802D01*
X61019792Y-58790645D01*
X61019789Y-58790643D01*
X60912473Y-58715500D01*
X60836749Y-58662477D01*
X60831767Y-58660154D01*
X60831762Y-58660151D01*
X60634225Y-58568039D01*
X60634224Y-58568039D01*
X60629243Y-58565716D01*
X60623935Y-58564294D01*
X60623933Y-58564293D01*
X60413402Y-58507881D01*
X60413400Y-58507881D01*
X60408087Y-58506457D01*
X60180000Y-58486502D01*
X59951913Y-58506457D01*
X59946600Y-58507881D01*
X59946598Y-58507881D01*
X59736067Y-58564293D01*
X59736065Y-58564294D01*
X59730757Y-58565716D01*
X59725776Y-58568039D01*
X59725775Y-58568039D01*
X59528238Y-58660151D01*
X59528233Y-58660154D01*
X59523251Y-58662477D01*
X59447527Y-58715500D01*
X59340211Y-58790643D01*
X59340208Y-58790645D01*
X59335700Y-58793802D01*
X59173802Y-58955700D01*
X59170645Y-58960208D01*
X59170643Y-58960211D01*
X59147040Y-58993920D01*
X59042477Y-59143251D01*
X59040154Y-59148233D01*
X59040151Y-59148238D01*
X58993227Y-59248869D01*
X58945716Y-59350757D01*
X58944294Y-59356065D01*
X58944293Y-59356067D01*
X58893770Y-59544621D01*
X58886457Y-59571913D01*
X58866502Y-59800000D01*
X51333498Y-59800000D01*
X51313543Y-59571913D01*
X51306230Y-59544621D01*
X51255707Y-59356067D01*
X51255706Y-59356065D01*
X51254284Y-59350757D01*
X51206773Y-59248869D01*
X51159849Y-59148238D01*
X51159846Y-59148233D01*
X51157523Y-59143251D01*
X51052960Y-58993920D01*
X51029357Y-58960211D01*
X51029355Y-58960208D01*
X51026198Y-58955700D01*
X50864300Y-58793802D01*
X50859792Y-58790645D01*
X50859789Y-58790643D01*
X50682229Y-58666314D01*
X50637901Y-58610857D01*
X50628500Y-58563101D01*
X50628500Y-57984239D01*
X50648502Y-57916118D01*
X50665405Y-57895144D01*
X52775144Y-55785405D01*
X52837456Y-55751379D01*
X52864239Y-55748500D01*
X60811864Y-55748500D01*
X60828307Y-55749578D01*
X60860000Y-55753750D01*
X60868189Y-55752672D01*
X60899874Y-55748501D01*
X60899884Y-55748500D01*
X60899885Y-55748500D01*
X60999823Y-55735343D01*
X61010663Y-55733916D01*
X61018851Y-55732838D01*
X61166876Y-55671524D01*
X61180257Y-55661257D01*
X61262072Y-55598477D01*
X61262075Y-55598474D01*
X61287437Y-55579013D01*
X61293987Y-55573987D01*
X61313458Y-55548613D01*
X61324316Y-55536233D01*
X66615144Y-50245405D01*
X66677456Y-50211379D01*
X66704239Y-50208500D01*
X68427810Y-50208500D01*
X68495931Y-50228502D01*
X68542424Y-50282158D01*
X68552657Y-50351506D01*
X68531124Y-50509580D01*
X68470483Y-50954748D01*
X68469658Y-50959981D01*
X68307521Y-51864128D01*
X68306476Y-51869322D01*
X68119265Y-52708500D01*
X68106474Y-52765834D01*
X68105214Y-52770971D01*
X67936651Y-53400689D01*
X67867688Y-53658319D01*
X67866210Y-53663407D01*
X67594247Y-54531500D01*
X67591603Y-54539938D01*
X67589914Y-54544958D01*
X67309173Y-55324547D01*
X67278695Y-55409180D01*
X67276800Y-55414115D01*
X66968640Y-56168702D01*
X66929510Y-56264519D01*
X66927404Y-56269381D01*
X66544683Y-57104400D01*
X66542375Y-57109169D01*
X66381081Y-57425272D01*
X66165932Y-57846922D01*
X66124879Y-57927377D01*
X66122378Y-57932033D01*
X65912186Y-58304413D01*
X65670847Y-58731973D01*
X65668146Y-58736531D01*
X65508234Y-58993919D01*
X65191498Y-59503723D01*
X65183401Y-59516755D01*
X65180519Y-59521184D01*
X64684581Y-60249243D01*
X64663371Y-60280380D01*
X64660306Y-60284681D01*
X64158597Y-60958477D01*
X64111727Y-61021424D01*
X64108475Y-61025606D01*
X64070708Y-61072110D01*
X63529384Y-61738662D01*
X63525958Y-61742703D01*
X63315985Y-61980114D01*
X63069493Y-62258817D01*
X62917433Y-62430747D01*
X62913848Y-62434634D01*
X62276880Y-63096541D01*
X62273165Y-63100242D01*
X61641446Y-63703726D01*
X61608965Y-63734755D01*
X61605058Y-63738334D01*
X60914768Y-64344363D01*
X60910714Y-64347774D01*
X60195559Y-64924244D01*
X60191364Y-64927482D01*
X59452615Y-65473368D01*
X59448289Y-65476426D01*
X58687246Y-65990769D01*
X58682795Y-65993643D01*
X57900777Y-66475551D01*
X57896208Y-66478235D01*
X57094655Y-66926820D01*
X57089983Y-66929307D01*
X56270244Y-67343816D01*
X56265499Y-67346091D01*
X55836729Y-67540719D01*
X55429050Y-67725773D01*
X55424182Y-67727860D01*
X54572536Y-68072030D01*
X54567614Y-68073900D01*
X54327188Y-68159490D01*
X53702213Y-68381975D01*
X53697185Y-68383646D01*
X52819662Y-68655045D01*
X52814569Y-68656504D01*
X52677843Y-68692568D01*
X51926350Y-68890787D01*
X51921234Y-68892022D01*
X51023981Y-69088749D01*
X51018800Y-69089771D01*
X50114048Y-69248605D01*
X50108824Y-69249409D01*
X49198239Y-69370060D01*
X49192976Y-69370646D01*
X48278065Y-69452913D01*
X48272808Y-69453274D01*
X47355277Y-69497002D01*
X47350004Y-69497143D01*
X46895662Y-69499672D01*
X46431443Y-69502257D01*
X46426146Y-69502175D01*
X45508214Y-69468669D01*
X45502924Y-69468365D01*
X44587176Y-69396293D01*
X44581904Y-69395766D01*
X43670019Y-69285262D01*
X43664774Y-69284514D01*
X43322814Y-69228399D01*
X42758323Y-69135768D01*
X42753147Y-69134806D01*
X41922113Y-68962275D01*
X41853750Y-68948082D01*
X41848586Y-68946896D01*
X40957870Y-68722533D01*
X40952761Y-68721131D01*
X40823314Y-68682670D01*
X42632160Y-68682670D01*
X42637887Y-68690320D01*
X42809042Y-68795205D01*
X42817837Y-68799687D01*
X43027988Y-68886734D01*
X43037373Y-68889783D01*
X43258554Y-68942885D01*
X43268301Y-68944428D01*
X43495070Y-68962275D01*
X43504930Y-68962275D01*
X43731699Y-68944428D01*
X43741446Y-68942885D01*
X43962627Y-68889783D01*
X43972012Y-68886734D01*
X44182163Y-68799687D01*
X44190958Y-68795205D01*
X44358445Y-68692568D01*
X44367400Y-68682670D01*
X49132160Y-68682670D01*
X49137887Y-68690320D01*
X49309042Y-68795205D01*
X49317837Y-68799687D01*
X49527988Y-68886734D01*
X49537373Y-68889783D01*
X49758554Y-68942885D01*
X49768301Y-68944428D01*
X49995070Y-68962275D01*
X50004930Y-68962275D01*
X50231699Y-68944428D01*
X50241446Y-68942885D01*
X50462627Y-68889783D01*
X50472012Y-68886734D01*
X50682163Y-68799687D01*
X50690958Y-68795205D01*
X50858445Y-68692568D01*
X50867907Y-68682110D01*
X50864124Y-68673334D01*
X50012812Y-67822022D01*
X49998868Y-67814408D01*
X49997035Y-67814539D01*
X49990420Y-67818790D01*
X49138920Y-68670290D01*
X49132160Y-68682670D01*
X44367400Y-68682670D01*
X44367907Y-68682110D01*
X44364124Y-68673334D01*
X43512812Y-67822022D01*
X43498868Y-67814408D01*
X43497035Y-67814539D01*
X43490420Y-67818790D01*
X42638920Y-68670290D01*
X42632160Y-68682670D01*
X40823314Y-68682670D01*
X40072225Y-68459508D01*
X40067178Y-68457893D01*
X39198444Y-68159490D01*
X39193471Y-68157664D01*
X38567138Y-67912627D01*
X38338035Y-67822996D01*
X38333161Y-67820970D01*
X37502303Y-67454930D01*
X41987725Y-67454930D01*
X42005572Y-67681699D01*
X42007115Y-67691446D01*
X42060217Y-67912627D01*
X42063266Y-67922012D01*
X42150313Y-68132163D01*
X42154795Y-68140958D01*
X42257432Y-68308445D01*
X42267890Y-68317907D01*
X42276666Y-68314124D01*
X43127978Y-67462812D01*
X43134356Y-67451132D01*
X43864408Y-67451132D01*
X43864539Y-67452965D01*
X43868790Y-67459580D01*
X44720290Y-68311080D01*
X44732670Y-68317840D01*
X44740320Y-68312113D01*
X44845205Y-68140958D01*
X44849687Y-68132163D01*
X44936734Y-67922012D01*
X44939783Y-67912627D01*
X44992885Y-67691446D01*
X44994428Y-67681699D01*
X45012275Y-67454930D01*
X48487725Y-67454930D01*
X48505572Y-67681699D01*
X48507115Y-67691446D01*
X48560217Y-67912627D01*
X48563266Y-67922012D01*
X48650313Y-68132163D01*
X48654795Y-68140958D01*
X48757432Y-68308445D01*
X48767890Y-68317907D01*
X48776666Y-68314124D01*
X49627978Y-67462812D01*
X49634356Y-67451132D01*
X50364408Y-67451132D01*
X50364539Y-67452965D01*
X50368790Y-67459580D01*
X51220290Y-68311080D01*
X51232670Y-68317840D01*
X51240320Y-68312113D01*
X51345205Y-68140958D01*
X51349687Y-68132163D01*
X51436734Y-67922012D01*
X51439783Y-67912627D01*
X51492885Y-67691446D01*
X51494428Y-67681699D01*
X51512275Y-67454930D01*
X51512275Y-67445070D01*
X51494428Y-67218301D01*
X51492885Y-67208554D01*
X51439783Y-66987373D01*
X51436734Y-66977988D01*
X51349687Y-66767837D01*
X51345205Y-66759042D01*
X51242568Y-66591555D01*
X51232110Y-66582093D01*
X51223334Y-66585876D01*
X50372022Y-67437188D01*
X50364408Y-67451132D01*
X49634356Y-67451132D01*
X49635592Y-67448868D01*
X49635461Y-67447035D01*
X49631210Y-67440420D01*
X48779710Y-66588920D01*
X48767330Y-66582160D01*
X48759680Y-66587887D01*
X48654795Y-66759042D01*
X48650313Y-66767837D01*
X48563266Y-66977988D01*
X48560217Y-66987373D01*
X48507115Y-67208554D01*
X48505572Y-67218301D01*
X48487725Y-67445070D01*
X48487725Y-67454930D01*
X45012275Y-67454930D01*
X45012275Y-67445070D01*
X44994428Y-67218301D01*
X44992885Y-67208554D01*
X44939783Y-66987373D01*
X44936734Y-66977988D01*
X44849687Y-66767837D01*
X44845205Y-66759042D01*
X44742568Y-66591555D01*
X44732110Y-66582093D01*
X44723334Y-66585876D01*
X43872022Y-67437188D01*
X43864408Y-67451132D01*
X43134356Y-67451132D01*
X43135592Y-67448868D01*
X43135461Y-67447035D01*
X43131210Y-67440420D01*
X42279710Y-66588920D01*
X42267330Y-66582160D01*
X42259680Y-66587887D01*
X42154795Y-66759042D01*
X42150313Y-66767837D01*
X42063266Y-66977988D01*
X42060217Y-66987373D01*
X42007115Y-67208554D01*
X42005572Y-67218301D01*
X41987725Y-67445070D01*
X41987725Y-67454930D01*
X37502303Y-67454930D01*
X37492552Y-67450634D01*
X37487749Y-67448396D01*
X36663474Y-67043057D01*
X36658770Y-67040620D01*
X35852254Y-66600980D01*
X35847656Y-66598347D01*
X35214590Y-66217890D01*
X42632093Y-66217890D01*
X42635876Y-66226666D01*
X43487188Y-67077978D01*
X43501132Y-67085592D01*
X43502965Y-67085461D01*
X43509580Y-67081210D01*
X44361080Y-66229710D01*
X44367534Y-66217890D01*
X49132093Y-66217890D01*
X49135876Y-66226666D01*
X49987188Y-67077978D01*
X50001132Y-67085592D01*
X50002965Y-67085461D01*
X50009580Y-67081210D01*
X50861080Y-66229710D01*
X50867840Y-66217330D01*
X50862113Y-66209680D01*
X50690958Y-66104795D01*
X50682163Y-66100313D01*
X50472012Y-66013266D01*
X50462627Y-66010217D01*
X50241446Y-65957115D01*
X50231699Y-65955572D01*
X50004930Y-65937725D01*
X49995070Y-65937725D01*
X49768301Y-65955572D01*
X49758554Y-65957115D01*
X49537373Y-66010217D01*
X49527988Y-66013266D01*
X49317837Y-66100313D01*
X49309042Y-66104795D01*
X49141555Y-66207432D01*
X49132093Y-66217890D01*
X44367534Y-66217890D01*
X44367840Y-66217330D01*
X44362113Y-66209680D01*
X44190958Y-66104795D01*
X44182163Y-66100313D01*
X43972012Y-66013266D01*
X43962627Y-66010217D01*
X43741446Y-65957115D01*
X43731699Y-65955572D01*
X43504930Y-65937725D01*
X43495070Y-65937725D01*
X43268301Y-65955572D01*
X43258554Y-65957115D01*
X43037373Y-66010217D01*
X43027988Y-66013266D01*
X42817837Y-66100313D01*
X42809042Y-66104795D01*
X42641555Y-66207432D01*
X42632093Y-66217890D01*
X35214590Y-66217890D01*
X35060318Y-66125176D01*
X35055854Y-66122364D01*
X34289085Y-65616498D01*
X34284757Y-65613509D01*
X33539985Y-65075891D01*
X33535755Y-65072701D01*
X32814214Y-64504224D01*
X32810122Y-64500858D01*
X32113137Y-63902563D01*
X32109190Y-63899028D01*
X31437972Y-63271957D01*
X31434177Y-63268259D01*
X31121009Y-62950000D01*
X41986835Y-62950000D01*
X42005465Y-63186711D01*
X42006619Y-63191518D01*
X42006620Y-63191524D01*
X42041640Y-63337391D01*
X42060895Y-63417594D01*
X42151760Y-63636963D01*
X42154346Y-63641183D01*
X42273241Y-63835202D01*
X42273245Y-63835208D01*
X42275824Y-63839416D01*
X42430031Y-64019969D01*
X42610584Y-64174176D01*
X42614792Y-64176755D01*
X42614798Y-64176759D01*
X42808817Y-64295654D01*
X42813037Y-64298240D01*
X42817607Y-64300133D01*
X42817611Y-64300135D01*
X42932623Y-64347774D01*
X43032406Y-64389105D01*
X43112609Y-64408360D01*
X43258476Y-64443380D01*
X43258482Y-64443381D01*
X43263289Y-64444535D01*
X43500000Y-64463165D01*
X43736711Y-64444535D01*
X43741518Y-64443381D01*
X43741524Y-64443380D01*
X43887391Y-64408360D01*
X43967594Y-64389105D01*
X44067377Y-64347774D01*
X44182389Y-64300135D01*
X44182393Y-64300133D01*
X44186963Y-64298240D01*
X44191183Y-64295654D01*
X44385202Y-64176759D01*
X44385208Y-64176755D01*
X44389416Y-64174176D01*
X44569969Y-64019969D01*
X44724176Y-63839416D01*
X44726755Y-63835208D01*
X44726759Y-63835202D01*
X44845654Y-63641183D01*
X44848240Y-63636963D01*
X44939105Y-63417594D01*
X44958360Y-63337391D01*
X44993380Y-63191524D01*
X44993381Y-63191518D01*
X44994535Y-63186711D01*
X45013165Y-62950000D01*
X48486835Y-62950000D01*
X48505465Y-63186711D01*
X48506619Y-63191518D01*
X48506620Y-63191524D01*
X48541640Y-63337391D01*
X48560895Y-63417594D01*
X48651760Y-63636963D01*
X48654346Y-63641183D01*
X48773241Y-63835202D01*
X48773245Y-63835208D01*
X48775824Y-63839416D01*
X48930031Y-64019969D01*
X49110584Y-64174176D01*
X49114792Y-64176755D01*
X49114798Y-64176759D01*
X49308817Y-64295654D01*
X49313037Y-64298240D01*
X49317607Y-64300133D01*
X49317611Y-64300135D01*
X49432623Y-64347774D01*
X49532406Y-64389105D01*
X49612609Y-64408360D01*
X49758476Y-64443380D01*
X49758482Y-64443381D01*
X49763289Y-64444535D01*
X50000000Y-64463165D01*
X50236711Y-64444535D01*
X50241518Y-64443381D01*
X50241524Y-64443380D01*
X50387391Y-64408360D01*
X50467594Y-64389105D01*
X50567377Y-64347774D01*
X50682389Y-64300135D01*
X50682393Y-64300133D01*
X50686963Y-64298240D01*
X50691183Y-64295654D01*
X50885202Y-64176759D01*
X50885208Y-64176755D01*
X50889416Y-64174176D01*
X51069969Y-64019969D01*
X51224176Y-63839416D01*
X51226755Y-63835208D01*
X51226759Y-63835202D01*
X51345654Y-63641183D01*
X51348240Y-63636963D01*
X51439105Y-63417594D01*
X51458360Y-63337391D01*
X51493380Y-63191524D01*
X51493381Y-63191518D01*
X51494535Y-63186711D01*
X51513165Y-62950000D01*
X51494535Y-62713289D01*
X51485604Y-62676085D01*
X51440260Y-62487218D01*
X51439105Y-62482406D01*
X51418533Y-62432740D01*
X51350135Y-62267611D01*
X51350133Y-62267607D01*
X51348240Y-62263037D01*
X51260856Y-62120440D01*
X51226759Y-62064798D01*
X51226755Y-62064792D01*
X51224176Y-62060584D01*
X51069969Y-61880031D01*
X50889416Y-61725824D01*
X50885208Y-61723245D01*
X50885202Y-61723241D01*
X50691183Y-61604346D01*
X50686963Y-61601760D01*
X50682393Y-61599867D01*
X50682389Y-61599865D01*
X50472167Y-61512789D01*
X50472165Y-61512788D01*
X50467594Y-61510895D01*
X50387391Y-61491640D01*
X50241524Y-61456620D01*
X50241518Y-61456619D01*
X50236711Y-61455465D01*
X50000000Y-61436835D01*
X49763289Y-61455465D01*
X49758482Y-61456619D01*
X49758476Y-61456620D01*
X49612609Y-61491640D01*
X49532406Y-61510895D01*
X49527835Y-61512788D01*
X49527833Y-61512789D01*
X49317611Y-61599865D01*
X49317607Y-61599867D01*
X49313037Y-61601760D01*
X49308817Y-61604346D01*
X49114798Y-61723241D01*
X49114792Y-61723245D01*
X49110584Y-61725824D01*
X48930031Y-61880031D01*
X48775824Y-62060584D01*
X48773245Y-62064792D01*
X48773241Y-62064798D01*
X48739144Y-62120440D01*
X48651760Y-62263037D01*
X48649867Y-62267607D01*
X48649865Y-62267611D01*
X48581467Y-62432740D01*
X48560895Y-62482406D01*
X48559740Y-62487218D01*
X48514397Y-62676085D01*
X48505465Y-62713289D01*
X48486835Y-62950000D01*
X45013165Y-62950000D01*
X44994535Y-62713289D01*
X44985604Y-62676085D01*
X44940260Y-62487218D01*
X44939105Y-62482406D01*
X44918533Y-62432740D01*
X44850135Y-62267611D01*
X44850133Y-62267607D01*
X44848240Y-62263037D01*
X44760856Y-62120440D01*
X44726759Y-62064798D01*
X44726755Y-62064792D01*
X44724176Y-62060584D01*
X44569969Y-61880031D01*
X44389416Y-61725824D01*
X44385208Y-61723245D01*
X44385202Y-61723241D01*
X44191183Y-61604346D01*
X44186963Y-61601760D01*
X44182393Y-61599867D01*
X44182389Y-61599865D01*
X43972167Y-61512789D01*
X43972165Y-61512788D01*
X43967594Y-61510895D01*
X43887391Y-61491640D01*
X43741524Y-61456620D01*
X43741518Y-61456619D01*
X43736711Y-61455465D01*
X43500000Y-61436835D01*
X43263289Y-61455465D01*
X43258482Y-61456619D01*
X43258476Y-61456620D01*
X43112609Y-61491640D01*
X43032406Y-61510895D01*
X43027835Y-61512788D01*
X43027833Y-61512789D01*
X42817611Y-61599865D01*
X42817607Y-61599867D01*
X42813037Y-61601760D01*
X42808817Y-61604346D01*
X42614798Y-61723241D01*
X42614792Y-61723245D01*
X42610584Y-61725824D01*
X42430031Y-61880031D01*
X42275824Y-62060584D01*
X42273245Y-62064792D01*
X42273241Y-62064798D01*
X42239144Y-62120440D01*
X42151760Y-62263037D01*
X42149867Y-62267607D01*
X42149865Y-62267611D01*
X42081467Y-62432740D01*
X42060895Y-62482406D01*
X42059740Y-62487218D01*
X42014397Y-62676085D01*
X42005465Y-62713289D01*
X41986835Y-62950000D01*
X31121009Y-62950000D01*
X30789917Y-62613526D01*
X30786281Y-62609672D01*
X30170123Y-61928439D01*
X30166652Y-61924436D01*
X29579659Y-61217875D01*
X29576360Y-61213729D01*
X29019606Y-60483136D01*
X29016484Y-60478856D01*
X28983443Y-60431492D01*
X28960873Y-60364179D01*
X28978278Y-60295349D01*
X29030132Y-60246855D01*
X29099972Y-60234094D01*
X29114482Y-60236485D01*
X29244183Y-60265714D01*
X29250912Y-60266853D01*
X29600143Y-60306643D01*
X29606933Y-60307046D01*
X29958419Y-60308886D01*
X29965220Y-60308554D01*
X30314853Y-60272423D01*
X30321581Y-60271357D01*
X30665274Y-60197676D01*
X30671822Y-60195897D01*
X31005549Y-60085527D01*
X31011891Y-60083041D01*
X31331718Y-59937288D01*
X31337777Y-59934121D01*
X31639995Y-59754676D01*
X31645659Y-59750884D01*
X31926732Y-59539849D01*
X31931958Y-59535464D01*
X31941613Y-59526428D01*
X31949682Y-59512750D01*
X31949654Y-59512024D01*
X31944512Y-59503723D01*
X29812810Y-57372020D01*
X29798869Y-57364408D01*
X29797034Y-57364539D01*
X29790420Y-57368790D01*
X28408413Y-58750797D01*
X28346101Y-58784823D01*
X28275286Y-58779758D01*
X28230223Y-58750797D01*
X28049203Y-58569777D01*
X28015177Y-58507465D01*
X28020242Y-58436650D01*
X28049203Y-58391587D01*
X29427978Y-57012812D01*
X29434356Y-57001131D01*
X30164408Y-57001131D01*
X30164539Y-57002966D01*
X30168790Y-57009580D01*
X32299009Y-59139798D01*
X32312605Y-59147223D01*
X32322218Y-59140522D01*
X32422518Y-59023912D01*
X32426676Y-59018514D01*
X32625762Y-58728840D01*
X32629310Y-58723029D01*
X32795942Y-58413559D01*
X32798849Y-58407381D01*
X32931090Y-58081713D01*
X32933304Y-58075283D01*
X33029598Y-57737237D01*
X33031105Y-57730607D01*
X33090332Y-57384118D01*
X33091112Y-57377378D01*
X33112668Y-57024925D01*
X33112784Y-57021323D01*
X33112853Y-57001819D01*
X33112761Y-56998194D01*
X33093666Y-56645615D01*
X33092931Y-56638849D01*
X33036130Y-56291985D01*
X33034663Y-56285313D01*
X32940736Y-55946627D01*
X32938562Y-55940163D01*
X32808598Y-55613578D01*
X32805742Y-55607398D01*
X32641269Y-55296763D01*
X32637769Y-55290937D01*
X32440697Y-54999862D01*
X32436590Y-54994453D01*
X32323565Y-54861179D01*
X32310740Y-54852743D01*
X32300416Y-54858795D01*
X30172020Y-56987190D01*
X30164408Y-57001131D01*
X29434356Y-57001131D01*
X29435592Y-56998868D01*
X29435461Y-56997035D01*
X29431210Y-56990420D01*
X27300992Y-54860203D01*
X27287455Y-54852811D01*
X27277753Y-54859599D01*
X27170430Y-54985257D01*
X27166296Y-54990664D01*
X26968215Y-55281041D01*
X26964697Y-55286851D01*
X26799134Y-55596922D01*
X26796256Y-55603093D01*
X26684074Y-55882155D01*
X26640108Y-55937900D01*
X26572983Y-55961025D01*
X26504011Y-55944188D01*
X26455091Y-55892736D01*
X26451057Y-55884092D01*
X26349049Y-55642045D01*
X26347094Y-55637120D01*
X26311861Y-55542596D01*
X26279289Y-55455213D01*
X26026268Y-54776412D01*
X26024523Y-54771410D01*
X25931885Y-54486862D01*
X27649950Y-54486862D01*
X27649986Y-54487704D01*
X27655037Y-54495826D01*
X28892048Y-55732838D01*
X29787190Y-56627980D01*
X29801131Y-56635592D01*
X29802966Y-56635461D01*
X29809580Y-56631210D01*
X31942798Y-54497991D01*
X31950412Y-54484047D01*
X31950344Y-54483089D01*
X31945836Y-54476272D01*
X31944418Y-54475065D01*
X31664813Y-54262064D01*
X31659187Y-54258240D01*
X31358214Y-54076681D01*
X31352202Y-54073484D01*
X31033370Y-53925487D01*
X31027070Y-53922967D01*
X30694129Y-53810273D01*
X30687551Y-53808437D01*
X30344417Y-53732367D01*
X30337678Y-53731251D01*
X29988310Y-53692680D01*
X29981529Y-53692301D01*
X29630015Y-53691687D01*
X29623242Y-53692042D01*
X29273720Y-53729395D01*
X29267010Y-53730482D01*
X28923586Y-53805361D01*
X28917011Y-53807172D01*
X28583683Y-53918702D01*
X28577361Y-53921205D01*
X28258034Y-54068079D01*
X28251991Y-54071265D01*
X27950401Y-54251763D01*
X27944755Y-54255571D01*
X27664408Y-54467596D01*
X27659211Y-54471987D01*
X27657972Y-54473155D01*
X27649950Y-54486862D01*
X25931885Y-54486862D01*
X25740155Y-53897941D01*
X25738621Y-53892869D01*
X25587487Y-53352432D01*
X25491242Y-53008272D01*
X25489927Y-53003160D01*
X25474076Y-52935651D01*
X25347426Y-52396279D01*
X25279945Y-52108893D01*
X25278843Y-52103710D01*
X25208032Y-51732670D01*
X26432160Y-51732670D01*
X26437887Y-51740320D01*
X26609042Y-51845205D01*
X26617837Y-51849687D01*
X26827988Y-51936734D01*
X26837373Y-51939783D01*
X27058554Y-51992885D01*
X27068301Y-51994428D01*
X27295070Y-52012275D01*
X27304930Y-52012275D01*
X27531699Y-51994428D01*
X27541446Y-51992885D01*
X27762627Y-51939783D01*
X27772012Y-51936734D01*
X27982163Y-51849687D01*
X27990958Y-51845205D01*
X28158445Y-51742568D01*
X28167907Y-51732110D01*
X28164124Y-51723334D01*
X27312812Y-50872022D01*
X27298868Y-50864408D01*
X27297035Y-50864539D01*
X27290420Y-50868790D01*
X26438920Y-51720290D01*
X26432160Y-51732670D01*
X25208032Y-51732670D01*
X25106653Y-51201459D01*
X25105769Y-51196235D01*
X25003745Y-50504930D01*
X25787725Y-50504930D01*
X25805572Y-50731699D01*
X25807115Y-50741446D01*
X25860217Y-50962627D01*
X25863266Y-50972012D01*
X25950313Y-51182163D01*
X25954795Y-51190958D01*
X26057432Y-51358445D01*
X26067890Y-51367907D01*
X26076666Y-51364124D01*
X26927978Y-50512812D01*
X26934356Y-50501132D01*
X27664408Y-50501132D01*
X27664539Y-50502965D01*
X27668790Y-50509580D01*
X28520290Y-51361080D01*
X28532670Y-51367840D01*
X28540320Y-51362113D01*
X28645205Y-51190958D01*
X28649687Y-51182163D01*
X28736734Y-50972012D01*
X28739783Y-50962627D01*
X28792885Y-50741446D01*
X28794428Y-50731699D01*
X28812275Y-50504930D01*
X28812275Y-50500000D01*
X30286835Y-50500000D01*
X30305465Y-50736711D01*
X30306619Y-50741518D01*
X30306620Y-50741524D01*
X30336525Y-50866084D01*
X30360895Y-50967594D01*
X30362788Y-50972165D01*
X30362789Y-50972167D01*
X30449772Y-51182163D01*
X30451760Y-51186963D01*
X30454346Y-51191183D01*
X30573241Y-51385202D01*
X30573245Y-51385208D01*
X30575824Y-51389416D01*
X30730031Y-51569969D01*
X30910584Y-51724176D01*
X30914792Y-51726755D01*
X30914798Y-51726759D01*
X31107234Y-51844684D01*
X31113037Y-51848240D01*
X31117607Y-51850133D01*
X31117611Y-51850135D01*
X31327833Y-51937211D01*
X31332406Y-51939105D01*
X31412609Y-51958360D01*
X31558476Y-51993380D01*
X31558482Y-51993381D01*
X31563289Y-51994535D01*
X31800000Y-52013165D01*
X32036711Y-51994535D01*
X32041518Y-51993381D01*
X32041524Y-51993380D01*
X32187391Y-51958360D01*
X32267594Y-51939105D01*
X32272167Y-51937211D01*
X32482389Y-51850135D01*
X32482393Y-51850133D01*
X32486963Y-51848240D01*
X32492766Y-51844684D01*
X32658826Y-51742922D01*
X32727360Y-51724384D01*
X32795036Y-51745840D01*
X32840369Y-51800479D01*
X32848966Y-51870954D01*
X32846367Y-51882967D01*
X32807882Y-52026590D01*
X32807881Y-52026598D01*
X32806457Y-52031913D01*
X32786502Y-52260000D01*
X32806457Y-52488087D01*
X32807881Y-52493400D01*
X32807881Y-52493402D01*
X32855671Y-52671753D01*
X32865716Y-52709243D01*
X32868039Y-52714224D01*
X32868039Y-52714225D01*
X32960151Y-52911762D01*
X32960154Y-52911767D01*
X32962477Y-52916749D01*
X33093802Y-53104300D01*
X33255700Y-53266198D01*
X33260208Y-53269355D01*
X33260211Y-53269357D01*
X33338389Y-53324098D01*
X33443251Y-53397523D01*
X33448233Y-53399846D01*
X33448238Y-53399849D01*
X33645775Y-53491961D01*
X33650757Y-53494284D01*
X33656065Y-53495706D01*
X33656067Y-53495707D01*
X33866598Y-53552119D01*
X33866600Y-53552119D01*
X33871913Y-53553543D01*
X34100000Y-53573498D01*
X34328087Y-53553543D01*
X34333400Y-53552119D01*
X34333402Y-53552119D01*
X34543933Y-53495707D01*
X34543935Y-53495706D01*
X34549243Y-53494284D01*
X34554225Y-53491961D01*
X34751762Y-53399849D01*
X34751767Y-53399846D01*
X34756749Y-53397523D01*
X34861611Y-53324098D01*
X34939789Y-53269357D01*
X34939792Y-53269355D01*
X34944300Y-53266198D01*
X35106198Y-53104300D01*
X35237523Y-52916749D01*
X35239846Y-52911767D01*
X35239849Y-52911762D01*
X35331961Y-52714225D01*
X35331961Y-52714224D01*
X35334284Y-52709243D01*
X35344330Y-52671753D01*
X35392119Y-52493402D01*
X35392119Y-52493400D01*
X35393543Y-52488087D01*
X35413498Y-52260000D01*
X35393543Y-52031913D01*
X35389528Y-52016929D01*
X35335707Y-51816067D01*
X35335706Y-51816065D01*
X35334284Y-51810757D01*
X35314566Y-51768471D01*
X35239849Y-51608238D01*
X35239846Y-51608233D01*
X35237523Y-51603251D01*
X35140437Y-51464598D01*
X35109357Y-51420211D01*
X35109355Y-51420208D01*
X35106198Y-51415700D01*
X34944300Y-51253802D01*
X34939792Y-51250645D01*
X34939789Y-51250643D01*
X34838300Y-51179580D01*
X34756749Y-51122477D01*
X34751767Y-51120154D01*
X34751762Y-51120151D01*
X34554225Y-51028039D01*
X34554224Y-51028039D01*
X34549243Y-51025716D01*
X34543935Y-51024294D01*
X34543933Y-51024293D01*
X34333402Y-50967881D01*
X34333400Y-50967881D01*
X34328087Y-50966457D01*
X34100000Y-50946502D01*
X33871913Y-50966457D01*
X33866600Y-50967881D01*
X33866598Y-50967881D01*
X33656067Y-51024293D01*
X33656065Y-51024294D01*
X33650757Y-51025716D01*
X33645776Y-51028039D01*
X33645775Y-51028039D01*
X33448238Y-51120151D01*
X33448233Y-51120154D01*
X33443251Y-51122477D01*
X33438741Y-51125635D01*
X33419454Y-51139140D01*
X33352180Y-51161829D01*
X33283320Y-51144545D01*
X33234735Y-51092776D01*
X33221851Y-51022958D01*
X33230773Y-50987711D01*
X33237209Y-50972173D01*
X33237211Y-50972165D01*
X33239105Y-50967594D01*
X33263475Y-50866084D01*
X33293380Y-50741524D01*
X33293381Y-50741518D01*
X33294535Y-50736711D01*
X33313165Y-50500000D01*
X33294535Y-50263289D01*
X33292490Y-50254767D01*
X33256631Y-50105408D01*
X33239105Y-50032406D01*
X33237211Y-50027833D01*
X33150135Y-49817611D01*
X33150133Y-49817607D01*
X33148240Y-49813037D01*
X33109146Y-49749242D01*
X33026759Y-49614798D01*
X33026755Y-49614792D01*
X33024176Y-49610584D01*
X32869969Y-49430031D01*
X32853354Y-49415840D01*
X32833798Y-49399138D01*
X32689416Y-49275824D01*
X32685208Y-49273245D01*
X32685202Y-49273241D01*
X32491183Y-49154346D01*
X32486963Y-49151760D01*
X32482393Y-49149867D01*
X32482389Y-49149865D01*
X32272167Y-49062789D01*
X32272165Y-49062788D01*
X32267594Y-49060895D01*
X32170272Y-49037530D01*
X32041524Y-49006620D01*
X32041518Y-49006619D01*
X32036711Y-49005465D01*
X31800000Y-48986835D01*
X31563289Y-49005465D01*
X31558482Y-49006619D01*
X31558476Y-49006620D01*
X31429728Y-49037530D01*
X31332406Y-49060895D01*
X31327835Y-49062788D01*
X31327833Y-49062789D01*
X31117611Y-49149865D01*
X31117607Y-49149867D01*
X31113037Y-49151760D01*
X31108817Y-49154346D01*
X30914798Y-49273241D01*
X30914792Y-49273245D01*
X30910584Y-49275824D01*
X30766202Y-49399138D01*
X30746647Y-49415840D01*
X30730031Y-49430031D01*
X30575824Y-49610584D01*
X30573245Y-49614792D01*
X30573241Y-49614798D01*
X30490854Y-49749242D01*
X30451760Y-49813037D01*
X30449867Y-49817607D01*
X30449865Y-49817611D01*
X30362789Y-50027833D01*
X30360895Y-50032406D01*
X30343369Y-50105408D01*
X30307511Y-50254767D01*
X30305465Y-50263289D01*
X30286835Y-50500000D01*
X28812275Y-50500000D01*
X28812275Y-50495070D01*
X28794428Y-50268301D01*
X28792885Y-50258554D01*
X28739783Y-50037373D01*
X28736734Y-50027988D01*
X28649687Y-49817837D01*
X28645205Y-49809042D01*
X28542568Y-49641555D01*
X28532110Y-49632093D01*
X28523334Y-49635876D01*
X27672022Y-50487188D01*
X27664408Y-50501132D01*
X26934356Y-50501132D01*
X26935592Y-50498868D01*
X26935461Y-50497035D01*
X26931210Y-50490420D01*
X26079710Y-49638920D01*
X26067330Y-49632160D01*
X26059680Y-49637887D01*
X25954795Y-49809042D01*
X25950313Y-49817837D01*
X25863266Y-50027988D01*
X25860217Y-50037373D01*
X25807115Y-50258554D01*
X25805572Y-50268301D01*
X25787725Y-50495070D01*
X25787725Y-50504930D01*
X25003745Y-50504930D01*
X24971657Y-50287503D01*
X24970994Y-50282246D01*
X24970985Y-50282158D01*
X24875208Y-49368694D01*
X24874767Y-49363430D01*
X24870720Y-49298665D01*
X24868797Y-49267890D01*
X26432093Y-49267890D01*
X26435876Y-49276666D01*
X27287188Y-50127978D01*
X27301132Y-50135592D01*
X27302965Y-50135461D01*
X27309580Y-50131210D01*
X28161080Y-49279710D01*
X28167840Y-49267330D01*
X28162113Y-49259680D01*
X27990958Y-49154795D01*
X27982163Y-49150313D01*
X27772012Y-49063266D01*
X27762627Y-49060217D01*
X27541446Y-49007115D01*
X27531699Y-49005572D01*
X27304930Y-48987725D01*
X27295070Y-48987725D01*
X27068301Y-49005572D01*
X27058554Y-49007115D01*
X26837373Y-49060217D01*
X26827988Y-49063266D01*
X26617837Y-49150313D01*
X26609042Y-49154795D01*
X26441555Y-49257432D01*
X26432093Y-49267890D01*
X24868797Y-49267890D01*
X24817472Y-48446645D01*
X24817253Y-48441351D01*
X24799435Y-47566334D01*
X24800922Y-47544304D01*
X24802345Y-47535203D01*
X24802345Y-47535199D01*
X24803687Y-47526618D01*
X24803665Y-47526446D01*
X24803691Y-47526276D01*
X24800341Y-47500655D01*
X24799305Y-47481675D01*
X24817833Y-46599801D01*
X24818054Y-46594526D01*
X24818226Y-46591811D01*
X24875849Y-45678595D01*
X24876293Y-45673323D01*
X24900732Y-45441492D01*
X24922745Y-45232670D01*
X26432160Y-45232670D01*
X26437887Y-45240320D01*
X26609042Y-45345205D01*
X26617837Y-45349687D01*
X26827988Y-45436734D01*
X26837373Y-45439783D01*
X27058554Y-45492885D01*
X27068301Y-45494428D01*
X27295070Y-45512275D01*
X27304930Y-45512275D01*
X27531699Y-45494428D01*
X27541446Y-45492885D01*
X27762627Y-45439783D01*
X27772012Y-45436734D01*
X27982163Y-45349687D01*
X27990958Y-45345205D01*
X28158445Y-45242568D01*
X28167907Y-45232110D01*
X28164124Y-45223334D01*
X27312812Y-44372022D01*
X27298868Y-44364408D01*
X27297035Y-44364539D01*
X27290420Y-44368790D01*
X26438920Y-45220290D01*
X26432160Y-45232670D01*
X24922745Y-45232670D01*
X24972508Y-44760606D01*
X24973173Y-44755361D01*
X24990301Y-44639719D01*
X24998813Y-44582242D01*
X25084318Y-44004930D01*
X25787725Y-44004930D01*
X25805572Y-44231699D01*
X25807115Y-44241446D01*
X25860217Y-44462627D01*
X25863266Y-44472012D01*
X25950313Y-44682163D01*
X25954795Y-44690958D01*
X26057432Y-44858445D01*
X26067890Y-44867907D01*
X26076666Y-44864124D01*
X26927978Y-44012812D01*
X26934356Y-44001132D01*
X27664408Y-44001132D01*
X27664539Y-44002965D01*
X27668790Y-44009580D01*
X28520290Y-44861080D01*
X28532670Y-44867840D01*
X28540320Y-44862113D01*
X28645205Y-44690958D01*
X28649687Y-44682163D01*
X28736734Y-44472012D01*
X28739783Y-44462627D01*
X28792885Y-44241446D01*
X28794428Y-44231699D01*
X28812275Y-44004930D01*
X28812275Y-43995070D01*
X28794428Y-43768301D01*
X28792885Y-43758554D01*
X28739783Y-43537373D01*
X28736734Y-43527988D01*
X28649687Y-43317837D01*
X28645205Y-43309042D01*
X28542568Y-43141555D01*
X28532110Y-43132093D01*
X28523334Y-43135876D01*
X27672022Y-43987188D01*
X27664408Y-44001132D01*
X26934356Y-44001132D01*
X26935592Y-43998868D01*
X26935461Y-43997035D01*
X26931210Y-43990420D01*
X26079710Y-43138920D01*
X26067330Y-43132160D01*
X26059680Y-43137887D01*
X25954795Y-43309042D01*
X25950313Y-43317837D01*
X25863266Y-43527988D01*
X25860217Y-43537373D01*
X25807115Y-43758554D01*
X25805572Y-43768301D01*
X25787725Y-43995070D01*
X25787725Y-44004930D01*
X25084318Y-44004930D01*
X25107629Y-43847536D01*
X25108514Y-43842318D01*
X25280983Y-42940910D01*
X25282087Y-42935733D01*
X25321574Y-42767890D01*
X26432093Y-42767890D01*
X26435876Y-42776666D01*
X27287188Y-43627978D01*
X27301132Y-43635592D01*
X27302965Y-43635461D01*
X27309580Y-43631210D01*
X28161080Y-42779710D01*
X28167840Y-42767330D01*
X28162113Y-42759680D01*
X27990958Y-42654795D01*
X27982163Y-42650313D01*
X27772012Y-42563266D01*
X27762627Y-42560217D01*
X27541446Y-42507115D01*
X27531699Y-42505572D01*
X27304930Y-42487725D01*
X27295070Y-42487725D01*
X27068301Y-42505572D01*
X27058554Y-42507115D01*
X26837373Y-42560217D01*
X26827988Y-42563266D01*
X26617837Y-42650313D01*
X26609042Y-42654795D01*
X26441555Y-42757432D01*
X26432093Y-42767890D01*
X25321574Y-42767890D01*
X25492258Y-42042385D01*
X25493578Y-42037259D01*
X25601824Y-41650757D01*
X25741090Y-41153499D01*
X25742618Y-41148452D01*
X25752335Y-41118642D01*
X25948636Y-40516381D01*
X27649160Y-40516381D01*
X27649237Y-40517470D01*
X27651698Y-40521206D01*
X27925632Y-40731404D01*
X27931262Y-40735259D01*
X28231591Y-40917862D01*
X28237593Y-40921080D01*
X28555897Y-41070184D01*
X28562202Y-41072732D01*
X28894743Y-41186587D01*
X28901313Y-41188446D01*
X29244183Y-41265714D01*
X29250912Y-41266853D01*
X29600143Y-41306643D01*
X29606933Y-41307046D01*
X29958419Y-41308886D01*
X29965220Y-41308554D01*
X30314853Y-41272423D01*
X30321581Y-41271357D01*
X30665274Y-41197676D01*
X30671822Y-41195897D01*
X31005549Y-41085527D01*
X31011891Y-41083041D01*
X31331718Y-40937288D01*
X31337777Y-40934121D01*
X31639995Y-40754676D01*
X31645659Y-40750884D01*
X31926732Y-40539849D01*
X31931958Y-40535464D01*
X31941613Y-40526428D01*
X31949682Y-40512750D01*
X31949654Y-40512024D01*
X31944512Y-40503723D01*
X29812810Y-38372020D01*
X29798869Y-38364408D01*
X29797034Y-38364539D01*
X29790420Y-38368790D01*
X27656774Y-40502437D01*
X27649160Y-40516381D01*
X25948636Y-40516381D01*
X26027022Y-40275890D01*
X26028767Y-40270895D01*
X26349575Y-39411024D01*
X26351528Y-39406105D01*
X26462547Y-39142863D01*
X26507449Y-39087869D01*
X26574954Y-39065880D01*
X26643632Y-39083878D01*
X26691676Y-39136149D01*
X26695878Y-39145647D01*
X26786581Y-39375912D01*
X26789412Y-39382095D01*
X26952803Y-39693310D01*
X26956286Y-39699152D01*
X27152330Y-39990896D01*
X27156433Y-39996340D01*
X27276425Y-40138836D01*
X27289164Y-40147279D01*
X27299608Y-40141181D01*
X29427980Y-38012810D01*
X29434357Y-38001131D01*
X30164408Y-38001131D01*
X30164539Y-38002966D01*
X30168790Y-38009580D01*
X32299009Y-40139798D01*
X32312605Y-40147223D01*
X32322218Y-40140522D01*
X32422518Y-40023912D01*
X32426676Y-40018514D01*
X32625762Y-39728840D01*
X32629310Y-39723029D01*
X32795942Y-39413559D01*
X32798849Y-39407381D01*
X32931090Y-39081713D01*
X32933304Y-39075283D01*
X33029598Y-38737237D01*
X33031105Y-38730607D01*
X33090332Y-38384118D01*
X33091112Y-38377378D01*
X33112668Y-38024925D01*
X33112784Y-38021323D01*
X33112853Y-38001819D01*
X33112761Y-37998194D01*
X33093666Y-37645615D01*
X33092931Y-37638849D01*
X33036130Y-37291985D01*
X33034663Y-37285313D01*
X32940736Y-36946627D01*
X32938562Y-36940163D01*
X32808598Y-36613578D01*
X32805742Y-36607398D01*
X32641269Y-36296763D01*
X32637769Y-36290937D01*
X32440697Y-35999862D01*
X32436590Y-35994453D01*
X32323565Y-35861179D01*
X32310740Y-35852743D01*
X32300416Y-35858795D01*
X30172020Y-37987190D01*
X30164408Y-38001131D01*
X29434357Y-38001131D01*
X29435592Y-37998869D01*
X29435461Y-37997034D01*
X29431210Y-37990420D01*
X28049203Y-36608413D01*
X28015177Y-36546101D01*
X28020242Y-36475286D01*
X28049203Y-36430223D01*
X28230223Y-36249203D01*
X28292535Y-36215177D01*
X28363350Y-36220242D01*
X28408413Y-36249203D01*
X29787188Y-37627978D01*
X29801132Y-37635592D01*
X29802965Y-37635461D01*
X29809580Y-37631210D01*
X31942798Y-35497991D01*
X31950412Y-35484047D01*
X31950344Y-35483089D01*
X31945836Y-35476272D01*
X31944418Y-35475065D01*
X31664813Y-35262064D01*
X31659187Y-35258240D01*
X31358214Y-35076681D01*
X31352202Y-35073484D01*
X31193894Y-35000000D01*
X48706502Y-35000000D01*
X48726457Y-35228087D01*
X48727881Y-35233400D01*
X48727881Y-35233402D01*
X48771544Y-35396351D01*
X48785716Y-35449243D01*
X48788039Y-35454224D01*
X48788039Y-35454225D01*
X48880151Y-35651762D01*
X48880154Y-35651767D01*
X48882477Y-35656749D01*
X49013802Y-35844300D01*
X49175700Y-36006198D01*
X49180208Y-36009355D01*
X49180211Y-36009357D01*
X49258389Y-36064098D01*
X49363251Y-36137523D01*
X49368233Y-36139846D01*
X49368238Y-36139849D01*
X49565775Y-36231961D01*
X49570757Y-36234284D01*
X49576065Y-36235706D01*
X49576067Y-36235707D01*
X49786598Y-36292119D01*
X49786600Y-36292119D01*
X49791913Y-36293543D01*
X50020000Y-36313498D01*
X50248087Y-36293543D01*
X50253400Y-36292119D01*
X50253402Y-36292119D01*
X50463933Y-36235707D01*
X50463935Y-36235706D01*
X50469243Y-36234284D01*
X50474225Y-36231961D01*
X50671762Y-36139849D01*
X50671767Y-36139846D01*
X50676749Y-36137523D01*
X50781611Y-36064098D01*
X50859789Y-36009357D01*
X50859792Y-36009355D01*
X50864300Y-36006198D01*
X51026198Y-35844300D01*
X51157523Y-35656749D01*
X51159846Y-35651767D01*
X51159849Y-35651762D01*
X51251961Y-35454225D01*
X51251961Y-35454224D01*
X51254284Y-35449243D01*
X51268457Y-35396351D01*
X51312119Y-35233402D01*
X51312119Y-35233400D01*
X51313543Y-35228087D01*
X51333498Y-35000000D01*
X58866502Y-35000000D01*
X58886457Y-35228087D01*
X58887881Y-35233400D01*
X58887881Y-35233402D01*
X58931544Y-35396351D01*
X58945716Y-35449243D01*
X58948039Y-35454224D01*
X58948039Y-35454225D01*
X59040151Y-35651762D01*
X59040154Y-35651767D01*
X59042477Y-35656749D01*
X59173802Y-35844300D01*
X59335700Y-36006198D01*
X59340208Y-36009355D01*
X59340211Y-36009357D01*
X59418389Y-36064098D01*
X59523251Y-36137523D01*
X59528233Y-36139846D01*
X59528238Y-36139849D01*
X59725775Y-36231961D01*
X59730757Y-36234284D01*
X59736065Y-36235706D01*
X59736067Y-36235707D01*
X59946598Y-36292119D01*
X59946600Y-36292119D01*
X59951913Y-36293543D01*
X60180000Y-36313498D01*
X60408087Y-36293543D01*
X60413400Y-36292119D01*
X60413402Y-36292119D01*
X60623933Y-36235707D01*
X60623935Y-36235706D01*
X60629243Y-36234284D01*
X60634225Y-36231961D01*
X60831762Y-36139849D01*
X60831767Y-36139846D01*
X60836749Y-36137523D01*
X60941611Y-36064098D01*
X61019789Y-36009357D01*
X61019792Y-36009355D01*
X61024300Y-36006198D01*
X61186198Y-35844300D01*
X61317523Y-35656749D01*
X61319846Y-35651767D01*
X61319849Y-35651762D01*
X61411961Y-35454225D01*
X61411961Y-35454224D01*
X61414284Y-35449243D01*
X61428457Y-35396351D01*
X61472119Y-35233402D01*
X61472119Y-35233400D01*
X61473543Y-35228087D01*
X61493498Y-35000000D01*
X61473543Y-34771913D01*
X61472119Y-34766598D01*
X61415707Y-34556067D01*
X61415706Y-34556065D01*
X61414284Y-34550757D01*
X61322110Y-34353087D01*
X61319849Y-34348238D01*
X61319846Y-34348233D01*
X61317523Y-34343251D01*
X61186198Y-34155700D01*
X61024300Y-33993802D01*
X61019792Y-33990645D01*
X61019789Y-33990643D01*
X60926429Y-33925272D01*
X60836749Y-33862477D01*
X60831767Y-33860154D01*
X60831762Y-33860151D01*
X60634225Y-33768039D01*
X60634224Y-33768039D01*
X60629243Y-33765716D01*
X60623935Y-33764294D01*
X60623933Y-33764293D01*
X60413402Y-33707881D01*
X60413400Y-33707881D01*
X60408087Y-33706457D01*
X60180000Y-33686502D01*
X59951913Y-33706457D01*
X59946600Y-33707881D01*
X59946598Y-33707881D01*
X59736067Y-33764293D01*
X59736065Y-33764294D01*
X59730757Y-33765716D01*
X59725776Y-33768039D01*
X59725775Y-33768039D01*
X59528238Y-33860151D01*
X59528233Y-33860154D01*
X59523251Y-33862477D01*
X59433571Y-33925272D01*
X59340211Y-33990643D01*
X59340208Y-33990645D01*
X59335700Y-33993802D01*
X59173802Y-34155700D01*
X59042477Y-34343251D01*
X59040154Y-34348233D01*
X59040151Y-34348238D01*
X59037890Y-34353087D01*
X58945716Y-34550757D01*
X58944294Y-34556065D01*
X58944293Y-34556067D01*
X58887881Y-34766598D01*
X58886457Y-34771913D01*
X58866502Y-35000000D01*
X51333498Y-35000000D01*
X51313543Y-34771913D01*
X51312119Y-34766598D01*
X51255707Y-34556067D01*
X51255706Y-34556065D01*
X51254284Y-34550757D01*
X51162110Y-34353087D01*
X51159849Y-34348238D01*
X51159846Y-34348233D01*
X51157523Y-34343251D01*
X51026198Y-34155700D01*
X50864300Y-33993802D01*
X50859792Y-33990645D01*
X50859789Y-33990643D01*
X50766429Y-33925272D01*
X50676749Y-33862477D01*
X50671767Y-33860154D01*
X50671762Y-33860151D01*
X50474225Y-33768039D01*
X50474224Y-33768039D01*
X50469243Y-33765716D01*
X50463935Y-33764294D01*
X50463933Y-33764293D01*
X50253402Y-33707881D01*
X50253400Y-33707881D01*
X50248087Y-33706457D01*
X50020000Y-33686502D01*
X49791913Y-33706457D01*
X49786600Y-33707881D01*
X49786598Y-33707881D01*
X49576067Y-33764293D01*
X49576065Y-33764294D01*
X49570757Y-33765716D01*
X49565776Y-33768039D01*
X49565775Y-33768039D01*
X49368238Y-33860151D01*
X49368233Y-33860154D01*
X49363251Y-33862477D01*
X49273571Y-33925272D01*
X49180211Y-33990643D01*
X49180208Y-33990645D01*
X49175700Y-33993802D01*
X49013802Y-34155700D01*
X48882477Y-34343251D01*
X48880154Y-34348233D01*
X48880151Y-34348238D01*
X48877890Y-34353087D01*
X48785716Y-34550757D01*
X48784294Y-34556065D01*
X48784293Y-34556067D01*
X48727881Y-34766598D01*
X48726457Y-34771913D01*
X48706502Y-35000000D01*
X31193894Y-35000000D01*
X31033370Y-34925487D01*
X31027070Y-34922967D01*
X30694129Y-34810273D01*
X30687551Y-34808437D01*
X30344417Y-34732367D01*
X30337678Y-34731251D01*
X29988310Y-34692680D01*
X29981529Y-34692301D01*
X29630015Y-34691687D01*
X29623242Y-34692042D01*
X29273720Y-34729395D01*
X29267011Y-34730482D01*
X29159025Y-34754027D01*
X29088207Y-34748996D01*
X29031351Y-34706476D01*
X29006508Y-34639968D01*
X29021567Y-34570587D01*
X29031966Y-34554548D01*
X29576728Y-33839686D01*
X29580024Y-33835545D01*
X30166431Y-33129624D01*
X30169897Y-33125624D01*
X30653287Y-32591083D01*
X30785484Y-32444898D01*
X30789112Y-32441052D01*
X30835803Y-32393590D01*
X31083517Y-32141782D01*
X31321368Y-31900000D01*
X41986835Y-31900000D01*
X42005465Y-32136711D01*
X42006619Y-32141518D01*
X42006620Y-32141524D01*
X42019861Y-32196674D01*
X42060895Y-32367594D01*
X42062788Y-32372165D01*
X42062789Y-32372167D01*
X42145308Y-32571386D01*
X42151760Y-32586963D01*
X42154346Y-32591183D01*
X42273241Y-32785202D01*
X42273245Y-32785208D01*
X42275824Y-32789416D01*
X42430031Y-32969969D01*
X42610584Y-33124176D01*
X42614792Y-33126755D01*
X42614798Y-33126759D01*
X42789876Y-33234047D01*
X42813037Y-33248240D01*
X42817607Y-33250133D01*
X42817611Y-33250135D01*
X43027833Y-33337211D01*
X43032406Y-33339105D01*
X43112609Y-33358360D01*
X43258476Y-33393380D01*
X43258482Y-33393381D01*
X43263289Y-33394535D01*
X43500000Y-33413165D01*
X43736711Y-33394535D01*
X43741518Y-33393381D01*
X43741524Y-33393380D01*
X43887391Y-33358360D01*
X43967594Y-33339105D01*
X43972167Y-33337211D01*
X44182389Y-33250135D01*
X44182393Y-33250133D01*
X44186963Y-33248240D01*
X44210124Y-33234047D01*
X44385202Y-33126759D01*
X44385208Y-33126755D01*
X44389416Y-33124176D01*
X44569969Y-32969969D01*
X44724176Y-32789416D01*
X44726755Y-32785208D01*
X44726759Y-32785202D01*
X44845654Y-32591183D01*
X44848240Y-32586963D01*
X44854693Y-32571386D01*
X44937211Y-32372167D01*
X44937212Y-32372165D01*
X44939105Y-32367594D01*
X44980139Y-32196674D01*
X44993380Y-32141524D01*
X44993381Y-32141518D01*
X44994535Y-32136711D01*
X45013165Y-31900000D01*
X48486835Y-31900000D01*
X48505465Y-32136711D01*
X48506619Y-32141518D01*
X48506620Y-32141524D01*
X48519861Y-32196674D01*
X48560895Y-32367594D01*
X48562788Y-32372165D01*
X48562789Y-32372167D01*
X48645308Y-32571386D01*
X48651760Y-32586963D01*
X48654346Y-32591183D01*
X48773241Y-32785202D01*
X48773245Y-32785208D01*
X48775824Y-32789416D01*
X48930031Y-32969969D01*
X49110584Y-33124176D01*
X49114792Y-33126755D01*
X49114798Y-33126759D01*
X49289876Y-33234047D01*
X49313037Y-33248240D01*
X49317607Y-33250133D01*
X49317611Y-33250135D01*
X49527833Y-33337211D01*
X49532406Y-33339105D01*
X49612609Y-33358360D01*
X49758476Y-33393380D01*
X49758482Y-33393381D01*
X49763289Y-33394535D01*
X50000000Y-33413165D01*
X50236711Y-33394535D01*
X50241518Y-33393381D01*
X50241524Y-33393380D01*
X50387391Y-33358360D01*
X50467594Y-33339105D01*
X50472167Y-33337211D01*
X50682389Y-33250135D01*
X50682393Y-33250133D01*
X50686963Y-33248240D01*
X50710124Y-33234047D01*
X50885202Y-33126759D01*
X50885208Y-33126755D01*
X50889416Y-33124176D01*
X51069969Y-32969969D01*
X51224176Y-32789416D01*
X51226755Y-32785208D01*
X51226759Y-32785202D01*
X51345654Y-32591183D01*
X51348240Y-32586963D01*
X51354693Y-32571386D01*
X51437211Y-32372167D01*
X51437212Y-32372165D01*
X51439105Y-32367594D01*
X51480139Y-32196674D01*
X51493380Y-32141524D01*
X51493381Y-32141518D01*
X51494535Y-32136711D01*
X51513165Y-31900000D01*
X51494535Y-31663289D01*
X51439105Y-31432406D01*
X51427041Y-31403281D01*
X51350135Y-31217611D01*
X51350133Y-31217607D01*
X51348240Y-31213037D01*
X51311422Y-31152956D01*
X51226759Y-31014798D01*
X51226755Y-31014792D01*
X51224176Y-31010584D01*
X51069969Y-30830031D01*
X50889416Y-30675824D01*
X50885208Y-30673245D01*
X50885202Y-30673241D01*
X50691183Y-30554346D01*
X50686963Y-30551760D01*
X50682393Y-30549867D01*
X50682389Y-30549865D01*
X50472167Y-30462789D01*
X50472165Y-30462788D01*
X50467594Y-30460895D01*
X50387391Y-30441640D01*
X50241524Y-30406620D01*
X50241518Y-30406619D01*
X50236711Y-30405465D01*
X50000000Y-30386835D01*
X49763289Y-30405465D01*
X49758482Y-30406619D01*
X49758476Y-30406620D01*
X49612609Y-30441640D01*
X49532406Y-30460895D01*
X49527835Y-30462788D01*
X49527833Y-30462789D01*
X49317611Y-30549865D01*
X49317607Y-30549867D01*
X49313037Y-30551760D01*
X49308817Y-30554346D01*
X49114798Y-30673241D01*
X49114792Y-30673245D01*
X49110584Y-30675824D01*
X48930031Y-30830031D01*
X48775824Y-31010584D01*
X48773245Y-31014792D01*
X48773241Y-31014798D01*
X48688578Y-31152956D01*
X48651760Y-31213037D01*
X48649867Y-31217607D01*
X48649865Y-31217611D01*
X48572959Y-31403281D01*
X48560895Y-31432406D01*
X48505465Y-31663289D01*
X48486835Y-31900000D01*
X45013165Y-31900000D01*
X44994535Y-31663289D01*
X44939105Y-31432406D01*
X44927041Y-31403281D01*
X44850135Y-31217611D01*
X44850133Y-31217607D01*
X44848240Y-31213037D01*
X44811422Y-31152956D01*
X44726759Y-31014798D01*
X44726755Y-31014792D01*
X44724176Y-31010584D01*
X44569969Y-30830031D01*
X44389416Y-30675824D01*
X44385208Y-30673245D01*
X44385202Y-30673241D01*
X44191183Y-30554346D01*
X44186963Y-30551760D01*
X44182393Y-30549867D01*
X44182389Y-30549865D01*
X43972167Y-30462789D01*
X43972165Y-30462788D01*
X43967594Y-30460895D01*
X43887391Y-30441640D01*
X43741524Y-30406620D01*
X43741518Y-30406619D01*
X43736711Y-30405465D01*
X43500000Y-30386835D01*
X43263289Y-30405465D01*
X43258482Y-30406619D01*
X43258476Y-30406620D01*
X43112609Y-30441640D01*
X43032406Y-30460895D01*
X43027835Y-30462788D01*
X43027833Y-30462789D01*
X42817611Y-30549865D01*
X42817607Y-30549867D01*
X42813037Y-30551760D01*
X42808817Y-30554346D01*
X42614798Y-30673241D01*
X42614792Y-30673245D01*
X42610584Y-30675824D01*
X42430031Y-30830031D01*
X42275824Y-31010584D01*
X42273245Y-31014792D01*
X42273241Y-31014798D01*
X42188578Y-31152956D01*
X42151760Y-31213037D01*
X42149867Y-31217607D01*
X42149865Y-31217611D01*
X42072959Y-31403281D01*
X42060895Y-31432406D01*
X42005465Y-31663289D01*
X41986835Y-31900000D01*
X31321368Y-31900000D01*
X31432713Y-31786815D01*
X31436504Y-31783120D01*
X31811776Y-31432406D01*
X32107023Y-31156481D01*
X32110957Y-31152956D01*
X32482609Y-30833787D01*
X32807204Y-30555029D01*
X32811291Y-30551666D01*
X32995291Y-30406620D01*
X33532044Y-29983502D01*
X33536231Y-29980342D01*
X34280214Y-29442948D01*
X34284568Y-29439940D01*
X34887673Y-29041746D01*
X35050458Y-28934269D01*
X35054930Y-28931450D01*
X35551647Y-28632670D01*
X42632160Y-28632670D01*
X42637887Y-28640320D01*
X42809042Y-28745205D01*
X42817837Y-28749687D01*
X43027988Y-28836734D01*
X43037373Y-28839783D01*
X43258554Y-28892885D01*
X43268301Y-28894428D01*
X43495070Y-28912275D01*
X43504930Y-28912275D01*
X43731699Y-28894428D01*
X43741446Y-28892885D01*
X43962627Y-28839783D01*
X43972012Y-28836734D01*
X44182163Y-28749687D01*
X44190958Y-28745205D01*
X44358445Y-28642568D01*
X44367400Y-28632670D01*
X49132160Y-28632670D01*
X49137887Y-28640320D01*
X49309042Y-28745205D01*
X49317837Y-28749687D01*
X49527988Y-28836734D01*
X49537373Y-28839783D01*
X49758554Y-28892885D01*
X49768301Y-28894428D01*
X49995070Y-28912275D01*
X50004930Y-28912275D01*
X50231699Y-28894428D01*
X50241446Y-28892885D01*
X50462627Y-28839783D01*
X50472012Y-28836734D01*
X50682163Y-28749687D01*
X50690958Y-28745205D01*
X50858445Y-28642568D01*
X50867907Y-28632110D01*
X50864124Y-28623334D01*
X50012812Y-27772022D01*
X49998868Y-27764408D01*
X49997035Y-27764539D01*
X49990420Y-27768790D01*
X49138920Y-28620290D01*
X49132160Y-28632670D01*
X44367400Y-28632670D01*
X44367907Y-28632110D01*
X44364124Y-28623334D01*
X43512812Y-27772022D01*
X43498868Y-27764408D01*
X43497035Y-27764539D01*
X43490420Y-27768790D01*
X42638920Y-28620290D01*
X42632160Y-28632670D01*
X35551647Y-28632670D01*
X35841352Y-28458410D01*
X35845944Y-28455777D01*
X36651567Y-28016168D01*
X36656265Y-28013731D01*
X36880770Y-27903197D01*
X37479646Y-27608342D01*
X37484443Y-27606105D01*
X37736816Y-27494763D01*
X37940435Y-27404930D01*
X41987725Y-27404930D01*
X42005572Y-27631699D01*
X42007115Y-27641446D01*
X42060217Y-27862627D01*
X42063266Y-27872012D01*
X42150313Y-28082163D01*
X42154795Y-28090958D01*
X42257432Y-28258445D01*
X42267890Y-28267907D01*
X42276666Y-28264124D01*
X43127978Y-27412812D01*
X43134356Y-27401132D01*
X43864408Y-27401132D01*
X43864539Y-27402965D01*
X43868790Y-27409580D01*
X44720290Y-28261080D01*
X44732670Y-28267840D01*
X44740320Y-28262113D01*
X44845205Y-28090958D01*
X44849687Y-28082163D01*
X44936734Y-27872012D01*
X44939783Y-27862627D01*
X44992885Y-27641446D01*
X44994428Y-27631699D01*
X45012275Y-27404930D01*
X48487725Y-27404930D01*
X48505572Y-27631699D01*
X48507115Y-27641446D01*
X48560217Y-27862627D01*
X48563266Y-27872012D01*
X48650313Y-28082163D01*
X48654795Y-28090958D01*
X48757432Y-28258445D01*
X48767890Y-28267907D01*
X48776666Y-28264124D01*
X49627978Y-27412812D01*
X49634356Y-27401132D01*
X50364408Y-27401132D01*
X50364539Y-27402965D01*
X50368790Y-27409580D01*
X51220290Y-28261080D01*
X51232670Y-28267840D01*
X51240320Y-28262113D01*
X51345205Y-28090958D01*
X51349687Y-28082163D01*
X51436734Y-27872012D01*
X51439783Y-27862627D01*
X51492885Y-27641446D01*
X51494428Y-27631699D01*
X51512275Y-27404930D01*
X51512275Y-27395070D01*
X51494428Y-27168301D01*
X51492885Y-27158554D01*
X51439783Y-26937373D01*
X51436734Y-26927988D01*
X51349687Y-26717837D01*
X51345205Y-26709042D01*
X51242568Y-26541555D01*
X51232110Y-26532093D01*
X51223334Y-26535876D01*
X50372022Y-27387188D01*
X50364408Y-27401132D01*
X49634356Y-27401132D01*
X49635592Y-27398868D01*
X49635461Y-27397035D01*
X49631210Y-27390420D01*
X48779710Y-26538920D01*
X48767330Y-26532160D01*
X48759680Y-26537887D01*
X48654795Y-26709042D01*
X48650313Y-26717837D01*
X48563266Y-26927988D01*
X48560217Y-26937373D01*
X48507115Y-27158554D01*
X48505572Y-27168301D01*
X48487725Y-27395070D01*
X48487725Y-27404930D01*
X45012275Y-27404930D01*
X45012275Y-27395070D01*
X44994428Y-27168301D01*
X44992885Y-27158554D01*
X44939783Y-26937373D01*
X44936734Y-26927988D01*
X44849687Y-26717837D01*
X44845205Y-26709042D01*
X44742568Y-26541555D01*
X44732110Y-26532093D01*
X44723334Y-26535876D01*
X43872022Y-27387188D01*
X43864408Y-27401132D01*
X43134356Y-27401132D01*
X43135592Y-27398868D01*
X43135461Y-27397035D01*
X43131210Y-27390420D01*
X42279710Y-26538920D01*
X42267330Y-26532160D01*
X42259680Y-26537887D01*
X42154795Y-26709042D01*
X42150313Y-26717837D01*
X42063266Y-26927988D01*
X42060217Y-26937373D01*
X42007115Y-27158554D01*
X42005572Y-27168301D01*
X41987725Y-27395070D01*
X41987725Y-27404930D01*
X37940435Y-27404930D01*
X38324090Y-27235669D01*
X38328938Y-27233650D01*
X39183483Y-26898773D01*
X39188413Y-26896960D01*
X40056219Y-26598285D01*
X40061254Y-26596670D01*
X40258627Y-26537887D01*
X40757136Y-26389417D01*
X40940816Y-26334712D01*
X40945919Y-26333308D01*
X41553914Y-26179710D01*
X41835735Y-26108514D01*
X41840873Y-26107330D01*
X42504843Y-25968972D01*
X42575612Y-25974657D01*
X42632073Y-26017699D01*
X42656300Y-26084434D01*
X42640601Y-26153674D01*
X42631461Y-26166423D01*
X42635876Y-26176666D01*
X43487188Y-27027978D01*
X43501132Y-27035592D01*
X43502965Y-27035461D01*
X43509580Y-27031210D01*
X44361080Y-26179710D01*
X44367840Y-26167330D01*
X44362113Y-26159680D01*
X44190958Y-26054795D01*
X44182163Y-26050313D01*
X43980618Y-25966831D01*
X43925337Y-25922283D01*
X43902916Y-25854919D01*
X43920474Y-25786128D01*
X43972436Y-25737750D01*
X44013575Y-25725350D01*
X44256758Y-25695677D01*
X44566267Y-25657911D01*
X44571533Y-25657380D01*
X45130338Y-25612913D01*
X45486402Y-25584579D01*
X45491678Y-25584270D01*
X46408794Y-25549957D01*
X46414068Y-25549870D01*
X46890694Y-25552069D01*
G37*
%TD.AperFunction*%
%TA.AperFunction,Conductor*%
G36*
X84853265Y-33028502D02*
G01*
X84899758Y-33082158D01*
X84909862Y-33152432D01*
X84880368Y-33217012D01*
X84853047Y-33239054D01*
X84853295Y-33239385D01*
X84736739Y-33326739D01*
X84649385Y-33443295D01*
X84598255Y-33579684D01*
X84591500Y-33641866D01*
X84591500Y-34729157D01*
X84571498Y-34797278D01*
X84554595Y-34818252D01*
X83703252Y-35669595D01*
X83640940Y-35703621D01*
X83614157Y-35706500D01*
X83077986Y-35706500D01*
X83009865Y-35686498D01*
X82991653Y-35672275D01*
X82831610Y-35521722D01*
X82831608Y-35521720D01*
X82828209Y-35518523D01*
X82767304Y-35476272D01*
X82623393Y-35376437D01*
X82623390Y-35376435D01*
X82619561Y-35373779D01*
X82615384Y-35371719D01*
X82615377Y-35371715D01*
X82395996Y-35263528D01*
X82395992Y-35263527D01*
X82391810Y-35261464D01*
X82149960Y-35184047D01*
X82126989Y-35180306D01*
X81903935Y-35143980D01*
X81903934Y-35143980D01*
X81899323Y-35143229D01*
X81772365Y-35141567D01*
X81650083Y-35139966D01*
X81650080Y-35139966D01*
X81645406Y-35139905D01*
X81393787Y-35174149D01*
X81149993Y-35245208D01*
X80919380Y-35351522D01*
X80915471Y-35354085D01*
X80710928Y-35488189D01*
X80710923Y-35488193D01*
X80707015Y-35490755D01*
X80660360Y-35532396D01*
X80526622Y-35651762D01*
X80517562Y-35659848D01*
X80355183Y-35855087D01*
X80223447Y-36072182D01*
X80221638Y-36076496D01*
X80221637Y-36076498D01*
X80200196Y-36127629D01*
X80155407Y-36182715D01*
X80087946Y-36204841D01*
X80019233Y-36186983D01*
X79971081Y-36134810D01*
X79957999Y-36078903D01*
X79957999Y-35605331D01*
X79957629Y-35598510D01*
X79952105Y-35547648D01*
X79948479Y-35532396D01*
X79903324Y-35411946D01*
X79894786Y-35396351D01*
X79818285Y-35294276D01*
X79805724Y-35281715D01*
X79703649Y-35205214D01*
X79688054Y-35196676D01*
X79567606Y-35151522D01*
X79552351Y-35147895D01*
X79501486Y-35142369D01*
X79494672Y-35142000D01*
X78522115Y-35142000D01*
X78506876Y-35146475D01*
X78505671Y-35147865D01*
X78504000Y-35155548D01*
X78504000Y-38539884D01*
X78508475Y-38555123D01*
X78509865Y-38556328D01*
X78517548Y-38557999D01*
X79494669Y-38557999D01*
X79501490Y-38557629D01*
X79552352Y-38552105D01*
X79567604Y-38548479D01*
X79688054Y-38503324D01*
X79703649Y-38494786D01*
X79805724Y-38418285D01*
X79818285Y-38405724D01*
X79894786Y-38303649D01*
X79903324Y-38288054D01*
X79948478Y-38167606D01*
X79952105Y-38152351D01*
X79957631Y-38101486D01*
X79958000Y-38094672D01*
X79958000Y-37625406D01*
X79978002Y-37557285D01*
X80031658Y-37510792D01*
X80101932Y-37500688D01*
X80166512Y-37530182D01*
X80194991Y-37565767D01*
X80219691Y-37611735D01*
X80297929Y-37757344D01*
X80305025Y-37770551D01*
X80307820Y-37774294D01*
X80307822Y-37774297D01*
X80454171Y-37970282D01*
X80454176Y-37970288D01*
X80456963Y-37974020D01*
X80460272Y-37977300D01*
X80460277Y-37977306D01*
X80585546Y-38101486D01*
X80637307Y-38152797D01*
X80641069Y-38155555D01*
X80641072Y-38155558D01*
X80746764Y-38233054D01*
X80842094Y-38302953D01*
X80846229Y-38305129D01*
X80846233Y-38305131D01*
X80930356Y-38349390D01*
X81066827Y-38421191D01*
X81191747Y-38464815D01*
X81302021Y-38503324D01*
X81306568Y-38504912D01*
X81556050Y-38552278D01*
X81676532Y-38557011D01*
X81805125Y-38562064D01*
X81805130Y-38562064D01*
X81809793Y-38562247D01*
X81912226Y-38551029D01*
X82057569Y-38535112D01*
X82057575Y-38535111D01*
X82062222Y-38534602D01*
X82171680Y-38505784D01*
X82303273Y-38471138D01*
X82307793Y-38469948D01*
X82457280Y-38405724D01*
X82536807Y-38371557D01*
X82536810Y-38371555D01*
X82541110Y-38369708D01*
X82545090Y-38367245D01*
X82545094Y-38367243D01*
X82753064Y-38238547D01*
X82753066Y-38238545D01*
X82757047Y-38236082D01*
X82760624Y-38233054D01*
X82947289Y-38075031D01*
X82947291Y-38075029D01*
X82950862Y-38072006D01*
X82982067Y-38036423D01*
X83042020Y-37998395D01*
X83076799Y-37993500D01*
X84097195Y-37993500D01*
X84105436Y-37993770D01*
X84170061Y-37998006D01*
X84257973Y-37987601D01*
X84261186Y-37987264D01*
X84349279Y-37979169D01*
X84354839Y-37977601D01*
X84358412Y-37976939D01*
X84369415Y-37974750D01*
X84373028Y-37973982D01*
X84378765Y-37973303D01*
X84463276Y-37947062D01*
X84466373Y-37946146D01*
X84551549Y-37922123D01*
X84556737Y-37919565D01*
X84560188Y-37918240D01*
X84570566Y-37914099D01*
X84573953Y-37912696D01*
X84579473Y-37910982D01*
X84657746Y-37869801D01*
X84660682Y-37868305D01*
X84740037Y-37829171D01*
X84744668Y-37825713D01*
X84747871Y-37823750D01*
X84757258Y-37817827D01*
X84760351Y-37815818D01*
X84765463Y-37813129D01*
X84834956Y-37758344D01*
X84837526Y-37756373D01*
X84903801Y-37706884D01*
X84903808Y-37706877D01*
X84908429Y-37703427D01*
X84964263Y-37643026D01*
X84967692Y-37639461D01*
X86171748Y-36435405D01*
X86234060Y-36401379D01*
X86260843Y-36398500D01*
X87348134Y-36398500D01*
X87410316Y-36391745D01*
X87546705Y-36340615D01*
X87663261Y-36253261D01*
X87750615Y-36136705D01*
X87801745Y-36000316D01*
X87808500Y-35938134D01*
X87808500Y-35741832D01*
X88187333Y-35741832D01*
X88205117Y-36092893D01*
X88205827Y-36099649D01*
X88261420Y-36446723D01*
X88262859Y-36453378D01*
X88355608Y-36792410D01*
X88357757Y-36798871D01*
X88486581Y-37125912D01*
X88489412Y-37132095D01*
X88652803Y-37443310D01*
X88656286Y-37449152D01*
X88852330Y-37740896D01*
X88856433Y-37746340D01*
X88976425Y-37888836D01*
X88989164Y-37897279D01*
X88999608Y-37891181D01*
X91127980Y-35762810D01*
X91134357Y-35751131D01*
X91864408Y-35751131D01*
X91864539Y-35752966D01*
X91868790Y-35759580D01*
X93999009Y-37889798D01*
X94012605Y-37897223D01*
X94022218Y-37890522D01*
X94122518Y-37773912D01*
X94126676Y-37768514D01*
X94325762Y-37478840D01*
X94329310Y-37473029D01*
X94495942Y-37163559D01*
X94498849Y-37157381D01*
X94631090Y-36831713D01*
X94633304Y-36825283D01*
X94729598Y-36487237D01*
X94731105Y-36480607D01*
X94790332Y-36134118D01*
X94791112Y-36127378D01*
X94812668Y-35774925D01*
X94812784Y-35771323D01*
X94812853Y-35751819D01*
X94812761Y-35748194D01*
X94812416Y-35741832D01*
X124687333Y-35741832D01*
X124705117Y-36092893D01*
X124705827Y-36099649D01*
X124761420Y-36446723D01*
X124762859Y-36453378D01*
X124855608Y-36792410D01*
X124857757Y-36798871D01*
X124986581Y-37125912D01*
X124989412Y-37132095D01*
X125152803Y-37443310D01*
X125156286Y-37449152D01*
X125352330Y-37740896D01*
X125356433Y-37746340D01*
X125476425Y-37888836D01*
X125489164Y-37897279D01*
X125499608Y-37891181D01*
X127627980Y-35762810D01*
X127635592Y-35748869D01*
X127635461Y-35747034D01*
X127631210Y-35740420D01*
X125500992Y-33610203D01*
X125487455Y-33602811D01*
X125477753Y-33609599D01*
X125370430Y-33735257D01*
X125366296Y-33740664D01*
X125168215Y-34031041D01*
X125164697Y-34036851D01*
X124999134Y-34346922D01*
X124996259Y-34353087D01*
X124865155Y-34679218D01*
X124862962Y-34685658D01*
X124767846Y-35024044D01*
X124766363Y-35030679D01*
X124708350Y-35377354D01*
X124707591Y-35384126D01*
X124687357Y-35735037D01*
X124687333Y-35741832D01*
X94812416Y-35741832D01*
X94793666Y-35395615D01*
X94792931Y-35388849D01*
X94736130Y-35041985D01*
X94734663Y-35035313D01*
X94640736Y-34696627D01*
X94638562Y-34690163D01*
X94508598Y-34363578D01*
X94505742Y-34357398D01*
X94341269Y-34046763D01*
X94337769Y-34040937D01*
X94140697Y-33749862D01*
X94136590Y-33744453D01*
X94023565Y-33611179D01*
X94010740Y-33602743D01*
X94000416Y-33608795D01*
X91872020Y-35737190D01*
X91864408Y-35751131D01*
X91134357Y-35751131D01*
X91135592Y-35748869D01*
X91135461Y-35747034D01*
X91131210Y-35740420D01*
X89000992Y-33610203D01*
X88987455Y-33602811D01*
X88977753Y-33609599D01*
X88870430Y-33735257D01*
X88866296Y-33740664D01*
X88668215Y-34031041D01*
X88664697Y-34036851D01*
X88499134Y-34346922D01*
X88496259Y-34353087D01*
X88365155Y-34679218D01*
X88362962Y-34685658D01*
X88267846Y-35024044D01*
X88266363Y-35030679D01*
X88208350Y-35377354D01*
X88207591Y-35384126D01*
X88187357Y-35735037D01*
X88187333Y-35741832D01*
X87808500Y-35741832D01*
X87808500Y-33641866D01*
X87801745Y-33579684D01*
X87750615Y-33443295D01*
X87663261Y-33326739D01*
X87546705Y-33239385D01*
X87547571Y-33238229D01*
X87504202Y-33194763D01*
X87489187Y-33125372D01*
X87514071Y-33058880D01*
X87570954Y-33016396D01*
X87614856Y-33008500D01*
X89268328Y-33008500D01*
X89336449Y-33028502D01*
X89382942Y-33082158D01*
X89393046Y-33152432D01*
X89363552Y-33217012D01*
X89358459Y-33222322D01*
X89349950Y-33236862D01*
X89349986Y-33237704D01*
X89355037Y-33245826D01*
X90659967Y-34550757D01*
X91487190Y-35377980D01*
X91501131Y-35385592D01*
X91502966Y-35385461D01*
X91509580Y-35381210D01*
X93642798Y-33247991D01*
X93650412Y-33234047D01*
X93650344Y-33233089D01*
X93637249Y-33213287D01*
X93638820Y-33212248D01*
X93611840Y-33171086D01*
X93611201Y-33100092D01*
X93649045Y-33040022D01*
X93713358Y-33009949D01*
X93732412Y-33008500D01*
X125768328Y-33008500D01*
X125836449Y-33028502D01*
X125882942Y-33082158D01*
X125893046Y-33152432D01*
X125863552Y-33217012D01*
X125858459Y-33222322D01*
X125849950Y-33236862D01*
X125849986Y-33237704D01*
X125855037Y-33245826D01*
X127987190Y-35377980D01*
X128001131Y-35385592D01*
X128002966Y-35385461D01*
X128009580Y-35381210D01*
X128840033Y-34550757D01*
X130142798Y-33247991D01*
X130150412Y-33234047D01*
X130150344Y-33233090D01*
X130137248Y-33213286D01*
X130138819Y-33212247D01*
X130111840Y-33171086D01*
X130111201Y-33100092D01*
X130149045Y-33040022D01*
X130213358Y-33009949D01*
X130232412Y-33008500D01*
X130865500Y-33008500D01*
X130933621Y-33028502D01*
X130980114Y-33082158D01*
X130991500Y-33134500D01*
X130991500Y-33857151D01*
X130971498Y-33925272D01*
X130917842Y-33971765D01*
X130847568Y-33981869D01*
X130782988Y-33952375D01*
X130761164Y-33927792D01*
X130640697Y-33749862D01*
X130636590Y-33744453D01*
X130523565Y-33611179D01*
X130510740Y-33602743D01*
X130500416Y-33608795D01*
X128372020Y-35737190D01*
X128364408Y-35751131D01*
X128364539Y-35752966D01*
X128368790Y-35759580D01*
X130499009Y-37889798D01*
X130512605Y-37897223D01*
X130522218Y-37890522D01*
X130622518Y-37773912D01*
X130626676Y-37768514D01*
X130761660Y-37572110D01*
X130816728Y-37527299D01*
X130887281Y-37519374D01*
X130950919Y-37550850D01*
X130987436Y-37611735D01*
X130991500Y-37643477D01*
X130991500Y-57357151D01*
X130971498Y-57425272D01*
X130917842Y-57471765D01*
X130847568Y-57481869D01*
X130782988Y-57452375D01*
X130761164Y-57427792D01*
X130640697Y-57249862D01*
X130636590Y-57244453D01*
X130523565Y-57111179D01*
X130510740Y-57102743D01*
X130500416Y-57108795D01*
X128372020Y-59237190D01*
X128364408Y-59251131D01*
X128364539Y-59252966D01*
X128368790Y-59259580D01*
X130499009Y-61389798D01*
X130512605Y-61397223D01*
X130522218Y-61390522D01*
X130622518Y-61273912D01*
X130626676Y-61268514D01*
X130761660Y-61072110D01*
X130816728Y-61027299D01*
X130887281Y-61019374D01*
X130950919Y-61050850D01*
X130987436Y-61111735D01*
X130991500Y-61143477D01*
X130991500Y-61865500D01*
X130971498Y-61933621D01*
X130917842Y-61980114D01*
X130865500Y-61991500D01*
X130230836Y-61991500D01*
X130162715Y-61971498D01*
X130116222Y-61917842D01*
X130106118Y-61847568D01*
X130135612Y-61782988D01*
X130141121Y-61777264D01*
X130149682Y-61762750D01*
X130149654Y-61762024D01*
X130144512Y-61753723D01*
X128012810Y-59622020D01*
X127998869Y-59614408D01*
X127997034Y-59614539D01*
X127990420Y-59618790D01*
X125856774Y-61752437D01*
X125849160Y-61766381D01*
X125849237Y-61767470D01*
X125862102Y-61787007D01*
X125860677Y-61787945D01*
X125886202Y-61822944D01*
X125890383Y-61893817D01*
X125855583Y-61955700D01*
X125792851Y-61988945D01*
X125767606Y-61991500D01*
X93730836Y-61991500D01*
X93662715Y-61971498D01*
X93616222Y-61917842D01*
X93606118Y-61847568D01*
X93635612Y-61782988D01*
X93641121Y-61777264D01*
X93649682Y-61762750D01*
X93649654Y-61762024D01*
X93644512Y-61753723D01*
X91512810Y-59622020D01*
X91498869Y-59614408D01*
X91497034Y-59614539D01*
X91490420Y-59618790D01*
X89356774Y-61752437D01*
X89349160Y-61766381D01*
X89349237Y-61767470D01*
X89362102Y-61787007D01*
X89360677Y-61787945D01*
X89386202Y-61822944D01*
X89390383Y-61893817D01*
X89355583Y-61955700D01*
X89292851Y-61988945D01*
X89267606Y-61991500D01*
X87373239Y-61991500D01*
X87305118Y-61971498D01*
X87258625Y-61917842D01*
X87248521Y-61847568D01*
X87278015Y-61782988D01*
X87284132Y-61776416D01*
X88096233Y-60964315D01*
X88108617Y-60953454D01*
X88127436Y-60939014D01*
X88127437Y-60939013D01*
X88133987Y-60933987D01*
X88139013Y-60927437D01*
X88139016Y-60927434D01*
X88196036Y-60853124D01*
X88226496Y-60813429D01*
X88226497Y-60813427D01*
X88231524Y-60806876D01*
X88282791Y-60683107D01*
X88327338Y-60627827D01*
X88394701Y-60605406D01*
X88463493Y-60622964D01*
X88510759Y-60672756D01*
X88652803Y-60943310D01*
X88656286Y-60949152D01*
X88852330Y-61240896D01*
X88856433Y-61246340D01*
X88976425Y-61388836D01*
X88989164Y-61397279D01*
X88999608Y-61391181D01*
X91127980Y-59262810D01*
X91134357Y-59251131D01*
X91864408Y-59251131D01*
X91864539Y-59252966D01*
X91868790Y-59259580D01*
X93999009Y-61389798D01*
X94012605Y-61397223D01*
X94022218Y-61390522D01*
X94122518Y-61273912D01*
X94126676Y-61268514D01*
X94325762Y-60978840D01*
X94329310Y-60973029D01*
X94495942Y-60663559D01*
X94498849Y-60657381D01*
X94631090Y-60331713D01*
X94633304Y-60325283D01*
X94729598Y-59987237D01*
X94731105Y-59980607D01*
X94790332Y-59634118D01*
X94791112Y-59627378D01*
X94812668Y-59274925D01*
X94812784Y-59271323D01*
X94812853Y-59251819D01*
X94812761Y-59248194D01*
X94812416Y-59241832D01*
X124687333Y-59241832D01*
X124705117Y-59592893D01*
X124705827Y-59599649D01*
X124761420Y-59946723D01*
X124762859Y-59953378D01*
X124855608Y-60292410D01*
X124857757Y-60298871D01*
X124986581Y-60625912D01*
X124989412Y-60632095D01*
X125152803Y-60943310D01*
X125156286Y-60949152D01*
X125352330Y-61240896D01*
X125356433Y-61246340D01*
X125476425Y-61388836D01*
X125489164Y-61397279D01*
X125499608Y-61391181D01*
X127627980Y-59262810D01*
X127635592Y-59248869D01*
X127635461Y-59247034D01*
X127631210Y-59240420D01*
X125500992Y-57110203D01*
X125487455Y-57102811D01*
X125477753Y-57109599D01*
X125370430Y-57235257D01*
X125366296Y-57240664D01*
X125168215Y-57531041D01*
X125164697Y-57536851D01*
X124999134Y-57846922D01*
X124996259Y-57853087D01*
X124865155Y-58179218D01*
X124862962Y-58185658D01*
X124767846Y-58524044D01*
X124766363Y-58530679D01*
X124708350Y-58877354D01*
X124707591Y-58884126D01*
X124687357Y-59235037D01*
X124687333Y-59241832D01*
X94812416Y-59241832D01*
X94793666Y-58895615D01*
X94792931Y-58888849D01*
X94736130Y-58541985D01*
X94734663Y-58535313D01*
X94640736Y-58196627D01*
X94638562Y-58190163D01*
X94508598Y-57863578D01*
X94505742Y-57857398D01*
X94341269Y-57546763D01*
X94337769Y-57540937D01*
X94140697Y-57249862D01*
X94136590Y-57244453D01*
X94023565Y-57111179D01*
X94010740Y-57102743D01*
X94000416Y-57108795D01*
X91872020Y-59237190D01*
X91864408Y-59251131D01*
X91134357Y-59251131D01*
X91135592Y-59248869D01*
X91135461Y-59247034D01*
X91131210Y-59240420D01*
X89749203Y-57858413D01*
X89715177Y-57796101D01*
X89720242Y-57725286D01*
X89749203Y-57680223D01*
X89930223Y-57499203D01*
X89992535Y-57465177D01*
X90063350Y-57470242D01*
X90108413Y-57499203D01*
X91487188Y-58877978D01*
X91501132Y-58885592D01*
X91502965Y-58885461D01*
X91509580Y-58881210D01*
X92312229Y-58078561D01*
X93642798Y-56747991D01*
X93650412Y-56734047D01*
X93650344Y-56733090D01*
X93645834Y-56726271D01*
X93644418Y-56725065D01*
X93362103Y-56509999D01*
X93362635Y-56509301D01*
X93319925Y-56457377D01*
X93311629Y-56386867D01*
X93342770Y-56323064D01*
X93391615Y-56290012D01*
X93488297Y-56253767D01*
X93496705Y-56250615D01*
X93613261Y-56163261D01*
X93700615Y-56046705D01*
X93751745Y-55910316D01*
X93752917Y-55899526D01*
X93753803Y-55897394D01*
X93754425Y-55894778D01*
X93754848Y-55894879D01*
X93780155Y-55833965D01*
X93838517Y-55793537D01*
X93909471Y-55791078D01*
X93970490Y-55827371D01*
X93977489Y-55836031D01*
X93980643Y-55839789D01*
X93983802Y-55844300D01*
X94145700Y-56006198D01*
X94150208Y-56009355D01*
X94150211Y-56009357D01*
X94164400Y-56019292D01*
X94333251Y-56137523D01*
X94338233Y-56139846D01*
X94338238Y-56139849D01*
X94534765Y-56231490D01*
X94540757Y-56234284D01*
X94546065Y-56235706D01*
X94546067Y-56235707D01*
X94756598Y-56292119D01*
X94756600Y-56292119D01*
X94761913Y-56293543D01*
X94990000Y-56313498D01*
X95218087Y-56293543D01*
X95223400Y-56292119D01*
X95223402Y-56292119D01*
X95433933Y-56235707D01*
X95433935Y-56235706D01*
X95439243Y-56234284D01*
X95445235Y-56231490D01*
X95641762Y-56139849D01*
X95641767Y-56139846D01*
X95646749Y-56137523D01*
X95815600Y-56019292D01*
X95829789Y-56009357D01*
X95829792Y-56009355D01*
X95834300Y-56006198D01*
X95996198Y-55844300D01*
X96049273Y-55768502D01*
X96109731Y-55682158D01*
X96127523Y-55656749D01*
X96129846Y-55651767D01*
X96129849Y-55651762D01*
X96145805Y-55617543D01*
X96192722Y-55564258D01*
X96260999Y-55544797D01*
X96328959Y-55565339D01*
X96374195Y-55617543D01*
X96390151Y-55651762D01*
X96390154Y-55651767D01*
X96392477Y-55656749D01*
X96410269Y-55682158D01*
X96470728Y-55768502D01*
X96523802Y-55844300D01*
X96685700Y-56006198D01*
X96690208Y-56009355D01*
X96690211Y-56009357D01*
X96704400Y-56019292D01*
X96873251Y-56137523D01*
X96878233Y-56139846D01*
X96878238Y-56139849D01*
X97074765Y-56231490D01*
X97080757Y-56234284D01*
X97086065Y-56235706D01*
X97086067Y-56235707D01*
X97296598Y-56292119D01*
X97296600Y-56292119D01*
X97301913Y-56293543D01*
X97530000Y-56313498D01*
X97758087Y-56293543D01*
X97763400Y-56292119D01*
X97763402Y-56292119D01*
X97973933Y-56235707D01*
X97973935Y-56235706D01*
X97979243Y-56234284D01*
X97985235Y-56231490D01*
X98181762Y-56139849D01*
X98181767Y-56139846D01*
X98186749Y-56137523D01*
X98355600Y-56019292D01*
X98369789Y-56009357D01*
X98369792Y-56009355D01*
X98374300Y-56006198D01*
X98536198Y-55844300D01*
X98589273Y-55768502D01*
X98649731Y-55682158D01*
X98667523Y-55656749D01*
X98669846Y-55651767D01*
X98669849Y-55651762D01*
X98686081Y-55616951D01*
X98732998Y-55563666D01*
X98801275Y-55544205D01*
X98869235Y-55564747D01*
X98914471Y-55616951D01*
X98930586Y-55651511D01*
X98936069Y-55661007D01*
X99061028Y-55839467D01*
X99068084Y-55847875D01*
X99222125Y-56001916D01*
X99230533Y-56008972D01*
X99408993Y-56133931D01*
X99418489Y-56139414D01*
X99615947Y-56231490D01*
X99626239Y-56235236D01*
X99798503Y-56281394D01*
X99812599Y-56281058D01*
X99816000Y-56273116D01*
X99816000Y-53732033D01*
X99812027Y-53718502D01*
X99803478Y-53717273D01*
X99626239Y-53764764D01*
X99615947Y-53768510D01*
X99418489Y-53860586D01*
X99408993Y-53866069D01*
X99230533Y-53991028D01*
X99222125Y-53998084D01*
X99068084Y-54152125D01*
X99061028Y-54160533D01*
X98936069Y-54338993D01*
X98930586Y-54348489D01*
X98914471Y-54383049D01*
X98867554Y-54436334D01*
X98799277Y-54455795D01*
X98731317Y-54435253D01*
X98686081Y-54383049D01*
X98669849Y-54348238D01*
X98669846Y-54348233D01*
X98667523Y-54343251D01*
X98536198Y-54155700D01*
X98374300Y-53993802D01*
X98369792Y-53990645D01*
X98369789Y-53990643D01*
X98267046Y-53918702D01*
X98186749Y-53862477D01*
X98181767Y-53860154D01*
X98181762Y-53860151D01*
X97984225Y-53768039D01*
X97984224Y-53768039D01*
X97979243Y-53765716D01*
X97973935Y-53764294D01*
X97973933Y-53764293D01*
X97763402Y-53707881D01*
X97763400Y-53707881D01*
X97758087Y-53706457D01*
X97530000Y-53686502D01*
X97301913Y-53706457D01*
X97296600Y-53707881D01*
X97296598Y-53707881D01*
X97086067Y-53764293D01*
X97086065Y-53764294D01*
X97080757Y-53765716D01*
X97075776Y-53768039D01*
X97075775Y-53768039D01*
X96878238Y-53860151D01*
X96878233Y-53860154D01*
X96873251Y-53862477D01*
X96792954Y-53918702D01*
X96690211Y-53990643D01*
X96690208Y-53990645D01*
X96685700Y-53993802D01*
X96523802Y-54155700D01*
X96392477Y-54343251D01*
X96390154Y-54348233D01*
X96390151Y-54348238D01*
X96374195Y-54382457D01*
X96327278Y-54435742D01*
X96259001Y-54455203D01*
X96191041Y-54434661D01*
X96145805Y-54382457D01*
X96129849Y-54348238D01*
X96129846Y-54348233D01*
X96127523Y-54343251D01*
X95996198Y-54155700D01*
X95834300Y-53993802D01*
X95829792Y-53990645D01*
X95829789Y-53990643D01*
X95727046Y-53918702D01*
X95646749Y-53862477D01*
X95641767Y-53860154D01*
X95641762Y-53860151D01*
X95528146Y-53807172D01*
X95439243Y-53765716D01*
X95385823Y-53751402D01*
X95329339Y-53718790D01*
X95234144Y-53623595D01*
X95200118Y-53561283D01*
X95205183Y-53490468D01*
X95247730Y-53433632D01*
X95314250Y-53408821D01*
X95323239Y-53408500D01*
X107725761Y-53408500D01*
X107793882Y-53428502D01*
X107814856Y-53445405D01*
X107846252Y-53476801D01*
X107880278Y-53539113D01*
X107875213Y-53609928D01*
X107832666Y-53666764D01*
X107766146Y-53691575D01*
X107746175Y-53691416D01*
X107695486Y-53686981D01*
X107695475Y-53686981D01*
X107690000Y-53686502D01*
X107461913Y-53706457D01*
X107456600Y-53707881D01*
X107456598Y-53707881D01*
X107246067Y-53764293D01*
X107246065Y-53764294D01*
X107240757Y-53765716D01*
X107235776Y-53768039D01*
X107235775Y-53768039D01*
X107038238Y-53860151D01*
X107038233Y-53860154D01*
X107033251Y-53862477D01*
X106952954Y-53918702D01*
X106850211Y-53990643D01*
X106850208Y-53990645D01*
X106845700Y-53993802D01*
X106683802Y-54155700D01*
X106552477Y-54343251D01*
X106550154Y-54348233D01*
X106550151Y-54348238D01*
X106534195Y-54382457D01*
X106487278Y-54435742D01*
X106419001Y-54455203D01*
X106351041Y-54434661D01*
X106305805Y-54382457D01*
X106289849Y-54348238D01*
X106289846Y-54348233D01*
X106287523Y-54343251D01*
X106156198Y-54155700D01*
X105994300Y-53993802D01*
X105989792Y-53990645D01*
X105989789Y-53990643D01*
X105887046Y-53918702D01*
X105806749Y-53862477D01*
X105801767Y-53860154D01*
X105801762Y-53860151D01*
X105604225Y-53768039D01*
X105604224Y-53768039D01*
X105599243Y-53765716D01*
X105593935Y-53764294D01*
X105593933Y-53764293D01*
X105383402Y-53707881D01*
X105383400Y-53707881D01*
X105378087Y-53706457D01*
X105150000Y-53686502D01*
X104921913Y-53706457D01*
X104916600Y-53707881D01*
X104916598Y-53707881D01*
X104706067Y-53764293D01*
X104706065Y-53764294D01*
X104700757Y-53765716D01*
X104695776Y-53768039D01*
X104695775Y-53768039D01*
X104498238Y-53860151D01*
X104498233Y-53860154D01*
X104493251Y-53862477D01*
X104412954Y-53918702D01*
X104310211Y-53990643D01*
X104310208Y-53990645D01*
X104305700Y-53993802D01*
X104143802Y-54155700D01*
X104012477Y-54343251D01*
X104010154Y-54348233D01*
X104010151Y-54348238D01*
X103994195Y-54382457D01*
X103947278Y-54435742D01*
X103879001Y-54455203D01*
X103811041Y-54434661D01*
X103765805Y-54382457D01*
X103749849Y-54348238D01*
X103749846Y-54348233D01*
X103747523Y-54343251D01*
X103616198Y-54155700D01*
X103454300Y-53993802D01*
X103449792Y-53990645D01*
X103449789Y-53990643D01*
X103347046Y-53918702D01*
X103266749Y-53862477D01*
X103261767Y-53860154D01*
X103261762Y-53860151D01*
X103064225Y-53768039D01*
X103064224Y-53768039D01*
X103059243Y-53765716D01*
X103053935Y-53764294D01*
X103053933Y-53764293D01*
X102843402Y-53707881D01*
X102843400Y-53707881D01*
X102838087Y-53706457D01*
X102610000Y-53686502D01*
X102381913Y-53706457D01*
X102376600Y-53707881D01*
X102376598Y-53707881D01*
X102166067Y-53764293D01*
X102166065Y-53764294D01*
X102160757Y-53765716D01*
X102155776Y-53768039D01*
X102155775Y-53768039D01*
X101958238Y-53860151D01*
X101958233Y-53860154D01*
X101953251Y-53862477D01*
X101872954Y-53918702D01*
X101770211Y-53990643D01*
X101770208Y-53990645D01*
X101765700Y-53993802D01*
X101603802Y-54155700D01*
X101472477Y-54343251D01*
X101470154Y-54348233D01*
X101470151Y-54348238D01*
X101453919Y-54383049D01*
X101407002Y-54436334D01*
X101338725Y-54455795D01*
X101270765Y-54435253D01*
X101225529Y-54383049D01*
X101209414Y-54348489D01*
X101203931Y-54338993D01*
X101078972Y-54160533D01*
X101071916Y-54152125D01*
X100917875Y-53998084D01*
X100909467Y-53991028D01*
X100731007Y-53866069D01*
X100721511Y-53860586D01*
X100524053Y-53768510D01*
X100513761Y-53764764D01*
X100341497Y-53718606D01*
X100327401Y-53718942D01*
X100324000Y-53726884D01*
X100324000Y-56267967D01*
X100327973Y-56281498D01*
X100336522Y-56282727D01*
X100513761Y-56235236D01*
X100524053Y-56231490D01*
X100721511Y-56139414D01*
X100731007Y-56133931D01*
X100909467Y-56008972D01*
X100917875Y-56001916D01*
X101071916Y-55847875D01*
X101078972Y-55839467D01*
X101203931Y-55661007D01*
X101209414Y-55651511D01*
X101225529Y-55616951D01*
X101272446Y-55563666D01*
X101340723Y-55544205D01*
X101408683Y-55564747D01*
X101453919Y-55616951D01*
X101470151Y-55651762D01*
X101470154Y-55651767D01*
X101472477Y-55656749D01*
X101490269Y-55682158D01*
X101550728Y-55768502D01*
X101603802Y-55844300D01*
X101765700Y-56006198D01*
X101770208Y-56009355D01*
X101770211Y-56009357D01*
X101784400Y-56019292D01*
X101953251Y-56137523D01*
X101958233Y-56139846D01*
X101958238Y-56139849D01*
X102154765Y-56231490D01*
X102160757Y-56234284D01*
X102166065Y-56235706D01*
X102166067Y-56235707D01*
X102376598Y-56292119D01*
X102376600Y-56292119D01*
X102381913Y-56293543D01*
X102610000Y-56313498D01*
X102838087Y-56293543D01*
X102843400Y-56292119D01*
X102843402Y-56292119D01*
X103053933Y-56235707D01*
X103053935Y-56235706D01*
X103059243Y-56234284D01*
X103065235Y-56231490D01*
X103261762Y-56139849D01*
X103261767Y-56139846D01*
X103266749Y-56137523D01*
X103435600Y-56019292D01*
X103449789Y-56009357D01*
X103449792Y-56009355D01*
X103454300Y-56006198D01*
X103616198Y-55844300D01*
X103669273Y-55768502D01*
X103729731Y-55682158D01*
X103747523Y-55656749D01*
X103749846Y-55651767D01*
X103749849Y-55651762D01*
X103765805Y-55617543D01*
X103812722Y-55564258D01*
X103880999Y-55544797D01*
X103948959Y-55565339D01*
X103994195Y-55617543D01*
X104010151Y-55651762D01*
X104010154Y-55651767D01*
X104012477Y-55656749D01*
X104030269Y-55682158D01*
X104090728Y-55768502D01*
X104143802Y-55844300D01*
X104305700Y-56006198D01*
X104310208Y-56009355D01*
X104310211Y-56009357D01*
X104324400Y-56019292D01*
X104493251Y-56137523D01*
X104498233Y-56139846D01*
X104498238Y-56139849D01*
X104694765Y-56231490D01*
X104700757Y-56234284D01*
X104706065Y-56235706D01*
X104706067Y-56235707D01*
X104916598Y-56292119D01*
X104916600Y-56292119D01*
X104921913Y-56293543D01*
X105150000Y-56313498D01*
X105378087Y-56293543D01*
X105383400Y-56292119D01*
X105383402Y-56292119D01*
X105593933Y-56235707D01*
X105593935Y-56235706D01*
X105599243Y-56234284D01*
X105605235Y-56231490D01*
X105801762Y-56139849D01*
X105801767Y-56139846D01*
X105806749Y-56137523D01*
X105975600Y-56019292D01*
X105989789Y-56009357D01*
X105989792Y-56009355D01*
X105994300Y-56006198D01*
X106156198Y-55844300D01*
X106209273Y-55768502D01*
X106269731Y-55682158D01*
X106287523Y-55656749D01*
X106289846Y-55651767D01*
X106289849Y-55651762D01*
X106305805Y-55617543D01*
X106352722Y-55564258D01*
X106420999Y-55544797D01*
X106488959Y-55565339D01*
X106534195Y-55617543D01*
X106550151Y-55651762D01*
X106550154Y-55651767D01*
X106552477Y-55656749D01*
X106570269Y-55682158D01*
X106630728Y-55768502D01*
X106683802Y-55844300D01*
X106845700Y-56006198D01*
X106850208Y-56009355D01*
X106850211Y-56009357D01*
X106864400Y-56019292D01*
X107033251Y-56137523D01*
X107038233Y-56139846D01*
X107038238Y-56139849D01*
X107234765Y-56231490D01*
X107240757Y-56234284D01*
X107246065Y-56235706D01*
X107246067Y-56235707D01*
X107456598Y-56292119D01*
X107456600Y-56292119D01*
X107461913Y-56293543D01*
X107690000Y-56313498D01*
X107918087Y-56293543D01*
X107923400Y-56292119D01*
X107923402Y-56292119D01*
X108133933Y-56235707D01*
X108133935Y-56235706D01*
X108139243Y-56234284D01*
X108145235Y-56231490D01*
X108341762Y-56139849D01*
X108341767Y-56139846D01*
X108346749Y-56137523D01*
X108515600Y-56019292D01*
X108529789Y-56009357D01*
X108529792Y-56009355D01*
X108534300Y-56006198D01*
X108696198Y-55844300D01*
X108749273Y-55768502D01*
X108809731Y-55682158D01*
X108827523Y-55656749D01*
X108829846Y-55651767D01*
X108829849Y-55651762D01*
X108845805Y-55617543D01*
X108892722Y-55564258D01*
X108960999Y-55544797D01*
X109028959Y-55565339D01*
X109074195Y-55617543D01*
X109090151Y-55651762D01*
X109090154Y-55651767D01*
X109092477Y-55656749D01*
X109110269Y-55682158D01*
X109170728Y-55768502D01*
X109223802Y-55844300D01*
X109385700Y-56006198D01*
X109390208Y-56009355D01*
X109390211Y-56009357D01*
X109404400Y-56019292D01*
X109573251Y-56137523D01*
X109578233Y-56139846D01*
X109578238Y-56139849D01*
X109774765Y-56231490D01*
X109780757Y-56234284D01*
X109786065Y-56235706D01*
X109786067Y-56235707D01*
X109996598Y-56292119D01*
X109996600Y-56292119D01*
X110001913Y-56293543D01*
X110230000Y-56313498D01*
X110458087Y-56293543D01*
X110463400Y-56292119D01*
X110463402Y-56292119D01*
X110673933Y-56235707D01*
X110673935Y-56235706D01*
X110679243Y-56234284D01*
X110685235Y-56231490D01*
X110881762Y-56139849D01*
X110881767Y-56139846D01*
X110886749Y-56137523D01*
X111055600Y-56019292D01*
X111069789Y-56009357D01*
X111069792Y-56009355D01*
X111074300Y-56006198D01*
X111236198Y-55844300D01*
X111289273Y-55768502D01*
X111349731Y-55682158D01*
X111367523Y-55656749D01*
X111369846Y-55651767D01*
X111369849Y-55651762D01*
X111385805Y-55617543D01*
X111432722Y-55564258D01*
X111500999Y-55544797D01*
X111568959Y-55565339D01*
X111614195Y-55617543D01*
X111630151Y-55651762D01*
X111630154Y-55651767D01*
X111632477Y-55656749D01*
X111650269Y-55682158D01*
X111710728Y-55768502D01*
X111763802Y-55844300D01*
X111925700Y-56006198D01*
X111930208Y-56009355D01*
X111930211Y-56009357D01*
X111944400Y-56019292D01*
X112113251Y-56137523D01*
X112118233Y-56139846D01*
X112118238Y-56139849D01*
X112314765Y-56231490D01*
X112320757Y-56234284D01*
X112326065Y-56235706D01*
X112326067Y-56235707D01*
X112536598Y-56292119D01*
X112536600Y-56292119D01*
X112541913Y-56293543D01*
X112770000Y-56313498D01*
X112998087Y-56293543D01*
X113003400Y-56292119D01*
X113003402Y-56292119D01*
X113213933Y-56235707D01*
X113213935Y-56235706D01*
X113219243Y-56234284D01*
X113225235Y-56231490D01*
X113421762Y-56139849D01*
X113421767Y-56139846D01*
X113426749Y-56137523D01*
X113595600Y-56019292D01*
X113609789Y-56009357D01*
X113609792Y-56009355D01*
X113614300Y-56006198D01*
X113776198Y-55844300D01*
X113829273Y-55768502D01*
X113889731Y-55682158D01*
X113907523Y-55656749D01*
X113909846Y-55651767D01*
X113909849Y-55651762D01*
X113925805Y-55617543D01*
X113972722Y-55564258D01*
X114040999Y-55544797D01*
X114108959Y-55565339D01*
X114154195Y-55617543D01*
X114170151Y-55651762D01*
X114170154Y-55651767D01*
X114172477Y-55656749D01*
X114190269Y-55682158D01*
X114250728Y-55768502D01*
X114303802Y-55844300D01*
X114465700Y-56006198D01*
X114470208Y-56009355D01*
X114470211Y-56009357D01*
X114484400Y-56019292D01*
X114653251Y-56137523D01*
X114658233Y-56139846D01*
X114658238Y-56139849D01*
X114854765Y-56231490D01*
X114860757Y-56234284D01*
X114866065Y-56235706D01*
X114866067Y-56235707D01*
X115076598Y-56292119D01*
X115076600Y-56292119D01*
X115081913Y-56293543D01*
X115310000Y-56313498D01*
X115538087Y-56293543D01*
X115543400Y-56292119D01*
X115543402Y-56292119D01*
X115753933Y-56235707D01*
X115753935Y-56235706D01*
X115759243Y-56234284D01*
X115765235Y-56231490D01*
X115961762Y-56139849D01*
X115961767Y-56139846D01*
X115966749Y-56137523D01*
X116135600Y-56019292D01*
X116149789Y-56009357D01*
X116149792Y-56009355D01*
X116154300Y-56006198D01*
X116316198Y-55844300D01*
X116369273Y-55768502D01*
X116429731Y-55682158D01*
X116447523Y-55656749D01*
X116449846Y-55651767D01*
X116449849Y-55651762D01*
X116465805Y-55617543D01*
X116512722Y-55564258D01*
X116580999Y-55544797D01*
X116648959Y-55565339D01*
X116694195Y-55617543D01*
X116710151Y-55651762D01*
X116710154Y-55651767D01*
X116712477Y-55656749D01*
X116730269Y-55682158D01*
X116790728Y-55768502D01*
X116843802Y-55844300D01*
X117005700Y-56006198D01*
X117010208Y-56009355D01*
X117010211Y-56009357D01*
X117024400Y-56019292D01*
X117193251Y-56137523D01*
X117198233Y-56139846D01*
X117198238Y-56139849D01*
X117394765Y-56231490D01*
X117400757Y-56234284D01*
X117406065Y-56235706D01*
X117406067Y-56235707D01*
X117616598Y-56292119D01*
X117616600Y-56292119D01*
X117621913Y-56293543D01*
X117850000Y-56313498D01*
X118078087Y-56293543D01*
X118083400Y-56292119D01*
X118083402Y-56292119D01*
X118293933Y-56235707D01*
X118293935Y-56235706D01*
X118299243Y-56234284D01*
X118305235Y-56231490D01*
X118501762Y-56139849D01*
X118501767Y-56139846D01*
X118506749Y-56137523D01*
X118675600Y-56019292D01*
X118689789Y-56009357D01*
X118689792Y-56009355D01*
X118694300Y-56006198D01*
X118856198Y-55844300D01*
X118909273Y-55768502D01*
X118969731Y-55682158D01*
X118987523Y-55656749D01*
X118989846Y-55651767D01*
X118989849Y-55651762D01*
X119005805Y-55617543D01*
X119052722Y-55564258D01*
X119120999Y-55544797D01*
X119188959Y-55565339D01*
X119234195Y-55617543D01*
X119250151Y-55651762D01*
X119250154Y-55651767D01*
X119252477Y-55656749D01*
X119270269Y-55682158D01*
X119330728Y-55768502D01*
X119383802Y-55844300D01*
X119545700Y-56006198D01*
X119550208Y-56009355D01*
X119550211Y-56009357D01*
X119564400Y-56019292D01*
X119733251Y-56137523D01*
X119738233Y-56139846D01*
X119738238Y-56139849D01*
X119934765Y-56231490D01*
X119940757Y-56234284D01*
X119946065Y-56235706D01*
X119946067Y-56235707D01*
X120156598Y-56292119D01*
X120156600Y-56292119D01*
X120161913Y-56293543D01*
X120390000Y-56313498D01*
X120618087Y-56293543D01*
X120623400Y-56292119D01*
X120623402Y-56292119D01*
X120833933Y-56235707D01*
X120833935Y-56235706D01*
X120839243Y-56234284D01*
X120845235Y-56231490D01*
X121041762Y-56139849D01*
X121041767Y-56139846D01*
X121046749Y-56137523D01*
X121215600Y-56019292D01*
X121229789Y-56009357D01*
X121229792Y-56009355D01*
X121234300Y-56006198D01*
X121396198Y-55844300D01*
X121449273Y-55768502D01*
X121509731Y-55682158D01*
X121527523Y-55656749D01*
X121529846Y-55651767D01*
X121529849Y-55651762D01*
X121545805Y-55617543D01*
X121592722Y-55564258D01*
X121660999Y-55544797D01*
X121728959Y-55565339D01*
X121774195Y-55617543D01*
X121790151Y-55651762D01*
X121790154Y-55651767D01*
X121792477Y-55656749D01*
X121810269Y-55682158D01*
X121870728Y-55768502D01*
X121923802Y-55844300D01*
X122085700Y-56006198D01*
X122090208Y-56009355D01*
X122090211Y-56009357D01*
X122104400Y-56019292D01*
X122273251Y-56137523D01*
X122278233Y-56139846D01*
X122278238Y-56139849D01*
X122474765Y-56231490D01*
X122480757Y-56234284D01*
X122486065Y-56235706D01*
X122486067Y-56235707D01*
X122696598Y-56292119D01*
X122696600Y-56292119D01*
X122701913Y-56293543D01*
X122930000Y-56313498D01*
X123158087Y-56293543D01*
X123163400Y-56292119D01*
X123163402Y-56292119D01*
X123373933Y-56235707D01*
X123373935Y-56235706D01*
X123379243Y-56234284D01*
X123385235Y-56231490D01*
X123581762Y-56139849D01*
X123581767Y-56139846D01*
X123586749Y-56137523D01*
X123755600Y-56019292D01*
X123769789Y-56009357D01*
X123769792Y-56009355D01*
X123774300Y-56006198D01*
X123936198Y-55844300D01*
X123989273Y-55768502D01*
X124049731Y-55682158D01*
X124067523Y-55656749D01*
X124069846Y-55651767D01*
X124069849Y-55651762D01*
X124085805Y-55617543D01*
X124132722Y-55564258D01*
X124200999Y-55544797D01*
X124268959Y-55565339D01*
X124314195Y-55617543D01*
X124330151Y-55651762D01*
X124330154Y-55651767D01*
X124332477Y-55656749D01*
X124350269Y-55682158D01*
X124410728Y-55768502D01*
X124463802Y-55844300D01*
X124625700Y-56006198D01*
X124630208Y-56009355D01*
X124630211Y-56009357D01*
X124644400Y-56019292D01*
X124813251Y-56137523D01*
X124818233Y-56139846D01*
X124818238Y-56139849D01*
X125014765Y-56231490D01*
X125020757Y-56234284D01*
X125026065Y-56235706D01*
X125026067Y-56235707D01*
X125236598Y-56292119D01*
X125236600Y-56292119D01*
X125241913Y-56293543D01*
X125470000Y-56313498D01*
X125698087Y-56293543D01*
X125703400Y-56292119D01*
X125703402Y-56292119D01*
X125913933Y-56235707D01*
X125913935Y-56235706D01*
X125919243Y-56234284D01*
X125925235Y-56231490D01*
X126121762Y-56139849D01*
X126121767Y-56139846D01*
X126126749Y-56137523D01*
X126295600Y-56019292D01*
X126309789Y-56009357D01*
X126309792Y-56009355D01*
X126314300Y-56006198D01*
X126476198Y-55844300D01*
X126529273Y-55768502D01*
X126589731Y-55682158D01*
X126607523Y-55656749D01*
X126609846Y-55651767D01*
X126609849Y-55651762D01*
X126625805Y-55617543D01*
X126672722Y-55564258D01*
X126740999Y-55544797D01*
X126808959Y-55565339D01*
X126854195Y-55617543D01*
X126870151Y-55651762D01*
X126870154Y-55651767D01*
X126872477Y-55656749D01*
X126890269Y-55682158D01*
X126950728Y-55768502D01*
X127003802Y-55844300D01*
X127047711Y-55888209D01*
X127081737Y-55950521D01*
X127076672Y-56021336D01*
X127034125Y-56078172D01*
X126998596Y-56096793D01*
X126783683Y-56168702D01*
X126777361Y-56171205D01*
X126458034Y-56318079D01*
X126451991Y-56321265D01*
X126150401Y-56501763D01*
X126144755Y-56505571D01*
X125864408Y-56717596D01*
X125859211Y-56721987D01*
X125857972Y-56723155D01*
X125849950Y-56736862D01*
X125849986Y-56737704D01*
X125855037Y-56745826D01*
X127187771Y-58078561D01*
X127987190Y-58877980D01*
X128001131Y-58885592D01*
X128002966Y-58885461D01*
X128009580Y-58881210D01*
X130142798Y-56747991D01*
X130150412Y-56734047D01*
X130150344Y-56733089D01*
X130145836Y-56726272D01*
X130144418Y-56725065D01*
X129864813Y-56512064D01*
X129859187Y-56508240D01*
X129558214Y-56326681D01*
X129552202Y-56323484D01*
X129233370Y-56175487D01*
X129227070Y-56172967D01*
X129016086Y-56101554D01*
X128957974Y-56060767D01*
X128931138Y-55995038D01*
X128944098Y-55925234D01*
X128967388Y-55893110D01*
X129016198Y-55844300D01*
X129069273Y-55768502D01*
X129129731Y-55682158D01*
X129147523Y-55656749D01*
X129149846Y-55651767D01*
X129149849Y-55651762D01*
X129241961Y-55454225D01*
X129241961Y-55454224D01*
X129244284Y-55449243D01*
X129277697Y-55324547D01*
X129302119Y-55233402D01*
X129302119Y-55233400D01*
X129303543Y-55228087D01*
X129323498Y-55000000D01*
X129303543Y-54771913D01*
X129302119Y-54766598D01*
X129245707Y-54556067D01*
X129245706Y-54556065D01*
X129244284Y-54550757D01*
X129239239Y-54539938D01*
X129149849Y-54348238D01*
X129149846Y-54348233D01*
X129147523Y-54343251D01*
X129016198Y-54155700D01*
X128854300Y-53993802D01*
X128849792Y-53990645D01*
X128849789Y-53990643D01*
X128747046Y-53918702D01*
X128666749Y-53862477D01*
X128661767Y-53860154D01*
X128661762Y-53860151D01*
X128464225Y-53768039D01*
X128464224Y-53768039D01*
X128459243Y-53765716D01*
X128453935Y-53764294D01*
X128453933Y-53764293D01*
X128243402Y-53707881D01*
X128243400Y-53707881D01*
X128238087Y-53706457D01*
X128010000Y-53686502D01*
X127781913Y-53706457D01*
X127776600Y-53707881D01*
X127776598Y-53707881D01*
X127566067Y-53764293D01*
X127566065Y-53764294D01*
X127560757Y-53765716D01*
X127555776Y-53768039D01*
X127555775Y-53768039D01*
X127358238Y-53860151D01*
X127358233Y-53860154D01*
X127353251Y-53862477D01*
X127272954Y-53918702D01*
X127170211Y-53990643D01*
X127170208Y-53990645D01*
X127165700Y-53993802D01*
X127003802Y-54155700D01*
X126872477Y-54343251D01*
X126870154Y-54348233D01*
X126870151Y-54348238D01*
X126854195Y-54382457D01*
X126807278Y-54435742D01*
X126739001Y-54455203D01*
X126671041Y-54434661D01*
X126625805Y-54382457D01*
X126609849Y-54348238D01*
X126609846Y-54348233D01*
X126607523Y-54343251D01*
X126476198Y-54155700D01*
X126314300Y-53993802D01*
X126309792Y-53990645D01*
X126309789Y-53990643D01*
X126207046Y-53918702D01*
X126126749Y-53862477D01*
X126121767Y-53860154D01*
X126121762Y-53860151D01*
X125924225Y-53768039D01*
X125924224Y-53768039D01*
X125919243Y-53765716D01*
X125913935Y-53764294D01*
X125913933Y-53764293D01*
X125703402Y-53707881D01*
X125703400Y-53707881D01*
X125698087Y-53706457D01*
X125470000Y-53686502D01*
X125241913Y-53706457D01*
X125236600Y-53707881D01*
X125236598Y-53707881D01*
X125026067Y-53764293D01*
X125026065Y-53764294D01*
X125020757Y-53765716D01*
X125015776Y-53768039D01*
X125015775Y-53768039D01*
X124818238Y-53860151D01*
X124818233Y-53860154D01*
X124813251Y-53862477D01*
X124732954Y-53918702D01*
X124630211Y-53990643D01*
X124630208Y-53990645D01*
X124625700Y-53993802D01*
X124463802Y-54155700D01*
X124332477Y-54343251D01*
X124330154Y-54348233D01*
X124330151Y-54348238D01*
X124314195Y-54382457D01*
X124267278Y-54435742D01*
X124199001Y-54455203D01*
X124131041Y-54434661D01*
X124085805Y-54382457D01*
X124069849Y-54348238D01*
X124069846Y-54348233D01*
X124067523Y-54343251D01*
X123936198Y-54155700D01*
X123774300Y-53993802D01*
X123769792Y-53990645D01*
X123769789Y-53990643D01*
X123667046Y-53918702D01*
X123586749Y-53862477D01*
X123581767Y-53860154D01*
X123581762Y-53860151D01*
X123384225Y-53768039D01*
X123384224Y-53768039D01*
X123379243Y-53765716D01*
X123373935Y-53764294D01*
X123373933Y-53764293D01*
X123163402Y-53707881D01*
X123163400Y-53707881D01*
X123158087Y-53706457D01*
X122930000Y-53686502D01*
X122701913Y-53706457D01*
X122696600Y-53707881D01*
X122696598Y-53707881D01*
X122486067Y-53764293D01*
X122486065Y-53764294D01*
X122480757Y-53765716D01*
X122475776Y-53768039D01*
X122475775Y-53768039D01*
X122278238Y-53860151D01*
X122278233Y-53860154D01*
X122273251Y-53862477D01*
X122192954Y-53918702D01*
X122090211Y-53990643D01*
X122090208Y-53990645D01*
X122085700Y-53993802D01*
X121923802Y-54155700D01*
X121792477Y-54343251D01*
X121790154Y-54348233D01*
X121790151Y-54348238D01*
X121774195Y-54382457D01*
X121727278Y-54435742D01*
X121659001Y-54455203D01*
X121591041Y-54434661D01*
X121545805Y-54382457D01*
X121529849Y-54348238D01*
X121529846Y-54348233D01*
X121527523Y-54343251D01*
X121396198Y-54155700D01*
X121234300Y-53993802D01*
X121229792Y-53990645D01*
X121229789Y-53990643D01*
X121127046Y-53918702D01*
X121046749Y-53862477D01*
X121041767Y-53860154D01*
X121041762Y-53860151D01*
X120844225Y-53768039D01*
X120844224Y-53768039D01*
X120839243Y-53765716D01*
X120833935Y-53764294D01*
X120833933Y-53764293D01*
X120623402Y-53707881D01*
X120623400Y-53707881D01*
X120618087Y-53706457D01*
X120390000Y-53686502D01*
X120161913Y-53706457D01*
X120156600Y-53707881D01*
X120156598Y-53707881D01*
X119946067Y-53764293D01*
X119946065Y-53764294D01*
X119940757Y-53765716D01*
X119935776Y-53768039D01*
X119935775Y-53768039D01*
X119738238Y-53860151D01*
X119738233Y-53860154D01*
X119733251Y-53862477D01*
X119652954Y-53918702D01*
X119550211Y-53990643D01*
X119550208Y-53990645D01*
X119545700Y-53993802D01*
X119383802Y-54155700D01*
X119252477Y-54343251D01*
X119250154Y-54348233D01*
X119250151Y-54348238D01*
X119234195Y-54382457D01*
X119187278Y-54435742D01*
X119119001Y-54455203D01*
X119051041Y-54434661D01*
X119005805Y-54382457D01*
X118989849Y-54348238D01*
X118989846Y-54348233D01*
X118987523Y-54343251D01*
X118856198Y-54155700D01*
X118694300Y-53993802D01*
X118689792Y-53990645D01*
X118689789Y-53990643D01*
X118587046Y-53918702D01*
X118506749Y-53862477D01*
X118501767Y-53860154D01*
X118501762Y-53860151D01*
X118304225Y-53768039D01*
X118304224Y-53768039D01*
X118299243Y-53765716D01*
X118293935Y-53764294D01*
X118293933Y-53764293D01*
X118083402Y-53707881D01*
X118083400Y-53707881D01*
X118078087Y-53706457D01*
X117850000Y-53686502D01*
X117621913Y-53706457D01*
X117616600Y-53707881D01*
X117616598Y-53707881D01*
X117406067Y-53764293D01*
X117406065Y-53764294D01*
X117400757Y-53765716D01*
X117395776Y-53768039D01*
X117395775Y-53768039D01*
X117198238Y-53860151D01*
X117198233Y-53860154D01*
X117193251Y-53862477D01*
X117112954Y-53918702D01*
X117010211Y-53990643D01*
X117010208Y-53990645D01*
X117005700Y-53993802D01*
X116843802Y-54155700D01*
X116712477Y-54343251D01*
X116710154Y-54348233D01*
X116710151Y-54348238D01*
X116694195Y-54382457D01*
X116647278Y-54435742D01*
X116579001Y-54455203D01*
X116511041Y-54434661D01*
X116465805Y-54382457D01*
X116449849Y-54348238D01*
X116449846Y-54348233D01*
X116447523Y-54343251D01*
X116316198Y-54155700D01*
X116154300Y-53993802D01*
X116149792Y-53990645D01*
X116149789Y-53990643D01*
X116047046Y-53918702D01*
X115966749Y-53862477D01*
X115961767Y-53860154D01*
X115961762Y-53860151D01*
X115764225Y-53768039D01*
X115764224Y-53768039D01*
X115759243Y-53765716D01*
X115753935Y-53764294D01*
X115753933Y-53764293D01*
X115543402Y-53707881D01*
X115543400Y-53707881D01*
X115538087Y-53706457D01*
X115310000Y-53686502D01*
X115081913Y-53706457D01*
X115076600Y-53707881D01*
X115076598Y-53707881D01*
X114990574Y-53730931D01*
X114919597Y-53729241D01*
X114868868Y-53698319D01*
X113465402Y-52294853D01*
X124439977Y-52294853D01*
X124445258Y-52301907D01*
X124606756Y-52396279D01*
X124616042Y-52400729D01*
X124815001Y-52476703D01*
X124824899Y-52479579D01*
X125033595Y-52522038D01*
X125043823Y-52523257D01*
X125256650Y-52531062D01*
X125266936Y-52530595D01*
X125478185Y-52503534D01*
X125488262Y-52501392D01*
X125692255Y-52440191D01*
X125701842Y-52436433D01*
X125893098Y-52342738D01*
X125901944Y-52337465D01*
X125949247Y-52303723D01*
X125957648Y-52293023D01*
X125950660Y-52279870D01*
X125212812Y-51542022D01*
X125198868Y-51534408D01*
X125197035Y-51534539D01*
X125190420Y-51538790D01*
X124446737Y-52282473D01*
X124439977Y-52294853D01*
X113465402Y-52294853D01*
X112312412Y-51141863D01*
X123838050Y-51141863D01*
X123850309Y-51354477D01*
X123851745Y-51364697D01*
X123898565Y-51572446D01*
X123901645Y-51582275D01*
X123981770Y-51779603D01*
X123986413Y-51788794D01*
X124066460Y-51919420D01*
X124076916Y-51928880D01*
X124085694Y-51925096D01*
X124827978Y-51182812D01*
X124834356Y-51171132D01*
X125564408Y-51171132D01*
X125564539Y-51172965D01*
X125568790Y-51179580D01*
X126310474Y-51921264D01*
X126322484Y-51927823D01*
X126334223Y-51918855D01*
X126365004Y-51876019D01*
X126370315Y-51867180D01*
X126464670Y-51676267D01*
X126468469Y-51666672D01*
X126530376Y-51462915D01*
X126532555Y-51452834D01*
X126560590Y-51239887D01*
X126561109Y-51233212D01*
X126562572Y-51173364D01*
X126562378Y-51166646D01*
X126544781Y-50952604D01*
X126543096Y-50942424D01*
X126491214Y-50735875D01*
X126487894Y-50726124D01*
X126402972Y-50530814D01*
X126398105Y-50521739D01*
X126333063Y-50421197D01*
X126322377Y-50411995D01*
X126312812Y-50416398D01*
X125572022Y-51157188D01*
X125564408Y-51171132D01*
X124834356Y-51171132D01*
X124835592Y-51168868D01*
X124835461Y-51167035D01*
X124831210Y-51160420D01*
X124089849Y-50419059D01*
X124078313Y-50412759D01*
X124066031Y-50422382D01*
X124018089Y-50492662D01*
X124013004Y-50501613D01*
X123923338Y-50694783D01*
X123919775Y-50704470D01*
X123862864Y-50909681D01*
X123860933Y-50919800D01*
X123838302Y-51131574D01*
X123838050Y-51141863D01*
X112312412Y-51141863D01*
X112234315Y-51063766D01*
X112223448Y-51051375D01*
X112209013Y-51032563D01*
X112203987Y-51026013D01*
X112172075Y-51001526D01*
X112172072Y-51001523D01*
X112127855Y-50967594D01*
X112083429Y-50933504D01*
X112083427Y-50933503D01*
X112076876Y-50928476D01*
X111928851Y-50867162D01*
X111920664Y-50866084D01*
X111920663Y-50866084D01*
X111909458Y-50864609D01*
X111878262Y-50860502D01*
X111809885Y-50851500D01*
X111809882Y-50851500D01*
X111809874Y-50851499D01*
X111778189Y-50847328D01*
X111770000Y-50846250D01*
X111738307Y-50850422D01*
X111721864Y-50851500D01*
X75804239Y-50851500D01*
X75736118Y-50831498D01*
X75715144Y-50814595D01*
X75442979Y-50542430D01*
X75408953Y-50480118D01*
X75411516Y-50416706D01*
X75412716Y-50412759D01*
X75432370Y-50348069D01*
X75461529Y-50126590D01*
X75461766Y-50116876D01*
X75463074Y-50063365D01*
X75463074Y-50063361D01*
X75463156Y-50060000D01*
X75444852Y-49837361D01*
X75390431Y-49620702D01*
X75301354Y-49415840D01*
X75244164Y-49327438D01*
X75182822Y-49232617D01*
X75182820Y-49232614D01*
X75180014Y-49228277D01*
X75029670Y-49063051D01*
X75025619Y-49059852D01*
X75025615Y-49059848D01*
X74858414Y-48927800D01*
X74858410Y-48927798D01*
X74854359Y-48924598D01*
X74813053Y-48901796D01*
X74763084Y-48851364D01*
X74748312Y-48781921D01*
X74773428Y-48715516D01*
X74800780Y-48688909D01*
X74844603Y-48657650D01*
X74979860Y-48561173D01*
X75138096Y-48403489D01*
X75197594Y-48320689D01*
X75265435Y-48226277D01*
X75268453Y-48222077D01*
X75280019Y-48198675D01*
X75328132Y-48146467D01*
X75392977Y-48128500D01*
X92261864Y-48128500D01*
X92278307Y-48129578D01*
X92310000Y-48133750D01*
X92318189Y-48132672D01*
X92349874Y-48128501D01*
X92349884Y-48128500D01*
X92349885Y-48128500D01*
X92454889Y-48114676D01*
X92460664Y-48113916D01*
X92460666Y-48113916D01*
X92468851Y-48112838D01*
X92616876Y-48051524D01*
X92655599Y-48021811D01*
X92712072Y-47978477D01*
X92712075Y-47978474D01*
X92737434Y-47959015D01*
X92743987Y-47953987D01*
X92749017Y-47947432D01*
X92763452Y-47928621D01*
X92774319Y-47916230D01*
X93887892Y-46802657D01*
X93912847Y-46783299D01*
X93985771Y-46740172D01*
X93985774Y-46740170D01*
X93992598Y-46736134D01*
X96602005Y-44126727D01*
X99219405Y-41509328D01*
X99281717Y-41475302D01*
X99352532Y-41480367D01*
X99409368Y-41522914D01*
X99434179Y-41589434D01*
X99434500Y-41598423D01*
X99434500Y-42362639D01*
X99433970Y-42373873D01*
X99432292Y-42381378D01*
X99433317Y-42413993D01*
X99434438Y-42449671D01*
X99434500Y-42453628D01*
X99434500Y-42481642D01*
X99434996Y-42485567D01*
X99434996Y-42485568D01*
X99435008Y-42485663D01*
X99435941Y-42497508D01*
X99437335Y-42541864D01*
X99441695Y-42556870D01*
X99443013Y-42561407D01*
X99447023Y-42580771D01*
X99449573Y-42600958D01*
X99452489Y-42608323D01*
X99452490Y-42608327D01*
X99455652Y-42616313D01*
X99464500Y-42662696D01*
X99464500Y-44620980D01*
X99463970Y-44632214D01*
X99462292Y-44639719D01*
X99463777Y-44686963D01*
X99464438Y-44708012D01*
X99464500Y-44711969D01*
X99464500Y-44739983D01*
X99464996Y-44743908D01*
X99464996Y-44743909D01*
X99465008Y-44744004D01*
X99465942Y-44755856D01*
X99467062Y-44791500D01*
X99467335Y-44800205D01*
X99470739Y-44811921D01*
X99473013Y-44819748D01*
X99477023Y-44839112D01*
X99478298Y-44849203D01*
X99479573Y-44859299D01*
X99482489Y-44866663D01*
X99482490Y-44866668D01*
X99495907Y-44900556D01*
X99499752Y-44911785D01*
X99512131Y-44954393D01*
X99516169Y-44961220D01*
X99516170Y-44961223D01*
X99522488Y-44971906D01*
X99531188Y-44989664D01*
X99535761Y-45001215D01*
X99535765Y-45001221D01*
X99538681Y-45008588D01*
X99543339Y-45014999D01*
X99543340Y-45015001D01*
X99564764Y-45044488D01*
X99571281Y-45054410D01*
X99589826Y-45085768D01*
X99589829Y-45085772D01*
X99593866Y-45092598D01*
X99608250Y-45106982D01*
X99621091Y-45122016D01*
X99633058Y-45138487D01*
X99639166Y-45143540D01*
X99667255Y-45166777D01*
X99676035Y-45174767D01*
X100994750Y-46493483D01*
X101002326Y-46501809D01*
X101006447Y-46508303D01*
X101012222Y-46513726D01*
X101056265Y-46555085D01*
X101059107Y-46557840D01*
X101078906Y-46577639D01*
X101082031Y-46580063D01*
X101082040Y-46580071D01*
X101082126Y-46580137D01*
X101091151Y-46587845D01*
X101123494Y-46618217D01*
X101130438Y-46622035D01*
X101130440Y-46622036D01*
X101141329Y-46628022D01*
X101157847Y-46638873D01*
X101173933Y-46651350D01*
X101214666Y-46668976D01*
X101225314Y-46674193D01*
X101236942Y-46680585D01*
X101264197Y-46695569D01*
X101271872Y-46697540D01*
X101271878Y-46697542D01*
X101283911Y-46700631D01*
X101302613Y-46707034D01*
X101321292Y-46715117D01*
X101354818Y-46720427D01*
X101365127Y-46722060D01*
X101376740Y-46724465D01*
X101419718Y-46735500D01*
X101440065Y-46735500D01*
X101459777Y-46737051D01*
X101479879Y-46740235D01*
X101487771Y-46739489D01*
X101524056Y-46736059D01*
X101535914Y-46735500D01*
X122570980Y-46735500D01*
X122582214Y-46736030D01*
X122589719Y-46737708D01*
X122658012Y-46735562D01*
X122661969Y-46735500D01*
X122689983Y-46735500D01*
X122693908Y-46735004D01*
X122693909Y-46735004D01*
X122694004Y-46734992D01*
X122705849Y-46734059D01*
X122735670Y-46733122D01*
X122742282Y-46732914D01*
X122742283Y-46732914D01*
X122750205Y-46732665D01*
X122769749Y-46726987D01*
X122789112Y-46722977D01*
X122801440Y-46721420D01*
X122801442Y-46721420D01*
X122809299Y-46720427D01*
X122816663Y-46717511D01*
X122816668Y-46717510D01*
X122850556Y-46704093D01*
X122861785Y-46700248D01*
X122888050Y-46692617D01*
X122904393Y-46687869D01*
X122911220Y-46683831D01*
X122911223Y-46683830D01*
X122921906Y-46677512D01*
X122939664Y-46668812D01*
X122951215Y-46664239D01*
X122951221Y-46664235D01*
X122958588Y-46661319D01*
X122967977Y-46654498D01*
X122994488Y-46635236D01*
X123004410Y-46628719D01*
X123035768Y-46610174D01*
X123035772Y-46610171D01*
X123042598Y-46606134D01*
X123056982Y-46591750D01*
X123072016Y-46578909D01*
X123082073Y-46571602D01*
X123088487Y-46566942D01*
X123116778Y-46532744D01*
X123124767Y-46523965D01*
X123625173Y-46023559D01*
X123687485Y-45989533D01*
X123758300Y-45994598D01*
X123815136Y-46037145D01*
X123840059Y-46105401D01*
X123847290Y-46230804D01*
X123850110Y-46279715D01*
X123851247Y-46284761D01*
X123851248Y-46284767D01*
X123868148Y-46359754D01*
X123899222Y-46497639D01*
X123945980Y-46612790D01*
X123980394Y-46697542D01*
X123983266Y-46704616D01*
X124021843Y-46767568D01*
X124091103Y-46880590D01*
X124099987Y-46895088D01*
X124246250Y-47063938D01*
X124418126Y-47206632D01*
X124488595Y-47247811D01*
X124491445Y-47249476D01*
X124540169Y-47301114D01*
X124553240Y-47370897D01*
X124526509Y-47436669D01*
X124486055Y-47470027D01*
X124473607Y-47476507D01*
X124469474Y-47479610D01*
X124469471Y-47479612D01*
X124299100Y-47607530D01*
X124294965Y-47610635D01*
X124291393Y-47614373D01*
X124169883Y-47741526D01*
X124140629Y-47772138D01*
X124137715Y-47776410D01*
X124137714Y-47776411D01*
X124112739Y-47813023D01*
X124014743Y-47956680D01*
X124013945Y-47958400D01*
X123963589Y-48007088D01*
X123905074Y-48021500D01*
X109386566Y-48021500D01*
X109336512Y-48009944D01*
X109336373Y-48010333D01*
X109333007Y-48009134D01*
X109333004Y-48009133D01*
X109280928Y-47990590D01*
X109181854Y-47955311D01*
X109181849Y-47955310D01*
X109175219Y-47952949D01*
X109168231Y-47952116D01*
X109168228Y-47952115D01*
X109052655Y-47938334D01*
X109005357Y-47932694D01*
X108998354Y-47933430D01*
X108998353Y-47933430D01*
X108953958Y-47938096D01*
X108835228Y-47950575D01*
X108825205Y-47953987D01*
X108679956Y-48003434D01*
X108679953Y-48003435D01*
X108673289Y-48005704D01*
X108527588Y-48095340D01*
X108522557Y-48100267D01*
X108522554Y-48100269D01*
X108474744Y-48147088D01*
X108405366Y-48215028D01*
X108312698Y-48358820D01*
X108310287Y-48365443D01*
X108310286Y-48365446D01*
X108256600Y-48512947D01*
X108256599Y-48512952D01*
X108254190Y-48519570D01*
X108232750Y-48689286D01*
X108249443Y-48859536D01*
X108303440Y-49021856D01*
X108307087Y-49027878D01*
X108307088Y-49027880D01*
X108388406Y-49162154D01*
X108388409Y-49162157D01*
X108392056Y-49168180D01*
X108510889Y-49291234D01*
X108573304Y-49332077D01*
X108644736Y-49378821D01*
X108654030Y-49384903D01*
X108660634Y-49387359D01*
X108660636Y-49387360D01*
X108807757Y-49442074D01*
X108807759Y-49442074D01*
X108814367Y-49444532D01*
X108893454Y-49455085D01*
X108976949Y-49466226D01*
X108976953Y-49466226D01*
X108983930Y-49467157D01*
X108990941Y-49466519D01*
X108990945Y-49466519D01*
X109147273Y-49452292D01*
X109147275Y-49452292D01*
X109154292Y-49451653D01*
X109160990Y-49449477D01*
X109160993Y-49449476D01*
X109310289Y-49400966D01*
X109310291Y-49400965D01*
X109316985Y-49398790D01*
X109421852Y-49336277D01*
X109457872Y-49314805D01*
X109457874Y-49314804D01*
X109463924Y-49311197D01*
X109503769Y-49273254D01*
X109566893Y-49240762D01*
X109590660Y-49238500D01*
X123908954Y-49238500D01*
X123977075Y-49258502D01*
X124016387Y-49298665D01*
X124099987Y-49435088D01*
X124246250Y-49603938D01*
X124418126Y-49746632D01*
X124444193Y-49761864D01*
X124491955Y-49789774D01*
X124540679Y-49841412D01*
X124553750Y-49911195D01*
X124527019Y-49976967D01*
X124486562Y-50010327D01*
X124478460Y-50014544D01*
X124469734Y-50020039D01*
X124449677Y-50035099D01*
X124441223Y-50046427D01*
X124447968Y-50058758D01*
X125187188Y-50797978D01*
X125201132Y-50805592D01*
X125202965Y-50805461D01*
X125209580Y-50801210D01*
X125953389Y-50057401D01*
X125960410Y-50044544D01*
X125953611Y-50035213D01*
X125949559Y-50032521D01*
X125912602Y-50012120D01*
X125862631Y-49961687D01*
X125847859Y-49892245D01*
X125872975Y-49825839D01*
X125900327Y-49799232D01*
X125952715Y-49761864D01*
X126079860Y-49671173D01*
X126093155Y-49657925D01*
X126220240Y-49531283D01*
X126238096Y-49513489D01*
X126269115Y-49470322D01*
X126365435Y-49336277D01*
X126368453Y-49332077D01*
X126376990Y-49314805D01*
X126465136Y-49136453D01*
X126465137Y-49136451D01*
X126467430Y-49131811D01*
X126511477Y-48986835D01*
X126530865Y-48923023D01*
X126530865Y-48923021D01*
X126532370Y-48918069D01*
X126561529Y-48696590D01*
X126561668Y-48690896D01*
X126563074Y-48633365D01*
X126563074Y-48633361D01*
X126563156Y-48630000D01*
X126544852Y-48407361D01*
X126490431Y-48190702D01*
X126401354Y-47985840D01*
X126280014Y-47798277D01*
X126129670Y-47633051D01*
X126125619Y-47629852D01*
X126125615Y-47629848D01*
X125958414Y-47497800D01*
X125958410Y-47497798D01*
X125954359Y-47494598D01*
X125913053Y-47471796D01*
X125863084Y-47421364D01*
X125848312Y-47351921D01*
X125873428Y-47285516D01*
X125900780Y-47258909D01*
X125944603Y-47227650D01*
X126079860Y-47131173D01*
X126238096Y-46973489D01*
X126270486Y-46928414D01*
X126365435Y-46796277D01*
X126368453Y-46792077D01*
X126372792Y-46783299D01*
X126465136Y-46596453D01*
X126465137Y-46596451D01*
X126467430Y-46591811D01*
X126521287Y-46414547D01*
X126530865Y-46383023D01*
X126530865Y-46383021D01*
X126532370Y-46378069D01*
X126561529Y-46156590D01*
X126563156Y-46090000D01*
X126544852Y-45867361D01*
X126490431Y-45650702D01*
X126401354Y-45445840D01*
X126280014Y-45258277D01*
X126129670Y-45093051D01*
X126125619Y-45089852D01*
X126125615Y-45089848D01*
X125958414Y-44957800D01*
X125958410Y-44957798D01*
X125954359Y-44954598D01*
X125913053Y-44931796D01*
X125863084Y-44881364D01*
X125848312Y-44811921D01*
X125873428Y-44745516D01*
X125900780Y-44718909D01*
X125964508Y-44673452D01*
X126079860Y-44591173D01*
X126238096Y-44433489D01*
X126287736Y-44364408D01*
X126365435Y-44256277D01*
X126368453Y-44252077D01*
X126376048Y-44236711D01*
X126465136Y-44056453D01*
X126465137Y-44056451D01*
X126467430Y-44051811D01*
X126529285Y-43848222D01*
X126530865Y-43843023D01*
X126530865Y-43843021D01*
X126532370Y-43838069D01*
X126561529Y-43616590D01*
X126563156Y-43550000D01*
X126544852Y-43327361D01*
X126490431Y-43110702D01*
X126401354Y-42905840D01*
X126319320Y-42779035D01*
X126282822Y-42722617D01*
X126282820Y-42722614D01*
X126280014Y-42718277D01*
X126129670Y-42553051D01*
X126125619Y-42549852D01*
X126125615Y-42549848D01*
X125958414Y-42417800D01*
X125958410Y-42417798D01*
X125954359Y-42414598D01*
X125758789Y-42306638D01*
X125753920Y-42304914D01*
X125753916Y-42304912D01*
X125553087Y-42233795D01*
X125553083Y-42233794D01*
X125548212Y-42232069D01*
X125543119Y-42231162D01*
X125543116Y-42231161D01*
X125333373Y-42193800D01*
X125333367Y-42193799D01*
X125328284Y-42192894D01*
X125254452Y-42191992D01*
X125110081Y-42190228D01*
X125110079Y-42190228D01*
X125104911Y-42190165D01*
X124884091Y-42223955D01*
X124671756Y-42293357D01*
X124641443Y-42309137D01*
X124506510Y-42379379D01*
X124473607Y-42396507D01*
X124469474Y-42399610D01*
X124469471Y-42399612D01*
X124299100Y-42527530D01*
X124294965Y-42530635D01*
X124274053Y-42552518D01*
X124205221Y-42624547D01*
X124140629Y-42692138D01*
X124137715Y-42696410D01*
X124137714Y-42696411D01*
X124088954Y-42767890D01*
X124014743Y-42876680D01*
X123989067Y-42931995D01*
X123925703Y-43068502D01*
X123920688Y-43079305D01*
X123860989Y-43294570D01*
X123837251Y-43516695D01*
X123837548Y-43521848D01*
X123837548Y-43521851D01*
X123847982Y-43702812D01*
X123850110Y-43739715D01*
X123851247Y-43744761D01*
X123851248Y-43744767D01*
X123862246Y-43793567D01*
X123882784Y-43884697D01*
X123882933Y-43885360D01*
X123878397Y-43956212D01*
X123849111Y-44002156D01*
X122423672Y-45427595D01*
X122361360Y-45461621D01*
X122334577Y-45464500D01*
X101815422Y-45464500D01*
X101747301Y-45444498D01*
X101726331Y-45427599D01*
X100772403Y-44473670D01*
X100738379Y-44411360D01*
X100735500Y-44384577D01*
X100735500Y-42550679D01*
X100736029Y-42539450D01*
X100737708Y-42531940D01*
X100735562Y-42463660D01*
X100735500Y-42459703D01*
X100735500Y-42431676D01*
X100734989Y-42427630D01*
X100734057Y-42415795D01*
X100734020Y-42414598D01*
X100732664Y-42371454D01*
X100726987Y-42351912D01*
X100722978Y-42332553D01*
X100721721Y-42322607D01*
X100720427Y-42312360D01*
X100717510Y-42304994D01*
X100717509Y-42304988D01*
X100714348Y-42297005D01*
X100705500Y-42250622D01*
X100705500Y-40977993D01*
X100725502Y-40909872D01*
X100759229Y-40874780D01*
X100759858Y-40874340D01*
X100854771Y-40807881D01*
X100909789Y-40769357D01*
X100909792Y-40769355D01*
X100914300Y-40766198D01*
X101076198Y-40604300D01*
X101129273Y-40528502D01*
X101140302Y-40512750D01*
X101207523Y-40416749D01*
X101209846Y-40411767D01*
X101209849Y-40411762D01*
X101225805Y-40377543D01*
X101272722Y-40324258D01*
X101340999Y-40304797D01*
X101408959Y-40325339D01*
X101454195Y-40377543D01*
X101470151Y-40411762D01*
X101470154Y-40411767D01*
X101472477Y-40416749D01*
X101539698Y-40512750D01*
X101550728Y-40528502D01*
X101603802Y-40604300D01*
X101765700Y-40766198D01*
X101770208Y-40769355D01*
X101770211Y-40769357D01*
X101825229Y-40807881D01*
X101953251Y-40897523D01*
X101958233Y-40899846D01*
X101958238Y-40899849D01*
X102154765Y-40991490D01*
X102160757Y-40994284D01*
X102166065Y-40995706D01*
X102166067Y-40995707D01*
X102376598Y-41052119D01*
X102376600Y-41052119D01*
X102381913Y-41053543D01*
X102610000Y-41073498D01*
X102838087Y-41053543D01*
X102843400Y-41052119D01*
X102843402Y-41052119D01*
X103053933Y-40995707D01*
X103053935Y-40995706D01*
X103059243Y-40994284D01*
X103065235Y-40991490D01*
X103261762Y-40899849D01*
X103261767Y-40899846D01*
X103266749Y-40897523D01*
X103394771Y-40807881D01*
X103449789Y-40769357D01*
X103449792Y-40769355D01*
X103454300Y-40766198D01*
X103616198Y-40604300D01*
X103669273Y-40528502D01*
X103680302Y-40512750D01*
X103747523Y-40416749D01*
X103749846Y-40411767D01*
X103749849Y-40411762D01*
X103765805Y-40377543D01*
X103812722Y-40324258D01*
X103880999Y-40304797D01*
X103948959Y-40325339D01*
X103994195Y-40377543D01*
X104010151Y-40411762D01*
X104010154Y-40411767D01*
X104012477Y-40416749D01*
X104079698Y-40512750D01*
X104090728Y-40528502D01*
X104143802Y-40604300D01*
X104305700Y-40766198D01*
X104310208Y-40769355D01*
X104310211Y-40769357D01*
X104365229Y-40807881D01*
X104493251Y-40897523D01*
X104498233Y-40899846D01*
X104498238Y-40899849D01*
X104694765Y-40991490D01*
X104700757Y-40994284D01*
X104706065Y-40995706D01*
X104706067Y-40995707D01*
X104916598Y-41052119D01*
X104916600Y-41052119D01*
X104921913Y-41053543D01*
X105150000Y-41073498D01*
X105378087Y-41053543D01*
X105383400Y-41052119D01*
X105383402Y-41052119D01*
X105593933Y-40995707D01*
X105593935Y-40995706D01*
X105599243Y-40994284D01*
X105605235Y-40991490D01*
X105801762Y-40899849D01*
X105801767Y-40899846D01*
X105806749Y-40897523D01*
X105934771Y-40807881D01*
X105989789Y-40769357D01*
X105989792Y-40769355D01*
X105994300Y-40766198D01*
X106156198Y-40604300D01*
X106209273Y-40528502D01*
X106220302Y-40512750D01*
X106287523Y-40416749D01*
X106289846Y-40411767D01*
X106289849Y-40411762D01*
X106305805Y-40377543D01*
X106352722Y-40324258D01*
X106420999Y-40304797D01*
X106488959Y-40325339D01*
X106534195Y-40377543D01*
X106550151Y-40411762D01*
X106550154Y-40411767D01*
X106552477Y-40416749D01*
X106619698Y-40512750D01*
X106630728Y-40528502D01*
X106683802Y-40604300D01*
X106845700Y-40766198D01*
X106850208Y-40769355D01*
X106850211Y-40769357D01*
X106905229Y-40807881D01*
X107033251Y-40897523D01*
X107038233Y-40899846D01*
X107038238Y-40899849D01*
X107234765Y-40991490D01*
X107240757Y-40994284D01*
X107246065Y-40995706D01*
X107246067Y-40995707D01*
X107456598Y-41052119D01*
X107456600Y-41052119D01*
X107461913Y-41053543D01*
X107690000Y-41073498D01*
X107918087Y-41053543D01*
X107923400Y-41052119D01*
X107923402Y-41052119D01*
X108133933Y-40995707D01*
X108133935Y-40995706D01*
X108139243Y-40994284D01*
X108145235Y-40991490D01*
X108341762Y-40899849D01*
X108341767Y-40899846D01*
X108346749Y-40897523D01*
X108474771Y-40807881D01*
X108529789Y-40769357D01*
X108529792Y-40769355D01*
X108534300Y-40766198D01*
X108696198Y-40604300D01*
X108749273Y-40528502D01*
X108760302Y-40512750D01*
X108827523Y-40416749D01*
X108829846Y-40411767D01*
X108829849Y-40411762D01*
X108845805Y-40377543D01*
X108892722Y-40324258D01*
X108960999Y-40304797D01*
X109028959Y-40325339D01*
X109074195Y-40377543D01*
X109090151Y-40411762D01*
X109090154Y-40411767D01*
X109092477Y-40416749D01*
X109159698Y-40512750D01*
X109170728Y-40528502D01*
X109223802Y-40604300D01*
X109385700Y-40766198D01*
X109390208Y-40769355D01*
X109390211Y-40769357D01*
X109445229Y-40807881D01*
X109573251Y-40897523D01*
X109578233Y-40899846D01*
X109578238Y-40899849D01*
X109774765Y-40991490D01*
X109780757Y-40994284D01*
X109786065Y-40995706D01*
X109786067Y-40995707D01*
X109996598Y-41052119D01*
X109996600Y-41052119D01*
X110001913Y-41053543D01*
X110230000Y-41073498D01*
X110458087Y-41053543D01*
X110463400Y-41052119D01*
X110463402Y-41052119D01*
X110673933Y-40995707D01*
X110673935Y-40995706D01*
X110679243Y-40994284D01*
X110685235Y-40991490D01*
X110881762Y-40899849D01*
X110881767Y-40899846D01*
X110886749Y-40897523D01*
X111014771Y-40807881D01*
X111069789Y-40769357D01*
X111069792Y-40769355D01*
X111074300Y-40766198D01*
X111236198Y-40604300D01*
X111289273Y-40528502D01*
X111300302Y-40512750D01*
X111367523Y-40416749D01*
X111369846Y-40411767D01*
X111369849Y-40411762D01*
X111385805Y-40377543D01*
X111432722Y-40324258D01*
X111500999Y-40304797D01*
X111568959Y-40325339D01*
X111614195Y-40377543D01*
X111630151Y-40411762D01*
X111630154Y-40411767D01*
X111632477Y-40416749D01*
X111699698Y-40512750D01*
X111710728Y-40528502D01*
X111763802Y-40604300D01*
X111925700Y-40766198D01*
X111930208Y-40769355D01*
X111930211Y-40769357D01*
X111985229Y-40807881D01*
X112113251Y-40897523D01*
X112118233Y-40899846D01*
X112118238Y-40899849D01*
X112314765Y-40991490D01*
X112320757Y-40994284D01*
X112326065Y-40995706D01*
X112326067Y-40995707D01*
X112536598Y-41052119D01*
X112536600Y-41052119D01*
X112541913Y-41053543D01*
X112770000Y-41073498D01*
X112998087Y-41053543D01*
X113003400Y-41052119D01*
X113003402Y-41052119D01*
X113213933Y-40995707D01*
X113213935Y-40995706D01*
X113219243Y-40994284D01*
X113225235Y-40991490D01*
X113421762Y-40899849D01*
X113421767Y-40899846D01*
X113426749Y-40897523D01*
X113554771Y-40807881D01*
X113609789Y-40769357D01*
X113609792Y-40769355D01*
X113614300Y-40766198D01*
X113776198Y-40604300D01*
X113829273Y-40528502D01*
X113840302Y-40512750D01*
X113907523Y-40416749D01*
X113909846Y-40411767D01*
X113909849Y-40411762D01*
X113925805Y-40377543D01*
X113972722Y-40324258D01*
X114040999Y-40304797D01*
X114108959Y-40325339D01*
X114154195Y-40377543D01*
X114170151Y-40411762D01*
X114170154Y-40411767D01*
X114172477Y-40416749D01*
X114239698Y-40512750D01*
X114250728Y-40528502D01*
X114303802Y-40604300D01*
X114465700Y-40766198D01*
X114470208Y-40769355D01*
X114470211Y-40769357D01*
X114525229Y-40807881D01*
X114653251Y-40897523D01*
X114658233Y-40899846D01*
X114658238Y-40899849D01*
X114854765Y-40991490D01*
X114860757Y-40994284D01*
X114866065Y-40995706D01*
X114866067Y-40995707D01*
X115076598Y-41052119D01*
X115076600Y-41052119D01*
X115081913Y-41053543D01*
X115310000Y-41073498D01*
X115538087Y-41053543D01*
X115543400Y-41052119D01*
X115543402Y-41052119D01*
X115753933Y-40995707D01*
X115753935Y-40995706D01*
X115759243Y-40994284D01*
X115765235Y-40991490D01*
X115961762Y-40899849D01*
X115961767Y-40899846D01*
X115966749Y-40897523D01*
X116094771Y-40807881D01*
X116149789Y-40769357D01*
X116149792Y-40769355D01*
X116154300Y-40766198D01*
X116316198Y-40604300D01*
X116369273Y-40528502D01*
X116380302Y-40512750D01*
X116447523Y-40416749D01*
X116449846Y-40411767D01*
X116449849Y-40411762D01*
X116465805Y-40377543D01*
X116512722Y-40324258D01*
X116580999Y-40304797D01*
X116648959Y-40325339D01*
X116694195Y-40377543D01*
X116710151Y-40411762D01*
X116710154Y-40411767D01*
X116712477Y-40416749D01*
X116779698Y-40512750D01*
X116790728Y-40528502D01*
X116843802Y-40604300D01*
X117005700Y-40766198D01*
X117010208Y-40769355D01*
X117010211Y-40769357D01*
X117065229Y-40807881D01*
X117193251Y-40897523D01*
X117198233Y-40899846D01*
X117198238Y-40899849D01*
X117394765Y-40991490D01*
X117400757Y-40994284D01*
X117406065Y-40995706D01*
X117406067Y-40995707D01*
X117616598Y-41052119D01*
X117616600Y-41052119D01*
X117621913Y-41053543D01*
X117850000Y-41073498D01*
X118078087Y-41053543D01*
X118083400Y-41052119D01*
X118083402Y-41052119D01*
X118293933Y-40995707D01*
X118293935Y-40995706D01*
X118299243Y-40994284D01*
X118305235Y-40991490D01*
X118501762Y-40899849D01*
X118501767Y-40899846D01*
X118506749Y-40897523D01*
X118634771Y-40807881D01*
X118689789Y-40769357D01*
X118689792Y-40769355D01*
X118694300Y-40766198D01*
X118856198Y-40604300D01*
X118909273Y-40528502D01*
X118920302Y-40512750D01*
X118987523Y-40416749D01*
X118989846Y-40411767D01*
X118989849Y-40411762D01*
X119005805Y-40377543D01*
X119052722Y-40324258D01*
X119120999Y-40304797D01*
X119188959Y-40325339D01*
X119234195Y-40377543D01*
X119250151Y-40411762D01*
X119250154Y-40411767D01*
X119252477Y-40416749D01*
X119319698Y-40512750D01*
X119330728Y-40528502D01*
X119383802Y-40604300D01*
X119545700Y-40766198D01*
X119550208Y-40769355D01*
X119550211Y-40769357D01*
X119605229Y-40807881D01*
X119733251Y-40897523D01*
X119738233Y-40899846D01*
X119738238Y-40899849D01*
X119934765Y-40991490D01*
X119940757Y-40994284D01*
X119946065Y-40995706D01*
X119946067Y-40995707D01*
X120156598Y-41052119D01*
X120156600Y-41052119D01*
X120161913Y-41053543D01*
X120390000Y-41073498D01*
X120618087Y-41053543D01*
X120623400Y-41052119D01*
X120623402Y-41052119D01*
X120833933Y-40995707D01*
X120833935Y-40995706D01*
X120839243Y-40994284D01*
X120845235Y-40991490D01*
X121041762Y-40899849D01*
X121041767Y-40899846D01*
X121046749Y-40897523D01*
X121174771Y-40807881D01*
X121229789Y-40769357D01*
X121229792Y-40769355D01*
X121234300Y-40766198D01*
X121396198Y-40604300D01*
X121449273Y-40528502D01*
X121460302Y-40512750D01*
X121527523Y-40416749D01*
X121529846Y-40411767D01*
X121529849Y-40411762D01*
X121545805Y-40377543D01*
X121592722Y-40324258D01*
X121660999Y-40304797D01*
X121728959Y-40325339D01*
X121774195Y-40377543D01*
X121790151Y-40411762D01*
X121790154Y-40411767D01*
X121792477Y-40416749D01*
X121859698Y-40512750D01*
X121870728Y-40528502D01*
X121923802Y-40604300D01*
X122085700Y-40766198D01*
X122090208Y-40769355D01*
X122090211Y-40769357D01*
X122145229Y-40807881D01*
X122273251Y-40897523D01*
X122278233Y-40899846D01*
X122278238Y-40899849D01*
X122474765Y-40991490D01*
X122480757Y-40994284D01*
X122486065Y-40995706D01*
X122486067Y-40995707D01*
X122696598Y-41052119D01*
X122696600Y-41052119D01*
X122701913Y-41053543D01*
X122930000Y-41073498D01*
X123158087Y-41053543D01*
X123163400Y-41052119D01*
X123163402Y-41052119D01*
X123373933Y-40995707D01*
X123373935Y-40995706D01*
X123379243Y-40994284D01*
X123385235Y-40991490D01*
X123581762Y-40899849D01*
X123581767Y-40899846D01*
X123586749Y-40897523D01*
X123714771Y-40807881D01*
X123769789Y-40769357D01*
X123769792Y-40769355D01*
X123774300Y-40766198D01*
X123936198Y-40604300D01*
X123989273Y-40528502D01*
X124000302Y-40512750D01*
X124067523Y-40416749D01*
X124069846Y-40411767D01*
X124069849Y-40411762D01*
X124085805Y-40377543D01*
X124132722Y-40324258D01*
X124200999Y-40304797D01*
X124268959Y-40325339D01*
X124314195Y-40377543D01*
X124330151Y-40411762D01*
X124330154Y-40411767D01*
X124332477Y-40416749D01*
X124399698Y-40512750D01*
X124410728Y-40528502D01*
X124463802Y-40604300D01*
X124625700Y-40766198D01*
X124630208Y-40769355D01*
X124630211Y-40769357D01*
X124685229Y-40807881D01*
X124813251Y-40897523D01*
X124818233Y-40899846D01*
X124818238Y-40899849D01*
X125014765Y-40991490D01*
X125020757Y-40994284D01*
X125026065Y-40995706D01*
X125026067Y-40995707D01*
X125236598Y-41052119D01*
X125236600Y-41052119D01*
X125241913Y-41053543D01*
X125470000Y-41073498D01*
X125698087Y-41053543D01*
X125703400Y-41052119D01*
X125703402Y-41052119D01*
X125913933Y-40995707D01*
X125913935Y-40995706D01*
X125919243Y-40994284D01*
X125925235Y-40991490D01*
X126121762Y-40899849D01*
X126121767Y-40899846D01*
X126126749Y-40897523D01*
X126254771Y-40807881D01*
X126309789Y-40769357D01*
X126309792Y-40769355D01*
X126314300Y-40766198D01*
X126476198Y-40604300D01*
X126529273Y-40528502D01*
X126540302Y-40512750D01*
X126607523Y-40416749D01*
X126609846Y-40411767D01*
X126609849Y-40411762D01*
X126625805Y-40377543D01*
X126672722Y-40324258D01*
X126740999Y-40304797D01*
X126808959Y-40325339D01*
X126854195Y-40377543D01*
X126870151Y-40411762D01*
X126870154Y-40411767D01*
X126872477Y-40416749D01*
X126939698Y-40512750D01*
X126950728Y-40528502D01*
X127003802Y-40604300D01*
X127165700Y-40766198D01*
X127170208Y-40769355D01*
X127170211Y-40769357D01*
X127225229Y-40807881D01*
X127353251Y-40897523D01*
X127358233Y-40899846D01*
X127358238Y-40899849D01*
X127554765Y-40991490D01*
X127560757Y-40994284D01*
X127566065Y-40995706D01*
X127566067Y-40995707D01*
X127776598Y-41052119D01*
X127776600Y-41052119D01*
X127781913Y-41053543D01*
X128010000Y-41073498D01*
X128238087Y-41053543D01*
X128243400Y-41052119D01*
X128243402Y-41052119D01*
X128453933Y-40995707D01*
X128453935Y-40995706D01*
X128459243Y-40994284D01*
X128465235Y-40991490D01*
X128661762Y-40899849D01*
X128661767Y-40899846D01*
X128666749Y-40897523D01*
X128794771Y-40807881D01*
X128849789Y-40769357D01*
X128849792Y-40769355D01*
X128854300Y-40766198D01*
X129016198Y-40604300D01*
X129069273Y-40528502D01*
X129080302Y-40512750D01*
X129147523Y-40416749D01*
X129149846Y-40411767D01*
X129149849Y-40411762D01*
X129241961Y-40214225D01*
X129241961Y-40214224D01*
X129244284Y-40209243D01*
X129260903Y-40147223D01*
X129302119Y-39993402D01*
X129302119Y-39993400D01*
X129303543Y-39988087D01*
X129323498Y-39760000D01*
X129303543Y-39531913D01*
X129263399Y-39382095D01*
X129245707Y-39316067D01*
X129245706Y-39316065D01*
X129244284Y-39310757D01*
X129235305Y-39291502D01*
X129149849Y-39108238D01*
X129149846Y-39108233D01*
X129147523Y-39103251D01*
X129103355Y-39040172D01*
X129080667Y-38972899D01*
X129097952Y-38904039D01*
X129149721Y-38855454D01*
X129167006Y-38848274D01*
X129205544Y-38835529D01*
X129211891Y-38833041D01*
X129531718Y-38687288D01*
X129537777Y-38684121D01*
X129839995Y-38504676D01*
X129845659Y-38500884D01*
X130126732Y-38289849D01*
X130131958Y-38285464D01*
X130141613Y-38276428D01*
X130149682Y-38262750D01*
X130149654Y-38262024D01*
X130144512Y-38253723D01*
X128012810Y-36122020D01*
X127998869Y-36114408D01*
X127997034Y-36114539D01*
X127990420Y-36118790D01*
X125856774Y-38252437D01*
X125849160Y-38266381D01*
X125849238Y-38267472D01*
X125858472Y-38281496D01*
X125879230Y-38349390D01*
X125859986Y-38417729D01*
X125806851Y-38464815D01*
X125736693Y-38475699D01*
X125720625Y-38472496D01*
X125703406Y-38467882D01*
X125703403Y-38467882D01*
X125698087Y-38466457D01*
X125470000Y-38446502D01*
X125241913Y-38466457D01*
X125236600Y-38467881D01*
X125236598Y-38467881D01*
X125026067Y-38524293D01*
X125026065Y-38524294D01*
X125020757Y-38525716D01*
X125015776Y-38528039D01*
X125015775Y-38528039D01*
X124818238Y-38620151D01*
X124818233Y-38620154D01*
X124813251Y-38622477D01*
X124722093Y-38686307D01*
X124630211Y-38750643D01*
X124630208Y-38750645D01*
X124625700Y-38753802D01*
X124463802Y-38915700D01*
X124332477Y-39103251D01*
X124330154Y-39108233D01*
X124330151Y-39108238D01*
X124314195Y-39142457D01*
X124267278Y-39195742D01*
X124199001Y-39215203D01*
X124131041Y-39194661D01*
X124085805Y-39142457D01*
X124069849Y-39108238D01*
X124069846Y-39108233D01*
X124067523Y-39103251D01*
X123936198Y-38915700D01*
X123774300Y-38753802D01*
X123769792Y-38750645D01*
X123769789Y-38750643D01*
X123677907Y-38686307D01*
X123586749Y-38622477D01*
X123581767Y-38620154D01*
X123581762Y-38620151D01*
X123384225Y-38528039D01*
X123384224Y-38528039D01*
X123379243Y-38525716D01*
X123373935Y-38524294D01*
X123373933Y-38524293D01*
X123163402Y-38467881D01*
X123163400Y-38467881D01*
X123158087Y-38466457D01*
X122930000Y-38446502D01*
X122701913Y-38466457D01*
X122696600Y-38467881D01*
X122696598Y-38467881D01*
X122486067Y-38524293D01*
X122486065Y-38524294D01*
X122480757Y-38525716D01*
X122475776Y-38528039D01*
X122475775Y-38528039D01*
X122278238Y-38620151D01*
X122278233Y-38620154D01*
X122273251Y-38622477D01*
X122182093Y-38686307D01*
X122090211Y-38750643D01*
X122090208Y-38750645D01*
X122085700Y-38753802D01*
X121923802Y-38915700D01*
X121792477Y-39103251D01*
X121790154Y-39108233D01*
X121790151Y-39108238D01*
X121774195Y-39142457D01*
X121727278Y-39195742D01*
X121659001Y-39215203D01*
X121591041Y-39194661D01*
X121545805Y-39142457D01*
X121529849Y-39108238D01*
X121529846Y-39108233D01*
X121527523Y-39103251D01*
X121396198Y-38915700D01*
X121234300Y-38753802D01*
X121229792Y-38750645D01*
X121229789Y-38750643D01*
X121137907Y-38686307D01*
X121046749Y-38622477D01*
X121041767Y-38620154D01*
X121041762Y-38620151D01*
X120844225Y-38528039D01*
X120844224Y-38528039D01*
X120839243Y-38525716D01*
X120833935Y-38524294D01*
X120833933Y-38524293D01*
X120623402Y-38467881D01*
X120623400Y-38467881D01*
X120618087Y-38466457D01*
X120390000Y-38446502D01*
X120161913Y-38466457D01*
X120156600Y-38467881D01*
X120156598Y-38467881D01*
X119946067Y-38524293D01*
X119946065Y-38524294D01*
X119940757Y-38525716D01*
X119935776Y-38528039D01*
X119935775Y-38528039D01*
X119738238Y-38620151D01*
X119738233Y-38620154D01*
X119733251Y-38622477D01*
X119642093Y-38686307D01*
X119550211Y-38750643D01*
X119550208Y-38750645D01*
X119545700Y-38753802D01*
X119383802Y-38915700D01*
X119252477Y-39103251D01*
X119250154Y-39108233D01*
X119250151Y-39108238D01*
X119234195Y-39142457D01*
X119187278Y-39195742D01*
X119119001Y-39215203D01*
X119051041Y-39194661D01*
X119005805Y-39142457D01*
X118989849Y-39108238D01*
X118989846Y-39108233D01*
X118987523Y-39103251D01*
X118856198Y-38915700D01*
X118694300Y-38753802D01*
X118689792Y-38750645D01*
X118689789Y-38750643D01*
X118597907Y-38686307D01*
X118506749Y-38622477D01*
X118501767Y-38620154D01*
X118501762Y-38620151D01*
X118304225Y-38528039D01*
X118304224Y-38528039D01*
X118299243Y-38525716D01*
X118293935Y-38524294D01*
X118293933Y-38524293D01*
X118083402Y-38467881D01*
X118083400Y-38467881D01*
X118078087Y-38466457D01*
X117850000Y-38446502D01*
X117621913Y-38466457D01*
X117616600Y-38467881D01*
X117616598Y-38467881D01*
X117406067Y-38524293D01*
X117406065Y-38524294D01*
X117400757Y-38525716D01*
X117395776Y-38528039D01*
X117395775Y-38528039D01*
X117198238Y-38620151D01*
X117198233Y-38620154D01*
X117193251Y-38622477D01*
X117102093Y-38686307D01*
X117010211Y-38750643D01*
X117010208Y-38750645D01*
X117005700Y-38753802D01*
X116843802Y-38915700D01*
X116712477Y-39103251D01*
X116710154Y-39108233D01*
X116710151Y-39108238D01*
X116694195Y-39142457D01*
X116647278Y-39195742D01*
X116579001Y-39215203D01*
X116511041Y-39194661D01*
X116465805Y-39142457D01*
X116449849Y-39108238D01*
X116449846Y-39108233D01*
X116447523Y-39103251D01*
X116316198Y-38915700D01*
X116154300Y-38753802D01*
X116149792Y-38750645D01*
X116149789Y-38750643D01*
X116057907Y-38686307D01*
X115966749Y-38622477D01*
X115961767Y-38620154D01*
X115961762Y-38620151D01*
X115764225Y-38528039D01*
X115764224Y-38528039D01*
X115759243Y-38525716D01*
X115753935Y-38524294D01*
X115753933Y-38524293D01*
X115543402Y-38467881D01*
X115543400Y-38467881D01*
X115538087Y-38466457D01*
X115310000Y-38446502D01*
X115081913Y-38466457D01*
X115076600Y-38467881D01*
X115076598Y-38467881D01*
X114866067Y-38524293D01*
X114866065Y-38524294D01*
X114860757Y-38525716D01*
X114855776Y-38528039D01*
X114855775Y-38528039D01*
X114658238Y-38620151D01*
X114658233Y-38620154D01*
X114653251Y-38622477D01*
X114562093Y-38686307D01*
X114470211Y-38750643D01*
X114470208Y-38750645D01*
X114465700Y-38753802D01*
X114303802Y-38915700D01*
X114172477Y-39103251D01*
X114170154Y-39108233D01*
X114170151Y-39108238D01*
X114154195Y-39142457D01*
X114107278Y-39195742D01*
X114039001Y-39215203D01*
X113971041Y-39194661D01*
X113925805Y-39142457D01*
X113909849Y-39108238D01*
X113909846Y-39108233D01*
X113907523Y-39103251D01*
X113776198Y-38915700D01*
X113614300Y-38753802D01*
X113609792Y-38750645D01*
X113609789Y-38750643D01*
X113517907Y-38686307D01*
X113426749Y-38622477D01*
X113421767Y-38620154D01*
X113421762Y-38620151D01*
X113224225Y-38528039D01*
X113224224Y-38528039D01*
X113219243Y-38525716D01*
X113213935Y-38524294D01*
X113213933Y-38524293D01*
X113003402Y-38467881D01*
X113003400Y-38467881D01*
X112998087Y-38466457D01*
X112770000Y-38446502D01*
X112541913Y-38466457D01*
X112536600Y-38467881D01*
X112536598Y-38467881D01*
X112326067Y-38524293D01*
X112326065Y-38524294D01*
X112320757Y-38525716D01*
X112315776Y-38528039D01*
X112315775Y-38528039D01*
X112118238Y-38620151D01*
X112118233Y-38620154D01*
X112113251Y-38622477D01*
X112022093Y-38686307D01*
X111930211Y-38750643D01*
X111930208Y-38750645D01*
X111925700Y-38753802D01*
X111763802Y-38915700D01*
X111632477Y-39103251D01*
X111630154Y-39108233D01*
X111630151Y-39108238D01*
X111614195Y-39142457D01*
X111567278Y-39195742D01*
X111499001Y-39215203D01*
X111431041Y-39194661D01*
X111385805Y-39142457D01*
X111369849Y-39108238D01*
X111369846Y-39108233D01*
X111367523Y-39103251D01*
X111236198Y-38915700D01*
X111074300Y-38753802D01*
X111069792Y-38750645D01*
X111069789Y-38750643D01*
X110977907Y-38686307D01*
X110886749Y-38622477D01*
X110881767Y-38620154D01*
X110881762Y-38620151D01*
X110684225Y-38528039D01*
X110684224Y-38528039D01*
X110679243Y-38525716D01*
X110673935Y-38524294D01*
X110673933Y-38524293D01*
X110463402Y-38467881D01*
X110463400Y-38467881D01*
X110458087Y-38466457D01*
X110230000Y-38446502D01*
X110001913Y-38466457D01*
X109996600Y-38467881D01*
X109996598Y-38467881D01*
X109786067Y-38524293D01*
X109786065Y-38524294D01*
X109780757Y-38525716D01*
X109775776Y-38528039D01*
X109775775Y-38528039D01*
X109578238Y-38620151D01*
X109578233Y-38620154D01*
X109573251Y-38622477D01*
X109482093Y-38686307D01*
X109390211Y-38750643D01*
X109390208Y-38750645D01*
X109385700Y-38753802D01*
X109223802Y-38915700D01*
X109092477Y-39103251D01*
X109090154Y-39108233D01*
X109090151Y-39108238D01*
X109074195Y-39142457D01*
X109027278Y-39195742D01*
X108959001Y-39215203D01*
X108891041Y-39194661D01*
X108845805Y-39142457D01*
X108829849Y-39108238D01*
X108829846Y-39108233D01*
X108827523Y-39103251D01*
X108696198Y-38915700D01*
X108534300Y-38753802D01*
X108529792Y-38750645D01*
X108529789Y-38750643D01*
X108437907Y-38686307D01*
X108346749Y-38622477D01*
X108341767Y-38620154D01*
X108341762Y-38620151D01*
X108144225Y-38528039D01*
X108144224Y-38528039D01*
X108139243Y-38525716D01*
X108133935Y-38524294D01*
X108133933Y-38524293D01*
X107923402Y-38467881D01*
X107923400Y-38467881D01*
X107918087Y-38466457D01*
X107690000Y-38446502D01*
X107461913Y-38466457D01*
X107456600Y-38467881D01*
X107456598Y-38467881D01*
X107246067Y-38524293D01*
X107246065Y-38524294D01*
X107240757Y-38525716D01*
X107235776Y-38528039D01*
X107235775Y-38528039D01*
X107038238Y-38620151D01*
X107038233Y-38620154D01*
X107033251Y-38622477D01*
X106942093Y-38686307D01*
X106850211Y-38750643D01*
X106850208Y-38750645D01*
X106845700Y-38753802D01*
X106683802Y-38915700D01*
X106552477Y-39103251D01*
X106550154Y-39108233D01*
X106550151Y-39108238D01*
X106534195Y-39142457D01*
X106487278Y-39195742D01*
X106419001Y-39215203D01*
X106351041Y-39194661D01*
X106305805Y-39142457D01*
X106289849Y-39108238D01*
X106289846Y-39108233D01*
X106287523Y-39103251D01*
X106156198Y-38915700D01*
X105994300Y-38753802D01*
X105989792Y-38750645D01*
X105989789Y-38750643D01*
X105897907Y-38686307D01*
X105806749Y-38622477D01*
X105801767Y-38620154D01*
X105801762Y-38620151D01*
X105604225Y-38528039D01*
X105604224Y-38528039D01*
X105599243Y-38525716D01*
X105593935Y-38524294D01*
X105593933Y-38524293D01*
X105383402Y-38467881D01*
X105383400Y-38467881D01*
X105378087Y-38466457D01*
X105150000Y-38446502D01*
X104921913Y-38466457D01*
X104916600Y-38467881D01*
X104916598Y-38467881D01*
X104706067Y-38524293D01*
X104706065Y-38524294D01*
X104700757Y-38525716D01*
X104695776Y-38528039D01*
X104695775Y-38528039D01*
X104498238Y-38620151D01*
X104498233Y-38620154D01*
X104493251Y-38622477D01*
X104402093Y-38686307D01*
X104310211Y-38750643D01*
X104310208Y-38750645D01*
X104305700Y-38753802D01*
X104143802Y-38915700D01*
X104012477Y-39103251D01*
X104010154Y-39108233D01*
X104010151Y-39108238D01*
X103994195Y-39142457D01*
X103947278Y-39195742D01*
X103879001Y-39215203D01*
X103811041Y-39194661D01*
X103765805Y-39142457D01*
X103749849Y-39108238D01*
X103749846Y-39108233D01*
X103747523Y-39103251D01*
X103616198Y-38915700D01*
X103454300Y-38753802D01*
X103449792Y-38750645D01*
X103449789Y-38750643D01*
X103357907Y-38686307D01*
X103266749Y-38622477D01*
X103261767Y-38620154D01*
X103261762Y-38620151D01*
X103064225Y-38528039D01*
X103064224Y-38528039D01*
X103059243Y-38525716D01*
X103053935Y-38524294D01*
X103053933Y-38524293D01*
X102843402Y-38467881D01*
X102843400Y-38467881D01*
X102838087Y-38466457D01*
X102610000Y-38446502D01*
X102381913Y-38466457D01*
X102376600Y-38467881D01*
X102376598Y-38467881D01*
X102166067Y-38524293D01*
X102166065Y-38524294D01*
X102160757Y-38525716D01*
X102155776Y-38528039D01*
X102155775Y-38528039D01*
X101958238Y-38620151D01*
X101958233Y-38620154D01*
X101953251Y-38622477D01*
X101862093Y-38686307D01*
X101770211Y-38750643D01*
X101770208Y-38750645D01*
X101765700Y-38753802D01*
X101603802Y-38915700D01*
X101472477Y-39103251D01*
X101470154Y-39108233D01*
X101470151Y-39108238D01*
X101454195Y-39142457D01*
X101407278Y-39195742D01*
X101339001Y-39215203D01*
X101271041Y-39194661D01*
X101225805Y-39142457D01*
X101209849Y-39108238D01*
X101209846Y-39108233D01*
X101207523Y-39103251D01*
X101076198Y-38915700D01*
X100914300Y-38753802D01*
X100909792Y-38750645D01*
X100909789Y-38750643D01*
X100817907Y-38686307D01*
X100726749Y-38622477D01*
X100721767Y-38620154D01*
X100721762Y-38620151D01*
X100524225Y-38528039D01*
X100524224Y-38528039D01*
X100519243Y-38525716D01*
X100513935Y-38524294D01*
X100513933Y-38524293D01*
X100303402Y-38467881D01*
X100303400Y-38467881D01*
X100298087Y-38466457D01*
X100070000Y-38446502D01*
X99841913Y-38466457D01*
X99836600Y-38467881D01*
X99836598Y-38467881D01*
X99626067Y-38524293D01*
X99626065Y-38524294D01*
X99620757Y-38525716D01*
X99615776Y-38528039D01*
X99615775Y-38528039D01*
X99418238Y-38620151D01*
X99418233Y-38620154D01*
X99413251Y-38622477D01*
X99322093Y-38686307D01*
X99230211Y-38750643D01*
X99230208Y-38750645D01*
X99225700Y-38753802D01*
X99063802Y-38915700D01*
X98932477Y-39103251D01*
X98930154Y-39108233D01*
X98930151Y-39108238D01*
X98914195Y-39142457D01*
X98867278Y-39195742D01*
X98799001Y-39215203D01*
X98731041Y-39194661D01*
X98685805Y-39142457D01*
X98669849Y-39108238D01*
X98669846Y-39108233D01*
X98667523Y-39103251D01*
X98536198Y-38915700D01*
X98374300Y-38753802D01*
X98369792Y-38750645D01*
X98369789Y-38750643D01*
X98277907Y-38686307D01*
X98186749Y-38622477D01*
X98181767Y-38620154D01*
X98181762Y-38620151D01*
X97984225Y-38528039D01*
X97984224Y-38528039D01*
X97979243Y-38525716D01*
X97973935Y-38524294D01*
X97973933Y-38524293D01*
X97763402Y-38467881D01*
X97763400Y-38467881D01*
X97758087Y-38466457D01*
X97530000Y-38446502D01*
X97301913Y-38466457D01*
X97296600Y-38467881D01*
X97296598Y-38467881D01*
X97086067Y-38524293D01*
X97086065Y-38524294D01*
X97080757Y-38525716D01*
X97075776Y-38528039D01*
X97075775Y-38528039D01*
X96878238Y-38620151D01*
X96878233Y-38620154D01*
X96873251Y-38622477D01*
X96782093Y-38686307D01*
X96690211Y-38750643D01*
X96690208Y-38750645D01*
X96685700Y-38753802D01*
X96523802Y-38915700D01*
X96392477Y-39103251D01*
X96390154Y-39108233D01*
X96390151Y-39108238D01*
X96373919Y-39143049D01*
X96327002Y-39196334D01*
X96258725Y-39215795D01*
X96190765Y-39195253D01*
X96145529Y-39143049D01*
X96129414Y-39108489D01*
X96123931Y-39098993D01*
X95998972Y-38920533D01*
X95991916Y-38912125D01*
X95837875Y-38758084D01*
X95829467Y-38751028D01*
X95651007Y-38626069D01*
X95641511Y-38620586D01*
X95444053Y-38528510D01*
X95433761Y-38524764D01*
X95261497Y-38478606D01*
X95247401Y-38478942D01*
X95244000Y-38486884D01*
X95244000Y-41027967D01*
X95247973Y-41041498D01*
X95256522Y-41042727D01*
X95433761Y-40995236D01*
X95444053Y-40991490D01*
X95641511Y-40899414D01*
X95651007Y-40893931D01*
X95829467Y-40768972D01*
X95837875Y-40761916D01*
X95991916Y-40607875D01*
X95998972Y-40599467D01*
X96123931Y-40421007D01*
X96129414Y-40411511D01*
X96145529Y-40376951D01*
X96192446Y-40323666D01*
X96260723Y-40304205D01*
X96328683Y-40324747D01*
X96373919Y-40376951D01*
X96390151Y-40411762D01*
X96390154Y-40411767D01*
X96392477Y-40416749D01*
X96459698Y-40512750D01*
X96470728Y-40528502D01*
X96523802Y-40604300D01*
X96685700Y-40766198D01*
X96690208Y-40769355D01*
X96690211Y-40769357D01*
X96745229Y-40807881D01*
X96873251Y-40897523D01*
X96878233Y-40899846D01*
X96878238Y-40899849D01*
X97074765Y-40991490D01*
X97080757Y-40994284D01*
X97086065Y-40995706D01*
X97086067Y-40995707D01*
X97296598Y-41052119D01*
X97296600Y-41052119D01*
X97301913Y-41053543D01*
X97530000Y-41073498D01*
X97535475Y-41073019D01*
X97535485Y-41073019D01*
X97544330Y-41072245D01*
X97613935Y-41086232D01*
X97664928Y-41135631D01*
X97681119Y-41204757D01*
X97657368Y-41271663D01*
X97644408Y-41286860D01*
X93122361Y-45808906D01*
X93048650Y-45903933D01*
X93045502Y-45911208D01*
X93045327Y-45911612D01*
X93044833Y-45912339D01*
X93041466Y-45918032D01*
X93041108Y-45917820D01*
X93018785Y-45950666D01*
X92094856Y-46874595D01*
X92032544Y-46908621D01*
X92005761Y-46911500D01*
X75392978Y-46911500D01*
X75324857Y-46891498D01*
X75287186Y-46853940D01*
X75282490Y-46846680D01*
X75213627Y-46740235D01*
X75182822Y-46692617D01*
X75182820Y-46692614D01*
X75180014Y-46688277D01*
X75029670Y-46523051D01*
X75025619Y-46519852D01*
X75025615Y-46519848D01*
X74858414Y-46387800D01*
X74858410Y-46387798D01*
X74854359Y-46384598D01*
X74812569Y-46361529D01*
X74762598Y-46311097D01*
X74747826Y-46241654D01*
X74772942Y-46175248D01*
X74800294Y-46148641D01*
X74975328Y-46023792D01*
X74983200Y-46017139D01*
X75134052Y-45866812D01*
X75140730Y-45858965D01*
X75265003Y-45686020D01*
X75270313Y-45677183D01*
X75364670Y-45486267D01*
X75368469Y-45476672D01*
X75430377Y-45272910D01*
X75432555Y-45262837D01*
X75433986Y-45251962D01*
X75431775Y-45237778D01*
X75418617Y-45234000D01*
X73972000Y-45234000D01*
X73903879Y-45213998D01*
X73857386Y-45160342D01*
X73846000Y-45108000D01*
X73846000Y-44852000D01*
X73866002Y-44783879D01*
X73919658Y-44737386D01*
X73972000Y-44726000D01*
X75418344Y-44726000D01*
X75431875Y-44722027D01*
X75433180Y-44712947D01*
X75391214Y-44545875D01*
X75387894Y-44536124D01*
X75302972Y-44340814D01*
X75298105Y-44331739D01*
X75182426Y-44152926D01*
X75176136Y-44144757D01*
X75032806Y-43987240D01*
X75025273Y-43980215D01*
X74858139Y-43848222D01*
X74849556Y-43842520D01*
X74812602Y-43822120D01*
X74762631Y-43771687D01*
X74747859Y-43702245D01*
X74772975Y-43635839D01*
X74800327Y-43609232D01*
X74831133Y-43587258D01*
X74979860Y-43481173D01*
X75138096Y-43323489D01*
X75142158Y-43317837D01*
X75265435Y-43146277D01*
X75268453Y-43142077D01*
X75273355Y-43132160D01*
X75365136Y-42946453D01*
X75365137Y-42946451D01*
X75367430Y-42941811D01*
X75418646Y-42773241D01*
X75430865Y-42733023D01*
X75430865Y-42733021D01*
X75432370Y-42728069D01*
X75461529Y-42506590D01*
X75462920Y-42449671D01*
X75463074Y-42443365D01*
X75463074Y-42443361D01*
X75463156Y-42440000D01*
X75460690Y-42410000D01*
X84586526Y-42410000D01*
X84606391Y-42662403D01*
X84607545Y-42667210D01*
X84607546Y-42667216D01*
X84634554Y-42779710D01*
X84665495Y-42908591D01*
X84667388Y-42913162D01*
X84667389Y-42913164D01*
X84752515Y-43118675D01*
X84762384Y-43142502D01*
X84894672Y-43358376D01*
X84964215Y-43439800D01*
X85047551Y-43537373D01*
X85059102Y-43550898D01*
X85062858Y-43554106D01*
X85082685Y-43571040D01*
X85251624Y-43715328D01*
X85467498Y-43847616D01*
X85472068Y-43849509D01*
X85472072Y-43849511D01*
X85696836Y-43942611D01*
X85701409Y-43944505D01*
X85785728Y-43964748D01*
X85942784Y-44002454D01*
X85942790Y-44002455D01*
X85947597Y-44003609D01*
X86200000Y-44023474D01*
X86452403Y-44003609D01*
X86457210Y-44002455D01*
X86457216Y-44002454D01*
X86614272Y-43964748D01*
X86698591Y-43944505D01*
X86703164Y-43942611D01*
X86927928Y-43849511D01*
X86927932Y-43849509D01*
X86932502Y-43847616D01*
X87148376Y-43715328D01*
X87317315Y-43571040D01*
X87337142Y-43554106D01*
X87340898Y-43550898D01*
X87352450Y-43537373D01*
X87435785Y-43439800D01*
X87505328Y-43358376D01*
X87637616Y-43142502D01*
X87647486Y-43118675D01*
X87732611Y-42913164D01*
X87732612Y-42913162D01*
X87734505Y-42908591D01*
X87765446Y-42779710D01*
X87792454Y-42667216D01*
X87792455Y-42667210D01*
X87793609Y-42662403D01*
X87809513Y-42460332D01*
X87834799Y-42393990D01*
X87846030Y-42381123D01*
X89286748Y-40940405D01*
X89349060Y-40906379D01*
X89375843Y-40903500D01*
X91778135Y-40903500D01*
X91831385Y-40915305D01*
X91987918Y-40988297D01*
X92000757Y-40994284D01*
X92006065Y-40995706D01*
X92006067Y-40995707D01*
X92216598Y-41052119D01*
X92216600Y-41052119D01*
X92221913Y-41053543D01*
X92450000Y-41073498D01*
X92678087Y-41053543D01*
X92683400Y-41052119D01*
X92683402Y-41052119D01*
X92893933Y-40995707D01*
X92893935Y-40995706D01*
X92899243Y-40994284D01*
X92905235Y-40991490D01*
X93101762Y-40899849D01*
X93101767Y-40899846D01*
X93106749Y-40897523D01*
X93234771Y-40807881D01*
X93289789Y-40769357D01*
X93289792Y-40769355D01*
X93294300Y-40766198D01*
X93456198Y-40604300D01*
X93509273Y-40528502D01*
X93520302Y-40512750D01*
X93587523Y-40416749D01*
X93589846Y-40411767D01*
X93589849Y-40411762D01*
X93606081Y-40376951D01*
X93652998Y-40323666D01*
X93721275Y-40304205D01*
X93789235Y-40324747D01*
X93834471Y-40376951D01*
X93850586Y-40411511D01*
X93856069Y-40421007D01*
X93981028Y-40599467D01*
X93988084Y-40607875D01*
X94142125Y-40761916D01*
X94150533Y-40768972D01*
X94328993Y-40893931D01*
X94338489Y-40899414D01*
X94535947Y-40991490D01*
X94546239Y-40995236D01*
X94718503Y-41041394D01*
X94732599Y-41041058D01*
X94736000Y-41033116D01*
X94736000Y-38492033D01*
X94732027Y-38478502D01*
X94723478Y-38477273D01*
X94546239Y-38524764D01*
X94535947Y-38528510D01*
X94338489Y-38620586D01*
X94328993Y-38626069D01*
X94150533Y-38751028D01*
X94142125Y-38758084D01*
X93988084Y-38912125D01*
X93981028Y-38920533D01*
X93856069Y-39098993D01*
X93850586Y-39108489D01*
X93834471Y-39143049D01*
X93787554Y-39196334D01*
X93719277Y-39215795D01*
X93651317Y-39195253D01*
X93606081Y-39143049D01*
X93589849Y-39108238D01*
X93589846Y-39108233D01*
X93587523Y-39103251D01*
X93456198Y-38915700D01*
X93294300Y-38753802D01*
X93289789Y-38750643D01*
X93289785Y-38750640D01*
X93282591Y-38745603D01*
X93238260Y-38690148D01*
X93230949Y-38619528D01*
X93262978Y-38556167D01*
X93290529Y-38534047D01*
X93339995Y-38504676D01*
X93345659Y-38500884D01*
X93626732Y-38289849D01*
X93631958Y-38285464D01*
X93641613Y-38276428D01*
X93649682Y-38262750D01*
X93649654Y-38262024D01*
X93644512Y-38253723D01*
X91512810Y-36122020D01*
X91498869Y-36114408D01*
X91497034Y-36114539D01*
X91490420Y-36118790D01*
X89356774Y-38252437D01*
X89349160Y-38266381D01*
X89349237Y-38267470D01*
X89351698Y-38271207D01*
X89507213Y-38390538D01*
X89549080Y-38447876D01*
X89553302Y-38518747D01*
X89518538Y-38580649D01*
X89455825Y-38613931D01*
X89430509Y-38616500D01*
X88892805Y-38616500D01*
X88884564Y-38616230D01*
X88849490Y-38613931D01*
X88819939Y-38611994D01*
X88732041Y-38622398D01*
X88728773Y-38622740D01*
X88640721Y-38630831D01*
X88635155Y-38632401D01*
X88631459Y-38633086D01*
X88620610Y-38635244D01*
X88616974Y-38636017D01*
X88611235Y-38636696D01*
X88526744Y-38662931D01*
X88523608Y-38663860D01*
X88462459Y-38681106D01*
X88438451Y-38687877D01*
X88433263Y-38690435D01*
X88429812Y-38691760D01*
X88419434Y-38695901D01*
X88416047Y-38697304D01*
X88410527Y-38699018D01*
X88405413Y-38701709D01*
X88405412Y-38701709D01*
X88332255Y-38740198D01*
X88329319Y-38741695D01*
X88249963Y-38780829D01*
X88245332Y-38784287D01*
X88242129Y-38786250D01*
X88232742Y-38792173D01*
X88229649Y-38794182D01*
X88224537Y-38796871D01*
X88155044Y-38851656D01*
X88152474Y-38853627D01*
X88086199Y-38903116D01*
X88086192Y-38903123D01*
X88081571Y-38906573D01*
X88077657Y-38910807D01*
X88077655Y-38910809D01*
X88025738Y-38966973D01*
X88022308Y-38970539D01*
X86228877Y-40763970D01*
X86166565Y-40797996D01*
X86149668Y-40800487D01*
X86136404Y-40801531D01*
X85947597Y-40816391D01*
X85942790Y-40817545D01*
X85942784Y-40817546D01*
X85786032Y-40855179D01*
X85701409Y-40875495D01*
X85696838Y-40877388D01*
X85696836Y-40877389D01*
X85472072Y-40970489D01*
X85472068Y-40970491D01*
X85467498Y-40972384D01*
X85251624Y-41104672D01*
X85059102Y-41269102D01*
X84894672Y-41461624D01*
X84762384Y-41677498D01*
X84760491Y-41682068D01*
X84760489Y-41682072D01*
X84709004Y-41806368D01*
X84665495Y-41911409D01*
X84664340Y-41916221D01*
X84620219Y-42100000D01*
X84606391Y-42157597D01*
X84586526Y-42410000D01*
X75460690Y-42410000D01*
X75444852Y-42217361D01*
X75390431Y-42000702D01*
X75301354Y-41795840D01*
X75204273Y-41645775D01*
X75182822Y-41612617D01*
X75182820Y-41612614D01*
X75180014Y-41608277D01*
X75171048Y-41598423D01*
X75032798Y-41446488D01*
X75001746Y-41382642D01*
X75010141Y-41312143D01*
X75055317Y-41257375D01*
X75081761Y-41243706D01*
X75188297Y-41203767D01*
X75196705Y-41200615D01*
X75313261Y-41113261D01*
X75400615Y-40996705D01*
X75451745Y-40860316D01*
X75458500Y-40798134D01*
X75458500Y-39001866D01*
X75451745Y-38939684D01*
X75400615Y-38803295D01*
X75313261Y-38686739D01*
X75196705Y-38599385D01*
X75060316Y-38548255D01*
X74998134Y-38541500D01*
X73201866Y-38541500D01*
X73139684Y-38548255D01*
X73003295Y-38599385D01*
X72886739Y-38686739D01*
X72799385Y-38803295D01*
X72748255Y-38939684D01*
X72741500Y-39001866D01*
X72741500Y-40345761D01*
X72721498Y-40413882D01*
X72704595Y-40434856D01*
X72223595Y-40915856D01*
X72161283Y-40949882D01*
X72090468Y-40944817D01*
X72033632Y-40902270D01*
X72008821Y-40835750D01*
X72008500Y-40826761D01*
X72008500Y-38094669D01*
X76542001Y-38094669D01*
X76542371Y-38101490D01*
X76547895Y-38152352D01*
X76551521Y-38167604D01*
X76596676Y-38288054D01*
X76605214Y-38303649D01*
X76681715Y-38405724D01*
X76694276Y-38418285D01*
X76796351Y-38494786D01*
X76811946Y-38503324D01*
X76932394Y-38548478D01*
X76947649Y-38552105D01*
X76998514Y-38557631D01*
X77005328Y-38558000D01*
X77977885Y-38558000D01*
X77993124Y-38553525D01*
X77994329Y-38552135D01*
X77996000Y-38544452D01*
X77996000Y-37122115D01*
X77991525Y-37106876D01*
X77990135Y-37105671D01*
X77982452Y-37104000D01*
X76560116Y-37104000D01*
X76544877Y-37108475D01*
X76543672Y-37109865D01*
X76542001Y-37117548D01*
X76542001Y-38094669D01*
X72008500Y-38094669D01*
X72008500Y-36577885D01*
X76542000Y-36577885D01*
X76546475Y-36593124D01*
X76547865Y-36594329D01*
X76555548Y-36596000D01*
X77977885Y-36596000D01*
X77993124Y-36591525D01*
X77994329Y-36590135D01*
X77996000Y-36582452D01*
X77996000Y-35160116D01*
X77991525Y-35144877D01*
X77990135Y-35143672D01*
X77982452Y-35142001D01*
X77005331Y-35142001D01*
X76998510Y-35142371D01*
X76947648Y-35147895D01*
X76932396Y-35151521D01*
X76811946Y-35196676D01*
X76796351Y-35205214D01*
X76694276Y-35281715D01*
X76681715Y-35294276D01*
X76605214Y-35396351D01*
X76596676Y-35411946D01*
X76551522Y-35532394D01*
X76547895Y-35547649D01*
X76542369Y-35598514D01*
X76542000Y-35605328D01*
X76542000Y-36577885D01*
X72008500Y-36577885D01*
X72008500Y-33134500D01*
X72028502Y-33066379D01*
X72082158Y-33019886D01*
X72134500Y-33008500D01*
X84785144Y-33008500D01*
X84853265Y-33028502D01*
G37*
%TD.AperFunction*%
%TA.AperFunction,Conductor*%
G36*
X87794882Y-53428502D02*
G01*
X87841375Y-53482158D01*
X87851479Y-53552432D01*
X87821985Y-53617012D01*
X87815856Y-53623595D01*
X85203766Y-56235685D01*
X85191375Y-56246552D01*
X85166013Y-56266013D01*
X85141526Y-56297925D01*
X85141523Y-56297928D01*
X85123616Y-56321265D01*
X85085314Y-56371181D01*
X85068476Y-56393124D01*
X85023752Y-56501097D01*
X85022162Y-56504936D01*
X85019210Y-56512064D01*
X85007162Y-56541150D01*
X85006084Y-56549338D01*
X84994300Y-56638849D01*
X84991500Y-56660115D01*
X84991500Y-56660120D01*
X84986250Y-56700000D01*
X84989709Y-56726271D01*
X84990422Y-56731690D01*
X84991500Y-56748136D01*
X84991500Y-58715500D01*
X84971498Y-58783621D01*
X84917842Y-58830114D01*
X84865500Y-58841500D01*
X84701866Y-58841500D01*
X84639684Y-58848255D01*
X84503295Y-58899385D01*
X84386739Y-58986739D01*
X84299385Y-59103295D01*
X84296233Y-59111703D01*
X84254919Y-59221907D01*
X84212277Y-59278671D01*
X84145716Y-59303371D01*
X84076367Y-59288163D01*
X84043743Y-59262476D01*
X83993151Y-59206875D01*
X83993142Y-59206866D01*
X83989670Y-59203051D01*
X83985619Y-59199852D01*
X83985615Y-59199848D01*
X83818414Y-59067800D01*
X83818410Y-59067798D01*
X83814359Y-59064598D01*
X83797587Y-59055339D01*
X83740656Y-59023912D01*
X83618789Y-58956638D01*
X83613920Y-58954914D01*
X83613916Y-58954912D01*
X83413087Y-58883795D01*
X83413083Y-58883794D01*
X83408212Y-58882069D01*
X83403119Y-58881162D01*
X83403116Y-58881161D01*
X83193373Y-58843800D01*
X83193367Y-58843799D01*
X83188284Y-58842894D01*
X83114452Y-58841992D01*
X82970081Y-58840228D01*
X82970079Y-58840228D01*
X82964911Y-58840165D01*
X82744091Y-58873955D01*
X82531756Y-58943357D01*
X82499380Y-58960211D01*
X82377012Y-59023912D01*
X82333607Y-59046507D01*
X82329474Y-59049610D01*
X82329471Y-59049612D01*
X82159100Y-59177530D01*
X82154965Y-59180635D01*
X82129541Y-59207240D01*
X82061280Y-59278671D01*
X82000629Y-59342138D01*
X81893201Y-59499621D01*
X81838293Y-59544621D01*
X81767768Y-59552792D01*
X81704021Y-59521538D01*
X81683324Y-59497054D01*
X81602822Y-59372617D01*
X81602820Y-59372614D01*
X81600014Y-59368277D01*
X81449670Y-59203051D01*
X81445619Y-59199852D01*
X81445615Y-59199848D01*
X81278414Y-59067800D01*
X81278410Y-59067798D01*
X81274359Y-59064598D01*
X81257587Y-59055339D01*
X81200656Y-59023912D01*
X81078789Y-58956638D01*
X81073920Y-58954914D01*
X81073916Y-58954912D01*
X80873087Y-58883795D01*
X80873083Y-58883794D01*
X80868212Y-58882069D01*
X80863119Y-58881162D01*
X80863116Y-58881161D01*
X80653373Y-58843800D01*
X80653367Y-58843799D01*
X80648284Y-58842894D01*
X80574452Y-58841992D01*
X80430081Y-58840228D01*
X80430079Y-58840228D01*
X80424911Y-58840165D01*
X80204091Y-58873955D01*
X79991756Y-58943357D01*
X79959380Y-58960211D01*
X79837012Y-59023912D01*
X79793607Y-59046507D01*
X79789474Y-59049610D01*
X79789471Y-59049612D01*
X79619100Y-59177530D01*
X79614965Y-59180635D01*
X79589541Y-59207240D01*
X79521280Y-59278671D01*
X79460629Y-59342138D01*
X79457720Y-59346403D01*
X79457714Y-59346411D01*
X79451127Y-59356067D01*
X79353204Y-59499618D01*
X79352898Y-59500066D01*
X79297987Y-59545069D01*
X79227462Y-59553240D01*
X79163715Y-59521986D01*
X79143018Y-59497502D01*
X79062426Y-59372926D01*
X79056136Y-59364757D01*
X78912806Y-59207240D01*
X78905273Y-59200215D01*
X78738139Y-59068222D01*
X78729552Y-59062517D01*
X78543117Y-58959599D01*
X78533705Y-58955369D01*
X78332959Y-58884280D01*
X78322988Y-58881646D01*
X78251837Y-58868972D01*
X78238540Y-58870432D01*
X78234000Y-58884989D01*
X78234000Y-61518517D01*
X78238064Y-61532359D01*
X78251478Y-61534393D01*
X78258184Y-61533534D01*
X78268262Y-61531392D01*
X78472255Y-61470191D01*
X78481842Y-61466433D01*
X78673095Y-61372739D01*
X78681945Y-61367464D01*
X78855328Y-61243792D01*
X78863200Y-61237139D01*
X79014052Y-61086812D01*
X79020730Y-61078965D01*
X79148022Y-60901819D01*
X79149279Y-60902722D01*
X79196373Y-60859362D01*
X79266311Y-60847145D01*
X79331751Y-60874678D01*
X79359579Y-60906511D01*
X79419987Y-61005088D01*
X79566250Y-61173938D01*
X79738126Y-61316632D01*
X79931000Y-61429338D01*
X79935825Y-61431180D01*
X79935826Y-61431181D01*
X79980806Y-61448357D01*
X80139692Y-61509030D01*
X80144760Y-61510061D01*
X80144763Y-61510062D01*
X80206454Y-61522613D01*
X80358597Y-61553567D01*
X80363772Y-61553757D01*
X80363774Y-61553757D01*
X80576673Y-61561564D01*
X80576677Y-61561564D01*
X80581837Y-61561753D01*
X80586957Y-61561097D01*
X80586959Y-61561097D01*
X80798288Y-61534025D01*
X80798289Y-61534025D01*
X80803416Y-61533368D01*
X80808366Y-61531883D01*
X81012429Y-61470661D01*
X81012434Y-61470659D01*
X81017384Y-61469174D01*
X81217994Y-61370896D01*
X81399860Y-61241173D01*
X81558096Y-61083489D01*
X81581550Y-61050850D01*
X81688453Y-60902077D01*
X81689776Y-60903028D01*
X81736645Y-60859857D01*
X81806580Y-60847625D01*
X81872026Y-60875144D01*
X81899875Y-60906994D01*
X81959987Y-61005088D01*
X82106250Y-61173938D01*
X82278126Y-61316632D01*
X82471000Y-61429338D01*
X82475828Y-61431182D01*
X82475837Y-61431186D01*
X82478246Y-61432106D01*
X82479127Y-61432762D01*
X82480497Y-61433419D01*
X82480368Y-61433688D01*
X82533261Y-61473112D01*
X82601520Y-61562069D01*
X82601526Y-61562075D01*
X82626013Y-61593987D01*
X82636143Y-61601760D01*
X82651377Y-61613450D01*
X82663767Y-61624317D01*
X82815855Y-61776405D01*
X82849881Y-61838717D01*
X82844816Y-61909532D01*
X82802269Y-61966368D01*
X82735749Y-61991179D01*
X82726760Y-61991500D01*
X72134500Y-61991500D01*
X72066379Y-61971498D01*
X72019886Y-61917842D01*
X72008500Y-61865500D01*
X72008500Y-60467966D01*
X76648257Y-60467966D01*
X76678565Y-60602446D01*
X76681645Y-60612275D01*
X76761770Y-60809603D01*
X76766413Y-60818794D01*
X76877694Y-61000388D01*
X76883777Y-61008699D01*
X77023213Y-61169667D01*
X77030580Y-61176883D01*
X77194434Y-61312916D01*
X77202881Y-61318831D01*
X77386756Y-61426279D01*
X77396042Y-61430729D01*
X77595001Y-61506703D01*
X77604899Y-61509579D01*
X77708250Y-61530606D01*
X77722299Y-61529410D01*
X77726000Y-61519065D01*
X77726000Y-60472115D01*
X77721525Y-60456876D01*
X77720135Y-60455671D01*
X77712452Y-60454000D01*
X76663225Y-60454000D01*
X76649694Y-60457973D01*
X76648257Y-60467966D01*
X72008500Y-60467966D01*
X72008500Y-59934183D01*
X76644389Y-59934183D01*
X76645912Y-59942607D01*
X76658292Y-59946000D01*
X77707885Y-59946000D01*
X77723124Y-59941525D01*
X77724329Y-59940135D01*
X77726000Y-59932452D01*
X77726000Y-58883102D01*
X77722082Y-58869758D01*
X77707806Y-58867771D01*
X77669324Y-58873660D01*
X77659288Y-58876051D01*
X77456868Y-58942212D01*
X77447359Y-58946209D01*
X77258463Y-59044542D01*
X77249738Y-59050036D01*
X77079433Y-59177905D01*
X77071726Y-59184748D01*
X76924590Y-59338717D01*
X76918104Y-59346727D01*
X76798098Y-59522649D01*
X76793000Y-59531623D01*
X76703338Y-59724783D01*
X76699775Y-59734470D01*
X76644389Y-59934183D01*
X72008500Y-59934183D01*
X72008500Y-54213239D01*
X72028502Y-54145118D01*
X72082158Y-54098625D01*
X72152432Y-54088521D01*
X72217012Y-54118015D01*
X72223595Y-54124144D01*
X72757454Y-54658003D01*
X72791480Y-54720315D01*
X72789776Y-54780769D01*
X72760989Y-54884570D01*
X72737251Y-55106695D01*
X72737548Y-55111848D01*
X72737548Y-55111851D01*
X72747874Y-55290937D01*
X72750110Y-55329715D01*
X72751247Y-55334761D01*
X72751248Y-55334767D01*
X72768018Y-55409180D01*
X72799222Y-55547639D01*
X72849526Y-55671524D01*
X72880783Y-55748500D01*
X72883266Y-55754616D01*
X72905610Y-55791078D01*
X72978985Y-55910815D01*
X72999987Y-55945088D01*
X73146250Y-56113938D01*
X73318126Y-56256632D01*
X73511000Y-56369338D01*
X73515825Y-56371180D01*
X73515826Y-56371181D01*
X73556904Y-56386867D01*
X73719692Y-56449030D01*
X73724760Y-56450061D01*
X73724763Y-56450062D01*
X73832017Y-56471883D01*
X73938597Y-56493567D01*
X73943772Y-56493757D01*
X73943774Y-56493757D01*
X74156673Y-56501564D01*
X74156677Y-56501564D01*
X74161837Y-56501753D01*
X74166957Y-56501097D01*
X74166959Y-56501097D01*
X74378288Y-56474025D01*
X74378289Y-56474025D01*
X74383416Y-56473368D01*
X74388366Y-56471883D01*
X74592429Y-56410661D01*
X74592434Y-56410659D01*
X74597384Y-56409174D01*
X74797994Y-56310896D01*
X74979860Y-56181173D01*
X75138096Y-56023489D01*
X75148528Y-56008972D01*
X75265435Y-55846277D01*
X75268453Y-55842077D01*
X75275721Y-55827371D01*
X75280019Y-55818675D01*
X75328132Y-55766467D01*
X75392977Y-55748500D01*
X77711864Y-55748500D01*
X77728307Y-55749578D01*
X77760000Y-55753750D01*
X77768189Y-55752672D01*
X77799874Y-55748501D01*
X77799884Y-55748500D01*
X77799885Y-55748500D01*
X77899823Y-55735343D01*
X77910663Y-55733916D01*
X77918851Y-55732838D01*
X78066876Y-55671524D01*
X78080257Y-55661257D01*
X78162072Y-55598477D01*
X78162075Y-55598474D01*
X78187437Y-55579013D01*
X78193987Y-55573987D01*
X78213458Y-55548613D01*
X78224316Y-55536233D01*
X80315144Y-53445405D01*
X80377456Y-53411379D01*
X80404239Y-53408500D01*
X87726761Y-53408500D01*
X87794882Y-53428502D01*
G37*
%TD.AperFunction*%
%TA.AperFunction,Conductor*%
G36*
X73026375Y-45838340D02*
G01*
X73077581Y-45873899D01*
X73143219Y-45949674D01*
X73150580Y-45956883D01*
X73314434Y-46092916D01*
X73322881Y-46098831D01*
X73391969Y-46139203D01*
X73440693Y-46190842D01*
X73453764Y-46260625D01*
X73427033Y-46326396D01*
X73386584Y-46359752D01*
X73373607Y-46366507D01*
X73369474Y-46369610D01*
X73369471Y-46369612D01*
X73199100Y-46497530D01*
X73194965Y-46500635D01*
X73129346Y-46569301D01*
X73055583Y-46646490D01*
X73040629Y-46662138D01*
X73037715Y-46666410D01*
X73037714Y-46666411D01*
X72989079Y-46737708D01*
X72914743Y-46846680D01*
X72913945Y-46848400D01*
X72863589Y-46897088D01*
X72805074Y-46911500D01*
X72068607Y-46911500D01*
X72000486Y-46891498D01*
X71953993Y-46837842D01*
X71943889Y-46767568D01*
X71973383Y-46702988D01*
X71981707Y-46694262D01*
X71984949Y-46691175D01*
X72023627Y-46666007D01*
X72106876Y-46631524D01*
X72131291Y-46612790D01*
X72202072Y-46558477D01*
X72202075Y-46558474D01*
X72227434Y-46539015D01*
X72233987Y-46533987D01*
X72242379Y-46523051D01*
X72253452Y-46508621D01*
X72264319Y-46496230D01*
X72893248Y-45867301D01*
X72955560Y-45833275D01*
X73026375Y-45838340D01*
G37*
%TD.AperFunction*%
%TD*%
M02*
