%TF.GenerationSoftware,KiCad,Pcbnew,(6.0.9-0)*%
%TF.CreationDate,2023-03-25T23:39:45+01:00*%
%TF.ProjectId,FilamentSpoolScale,46696c61-6d65-46e7-9453-706f6f6c5363,rev?*%
%TF.SameCoordinates,Original*%
%TF.FileFunction,Legend,Top*%
%TF.FilePolarity,Positive*%
%FSLAX46Y46*%
G04 Gerber Fmt 4.6, Leading zero omitted, Abs format (unit mm)*
G04 Created by KiCad (PCBNEW (6.0.9-0)) date 2023-03-25 23:39:45*
%MOMM*%
%LPD*%
G01*
G04 APERTURE LIST*
%ADD10C,0.150000*%
%ADD11C,0.120000*%
G04 APERTURE END LIST*
D10*
X76657142Y-57600000D02*
X76561904Y-57552380D01*
X76419047Y-57552380D01*
X76276190Y-57600000D01*
X76180952Y-57695238D01*
X76133333Y-57790476D01*
X76085714Y-57980952D01*
X76085714Y-58123809D01*
X76133333Y-58314285D01*
X76180952Y-58409523D01*
X76276190Y-58504761D01*
X76419047Y-58552380D01*
X76514285Y-58552380D01*
X76657142Y-58504761D01*
X76704761Y-58457142D01*
X76704761Y-58123809D01*
X76514285Y-58123809D01*
X77133333Y-58552380D02*
X77133333Y-57552380D01*
X77704761Y-58552380D01*
X77704761Y-57552380D01*
X78180952Y-58552380D02*
X78180952Y-57552380D01*
X78419047Y-57552380D01*
X78561904Y-57600000D01*
X78657142Y-57695238D01*
X78704761Y-57790476D01*
X78752380Y-57980952D01*
X78752380Y-58123809D01*
X78704761Y-58314285D01*
X78657142Y-58409523D01*
X78561904Y-58504761D01*
X78419047Y-58552380D01*
X78180952Y-58552380D01*
X80419047Y-57552380D02*
X79942857Y-57552380D01*
X79895238Y-58028571D01*
X79942857Y-57980952D01*
X80038095Y-57933333D01*
X80276190Y-57933333D01*
X80371428Y-57980952D01*
X80419047Y-58028571D01*
X80466666Y-58123809D01*
X80466666Y-58361904D01*
X80419047Y-58457142D01*
X80371428Y-58504761D01*
X80276190Y-58552380D01*
X80038095Y-58552380D01*
X79942857Y-58504761D01*
X79895238Y-58457142D01*
X80752380Y-57552380D02*
X81085714Y-58552380D01*
X81419047Y-57552380D01*
X82371428Y-57552380D02*
X82942857Y-57552380D01*
X82657142Y-58552380D02*
X82657142Y-57552380D01*
X83180952Y-57552380D02*
X83847619Y-58552380D01*
X83847619Y-57552380D02*
X83180952Y-58552380D01*
X85561904Y-58552380D02*
X85228571Y-58076190D01*
X84990476Y-58552380D02*
X84990476Y-57552380D01*
X85371428Y-57552380D01*
X85466666Y-57600000D01*
X85514285Y-57647619D01*
X85561904Y-57742857D01*
X85561904Y-57885714D01*
X85514285Y-57980952D01*
X85466666Y-58028571D01*
X85371428Y-58076190D01*
X84990476Y-58076190D01*
X85895238Y-57552380D02*
X86561904Y-58552380D01*
X86561904Y-57552380D02*
X85895238Y-58552380D01*
%TO.C,A1*%
X127462380Y-48641904D02*
X128271904Y-48641904D01*
X128367142Y-48594285D01*
X128414761Y-48546666D01*
X128462380Y-48451428D01*
X128462380Y-48260952D01*
X128414761Y-48165714D01*
X128367142Y-48118095D01*
X128271904Y-48070476D01*
X127462380Y-48070476D01*
X128414761Y-47641904D02*
X128462380Y-47499047D01*
X128462380Y-47260952D01*
X128414761Y-47165714D01*
X128367142Y-47118095D01*
X128271904Y-47070476D01*
X128176666Y-47070476D01*
X128081428Y-47118095D01*
X128033809Y-47165714D01*
X127986190Y-47260952D01*
X127938571Y-47451428D01*
X127890952Y-47546666D01*
X127843333Y-47594285D01*
X127748095Y-47641904D01*
X127652857Y-47641904D01*
X127557619Y-47594285D01*
X127510000Y-47546666D01*
X127462380Y-47451428D01*
X127462380Y-47213333D01*
X127510000Y-47070476D01*
X127938571Y-46308571D02*
X127986190Y-46165714D01*
X128033809Y-46118095D01*
X128129047Y-46070476D01*
X128271904Y-46070476D01*
X128367142Y-46118095D01*
X128414761Y-46165714D01*
X128462380Y-46260952D01*
X128462380Y-46641904D01*
X127462380Y-46641904D01*
X127462380Y-46308571D01*
X127510000Y-46213333D01*
X127557619Y-46165714D01*
X127652857Y-46118095D01*
X127748095Y-46118095D01*
X127843333Y-46165714D01*
X127890952Y-46213333D01*
X127938571Y-46308571D01*
X127938571Y-46641904D01*
%TO.C,D1*%
X86652380Y-39738095D02*
X85652380Y-39738095D01*
X85652380Y-39500000D01*
X85700000Y-39357142D01*
X85795238Y-39261904D01*
X85890476Y-39214285D01*
X86080952Y-39166666D01*
X86223809Y-39166666D01*
X86414285Y-39214285D01*
X86509523Y-39261904D01*
X86604761Y-39357142D01*
X86652380Y-39500000D01*
X86652380Y-39738095D01*
X86652380Y-38214285D02*
X86652380Y-38785714D01*
X86652380Y-38500000D02*
X85652380Y-38500000D01*
X85795238Y-38595238D01*
X85890476Y-38690476D01*
X85938095Y-38785714D01*
X86852380Y-33261904D02*
X85852380Y-33261904D01*
X86852380Y-32690476D02*
X86280952Y-33119047D01*
X85852380Y-32690476D02*
X86423809Y-33261904D01*
D11*
%TO.C,J5*%
X72770000Y-39900000D02*
X72770000Y-38570000D01*
X72770000Y-41170000D02*
X75430000Y-41170000D01*
X72770000Y-56470000D02*
X75430000Y-56470000D01*
X75430000Y-41170000D02*
X75430000Y-56470000D01*
X72770000Y-41170000D02*
X72770000Y-56470000D01*
X72770000Y-38570000D02*
X74100000Y-38570000D01*
%TO.C,A1*%
X124070000Y-43440000D02*
X134490000Y-43440000D01*
X129280000Y-53730000D02*
X129280000Y-56400000D01*
X124070000Y-51320000D02*
X124070000Y-43440000D01*
X91180000Y-41030000D02*
X129280000Y-41030000D01*
X88510000Y-56400000D02*
X91180000Y-56400000D01*
X134490000Y-43440000D02*
X134490000Y-51320000D01*
X93720000Y-53730000D02*
X129280000Y-53730000D01*
X93720000Y-56400000D02*
X131950000Y-56400000D01*
X131950000Y-38360000D02*
X131950000Y-43440000D01*
X134490000Y-51320000D02*
X124070000Y-51320000D01*
X88510000Y-38360000D02*
X88510000Y-56400000D01*
X93720000Y-53730000D02*
X91180000Y-53730000D01*
X131950000Y-56400000D02*
X131950000Y-51320000D01*
X91180000Y-53730000D02*
X91180000Y-56400000D01*
X131950000Y-38360000D02*
X88510000Y-38360000D01*
X129280000Y-41030000D02*
X129280000Y-38360000D01*
X91180000Y-41030000D02*
X91180000Y-38360000D01*
X93720000Y-53730000D02*
X93720000Y-56400000D01*
%TO.C,SW3*%
X50250000Y-30400000D02*
X50250000Y-28900000D01*
X43250000Y-28900000D02*
X43250000Y-30400000D01*
X44500000Y-32900000D02*
X49000000Y-32900000D01*
X49000000Y-26400000D02*
X44500000Y-26400000D01*
%TO.C,J6*%
X36070000Y-41170000D02*
X36070000Y-56470000D01*
X36070000Y-41170000D02*
X38730000Y-41170000D01*
X36070000Y-56470000D02*
X38730000Y-56470000D01*
X36070000Y-39900000D02*
X36070000Y-38570000D01*
X38730000Y-41170000D02*
X38730000Y-56470000D01*
X36070000Y-38570000D02*
X37400000Y-38570000D01*
%TO.C,D1*%
X87670000Y-35880000D02*
X87670000Y-41320000D01*
X87670000Y-36660000D02*
X84730000Y-36660000D01*
X87540000Y-35880000D02*
X87670000Y-35880000D01*
X87670000Y-36900000D02*
X84730000Y-36900000D01*
X84730000Y-41320000D02*
X84860000Y-41320000D01*
X87670000Y-36780000D02*
X84730000Y-36780000D01*
X87670000Y-41320000D02*
X87540000Y-41320000D01*
X84860000Y-35880000D02*
X84730000Y-35880000D01*
X84730000Y-35880000D02*
X84730000Y-41320000D01*
%TO.C,SW1*%
X49000000Y-61950000D02*
X44500000Y-61950000D01*
X43250000Y-64450000D02*
X43250000Y-65950000D01*
X44500000Y-68450000D02*
X49000000Y-68450000D01*
X50250000Y-65950000D02*
X50250000Y-64450000D01*
%TO.C,J1*%
X60300000Y-35000000D02*
X33300000Y-35000000D01*
X33300000Y-35000000D02*
X33300000Y-60000000D01*
X33300000Y-60000000D02*
X60300000Y-60000000D01*
X60300000Y-60000000D02*
X60300000Y-35000000D01*
%TO.C,J4*%
X85600000Y-58870000D02*
X86930000Y-58870000D01*
X86930000Y-58870000D02*
X86930000Y-60200000D01*
X84330000Y-58870000D02*
X84330000Y-61530000D01*
X76650000Y-58870000D02*
X76650000Y-61530000D01*
X84330000Y-61530000D02*
X76650000Y-61530000D01*
X84330000Y-58870000D02*
X76650000Y-58870000D01*
%TO.C,SW2*%
X32800000Y-49500000D02*
X32800000Y-45000000D01*
X28800000Y-50750000D02*
X30300000Y-50750000D01*
X30300000Y-43750000D02*
X28800000Y-43750000D01*
X26300000Y-45000000D02*
X26300000Y-49500000D01*
%TD*%
M02*
