M48
; DRILL file {KiCad (6.0.9-0)} date 2023 March 02, Thursday 18:02:05
; FORMAT={-:-/ absolute / inch / decimal}
; #@! TF.CreationDate,2023-03-02T18:02:05+01:00
; #@! TF.GenerationSoftware,Kicad,Pcbnew,(6.0.9-0)
; #@! TF.FileFunction,Plated,1,2,PTH
FMAT,2
INCH
; #@! TA.AperFunction,Plated,PTH,ViaDrill
T1C0.0100
; #@! TA.AperFunction,Plated,PTH,ComponentDrill
T2C0.0315
; #@! TA.AperFunction,Plated,PTH,ComponentDrill
T3C0.0394
; #@! TA.AperFunction,Plated,PTH,ComponentDrill
T4C0.0433
; #@! TA.AperFunction,Plated,PTH,ComponentDrill
T5C0.0472
; #@! TA.AperFunction,Plated,PTH,ComponentDrill
T6C0.1260
%
G90
G05
T1
X2.7283Y-1.7874
X2.7283Y-1.9528
X2.7323Y-1.815
X2.7323Y-1.9252
X2.7362Y-1.8425
X2.7362Y-1.8701
X2.7362Y-1.8976
X2.815Y-1.7874
X2.815Y-1.815
X2.815Y-1.8425
X2.815Y-1.8701
X2.815Y-1.8976
X2.815Y-1.9252
X2.815Y-1.9528
X4.1142Y-1.9213
X4.2913Y-1.9173
T2
X1.3425Y-1.6575
X1.3425Y-2.0575
X1.9693Y-1.378
X1.9693Y-2.3543
X2.3693Y-1.378
X2.3693Y-2.3543
T3
X1.4724Y-1.5709
X1.4724Y-1.6709
X1.4724Y-1.7709
X1.4724Y-1.8709
X1.4724Y-1.9709
X1.4724Y-2.0709
X1.4724Y-2.1709
X2.315Y-1.7201
X2.315Y-1.8201
X2.315Y-1.9201
X2.315Y-2.0201
X2.9173Y-1.5709
X2.9173Y-1.6709
X2.9173Y-1.7709
X2.9173Y-1.8709
X2.9173Y-1.9709
X2.9173Y-2.0709
X2.9173Y-2.1709
X3.0701Y-2.3701
X3.1701Y-2.3701
X3.2701Y-2.3701
X3.3701Y-2.3701
X3.6398Y-1.5654
X3.6398Y-2.1654
X3.7398Y-1.5654
X3.7398Y-2.1654
X3.8398Y-1.5654
X3.8398Y-2.1654
X3.9398Y-1.5654
X3.9398Y-2.1654
X4.0398Y-1.5654
X4.0398Y-2.1654
X4.1398Y-1.5654
X4.1398Y-2.1654
X4.2398Y-1.5654
X4.2398Y-2.1654
X4.3398Y-1.5654
X4.3398Y-2.1654
X4.4398Y-1.5654
X4.4398Y-2.1654
X4.5398Y-1.5654
X4.5398Y-2.1654
X4.6398Y-1.5654
X4.6398Y-2.1654
X4.7398Y-1.5654
X4.7398Y-2.1654
X4.8398Y-1.5654
X4.8398Y-2.1654
X4.9291Y-1.7146
X4.9291Y-1.8146
X4.9291Y-1.9146
X4.9291Y-2.0146
X4.9398Y-1.5654
X4.9398Y-2.1654
X5.0398Y-1.5654
X5.0398Y-2.1654
T4
X1.0748Y-1.7323
X1.0748Y-1.9882
X1.252Y-1.7323
X1.252Y-1.9882
X1.7126Y-1.0787
X1.7126Y-1.2559
X1.7126Y-2.4783
X1.7126Y-2.6555
X1.9685Y-1.0787
X1.9685Y-1.2559
X1.9685Y-2.4783
X1.9685Y-2.6555
X3.3937Y-1.3697
X3.3937Y-1.6697
T5
X3.0807Y-1.4508
X3.2185Y-1.4508
T6
X1.1732Y-1.4961
X1.1732Y-2.2441
X3.6024Y-1.4075
X3.6024Y-2.3327
X5.0394Y-1.4075
X5.0394Y-2.3327
T0
M30
