%TF.GenerationSoftware,KiCad,Pcbnew,(6.0.9-0)*%
%TF.CreationDate,2023-02-26T22:19:27+01:00*%
%TF.ProjectId,FilamentSpoolScale,46696c61-6d65-46e7-9453-706f6f6c5363,rev?*%
%TF.SameCoordinates,Original*%
%TF.FileFunction,Legend,Top*%
%TF.FilePolarity,Positive*%
%FSLAX46Y46*%
G04 Gerber Fmt 4.6, Leading zero omitted, Abs format (unit mm)*
G04 Created by KiCad (PCBNEW (6.0.9-0)) date 2023-02-26 22:19:27*
%MOMM*%
%LPD*%
G01*
G04 APERTURE LIST*
%ADD10C,0.150000*%
%ADD11C,0.120000*%
G04 APERTURE END LIST*
D10*
%TO.C,A1*%
X87536666Y-48094285D02*
X87536666Y-47618095D01*
X87822380Y-48189523D02*
X86822380Y-47856190D01*
X87822380Y-47522857D01*
X87822380Y-46665714D02*
X87822380Y-47237142D01*
X87822380Y-46951428D02*
X86822380Y-46951428D01*
X86965238Y-47046666D01*
X87060476Y-47141904D01*
X87108095Y-47237142D01*
X127462380Y-48641904D02*
X128271904Y-48641904D01*
X128367142Y-48594285D01*
X128414761Y-48546666D01*
X128462380Y-48451428D01*
X128462380Y-48260952D01*
X128414761Y-48165714D01*
X128367142Y-48118095D01*
X128271904Y-48070476D01*
X127462380Y-48070476D01*
X128414761Y-47641904D02*
X128462380Y-47499047D01*
X128462380Y-47260952D01*
X128414761Y-47165714D01*
X128367142Y-47118095D01*
X128271904Y-47070476D01*
X128176666Y-47070476D01*
X128081428Y-47118095D01*
X128033809Y-47165714D01*
X127986190Y-47260952D01*
X127938571Y-47451428D01*
X127890952Y-47546666D01*
X127843333Y-47594285D01*
X127748095Y-47641904D01*
X127652857Y-47641904D01*
X127557619Y-47594285D01*
X127510000Y-47546666D01*
X127462380Y-47451428D01*
X127462380Y-47213333D01*
X127510000Y-47070476D01*
X127938571Y-46308571D02*
X127986190Y-46165714D01*
X128033809Y-46118095D01*
X128129047Y-46070476D01*
X128271904Y-46070476D01*
X128367142Y-46118095D01*
X128414761Y-46165714D01*
X128462380Y-46260952D01*
X128462380Y-46641904D01*
X127462380Y-46641904D01*
X127462380Y-46308571D01*
X127510000Y-46213333D01*
X127557619Y-46165714D01*
X127652857Y-46118095D01*
X127748095Y-46118095D01*
X127843333Y-46165714D01*
X127890952Y-46213333D01*
X127938571Y-46308571D01*
X127938571Y-46641904D01*
%TO.C,J1*%
X49747619Y-45966666D02*
X49033333Y-45966666D01*
X48890476Y-45919047D01*
X48795238Y-45823809D01*
X48747619Y-45680952D01*
X48747619Y-45585714D01*
X48747619Y-46966666D02*
X48747619Y-46395238D01*
X48747619Y-46680952D02*
X49747619Y-46680952D01*
X49604761Y-46585714D01*
X49509523Y-46490476D01*
X49461904Y-46395238D01*
%TO.C,D1*%
X86652380Y-39388095D02*
X85652380Y-39388095D01*
X85652380Y-39150000D01*
X85700000Y-39007142D01*
X85795238Y-38911904D01*
X85890476Y-38864285D01*
X86080952Y-38816666D01*
X86223809Y-38816666D01*
X86414285Y-38864285D01*
X86509523Y-38911904D01*
X86604761Y-39007142D01*
X86652380Y-39150000D01*
X86652380Y-39388095D01*
X86652380Y-37864285D02*
X86652380Y-38435714D01*
X86652380Y-38150000D02*
X85652380Y-38150000D01*
X85795238Y-38245238D01*
X85890476Y-38340476D01*
X85938095Y-38435714D01*
X86852380Y-32911904D02*
X85852380Y-32911904D01*
X86852380Y-32340476D02*
X86280952Y-32769047D01*
X85852380Y-32340476D02*
X86423809Y-32911904D01*
%TO.C,J5*%
X73666666Y-38272380D02*
X73666666Y-38986666D01*
X73619047Y-39129523D01*
X73523809Y-39224761D01*
X73380952Y-39272380D01*
X73285714Y-39272380D01*
X74619047Y-38272380D02*
X74142857Y-38272380D01*
X74095238Y-38748571D01*
X74142857Y-38700952D01*
X74238095Y-38653333D01*
X74476190Y-38653333D01*
X74571428Y-38700952D01*
X74619047Y-38748571D01*
X74666666Y-38843809D01*
X74666666Y-39081904D01*
X74619047Y-39177142D01*
X74571428Y-39224761D01*
X74476190Y-39272380D01*
X74238095Y-39272380D01*
X74142857Y-39224761D01*
X74095238Y-39177142D01*
%TO.C,J4*%
X86532380Y-57333333D02*
X87246666Y-57333333D01*
X87389523Y-57380952D01*
X87484761Y-57476190D01*
X87532380Y-57619047D01*
X87532380Y-57714285D01*
X86865714Y-56428571D02*
X87532380Y-56428571D01*
X86484761Y-56666666D02*
X87199047Y-56904761D01*
X87199047Y-56285714D01*
D11*
%TO.C,A1*%
X124070000Y-43440000D02*
X134490000Y-43440000D01*
X129280000Y-53730000D02*
X129280000Y-56400000D01*
X124070000Y-51320000D02*
X124070000Y-43440000D01*
X91180000Y-41030000D02*
X129280000Y-41030000D01*
X88510000Y-56400000D02*
X91180000Y-56400000D01*
X134490000Y-43440000D02*
X134490000Y-51320000D01*
X93720000Y-53730000D02*
X129280000Y-53730000D01*
X93720000Y-56400000D02*
X131950000Y-56400000D01*
X131950000Y-38360000D02*
X131950000Y-43440000D01*
X134490000Y-51320000D02*
X124070000Y-51320000D01*
X88510000Y-38360000D02*
X88510000Y-56400000D01*
X93720000Y-53730000D02*
X91180000Y-53730000D01*
X131950000Y-56400000D02*
X131950000Y-51320000D01*
X91180000Y-53730000D02*
X91180000Y-56400000D01*
X131950000Y-38360000D02*
X88510000Y-38360000D01*
X129280000Y-41030000D02*
X129280000Y-38360000D01*
X91180000Y-41030000D02*
X91180000Y-38360000D01*
X93720000Y-53730000D02*
X93720000Y-56400000D01*
%TO.C,J1*%
X52600000Y-65900000D02*
X41000000Y-65900000D01*
X41000000Y-26800000D02*
X41000000Y-65900000D01*
X52600000Y-26700000D02*
X41000000Y-26700000D01*
X52600000Y-26700000D02*
X52600000Y-65900000D01*
%TO.C,D1*%
X87670000Y-35530000D02*
X87670000Y-40970000D01*
X87670000Y-36310000D02*
X84730000Y-36310000D01*
X87540000Y-35530000D02*
X87670000Y-35530000D01*
X87670000Y-36550000D02*
X84730000Y-36550000D01*
X84730000Y-40970000D02*
X84860000Y-40970000D01*
X87670000Y-36430000D02*
X84730000Y-36430000D01*
X87670000Y-40970000D02*
X87540000Y-40970000D01*
X84860000Y-35530000D02*
X84730000Y-35530000D01*
X84730000Y-35530000D02*
X84730000Y-40970000D01*
%TO.C,SW1*%
X43550000Y-60500000D02*
X43550000Y-65000000D01*
X46050000Y-66250000D02*
X47550000Y-66250000D01*
X50050000Y-65000000D02*
X50050000Y-60500000D01*
X47550000Y-59250000D02*
X46050000Y-59250000D01*
%TO.C,J5*%
X72670000Y-55180000D02*
X75330000Y-55180000D01*
X75330000Y-42420000D02*
X75330000Y-55180000D01*
X72670000Y-41150000D02*
X72670000Y-39820000D01*
X72670000Y-39820000D02*
X74000000Y-39820000D01*
X72670000Y-42420000D02*
X75330000Y-42420000D01*
X72670000Y-42420000D02*
X72670000Y-55180000D01*
%TO.C,J4*%
X83480000Y-55670000D02*
X78340000Y-55670000D01*
X78340000Y-55670000D02*
X78340000Y-58330000D01*
X86080000Y-55670000D02*
X86080000Y-57000000D01*
X83480000Y-58330000D02*
X78340000Y-58330000D01*
X83480000Y-55670000D02*
X83480000Y-58330000D01*
X84750000Y-55670000D02*
X86080000Y-55670000D01*
%TO.C,SW2*%
X32800000Y-49500000D02*
X32800000Y-45000000D01*
X28800000Y-50750000D02*
X30300000Y-50750000D01*
X30300000Y-43750000D02*
X28800000Y-43750000D01*
X26300000Y-45000000D02*
X26300000Y-49500000D01*
%TD*%
M02*
