%TF.GenerationSoftware,KiCad,Pcbnew,(6.0.9-0)*%
%TF.CreationDate,2023-02-24T22:58:19+01:00*%
%TF.ProjectId,FilamentSpoolScale,46696c61-6d65-46e7-9453-706f6f6c5363,rev?*%
%TF.SameCoordinates,Original*%
%TF.FileFunction,Legend,Top*%
%TF.FilePolarity,Positive*%
%FSLAX46Y46*%
G04 Gerber Fmt 4.6, Leading zero omitted, Abs format (unit mm)*
G04 Created by KiCad (PCBNEW (6.0.9-0)) date 2023-02-24 22:58:19*
%MOMM*%
%LPD*%
G01*
G04 APERTURE LIST*
%ADD10C,0.150000*%
%ADD11C,0.120000*%
G04 APERTURE END LIST*
D10*
%TO.C,A1*%
X87536666Y-48094285D02*
X87536666Y-47618095D01*
X87822380Y-48189523D02*
X86822380Y-47856190D01*
X87822380Y-47522857D01*
X87822380Y-46665714D02*
X87822380Y-47237142D01*
X87822380Y-46951428D02*
X86822380Y-46951428D01*
X86965238Y-47046666D01*
X87060476Y-47141904D01*
X87108095Y-47237142D01*
X127462380Y-48641904D02*
X128271904Y-48641904D01*
X128367142Y-48594285D01*
X128414761Y-48546666D01*
X128462380Y-48451428D01*
X128462380Y-48260952D01*
X128414761Y-48165714D01*
X128367142Y-48118095D01*
X128271904Y-48070476D01*
X127462380Y-48070476D01*
X128414761Y-47641904D02*
X128462380Y-47499047D01*
X128462380Y-47260952D01*
X128414761Y-47165714D01*
X128367142Y-47118095D01*
X128271904Y-47070476D01*
X128176666Y-47070476D01*
X128081428Y-47118095D01*
X128033809Y-47165714D01*
X127986190Y-47260952D01*
X127938571Y-47451428D01*
X127890952Y-47546666D01*
X127843333Y-47594285D01*
X127748095Y-47641904D01*
X127652857Y-47641904D01*
X127557619Y-47594285D01*
X127510000Y-47546666D01*
X127462380Y-47451428D01*
X127462380Y-47213333D01*
X127510000Y-47070476D01*
X127938571Y-46308571D02*
X127986190Y-46165714D01*
X128033809Y-46118095D01*
X128129047Y-46070476D01*
X128271904Y-46070476D01*
X128367142Y-46118095D01*
X128414761Y-46165714D01*
X128462380Y-46260952D01*
X128462380Y-46641904D01*
X127462380Y-46641904D01*
X127462380Y-46308571D01*
X127510000Y-46213333D01*
X127557619Y-46165714D01*
X127652857Y-46118095D01*
X127748095Y-46118095D01*
X127843333Y-46165714D01*
X127890952Y-46213333D01*
X127938571Y-46308571D01*
X127938571Y-46641904D01*
%TO.C,J1*%
X49747619Y-45966666D02*
X49033333Y-45966666D01*
X48890476Y-45919047D01*
X48795238Y-45823809D01*
X48747619Y-45680952D01*
X48747619Y-45585714D01*
X48747619Y-46966666D02*
X48747619Y-46395238D01*
X48747619Y-46680952D02*
X49747619Y-46680952D01*
X49604761Y-46585714D01*
X49509523Y-46490476D01*
X49461904Y-46395238D01*
%TO.C,D1*%
X86752380Y-37738095D02*
X85752380Y-37738095D01*
X85752380Y-37500000D01*
X85800000Y-37357142D01*
X85895238Y-37261904D01*
X85990476Y-37214285D01*
X86180952Y-37166666D01*
X86323809Y-37166666D01*
X86514285Y-37214285D01*
X86609523Y-37261904D01*
X86704761Y-37357142D01*
X86752380Y-37500000D01*
X86752380Y-37738095D01*
X86752380Y-36214285D02*
X86752380Y-36785714D01*
X86752380Y-36500000D02*
X85752380Y-36500000D01*
X85895238Y-36595238D01*
X85990476Y-36690476D01*
X86038095Y-36785714D01*
X86952380Y-31261904D02*
X85952380Y-31261904D01*
X86952380Y-30690476D02*
X86380952Y-31119047D01*
X85952380Y-30690476D02*
X86523809Y-31261904D01*
%TO.C,J5*%
X73666666Y-38272380D02*
X73666666Y-38986666D01*
X73619047Y-39129523D01*
X73523809Y-39224761D01*
X73380952Y-39272380D01*
X73285714Y-39272380D01*
X74619047Y-38272380D02*
X74142857Y-38272380D01*
X74095238Y-38748571D01*
X74142857Y-38700952D01*
X74238095Y-38653333D01*
X74476190Y-38653333D01*
X74571428Y-38700952D01*
X74619047Y-38748571D01*
X74666666Y-38843809D01*
X74666666Y-39081904D01*
X74619047Y-39177142D01*
X74571428Y-39224761D01*
X74476190Y-39272380D01*
X74238095Y-39272380D01*
X74142857Y-39224761D01*
X74095238Y-39177142D01*
%TO.C,J4*%
X85907380Y-62733333D02*
X86621666Y-62733333D01*
X86764523Y-62780952D01*
X86859761Y-62876190D01*
X86907380Y-63019047D01*
X86907380Y-63114285D01*
X86240714Y-61828571D02*
X86907380Y-61828571D01*
X85859761Y-62066666D02*
X86574047Y-62304761D01*
X86574047Y-61685714D01*
D11*
%TO.C,A1*%
X124070000Y-43440000D02*
X134490000Y-43440000D01*
X129280000Y-53730000D02*
X129280000Y-56400000D01*
X124070000Y-51320000D02*
X124070000Y-43440000D01*
X91180000Y-41030000D02*
X129280000Y-41030000D01*
X88510000Y-56400000D02*
X91180000Y-56400000D01*
X134490000Y-43440000D02*
X134490000Y-51320000D01*
X93720000Y-53730000D02*
X129280000Y-53730000D01*
X93720000Y-56400000D02*
X131950000Y-56400000D01*
X131950000Y-38360000D02*
X131950000Y-43440000D01*
X134490000Y-51320000D02*
X124070000Y-51320000D01*
X88510000Y-38360000D02*
X88510000Y-56400000D01*
X93720000Y-53730000D02*
X91180000Y-53730000D01*
X131950000Y-56400000D02*
X131950000Y-51320000D01*
X91180000Y-53730000D02*
X91180000Y-56400000D01*
X131950000Y-38360000D02*
X88510000Y-38360000D01*
X129280000Y-41030000D02*
X129280000Y-38360000D01*
X91180000Y-41030000D02*
X91180000Y-38360000D01*
X93720000Y-53730000D02*
X93720000Y-56400000D01*
%TO.C,J1*%
X52600000Y-65900000D02*
X41000000Y-65900000D01*
X41000000Y-26800000D02*
X41000000Y-65900000D01*
X52600000Y-26700000D02*
X41000000Y-26700000D01*
X52600000Y-26700000D02*
X52600000Y-65900000D01*
%TO.C,D1*%
X87770000Y-33880000D02*
X87770000Y-39320000D01*
X87770000Y-34660000D02*
X84830000Y-34660000D01*
X87640000Y-33880000D02*
X87770000Y-33880000D01*
X87770000Y-34900000D02*
X84830000Y-34900000D01*
X84830000Y-39320000D02*
X84960000Y-39320000D01*
X87770000Y-34780000D02*
X84830000Y-34780000D01*
X87770000Y-39320000D02*
X87640000Y-39320000D01*
X84960000Y-33880000D02*
X84830000Y-33880000D01*
X84830000Y-33880000D02*
X84830000Y-39320000D01*
%TO.C,SW1*%
X43550000Y-60500000D02*
X43550000Y-65000000D01*
X46050000Y-66250000D02*
X47550000Y-66250000D01*
X50050000Y-65000000D02*
X50050000Y-60500000D01*
X47550000Y-59250000D02*
X46050000Y-59250000D01*
%TO.C,J5*%
X72670000Y-55180000D02*
X75330000Y-55180000D01*
X75330000Y-42420000D02*
X75330000Y-55180000D01*
X72670000Y-41150000D02*
X72670000Y-39820000D01*
X72670000Y-39820000D02*
X74000000Y-39820000D01*
X72670000Y-42420000D02*
X75330000Y-42420000D01*
X72670000Y-42420000D02*
X72670000Y-55180000D01*
%TO.C,J4*%
X82855000Y-61070000D02*
X77715000Y-61070000D01*
X77715000Y-61070000D02*
X77715000Y-63730000D01*
X85455000Y-61070000D02*
X85455000Y-62400000D01*
X82855000Y-63730000D02*
X77715000Y-63730000D01*
X82855000Y-61070000D02*
X82855000Y-63730000D01*
X84125000Y-61070000D02*
X85455000Y-61070000D01*
%TO.C,SW2*%
X32800000Y-49500000D02*
X32800000Y-45000000D01*
X28800000Y-50750000D02*
X30300000Y-50750000D01*
X30300000Y-43750000D02*
X28800000Y-43750000D01*
X26300000Y-45000000D02*
X26300000Y-49500000D01*
%TD*%
M02*
