%TF.GenerationSoftware,KiCad,Pcbnew,(6.0.9-0)*%
%TF.CreationDate,2023-02-24T22:58:19+01:00*%
%TF.ProjectId,FilamentSpoolScale,46696c61-6d65-46e7-9453-706f6f6c5363,rev?*%
%TF.SameCoordinates,Original*%
%TF.FileFunction,Legend,Bot*%
%TF.FilePolarity,Positive*%
%FSLAX46Y46*%
G04 Gerber Fmt 4.6, Leading zero omitted, Abs format (unit mm)*
G04 Created by KiCad (PCBNEW (6.0.9-0)) date 2023-02-24 22:58:19*
%MOMM*%
%LPD*%
G01*
G04 APERTURE LIST*
%ADD10C,0.150000*%
%ADD11C,0.120000*%
G04 APERTURE END LIST*
D10*
%TO.C,J3*%
X80483333Y-38612380D02*
X80483333Y-39326666D01*
X80530952Y-39469523D01*
X80626190Y-39564761D01*
X80769047Y-39612380D01*
X80864285Y-39612380D01*
X80102380Y-38612380D02*
X79483333Y-38612380D01*
X79816666Y-38993333D01*
X79673809Y-38993333D01*
X79578571Y-39040952D01*
X79530952Y-39088571D01*
X79483333Y-39183809D01*
X79483333Y-39421904D01*
X79530952Y-39517142D01*
X79578571Y-39564761D01*
X79673809Y-39612380D01*
X79959523Y-39612380D01*
X80054761Y-39564761D01*
X80102380Y-39517142D01*
%TO.C,J6*%
X32123333Y-38332380D02*
X32123333Y-39046666D01*
X32170952Y-39189523D01*
X32266190Y-39284761D01*
X32409047Y-39332380D01*
X32504285Y-39332380D01*
X31218571Y-38332380D02*
X31409047Y-38332380D01*
X31504285Y-38380000D01*
X31551904Y-38427619D01*
X31647142Y-38570476D01*
X31694761Y-38760952D01*
X31694761Y-39141904D01*
X31647142Y-39237142D01*
X31599523Y-39284761D01*
X31504285Y-39332380D01*
X31313809Y-39332380D01*
X31218571Y-39284761D01*
X31170952Y-39237142D01*
X31123333Y-39141904D01*
X31123333Y-38903809D01*
X31170952Y-38808571D01*
X31218571Y-38760952D01*
X31313809Y-38713333D01*
X31504285Y-38713333D01*
X31599523Y-38760952D01*
X31647142Y-38808571D01*
X31694761Y-38903809D01*
%TO.C,J2*%
X114233333Y-45502380D02*
X114233333Y-46216666D01*
X114280952Y-46359523D01*
X114376190Y-46454761D01*
X114519047Y-46502380D01*
X114614285Y-46502380D01*
X113804761Y-45597619D02*
X113757142Y-45550000D01*
X113661904Y-45502380D01*
X113423809Y-45502380D01*
X113328571Y-45550000D01*
X113280952Y-45597619D01*
X113233333Y-45692857D01*
X113233333Y-45788095D01*
X113280952Y-45930952D01*
X113852380Y-46502380D01*
X113233333Y-46502380D01*
%TO.C,R1*%
X36992380Y-58923333D02*
X36516190Y-58590000D01*
X36992380Y-58351904D02*
X35992380Y-58351904D01*
X35992380Y-58732857D01*
X36040000Y-58828095D01*
X36087619Y-58875714D01*
X36182857Y-58923333D01*
X36325714Y-58923333D01*
X36420952Y-58875714D01*
X36468571Y-58828095D01*
X36516190Y-58732857D01*
X36516190Y-58351904D01*
X36992380Y-59875714D02*
X36992380Y-59304285D01*
X36992380Y-59590000D02*
X35992380Y-59590000D01*
X36135238Y-59494761D01*
X36230476Y-59399523D01*
X36278095Y-59304285D01*
D11*
%TO.C,J3*%
X76000000Y-30800000D02*
X77500000Y-30800000D01*
X76240000Y-38160000D02*
X84060000Y-38160000D01*
X76240000Y-32600000D02*
X84060000Y-32600000D01*
X76240000Y-38160000D02*
X76240000Y-31040000D01*
X76000000Y-32540000D02*
X76000000Y-30800000D01*
X76240000Y-31040000D02*
X84060000Y-31040000D01*
X84060000Y-38160000D02*
X84060000Y-31040000D01*
X79832109Y-35307742D02*
G75*
G03*
X79832000Y-34092000I-1432112J607743D01*
G01*
X78427011Y-33144507D02*
G75*
G03*
X77792000Y-33268000I-27013J-1555481D01*
G01*
X76967891Y-34092258D02*
G75*
G03*
X76968000Y-35308000I1432109J-607742D01*
G01*
X77792258Y-36132109D02*
G75*
G03*
X79008000Y-36132000I607742J1432109D01*
G01*
X79007587Y-33268615D02*
G75*
G03*
X78400000Y-33145000I-607587J-1431385D01*
G01*
X83455000Y-34700000D02*
G75*
G03*
X83455000Y-34700000I-1555000J0D01*
G01*
%TO.C,J6*%
X34735000Y-55180000D02*
X32075000Y-55180000D01*
X35132071Y-48390000D02*
X34735000Y-48390000D01*
X32075000Y-48390000D02*
X26075000Y-48390000D01*
X32075000Y-41190000D02*
X26075000Y-41190000D01*
X32075000Y-39820000D02*
X34735000Y-39820000D01*
X32075000Y-40830000D02*
X26075000Y-40830000D01*
X35132071Y-46610000D02*
X34735000Y-46610000D01*
X26075000Y-51690000D02*
X32075000Y-51690000D01*
X34735000Y-39820000D02*
X34735000Y-55180000D01*
X35065000Y-41530000D02*
X34735000Y-41530000D01*
X26075000Y-44070000D02*
X32075000Y-44070000D01*
X37445000Y-39880000D02*
X36175000Y-39880000D01*
X32075000Y-53470000D02*
X26075000Y-53470000D01*
X26075000Y-49150000D02*
X32075000Y-49150000D01*
X26075000Y-50930000D02*
X26075000Y-51690000D01*
X32075000Y-45850000D02*
X26075000Y-45850000D01*
X32075000Y-50930000D02*
X26075000Y-50930000D01*
X26075000Y-48390000D02*
X26075000Y-49150000D01*
X32075000Y-41430000D02*
X26075000Y-41430000D01*
X35132071Y-53470000D02*
X34735000Y-53470000D01*
X32075000Y-40770000D02*
X26075000Y-40770000D01*
X35132071Y-45850000D02*
X34735000Y-45850000D01*
X35132071Y-49150000D02*
X34735000Y-49150000D01*
X26075000Y-54230000D02*
X32075000Y-54230000D01*
X34735000Y-42420000D02*
X32075000Y-42420000D01*
X26075000Y-45850000D02*
X26075000Y-46610000D01*
X37445000Y-41150000D02*
X37445000Y-39880000D01*
X26075000Y-40770000D02*
X26075000Y-41530000D01*
X34735000Y-52580000D02*
X32075000Y-52580000D01*
X26075000Y-46610000D02*
X32075000Y-46610000D01*
X26075000Y-53470000D02*
X26075000Y-54230000D01*
X35132071Y-44070000D02*
X34735000Y-44070000D01*
X34735000Y-47500000D02*
X32075000Y-47500000D01*
X32075000Y-41310000D02*
X26075000Y-41310000D01*
X35065000Y-40770000D02*
X34735000Y-40770000D01*
X32075000Y-41070000D02*
X26075000Y-41070000D01*
X32075000Y-40950000D02*
X26075000Y-40950000D01*
X34735000Y-50040000D02*
X32075000Y-50040000D01*
X35132071Y-43310000D02*
X34735000Y-43310000D01*
X35132071Y-51690000D02*
X34735000Y-51690000D01*
X34735000Y-44960000D02*
X32075000Y-44960000D01*
X26075000Y-41530000D02*
X32075000Y-41530000D01*
X35132071Y-54230000D02*
X34735000Y-54230000D01*
X35132071Y-50930000D02*
X34735000Y-50930000D01*
X32075000Y-55180000D02*
X32075000Y-39820000D01*
X32075000Y-43310000D02*
X26075000Y-43310000D01*
X26075000Y-43310000D02*
X26075000Y-44070000D01*
%TO.C,J2*%
X129700000Y-57450000D02*
X94700000Y-57450000D01*
X94700000Y-37350000D02*
X129700000Y-37350000D01*
X129700000Y-37350000D02*
X129700000Y-57450000D01*
X94700000Y-57450000D02*
X94700000Y-37350000D01*
%TO.C,R1*%
X40280000Y-62360000D02*
X37540000Y-62360000D01*
X40280000Y-55820000D02*
X40280000Y-62360000D01*
X37540000Y-55820000D02*
X40280000Y-55820000D01*
X38910000Y-55050000D02*
X38910000Y-55820000D01*
X38910000Y-63130000D02*
X38910000Y-62360000D01*
X37540000Y-62360000D02*
X37540000Y-55820000D01*
%TD*%
M02*
