M48
; DRILL file {KiCad (6.0.9-0)} date 2023 February 24, Friday 22:58:36
; FORMAT={-:-/ absolute / inch / decimal}
; #@! TF.CreationDate,2023-02-24T22:58:36+01:00
; #@! TF.GenerationSoftware,Kicad,Pcbnew,(6.0.9-0)
; #@! TF.FileFunction,Plated,1,2,PTH
FMAT,2
INCH
; #@! TA.AperFunction,Plated,PTH,ViaDrill
T1C0.0100
; #@! TA.AperFunction,Plated,PTH,ComponentDrill
T2C0.0315
; #@! TA.AperFunction,Plated,PTH,ComponentDrill
T3C0.0394
; #@! TA.AperFunction,Plated,PTH,ComponentDrill
T4C0.0433
; #@! TA.AperFunction,Plated,PTH,ComponentDrill
T5C0.0472
; #@! TA.AperFunction,Plated,PTH,ComponentDrill
T6C0.1260
%
G90
G05
T1
X1.3622Y-2.4055
X1.374Y-1.2874
X2.1575Y-1.8937
X2.3504Y-2.0157
X2.3701Y-1.311
X2.7323Y-1.8031
X2.7323Y-1.8307
X2.7323Y-1.8583
X2.7323Y-1.8819
X2.7323Y-1.9094
X2.7323Y-1.937
X2.811Y-1.8031
X2.811Y-1.8307
X2.811Y-1.8583
X2.811Y-1.8819
X2.811Y-1.9094
X2.811Y-1.937
X2.9094Y-1.3898
X3.1417Y-1.9173
X3.1496Y-2.2362
X4.0531Y-1.752
X4.1614Y-1.9606
X4.1927Y-1.7124
X4.2835Y-2.3858
X4.3189Y-1.3543
T2
X1.5319Y-2.1264
X1.5319Y-2.5264
T3
X1.4242Y-1.6201
X1.4242Y-1.7201
X1.4242Y-1.8201
X1.4242Y-1.9201
X1.4242Y-2.0201
X1.4242Y-2.1201
X1.6921Y-1.0984
X1.7921Y-1.0984
X1.8921Y-1.0984
X1.9921Y-1.0984
X2.9134Y-1.6201
X2.9134Y-1.7201
X2.9134Y-1.8201
X2.9134Y-1.9201
X2.9134Y-2.0201
X2.9134Y-2.1201
X3.112Y-2.4567
X3.212Y-2.4567
X3.312Y-2.4567
X3.6398Y-1.5654
X3.6398Y-2.1654
X3.7398Y-1.5654
X3.7398Y-2.1654
X3.8398Y-1.5654
X3.8398Y-2.1654
X3.9398Y-1.5654
X3.9398Y-2.1654
X4.0398Y-1.5654
X4.0398Y-2.1654
X4.1398Y-1.5654
X4.1398Y-2.1654
X4.2398Y-1.5654
X4.2398Y-2.1654
X4.3398Y-1.5654
X4.3398Y-2.1654
X4.4398Y-1.5654
X4.4398Y-2.1654
X4.5398Y-1.5654
X4.5398Y-2.1654
X4.6398Y-1.5654
X4.6398Y-2.1654
X4.7398Y-1.5654
X4.7398Y-2.1654
X4.8398Y-1.5654
X4.8398Y-2.1654
X4.9291Y-1.7146
X4.9291Y-1.8146
X4.9291Y-1.9146
X4.9291Y-2.0146
X4.9398Y-1.5654
X4.9398Y-2.1654
X5.0398Y-1.5654
X5.0398Y-2.1654
T4
X1.0748Y-1.7323
X1.0748Y-1.9882
X1.252Y-1.7323
X1.252Y-1.9882
X1.7539Y-2.3425
X1.7539Y-2.5984
X1.9311Y-2.3425
X1.9311Y-2.5984
X3.3976Y-1.2909
X3.3976Y-1.5909
T5
X3.0866Y-1.3661
X3.2244Y-1.3661
T6
X1.1732Y-1.4961
X1.1732Y-2.2441
X3.6024Y-1.3189
X3.6024Y-2.4213
X5.0394Y-1.3189
X5.0394Y-2.4213
T0
M30
