%TF.GenerationSoftware,KiCad,Pcbnew,(6.0.9-0)*%
%TF.CreationDate,2023-02-26T22:19:26+01:00*%
%TF.ProjectId,FilamentSpoolScale,46696c61-6d65-46e7-9453-706f6f6c5363,rev?*%
%TF.SameCoordinates,Original*%
%TF.FileFunction,Copper,L1,Top*%
%TF.FilePolarity,Positive*%
%FSLAX46Y46*%
G04 Gerber Fmt 4.6, Leading zero omitted, Abs format (unit mm)*
G04 Created by KiCad (PCBNEW (6.0.9-0)) date 2023-02-26 22:19:26*
%MOMM*%
%LPD*%
G01*
G04 APERTURE LIST*
%TA.AperFunction,ConnectorPad*%
%ADD10C,5.600000*%
%TD*%
%TA.AperFunction,ComponentPad*%
%ADD11C,3.600000*%
%TD*%
%TA.AperFunction,ComponentPad*%
%ADD12R,1.600000X1.600000*%
%TD*%
%TA.AperFunction,ComponentPad*%
%ADD13O,1.600000X1.600000*%
%TD*%
%TA.AperFunction,ComponentPad*%
%ADD14C,1.700000*%
%TD*%
%TA.AperFunction,ComponentPad*%
%ADD15R,2.200000X2.200000*%
%TD*%
%TA.AperFunction,ComponentPad*%
%ADD16O,2.200000X2.200000*%
%TD*%
%TA.AperFunction,ComponentPad*%
%ADD17C,2.000000*%
%TD*%
%TA.AperFunction,ComponentPad*%
%ADD18R,1.700000X1.700000*%
%TD*%
%TA.AperFunction,ComponentPad*%
%ADD19O,1.700000X1.700000*%
%TD*%
%TA.AperFunction,ComponentPad*%
%ADD20R,2.400000X2.400000*%
%TD*%
%TA.AperFunction,ComponentPad*%
%ADD21C,2.400000*%
%TD*%
%TA.AperFunction,ComponentPad*%
%ADD22C,1.600000*%
%TD*%
%TA.AperFunction,ViaPad*%
%ADD23C,0.508000*%
%TD*%
%TA.AperFunction,Conductor*%
%ADD24C,0.200000*%
%TD*%
%TA.AperFunction,Conductor*%
%ADD25C,0.254000*%
%TD*%
%TA.AperFunction,Conductor*%
%ADD26C,0.250000*%
%TD*%
%TA.AperFunction,Conductor*%
%ADD27C,1.270000*%
%TD*%
G04 APERTURE END LIST*
D10*
%TO.P,H5,1,1*%
%TO.N,GND*%
X29800000Y-38000000D03*
D11*
X29800000Y-38000000D03*
%TD*%
%TO.P,H2,1,1*%
%TO.N,GND*%
X128000000Y-35750000D03*
D10*
X128000000Y-35750000D03*
%TD*%
D12*
%TO.P,A1,1,TX1*%
%TO.N,/TX*%
X92450000Y-55000000D03*
D13*
%TO.P,A1,2,RX1*%
%TO.N,/RX*%
X94990000Y-55000000D03*
%TO.P,A1,3,~{RESET}*%
%TO.N,unconnected-(A1-Pad3)*%
X97530000Y-55000000D03*
%TO.P,A1,4,GND*%
%TO.N,GND*%
X100070000Y-55000000D03*
%TO.P,A1,5,D2*%
%TO.N,/BT1*%
X102610000Y-55000000D03*
%TO.P,A1,6,D3*%
%TO.N,/BT2*%
X105150000Y-55000000D03*
%TO.P,A1,7,D4*%
%TO.N,/DT*%
X107690000Y-55000000D03*
%TO.P,A1,8,D5*%
%TO.N,/SCK*%
X110230000Y-55000000D03*
%TO.P,A1,9,D6*%
%TO.N,unconnected-(A1-Pad9)*%
X112770000Y-55000000D03*
%TO.P,A1,10,D7*%
%TO.N,unconnected-(A1-Pad10)*%
X115310000Y-55000000D03*
%TO.P,A1,11,D8*%
%TO.N,unconnected-(A1-Pad11)*%
X117850000Y-55000000D03*
%TO.P,A1,12,D9*%
%TO.N,unconnected-(A1-Pad12)*%
X120390000Y-55000000D03*
%TO.P,A1,13,D10*%
%TO.N,unconnected-(A1-Pad13)*%
X122930000Y-55000000D03*
%TO.P,A1,14,MOSI*%
%TO.N,unconnected-(A1-Pad14)*%
X125470000Y-55000000D03*
%TO.P,A1,15,MISO*%
%TO.N,unconnected-(A1-Pad15)*%
X128010000Y-55000000D03*
%TO.P,A1,16,SCK*%
%TO.N,unconnected-(A1-Pad16)*%
X128010000Y-39760000D03*
%TO.P,A1,17,3V3*%
%TO.N,unconnected-(A1-Pad17)*%
X125470000Y-39760000D03*
%TO.P,A1,18,AREF*%
%TO.N,unconnected-(A1-Pad18)*%
X122930000Y-39760000D03*
%TO.P,A1,19,A0*%
%TO.N,unconnected-(A1-Pad19)*%
X120390000Y-39760000D03*
%TO.P,A1,20,A1*%
%TO.N,unconnected-(A1-Pad20)*%
X117850000Y-39760000D03*
%TO.P,A1,21,A2*%
%TO.N,unconnected-(A1-Pad21)*%
X115310000Y-39760000D03*
%TO.P,A1,22,A3*%
%TO.N,unconnected-(A1-Pad22)*%
X112770000Y-39760000D03*
%TO.P,A1,23,SDA/A4*%
%TO.N,/SDA*%
X110230000Y-39760000D03*
%TO.P,A1,24,SCL/A5*%
%TO.N,/SCL*%
X107690000Y-39760000D03*
%TO.P,A1,25,A6*%
%TO.N,unconnected-(A1-Pad25)*%
X105150000Y-39760000D03*
%TO.P,A1,26,A7*%
%TO.N,unconnected-(A1-Pad26)*%
X102610000Y-39760000D03*
%TO.P,A1,27,+5V*%
%TO.N,+5V*%
X100070000Y-39760000D03*
%TO.P,A1,28,~{RESET}*%
%TO.N,unconnected-(A1-Pad28)*%
X97530000Y-39760000D03*
%TO.P,A1,29,GND*%
%TO.N,GND*%
X94990000Y-39760000D03*
%TO.P,A1,30,VIN*%
%TO.N,BATT*%
X92450000Y-39760000D03*
%TD*%
D14*
%TO.P,J1,1,Pin_1*%
%TO.N,/SDA*%
X50600000Y-27900000D03*
%TO.P,J1,2,Pin_2*%
%TO.N,/SCL*%
X48060000Y-27900000D03*
%TO.P,J1,3,Pin_3*%
%TO.N,+5V*%
X45520000Y-27900000D03*
%TO.P,J1,4,Pin_4*%
%TO.N,GND*%
X42980000Y-27900000D03*
%TD*%
D11*
%TO.P,H4,1,1*%
%TO.N,GND*%
X91500000Y-59250000D03*
D10*
X91500000Y-59250000D03*
%TD*%
D11*
%TO.P,H6,1,1*%
%TO.N,GND*%
X29800000Y-57000000D03*
D10*
X29800000Y-57000000D03*
%TD*%
%TO.P,H1,1,1*%
%TO.N,GND*%
X91500000Y-35750000D03*
D11*
X91500000Y-35750000D03*
%TD*%
D15*
%TO.P,D1,1,A*%
%TO.N,Net-(D1-Pad1)*%
X86200000Y-34440000D03*
D16*
%TO.P,D1,2,K*%
%TO.N,BATT*%
X86200000Y-42060000D03*
%TD*%
D17*
%TO.P,SW1,1,1*%
%TO.N,/BT1*%
X44550000Y-66000000D03*
X44550000Y-59500000D03*
%TO.P,SW1,2,2*%
%TO.N,GND*%
X49050000Y-66000000D03*
X49050000Y-59500000D03*
%TD*%
D18*
%TO.P,J5,1,Pin_1*%
%TO.N,/SDA*%
X74000000Y-41150000D03*
D19*
%TO.P,J5,2,Pin_2*%
%TO.N,/SCL*%
X74000000Y-43690000D03*
%TO.P,J5,3,Pin_3*%
%TO.N,+5V*%
X74000000Y-46230000D03*
%TO.P,J5,4,Pin_4*%
%TO.N,GND*%
X74000000Y-48770000D03*
%TO.P,J5,5,Pin_5*%
%TO.N,/BT1*%
X74000000Y-51310000D03*
%TO.P,J5,6,Pin_6*%
%TO.N,/BT2*%
X74000000Y-53850000D03*
%TD*%
D18*
%TO.P,J4,1,Pin_1*%
%TO.N,/RX*%
X84750000Y-57000000D03*
D19*
%TO.P,J4,2,Pin_2*%
%TO.N,/TX*%
X82210000Y-57000000D03*
%TO.P,J4,3,Pin_3*%
%TO.N,GND*%
X79670000Y-57000000D03*
%TD*%
D10*
%TO.P,H3,1,1*%
%TO.N,GND*%
X128000000Y-59250000D03*
D11*
X128000000Y-59250000D03*
%TD*%
D17*
%TO.P,SW2,1,1*%
%TO.N,+5V*%
X31800000Y-44000000D03*
X31800000Y-50500000D03*
%TO.P,SW2,2,2*%
%TO.N,/BT2*%
X27300000Y-44000000D03*
X27300000Y-50500000D03*
%TD*%
D20*
%TO.P,J3,1,Pin_1*%
%TO.N,GND*%
X78250000Y-36850000D03*
D21*
%TO.P,J3,2,Pin_2*%
%TO.N,Net-(D1-Pad1)*%
X81750000Y-36850000D03*
%TD*%
D18*
%TO.P,J6,1,Pin_1*%
%TO.N,/SDA*%
X37200000Y-41150000D03*
D19*
%TO.P,J6,2,Pin_2*%
%TO.N,/SCL*%
X37200000Y-43690000D03*
%TO.P,J6,3,Pin_3*%
%TO.N,+5V*%
X37200000Y-46230000D03*
%TO.P,J6,4,Pin_4*%
%TO.N,GND*%
X37200000Y-48770000D03*
%TO.P,J6,5,Pin_5*%
%TO.N,/BT1*%
X37200000Y-51310000D03*
%TO.P,J6,6,Pin_6*%
%TO.N,/BT2*%
X37200000Y-53850000D03*
%TD*%
D14*
%TO.P,J2,1,Pin_1*%
%TO.N,+5V*%
X125200000Y-43550000D03*
%TO.P,J2,2,Pin_2*%
%TO.N,/SCK*%
X125200000Y-46090000D03*
%TO.P,J2,3,Pin_3*%
%TO.N,/DT*%
X125200000Y-48630000D03*
%TO.P,J2,4,Pin_4*%
%TO.N,GND*%
X125200000Y-51170000D03*
%TD*%
D22*
%TO.P,R1,1*%
%TO.N,/BT2*%
X39500000Y-53900000D03*
D13*
%TO.P,R1,2*%
%TO.N,GND*%
X39500000Y-64060000D03*
%TD*%
D23*
%TO.N,GND*%
X34600000Y-61100000D03*
X108800000Y-60600000D03*
X69400000Y-47800000D03*
X79800000Y-48700000D03*
X34900000Y-32700000D03*
X71400000Y-47800000D03*
X109700000Y-34400000D03*
X59700000Y-51200000D03*
X105700000Y-49800000D03*
X73900000Y-35300000D03*
X60200000Y-33300000D03*
X55000000Y-47700000D03*
%TO.N,/BT1*%
X69400000Y-48500000D03*
X71400000Y-48500000D03*
%TO.N,/SDA*%
X69400000Y-45800000D03*
X106495000Y-43495000D03*
X71400000Y-45800000D03*
%TO.N,/SCL*%
X69400000Y-46500000D03*
X102950000Y-44500000D03*
X71400000Y-46500000D03*
%TO.N,+5V*%
X69400000Y-47200000D03*
X71400000Y-47200000D03*
%TO.N,/BT2*%
X69400000Y-49200000D03*
X71400000Y-49200000D03*
%TD*%
D24*
%TO.N,/TX*%
X82500000Y-58750000D02*
X86250000Y-58750000D01*
X90000000Y-55000000D02*
X92450000Y-55000000D01*
X82210000Y-58460000D02*
X82500000Y-58750000D01*
X86250000Y-58750000D02*
X90000000Y-55000000D01*
X82210000Y-57000000D02*
X82210000Y-58460000D01*
%TO.N,/RX*%
X86000000Y-57000000D02*
X89500000Y-53500000D01*
X89500000Y-53500000D02*
X94250000Y-53500000D01*
X94250000Y-53500000D02*
X94990000Y-54240000D01*
X94990000Y-54240000D02*
X94990000Y-55000000D01*
X84750000Y-57000000D02*
X86000000Y-57000000D01*
D25*
%TO.N,GND*%
X55100000Y-47800000D02*
X54800000Y-48100000D01*
X71400000Y-47800000D02*
X69400000Y-47800000D01*
X69400000Y-47800000D02*
X68900000Y-47800000D01*
X73030000Y-47800000D02*
X74000000Y-48770000D01*
X68900000Y-47800000D02*
X64700000Y-47800000D01*
X71400000Y-47800000D02*
X73030000Y-47800000D01*
X64700000Y-47800000D02*
X55100000Y-47800000D01*
%TO.N,/BT1*%
X44550000Y-59500000D02*
X55550000Y-48500000D01*
X55550000Y-48500000D02*
X69400000Y-48500000D01*
X74000000Y-51310000D02*
X74000000Y-50700000D01*
D26*
X37200000Y-51310000D02*
X40310000Y-51310000D01*
X40310000Y-51310000D02*
X44550000Y-55550000D01*
D25*
X44550000Y-55550000D02*
X44550000Y-59500000D01*
X71400000Y-48500000D02*
X69400000Y-48500000D01*
X71800000Y-48500000D02*
X71400000Y-48500000D01*
X74000000Y-50700000D02*
X71800000Y-48500000D01*
D24*
%TO.N,/DT*%
X114060000Y-48630000D02*
X107690000Y-55000000D01*
X125200000Y-48630000D02*
X114060000Y-48630000D01*
D25*
%TO.N,/SDA*%
X71400000Y-45800000D02*
X69400000Y-45800000D01*
X106495000Y-43495000D02*
X110230000Y-39760000D01*
X72300000Y-44900000D02*
X72300000Y-42500000D01*
X71400000Y-45800000D02*
X72300000Y-44900000D01*
X73650000Y-41150000D02*
X74000000Y-41150000D01*
X50600000Y-27900000D02*
X68500000Y-45800000D01*
X106490000Y-43500000D02*
X106495000Y-43495000D01*
X72300000Y-42500000D02*
X73650000Y-41150000D01*
X68500000Y-45800000D02*
X69400000Y-45800000D01*
%TO.N,/SCL*%
X74000000Y-44300000D02*
X71800000Y-46500000D01*
X71800000Y-46500000D02*
X71400000Y-46500000D01*
D24*
X107690000Y-39760000D02*
X102950000Y-44500000D01*
D25*
X69400000Y-46500000D02*
X66660000Y-46500000D01*
X66660000Y-46500000D02*
X48060000Y-27900000D01*
X74000000Y-43690000D02*
X74000000Y-44300000D01*
X71400000Y-46500000D02*
X69400000Y-46500000D01*
%TO.N,+5V*%
X100100000Y-44700000D02*
X101500000Y-46100000D01*
D24*
X31800000Y-50500000D02*
X31800000Y-44000000D01*
D25*
X74000000Y-46230000D02*
X73030000Y-47200000D01*
D24*
X34030000Y-46230000D02*
X37200000Y-46230000D01*
D25*
X93600000Y-46230000D02*
X100070000Y-39760000D01*
X100070000Y-39760000D02*
X100070000Y-42441659D01*
X40670000Y-46230000D02*
X37200000Y-46230000D01*
X45520000Y-41380000D02*
X40670000Y-46230000D01*
D24*
X31800000Y-44000000D02*
X34030000Y-46230000D01*
D25*
X100070000Y-42441659D02*
X100100000Y-42471659D01*
X64820000Y-47200000D02*
X45520000Y-27900000D01*
X45520000Y-27900000D02*
X45520000Y-41380000D01*
X71400000Y-47200000D02*
X69400000Y-47200000D01*
X100100000Y-42471659D02*
X100100000Y-44700000D01*
X122650000Y-46100000D02*
X125200000Y-43550000D01*
X101500000Y-46100000D02*
X122650000Y-46100000D01*
X69400000Y-47200000D02*
X64820000Y-47200000D01*
X74000000Y-46230000D02*
X93600000Y-46230000D01*
X73030000Y-47200000D02*
X71400000Y-47200000D01*
D27*
%TO.N,BATT*%
X86200000Y-42060000D02*
X90150000Y-42060000D01*
X90150000Y-42060000D02*
X92450000Y-39760000D01*
%TO.N,Net-(D1-Pad1)*%
X83790000Y-36850000D02*
X86200000Y-34440000D01*
X81750000Y-36850000D02*
X83790000Y-36850000D01*
D25*
%TO.N,/BT2*%
X46900000Y-59026662D02*
X46900000Y-60800000D01*
X74000000Y-53850000D02*
X87650000Y-53850000D01*
X88800000Y-52700000D02*
X102850000Y-52700000D01*
X39500000Y-58300000D02*
X39500000Y-53900000D01*
X43000000Y-61800000D02*
X39500000Y-58300000D01*
X45900000Y-61800000D02*
X43000000Y-61800000D01*
X102850000Y-52700000D02*
X105150000Y-55000000D01*
X43000000Y-61800000D02*
X42900000Y-61800000D01*
X46900000Y-60800000D02*
X45900000Y-61800000D01*
X56726662Y-49200000D02*
X46900000Y-59026662D01*
X87650000Y-53850000D02*
X88800000Y-52700000D01*
X71400000Y-49200000D02*
X72300000Y-50100000D01*
X69400000Y-49200000D02*
X56726662Y-49200000D01*
X72300000Y-50100000D02*
X72300000Y-52150000D01*
X71400000Y-49200000D02*
X69400000Y-49200000D01*
X72300000Y-52150000D02*
X74000000Y-53850000D01*
%TD*%
%TA.AperFunction,Conductor*%
%TO.N,GND*%
G36*
X47171647Y-25531867D02*
G01*
X47969273Y-25562295D01*
X48084664Y-25566697D01*
X48089917Y-25567007D01*
X49000714Y-25639954D01*
X49005953Y-25640484D01*
X49912887Y-25751417D01*
X49918098Y-25752165D01*
X50819629Y-25900894D01*
X50824805Y-25901860D01*
X51351306Y-26011490D01*
X51719312Y-26088118D01*
X51724425Y-26089295D01*
X51869901Y-26125989D01*
X52610383Y-26312766D01*
X52615460Y-26314160D01*
X53152659Y-26473807D01*
X53385132Y-26542894D01*
X53491305Y-26574447D01*
X53496313Y-26576050D01*
X53636158Y-26624054D01*
X54360507Y-26872698D01*
X54365451Y-26874511D01*
X55216512Y-27207011D01*
X55221374Y-27209029D01*
X55805183Y-27465720D01*
X55964098Y-27535592D01*
X56057790Y-27576787D01*
X56062541Y-27578995D01*
X56273598Y-27682522D01*
X56882889Y-27981391D01*
X56887567Y-27983808D01*
X57690386Y-28420124D01*
X57694958Y-28422735D01*
X57923075Y-28559355D01*
X58478820Y-28892194D01*
X58483246Y-28894971D01*
X59041362Y-29261753D01*
X59246836Y-29396786D01*
X59251168Y-29399764D01*
X59589862Y-29643198D01*
X59993111Y-29933030D01*
X59997321Y-29936191D01*
X60716350Y-30499999D01*
X60720424Y-30503334D01*
X61415241Y-31096663D01*
X61419173Y-31100165D01*
X62088609Y-31722018D01*
X62092381Y-31725671D01*
X62370854Y-32006920D01*
X62735259Y-32374957D01*
X62738885Y-32378775D01*
X63354083Y-33054357D01*
X63357546Y-33058324D01*
X63943960Y-33758993D01*
X63947254Y-33763100D01*
X64503898Y-34487677D01*
X64507017Y-34491918D01*
X65032891Y-35239098D01*
X65035831Y-35243466D01*
X65126286Y-35384126D01*
X65522249Y-35999862D01*
X65530044Y-36011984D01*
X65532795Y-36016465D01*
X65879388Y-36608413D01*
X65994460Y-36804946D01*
X65997020Y-36809535D01*
X66377940Y-37527299D01*
X66425353Y-37616638D01*
X66427719Y-37621330D01*
X66754764Y-38305131D01*
X66821954Y-38445614D01*
X66824125Y-38450409D01*
X67134564Y-39175896D01*
X67183567Y-39290416D01*
X67185536Y-39295294D01*
X67508675Y-40147223D01*
X67509584Y-40149620D01*
X67511341Y-40154562D01*
X67795481Y-41009841D01*
X67799415Y-41021682D01*
X67800970Y-41026713D01*
X68052557Y-41905082D01*
X68053901Y-41910172D01*
X68268575Y-42798298D01*
X68269705Y-42803440D01*
X68441886Y-43673474D01*
X68447087Y-43699757D01*
X68447999Y-43704933D01*
X68486413Y-43953074D01*
X68587783Y-44607899D01*
X68588479Y-44613117D01*
X68595962Y-44679769D01*
X68583685Y-44749696D01*
X68535552Y-44801885D01*
X68466844Y-44819766D01*
X68399376Y-44797663D01*
X68381654Y-44782922D01*
X60212311Y-36613578D01*
X51951877Y-28353144D01*
X51917851Y-28290832D01*
X51920414Y-28227420D01*
X51930865Y-28193022D01*
X51932370Y-28188069D01*
X51961529Y-27966590D01*
X51963156Y-27900000D01*
X51944852Y-27677361D01*
X51890431Y-27460702D01*
X51801354Y-27255840D01*
X51680014Y-27068277D01*
X51529670Y-26903051D01*
X51525619Y-26899852D01*
X51525615Y-26899848D01*
X51358414Y-26767800D01*
X51358410Y-26767798D01*
X51354359Y-26764598D01*
X51158789Y-26656638D01*
X51153920Y-26654914D01*
X51153916Y-26654912D01*
X50953087Y-26583795D01*
X50953083Y-26583794D01*
X50948212Y-26582069D01*
X50943119Y-26581162D01*
X50943116Y-26581161D01*
X50733373Y-26543800D01*
X50733367Y-26543799D01*
X50728284Y-26542894D01*
X50654452Y-26541992D01*
X50510081Y-26540228D01*
X50510079Y-26540228D01*
X50504911Y-26540165D01*
X50284091Y-26573955D01*
X50071756Y-26643357D01*
X49873607Y-26746507D01*
X49869474Y-26749610D01*
X49869471Y-26749612D01*
X49705536Y-26872698D01*
X49694965Y-26880635D01*
X49540629Y-27042138D01*
X49433201Y-27199621D01*
X49378293Y-27244621D01*
X49307768Y-27252792D01*
X49244021Y-27221538D01*
X49223324Y-27197054D01*
X49142822Y-27072617D01*
X49142820Y-27072614D01*
X49140014Y-27068277D01*
X48989670Y-26903051D01*
X48985619Y-26899852D01*
X48985615Y-26899848D01*
X48818414Y-26767800D01*
X48818410Y-26767798D01*
X48814359Y-26764598D01*
X48618789Y-26656638D01*
X48613920Y-26654914D01*
X48613916Y-26654912D01*
X48413087Y-26583795D01*
X48413083Y-26583794D01*
X48408212Y-26582069D01*
X48403119Y-26581162D01*
X48403116Y-26581161D01*
X48193373Y-26543800D01*
X48193367Y-26543799D01*
X48188284Y-26542894D01*
X48114452Y-26541992D01*
X47970081Y-26540228D01*
X47970079Y-26540228D01*
X47964911Y-26540165D01*
X47744091Y-26573955D01*
X47531756Y-26643357D01*
X47333607Y-26746507D01*
X47329474Y-26749610D01*
X47329471Y-26749612D01*
X47165536Y-26872698D01*
X47154965Y-26880635D01*
X47000629Y-27042138D01*
X46893201Y-27199621D01*
X46838293Y-27244621D01*
X46767768Y-27252792D01*
X46704021Y-27221538D01*
X46683324Y-27197054D01*
X46602822Y-27072617D01*
X46602820Y-27072614D01*
X46600014Y-27068277D01*
X46449670Y-26903051D01*
X46445619Y-26899852D01*
X46445615Y-26899848D01*
X46278414Y-26767800D01*
X46278410Y-26767798D01*
X46274359Y-26764598D01*
X46078789Y-26656638D01*
X46073920Y-26654914D01*
X46073916Y-26654912D01*
X45873087Y-26583795D01*
X45873083Y-26583794D01*
X45868212Y-26582069D01*
X45863119Y-26581162D01*
X45863116Y-26581161D01*
X45653373Y-26543800D01*
X45653367Y-26543799D01*
X45648284Y-26542894D01*
X45574452Y-26541992D01*
X45430081Y-26540228D01*
X45430079Y-26540228D01*
X45424911Y-26540165D01*
X45204091Y-26573955D01*
X44991756Y-26643357D01*
X44793607Y-26746507D01*
X44789474Y-26749610D01*
X44789471Y-26749612D01*
X44625536Y-26872698D01*
X44614965Y-26880635D01*
X44460629Y-27042138D01*
X44353204Y-27199618D01*
X44352898Y-27200066D01*
X44297987Y-27245069D01*
X44227462Y-27253240D01*
X44163715Y-27221986D01*
X44143017Y-27197501D01*
X44113062Y-27151197D01*
X44102377Y-27141995D01*
X44092812Y-27146398D01*
X43352022Y-27887188D01*
X43344408Y-27901132D01*
X43344539Y-27902965D01*
X43348790Y-27909580D01*
X44090474Y-28651264D01*
X44102484Y-28657823D01*
X44114223Y-28648855D01*
X44148022Y-28601819D01*
X44149277Y-28602721D01*
X44196391Y-28559355D01*
X44266330Y-28547148D01*
X44331767Y-28574691D01*
X44359580Y-28606513D01*
X44417287Y-28700683D01*
X44417291Y-28700688D01*
X44419987Y-28705088D01*
X44566250Y-28873938D01*
X44738126Y-29016632D01*
X44822072Y-29065686D01*
X44870794Y-29117324D01*
X44884500Y-29174473D01*
X44884500Y-41064578D01*
X44864498Y-41132699D01*
X44847595Y-41153673D01*
X40443672Y-45557595D01*
X40381360Y-45591621D01*
X40354577Y-45594500D01*
X38475511Y-45594500D01*
X38407390Y-45574498D01*
X38369719Y-45536940D01*
X38282822Y-45402617D01*
X38282820Y-45402614D01*
X38280014Y-45398277D01*
X38129670Y-45233051D01*
X38125619Y-45229852D01*
X38125615Y-45229848D01*
X37958414Y-45097800D01*
X37958410Y-45097798D01*
X37954359Y-45094598D01*
X37913053Y-45071796D01*
X37863084Y-45021364D01*
X37848312Y-44951921D01*
X37873428Y-44885516D01*
X37900780Y-44858909D01*
X37966655Y-44811921D01*
X38079860Y-44731173D01*
X38238096Y-44573489D01*
X38257809Y-44546056D01*
X38365435Y-44396277D01*
X38368453Y-44392077D01*
X38400833Y-44326562D01*
X38465136Y-44196453D01*
X38465137Y-44196451D01*
X38467430Y-44191811D01*
X38521141Y-44015028D01*
X38530865Y-43983023D01*
X38530865Y-43983021D01*
X38532370Y-43978069D01*
X38561529Y-43756590D01*
X38561716Y-43748938D01*
X38563074Y-43693365D01*
X38563074Y-43693361D01*
X38563156Y-43690000D01*
X38544852Y-43467361D01*
X38490431Y-43250702D01*
X38401354Y-43045840D01*
X38350573Y-42967344D01*
X38282822Y-42862617D01*
X38282820Y-42862614D01*
X38280014Y-42858277D01*
X38263071Y-42839657D01*
X38132798Y-42696488D01*
X38101746Y-42632642D01*
X38110141Y-42562143D01*
X38155317Y-42507375D01*
X38181761Y-42493706D01*
X38288297Y-42453767D01*
X38296705Y-42450615D01*
X38413261Y-42363261D01*
X38500615Y-42246705D01*
X38551745Y-42110316D01*
X38558500Y-42048134D01*
X38558500Y-40251866D01*
X38551745Y-40189684D01*
X38500615Y-40053295D01*
X38413261Y-39936739D01*
X38296705Y-39849385D01*
X38160316Y-39798255D01*
X38098134Y-39791500D01*
X36301866Y-39791500D01*
X36239684Y-39798255D01*
X36103295Y-39849385D01*
X35986739Y-39936739D01*
X35899385Y-40053295D01*
X35848255Y-40189684D01*
X35841500Y-40251866D01*
X35841500Y-42048134D01*
X35848255Y-42110316D01*
X35899385Y-42246705D01*
X35986739Y-42363261D01*
X36103295Y-42450615D01*
X36111704Y-42453767D01*
X36111705Y-42453768D01*
X36220451Y-42494535D01*
X36277216Y-42537176D01*
X36301916Y-42603738D01*
X36286709Y-42673087D01*
X36267316Y-42699568D01*
X36168053Y-42803441D01*
X36140629Y-42832138D01*
X36137715Y-42836410D01*
X36137714Y-42836411D01*
X36107042Y-42881375D01*
X36014743Y-43016680D01*
X35999003Y-43050590D01*
X35925933Y-43208006D01*
X35920688Y-43219305D01*
X35860989Y-43434570D01*
X35837251Y-43656695D01*
X35837548Y-43661848D01*
X35837548Y-43661851D01*
X35849812Y-43874547D01*
X35850110Y-43879715D01*
X35851247Y-43884761D01*
X35851248Y-43884767D01*
X35867562Y-43957154D01*
X35899222Y-44097639D01*
X35983266Y-44304616D01*
X36032266Y-44384577D01*
X36096432Y-44489286D01*
X36099987Y-44495088D01*
X36246250Y-44663938D01*
X36418126Y-44806632D01*
X36444078Y-44821797D01*
X36491445Y-44849476D01*
X36540169Y-44901114D01*
X36553240Y-44970897D01*
X36526509Y-45036669D01*
X36486055Y-45070027D01*
X36473607Y-45076507D01*
X36469474Y-45079610D01*
X36469471Y-45079612D01*
X36299100Y-45207530D01*
X36294965Y-45210635D01*
X36282025Y-45224176D01*
X36161656Y-45350135D01*
X36140629Y-45372138D01*
X36014743Y-45556680D01*
X36013945Y-45558400D01*
X35963589Y-45607088D01*
X35905074Y-45621500D01*
X34334239Y-45621500D01*
X34266118Y-45601498D01*
X34245144Y-45584595D01*
X33266137Y-44605588D01*
X33232111Y-44543276D01*
X33237983Y-44477623D01*
X33235681Y-44476875D01*
X33237211Y-44472167D01*
X33239105Y-44467594D01*
X33272964Y-44326562D01*
X33293380Y-44241524D01*
X33293381Y-44241518D01*
X33294535Y-44236711D01*
X33313165Y-44000000D01*
X33294535Y-43763289D01*
X33292123Y-43753240D01*
X33243329Y-43550000D01*
X33239105Y-43532406D01*
X33234733Y-43521851D01*
X33150135Y-43317611D01*
X33150133Y-43317607D01*
X33148240Y-43313037D01*
X33110041Y-43250702D01*
X33026759Y-43114798D01*
X33026755Y-43114792D01*
X33024176Y-43110584D01*
X32869969Y-42930031D01*
X32689416Y-42775824D01*
X32685208Y-42773245D01*
X32685202Y-42773241D01*
X32491183Y-42654346D01*
X32486963Y-42651760D01*
X32482393Y-42649867D01*
X32482389Y-42649865D01*
X32272167Y-42562789D01*
X32272165Y-42562788D01*
X32267594Y-42560895D01*
X32168797Y-42537176D01*
X32041524Y-42506620D01*
X32041518Y-42506619D01*
X32036711Y-42505465D01*
X31800000Y-42486835D01*
X31563289Y-42505465D01*
X31558482Y-42506619D01*
X31558476Y-42506620D01*
X31431203Y-42537176D01*
X31332406Y-42560895D01*
X31327835Y-42562788D01*
X31327833Y-42562789D01*
X31117611Y-42649865D01*
X31117607Y-42649867D01*
X31113037Y-42651760D01*
X31108817Y-42654346D01*
X30914798Y-42773241D01*
X30914792Y-42773245D01*
X30910584Y-42775824D01*
X30730031Y-42930031D01*
X30575824Y-43110584D01*
X30573245Y-43114792D01*
X30573241Y-43114798D01*
X30489959Y-43250702D01*
X30451760Y-43313037D01*
X30449867Y-43317607D01*
X30449865Y-43317611D01*
X30365267Y-43521851D01*
X30360895Y-43532406D01*
X30356671Y-43550000D01*
X30307878Y-43753240D01*
X30305465Y-43763289D01*
X30286835Y-44000000D01*
X30305465Y-44236711D01*
X30306619Y-44241518D01*
X30306620Y-44241524D01*
X30327036Y-44326562D01*
X30360895Y-44467594D01*
X30362788Y-44472165D01*
X30362789Y-44472167D01*
X30443591Y-44667240D01*
X30451760Y-44686963D01*
X30454346Y-44691183D01*
X30573241Y-44885202D01*
X30573245Y-44885208D01*
X30575824Y-44889416D01*
X30730031Y-45069969D01*
X30910584Y-45224176D01*
X30914792Y-45226755D01*
X30914798Y-45226759D01*
X31082280Y-45329392D01*
X31113037Y-45348240D01*
X31117611Y-45350135D01*
X31122020Y-45352381D01*
X31120996Y-45354390D01*
X31168992Y-45393060D01*
X31191500Y-45464931D01*
X31191500Y-49035069D01*
X31171498Y-49103190D01*
X31120918Y-49145457D01*
X31122020Y-49147619D01*
X31117611Y-49149865D01*
X31113037Y-49151760D01*
X31108817Y-49154346D01*
X30914798Y-49273241D01*
X30914792Y-49273245D01*
X30910584Y-49275824D01*
X30730031Y-49430031D01*
X30575824Y-49610584D01*
X30573245Y-49614792D01*
X30573241Y-49614798D01*
X30492453Y-49746632D01*
X30451760Y-49813037D01*
X30449867Y-49817607D01*
X30449865Y-49817611D01*
X30365148Y-50022138D01*
X30360895Y-50032406D01*
X30352677Y-50066638D01*
X30330356Y-50159612D01*
X30305465Y-50263289D01*
X30286835Y-50500000D01*
X30305465Y-50736711D01*
X30306619Y-50741518D01*
X30306620Y-50741524D01*
X30331294Y-50844297D01*
X30360895Y-50967594D01*
X30362788Y-50972165D01*
X30362789Y-50972167D01*
X30448702Y-51179580D01*
X30451760Y-51186963D01*
X30454346Y-51191183D01*
X30573241Y-51385202D01*
X30573245Y-51385208D01*
X30575824Y-51389416D01*
X30730031Y-51569969D01*
X30910584Y-51724176D01*
X30914792Y-51726755D01*
X30914798Y-51726759D01*
X31108817Y-51845654D01*
X31113037Y-51848240D01*
X31117607Y-51850133D01*
X31117611Y-51850135D01*
X31307720Y-51928880D01*
X31332406Y-51939105D01*
X31350713Y-51943500D01*
X31558476Y-51993380D01*
X31558482Y-51993381D01*
X31563289Y-51994535D01*
X31800000Y-52013165D01*
X32036711Y-51994535D01*
X32041518Y-51993381D01*
X32041524Y-51993380D01*
X32249287Y-51943500D01*
X32267594Y-51939105D01*
X32292280Y-51928880D01*
X32482389Y-51850135D01*
X32482393Y-51850133D01*
X32486963Y-51848240D01*
X32491183Y-51845654D01*
X32685202Y-51726759D01*
X32685208Y-51726755D01*
X32689416Y-51724176D01*
X32869969Y-51569969D01*
X33024176Y-51389416D01*
X33026755Y-51385208D01*
X33026759Y-51385202D01*
X33145654Y-51191183D01*
X33148240Y-51186963D01*
X33151299Y-51179580D01*
X33237211Y-50972167D01*
X33237212Y-50972165D01*
X33239105Y-50967594D01*
X33268706Y-50844297D01*
X33293380Y-50741524D01*
X33293381Y-50741518D01*
X33294535Y-50736711D01*
X33313165Y-50500000D01*
X33294535Y-50263289D01*
X33269645Y-50159612D01*
X33247323Y-50066638D01*
X33239105Y-50032406D01*
X33234852Y-50022138D01*
X33150135Y-49817611D01*
X33150133Y-49817607D01*
X33148240Y-49813037D01*
X33107547Y-49746632D01*
X33026759Y-49614798D01*
X33026755Y-49614792D01*
X33024176Y-49610584D01*
X32869969Y-49430031D01*
X32689416Y-49275824D01*
X32685208Y-49273245D01*
X32685202Y-49273241D01*
X32491183Y-49154346D01*
X32486963Y-49151760D01*
X32482389Y-49149865D01*
X32477980Y-49147619D01*
X32479004Y-49145610D01*
X32431008Y-49106940D01*
X32408500Y-49035069D01*
X32408500Y-45773239D01*
X32428502Y-45705118D01*
X32482158Y-45658625D01*
X32552432Y-45648521D01*
X32617012Y-45678015D01*
X32623595Y-45684144D01*
X33565685Y-46626234D01*
X33576552Y-46638625D01*
X33596013Y-46663987D01*
X33602563Y-46669013D01*
X33627925Y-46688474D01*
X33627928Y-46688477D01*
X33694408Y-46739489D01*
X33723124Y-46761524D01*
X33759640Y-46776649D01*
X33871150Y-46822838D01*
X33990115Y-46838500D01*
X33990120Y-46838500D01*
X33990129Y-46838501D01*
X34021812Y-46842672D01*
X34030000Y-46843750D01*
X34061693Y-46839578D01*
X34078136Y-46838500D01*
X35908954Y-46838500D01*
X35977075Y-46858502D01*
X36016387Y-46898665D01*
X36099987Y-47035088D01*
X36246250Y-47203938D01*
X36418126Y-47346632D01*
X36444078Y-47361797D01*
X36491955Y-47389774D01*
X36540679Y-47441412D01*
X36553750Y-47511195D01*
X36527019Y-47576967D01*
X36486562Y-47610327D01*
X36478457Y-47614546D01*
X36469738Y-47620036D01*
X36299433Y-47747905D01*
X36291726Y-47754748D01*
X36144590Y-47908717D01*
X36138104Y-47916727D01*
X36018098Y-48092649D01*
X36013000Y-48101623D01*
X35923338Y-48294783D01*
X35919775Y-48304470D01*
X35864389Y-48504183D01*
X35865912Y-48512607D01*
X35878292Y-48516000D01*
X38518344Y-48516000D01*
X38531875Y-48512027D01*
X38533180Y-48502947D01*
X38491214Y-48335875D01*
X38487894Y-48326124D01*
X38402972Y-48130814D01*
X38398105Y-48121739D01*
X38282426Y-47942926D01*
X38276136Y-47934757D01*
X38132806Y-47777240D01*
X38125273Y-47770215D01*
X37958139Y-47638222D01*
X37949556Y-47632520D01*
X37912602Y-47612120D01*
X37862631Y-47561687D01*
X37847859Y-47492245D01*
X37872975Y-47425839D01*
X37900327Y-47399232D01*
X37966655Y-47351921D01*
X38079860Y-47271173D01*
X38238096Y-47113489D01*
X38341712Y-46969292D01*
X38365438Y-46936273D01*
X38365439Y-46936272D01*
X38368453Y-46932077D01*
X38370742Y-46927445D01*
X38371247Y-46926605D01*
X38423477Y-46878516D01*
X38479250Y-46865500D01*
X40590980Y-46865500D01*
X40602214Y-46866030D01*
X40609719Y-46867708D01*
X40678012Y-46865562D01*
X40681969Y-46865500D01*
X40709983Y-46865500D01*
X40713908Y-46865004D01*
X40713909Y-46865004D01*
X40714004Y-46864992D01*
X40725849Y-46864059D01*
X40755670Y-46863122D01*
X40762282Y-46862914D01*
X40762283Y-46862914D01*
X40770205Y-46862665D01*
X40789749Y-46856987D01*
X40809112Y-46852977D01*
X40821440Y-46851420D01*
X40821442Y-46851420D01*
X40829299Y-46850427D01*
X40836663Y-46847511D01*
X40836668Y-46847510D01*
X40870556Y-46834093D01*
X40881785Y-46830248D01*
X40907289Y-46822838D01*
X40924393Y-46817869D01*
X40931220Y-46813831D01*
X40931223Y-46813830D01*
X40941906Y-46807512D01*
X40959664Y-46798812D01*
X40971215Y-46794239D01*
X40971221Y-46794235D01*
X40978588Y-46791319D01*
X41014491Y-46765234D01*
X41024410Y-46758719D01*
X41055768Y-46740174D01*
X41055772Y-46740171D01*
X41062598Y-46736134D01*
X41076982Y-46721750D01*
X41092016Y-46708909D01*
X41102073Y-46701602D01*
X41108487Y-46696942D01*
X41136778Y-46662744D01*
X41144767Y-46653965D01*
X45913483Y-41885250D01*
X45921809Y-41877674D01*
X45928303Y-41873553D01*
X45975086Y-41823734D01*
X45977840Y-41820893D01*
X45997639Y-41801094D01*
X46000063Y-41797969D01*
X46000071Y-41797960D01*
X46000137Y-41797874D01*
X46007845Y-41788849D01*
X46032790Y-41762285D01*
X46038217Y-41756506D01*
X46048023Y-41738669D01*
X46058873Y-41722153D01*
X46071350Y-41706067D01*
X46088976Y-41665334D01*
X46094193Y-41654686D01*
X46111749Y-41622751D01*
X46115569Y-41615803D01*
X46117540Y-41608128D01*
X46117542Y-41608122D01*
X46120631Y-41596089D01*
X46127034Y-41577387D01*
X46135117Y-41558708D01*
X46142060Y-41514873D01*
X46144467Y-41503251D01*
X46155500Y-41460282D01*
X46155500Y-41439935D01*
X46157051Y-41420224D01*
X46158995Y-41407950D01*
X46160235Y-41400121D01*
X46156059Y-41355944D01*
X46155500Y-41344086D01*
X46155500Y-29738422D01*
X46175502Y-29670301D01*
X46229158Y-29623808D01*
X46299432Y-29613704D01*
X46364012Y-29643198D01*
X46370595Y-29649327D01*
X55343744Y-38622477D01*
X64314750Y-47593483D01*
X64322326Y-47601809D01*
X64326447Y-47608303D01*
X64347605Y-47628171D01*
X64367282Y-47646649D01*
X64403248Y-47707862D01*
X64400411Y-47778802D01*
X64359671Y-47836946D01*
X64293963Y-47863835D01*
X64281030Y-47864500D01*
X55629020Y-47864500D01*
X55617786Y-47863970D01*
X55610281Y-47862292D01*
X55542571Y-47864420D01*
X55541988Y-47864438D01*
X55538031Y-47864500D01*
X55510017Y-47864500D01*
X55506092Y-47864996D01*
X55506091Y-47864996D01*
X55505996Y-47865008D01*
X55494151Y-47865941D01*
X55464330Y-47866878D01*
X55457718Y-47867086D01*
X55457717Y-47867086D01*
X55449795Y-47867335D01*
X55430252Y-47873013D01*
X55410888Y-47877023D01*
X55398560Y-47878580D01*
X55398558Y-47878580D01*
X55390701Y-47879573D01*
X55383337Y-47882489D01*
X55383332Y-47882490D01*
X55349444Y-47895907D01*
X55338215Y-47899752D01*
X55324241Y-47903812D01*
X55295607Y-47912131D01*
X55288781Y-47916168D01*
X55278091Y-47922490D01*
X55260341Y-47931187D01*
X55241412Y-47938681D01*
X55234996Y-47943342D01*
X55234995Y-47943343D01*
X55205519Y-47964759D01*
X55195595Y-47971278D01*
X55164224Y-47989830D01*
X55164219Y-47989834D01*
X55157401Y-47993866D01*
X55143014Y-48008253D01*
X55127980Y-48021094D01*
X55126236Y-48022361D01*
X55111513Y-48033058D01*
X55106460Y-48039166D01*
X55083228Y-48067249D01*
X55075238Y-48076029D01*
X45400595Y-57750672D01*
X45338283Y-57784698D01*
X45267468Y-57779633D01*
X45210632Y-57737086D01*
X45185821Y-57670566D01*
X45185500Y-57661577D01*
X45185500Y-55610996D01*
X45187741Y-55610996D01*
X45187579Y-55610034D01*
X45185702Y-55610093D01*
X45185617Y-55607398D01*
X45185562Y-55605636D01*
X45185500Y-55601680D01*
X45185500Y-55510017D01*
X45182326Y-55484896D01*
X45181396Y-55473073D01*
X45180923Y-55458031D01*
X45180923Y-55458030D01*
X45180674Y-55450111D01*
X45178463Y-55442501D01*
X45178346Y-55441761D01*
X45174582Y-55423591D01*
X45170427Y-55390701D01*
X45167511Y-55383337D01*
X45167509Y-55383328D01*
X45146271Y-55329689D01*
X45142424Y-55318454D01*
X45138230Y-55304016D01*
X45138228Y-55304012D01*
X45136019Y-55296407D01*
X45131988Y-55289592D01*
X45131690Y-55288902D01*
X45123516Y-55272218D01*
X45114238Y-55248783D01*
X45114236Y-55248779D01*
X45111319Y-55241412D01*
X45072746Y-55188320D01*
X45066231Y-55178402D01*
X45058580Y-55165466D01*
X45054542Y-55158638D01*
X45048930Y-55153026D01*
X45048453Y-55152411D01*
X45036422Y-55138325D01*
X45021602Y-55117927D01*
X45016942Y-55111513D01*
X44966372Y-55069678D01*
X44957593Y-55061689D01*
X40813652Y-50917747D01*
X40806112Y-50909461D01*
X40802000Y-50902982D01*
X40752348Y-50856356D01*
X40749507Y-50853602D01*
X40729770Y-50833865D01*
X40726573Y-50831385D01*
X40717551Y-50823680D01*
X40691100Y-50798841D01*
X40685321Y-50793414D01*
X40678375Y-50789595D01*
X40678372Y-50789593D01*
X40667566Y-50783652D01*
X40651047Y-50772801D01*
X40650583Y-50772441D01*
X40635041Y-50760386D01*
X40627772Y-50757241D01*
X40627768Y-50757238D01*
X40594463Y-50742826D01*
X40583813Y-50737609D01*
X40545060Y-50716305D01*
X40525437Y-50711267D01*
X40506734Y-50704863D01*
X40495420Y-50699967D01*
X40495419Y-50699967D01*
X40488145Y-50696819D01*
X40480322Y-50695580D01*
X40480312Y-50695577D01*
X40444476Y-50689901D01*
X40432856Y-50687495D01*
X40397711Y-50678472D01*
X40397710Y-50678472D01*
X40390030Y-50676500D01*
X40369776Y-50676500D01*
X40350065Y-50674949D01*
X40337886Y-50673020D01*
X40330057Y-50671780D01*
X40322165Y-50672526D01*
X40286039Y-50675941D01*
X40274181Y-50676500D01*
X38476805Y-50676500D01*
X38408684Y-50656498D01*
X38371013Y-50618940D01*
X38282822Y-50482617D01*
X38282820Y-50482614D01*
X38280014Y-50478277D01*
X38129670Y-50313051D01*
X38125619Y-50309852D01*
X38125615Y-50309848D01*
X37958414Y-50177800D01*
X37958410Y-50177798D01*
X37954359Y-50174598D01*
X37912569Y-50151529D01*
X37862598Y-50101097D01*
X37847826Y-50031654D01*
X37872942Y-49965248D01*
X37900294Y-49938641D01*
X38075328Y-49813792D01*
X38083200Y-49807139D01*
X38234052Y-49656812D01*
X38240730Y-49648965D01*
X38365003Y-49476020D01*
X38370313Y-49467183D01*
X38464670Y-49276267D01*
X38468469Y-49266672D01*
X38530377Y-49062910D01*
X38532555Y-49052837D01*
X38533986Y-49041962D01*
X38531775Y-49027778D01*
X38518617Y-49024000D01*
X35883225Y-49024000D01*
X35869694Y-49027973D01*
X35868257Y-49037966D01*
X35898565Y-49172446D01*
X35901645Y-49182275D01*
X35981770Y-49379603D01*
X35986413Y-49388794D01*
X36097694Y-49570388D01*
X36103777Y-49578699D01*
X36243213Y-49739667D01*
X36250580Y-49746883D01*
X36414434Y-49882916D01*
X36422881Y-49888831D01*
X36491969Y-49929203D01*
X36540693Y-49980842D01*
X36553764Y-50050625D01*
X36527033Y-50116396D01*
X36486584Y-50149752D01*
X36473607Y-50156507D01*
X36469474Y-50159610D01*
X36469471Y-50159612D01*
X36299100Y-50287530D01*
X36294965Y-50290635D01*
X36291393Y-50294373D01*
X36169065Y-50422382D01*
X36140629Y-50452138D01*
X36014743Y-50636680D01*
X35976011Y-50720121D01*
X35939471Y-50798841D01*
X35920688Y-50839305D01*
X35860989Y-51054570D01*
X35837251Y-51276695D01*
X35837548Y-51281848D01*
X35837548Y-51281851D01*
X35843011Y-51376590D01*
X35850110Y-51499715D01*
X35851247Y-51504761D01*
X35851248Y-51504767D01*
X35868716Y-51582275D01*
X35899222Y-51717639D01*
X35983266Y-51924616D01*
X36026112Y-51994535D01*
X36072080Y-52069547D01*
X36099987Y-52115088D01*
X36246250Y-52283938D01*
X36418126Y-52426632D01*
X36441330Y-52440191D01*
X36491445Y-52469476D01*
X36540169Y-52521114D01*
X36553240Y-52590897D01*
X36526509Y-52656669D01*
X36486055Y-52690027D01*
X36473607Y-52696507D01*
X36469474Y-52699610D01*
X36469471Y-52699612D01*
X36388841Y-52760151D01*
X36294965Y-52830635D01*
X36291393Y-52834373D01*
X36151644Y-52980612D01*
X36140629Y-52992138D01*
X36014743Y-53176680D01*
X35983842Y-53243251D01*
X35929356Y-53360632D01*
X35920688Y-53379305D01*
X35860989Y-53594570D01*
X35837251Y-53816695D01*
X35837548Y-53821848D01*
X35837548Y-53821851D01*
X35843277Y-53921205D01*
X35850110Y-54039715D01*
X35851247Y-54044761D01*
X35851248Y-54044767D01*
X35873929Y-54145405D01*
X35899222Y-54257639D01*
X35953577Y-54391500D01*
X35971542Y-54435742D01*
X35983266Y-54464616D01*
X36003718Y-54497991D01*
X36091000Y-54640422D01*
X36099987Y-54655088D01*
X36246250Y-54823938D01*
X36418126Y-54966632D01*
X36611000Y-55079338D01*
X36819692Y-55159030D01*
X36824760Y-55160061D01*
X36824763Y-55160062D01*
X36914908Y-55178402D01*
X37038597Y-55203567D01*
X37043772Y-55203757D01*
X37043774Y-55203757D01*
X37256673Y-55211564D01*
X37256677Y-55211564D01*
X37261837Y-55211753D01*
X37266957Y-55211097D01*
X37266959Y-55211097D01*
X37478288Y-55184025D01*
X37478289Y-55184025D01*
X37483416Y-55183368D01*
X37488366Y-55181883D01*
X37692429Y-55120661D01*
X37692434Y-55120659D01*
X37697384Y-55119174D01*
X37897994Y-55020896D01*
X38079860Y-54891173D01*
X38110939Y-54860203D01*
X38204871Y-54766598D01*
X38238096Y-54733489D01*
X38259215Y-54704099D01*
X38260118Y-54702843D01*
X38316113Y-54659196D01*
X38386816Y-54652750D01*
X38449780Y-54685553D01*
X38465652Y-54704097D01*
X38493802Y-54744300D01*
X38655700Y-54906198D01*
X38660208Y-54909355D01*
X38660211Y-54909357D01*
X38810771Y-55014780D01*
X38855099Y-55070237D01*
X38864500Y-55117993D01*
X38864500Y-58220980D01*
X38863970Y-58232214D01*
X38862292Y-58239719D01*
X38863549Y-58279710D01*
X38864438Y-58308012D01*
X38864500Y-58311969D01*
X38864500Y-58339983D01*
X38864996Y-58343908D01*
X38864996Y-58343909D01*
X38865008Y-58344004D01*
X38865941Y-58355849D01*
X38867335Y-58400205D01*
X38871215Y-58413559D01*
X38873013Y-58419748D01*
X38877023Y-58439112D01*
X38879573Y-58459299D01*
X38882489Y-58466663D01*
X38882490Y-58466668D01*
X38895907Y-58500556D01*
X38899752Y-58511785D01*
X38912131Y-58554393D01*
X38916169Y-58561220D01*
X38916170Y-58561223D01*
X38922488Y-58571906D01*
X38931188Y-58589664D01*
X38935761Y-58601215D01*
X38935765Y-58601221D01*
X38938681Y-58608588D01*
X38943339Y-58614999D01*
X38943340Y-58615001D01*
X38964764Y-58644488D01*
X38971281Y-58654410D01*
X38989826Y-58685768D01*
X38989829Y-58685772D01*
X38993866Y-58692598D01*
X39008250Y-58706982D01*
X39021091Y-58722016D01*
X39033058Y-58738487D01*
X39039166Y-58743540D01*
X39067255Y-58766777D01*
X39076035Y-58774767D01*
X42273229Y-61971961D01*
X42303966Y-62022119D01*
X42320412Y-62072733D01*
X42406447Y-62208303D01*
X42412226Y-62213730D01*
X42412227Y-62213731D01*
X42462386Y-62260833D01*
X42523494Y-62318217D01*
X42664197Y-62395569D01*
X42819718Y-62435500D01*
X42940065Y-62435500D01*
X42959777Y-62437051D01*
X42979879Y-62440235D01*
X42987771Y-62439489D01*
X43024056Y-62436059D01*
X43035914Y-62435500D01*
X45820980Y-62435500D01*
X45832214Y-62436030D01*
X45839719Y-62437708D01*
X45908012Y-62435562D01*
X45911969Y-62435500D01*
X45939983Y-62435500D01*
X45943908Y-62435004D01*
X45943909Y-62435004D01*
X45944004Y-62434992D01*
X45955849Y-62434059D01*
X45985670Y-62433122D01*
X45992282Y-62432914D01*
X45992283Y-62432914D01*
X46000205Y-62432665D01*
X46019749Y-62426987D01*
X46039112Y-62422977D01*
X46051440Y-62421420D01*
X46051442Y-62421420D01*
X46059299Y-62420427D01*
X46066663Y-62417511D01*
X46066668Y-62417510D01*
X46100556Y-62404093D01*
X46111785Y-62400248D01*
X46141034Y-62391750D01*
X46154393Y-62387869D01*
X46161220Y-62383831D01*
X46161223Y-62383830D01*
X46171906Y-62377512D01*
X46189664Y-62368812D01*
X46201215Y-62364239D01*
X46201221Y-62364235D01*
X46208588Y-62361319D01*
X46244491Y-62335234D01*
X46254410Y-62328719D01*
X46285768Y-62310174D01*
X46285772Y-62310171D01*
X46292598Y-62306134D01*
X46306982Y-62291750D01*
X46322016Y-62278909D01*
X46332073Y-62271602D01*
X46338487Y-62266942D01*
X46366773Y-62232750D01*
X46374763Y-62223969D01*
X47293488Y-61305245D01*
X47301807Y-61297675D01*
X47308303Y-61293553D01*
X47355086Y-61243734D01*
X47357840Y-61240893D01*
X47377639Y-61221094D01*
X47380068Y-61217963D01*
X47380072Y-61217958D01*
X47380139Y-61217872D01*
X47387847Y-61208847D01*
X47412792Y-61182283D01*
X47418217Y-61176506D01*
X47422035Y-61169561D01*
X47422038Y-61169557D01*
X47428026Y-61158666D01*
X47438878Y-61142145D01*
X47446492Y-61132329D01*
X47446492Y-61132328D01*
X47451350Y-61126066D01*
X47468974Y-61085338D01*
X47474196Y-61074681D01*
X47491748Y-61042754D01*
X47491749Y-61042751D01*
X47495569Y-61035803D01*
X47500632Y-61016085D01*
X47507034Y-60997386D01*
X47509393Y-60991935D01*
X47515117Y-60978707D01*
X47516356Y-60970883D01*
X47516358Y-60970877D01*
X47522060Y-60934880D01*
X47524466Y-60923260D01*
X47533528Y-60887963D01*
X47533528Y-60887962D01*
X47535500Y-60880282D01*
X47535500Y-60859934D01*
X47537051Y-60840223D01*
X47538995Y-60827949D01*
X47540235Y-60820120D01*
X47536059Y-60775944D01*
X47535500Y-60764086D01*
X47535500Y-60732670D01*
X48182160Y-60732670D01*
X48187887Y-60740320D01*
X48359042Y-60845205D01*
X48367837Y-60849687D01*
X48577988Y-60936734D01*
X48587373Y-60939783D01*
X48808554Y-60992885D01*
X48818301Y-60994428D01*
X49045070Y-61012275D01*
X49054930Y-61012275D01*
X49281699Y-60994428D01*
X49291446Y-60992885D01*
X49512627Y-60939783D01*
X49522012Y-60936734D01*
X49732163Y-60849687D01*
X49740958Y-60845205D01*
X49908445Y-60742568D01*
X49917907Y-60732110D01*
X49914124Y-60723334D01*
X49062812Y-59872022D01*
X49048868Y-59864408D01*
X49047035Y-59864539D01*
X49040420Y-59868790D01*
X48188920Y-60720290D01*
X48182160Y-60732670D01*
X47535500Y-60732670D01*
X47535500Y-60361454D01*
X47555502Y-60293333D01*
X47609158Y-60246840D01*
X47679432Y-60236736D01*
X47744012Y-60266230D01*
X47768933Y-60295619D01*
X47807434Y-60358447D01*
X47817890Y-60367907D01*
X47826666Y-60364124D01*
X48689658Y-59501132D01*
X49414408Y-59501132D01*
X49414539Y-59502965D01*
X49418790Y-59509580D01*
X50270290Y-60361080D01*
X50282670Y-60367840D01*
X50290320Y-60362113D01*
X50395205Y-60190958D01*
X50399687Y-60182163D01*
X50486734Y-59972012D01*
X50489783Y-59962627D01*
X50542885Y-59741446D01*
X50544428Y-59731699D01*
X50562275Y-59504930D01*
X50562275Y-59495070D01*
X50544428Y-59268301D01*
X50542885Y-59258554D01*
X50489783Y-59037373D01*
X50486734Y-59027988D01*
X50399687Y-58817837D01*
X50395205Y-58809042D01*
X50292568Y-58641555D01*
X50282110Y-58632093D01*
X50273334Y-58635876D01*
X49422022Y-59487188D01*
X49414408Y-59501132D01*
X48689658Y-59501132D01*
X49911080Y-58279710D01*
X49917840Y-58267330D01*
X49912113Y-58259680D01*
X49740958Y-58154795D01*
X49732163Y-58150313D01*
X49522012Y-58063266D01*
X49512627Y-58060217D01*
X49291446Y-58007115D01*
X49281698Y-58005572D01*
X49125993Y-57993318D01*
X49059651Y-57968033D01*
X49017511Y-57910895D01*
X49012952Y-57840045D01*
X49046783Y-57778611D01*
X52264138Y-54561257D01*
X56952990Y-49872405D01*
X57015302Y-49838379D01*
X57042085Y-49835500D01*
X68512824Y-49835500D01*
X68580945Y-49855502D01*
X68627438Y-49909158D01*
X68638076Y-49975204D01*
X68593697Y-50380807D01*
X68593015Y-50386034D01*
X68576811Y-50492662D01*
X68456879Y-51281851D01*
X68455589Y-51290339D01*
X68454692Y-51295513D01*
X68398752Y-51582275D01*
X68279557Y-52193294D01*
X68278440Y-52198445D01*
X68168976Y-52656669D01*
X68090371Y-52985719D01*
X68065910Y-53088113D01*
X68064580Y-53093206D01*
X67829271Y-53922967D01*
X67815026Y-53973197D01*
X67813487Y-53978221D01*
X67534943Y-54823938D01*
X67527347Y-54847001D01*
X67525599Y-54851959D01*
X67425016Y-55119174D01*
X67203356Y-55708048D01*
X67201396Y-55712941D01*
X66843644Y-56554767D01*
X66841481Y-56559574D01*
X66448837Y-57385690D01*
X66446475Y-57390403D01*
X66019610Y-58199393D01*
X66017053Y-58204002D01*
X65556742Y-58994400D01*
X65553995Y-58998899D01*
X65332296Y-59345391D01*
X65085121Y-59731699D01*
X65061005Y-59769389D01*
X65058074Y-59773765D01*
X65031481Y-59811730D01*
X64533305Y-60522937D01*
X64530191Y-60527191D01*
X63974534Y-61253774D01*
X63971245Y-61257893D01*
X63385686Y-61960596D01*
X63382227Y-61964574D01*
X62767812Y-62642146D01*
X62764192Y-62645975D01*
X62364777Y-63051028D01*
X62121942Y-63297290D01*
X62118163Y-63300965D01*
X61449244Y-63924835D01*
X61445314Y-63928349D01*
X60772603Y-64505077D01*
X60750900Y-64523683D01*
X60746828Y-64527029D01*
X60028122Y-65092797D01*
X60023912Y-65095971D01*
X59282131Y-65631212D01*
X59277793Y-65634206D01*
X58932575Y-65861971D01*
X58514305Y-66137933D01*
X58509861Y-66140733D01*
X57725956Y-66612093D01*
X57721383Y-66614714D01*
X56918481Y-67052858D01*
X56913802Y-67055286D01*
X56093260Y-67459473D01*
X56088484Y-67461703D01*
X55251724Y-67831228D01*
X55246892Y-67833242D01*
X55068095Y-67903419D01*
X54395423Y-68167440D01*
X54390478Y-68169263D01*
X53525782Y-68467553D01*
X53520777Y-68469163D01*
X52644365Y-68731024D01*
X52639283Y-68732427D01*
X51752716Y-68957394D01*
X51747581Y-68958584D01*
X50852329Y-69146284D01*
X50847149Y-69147257D01*
X49944866Y-69297341D01*
X49939649Y-69298097D01*
X49031865Y-69410312D01*
X49026622Y-69410849D01*
X48114959Y-69484996D01*
X48109700Y-69485314D01*
X48053832Y-69487511D01*
X47195701Y-69521265D01*
X47190431Y-69521362D01*
X46747611Y-69520244D01*
X46275715Y-69519053D01*
X46270481Y-69518929D01*
X45356670Y-69478364D01*
X45351429Y-69478022D01*
X44826386Y-69432650D01*
X44440143Y-69399272D01*
X44434902Y-69398709D01*
X44200824Y-69368573D01*
X43527652Y-69281906D01*
X43522475Y-69281129D01*
X42620948Y-69126489D01*
X42615801Y-69125496D01*
X42047190Y-69003280D01*
X41721496Y-68933276D01*
X41716366Y-68932060D01*
X41386418Y-68846560D01*
X40830925Y-68702614D01*
X40825901Y-68701200D01*
X39950767Y-68434901D01*
X39945776Y-68433267D01*
X39192823Y-68169263D01*
X39082606Y-68130618D01*
X39077669Y-68128770D01*
X38227908Y-67790281D01*
X38223053Y-67788228D01*
X37388225Y-67414507D01*
X37383460Y-67412254D01*
X36697344Y-67069969D01*
X36564935Y-67003913D01*
X36560273Y-67001464D01*
X35759570Y-66559259D01*
X35755054Y-66556641D01*
X34973517Y-66081314D01*
X34969072Y-66078481D01*
X34851416Y-66000000D01*
X43036835Y-66000000D01*
X43055465Y-66236711D01*
X43056619Y-66241518D01*
X43056620Y-66241524D01*
X43086122Y-66364408D01*
X43110895Y-66467594D01*
X43112788Y-66472165D01*
X43112789Y-66472167D01*
X43199772Y-66682163D01*
X43201760Y-66686963D01*
X43204346Y-66691183D01*
X43323241Y-66885202D01*
X43323245Y-66885208D01*
X43325824Y-66889416D01*
X43423616Y-67003916D01*
X43467491Y-67055286D01*
X43480031Y-67069969D01*
X43660584Y-67224176D01*
X43664792Y-67226755D01*
X43664798Y-67226759D01*
X43858084Y-67345205D01*
X43863037Y-67348240D01*
X43867607Y-67350133D01*
X43867611Y-67350135D01*
X44077833Y-67437211D01*
X44082406Y-67439105D01*
X44162609Y-67458360D01*
X44308476Y-67493380D01*
X44308482Y-67493381D01*
X44313289Y-67494535D01*
X44550000Y-67513165D01*
X44786711Y-67494535D01*
X44791518Y-67493381D01*
X44791524Y-67493380D01*
X44937391Y-67458360D01*
X45017594Y-67439105D01*
X45022167Y-67437211D01*
X45232389Y-67350135D01*
X45232393Y-67350133D01*
X45236963Y-67348240D01*
X45241916Y-67345205D01*
X45425556Y-67232670D01*
X48182160Y-67232670D01*
X48187887Y-67240320D01*
X48359042Y-67345205D01*
X48367837Y-67349687D01*
X48577988Y-67436734D01*
X48587373Y-67439783D01*
X48808554Y-67492885D01*
X48818301Y-67494428D01*
X49045070Y-67512275D01*
X49054930Y-67512275D01*
X49281699Y-67494428D01*
X49291446Y-67492885D01*
X49512627Y-67439783D01*
X49522012Y-67436734D01*
X49732163Y-67349687D01*
X49740958Y-67345205D01*
X49908445Y-67242568D01*
X49917907Y-67232110D01*
X49914124Y-67223334D01*
X49062812Y-66372022D01*
X49048868Y-66364408D01*
X49047035Y-66364539D01*
X49040420Y-66368790D01*
X48188920Y-67220290D01*
X48182160Y-67232670D01*
X45425556Y-67232670D01*
X45435202Y-67226759D01*
X45435208Y-67226755D01*
X45439416Y-67224176D01*
X45619969Y-67069969D01*
X45632510Y-67055286D01*
X45676384Y-67003916D01*
X45774176Y-66889416D01*
X45776755Y-66885208D01*
X45776759Y-66885202D01*
X45895654Y-66691183D01*
X45898240Y-66686963D01*
X45900229Y-66682163D01*
X45987211Y-66472167D01*
X45987212Y-66472165D01*
X45989105Y-66467594D01*
X46013878Y-66364408D01*
X46043380Y-66241524D01*
X46043381Y-66241518D01*
X46044535Y-66236711D01*
X46062777Y-66004930D01*
X47537725Y-66004930D01*
X47555572Y-66231699D01*
X47557115Y-66241446D01*
X47610217Y-66462627D01*
X47613266Y-66472012D01*
X47700313Y-66682163D01*
X47704795Y-66690958D01*
X47807432Y-66858445D01*
X47817890Y-66867907D01*
X47826666Y-66864124D01*
X48677978Y-66012812D01*
X48684356Y-66001132D01*
X49414408Y-66001132D01*
X49414539Y-66002965D01*
X49418790Y-66009580D01*
X50270290Y-66861080D01*
X50282670Y-66867840D01*
X50290320Y-66862113D01*
X50395205Y-66690958D01*
X50399687Y-66682163D01*
X50486734Y-66472012D01*
X50489783Y-66462627D01*
X50542885Y-66241446D01*
X50544428Y-66231699D01*
X50562275Y-66004930D01*
X50562275Y-65995070D01*
X50544428Y-65768301D01*
X50542885Y-65758554D01*
X50489783Y-65537373D01*
X50486734Y-65527988D01*
X50399687Y-65317837D01*
X50395205Y-65309042D01*
X50292568Y-65141555D01*
X50282110Y-65132093D01*
X50273334Y-65135876D01*
X49422022Y-65987188D01*
X49414408Y-66001132D01*
X48684356Y-66001132D01*
X48685592Y-65998868D01*
X48685461Y-65997035D01*
X48681210Y-65990420D01*
X47829710Y-65138920D01*
X47817330Y-65132160D01*
X47809680Y-65137887D01*
X47704795Y-65309042D01*
X47700313Y-65317837D01*
X47613266Y-65527988D01*
X47610217Y-65537373D01*
X47557115Y-65758554D01*
X47555572Y-65768301D01*
X47537725Y-65995070D01*
X47537725Y-66004930D01*
X46062777Y-66004930D01*
X46063165Y-66000000D01*
X46044535Y-65763289D01*
X45989105Y-65532406D01*
X45906557Y-65333116D01*
X45900135Y-65317611D01*
X45900133Y-65317607D01*
X45898240Y-65313037D01*
X45895654Y-65308817D01*
X45776759Y-65114798D01*
X45776755Y-65114792D01*
X45774176Y-65110584D01*
X45619969Y-64930031D01*
X45439416Y-64775824D01*
X45435208Y-64773245D01*
X45435202Y-64773241D01*
X45426470Y-64767890D01*
X48182093Y-64767890D01*
X48185876Y-64776666D01*
X49037188Y-65627978D01*
X49051132Y-65635592D01*
X49052965Y-65635461D01*
X49059580Y-65631210D01*
X49911080Y-64779710D01*
X49917840Y-64767330D01*
X49912113Y-64759680D01*
X49740958Y-64654795D01*
X49732163Y-64650313D01*
X49522012Y-64563266D01*
X49512627Y-64560217D01*
X49291446Y-64507115D01*
X49281699Y-64505572D01*
X49054930Y-64487725D01*
X49045070Y-64487725D01*
X48818301Y-64505572D01*
X48808554Y-64507115D01*
X48587373Y-64560217D01*
X48577988Y-64563266D01*
X48367837Y-64650313D01*
X48359042Y-64654795D01*
X48191555Y-64757432D01*
X48182093Y-64767890D01*
X45426470Y-64767890D01*
X45241183Y-64654346D01*
X45236963Y-64651760D01*
X45232393Y-64649867D01*
X45232389Y-64649865D01*
X45022167Y-64562789D01*
X45022165Y-64562788D01*
X45017594Y-64560895D01*
X44894626Y-64531373D01*
X44791524Y-64506620D01*
X44791518Y-64506619D01*
X44786711Y-64505465D01*
X44550000Y-64486835D01*
X44313289Y-64505465D01*
X44308482Y-64506619D01*
X44308476Y-64506620D01*
X44205374Y-64531373D01*
X44082406Y-64560895D01*
X44077835Y-64562788D01*
X44077833Y-64562789D01*
X43867611Y-64649865D01*
X43867607Y-64649867D01*
X43863037Y-64651760D01*
X43858817Y-64654346D01*
X43664798Y-64773241D01*
X43664792Y-64773245D01*
X43660584Y-64775824D01*
X43480031Y-64930031D01*
X43325824Y-65110584D01*
X43323245Y-65114792D01*
X43323241Y-65114798D01*
X43204346Y-65308817D01*
X43201760Y-65313037D01*
X43199867Y-65317607D01*
X43199865Y-65317611D01*
X43193443Y-65333116D01*
X43110895Y-65532406D01*
X43055465Y-65763289D01*
X43036835Y-66000000D01*
X34851416Y-66000000D01*
X34305110Y-65635592D01*
X34208141Y-65570910D01*
X34203824Y-65567898D01*
X34161755Y-65537218D01*
X33582517Y-65114798D01*
X33464784Y-65028939D01*
X33460591Y-65025745D01*
X32744737Y-64456345D01*
X32740681Y-64452978D01*
X32594678Y-64326522D01*
X38217273Y-64326522D01*
X38264764Y-64503761D01*
X38268510Y-64514053D01*
X38360586Y-64711511D01*
X38366069Y-64721007D01*
X38491028Y-64899467D01*
X38498084Y-64907875D01*
X38652125Y-65061916D01*
X38660533Y-65068972D01*
X38838993Y-65193931D01*
X38848489Y-65199414D01*
X39045947Y-65291490D01*
X39056239Y-65295236D01*
X39228503Y-65341394D01*
X39242599Y-65341058D01*
X39246000Y-65333116D01*
X39246000Y-65327967D01*
X39754000Y-65327967D01*
X39757973Y-65341498D01*
X39766522Y-65342727D01*
X39943761Y-65295236D01*
X39954053Y-65291490D01*
X40151511Y-65199414D01*
X40161007Y-65193931D01*
X40339467Y-65068972D01*
X40347875Y-65061916D01*
X40501916Y-64907875D01*
X40508972Y-64899467D01*
X40633931Y-64721007D01*
X40639414Y-64711511D01*
X40731490Y-64514053D01*
X40735236Y-64503761D01*
X40781394Y-64331497D01*
X40781058Y-64317401D01*
X40773116Y-64314000D01*
X39772115Y-64314000D01*
X39756876Y-64318475D01*
X39755671Y-64319865D01*
X39754000Y-64327548D01*
X39754000Y-65327967D01*
X39246000Y-65327967D01*
X39246000Y-64332115D01*
X39241525Y-64316876D01*
X39240135Y-64315671D01*
X39232452Y-64314000D01*
X38232033Y-64314000D01*
X38218502Y-64317973D01*
X38217273Y-64326522D01*
X32594678Y-64326522D01*
X32130898Y-63924835D01*
X32049270Y-63854136D01*
X32045361Y-63850604D01*
X31991793Y-63800135D01*
X31979447Y-63788503D01*
X38218606Y-63788503D01*
X38218942Y-63802599D01*
X38226884Y-63806000D01*
X39227885Y-63806000D01*
X39243124Y-63801525D01*
X39244329Y-63800135D01*
X39246000Y-63792452D01*
X39246000Y-63787885D01*
X39754000Y-63787885D01*
X39758475Y-63803124D01*
X39759865Y-63804329D01*
X39767548Y-63806000D01*
X40767967Y-63806000D01*
X40781498Y-63802027D01*
X40782727Y-63793478D01*
X40735236Y-63616239D01*
X40731490Y-63605947D01*
X40639414Y-63408489D01*
X40633931Y-63398993D01*
X40508972Y-63220533D01*
X40501916Y-63212125D01*
X40347875Y-63058084D01*
X40339467Y-63051028D01*
X40161007Y-62926069D01*
X40151511Y-62920586D01*
X39954053Y-62828510D01*
X39943761Y-62824764D01*
X39771497Y-62778606D01*
X39757401Y-62778942D01*
X39754000Y-62786884D01*
X39754000Y-63787885D01*
X39246000Y-63787885D01*
X39246000Y-62792033D01*
X39242027Y-62778502D01*
X39233478Y-62777273D01*
X39056239Y-62824764D01*
X39045947Y-62828510D01*
X38848489Y-62920586D01*
X38838993Y-62926069D01*
X38660533Y-63051028D01*
X38652125Y-63058084D01*
X38498084Y-63212125D01*
X38491028Y-63220533D01*
X38366069Y-63398993D01*
X38360586Y-63408489D01*
X38268510Y-63605947D01*
X38264764Y-63616239D01*
X38218606Y-63788503D01*
X31979447Y-63788503D01*
X31379601Y-63223366D01*
X31375841Y-63219672D01*
X31027299Y-62862623D01*
X30736896Y-62565133D01*
X30733297Y-62561288D01*
X30685626Y-62508180D01*
X30122282Y-61880590D01*
X30118877Y-61876634D01*
X29717945Y-61390522D01*
X29536865Y-61170971D01*
X29533597Y-61166836D01*
X28981611Y-60437452D01*
X28978522Y-60433187D01*
X28975998Y-60429545D01*
X28953635Y-60362162D01*
X28971253Y-60293386D01*
X29023257Y-60245053D01*
X29093137Y-60232508D01*
X29107260Y-60234857D01*
X29244187Y-60265715D01*
X29250912Y-60266853D01*
X29600143Y-60306643D01*
X29606933Y-60307046D01*
X29958419Y-60308886D01*
X29965220Y-60308554D01*
X30314853Y-60272423D01*
X30321581Y-60271357D01*
X30665274Y-60197676D01*
X30671822Y-60195897D01*
X31005549Y-60085527D01*
X31011891Y-60083041D01*
X31331718Y-59937288D01*
X31337777Y-59934121D01*
X31639995Y-59754676D01*
X31645659Y-59750884D01*
X31926732Y-59539849D01*
X31931958Y-59535464D01*
X31941613Y-59526428D01*
X31949682Y-59512750D01*
X31949654Y-59512024D01*
X31944512Y-59503723D01*
X29812810Y-57372020D01*
X29798869Y-57364408D01*
X29797034Y-57364539D01*
X29790420Y-57368790D01*
X28408413Y-58750797D01*
X28346101Y-58784823D01*
X28275286Y-58779758D01*
X28230223Y-58750797D01*
X28049203Y-58569777D01*
X28015177Y-58507465D01*
X28020242Y-58436650D01*
X28049203Y-58391587D01*
X29427978Y-57012812D01*
X29434356Y-57001131D01*
X30164408Y-57001131D01*
X30164539Y-57002966D01*
X30168790Y-57009580D01*
X32299009Y-59139798D01*
X32312605Y-59147223D01*
X32322218Y-59140522D01*
X32422518Y-59023912D01*
X32426676Y-59018514D01*
X32625762Y-58728840D01*
X32629310Y-58723029D01*
X32795942Y-58413559D01*
X32798849Y-58407381D01*
X32931090Y-58081713D01*
X32933304Y-58075283D01*
X33029598Y-57737237D01*
X33031105Y-57730607D01*
X33090332Y-57384118D01*
X33091112Y-57377378D01*
X33112668Y-57024925D01*
X33112784Y-57021323D01*
X33112853Y-57001819D01*
X33112761Y-56998194D01*
X33093666Y-56645615D01*
X33092931Y-56638849D01*
X33036130Y-56291985D01*
X33034663Y-56285313D01*
X32940736Y-55946627D01*
X32938562Y-55940163D01*
X32808598Y-55613578D01*
X32805742Y-55607398D01*
X32641269Y-55296763D01*
X32637769Y-55290937D01*
X32440697Y-54999862D01*
X32436590Y-54994453D01*
X32323565Y-54861179D01*
X32310740Y-54852743D01*
X32300416Y-54858795D01*
X30172020Y-56987190D01*
X30164408Y-57001131D01*
X29434356Y-57001131D01*
X29435592Y-56998868D01*
X29435461Y-56997035D01*
X29431210Y-56990420D01*
X27300992Y-54860203D01*
X27287455Y-54852811D01*
X27277753Y-54859599D01*
X27170430Y-54985257D01*
X27166296Y-54990664D01*
X26968215Y-55281041D01*
X26964697Y-55286851D01*
X26799134Y-55596922D01*
X26796259Y-55603087D01*
X26683404Y-55883820D01*
X26639437Y-55939564D01*
X26572312Y-55962689D01*
X26503341Y-55945852D01*
X26454421Y-55894399D01*
X26450287Y-55885518D01*
X26334735Y-55609753D01*
X26332808Y-55604870D01*
X26332362Y-55603665D01*
X26014902Y-54747191D01*
X26013175Y-54742213D01*
X25930499Y-54486862D01*
X27649950Y-54486862D01*
X27649986Y-54487704D01*
X27655037Y-54495826D01*
X29787190Y-56627980D01*
X29801131Y-56635592D01*
X29802966Y-56635461D01*
X29809580Y-56631210D01*
X30697433Y-55743357D01*
X31942798Y-54497991D01*
X31950412Y-54484047D01*
X31950344Y-54483090D01*
X31945834Y-54476271D01*
X31944418Y-54475065D01*
X31664813Y-54262064D01*
X31659187Y-54258240D01*
X31358214Y-54076681D01*
X31352202Y-54073484D01*
X31033370Y-53925487D01*
X31027070Y-53922967D01*
X30694129Y-53810273D01*
X30687551Y-53808437D01*
X30344417Y-53732367D01*
X30337678Y-53731251D01*
X29988310Y-53692680D01*
X29981529Y-53692301D01*
X29630015Y-53691687D01*
X29623242Y-53692042D01*
X29273720Y-53729395D01*
X29267010Y-53730482D01*
X28923586Y-53805361D01*
X28917011Y-53807172D01*
X28583683Y-53918702D01*
X28577361Y-53921205D01*
X28258034Y-54068079D01*
X28251991Y-54071265D01*
X27950401Y-54251763D01*
X27944755Y-54255571D01*
X27664408Y-54467596D01*
X27659211Y-54471987D01*
X27657972Y-54473155D01*
X27649950Y-54486862D01*
X25930499Y-54486862D01*
X25731429Y-53872016D01*
X25729910Y-53866968D01*
X25547632Y-53211621D01*
X25484795Y-52985698D01*
X25483494Y-52980612D01*
X25464130Y-52897699D01*
X25275455Y-52089871D01*
X25274368Y-52084731D01*
X25273201Y-52078580D01*
X25152342Y-51441939D01*
X25103775Y-51186106D01*
X25102900Y-51180908D01*
X25002937Y-50500000D01*
X25786835Y-50500000D01*
X25805465Y-50736711D01*
X25806619Y-50741518D01*
X25806620Y-50741524D01*
X25831294Y-50844297D01*
X25860895Y-50967594D01*
X25862788Y-50972165D01*
X25862789Y-50972167D01*
X25948702Y-51179580D01*
X25951760Y-51186963D01*
X25954346Y-51191183D01*
X26073241Y-51385202D01*
X26073245Y-51385208D01*
X26075824Y-51389416D01*
X26230031Y-51569969D01*
X26410584Y-51724176D01*
X26414792Y-51726755D01*
X26414798Y-51726759D01*
X26608817Y-51845654D01*
X26613037Y-51848240D01*
X26617607Y-51850133D01*
X26617611Y-51850135D01*
X26807720Y-51928880D01*
X26832406Y-51939105D01*
X26850713Y-51943500D01*
X27058476Y-51993380D01*
X27058482Y-51993381D01*
X27063289Y-51994535D01*
X27300000Y-52013165D01*
X27536711Y-51994535D01*
X27541518Y-51993381D01*
X27541524Y-51993380D01*
X27749287Y-51943500D01*
X27767594Y-51939105D01*
X27792280Y-51928880D01*
X27982389Y-51850135D01*
X27982393Y-51850133D01*
X27986963Y-51848240D01*
X27991183Y-51845654D01*
X28185202Y-51726759D01*
X28185208Y-51726755D01*
X28189416Y-51724176D01*
X28369969Y-51569969D01*
X28524176Y-51389416D01*
X28526755Y-51385208D01*
X28526759Y-51385202D01*
X28645654Y-51191183D01*
X28648240Y-51186963D01*
X28651299Y-51179580D01*
X28737211Y-50972167D01*
X28737212Y-50972165D01*
X28739105Y-50967594D01*
X28768706Y-50844297D01*
X28793380Y-50741524D01*
X28793381Y-50741518D01*
X28794535Y-50736711D01*
X28813165Y-50500000D01*
X28794535Y-50263289D01*
X28769645Y-50159612D01*
X28747323Y-50066638D01*
X28739105Y-50032406D01*
X28734852Y-50022138D01*
X28650135Y-49817611D01*
X28650133Y-49817607D01*
X28648240Y-49813037D01*
X28607547Y-49746632D01*
X28526759Y-49614798D01*
X28526755Y-49614792D01*
X28524176Y-49610584D01*
X28369969Y-49430031D01*
X28189416Y-49275824D01*
X28185208Y-49273245D01*
X28185202Y-49273241D01*
X27991183Y-49154346D01*
X27986963Y-49151760D01*
X27982393Y-49149867D01*
X27982389Y-49149865D01*
X27772167Y-49062789D01*
X27772165Y-49062788D01*
X27767594Y-49060895D01*
X27660021Y-49035069D01*
X27541524Y-49006620D01*
X27541518Y-49006619D01*
X27536711Y-49005465D01*
X27300000Y-48986835D01*
X27063289Y-49005465D01*
X27058482Y-49006619D01*
X27058476Y-49006620D01*
X26939979Y-49035069D01*
X26832406Y-49060895D01*
X26827835Y-49062788D01*
X26827833Y-49062789D01*
X26617611Y-49149865D01*
X26617607Y-49149867D01*
X26613037Y-49151760D01*
X26608817Y-49154346D01*
X26414798Y-49273241D01*
X26414792Y-49273245D01*
X26410584Y-49275824D01*
X26230031Y-49430031D01*
X26075824Y-49610584D01*
X26073245Y-49614792D01*
X26073241Y-49614798D01*
X25992453Y-49746632D01*
X25951760Y-49813037D01*
X25949867Y-49817607D01*
X25949865Y-49817611D01*
X25865148Y-50022138D01*
X25860895Y-50032406D01*
X25852677Y-50066638D01*
X25830356Y-50159612D01*
X25805465Y-50263289D01*
X25786835Y-50500000D01*
X25002937Y-50500000D01*
X24970037Y-50275899D01*
X24969381Y-50270669D01*
X24889965Y-49509292D01*
X24874488Y-49360913D01*
X24874052Y-49355667D01*
X24872586Y-49332077D01*
X24853432Y-49024000D01*
X24817295Y-48442745D01*
X24817078Y-48437479D01*
X24804204Y-47801906D01*
X24799506Y-47569973D01*
X24801226Y-47546523D01*
X24803576Y-47532552D01*
X24803645Y-47526886D01*
X24803687Y-47526618D01*
X24803652Y-47526346D01*
X24803729Y-47520000D01*
X24803040Y-47515186D01*
X24803039Y-47515177D01*
X24800626Y-47498330D01*
X24799381Y-47477833D01*
X24800242Y-47436669D01*
X24809845Y-46977137D01*
X24817646Y-46603891D01*
X24817865Y-46598631D01*
X24875105Y-45686694D01*
X24875545Y-45681447D01*
X24927353Y-45187360D01*
X24970830Y-44772729D01*
X24971485Y-44767526D01*
X24973205Y-44755856D01*
X25084556Y-44000000D01*
X25786835Y-44000000D01*
X25805465Y-44236711D01*
X25806619Y-44241518D01*
X25806620Y-44241524D01*
X25827036Y-44326562D01*
X25860895Y-44467594D01*
X25862788Y-44472165D01*
X25862789Y-44472167D01*
X25943591Y-44667240D01*
X25951760Y-44686963D01*
X25954346Y-44691183D01*
X26073241Y-44885202D01*
X26073245Y-44885208D01*
X26075824Y-44889416D01*
X26230031Y-45069969D01*
X26410584Y-45224176D01*
X26414792Y-45226755D01*
X26414798Y-45226759D01*
X26582280Y-45329392D01*
X26613037Y-45348240D01*
X26617607Y-45350133D01*
X26617611Y-45350135D01*
X26804618Y-45427595D01*
X26832406Y-45439105D01*
X26873747Y-45449030D01*
X27058476Y-45493380D01*
X27058482Y-45493381D01*
X27063289Y-45494535D01*
X27300000Y-45513165D01*
X27536711Y-45494535D01*
X27541518Y-45493381D01*
X27541524Y-45493380D01*
X27726253Y-45449030D01*
X27767594Y-45439105D01*
X27795382Y-45427595D01*
X27982389Y-45350135D01*
X27982393Y-45350133D01*
X27986963Y-45348240D01*
X28017720Y-45329392D01*
X28185202Y-45226759D01*
X28185208Y-45226755D01*
X28189416Y-45224176D01*
X28369969Y-45069969D01*
X28524176Y-44889416D01*
X28526755Y-44885208D01*
X28526759Y-44885202D01*
X28645654Y-44691183D01*
X28648240Y-44686963D01*
X28656410Y-44667240D01*
X28737211Y-44472167D01*
X28737212Y-44472165D01*
X28739105Y-44467594D01*
X28772964Y-44326562D01*
X28793380Y-44241524D01*
X28793381Y-44241518D01*
X28794535Y-44236711D01*
X28813165Y-44000000D01*
X28794535Y-43763289D01*
X28792123Y-43753240D01*
X28743329Y-43550000D01*
X28739105Y-43532406D01*
X28734733Y-43521851D01*
X28650135Y-43317611D01*
X28650133Y-43317607D01*
X28648240Y-43313037D01*
X28610041Y-43250702D01*
X28526759Y-43114798D01*
X28526755Y-43114792D01*
X28524176Y-43110584D01*
X28369969Y-42930031D01*
X28189416Y-42775824D01*
X28185208Y-42773245D01*
X28185202Y-42773241D01*
X27991183Y-42654346D01*
X27986963Y-42651760D01*
X27982393Y-42649867D01*
X27982389Y-42649865D01*
X27772167Y-42562789D01*
X27772165Y-42562788D01*
X27767594Y-42560895D01*
X27668797Y-42537176D01*
X27541524Y-42506620D01*
X27541518Y-42506619D01*
X27536711Y-42505465D01*
X27300000Y-42486835D01*
X27063289Y-42505465D01*
X27058482Y-42506619D01*
X27058476Y-42506620D01*
X26931203Y-42537176D01*
X26832406Y-42560895D01*
X26827835Y-42562788D01*
X26827833Y-42562789D01*
X26617611Y-42649865D01*
X26617607Y-42649867D01*
X26613037Y-42651760D01*
X26608817Y-42654346D01*
X26414798Y-42773241D01*
X26414792Y-42773245D01*
X26410584Y-42775824D01*
X26230031Y-42930031D01*
X26075824Y-43110584D01*
X26073245Y-43114792D01*
X26073241Y-43114798D01*
X25989959Y-43250702D01*
X25951760Y-43313037D01*
X25949867Y-43317607D01*
X25949865Y-43317611D01*
X25865267Y-43521851D01*
X25860895Y-43532406D01*
X25856671Y-43550000D01*
X25807878Y-43753240D01*
X25805465Y-43763289D01*
X25786835Y-44000000D01*
X25084556Y-44000000D01*
X25104654Y-43863577D01*
X25105530Y-43858385D01*
X25276350Y-42960772D01*
X25277443Y-42955622D01*
X25283431Y-42930031D01*
X25485604Y-42065975D01*
X25486907Y-42060886D01*
X25490459Y-42048134D01*
X25732067Y-41180671D01*
X25733581Y-41175642D01*
X25740702Y-41153673D01*
X25918759Y-40604300D01*
X25947255Y-40516381D01*
X27649160Y-40516381D01*
X27649237Y-40517470D01*
X27651698Y-40521206D01*
X27925632Y-40731404D01*
X27931262Y-40735259D01*
X28231591Y-40917862D01*
X28237593Y-40921080D01*
X28555897Y-41070184D01*
X28562202Y-41072732D01*
X28894743Y-41186587D01*
X28901313Y-41188446D01*
X29244183Y-41265714D01*
X29250912Y-41266853D01*
X29600143Y-41306643D01*
X29606933Y-41307046D01*
X29958419Y-41308886D01*
X29965220Y-41308554D01*
X30314853Y-41272423D01*
X30321581Y-41271357D01*
X30665274Y-41197676D01*
X30671822Y-41195897D01*
X31005549Y-41085527D01*
X31011891Y-41083041D01*
X31331718Y-40937288D01*
X31337777Y-40934121D01*
X31639995Y-40754676D01*
X31645659Y-40750884D01*
X31926732Y-40539849D01*
X31931958Y-40535464D01*
X31941613Y-40526428D01*
X31949682Y-40512750D01*
X31949654Y-40512024D01*
X31944512Y-40503723D01*
X29812810Y-38372020D01*
X29798869Y-38364408D01*
X29797034Y-38364539D01*
X29790420Y-38368790D01*
X27656774Y-40502437D01*
X27649160Y-40516381D01*
X25947255Y-40516381D01*
X26015297Y-40306447D01*
X26017025Y-40301473D01*
X26334802Y-39444818D01*
X26336736Y-39439921D01*
X26366549Y-39368816D01*
X26461833Y-39141554D01*
X26506619Y-39086465D01*
X26574079Y-39064335D01*
X26642793Y-39082189D01*
X26690947Y-39134359D01*
X26695266Y-39144094D01*
X26786581Y-39375912D01*
X26789412Y-39382095D01*
X26952803Y-39693310D01*
X26956286Y-39699152D01*
X27152330Y-39990896D01*
X27156433Y-39996340D01*
X27276425Y-40138836D01*
X27289164Y-40147279D01*
X27299608Y-40141181D01*
X29427980Y-38012810D01*
X29434357Y-38001131D01*
X30164408Y-38001131D01*
X30164539Y-38002966D01*
X30168790Y-38009580D01*
X32299009Y-40139798D01*
X32312605Y-40147223D01*
X32322218Y-40140522D01*
X32422518Y-40023912D01*
X32426676Y-40018514D01*
X32625762Y-39728840D01*
X32629310Y-39723029D01*
X32795942Y-39413559D01*
X32798849Y-39407381D01*
X32931090Y-39081713D01*
X32933304Y-39075283D01*
X33029598Y-38737237D01*
X33031105Y-38730607D01*
X33090332Y-38384118D01*
X33091112Y-38377378D01*
X33112668Y-38024925D01*
X33112784Y-38021323D01*
X33112853Y-38001819D01*
X33112761Y-37998194D01*
X33093666Y-37645615D01*
X33092931Y-37638849D01*
X33036130Y-37291985D01*
X33034663Y-37285313D01*
X32940736Y-36946627D01*
X32938562Y-36940163D01*
X32808598Y-36613578D01*
X32805742Y-36607398D01*
X32641269Y-36296763D01*
X32637769Y-36290937D01*
X32440697Y-35999862D01*
X32436590Y-35994453D01*
X32323565Y-35861179D01*
X32310740Y-35852743D01*
X32300416Y-35858795D01*
X30172020Y-37987190D01*
X30164408Y-38001131D01*
X29434357Y-38001131D01*
X29435592Y-37998869D01*
X29435461Y-37997034D01*
X29431210Y-37990420D01*
X28049203Y-36608413D01*
X28015177Y-36546101D01*
X28020242Y-36475286D01*
X28049203Y-36430223D01*
X28230223Y-36249203D01*
X28292535Y-36215177D01*
X28363350Y-36220242D01*
X28408413Y-36249203D01*
X29787188Y-37627978D01*
X29801132Y-37635592D01*
X29802965Y-37635461D01*
X29809580Y-37631210D01*
X31942798Y-35497991D01*
X31950412Y-35484047D01*
X31950344Y-35483089D01*
X31945836Y-35476272D01*
X31944418Y-35475065D01*
X31664813Y-35262064D01*
X31659187Y-35258240D01*
X31358214Y-35076681D01*
X31352202Y-35073484D01*
X31033370Y-34925487D01*
X31027070Y-34922967D01*
X30694129Y-34810273D01*
X30687551Y-34808437D01*
X30344417Y-34732367D01*
X30337678Y-34731251D01*
X29988310Y-34692680D01*
X29981529Y-34692301D01*
X29630015Y-34691687D01*
X29623242Y-34692042D01*
X29273720Y-34729395D01*
X29267011Y-34730482D01*
X29155424Y-34754812D01*
X29084606Y-34749781D01*
X29027750Y-34707261D01*
X29002907Y-34640753D01*
X29017966Y-34571371D01*
X29028104Y-34555676D01*
X29532510Y-33889053D01*
X29535774Y-33884922D01*
X30117057Y-33179964D01*
X30120491Y-33175973D01*
X30730695Y-32495941D01*
X30734292Y-32492096D01*
X31372403Y-31838120D01*
X31376158Y-31834429D01*
X32041037Y-31207681D01*
X32044943Y-31204151D01*
X32715289Y-30623179D01*
X32735410Y-30605741D01*
X32739426Y-30602404D01*
X33454340Y-30033323D01*
X33458491Y-30030159D01*
X34196518Y-29491471D01*
X34200835Y-29488456D01*
X34823438Y-29072738D01*
X34895153Y-29024853D01*
X42219977Y-29024853D01*
X42225258Y-29031907D01*
X42386756Y-29126279D01*
X42396042Y-29130729D01*
X42595001Y-29206703D01*
X42604899Y-29209579D01*
X42813595Y-29252038D01*
X42823823Y-29253257D01*
X43036650Y-29261062D01*
X43046936Y-29260595D01*
X43258185Y-29233534D01*
X43268262Y-29231392D01*
X43472255Y-29170191D01*
X43481842Y-29166433D01*
X43673098Y-29072738D01*
X43681944Y-29067465D01*
X43729247Y-29033723D01*
X43737648Y-29023023D01*
X43730660Y-29009870D01*
X42992812Y-28272022D01*
X42978868Y-28264408D01*
X42977035Y-28264539D01*
X42970420Y-28268790D01*
X42226737Y-29012473D01*
X42219977Y-29024853D01*
X34895153Y-29024853D01*
X34960736Y-28981063D01*
X34965122Y-28978265D01*
X35745587Y-28503044D01*
X35750109Y-28500419D01*
X36549705Y-28058243D01*
X36554365Y-28055792D01*
X36922493Y-27871863D01*
X41618050Y-27871863D01*
X41630309Y-28084477D01*
X41631745Y-28094697D01*
X41678565Y-28302446D01*
X41681645Y-28312275D01*
X41761770Y-28509603D01*
X41766413Y-28518794D01*
X41846460Y-28649420D01*
X41856916Y-28658880D01*
X41865694Y-28655096D01*
X42607978Y-27912812D01*
X42615592Y-27898868D01*
X42615461Y-27897035D01*
X42611210Y-27890420D01*
X41869849Y-27149059D01*
X41858313Y-27142759D01*
X41846031Y-27152382D01*
X41798089Y-27222662D01*
X41793004Y-27231613D01*
X41703338Y-27424783D01*
X41699775Y-27434470D01*
X41642864Y-27639681D01*
X41640933Y-27649800D01*
X41618302Y-27861574D01*
X41618050Y-27871863D01*
X36922493Y-27871863D01*
X37311782Y-27677361D01*
X37371707Y-27647421D01*
X37376460Y-27645168D01*
X37377794Y-27644570D01*
X38210202Y-27271278D01*
X38215047Y-27269227D01*
X38309283Y-27231613D01*
X38533805Y-27141995D01*
X39063602Y-26930527D01*
X39068531Y-26928677D01*
X39501714Y-26776427D01*
X42221223Y-26776427D01*
X42227968Y-26788758D01*
X42967188Y-27527978D01*
X42981132Y-27535592D01*
X42982965Y-27535461D01*
X42989580Y-27531210D01*
X43733389Y-26787401D01*
X43740410Y-26774544D01*
X43733611Y-26765213D01*
X43729554Y-26762518D01*
X43543117Y-26659599D01*
X43533705Y-26655369D01*
X43332959Y-26584280D01*
X43322989Y-26581646D01*
X43113327Y-26544301D01*
X43103073Y-26543331D01*
X42890116Y-26540728D01*
X42879832Y-26541448D01*
X42669321Y-26573661D01*
X42659293Y-26576050D01*
X42456868Y-26642212D01*
X42447359Y-26646209D01*
X42258466Y-26744540D01*
X42249734Y-26750039D01*
X42229677Y-26765099D01*
X42221223Y-26776427D01*
X39501714Y-26776427D01*
X39847449Y-26654912D01*
X39930580Y-26625694D01*
X39935580Y-26624054D01*
X40809457Y-26357374D01*
X40814524Y-26355942D01*
X41347585Y-26217327D01*
X41698848Y-26125986D01*
X41703946Y-26124774D01*
X42597091Y-25931967D01*
X42602246Y-25930966D01*
X43111904Y-25843049D01*
X43502633Y-25775648D01*
X43507839Y-25774861D01*
X44413962Y-25657290D01*
X44419196Y-25656722D01*
X44477345Y-25651636D01*
X45329433Y-25577110D01*
X45334651Y-25576763D01*
X46247444Y-25535249D01*
X46252676Y-25535120D01*
X46679311Y-25533559D01*
X47166383Y-25531776D01*
X47171647Y-25531867D01*
G37*
%TD.AperFunction*%
%TA.AperFunction,Conductor*%
G36*
X84567496Y-33028502D02*
G01*
X84613989Y-33082158D01*
X84624093Y-33152432D01*
X84617357Y-33178728D01*
X84598255Y-33229684D01*
X84591500Y-33291866D01*
X84591500Y-34379157D01*
X84571498Y-34447278D01*
X84554595Y-34468252D01*
X83353252Y-35669595D01*
X83290940Y-35703621D01*
X83264157Y-35706500D01*
X83077986Y-35706500D01*
X83009865Y-35686498D01*
X82991653Y-35672275D01*
X82831610Y-35521722D01*
X82831608Y-35521720D01*
X82828209Y-35518523D01*
X82767304Y-35476272D01*
X82623393Y-35376437D01*
X82623390Y-35376435D01*
X82619561Y-35373779D01*
X82615384Y-35371719D01*
X82615377Y-35371715D01*
X82395996Y-35263528D01*
X82395992Y-35263527D01*
X82391810Y-35261464D01*
X82149960Y-35184047D01*
X82145355Y-35183297D01*
X81903935Y-35143980D01*
X81903934Y-35143980D01*
X81899323Y-35143229D01*
X81772365Y-35141567D01*
X81650083Y-35139966D01*
X81650080Y-35139966D01*
X81645406Y-35139905D01*
X81393787Y-35174149D01*
X81149993Y-35245208D01*
X80919380Y-35351522D01*
X80881378Y-35376437D01*
X80710928Y-35488189D01*
X80710923Y-35488193D01*
X80707015Y-35490755D01*
X80660360Y-35532396D01*
X80528242Y-35650316D01*
X80517562Y-35659848D01*
X80355183Y-35855087D01*
X80223447Y-36072182D01*
X80221638Y-36076496D01*
X80221637Y-36076498D01*
X80200196Y-36127629D01*
X80155407Y-36182715D01*
X80087946Y-36204841D01*
X80019233Y-36186983D01*
X79971081Y-36134810D01*
X79957999Y-36078903D01*
X79957999Y-35605331D01*
X79957629Y-35598510D01*
X79952105Y-35547648D01*
X79948479Y-35532396D01*
X79903324Y-35411946D01*
X79894786Y-35396351D01*
X79818285Y-35294276D01*
X79805724Y-35281715D01*
X79703649Y-35205214D01*
X79688054Y-35196676D01*
X79567606Y-35151522D01*
X79552351Y-35147895D01*
X79501486Y-35142369D01*
X79494672Y-35142000D01*
X78522115Y-35142000D01*
X78506876Y-35146475D01*
X78505671Y-35147865D01*
X78504000Y-35155548D01*
X78504000Y-38539884D01*
X78508475Y-38555123D01*
X78509865Y-38556328D01*
X78517548Y-38557999D01*
X79494669Y-38557999D01*
X79501490Y-38557629D01*
X79552352Y-38552105D01*
X79567604Y-38548479D01*
X79688054Y-38503324D01*
X79703649Y-38494786D01*
X79805724Y-38418285D01*
X79818285Y-38405724D01*
X79894786Y-38303649D01*
X79903324Y-38288054D01*
X79948478Y-38167606D01*
X79952105Y-38152351D01*
X79957631Y-38101486D01*
X79958000Y-38094672D01*
X79958000Y-37625406D01*
X79978002Y-37557285D01*
X80031658Y-37510792D01*
X80101932Y-37500688D01*
X80166512Y-37530182D01*
X80194991Y-37565767D01*
X80219691Y-37611735D01*
X80297929Y-37757344D01*
X80305025Y-37770551D01*
X80307820Y-37774294D01*
X80307822Y-37774297D01*
X80454171Y-37970282D01*
X80454176Y-37970288D01*
X80456963Y-37974020D01*
X80460272Y-37977300D01*
X80460277Y-37977306D01*
X80585546Y-38101486D01*
X80637307Y-38152797D01*
X80641069Y-38155555D01*
X80641072Y-38155558D01*
X80805918Y-38276428D01*
X80842094Y-38302953D01*
X80846229Y-38305129D01*
X80846233Y-38305131D01*
X80930356Y-38349390D01*
X81066827Y-38421191D01*
X81143548Y-38447983D01*
X81302021Y-38503324D01*
X81306568Y-38504912D01*
X81556050Y-38552278D01*
X81676532Y-38557011D01*
X81805125Y-38562064D01*
X81805130Y-38562064D01*
X81809793Y-38562247D01*
X81908774Y-38551407D01*
X82057569Y-38535112D01*
X82057575Y-38535111D01*
X82062222Y-38534602D01*
X82171680Y-38505784D01*
X82303273Y-38471138D01*
X82307793Y-38469948D01*
X82507570Y-38384118D01*
X82536807Y-38371557D01*
X82536810Y-38371555D01*
X82541110Y-38369708D01*
X82545090Y-38367245D01*
X82545094Y-38367243D01*
X82753064Y-38238547D01*
X82753066Y-38238545D01*
X82757047Y-38236082D01*
X82760624Y-38233054D01*
X82947289Y-38075031D01*
X82947291Y-38075029D01*
X82950862Y-38072006D01*
X82982067Y-38036423D01*
X83042020Y-37998395D01*
X83076799Y-37993500D01*
X83747195Y-37993500D01*
X83755436Y-37993770D01*
X83820061Y-37998006D01*
X83907973Y-37987601D01*
X83911186Y-37987264D01*
X83999279Y-37979169D01*
X84004839Y-37977601D01*
X84008412Y-37976939D01*
X84019415Y-37974750D01*
X84023028Y-37973982D01*
X84028765Y-37973303D01*
X84113276Y-37947062D01*
X84116373Y-37946146D01*
X84201549Y-37922123D01*
X84206737Y-37919565D01*
X84210188Y-37918240D01*
X84220566Y-37914099D01*
X84223953Y-37912696D01*
X84229473Y-37910982D01*
X84307746Y-37869801D01*
X84310682Y-37868305D01*
X84390037Y-37829171D01*
X84394668Y-37825713D01*
X84397871Y-37823750D01*
X84407258Y-37817827D01*
X84410351Y-37815818D01*
X84415463Y-37813129D01*
X84484956Y-37758344D01*
X84487526Y-37756373D01*
X84553801Y-37706884D01*
X84553808Y-37706877D01*
X84558429Y-37703427D01*
X84614263Y-37643026D01*
X84617692Y-37639461D01*
X86171748Y-36085405D01*
X86234060Y-36051379D01*
X86260843Y-36048500D01*
X87348134Y-36048500D01*
X87410316Y-36041745D01*
X87546705Y-35990615D01*
X87663261Y-35903261D01*
X87750615Y-35786705D01*
X87767437Y-35741832D01*
X88187333Y-35741832D01*
X88205117Y-36092893D01*
X88205827Y-36099649D01*
X88261420Y-36446723D01*
X88262859Y-36453378D01*
X88355608Y-36792410D01*
X88357757Y-36798871D01*
X88486581Y-37125912D01*
X88489412Y-37132095D01*
X88652803Y-37443310D01*
X88656286Y-37449152D01*
X88852330Y-37740896D01*
X88856433Y-37746340D01*
X88976425Y-37888836D01*
X88989164Y-37897279D01*
X88999608Y-37891181D01*
X91127980Y-35762810D01*
X91134357Y-35751131D01*
X91864408Y-35751131D01*
X91864539Y-35752966D01*
X91868790Y-35759580D01*
X93999009Y-37889798D01*
X94012605Y-37897223D01*
X94022218Y-37890522D01*
X94122518Y-37773912D01*
X94126676Y-37768514D01*
X94325762Y-37478840D01*
X94329310Y-37473029D01*
X94495942Y-37163559D01*
X94498849Y-37157381D01*
X94631090Y-36831713D01*
X94633304Y-36825283D01*
X94729598Y-36487237D01*
X94731105Y-36480607D01*
X94790332Y-36134118D01*
X94791112Y-36127378D01*
X94812668Y-35774925D01*
X94812784Y-35771323D01*
X94812853Y-35751819D01*
X94812761Y-35748194D01*
X94812416Y-35741832D01*
X124687333Y-35741832D01*
X124705117Y-36092893D01*
X124705827Y-36099649D01*
X124761420Y-36446723D01*
X124762859Y-36453378D01*
X124855608Y-36792410D01*
X124857757Y-36798871D01*
X124986581Y-37125912D01*
X124989412Y-37132095D01*
X125152803Y-37443310D01*
X125156286Y-37449152D01*
X125352330Y-37740896D01*
X125356433Y-37746340D01*
X125476425Y-37888836D01*
X125489164Y-37897279D01*
X125499608Y-37891181D01*
X127627980Y-35762810D01*
X127635592Y-35748869D01*
X127635461Y-35747034D01*
X127631210Y-35740420D01*
X125500992Y-33610203D01*
X125487455Y-33602811D01*
X125477753Y-33609599D01*
X125370430Y-33735257D01*
X125366296Y-33740664D01*
X125168215Y-34031041D01*
X125164697Y-34036851D01*
X124999134Y-34346922D01*
X124996259Y-34353087D01*
X124865155Y-34679218D01*
X124862962Y-34685658D01*
X124767846Y-35024044D01*
X124766363Y-35030679D01*
X124708350Y-35377354D01*
X124707591Y-35384126D01*
X124687357Y-35735037D01*
X124687333Y-35741832D01*
X94812416Y-35741832D01*
X94793666Y-35395615D01*
X94792931Y-35388849D01*
X94736130Y-35041985D01*
X94734663Y-35035313D01*
X94640736Y-34696627D01*
X94638562Y-34690163D01*
X94508598Y-34363578D01*
X94505742Y-34357398D01*
X94341269Y-34046763D01*
X94337769Y-34040937D01*
X94140697Y-33749862D01*
X94136590Y-33744453D01*
X94023565Y-33611179D01*
X94010740Y-33602743D01*
X94000416Y-33608795D01*
X91872020Y-35737190D01*
X91864408Y-35751131D01*
X91134357Y-35751131D01*
X91135592Y-35748869D01*
X91135461Y-35747034D01*
X91131210Y-35740420D01*
X89000992Y-33610203D01*
X88987455Y-33602811D01*
X88977753Y-33609599D01*
X88870430Y-33735257D01*
X88866296Y-33740664D01*
X88668215Y-34031041D01*
X88664697Y-34036851D01*
X88499134Y-34346922D01*
X88496259Y-34353087D01*
X88365155Y-34679218D01*
X88362962Y-34685658D01*
X88267846Y-35024044D01*
X88266363Y-35030679D01*
X88208350Y-35377354D01*
X88207591Y-35384126D01*
X88187357Y-35735037D01*
X88187333Y-35741832D01*
X87767437Y-35741832D01*
X87801745Y-35650316D01*
X87808500Y-35588134D01*
X87808500Y-33291866D01*
X87801745Y-33229684D01*
X87782643Y-33178729D01*
X87777460Y-33107923D01*
X87811381Y-33045554D01*
X87873636Y-33011424D01*
X87900625Y-33008500D01*
X89268328Y-33008500D01*
X89336449Y-33028502D01*
X89382942Y-33082158D01*
X89393046Y-33152432D01*
X89363552Y-33217012D01*
X89358459Y-33222322D01*
X89349950Y-33236862D01*
X89349986Y-33237704D01*
X89355037Y-33245826D01*
X90598969Y-34489759D01*
X91487190Y-35377980D01*
X91501131Y-35385592D01*
X91502966Y-35385461D01*
X91509580Y-35381210D01*
X93642798Y-33247991D01*
X93650412Y-33234047D01*
X93650344Y-33233089D01*
X93637249Y-33213287D01*
X93638820Y-33212248D01*
X93611840Y-33171086D01*
X93611201Y-33100092D01*
X93649045Y-33040022D01*
X93713358Y-33009949D01*
X93732412Y-33008500D01*
X125768328Y-33008500D01*
X125836449Y-33028502D01*
X125882942Y-33082158D01*
X125893046Y-33152432D01*
X125863552Y-33217012D01*
X125858459Y-33222322D01*
X125849950Y-33236862D01*
X125849986Y-33237704D01*
X125855037Y-33245826D01*
X127987190Y-35377980D01*
X128001131Y-35385592D01*
X128002966Y-35385461D01*
X128009580Y-35381210D01*
X128901031Y-34489759D01*
X130142798Y-33247991D01*
X130150412Y-33234047D01*
X130150344Y-33233090D01*
X130137248Y-33213286D01*
X130138819Y-33212247D01*
X130111840Y-33171086D01*
X130111201Y-33100092D01*
X130149045Y-33040022D01*
X130213358Y-33009949D01*
X130232412Y-33008500D01*
X130865500Y-33008500D01*
X130933621Y-33028502D01*
X130980114Y-33082158D01*
X130991500Y-33134500D01*
X130991500Y-33857151D01*
X130971498Y-33925272D01*
X130917842Y-33971765D01*
X130847568Y-33981869D01*
X130782988Y-33952375D01*
X130761164Y-33927792D01*
X130640697Y-33749862D01*
X130636590Y-33744453D01*
X130523565Y-33611179D01*
X130510740Y-33602743D01*
X130500416Y-33608795D01*
X128372020Y-35737190D01*
X128364408Y-35751131D01*
X128364539Y-35752966D01*
X128368790Y-35759580D01*
X130499009Y-37889798D01*
X130512605Y-37897223D01*
X130522218Y-37890522D01*
X130622518Y-37773912D01*
X130626676Y-37768514D01*
X130761660Y-37572110D01*
X130816728Y-37527299D01*
X130887281Y-37519374D01*
X130950919Y-37550850D01*
X130987436Y-37611735D01*
X130991500Y-37643477D01*
X130991500Y-57357151D01*
X130971498Y-57425272D01*
X130917842Y-57471765D01*
X130847568Y-57481869D01*
X130782988Y-57452375D01*
X130761164Y-57427792D01*
X130640697Y-57249862D01*
X130636590Y-57244453D01*
X130523565Y-57111179D01*
X130510740Y-57102743D01*
X130500416Y-57108795D01*
X128372020Y-59237190D01*
X128364408Y-59251131D01*
X128364539Y-59252966D01*
X128368790Y-59259580D01*
X130499009Y-61389798D01*
X130512605Y-61397223D01*
X130522218Y-61390522D01*
X130622518Y-61273912D01*
X130626676Y-61268514D01*
X130761660Y-61072110D01*
X130816728Y-61027299D01*
X130887281Y-61019374D01*
X130950919Y-61050850D01*
X130987436Y-61111735D01*
X130991500Y-61143477D01*
X130991500Y-61865500D01*
X130971498Y-61933621D01*
X130917842Y-61980114D01*
X130865500Y-61991500D01*
X130230836Y-61991500D01*
X130162715Y-61971498D01*
X130116222Y-61917842D01*
X130106118Y-61847568D01*
X130135612Y-61782988D01*
X130141121Y-61777264D01*
X130149682Y-61762750D01*
X130149654Y-61762024D01*
X130144512Y-61753723D01*
X128012810Y-59622020D01*
X127998869Y-59614408D01*
X127997034Y-59614539D01*
X127990420Y-59618790D01*
X125856774Y-61752437D01*
X125849160Y-61766381D01*
X125849237Y-61767470D01*
X125862102Y-61787007D01*
X125860677Y-61787945D01*
X125886202Y-61822944D01*
X125890383Y-61893817D01*
X125855583Y-61955700D01*
X125792851Y-61988945D01*
X125767606Y-61991500D01*
X93730836Y-61991500D01*
X93662715Y-61971498D01*
X93616222Y-61917842D01*
X93606118Y-61847568D01*
X93635612Y-61782988D01*
X93641121Y-61777264D01*
X93649682Y-61762750D01*
X93649654Y-61762024D01*
X93644512Y-61753723D01*
X91512810Y-59622020D01*
X91498869Y-59614408D01*
X91497034Y-59614539D01*
X91490420Y-59618790D01*
X89356774Y-61752437D01*
X89349160Y-61766381D01*
X89349237Y-61767470D01*
X89362102Y-61787007D01*
X89360677Y-61787945D01*
X89386202Y-61822944D01*
X89390383Y-61893817D01*
X89355583Y-61955700D01*
X89292851Y-61988945D01*
X89267606Y-61991500D01*
X72134500Y-61991500D01*
X72066379Y-61971498D01*
X72019886Y-61917842D01*
X72008500Y-61865500D01*
X72008500Y-57267966D01*
X78338257Y-57267966D01*
X78368565Y-57402446D01*
X78371645Y-57412275D01*
X78451770Y-57609603D01*
X78456413Y-57618794D01*
X78567694Y-57800388D01*
X78573777Y-57808699D01*
X78713213Y-57969667D01*
X78720580Y-57976883D01*
X78884434Y-58112916D01*
X78892881Y-58118831D01*
X79076756Y-58226279D01*
X79086042Y-58230729D01*
X79285001Y-58306703D01*
X79294899Y-58309579D01*
X79398250Y-58330606D01*
X79412299Y-58329410D01*
X79416000Y-58319065D01*
X79416000Y-57272115D01*
X79411525Y-57256876D01*
X79410135Y-57255671D01*
X79402452Y-57254000D01*
X78353225Y-57254000D01*
X78339694Y-57257973D01*
X78338257Y-57267966D01*
X72008500Y-57267966D01*
X72008500Y-56734183D01*
X78334389Y-56734183D01*
X78335912Y-56742607D01*
X78348292Y-56746000D01*
X79397885Y-56746000D01*
X79413124Y-56741525D01*
X79414329Y-56740135D01*
X79416000Y-56732452D01*
X79416000Y-55683102D01*
X79412082Y-55669758D01*
X79397806Y-55667771D01*
X79359324Y-55673660D01*
X79349288Y-55676051D01*
X79146868Y-55742212D01*
X79137359Y-55746209D01*
X78948463Y-55844542D01*
X78939738Y-55850036D01*
X78769433Y-55977905D01*
X78761726Y-55984748D01*
X78614590Y-56138717D01*
X78608104Y-56146727D01*
X78488098Y-56322649D01*
X78483000Y-56331623D01*
X78393338Y-56524783D01*
X78389775Y-56534470D01*
X78334389Y-56734183D01*
X72008500Y-56734183D01*
X72008500Y-53061422D01*
X72028502Y-52993301D01*
X72082158Y-52946808D01*
X72152432Y-52936704D01*
X72217012Y-52966198D01*
X72223595Y-52972327D01*
X72649164Y-53397896D01*
X72683190Y-53460208D01*
X72681486Y-53520662D01*
X72660989Y-53594570D01*
X72660441Y-53599700D01*
X72660440Y-53599704D01*
X72652138Y-53677393D01*
X72637251Y-53816695D01*
X72637548Y-53821848D01*
X72637548Y-53821851D01*
X72643277Y-53921205D01*
X72650110Y-54039715D01*
X72651247Y-54044761D01*
X72651248Y-54044767D01*
X72673929Y-54145405D01*
X72699222Y-54257639D01*
X72753577Y-54391500D01*
X72771542Y-54435742D01*
X72783266Y-54464616D01*
X72803718Y-54497991D01*
X72891000Y-54640422D01*
X72899987Y-54655088D01*
X73046250Y-54823938D01*
X73218126Y-54966632D01*
X73411000Y-55079338D01*
X73619692Y-55159030D01*
X73624760Y-55160061D01*
X73624763Y-55160062D01*
X73714908Y-55178402D01*
X73838597Y-55203567D01*
X73843772Y-55203757D01*
X73843774Y-55203757D01*
X74056673Y-55211564D01*
X74056677Y-55211564D01*
X74061837Y-55211753D01*
X74066957Y-55211097D01*
X74066959Y-55211097D01*
X74278288Y-55184025D01*
X74278289Y-55184025D01*
X74283416Y-55183368D01*
X74288366Y-55181883D01*
X74492429Y-55120661D01*
X74492434Y-55120659D01*
X74497384Y-55119174D01*
X74697994Y-55020896D01*
X74879860Y-54891173D01*
X74910939Y-54860203D01*
X75004871Y-54766598D01*
X75038096Y-54733489D01*
X75097594Y-54650689D01*
X75165438Y-54556273D01*
X75165439Y-54556272D01*
X75168453Y-54552077D01*
X75170742Y-54547445D01*
X75171247Y-54546605D01*
X75223477Y-54498516D01*
X75279250Y-54485500D01*
X87349761Y-54485500D01*
X87417882Y-54505502D01*
X87464375Y-54559158D01*
X87474479Y-54629432D01*
X87444985Y-54694012D01*
X87438856Y-54700595D01*
X86232863Y-55906588D01*
X86170551Y-55940614D01*
X86099736Y-55935549D01*
X86042945Y-55893061D01*
X85963261Y-55786739D01*
X85846705Y-55699385D01*
X85710316Y-55648255D01*
X85648134Y-55641500D01*
X83851866Y-55641500D01*
X83789684Y-55648255D01*
X83653295Y-55699385D01*
X83536739Y-55786739D01*
X83449385Y-55903295D01*
X83446233Y-55911703D01*
X83404919Y-56021907D01*
X83362277Y-56078671D01*
X83295716Y-56103371D01*
X83226367Y-56088163D01*
X83193743Y-56062476D01*
X83143151Y-56006875D01*
X83143142Y-56006866D01*
X83139670Y-56003051D01*
X83135619Y-55999852D01*
X83135615Y-55999848D01*
X82968414Y-55867800D01*
X82968410Y-55867798D01*
X82964359Y-55864598D01*
X82934535Y-55848134D01*
X82866186Y-55810404D01*
X82768789Y-55756638D01*
X82763920Y-55754914D01*
X82763916Y-55754912D01*
X82563087Y-55683795D01*
X82563083Y-55683794D01*
X82558212Y-55682069D01*
X82553119Y-55681162D01*
X82553116Y-55681161D01*
X82343373Y-55643800D01*
X82343367Y-55643799D01*
X82338284Y-55642894D01*
X82264452Y-55641992D01*
X82120081Y-55640228D01*
X82120079Y-55640228D01*
X82114911Y-55640165D01*
X81894091Y-55673955D01*
X81681756Y-55743357D01*
X81623854Y-55773499D01*
X81497131Y-55839467D01*
X81483607Y-55846507D01*
X81479474Y-55849610D01*
X81479471Y-55849612D01*
X81314469Y-55973499D01*
X81304965Y-55980635D01*
X81279541Y-56007240D01*
X81211280Y-56078671D01*
X81150629Y-56142138D01*
X81147715Y-56146410D01*
X81147714Y-56146411D01*
X81042898Y-56300066D01*
X80987987Y-56345069D01*
X80917462Y-56353240D01*
X80853715Y-56321986D01*
X80833018Y-56297502D01*
X80752426Y-56172926D01*
X80746136Y-56164757D01*
X80602806Y-56007240D01*
X80595273Y-56000215D01*
X80428139Y-55868222D01*
X80419552Y-55862517D01*
X80233117Y-55759599D01*
X80223705Y-55755369D01*
X80022959Y-55684280D01*
X80012988Y-55681646D01*
X79941837Y-55668972D01*
X79928540Y-55670432D01*
X79924000Y-55684989D01*
X79924000Y-58318517D01*
X79928064Y-58332359D01*
X79941478Y-58334393D01*
X79948184Y-58333534D01*
X79958262Y-58331392D01*
X80162255Y-58270191D01*
X80171842Y-58266433D01*
X80363095Y-58172739D01*
X80371945Y-58167464D01*
X80545328Y-58043792D01*
X80553200Y-58037139D01*
X80704052Y-57886812D01*
X80710730Y-57878965D01*
X80838022Y-57701819D01*
X80839279Y-57702722D01*
X80886373Y-57659362D01*
X80956311Y-57647145D01*
X81021751Y-57674678D01*
X81049579Y-57706511D01*
X81109987Y-57805088D01*
X81256250Y-57973938D01*
X81428126Y-58116632D01*
X81488241Y-58151760D01*
X81539070Y-58181462D01*
X81587794Y-58233100D01*
X81601500Y-58290250D01*
X81601500Y-58411864D01*
X81600422Y-58428307D01*
X81596250Y-58460000D01*
X81597328Y-58468189D01*
X81601500Y-58499880D01*
X81601500Y-58499885D01*
X81605874Y-58533109D01*
X81613320Y-58589664D01*
X81617162Y-58618851D01*
X81678476Y-58766876D01*
X81683503Y-58773427D01*
X81683504Y-58773429D01*
X81751520Y-58862069D01*
X81751526Y-58862075D01*
X81776013Y-58893987D01*
X81798820Y-58911488D01*
X81801377Y-58913450D01*
X81813767Y-58924316D01*
X82035681Y-59146229D01*
X82046549Y-59158621D01*
X82066013Y-59183987D01*
X82072559Y-59189010D01*
X82072562Y-59189013D01*
X82097927Y-59208476D01*
X82097929Y-59208477D01*
X82186572Y-59276496D01*
X82193124Y-59281524D01*
X82200750Y-59284683D01*
X82200752Y-59284684D01*
X82267137Y-59312181D01*
X82341149Y-59342838D01*
X82349336Y-59343916D01*
X82349337Y-59343916D01*
X82360542Y-59345391D01*
X82391738Y-59349498D01*
X82460115Y-59358500D01*
X82460118Y-59358500D01*
X82460126Y-59358501D01*
X82491811Y-59362672D01*
X82500000Y-59363750D01*
X82531693Y-59359578D01*
X82548136Y-59358500D01*
X86201864Y-59358500D01*
X86218307Y-59359578D01*
X86250000Y-59363750D01*
X86258189Y-59362672D01*
X86289874Y-59358501D01*
X86289884Y-59358500D01*
X86289885Y-59358500D01*
X86289901Y-59358498D01*
X86389457Y-59345391D01*
X86400664Y-59343916D01*
X86400666Y-59343915D01*
X86408851Y-59342838D01*
X86556876Y-59281524D01*
X86570171Y-59271323D01*
X86652072Y-59208477D01*
X86652075Y-59208474D01*
X86677434Y-59189015D01*
X86683987Y-59183987D01*
X86689017Y-59177432D01*
X86703452Y-59158621D01*
X86714319Y-59146230D01*
X88455646Y-57404903D01*
X88517958Y-57370877D01*
X88588773Y-57375942D01*
X88645609Y-57418489D01*
X88670420Y-57485009D01*
X88655889Y-57553346D01*
X88499134Y-57846922D01*
X88496259Y-57853087D01*
X88365155Y-58179218D01*
X88362962Y-58185658D01*
X88267846Y-58524044D01*
X88266363Y-58530679D01*
X88208350Y-58877354D01*
X88207591Y-58884126D01*
X88187357Y-59235037D01*
X88187333Y-59241832D01*
X88205117Y-59592893D01*
X88205827Y-59599649D01*
X88261420Y-59946723D01*
X88262859Y-59953378D01*
X88355608Y-60292410D01*
X88357757Y-60298871D01*
X88486581Y-60625912D01*
X88489412Y-60632095D01*
X88652803Y-60943310D01*
X88656286Y-60949152D01*
X88852328Y-61240893D01*
X88856433Y-61246340D01*
X88976425Y-61388836D01*
X88989164Y-61397279D01*
X88999608Y-61391181D01*
X91127980Y-59262810D01*
X91134357Y-59251131D01*
X91864408Y-59251131D01*
X91864539Y-59252966D01*
X91868790Y-59259580D01*
X93999009Y-61389798D01*
X94012605Y-61397223D01*
X94022218Y-61390522D01*
X94122518Y-61273912D01*
X94126676Y-61268514D01*
X94325762Y-60978840D01*
X94329310Y-60973029D01*
X94495942Y-60663559D01*
X94498849Y-60657381D01*
X94631090Y-60331713D01*
X94633304Y-60325283D01*
X94729598Y-59987237D01*
X94731105Y-59980607D01*
X94790332Y-59634118D01*
X94791112Y-59627378D01*
X94812668Y-59274925D01*
X94812784Y-59271323D01*
X94812853Y-59251819D01*
X94812761Y-59248194D01*
X94812416Y-59241832D01*
X124687333Y-59241832D01*
X124705117Y-59592893D01*
X124705827Y-59599649D01*
X124761420Y-59946723D01*
X124762859Y-59953378D01*
X124855608Y-60292410D01*
X124857757Y-60298871D01*
X124986581Y-60625912D01*
X124989412Y-60632095D01*
X125152803Y-60943310D01*
X125156286Y-60949152D01*
X125352328Y-61240893D01*
X125356433Y-61246340D01*
X125476425Y-61388836D01*
X125489164Y-61397279D01*
X125499608Y-61391181D01*
X127627980Y-59262810D01*
X127635592Y-59248869D01*
X127635461Y-59247034D01*
X127631210Y-59240420D01*
X125500992Y-57110203D01*
X125487455Y-57102811D01*
X125477753Y-57109599D01*
X125370430Y-57235257D01*
X125366296Y-57240664D01*
X125168215Y-57531041D01*
X125164697Y-57536851D01*
X124999134Y-57846922D01*
X124996259Y-57853087D01*
X124865155Y-58179218D01*
X124862962Y-58185658D01*
X124767846Y-58524044D01*
X124766363Y-58530679D01*
X124708350Y-58877354D01*
X124707591Y-58884126D01*
X124687357Y-59235037D01*
X124687333Y-59241832D01*
X94812416Y-59241832D01*
X94793666Y-58895615D01*
X94792931Y-58888849D01*
X94736130Y-58541985D01*
X94734663Y-58535313D01*
X94640736Y-58196627D01*
X94638562Y-58190163D01*
X94508598Y-57863578D01*
X94505742Y-57857398D01*
X94341269Y-57546763D01*
X94337769Y-57540937D01*
X94140697Y-57249862D01*
X94136590Y-57244453D01*
X94023565Y-57111179D01*
X94010740Y-57102743D01*
X94000416Y-57108795D01*
X91872020Y-59237190D01*
X91864408Y-59251131D01*
X91134357Y-59251131D01*
X91135592Y-59248869D01*
X91135461Y-59247034D01*
X91131210Y-59240420D01*
X89749203Y-57858413D01*
X89715177Y-57796101D01*
X89720242Y-57725286D01*
X89749203Y-57680223D01*
X89930223Y-57499203D01*
X89992535Y-57465177D01*
X90063350Y-57470242D01*
X90108413Y-57499203D01*
X91487188Y-58877978D01*
X91501132Y-58885592D01*
X91502965Y-58885461D01*
X91509580Y-58881210D01*
X92403453Y-57987337D01*
X93642798Y-56747991D01*
X93650412Y-56734047D01*
X93650344Y-56733090D01*
X93645834Y-56726271D01*
X93644418Y-56725065D01*
X93362103Y-56509999D01*
X93362635Y-56509301D01*
X93319925Y-56457377D01*
X93311629Y-56386867D01*
X93342770Y-56323064D01*
X93391615Y-56290012D01*
X93488297Y-56253767D01*
X93496705Y-56250615D01*
X93613261Y-56163261D01*
X93700615Y-56046705D01*
X93751745Y-55910316D01*
X93752917Y-55899526D01*
X93753803Y-55897394D01*
X93754425Y-55894778D01*
X93754848Y-55894879D01*
X93780155Y-55833965D01*
X93838517Y-55793537D01*
X93909471Y-55791078D01*
X93970490Y-55827371D01*
X93977489Y-55836031D01*
X93980643Y-55839789D01*
X93983802Y-55844300D01*
X94145700Y-56006198D01*
X94150208Y-56009355D01*
X94150211Y-56009357D01*
X94191542Y-56038297D01*
X94333251Y-56137523D01*
X94338233Y-56139846D01*
X94338238Y-56139849D01*
X94534765Y-56231490D01*
X94540757Y-56234284D01*
X94546065Y-56235706D01*
X94546067Y-56235707D01*
X94756598Y-56292119D01*
X94756600Y-56292119D01*
X94761913Y-56293543D01*
X94990000Y-56313498D01*
X95218087Y-56293543D01*
X95223400Y-56292119D01*
X95223402Y-56292119D01*
X95433933Y-56235707D01*
X95433935Y-56235706D01*
X95439243Y-56234284D01*
X95445235Y-56231490D01*
X95641762Y-56139849D01*
X95641767Y-56139846D01*
X95646749Y-56137523D01*
X95788458Y-56038297D01*
X95829789Y-56009357D01*
X95829792Y-56009355D01*
X95834300Y-56006198D01*
X95996198Y-55844300D01*
X96019933Y-55810404D01*
X96091603Y-55708048D01*
X96127523Y-55656749D01*
X96129846Y-55651767D01*
X96129849Y-55651762D01*
X96145805Y-55617543D01*
X96192722Y-55564258D01*
X96260999Y-55544797D01*
X96328959Y-55565339D01*
X96374195Y-55617543D01*
X96390151Y-55651762D01*
X96390154Y-55651767D01*
X96392477Y-55656749D01*
X96428397Y-55708048D01*
X96500068Y-55810404D01*
X96523802Y-55844300D01*
X96685700Y-56006198D01*
X96690208Y-56009355D01*
X96690211Y-56009357D01*
X96731542Y-56038297D01*
X96873251Y-56137523D01*
X96878233Y-56139846D01*
X96878238Y-56139849D01*
X97074765Y-56231490D01*
X97080757Y-56234284D01*
X97086065Y-56235706D01*
X97086067Y-56235707D01*
X97296598Y-56292119D01*
X97296600Y-56292119D01*
X97301913Y-56293543D01*
X97530000Y-56313498D01*
X97758087Y-56293543D01*
X97763400Y-56292119D01*
X97763402Y-56292119D01*
X97973933Y-56235707D01*
X97973935Y-56235706D01*
X97979243Y-56234284D01*
X97985235Y-56231490D01*
X98181762Y-56139849D01*
X98181767Y-56139846D01*
X98186749Y-56137523D01*
X98328458Y-56038297D01*
X98369789Y-56009357D01*
X98369792Y-56009355D01*
X98374300Y-56006198D01*
X98536198Y-55844300D01*
X98559933Y-55810404D01*
X98631603Y-55708048D01*
X98667523Y-55656749D01*
X98669846Y-55651767D01*
X98669849Y-55651762D01*
X98686081Y-55616951D01*
X98732998Y-55563666D01*
X98801275Y-55544205D01*
X98869235Y-55564747D01*
X98914471Y-55616951D01*
X98930586Y-55651511D01*
X98936069Y-55661007D01*
X99061028Y-55839467D01*
X99068084Y-55847875D01*
X99222125Y-56001916D01*
X99230533Y-56008972D01*
X99408993Y-56133931D01*
X99418489Y-56139414D01*
X99615947Y-56231490D01*
X99626239Y-56235236D01*
X99798503Y-56281394D01*
X99812599Y-56281058D01*
X99816000Y-56273116D01*
X99816000Y-53732033D01*
X99812027Y-53718502D01*
X99803478Y-53717273D01*
X99626239Y-53764764D01*
X99615947Y-53768510D01*
X99418489Y-53860586D01*
X99408993Y-53866069D01*
X99230533Y-53991028D01*
X99222125Y-53998084D01*
X99068084Y-54152125D01*
X99061028Y-54160533D01*
X98936069Y-54338993D01*
X98930586Y-54348489D01*
X98914471Y-54383049D01*
X98867554Y-54436334D01*
X98799277Y-54455795D01*
X98731317Y-54435253D01*
X98686081Y-54383049D01*
X98669849Y-54348238D01*
X98669846Y-54348233D01*
X98667523Y-54343251D01*
X98590632Y-54233439D01*
X98539357Y-54160211D01*
X98539355Y-54160208D01*
X98536198Y-54155700D01*
X98374300Y-53993802D01*
X98369792Y-53990645D01*
X98369789Y-53990643D01*
X98232518Y-53894525D01*
X98186749Y-53862477D01*
X98181767Y-53860154D01*
X98181762Y-53860151D01*
X97984225Y-53768039D01*
X97984224Y-53768039D01*
X97979243Y-53765716D01*
X97973935Y-53764294D01*
X97973933Y-53764293D01*
X97763402Y-53707881D01*
X97763400Y-53707881D01*
X97758087Y-53706457D01*
X97530000Y-53686502D01*
X97301913Y-53706457D01*
X97296600Y-53707881D01*
X97296598Y-53707881D01*
X97086067Y-53764293D01*
X97086065Y-53764294D01*
X97080757Y-53765716D01*
X97075776Y-53768039D01*
X97075775Y-53768039D01*
X96878238Y-53860151D01*
X96878233Y-53860154D01*
X96873251Y-53862477D01*
X96827482Y-53894525D01*
X96690211Y-53990643D01*
X96690208Y-53990645D01*
X96685700Y-53993802D01*
X96523802Y-54155700D01*
X96520645Y-54160208D01*
X96520643Y-54160211D01*
X96469368Y-54233439D01*
X96392477Y-54343251D01*
X96390154Y-54348233D01*
X96390151Y-54348238D01*
X96374195Y-54382457D01*
X96327278Y-54435742D01*
X96259001Y-54455203D01*
X96191041Y-54434661D01*
X96145805Y-54382457D01*
X96129849Y-54348238D01*
X96129846Y-54348233D01*
X96127523Y-54343251D01*
X96050632Y-54233439D01*
X95999357Y-54160211D01*
X95999355Y-54160208D01*
X95996198Y-54155700D01*
X95834300Y-53993802D01*
X95829792Y-53990645D01*
X95829789Y-53990643D01*
X95692518Y-53894525D01*
X95646749Y-53862477D01*
X95641767Y-53860154D01*
X95641762Y-53860151D01*
X95528146Y-53807172D01*
X95439243Y-53765716D01*
X95385823Y-53751402D01*
X95329339Y-53718790D01*
X95161144Y-53550595D01*
X95127118Y-53488283D01*
X95132183Y-53417468D01*
X95174730Y-53360632D01*
X95241250Y-53335821D01*
X95250239Y-53335500D01*
X102534578Y-53335500D01*
X102602699Y-53355502D01*
X102623673Y-53372405D01*
X102724408Y-53473140D01*
X102758434Y-53535452D01*
X102753369Y-53606267D01*
X102710822Y-53663103D01*
X102644302Y-53687914D01*
X102624330Y-53687755D01*
X102615485Y-53686981D01*
X102615475Y-53686981D01*
X102610000Y-53686502D01*
X102381913Y-53706457D01*
X102376600Y-53707881D01*
X102376598Y-53707881D01*
X102166067Y-53764293D01*
X102166065Y-53764294D01*
X102160757Y-53765716D01*
X102155776Y-53768039D01*
X102155775Y-53768039D01*
X101958238Y-53860151D01*
X101958233Y-53860154D01*
X101953251Y-53862477D01*
X101907482Y-53894525D01*
X101770211Y-53990643D01*
X101770208Y-53990645D01*
X101765700Y-53993802D01*
X101603802Y-54155700D01*
X101600645Y-54160208D01*
X101600643Y-54160211D01*
X101549368Y-54233439D01*
X101472477Y-54343251D01*
X101470154Y-54348233D01*
X101470151Y-54348238D01*
X101453919Y-54383049D01*
X101407002Y-54436334D01*
X101338725Y-54455795D01*
X101270765Y-54435253D01*
X101225529Y-54383049D01*
X101209414Y-54348489D01*
X101203931Y-54338993D01*
X101078972Y-54160533D01*
X101071916Y-54152125D01*
X100917875Y-53998084D01*
X100909467Y-53991028D01*
X100731007Y-53866069D01*
X100721511Y-53860586D01*
X100524053Y-53768510D01*
X100513761Y-53764764D01*
X100341497Y-53718606D01*
X100327401Y-53718942D01*
X100324000Y-53726884D01*
X100324000Y-56267967D01*
X100327973Y-56281498D01*
X100336522Y-56282727D01*
X100513761Y-56235236D01*
X100524053Y-56231490D01*
X100721511Y-56139414D01*
X100731007Y-56133931D01*
X100909467Y-56008972D01*
X100917875Y-56001916D01*
X101071916Y-55847875D01*
X101078972Y-55839467D01*
X101203931Y-55661007D01*
X101209414Y-55651511D01*
X101225529Y-55616951D01*
X101272446Y-55563666D01*
X101340723Y-55544205D01*
X101408683Y-55564747D01*
X101453919Y-55616951D01*
X101470151Y-55651762D01*
X101470154Y-55651767D01*
X101472477Y-55656749D01*
X101508397Y-55708048D01*
X101580068Y-55810404D01*
X101603802Y-55844300D01*
X101765700Y-56006198D01*
X101770208Y-56009355D01*
X101770211Y-56009357D01*
X101811542Y-56038297D01*
X101953251Y-56137523D01*
X101958233Y-56139846D01*
X101958238Y-56139849D01*
X102154765Y-56231490D01*
X102160757Y-56234284D01*
X102166065Y-56235706D01*
X102166067Y-56235707D01*
X102376598Y-56292119D01*
X102376600Y-56292119D01*
X102381913Y-56293543D01*
X102610000Y-56313498D01*
X102838087Y-56293543D01*
X102843400Y-56292119D01*
X102843402Y-56292119D01*
X103053933Y-56235707D01*
X103053935Y-56235706D01*
X103059243Y-56234284D01*
X103065235Y-56231490D01*
X103261762Y-56139849D01*
X103261767Y-56139846D01*
X103266749Y-56137523D01*
X103408458Y-56038297D01*
X103449789Y-56009357D01*
X103449792Y-56009355D01*
X103454300Y-56006198D01*
X103616198Y-55844300D01*
X103639933Y-55810404D01*
X103711603Y-55708048D01*
X103747523Y-55656749D01*
X103749846Y-55651767D01*
X103749849Y-55651762D01*
X103765805Y-55617543D01*
X103812722Y-55564258D01*
X103880999Y-55544797D01*
X103948959Y-55565339D01*
X103994195Y-55617543D01*
X104010151Y-55651762D01*
X104010154Y-55651767D01*
X104012477Y-55656749D01*
X104048397Y-55708048D01*
X104120068Y-55810404D01*
X104143802Y-55844300D01*
X104305700Y-56006198D01*
X104310208Y-56009355D01*
X104310211Y-56009357D01*
X104351542Y-56038297D01*
X104493251Y-56137523D01*
X104498233Y-56139846D01*
X104498238Y-56139849D01*
X104694765Y-56231490D01*
X104700757Y-56234284D01*
X104706065Y-56235706D01*
X104706067Y-56235707D01*
X104916598Y-56292119D01*
X104916600Y-56292119D01*
X104921913Y-56293543D01*
X105150000Y-56313498D01*
X105378087Y-56293543D01*
X105383400Y-56292119D01*
X105383402Y-56292119D01*
X105593933Y-56235707D01*
X105593935Y-56235706D01*
X105599243Y-56234284D01*
X105605235Y-56231490D01*
X105801762Y-56139849D01*
X105801767Y-56139846D01*
X105806749Y-56137523D01*
X105948458Y-56038297D01*
X105989789Y-56009357D01*
X105989792Y-56009355D01*
X105994300Y-56006198D01*
X106156198Y-55844300D01*
X106179933Y-55810404D01*
X106251603Y-55708048D01*
X106287523Y-55656749D01*
X106289846Y-55651767D01*
X106289849Y-55651762D01*
X106305805Y-55617543D01*
X106352722Y-55564258D01*
X106420999Y-55544797D01*
X106488959Y-55565339D01*
X106534195Y-55617543D01*
X106550151Y-55651762D01*
X106550154Y-55651767D01*
X106552477Y-55656749D01*
X106588397Y-55708048D01*
X106660068Y-55810404D01*
X106683802Y-55844300D01*
X106845700Y-56006198D01*
X106850208Y-56009355D01*
X106850211Y-56009357D01*
X106891542Y-56038297D01*
X107033251Y-56137523D01*
X107038233Y-56139846D01*
X107038238Y-56139849D01*
X107234765Y-56231490D01*
X107240757Y-56234284D01*
X107246065Y-56235706D01*
X107246067Y-56235707D01*
X107456598Y-56292119D01*
X107456600Y-56292119D01*
X107461913Y-56293543D01*
X107690000Y-56313498D01*
X107918087Y-56293543D01*
X107923400Y-56292119D01*
X107923402Y-56292119D01*
X108133933Y-56235707D01*
X108133935Y-56235706D01*
X108139243Y-56234284D01*
X108145235Y-56231490D01*
X108341762Y-56139849D01*
X108341767Y-56139846D01*
X108346749Y-56137523D01*
X108488458Y-56038297D01*
X108529789Y-56009357D01*
X108529792Y-56009355D01*
X108534300Y-56006198D01*
X108696198Y-55844300D01*
X108719933Y-55810404D01*
X108791603Y-55708048D01*
X108827523Y-55656749D01*
X108829846Y-55651767D01*
X108829849Y-55651762D01*
X108845805Y-55617543D01*
X108892722Y-55564258D01*
X108960999Y-55544797D01*
X109028959Y-55565339D01*
X109074195Y-55617543D01*
X109090151Y-55651762D01*
X109090154Y-55651767D01*
X109092477Y-55656749D01*
X109128397Y-55708048D01*
X109200068Y-55810404D01*
X109223802Y-55844300D01*
X109385700Y-56006198D01*
X109390208Y-56009355D01*
X109390211Y-56009357D01*
X109431542Y-56038297D01*
X109573251Y-56137523D01*
X109578233Y-56139846D01*
X109578238Y-56139849D01*
X109774765Y-56231490D01*
X109780757Y-56234284D01*
X109786065Y-56235706D01*
X109786067Y-56235707D01*
X109996598Y-56292119D01*
X109996600Y-56292119D01*
X110001913Y-56293543D01*
X110230000Y-56313498D01*
X110458087Y-56293543D01*
X110463400Y-56292119D01*
X110463402Y-56292119D01*
X110673933Y-56235707D01*
X110673935Y-56235706D01*
X110679243Y-56234284D01*
X110685235Y-56231490D01*
X110881762Y-56139849D01*
X110881767Y-56139846D01*
X110886749Y-56137523D01*
X111028458Y-56038297D01*
X111069789Y-56009357D01*
X111069792Y-56009355D01*
X111074300Y-56006198D01*
X111236198Y-55844300D01*
X111259933Y-55810404D01*
X111331603Y-55708048D01*
X111367523Y-55656749D01*
X111369846Y-55651767D01*
X111369849Y-55651762D01*
X111385805Y-55617543D01*
X111432722Y-55564258D01*
X111500999Y-55544797D01*
X111568959Y-55565339D01*
X111614195Y-55617543D01*
X111630151Y-55651762D01*
X111630154Y-55651767D01*
X111632477Y-55656749D01*
X111668397Y-55708048D01*
X111740068Y-55810404D01*
X111763802Y-55844300D01*
X111925700Y-56006198D01*
X111930208Y-56009355D01*
X111930211Y-56009357D01*
X111971542Y-56038297D01*
X112113251Y-56137523D01*
X112118233Y-56139846D01*
X112118238Y-56139849D01*
X112314765Y-56231490D01*
X112320757Y-56234284D01*
X112326065Y-56235706D01*
X112326067Y-56235707D01*
X112536598Y-56292119D01*
X112536600Y-56292119D01*
X112541913Y-56293543D01*
X112770000Y-56313498D01*
X112998087Y-56293543D01*
X113003400Y-56292119D01*
X113003402Y-56292119D01*
X113213933Y-56235707D01*
X113213935Y-56235706D01*
X113219243Y-56234284D01*
X113225235Y-56231490D01*
X113421762Y-56139849D01*
X113421767Y-56139846D01*
X113426749Y-56137523D01*
X113568458Y-56038297D01*
X113609789Y-56009357D01*
X113609792Y-56009355D01*
X113614300Y-56006198D01*
X113776198Y-55844300D01*
X113799933Y-55810404D01*
X113871603Y-55708048D01*
X113907523Y-55656749D01*
X113909846Y-55651767D01*
X113909849Y-55651762D01*
X113925805Y-55617543D01*
X113972722Y-55564258D01*
X114040999Y-55544797D01*
X114108959Y-55565339D01*
X114154195Y-55617543D01*
X114170151Y-55651762D01*
X114170154Y-55651767D01*
X114172477Y-55656749D01*
X114208397Y-55708048D01*
X114280068Y-55810404D01*
X114303802Y-55844300D01*
X114465700Y-56006198D01*
X114470208Y-56009355D01*
X114470211Y-56009357D01*
X114511542Y-56038297D01*
X114653251Y-56137523D01*
X114658233Y-56139846D01*
X114658238Y-56139849D01*
X114854765Y-56231490D01*
X114860757Y-56234284D01*
X114866065Y-56235706D01*
X114866067Y-56235707D01*
X115076598Y-56292119D01*
X115076600Y-56292119D01*
X115081913Y-56293543D01*
X115310000Y-56313498D01*
X115538087Y-56293543D01*
X115543400Y-56292119D01*
X115543402Y-56292119D01*
X115753933Y-56235707D01*
X115753935Y-56235706D01*
X115759243Y-56234284D01*
X115765235Y-56231490D01*
X115961762Y-56139849D01*
X115961767Y-56139846D01*
X115966749Y-56137523D01*
X116108458Y-56038297D01*
X116149789Y-56009357D01*
X116149792Y-56009355D01*
X116154300Y-56006198D01*
X116316198Y-55844300D01*
X116339933Y-55810404D01*
X116411603Y-55708048D01*
X116447523Y-55656749D01*
X116449846Y-55651767D01*
X116449849Y-55651762D01*
X116465805Y-55617543D01*
X116512722Y-55564258D01*
X116580999Y-55544797D01*
X116648959Y-55565339D01*
X116694195Y-55617543D01*
X116710151Y-55651762D01*
X116710154Y-55651767D01*
X116712477Y-55656749D01*
X116748397Y-55708048D01*
X116820068Y-55810404D01*
X116843802Y-55844300D01*
X117005700Y-56006198D01*
X117010208Y-56009355D01*
X117010211Y-56009357D01*
X117051542Y-56038297D01*
X117193251Y-56137523D01*
X117198233Y-56139846D01*
X117198238Y-56139849D01*
X117394765Y-56231490D01*
X117400757Y-56234284D01*
X117406065Y-56235706D01*
X117406067Y-56235707D01*
X117616598Y-56292119D01*
X117616600Y-56292119D01*
X117621913Y-56293543D01*
X117850000Y-56313498D01*
X118078087Y-56293543D01*
X118083400Y-56292119D01*
X118083402Y-56292119D01*
X118293933Y-56235707D01*
X118293935Y-56235706D01*
X118299243Y-56234284D01*
X118305235Y-56231490D01*
X118501762Y-56139849D01*
X118501767Y-56139846D01*
X118506749Y-56137523D01*
X118648458Y-56038297D01*
X118689789Y-56009357D01*
X118689792Y-56009355D01*
X118694300Y-56006198D01*
X118856198Y-55844300D01*
X118879933Y-55810404D01*
X118951603Y-55708048D01*
X118987523Y-55656749D01*
X118989846Y-55651767D01*
X118989849Y-55651762D01*
X119005805Y-55617543D01*
X119052722Y-55564258D01*
X119120999Y-55544797D01*
X119188959Y-55565339D01*
X119234195Y-55617543D01*
X119250151Y-55651762D01*
X119250154Y-55651767D01*
X119252477Y-55656749D01*
X119288397Y-55708048D01*
X119360068Y-55810404D01*
X119383802Y-55844300D01*
X119545700Y-56006198D01*
X119550208Y-56009355D01*
X119550211Y-56009357D01*
X119591542Y-56038297D01*
X119733251Y-56137523D01*
X119738233Y-56139846D01*
X119738238Y-56139849D01*
X119934765Y-56231490D01*
X119940757Y-56234284D01*
X119946065Y-56235706D01*
X119946067Y-56235707D01*
X120156598Y-56292119D01*
X120156600Y-56292119D01*
X120161913Y-56293543D01*
X120390000Y-56313498D01*
X120618087Y-56293543D01*
X120623400Y-56292119D01*
X120623402Y-56292119D01*
X120833933Y-56235707D01*
X120833935Y-56235706D01*
X120839243Y-56234284D01*
X120845235Y-56231490D01*
X121041762Y-56139849D01*
X121041767Y-56139846D01*
X121046749Y-56137523D01*
X121188458Y-56038297D01*
X121229789Y-56009357D01*
X121229792Y-56009355D01*
X121234300Y-56006198D01*
X121396198Y-55844300D01*
X121419933Y-55810404D01*
X121491603Y-55708048D01*
X121527523Y-55656749D01*
X121529846Y-55651767D01*
X121529849Y-55651762D01*
X121545805Y-55617543D01*
X121592722Y-55564258D01*
X121660999Y-55544797D01*
X121728959Y-55565339D01*
X121774195Y-55617543D01*
X121790151Y-55651762D01*
X121790154Y-55651767D01*
X121792477Y-55656749D01*
X121828397Y-55708048D01*
X121900068Y-55810404D01*
X121923802Y-55844300D01*
X122085700Y-56006198D01*
X122090208Y-56009355D01*
X122090211Y-56009357D01*
X122131542Y-56038297D01*
X122273251Y-56137523D01*
X122278233Y-56139846D01*
X122278238Y-56139849D01*
X122474765Y-56231490D01*
X122480757Y-56234284D01*
X122486065Y-56235706D01*
X122486067Y-56235707D01*
X122696598Y-56292119D01*
X122696600Y-56292119D01*
X122701913Y-56293543D01*
X122930000Y-56313498D01*
X123158087Y-56293543D01*
X123163400Y-56292119D01*
X123163402Y-56292119D01*
X123373933Y-56235707D01*
X123373935Y-56235706D01*
X123379243Y-56234284D01*
X123385235Y-56231490D01*
X123581762Y-56139849D01*
X123581767Y-56139846D01*
X123586749Y-56137523D01*
X123728458Y-56038297D01*
X123769789Y-56009357D01*
X123769792Y-56009355D01*
X123774300Y-56006198D01*
X123936198Y-55844300D01*
X123959933Y-55810404D01*
X124031603Y-55708048D01*
X124067523Y-55656749D01*
X124069846Y-55651767D01*
X124069849Y-55651762D01*
X124085805Y-55617543D01*
X124132722Y-55564258D01*
X124200999Y-55544797D01*
X124268959Y-55565339D01*
X124314195Y-55617543D01*
X124330151Y-55651762D01*
X124330154Y-55651767D01*
X124332477Y-55656749D01*
X124368397Y-55708048D01*
X124440068Y-55810404D01*
X124463802Y-55844300D01*
X124625700Y-56006198D01*
X124630208Y-56009355D01*
X124630211Y-56009357D01*
X124671542Y-56038297D01*
X124813251Y-56137523D01*
X124818233Y-56139846D01*
X124818238Y-56139849D01*
X125014765Y-56231490D01*
X125020757Y-56234284D01*
X125026065Y-56235706D01*
X125026067Y-56235707D01*
X125236598Y-56292119D01*
X125236600Y-56292119D01*
X125241913Y-56293543D01*
X125470000Y-56313498D01*
X125698087Y-56293543D01*
X125703400Y-56292119D01*
X125703402Y-56292119D01*
X125913933Y-56235707D01*
X125913935Y-56235706D01*
X125919243Y-56234284D01*
X125925235Y-56231490D01*
X126121762Y-56139849D01*
X126121767Y-56139846D01*
X126126749Y-56137523D01*
X126268458Y-56038297D01*
X126309789Y-56009357D01*
X126309792Y-56009355D01*
X126314300Y-56006198D01*
X126476198Y-55844300D01*
X126499933Y-55810404D01*
X126571603Y-55708048D01*
X126607523Y-55656749D01*
X126609846Y-55651767D01*
X126609849Y-55651762D01*
X126625805Y-55617543D01*
X126672722Y-55564258D01*
X126740999Y-55544797D01*
X126808959Y-55565339D01*
X126854195Y-55617543D01*
X126870151Y-55651762D01*
X126870154Y-55651767D01*
X126872477Y-55656749D01*
X126908397Y-55708048D01*
X126980068Y-55810404D01*
X127003802Y-55844300D01*
X127047711Y-55888209D01*
X127081737Y-55950521D01*
X127076672Y-56021336D01*
X127034125Y-56078172D01*
X126998596Y-56096793D01*
X126783683Y-56168702D01*
X126777361Y-56171205D01*
X126458034Y-56318079D01*
X126451991Y-56321265D01*
X126150401Y-56501763D01*
X126144755Y-56505571D01*
X125864408Y-56717596D01*
X125859211Y-56721987D01*
X125857972Y-56723155D01*
X125849950Y-56736862D01*
X125849986Y-56737704D01*
X125855037Y-56745826D01*
X127096547Y-57987337D01*
X127987190Y-58877980D01*
X128001131Y-58885592D01*
X128002966Y-58885461D01*
X128009580Y-58881210D01*
X130142798Y-56747991D01*
X130150412Y-56734047D01*
X130150344Y-56733089D01*
X130145836Y-56726272D01*
X130144418Y-56725065D01*
X129864813Y-56512064D01*
X129859187Y-56508240D01*
X129558214Y-56326681D01*
X129552202Y-56323484D01*
X129233370Y-56175487D01*
X129227070Y-56172967D01*
X129016086Y-56101554D01*
X128957974Y-56060767D01*
X128931138Y-55995038D01*
X128944098Y-55925234D01*
X128967388Y-55893110D01*
X129016198Y-55844300D01*
X129039933Y-55810404D01*
X129111603Y-55708048D01*
X129147523Y-55656749D01*
X129149846Y-55651767D01*
X129149849Y-55651762D01*
X129241961Y-55454225D01*
X129241961Y-55454224D01*
X129244284Y-55449243D01*
X129259971Y-55390701D01*
X129302119Y-55233402D01*
X129302119Y-55233400D01*
X129303543Y-55228087D01*
X129323498Y-55000000D01*
X129303543Y-54771913D01*
X129296919Y-54747193D01*
X129245707Y-54556067D01*
X129245706Y-54556065D01*
X129244284Y-54550757D01*
X129239978Y-54541522D01*
X129149849Y-54348238D01*
X129149846Y-54348233D01*
X129147523Y-54343251D01*
X129070632Y-54233439D01*
X129019357Y-54160211D01*
X129019355Y-54160208D01*
X129016198Y-54155700D01*
X128854300Y-53993802D01*
X128849792Y-53990645D01*
X128849789Y-53990643D01*
X128712518Y-53894525D01*
X128666749Y-53862477D01*
X128661767Y-53860154D01*
X128661762Y-53860151D01*
X128464225Y-53768039D01*
X128464224Y-53768039D01*
X128459243Y-53765716D01*
X128453935Y-53764294D01*
X128453933Y-53764293D01*
X128243402Y-53707881D01*
X128243400Y-53707881D01*
X128238087Y-53706457D01*
X128010000Y-53686502D01*
X127781913Y-53706457D01*
X127776600Y-53707881D01*
X127776598Y-53707881D01*
X127566067Y-53764293D01*
X127566065Y-53764294D01*
X127560757Y-53765716D01*
X127555776Y-53768039D01*
X127555775Y-53768039D01*
X127358238Y-53860151D01*
X127358233Y-53860154D01*
X127353251Y-53862477D01*
X127307482Y-53894525D01*
X127170211Y-53990643D01*
X127170208Y-53990645D01*
X127165700Y-53993802D01*
X127003802Y-54155700D01*
X127000645Y-54160208D01*
X127000643Y-54160211D01*
X126949368Y-54233439D01*
X126872477Y-54343251D01*
X126870154Y-54348233D01*
X126870151Y-54348238D01*
X126854195Y-54382457D01*
X126807278Y-54435742D01*
X126739001Y-54455203D01*
X126671041Y-54434661D01*
X126625805Y-54382457D01*
X126609849Y-54348238D01*
X126609846Y-54348233D01*
X126607523Y-54343251D01*
X126530632Y-54233439D01*
X126479357Y-54160211D01*
X126479355Y-54160208D01*
X126476198Y-54155700D01*
X126314300Y-53993802D01*
X126309792Y-53990645D01*
X126309789Y-53990643D01*
X126172518Y-53894525D01*
X126126749Y-53862477D01*
X126121767Y-53860154D01*
X126121762Y-53860151D01*
X125924225Y-53768039D01*
X125924224Y-53768039D01*
X125919243Y-53765716D01*
X125913935Y-53764294D01*
X125913933Y-53764293D01*
X125703402Y-53707881D01*
X125703400Y-53707881D01*
X125698087Y-53706457D01*
X125470000Y-53686502D01*
X125241913Y-53706457D01*
X125236600Y-53707881D01*
X125236598Y-53707881D01*
X125026067Y-53764293D01*
X125026065Y-53764294D01*
X125020757Y-53765716D01*
X125015776Y-53768039D01*
X125015775Y-53768039D01*
X124818238Y-53860151D01*
X124818233Y-53860154D01*
X124813251Y-53862477D01*
X124767482Y-53894525D01*
X124630211Y-53990643D01*
X124630208Y-53990645D01*
X124625700Y-53993802D01*
X124463802Y-54155700D01*
X124460645Y-54160208D01*
X124460643Y-54160211D01*
X124409368Y-54233439D01*
X124332477Y-54343251D01*
X124330154Y-54348233D01*
X124330151Y-54348238D01*
X124314195Y-54382457D01*
X124267278Y-54435742D01*
X124199001Y-54455203D01*
X124131041Y-54434661D01*
X124085805Y-54382457D01*
X124069849Y-54348238D01*
X124069846Y-54348233D01*
X124067523Y-54343251D01*
X123990632Y-54233439D01*
X123939357Y-54160211D01*
X123939355Y-54160208D01*
X123936198Y-54155700D01*
X123774300Y-53993802D01*
X123769792Y-53990645D01*
X123769789Y-53990643D01*
X123632518Y-53894525D01*
X123586749Y-53862477D01*
X123581767Y-53860154D01*
X123581762Y-53860151D01*
X123384225Y-53768039D01*
X123384224Y-53768039D01*
X123379243Y-53765716D01*
X123373935Y-53764294D01*
X123373933Y-53764293D01*
X123163402Y-53707881D01*
X123163400Y-53707881D01*
X123158087Y-53706457D01*
X122930000Y-53686502D01*
X122701913Y-53706457D01*
X122696600Y-53707881D01*
X122696598Y-53707881D01*
X122486067Y-53764293D01*
X122486065Y-53764294D01*
X122480757Y-53765716D01*
X122475776Y-53768039D01*
X122475775Y-53768039D01*
X122278238Y-53860151D01*
X122278233Y-53860154D01*
X122273251Y-53862477D01*
X122227482Y-53894525D01*
X122090211Y-53990643D01*
X122090208Y-53990645D01*
X122085700Y-53993802D01*
X121923802Y-54155700D01*
X121920645Y-54160208D01*
X121920643Y-54160211D01*
X121869368Y-54233439D01*
X121792477Y-54343251D01*
X121790154Y-54348233D01*
X121790151Y-54348238D01*
X121774195Y-54382457D01*
X121727278Y-54435742D01*
X121659001Y-54455203D01*
X121591041Y-54434661D01*
X121545805Y-54382457D01*
X121529849Y-54348238D01*
X121529846Y-54348233D01*
X121527523Y-54343251D01*
X121450632Y-54233439D01*
X121399357Y-54160211D01*
X121399355Y-54160208D01*
X121396198Y-54155700D01*
X121234300Y-53993802D01*
X121229792Y-53990645D01*
X121229789Y-53990643D01*
X121092518Y-53894525D01*
X121046749Y-53862477D01*
X121041767Y-53860154D01*
X121041762Y-53860151D01*
X120844225Y-53768039D01*
X120844224Y-53768039D01*
X120839243Y-53765716D01*
X120833935Y-53764294D01*
X120833933Y-53764293D01*
X120623402Y-53707881D01*
X120623400Y-53707881D01*
X120618087Y-53706457D01*
X120390000Y-53686502D01*
X120161913Y-53706457D01*
X120156600Y-53707881D01*
X120156598Y-53707881D01*
X119946067Y-53764293D01*
X119946065Y-53764294D01*
X119940757Y-53765716D01*
X119935776Y-53768039D01*
X119935775Y-53768039D01*
X119738238Y-53860151D01*
X119738233Y-53860154D01*
X119733251Y-53862477D01*
X119687482Y-53894525D01*
X119550211Y-53990643D01*
X119550208Y-53990645D01*
X119545700Y-53993802D01*
X119383802Y-54155700D01*
X119380645Y-54160208D01*
X119380643Y-54160211D01*
X119329368Y-54233439D01*
X119252477Y-54343251D01*
X119250154Y-54348233D01*
X119250151Y-54348238D01*
X119234195Y-54382457D01*
X119187278Y-54435742D01*
X119119001Y-54455203D01*
X119051041Y-54434661D01*
X119005805Y-54382457D01*
X118989849Y-54348238D01*
X118989846Y-54348233D01*
X118987523Y-54343251D01*
X118910632Y-54233439D01*
X118859357Y-54160211D01*
X118859355Y-54160208D01*
X118856198Y-54155700D01*
X118694300Y-53993802D01*
X118689792Y-53990645D01*
X118689789Y-53990643D01*
X118552518Y-53894525D01*
X118506749Y-53862477D01*
X118501767Y-53860154D01*
X118501762Y-53860151D01*
X118304225Y-53768039D01*
X118304224Y-53768039D01*
X118299243Y-53765716D01*
X118293935Y-53764294D01*
X118293933Y-53764293D01*
X118083402Y-53707881D01*
X118083400Y-53707881D01*
X118078087Y-53706457D01*
X117850000Y-53686502D01*
X117621913Y-53706457D01*
X117616600Y-53707881D01*
X117616598Y-53707881D01*
X117406067Y-53764293D01*
X117406065Y-53764294D01*
X117400757Y-53765716D01*
X117395776Y-53768039D01*
X117395775Y-53768039D01*
X117198238Y-53860151D01*
X117198233Y-53860154D01*
X117193251Y-53862477D01*
X117147482Y-53894525D01*
X117010211Y-53990643D01*
X117010208Y-53990645D01*
X117005700Y-53993802D01*
X116843802Y-54155700D01*
X116840645Y-54160208D01*
X116840643Y-54160211D01*
X116789368Y-54233439D01*
X116712477Y-54343251D01*
X116710154Y-54348233D01*
X116710151Y-54348238D01*
X116694195Y-54382457D01*
X116647278Y-54435742D01*
X116579001Y-54455203D01*
X116511041Y-54434661D01*
X116465805Y-54382457D01*
X116449849Y-54348238D01*
X116449846Y-54348233D01*
X116447523Y-54343251D01*
X116370632Y-54233439D01*
X116319357Y-54160211D01*
X116319355Y-54160208D01*
X116316198Y-54155700D01*
X116154300Y-53993802D01*
X116149792Y-53990645D01*
X116149789Y-53990643D01*
X116012518Y-53894525D01*
X115966749Y-53862477D01*
X115961767Y-53860154D01*
X115961762Y-53860151D01*
X115764225Y-53768039D01*
X115764224Y-53768039D01*
X115759243Y-53765716D01*
X115753935Y-53764294D01*
X115753933Y-53764293D01*
X115543402Y-53707881D01*
X115543400Y-53707881D01*
X115538087Y-53706457D01*
X115310000Y-53686502D01*
X115081913Y-53706457D01*
X115076600Y-53707881D01*
X115076598Y-53707881D01*
X114866067Y-53764293D01*
X114866065Y-53764294D01*
X114860757Y-53765716D01*
X114855776Y-53768039D01*
X114855775Y-53768039D01*
X114658238Y-53860151D01*
X114658233Y-53860154D01*
X114653251Y-53862477D01*
X114607482Y-53894525D01*
X114470211Y-53990643D01*
X114470208Y-53990645D01*
X114465700Y-53993802D01*
X114303802Y-54155700D01*
X114300645Y-54160208D01*
X114300643Y-54160211D01*
X114249368Y-54233439D01*
X114172477Y-54343251D01*
X114170154Y-54348233D01*
X114170151Y-54348238D01*
X114154195Y-54382457D01*
X114107278Y-54435742D01*
X114039001Y-54455203D01*
X113971041Y-54434661D01*
X113925805Y-54382457D01*
X113909849Y-54348238D01*
X113909846Y-54348233D01*
X113907523Y-54343251D01*
X113830632Y-54233439D01*
X113779357Y-54160211D01*
X113779355Y-54160208D01*
X113776198Y-54155700D01*
X113614300Y-53993802D01*
X113609792Y-53990645D01*
X113609789Y-53990643D01*
X113472518Y-53894525D01*
X113426749Y-53862477D01*
X113421767Y-53860154D01*
X113421762Y-53860151D01*
X113224225Y-53768039D01*
X113224224Y-53768039D01*
X113219243Y-53765716D01*
X113213935Y-53764294D01*
X113213933Y-53764293D01*
X113003402Y-53707881D01*
X113003400Y-53707881D01*
X112998087Y-53706457D01*
X112770000Y-53686502D01*
X112541913Y-53706457D01*
X112536600Y-53707881D01*
X112536598Y-53707881D01*
X112326067Y-53764293D01*
X112326065Y-53764294D01*
X112320757Y-53765716D01*
X112315776Y-53768039D01*
X112315775Y-53768039D01*
X112118238Y-53860151D01*
X112118233Y-53860154D01*
X112113251Y-53862477D01*
X112067482Y-53894525D01*
X111930211Y-53990643D01*
X111930208Y-53990645D01*
X111925700Y-53993802D01*
X111763802Y-54155700D01*
X111760645Y-54160208D01*
X111760643Y-54160211D01*
X111709368Y-54233439D01*
X111632477Y-54343251D01*
X111630154Y-54348233D01*
X111630151Y-54348238D01*
X111614195Y-54382457D01*
X111567278Y-54435742D01*
X111499001Y-54455203D01*
X111431041Y-54434661D01*
X111385805Y-54382457D01*
X111369849Y-54348238D01*
X111369846Y-54348233D01*
X111367523Y-54343251D01*
X111290632Y-54233439D01*
X111239357Y-54160211D01*
X111239355Y-54160208D01*
X111236198Y-54155700D01*
X111074300Y-53993802D01*
X111069792Y-53990645D01*
X111069789Y-53990643D01*
X110932518Y-53894525D01*
X110886749Y-53862477D01*
X110881767Y-53860154D01*
X110881762Y-53860151D01*
X110684225Y-53768039D01*
X110684224Y-53768039D01*
X110679243Y-53765716D01*
X110673935Y-53764294D01*
X110673933Y-53764293D01*
X110463402Y-53707881D01*
X110463400Y-53707881D01*
X110458087Y-53706457D01*
X110230000Y-53686502D01*
X110224525Y-53686981D01*
X110224514Y-53686981D01*
X110173825Y-53691416D01*
X110104220Y-53677428D01*
X110053228Y-53628029D01*
X110037037Y-53558903D01*
X110060789Y-53491997D01*
X110073748Y-53476801D01*
X111255696Y-52294853D01*
X124439977Y-52294853D01*
X124445258Y-52301907D01*
X124606756Y-52396279D01*
X124616042Y-52400729D01*
X124815001Y-52476703D01*
X124824899Y-52479579D01*
X125033595Y-52522038D01*
X125043823Y-52523257D01*
X125256650Y-52531062D01*
X125266936Y-52530595D01*
X125478185Y-52503534D01*
X125488262Y-52501392D01*
X125692255Y-52440191D01*
X125701842Y-52436433D01*
X125893098Y-52342738D01*
X125901944Y-52337465D01*
X125949247Y-52303723D01*
X125957648Y-52293023D01*
X125950660Y-52279870D01*
X125212812Y-51542022D01*
X125198868Y-51534408D01*
X125197035Y-51534539D01*
X125190420Y-51538790D01*
X124446737Y-52282473D01*
X124439977Y-52294853D01*
X111255696Y-52294853D01*
X112408686Y-51141863D01*
X123838050Y-51141863D01*
X123850309Y-51354477D01*
X123851745Y-51364697D01*
X123898565Y-51572446D01*
X123901645Y-51582275D01*
X123981770Y-51779603D01*
X123986413Y-51788794D01*
X124066460Y-51919420D01*
X124076916Y-51928880D01*
X124085694Y-51925096D01*
X124827978Y-51182812D01*
X124834356Y-51171132D01*
X125564408Y-51171132D01*
X125564539Y-51172965D01*
X125568790Y-51179580D01*
X126310474Y-51921264D01*
X126322484Y-51927823D01*
X126334223Y-51918855D01*
X126365004Y-51876019D01*
X126370315Y-51867180D01*
X126464670Y-51676267D01*
X126468469Y-51666672D01*
X126530376Y-51462915D01*
X126532555Y-51452834D01*
X126560590Y-51239887D01*
X126561109Y-51233212D01*
X126562572Y-51173364D01*
X126562378Y-51166646D01*
X126544781Y-50952604D01*
X126543096Y-50942424D01*
X126491214Y-50735875D01*
X126487894Y-50726124D01*
X126402972Y-50530814D01*
X126398105Y-50521739D01*
X126333063Y-50421197D01*
X126322377Y-50411995D01*
X126312812Y-50416398D01*
X125572022Y-51157188D01*
X125564408Y-51171132D01*
X124834356Y-51171132D01*
X124835592Y-51168868D01*
X124835461Y-51167035D01*
X124831210Y-51160420D01*
X124089849Y-50419059D01*
X124078313Y-50412759D01*
X124066031Y-50422382D01*
X124018089Y-50492662D01*
X124013004Y-50501613D01*
X123923338Y-50694783D01*
X123919775Y-50704470D01*
X123862864Y-50909681D01*
X123860933Y-50919800D01*
X123838302Y-51131574D01*
X123838050Y-51141863D01*
X112408686Y-51141863D01*
X114275144Y-49275405D01*
X114337456Y-49241379D01*
X114364239Y-49238500D01*
X123908954Y-49238500D01*
X123977075Y-49258502D01*
X124016387Y-49298665D01*
X124099987Y-49435088D01*
X124246250Y-49603938D01*
X124418126Y-49746632D01*
X124491955Y-49789774D01*
X124540679Y-49841412D01*
X124553750Y-49911195D01*
X124527019Y-49976967D01*
X124486562Y-50010327D01*
X124478460Y-50014544D01*
X124469734Y-50020039D01*
X124449677Y-50035099D01*
X124441223Y-50046427D01*
X124447968Y-50058758D01*
X125187188Y-50797978D01*
X125201132Y-50805592D01*
X125202965Y-50805461D01*
X125209580Y-50801210D01*
X125953389Y-50057401D01*
X125960410Y-50044544D01*
X125953611Y-50035213D01*
X125949559Y-50032521D01*
X125912602Y-50012120D01*
X125862631Y-49961687D01*
X125847859Y-49892245D01*
X125872975Y-49825839D01*
X125900327Y-49799232D01*
X125923797Y-49782491D01*
X126079860Y-49671173D01*
X126238096Y-49513489D01*
X126300372Y-49426823D01*
X126365435Y-49336277D01*
X126368453Y-49332077D01*
X126397532Y-49273241D01*
X126465136Y-49136453D01*
X126465137Y-49136451D01*
X126467430Y-49131811D01*
X126532370Y-48918069D01*
X126561529Y-48696590D01*
X126563156Y-48630000D01*
X126544852Y-48407361D01*
X126490431Y-48190702D01*
X126401354Y-47985840D01*
X126356281Y-47916168D01*
X126282822Y-47802617D01*
X126282820Y-47802614D01*
X126280014Y-47798277D01*
X126129670Y-47633051D01*
X126125619Y-47629852D01*
X126125615Y-47629848D01*
X125958414Y-47497800D01*
X125958410Y-47497798D01*
X125954359Y-47494598D01*
X125913053Y-47471796D01*
X125863084Y-47421364D01*
X125848312Y-47351921D01*
X125873428Y-47285516D01*
X125900780Y-47258909D01*
X125944603Y-47227650D01*
X126079860Y-47131173D01*
X126238096Y-46973489D01*
X126271786Y-46926605D01*
X126365435Y-46796277D01*
X126368453Y-46792077D01*
X126371131Y-46786660D01*
X126465136Y-46596453D01*
X126465137Y-46596451D01*
X126467430Y-46591811D01*
X126532370Y-46378069D01*
X126561529Y-46156590D01*
X126563156Y-46090000D01*
X126544852Y-45867361D01*
X126490431Y-45650702D01*
X126401354Y-45445840D01*
X126336541Y-45345654D01*
X126282822Y-45262617D01*
X126282820Y-45262614D01*
X126280014Y-45258277D01*
X126129670Y-45093051D01*
X126125619Y-45089852D01*
X126125615Y-45089848D01*
X125958414Y-44957800D01*
X125958410Y-44957798D01*
X125954359Y-44954598D01*
X125913053Y-44931796D01*
X125863084Y-44881364D01*
X125848312Y-44811921D01*
X125873428Y-44745516D01*
X125900780Y-44718909D01*
X125974646Y-44666221D01*
X126079860Y-44591173D01*
X126238096Y-44433489D01*
X126264836Y-44396277D01*
X126365435Y-44256277D01*
X126368453Y-44252077D01*
X126374193Y-44240464D01*
X126465136Y-44056453D01*
X126465137Y-44056451D01*
X126467430Y-44051811D01*
X126528255Y-43851614D01*
X126530865Y-43843023D01*
X126530865Y-43843021D01*
X126532370Y-43838069D01*
X126561529Y-43616590D01*
X126561611Y-43613240D01*
X126563074Y-43553365D01*
X126563074Y-43553361D01*
X126563156Y-43550000D01*
X126544852Y-43327361D01*
X126490431Y-43110702D01*
X126401354Y-42905840D01*
X126333439Y-42800859D01*
X126282822Y-42722617D01*
X126282820Y-42722614D01*
X126280014Y-42718277D01*
X126129670Y-42553051D01*
X126125619Y-42549852D01*
X126125615Y-42549848D01*
X125958414Y-42417800D01*
X125958410Y-42417798D01*
X125954359Y-42414598D01*
X125758789Y-42306638D01*
X125753920Y-42304914D01*
X125753916Y-42304912D01*
X125553087Y-42233795D01*
X125553083Y-42233794D01*
X125548212Y-42232069D01*
X125543119Y-42231162D01*
X125543116Y-42231161D01*
X125333373Y-42193800D01*
X125333367Y-42193799D01*
X125328284Y-42192894D01*
X125254452Y-42191992D01*
X125110081Y-42190228D01*
X125110079Y-42190228D01*
X125104911Y-42190165D01*
X124884091Y-42223955D01*
X124671756Y-42293357D01*
X124644647Y-42307469D01*
X124506510Y-42379379D01*
X124473607Y-42396507D01*
X124469474Y-42399610D01*
X124469471Y-42399612D01*
X124299100Y-42527530D01*
X124294965Y-42530635D01*
X124273544Y-42553051D01*
X124158835Y-42673087D01*
X124140629Y-42692138D01*
X124137715Y-42696410D01*
X124137714Y-42696411D01*
X124072165Y-42792502D01*
X124014743Y-42876680D01*
X123976899Y-42958208D01*
X123938132Y-43041726D01*
X123920688Y-43079305D01*
X123860989Y-43294570D01*
X123837251Y-43516695D01*
X123837548Y-43521848D01*
X123837548Y-43521851D01*
X123847806Y-43699757D01*
X123850110Y-43739715D01*
X123851247Y-43744761D01*
X123851248Y-43744767D01*
X123882933Y-43885360D01*
X123878397Y-43956212D01*
X123849111Y-44002156D01*
X122423672Y-45427595D01*
X122361360Y-45461621D01*
X122334577Y-45464500D01*
X103244748Y-45464500D01*
X103176627Y-45444498D01*
X103130134Y-45390842D01*
X103120030Y-45320568D01*
X103149524Y-45255988D01*
X103205811Y-45218667D01*
X103260289Y-45200966D01*
X103260291Y-45200965D01*
X103266985Y-45198790D01*
X103314340Y-45170561D01*
X103407872Y-45114805D01*
X103407874Y-45114804D01*
X103413924Y-45111197D01*
X103537805Y-44993227D01*
X103546298Y-44980445D01*
X103609368Y-44885516D01*
X103632471Y-44850743D01*
X103672443Y-44745516D01*
X103690718Y-44697408D01*
X103690719Y-44697406D01*
X103693218Y-44690826D01*
X103697616Y-44659536D01*
X103699369Y-44647060D01*
X103728657Y-44582386D01*
X103735048Y-44575501D01*
X107248868Y-41061681D01*
X107311180Y-41027655D01*
X107370574Y-41029069D01*
X107456598Y-41052119D01*
X107456600Y-41052119D01*
X107461913Y-41053543D01*
X107690000Y-41073498D01*
X107695475Y-41073019D01*
X107695483Y-41073019D01*
X107704328Y-41072245D01*
X107773933Y-41086232D01*
X107824926Y-41135630D01*
X107841118Y-41204756D01*
X107817367Y-41271662D01*
X107804407Y-41286860D01*
X106374408Y-42716859D01*
X106325919Y-42747042D01*
X106174956Y-42798434D01*
X106174953Y-42798435D01*
X106168289Y-42800704D01*
X106022588Y-42890340D01*
X106017557Y-42895267D01*
X106017554Y-42895269D01*
X105978221Y-42933787D01*
X105900366Y-43010028D01*
X105896547Y-43015953D01*
X105896546Y-43015955D01*
X105874225Y-43050590D01*
X105807698Y-43153820D01*
X105805287Y-43160443D01*
X105805286Y-43160446D01*
X105751600Y-43307947D01*
X105751599Y-43307952D01*
X105749190Y-43314570D01*
X105727750Y-43484286D01*
X105744443Y-43654536D01*
X105798440Y-43816856D01*
X105802087Y-43822878D01*
X105802088Y-43822880D01*
X105883406Y-43957154D01*
X105883409Y-43957157D01*
X105887056Y-43963180D01*
X106005889Y-44086234D01*
X106149030Y-44179903D01*
X106155634Y-44182359D01*
X106155636Y-44182360D01*
X106302757Y-44237074D01*
X106302759Y-44237074D01*
X106309367Y-44239532D01*
X106388454Y-44250085D01*
X106471949Y-44261226D01*
X106471953Y-44261226D01*
X106478930Y-44262157D01*
X106485941Y-44261519D01*
X106485945Y-44261519D01*
X106642273Y-44247292D01*
X106642275Y-44247292D01*
X106649292Y-44246653D01*
X106655990Y-44244477D01*
X106655993Y-44244476D01*
X106805289Y-44195966D01*
X106805291Y-44195965D01*
X106811985Y-44193790D01*
X106958924Y-44106197D01*
X107082805Y-43988227D01*
X107092963Y-43972939D01*
X107146971Y-43891649D01*
X107177471Y-43845743D01*
X107238218Y-43685826D01*
X107239199Y-43678848D01*
X107240753Y-43672794D01*
X107273700Y-43615032D01*
X109818983Y-41069750D01*
X109881295Y-41035724D01*
X109940690Y-41037139D01*
X109996591Y-41052118D01*
X109996602Y-41052120D01*
X110001913Y-41053543D01*
X110230000Y-41073498D01*
X110458087Y-41053543D01*
X110463400Y-41052119D01*
X110463402Y-41052119D01*
X110673933Y-40995707D01*
X110673935Y-40995706D01*
X110679243Y-40994284D01*
X110685235Y-40991490D01*
X110881762Y-40899849D01*
X110881767Y-40899846D01*
X110886749Y-40897523D01*
X111048254Y-40784436D01*
X111069789Y-40769357D01*
X111069792Y-40769355D01*
X111074300Y-40766198D01*
X111236198Y-40604300D01*
X111367523Y-40416749D01*
X111369846Y-40411767D01*
X111369849Y-40411762D01*
X111385805Y-40377543D01*
X111432722Y-40324258D01*
X111500999Y-40304797D01*
X111568959Y-40325339D01*
X111614195Y-40377543D01*
X111630151Y-40411762D01*
X111630154Y-40411767D01*
X111632477Y-40416749D01*
X111763802Y-40604300D01*
X111925700Y-40766198D01*
X111930208Y-40769355D01*
X111930211Y-40769357D01*
X111951746Y-40784436D01*
X112113251Y-40897523D01*
X112118233Y-40899846D01*
X112118238Y-40899849D01*
X112314765Y-40991490D01*
X112320757Y-40994284D01*
X112326065Y-40995706D01*
X112326067Y-40995707D01*
X112536598Y-41052119D01*
X112536600Y-41052119D01*
X112541913Y-41053543D01*
X112770000Y-41073498D01*
X112998087Y-41053543D01*
X113003400Y-41052119D01*
X113003402Y-41052119D01*
X113213933Y-40995707D01*
X113213935Y-40995706D01*
X113219243Y-40994284D01*
X113225235Y-40991490D01*
X113421762Y-40899849D01*
X113421767Y-40899846D01*
X113426749Y-40897523D01*
X113588254Y-40784436D01*
X113609789Y-40769357D01*
X113609792Y-40769355D01*
X113614300Y-40766198D01*
X113776198Y-40604300D01*
X113907523Y-40416749D01*
X113909846Y-40411767D01*
X113909849Y-40411762D01*
X113925805Y-40377543D01*
X113972722Y-40324258D01*
X114040999Y-40304797D01*
X114108959Y-40325339D01*
X114154195Y-40377543D01*
X114170151Y-40411762D01*
X114170154Y-40411767D01*
X114172477Y-40416749D01*
X114303802Y-40604300D01*
X114465700Y-40766198D01*
X114470208Y-40769355D01*
X114470211Y-40769357D01*
X114491746Y-40784436D01*
X114653251Y-40897523D01*
X114658233Y-40899846D01*
X114658238Y-40899849D01*
X114854765Y-40991490D01*
X114860757Y-40994284D01*
X114866065Y-40995706D01*
X114866067Y-40995707D01*
X115076598Y-41052119D01*
X115076600Y-41052119D01*
X115081913Y-41053543D01*
X115310000Y-41073498D01*
X115538087Y-41053543D01*
X115543400Y-41052119D01*
X115543402Y-41052119D01*
X115753933Y-40995707D01*
X115753935Y-40995706D01*
X115759243Y-40994284D01*
X115765235Y-40991490D01*
X115961762Y-40899849D01*
X115961767Y-40899846D01*
X115966749Y-40897523D01*
X116128254Y-40784436D01*
X116149789Y-40769357D01*
X116149792Y-40769355D01*
X116154300Y-40766198D01*
X116316198Y-40604300D01*
X116447523Y-40416749D01*
X116449846Y-40411767D01*
X116449849Y-40411762D01*
X116465805Y-40377543D01*
X116512722Y-40324258D01*
X116580999Y-40304797D01*
X116648959Y-40325339D01*
X116694195Y-40377543D01*
X116710151Y-40411762D01*
X116710154Y-40411767D01*
X116712477Y-40416749D01*
X116843802Y-40604300D01*
X117005700Y-40766198D01*
X117010208Y-40769355D01*
X117010211Y-40769357D01*
X117031746Y-40784436D01*
X117193251Y-40897523D01*
X117198233Y-40899846D01*
X117198238Y-40899849D01*
X117394765Y-40991490D01*
X117400757Y-40994284D01*
X117406065Y-40995706D01*
X117406067Y-40995707D01*
X117616598Y-41052119D01*
X117616600Y-41052119D01*
X117621913Y-41053543D01*
X117850000Y-41073498D01*
X118078087Y-41053543D01*
X118083400Y-41052119D01*
X118083402Y-41052119D01*
X118293933Y-40995707D01*
X118293935Y-40995706D01*
X118299243Y-40994284D01*
X118305235Y-40991490D01*
X118501762Y-40899849D01*
X118501767Y-40899846D01*
X118506749Y-40897523D01*
X118668254Y-40784436D01*
X118689789Y-40769357D01*
X118689792Y-40769355D01*
X118694300Y-40766198D01*
X118856198Y-40604300D01*
X118987523Y-40416749D01*
X118989846Y-40411767D01*
X118989849Y-40411762D01*
X119005805Y-40377543D01*
X119052722Y-40324258D01*
X119120999Y-40304797D01*
X119188959Y-40325339D01*
X119234195Y-40377543D01*
X119250151Y-40411762D01*
X119250154Y-40411767D01*
X119252477Y-40416749D01*
X119383802Y-40604300D01*
X119545700Y-40766198D01*
X119550208Y-40769355D01*
X119550211Y-40769357D01*
X119571746Y-40784436D01*
X119733251Y-40897523D01*
X119738233Y-40899846D01*
X119738238Y-40899849D01*
X119934765Y-40991490D01*
X119940757Y-40994284D01*
X119946065Y-40995706D01*
X119946067Y-40995707D01*
X120156598Y-41052119D01*
X120156600Y-41052119D01*
X120161913Y-41053543D01*
X120390000Y-41073498D01*
X120618087Y-41053543D01*
X120623400Y-41052119D01*
X120623402Y-41052119D01*
X120833933Y-40995707D01*
X120833935Y-40995706D01*
X120839243Y-40994284D01*
X120845235Y-40991490D01*
X121041762Y-40899849D01*
X121041767Y-40899846D01*
X121046749Y-40897523D01*
X121208254Y-40784436D01*
X121229789Y-40769357D01*
X121229792Y-40769355D01*
X121234300Y-40766198D01*
X121396198Y-40604300D01*
X121527523Y-40416749D01*
X121529846Y-40411767D01*
X121529849Y-40411762D01*
X121545805Y-40377543D01*
X121592722Y-40324258D01*
X121660999Y-40304797D01*
X121728959Y-40325339D01*
X121774195Y-40377543D01*
X121790151Y-40411762D01*
X121790154Y-40411767D01*
X121792477Y-40416749D01*
X121923802Y-40604300D01*
X122085700Y-40766198D01*
X122090208Y-40769355D01*
X122090211Y-40769357D01*
X122111746Y-40784436D01*
X122273251Y-40897523D01*
X122278233Y-40899846D01*
X122278238Y-40899849D01*
X122474765Y-40991490D01*
X122480757Y-40994284D01*
X122486065Y-40995706D01*
X122486067Y-40995707D01*
X122696598Y-41052119D01*
X122696600Y-41052119D01*
X122701913Y-41053543D01*
X122930000Y-41073498D01*
X123158087Y-41053543D01*
X123163400Y-41052119D01*
X123163402Y-41052119D01*
X123373933Y-40995707D01*
X123373935Y-40995706D01*
X123379243Y-40994284D01*
X123385235Y-40991490D01*
X123581762Y-40899849D01*
X123581767Y-40899846D01*
X123586749Y-40897523D01*
X123748254Y-40784436D01*
X123769789Y-40769357D01*
X123769792Y-40769355D01*
X123774300Y-40766198D01*
X123936198Y-40604300D01*
X124067523Y-40416749D01*
X124069846Y-40411767D01*
X124069849Y-40411762D01*
X124085805Y-40377543D01*
X124132722Y-40324258D01*
X124200999Y-40304797D01*
X124268959Y-40325339D01*
X124314195Y-40377543D01*
X124330151Y-40411762D01*
X124330154Y-40411767D01*
X124332477Y-40416749D01*
X124463802Y-40604300D01*
X124625700Y-40766198D01*
X124630208Y-40769355D01*
X124630211Y-40769357D01*
X124651746Y-40784436D01*
X124813251Y-40897523D01*
X124818233Y-40899846D01*
X124818238Y-40899849D01*
X125014765Y-40991490D01*
X125020757Y-40994284D01*
X125026065Y-40995706D01*
X125026067Y-40995707D01*
X125236598Y-41052119D01*
X125236600Y-41052119D01*
X125241913Y-41053543D01*
X125470000Y-41073498D01*
X125698087Y-41053543D01*
X125703400Y-41052119D01*
X125703402Y-41052119D01*
X125913933Y-40995707D01*
X125913935Y-40995706D01*
X125919243Y-40994284D01*
X125925235Y-40991490D01*
X126121762Y-40899849D01*
X126121767Y-40899846D01*
X126126749Y-40897523D01*
X126288254Y-40784436D01*
X126309789Y-40769357D01*
X126309792Y-40769355D01*
X126314300Y-40766198D01*
X126476198Y-40604300D01*
X126607523Y-40416749D01*
X126609846Y-40411767D01*
X126609849Y-40411762D01*
X126625805Y-40377543D01*
X126672722Y-40324258D01*
X126740999Y-40304797D01*
X126808959Y-40325339D01*
X126854195Y-40377543D01*
X126870151Y-40411762D01*
X126870154Y-40411767D01*
X126872477Y-40416749D01*
X127003802Y-40604300D01*
X127165700Y-40766198D01*
X127170208Y-40769355D01*
X127170211Y-40769357D01*
X127191746Y-40784436D01*
X127353251Y-40897523D01*
X127358233Y-40899846D01*
X127358238Y-40899849D01*
X127554765Y-40991490D01*
X127560757Y-40994284D01*
X127566065Y-40995706D01*
X127566067Y-40995707D01*
X127776598Y-41052119D01*
X127776600Y-41052119D01*
X127781913Y-41053543D01*
X128010000Y-41073498D01*
X128238087Y-41053543D01*
X128243400Y-41052119D01*
X128243402Y-41052119D01*
X128453933Y-40995707D01*
X128453935Y-40995706D01*
X128459243Y-40994284D01*
X128465235Y-40991490D01*
X128661762Y-40899849D01*
X128661767Y-40899846D01*
X128666749Y-40897523D01*
X128828254Y-40784436D01*
X128849789Y-40769357D01*
X128849792Y-40769355D01*
X128854300Y-40766198D01*
X129016198Y-40604300D01*
X129147523Y-40416749D01*
X129149846Y-40411767D01*
X129149849Y-40411762D01*
X129241961Y-40214225D01*
X129241961Y-40214224D01*
X129244284Y-40209243D01*
X129251508Y-40182285D01*
X129302119Y-39993402D01*
X129302119Y-39993400D01*
X129303543Y-39988087D01*
X129323498Y-39760000D01*
X129303543Y-39531913D01*
X129263399Y-39382095D01*
X129245707Y-39316067D01*
X129245706Y-39316065D01*
X129244284Y-39310757D01*
X129241961Y-39305775D01*
X129149849Y-39108238D01*
X129149846Y-39108233D01*
X129147523Y-39103251D01*
X129103355Y-39040172D01*
X129080667Y-38972899D01*
X129097952Y-38904039D01*
X129149721Y-38855454D01*
X129167006Y-38848274D01*
X129205544Y-38835529D01*
X129211891Y-38833041D01*
X129531718Y-38687288D01*
X129537777Y-38684121D01*
X129839995Y-38504676D01*
X129845659Y-38500884D01*
X130126732Y-38289849D01*
X130131958Y-38285464D01*
X130141613Y-38276428D01*
X130149682Y-38262750D01*
X130149654Y-38262024D01*
X130144512Y-38253723D01*
X128012810Y-36122020D01*
X127998869Y-36114408D01*
X127997034Y-36114539D01*
X127990420Y-36118790D01*
X125856774Y-38252437D01*
X125849160Y-38266381D01*
X125849238Y-38267472D01*
X125858472Y-38281496D01*
X125879230Y-38349390D01*
X125859986Y-38417729D01*
X125806851Y-38464815D01*
X125736693Y-38475699D01*
X125720625Y-38472496D01*
X125703406Y-38467882D01*
X125703403Y-38467882D01*
X125698087Y-38466457D01*
X125470000Y-38446502D01*
X125241913Y-38466457D01*
X125236600Y-38467881D01*
X125236598Y-38467881D01*
X125026067Y-38524293D01*
X125026065Y-38524294D01*
X125020757Y-38525716D01*
X125015776Y-38528039D01*
X125015775Y-38528039D01*
X124818238Y-38620151D01*
X124818233Y-38620154D01*
X124813251Y-38622477D01*
X124720692Y-38687288D01*
X124630211Y-38750643D01*
X124630208Y-38750645D01*
X124625700Y-38753802D01*
X124463802Y-38915700D01*
X124460645Y-38920208D01*
X124460643Y-38920211D01*
X124447875Y-38938446D01*
X124332477Y-39103251D01*
X124330154Y-39108233D01*
X124330151Y-39108238D01*
X124314195Y-39142457D01*
X124267278Y-39195742D01*
X124199001Y-39215203D01*
X124131041Y-39194661D01*
X124085805Y-39142457D01*
X124069849Y-39108238D01*
X124069846Y-39108233D01*
X124067523Y-39103251D01*
X123952125Y-38938446D01*
X123939357Y-38920211D01*
X123939355Y-38920208D01*
X123936198Y-38915700D01*
X123774300Y-38753802D01*
X123769792Y-38750645D01*
X123769789Y-38750643D01*
X123679308Y-38687288D01*
X123586749Y-38622477D01*
X123581767Y-38620154D01*
X123581762Y-38620151D01*
X123384225Y-38528039D01*
X123384224Y-38528039D01*
X123379243Y-38525716D01*
X123373935Y-38524294D01*
X123373933Y-38524293D01*
X123163402Y-38467881D01*
X123163400Y-38467881D01*
X123158087Y-38466457D01*
X122930000Y-38446502D01*
X122701913Y-38466457D01*
X122696600Y-38467881D01*
X122696598Y-38467881D01*
X122486067Y-38524293D01*
X122486065Y-38524294D01*
X122480757Y-38525716D01*
X122475776Y-38528039D01*
X122475775Y-38528039D01*
X122278238Y-38620151D01*
X122278233Y-38620154D01*
X122273251Y-38622477D01*
X122180692Y-38687288D01*
X122090211Y-38750643D01*
X122090208Y-38750645D01*
X122085700Y-38753802D01*
X121923802Y-38915700D01*
X121920645Y-38920208D01*
X121920643Y-38920211D01*
X121907875Y-38938446D01*
X121792477Y-39103251D01*
X121790154Y-39108233D01*
X121790151Y-39108238D01*
X121774195Y-39142457D01*
X121727278Y-39195742D01*
X121659001Y-39215203D01*
X121591041Y-39194661D01*
X121545805Y-39142457D01*
X121529849Y-39108238D01*
X121529846Y-39108233D01*
X121527523Y-39103251D01*
X121412125Y-38938446D01*
X121399357Y-38920211D01*
X121399355Y-38920208D01*
X121396198Y-38915700D01*
X121234300Y-38753802D01*
X121229792Y-38750645D01*
X121229789Y-38750643D01*
X121139308Y-38687288D01*
X121046749Y-38622477D01*
X121041767Y-38620154D01*
X121041762Y-38620151D01*
X120844225Y-38528039D01*
X120844224Y-38528039D01*
X120839243Y-38525716D01*
X120833935Y-38524294D01*
X120833933Y-38524293D01*
X120623402Y-38467881D01*
X120623400Y-38467881D01*
X120618087Y-38466457D01*
X120390000Y-38446502D01*
X120161913Y-38466457D01*
X120156600Y-38467881D01*
X120156598Y-38467881D01*
X119946067Y-38524293D01*
X119946065Y-38524294D01*
X119940757Y-38525716D01*
X119935776Y-38528039D01*
X119935775Y-38528039D01*
X119738238Y-38620151D01*
X119738233Y-38620154D01*
X119733251Y-38622477D01*
X119640692Y-38687288D01*
X119550211Y-38750643D01*
X119550208Y-38750645D01*
X119545700Y-38753802D01*
X119383802Y-38915700D01*
X119380645Y-38920208D01*
X119380643Y-38920211D01*
X119367875Y-38938446D01*
X119252477Y-39103251D01*
X119250154Y-39108233D01*
X119250151Y-39108238D01*
X119234195Y-39142457D01*
X119187278Y-39195742D01*
X119119001Y-39215203D01*
X119051041Y-39194661D01*
X119005805Y-39142457D01*
X118989849Y-39108238D01*
X118989846Y-39108233D01*
X118987523Y-39103251D01*
X118872125Y-38938446D01*
X118859357Y-38920211D01*
X118859355Y-38920208D01*
X118856198Y-38915700D01*
X118694300Y-38753802D01*
X118689792Y-38750645D01*
X118689789Y-38750643D01*
X118599308Y-38687288D01*
X118506749Y-38622477D01*
X118501767Y-38620154D01*
X118501762Y-38620151D01*
X118304225Y-38528039D01*
X118304224Y-38528039D01*
X118299243Y-38525716D01*
X118293935Y-38524294D01*
X118293933Y-38524293D01*
X118083402Y-38467881D01*
X118083400Y-38467881D01*
X118078087Y-38466457D01*
X117850000Y-38446502D01*
X117621913Y-38466457D01*
X117616600Y-38467881D01*
X117616598Y-38467881D01*
X117406067Y-38524293D01*
X117406065Y-38524294D01*
X117400757Y-38525716D01*
X117395776Y-38528039D01*
X117395775Y-38528039D01*
X117198238Y-38620151D01*
X117198233Y-38620154D01*
X117193251Y-38622477D01*
X117100692Y-38687288D01*
X117010211Y-38750643D01*
X117010208Y-38750645D01*
X117005700Y-38753802D01*
X116843802Y-38915700D01*
X116840645Y-38920208D01*
X116840643Y-38920211D01*
X116827875Y-38938446D01*
X116712477Y-39103251D01*
X116710154Y-39108233D01*
X116710151Y-39108238D01*
X116694195Y-39142457D01*
X116647278Y-39195742D01*
X116579001Y-39215203D01*
X116511041Y-39194661D01*
X116465805Y-39142457D01*
X116449849Y-39108238D01*
X116449846Y-39108233D01*
X116447523Y-39103251D01*
X116332125Y-38938446D01*
X116319357Y-38920211D01*
X116319355Y-38920208D01*
X116316198Y-38915700D01*
X116154300Y-38753802D01*
X116149792Y-38750645D01*
X116149789Y-38750643D01*
X116059308Y-38687288D01*
X115966749Y-38622477D01*
X115961767Y-38620154D01*
X115961762Y-38620151D01*
X115764225Y-38528039D01*
X115764224Y-38528039D01*
X115759243Y-38525716D01*
X115753935Y-38524294D01*
X115753933Y-38524293D01*
X115543402Y-38467881D01*
X115543400Y-38467881D01*
X115538087Y-38466457D01*
X115310000Y-38446502D01*
X115081913Y-38466457D01*
X115076600Y-38467881D01*
X115076598Y-38467881D01*
X114866067Y-38524293D01*
X114866065Y-38524294D01*
X114860757Y-38525716D01*
X114855776Y-38528039D01*
X114855775Y-38528039D01*
X114658238Y-38620151D01*
X114658233Y-38620154D01*
X114653251Y-38622477D01*
X114560692Y-38687288D01*
X114470211Y-38750643D01*
X114470208Y-38750645D01*
X114465700Y-38753802D01*
X114303802Y-38915700D01*
X114300645Y-38920208D01*
X114300643Y-38920211D01*
X114287875Y-38938446D01*
X114172477Y-39103251D01*
X114170154Y-39108233D01*
X114170151Y-39108238D01*
X114154195Y-39142457D01*
X114107278Y-39195742D01*
X114039001Y-39215203D01*
X113971041Y-39194661D01*
X113925805Y-39142457D01*
X113909849Y-39108238D01*
X113909846Y-39108233D01*
X113907523Y-39103251D01*
X113792125Y-38938446D01*
X113779357Y-38920211D01*
X113779355Y-38920208D01*
X113776198Y-38915700D01*
X113614300Y-38753802D01*
X113609792Y-38750645D01*
X113609789Y-38750643D01*
X113519308Y-38687288D01*
X113426749Y-38622477D01*
X113421767Y-38620154D01*
X113421762Y-38620151D01*
X113224225Y-38528039D01*
X113224224Y-38528039D01*
X113219243Y-38525716D01*
X113213935Y-38524294D01*
X113213933Y-38524293D01*
X113003402Y-38467881D01*
X113003400Y-38467881D01*
X112998087Y-38466457D01*
X112770000Y-38446502D01*
X112541913Y-38466457D01*
X112536600Y-38467881D01*
X112536598Y-38467881D01*
X112326067Y-38524293D01*
X112326065Y-38524294D01*
X112320757Y-38525716D01*
X112315776Y-38528039D01*
X112315775Y-38528039D01*
X112118238Y-38620151D01*
X112118233Y-38620154D01*
X112113251Y-38622477D01*
X112020692Y-38687288D01*
X111930211Y-38750643D01*
X111930208Y-38750645D01*
X111925700Y-38753802D01*
X111763802Y-38915700D01*
X111760645Y-38920208D01*
X111760643Y-38920211D01*
X111747875Y-38938446D01*
X111632477Y-39103251D01*
X111630154Y-39108233D01*
X111630151Y-39108238D01*
X111614195Y-39142457D01*
X111567278Y-39195742D01*
X111499001Y-39215203D01*
X111431041Y-39194661D01*
X111385805Y-39142457D01*
X111369849Y-39108238D01*
X111369846Y-39108233D01*
X111367523Y-39103251D01*
X111252125Y-38938446D01*
X111239357Y-38920211D01*
X111239355Y-38920208D01*
X111236198Y-38915700D01*
X111074300Y-38753802D01*
X111069792Y-38750645D01*
X111069789Y-38750643D01*
X110979308Y-38687288D01*
X110886749Y-38622477D01*
X110881767Y-38620154D01*
X110881762Y-38620151D01*
X110684225Y-38528039D01*
X110684224Y-38528039D01*
X110679243Y-38525716D01*
X110673935Y-38524294D01*
X110673933Y-38524293D01*
X110463402Y-38467881D01*
X110463400Y-38467881D01*
X110458087Y-38466457D01*
X110230000Y-38446502D01*
X110001913Y-38466457D01*
X109996600Y-38467881D01*
X109996598Y-38467881D01*
X109786067Y-38524293D01*
X109786065Y-38524294D01*
X109780757Y-38525716D01*
X109775776Y-38528039D01*
X109775775Y-38528039D01*
X109578238Y-38620151D01*
X109578233Y-38620154D01*
X109573251Y-38622477D01*
X109480692Y-38687288D01*
X109390211Y-38750643D01*
X109390208Y-38750645D01*
X109385700Y-38753802D01*
X109223802Y-38915700D01*
X109220645Y-38920208D01*
X109220643Y-38920211D01*
X109207875Y-38938446D01*
X109092477Y-39103251D01*
X109090154Y-39108233D01*
X109090151Y-39108238D01*
X109074195Y-39142457D01*
X109027278Y-39195742D01*
X108959001Y-39215203D01*
X108891041Y-39194661D01*
X108845805Y-39142457D01*
X108829849Y-39108238D01*
X108829846Y-39108233D01*
X108827523Y-39103251D01*
X108712125Y-38938446D01*
X108699357Y-38920211D01*
X108699355Y-38920208D01*
X108696198Y-38915700D01*
X108534300Y-38753802D01*
X108529792Y-38750645D01*
X108529789Y-38750643D01*
X108439308Y-38687288D01*
X108346749Y-38622477D01*
X108341767Y-38620154D01*
X108341762Y-38620151D01*
X108144225Y-38528039D01*
X108144224Y-38528039D01*
X108139243Y-38525716D01*
X108133935Y-38524294D01*
X108133933Y-38524293D01*
X107923402Y-38467881D01*
X107923400Y-38467881D01*
X107918087Y-38466457D01*
X107690000Y-38446502D01*
X107461913Y-38466457D01*
X107456600Y-38467881D01*
X107456598Y-38467881D01*
X107246067Y-38524293D01*
X107246065Y-38524294D01*
X107240757Y-38525716D01*
X107235776Y-38528039D01*
X107235775Y-38528039D01*
X107038238Y-38620151D01*
X107038233Y-38620154D01*
X107033251Y-38622477D01*
X106940692Y-38687288D01*
X106850211Y-38750643D01*
X106850208Y-38750645D01*
X106845700Y-38753802D01*
X106683802Y-38915700D01*
X106680645Y-38920208D01*
X106680643Y-38920211D01*
X106667875Y-38938446D01*
X106552477Y-39103251D01*
X106550154Y-39108233D01*
X106550151Y-39108238D01*
X106534195Y-39142457D01*
X106487278Y-39195742D01*
X106419001Y-39215203D01*
X106351041Y-39194661D01*
X106305805Y-39142457D01*
X106289849Y-39108238D01*
X106289846Y-39108233D01*
X106287523Y-39103251D01*
X106172125Y-38938446D01*
X106159357Y-38920211D01*
X106159355Y-38920208D01*
X106156198Y-38915700D01*
X105994300Y-38753802D01*
X105989792Y-38750645D01*
X105989789Y-38750643D01*
X105899308Y-38687288D01*
X105806749Y-38622477D01*
X105801767Y-38620154D01*
X105801762Y-38620151D01*
X105604225Y-38528039D01*
X105604224Y-38528039D01*
X105599243Y-38525716D01*
X105593935Y-38524294D01*
X105593933Y-38524293D01*
X105383402Y-38467881D01*
X105383400Y-38467881D01*
X105378087Y-38466457D01*
X105150000Y-38446502D01*
X104921913Y-38466457D01*
X104916600Y-38467881D01*
X104916598Y-38467881D01*
X104706067Y-38524293D01*
X104706065Y-38524294D01*
X104700757Y-38525716D01*
X104695776Y-38528039D01*
X104695775Y-38528039D01*
X104498238Y-38620151D01*
X104498233Y-38620154D01*
X104493251Y-38622477D01*
X104400692Y-38687288D01*
X104310211Y-38750643D01*
X104310208Y-38750645D01*
X104305700Y-38753802D01*
X104143802Y-38915700D01*
X104140645Y-38920208D01*
X104140643Y-38920211D01*
X104127875Y-38938446D01*
X104012477Y-39103251D01*
X104010154Y-39108233D01*
X104010151Y-39108238D01*
X103994195Y-39142457D01*
X103947278Y-39195742D01*
X103879001Y-39215203D01*
X103811041Y-39194661D01*
X103765805Y-39142457D01*
X103749849Y-39108238D01*
X103749846Y-39108233D01*
X103747523Y-39103251D01*
X103632125Y-38938446D01*
X103619357Y-38920211D01*
X103619355Y-38920208D01*
X103616198Y-38915700D01*
X103454300Y-38753802D01*
X103449792Y-38750645D01*
X103449789Y-38750643D01*
X103359308Y-38687288D01*
X103266749Y-38622477D01*
X103261767Y-38620154D01*
X103261762Y-38620151D01*
X103064225Y-38528039D01*
X103064224Y-38528039D01*
X103059243Y-38525716D01*
X103053935Y-38524294D01*
X103053933Y-38524293D01*
X102843402Y-38467881D01*
X102843400Y-38467881D01*
X102838087Y-38466457D01*
X102610000Y-38446502D01*
X102381913Y-38466457D01*
X102376600Y-38467881D01*
X102376598Y-38467881D01*
X102166067Y-38524293D01*
X102166065Y-38524294D01*
X102160757Y-38525716D01*
X102155776Y-38528039D01*
X102155775Y-38528039D01*
X101958238Y-38620151D01*
X101958233Y-38620154D01*
X101953251Y-38622477D01*
X101860692Y-38687288D01*
X101770211Y-38750643D01*
X101770208Y-38750645D01*
X101765700Y-38753802D01*
X101603802Y-38915700D01*
X101600645Y-38920208D01*
X101600643Y-38920211D01*
X101587875Y-38938446D01*
X101472477Y-39103251D01*
X101470154Y-39108233D01*
X101470151Y-39108238D01*
X101454195Y-39142457D01*
X101407278Y-39195742D01*
X101339001Y-39215203D01*
X101271041Y-39194661D01*
X101225805Y-39142457D01*
X101209849Y-39108238D01*
X101209846Y-39108233D01*
X101207523Y-39103251D01*
X101092125Y-38938446D01*
X101079357Y-38920211D01*
X101079355Y-38920208D01*
X101076198Y-38915700D01*
X100914300Y-38753802D01*
X100909792Y-38750645D01*
X100909789Y-38750643D01*
X100819308Y-38687288D01*
X100726749Y-38622477D01*
X100721767Y-38620154D01*
X100721762Y-38620151D01*
X100524225Y-38528039D01*
X100524224Y-38528039D01*
X100519243Y-38525716D01*
X100513935Y-38524294D01*
X100513933Y-38524293D01*
X100303402Y-38467881D01*
X100303400Y-38467881D01*
X100298087Y-38466457D01*
X100070000Y-38446502D01*
X99841913Y-38466457D01*
X99836600Y-38467881D01*
X99836598Y-38467881D01*
X99626067Y-38524293D01*
X99626065Y-38524294D01*
X99620757Y-38525716D01*
X99615776Y-38528039D01*
X99615775Y-38528039D01*
X99418238Y-38620151D01*
X99418233Y-38620154D01*
X99413251Y-38622477D01*
X99320692Y-38687288D01*
X99230211Y-38750643D01*
X99230208Y-38750645D01*
X99225700Y-38753802D01*
X99063802Y-38915700D01*
X99060645Y-38920208D01*
X99060643Y-38920211D01*
X99047875Y-38938446D01*
X98932477Y-39103251D01*
X98930154Y-39108233D01*
X98930151Y-39108238D01*
X98914195Y-39142457D01*
X98867278Y-39195742D01*
X98799001Y-39215203D01*
X98731041Y-39194661D01*
X98685805Y-39142457D01*
X98669849Y-39108238D01*
X98669846Y-39108233D01*
X98667523Y-39103251D01*
X98552125Y-38938446D01*
X98539357Y-38920211D01*
X98539355Y-38920208D01*
X98536198Y-38915700D01*
X98374300Y-38753802D01*
X98369792Y-38750645D01*
X98369789Y-38750643D01*
X98279308Y-38687288D01*
X98186749Y-38622477D01*
X98181767Y-38620154D01*
X98181762Y-38620151D01*
X97984225Y-38528039D01*
X97984224Y-38528039D01*
X97979243Y-38525716D01*
X97973935Y-38524294D01*
X97973933Y-38524293D01*
X97763402Y-38467881D01*
X97763400Y-38467881D01*
X97758087Y-38466457D01*
X97530000Y-38446502D01*
X97301913Y-38466457D01*
X97296600Y-38467881D01*
X97296598Y-38467881D01*
X97086067Y-38524293D01*
X97086065Y-38524294D01*
X97080757Y-38525716D01*
X97075776Y-38528039D01*
X97075775Y-38528039D01*
X96878238Y-38620151D01*
X96878233Y-38620154D01*
X96873251Y-38622477D01*
X96780692Y-38687288D01*
X96690211Y-38750643D01*
X96690208Y-38750645D01*
X96685700Y-38753802D01*
X96523802Y-38915700D01*
X96520645Y-38920208D01*
X96520643Y-38920211D01*
X96507875Y-38938446D01*
X96392477Y-39103251D01*
X96390154Y-39108233D01*
X96390151Y-39108238D01*
X96373919Y-39143049D01*
X96327002Y-39196334D01*
X96258725Y-39215795D01*
X96190765Y-39195253D01*
X96145529Y-39143049D01*
X96129414Y-39108489D01*
X96123931Y-39098993D01*
X95998972Y-38920533D01*
X95991916Y-38912125D01*
X95837875Y-38758084D01*
X95829467Y-38751028D01*
X95651007Y-38626069D01*
X95641511Y-38620586D01*
X95444053Y-38528510D01*
X95433761Y-38524764D01*
X95261497Y-38478606D01*
X95247401Y-38478942D01*
X95244000Y-38486884D01*
X95244000Y-41027967D01*
X95247973Y-41041498D01*
X95256522Y-41042727D01*
X95433761Y-40995236D01*
X95444053Y-40991490D01*
X95641511Y-40899414D01*
X95651007Y-40893931D01*
X95829467Y-40768972D01*
X95837875Y-40761916D01*
X95991916Y-40607875D01*
X95998972Y-40599467D01*
X96123931Y-40421007D01*
X96129414Y-40411511D01*
X96145529Y-40376951D01*
X96192446Y-40323666D01*
X96260723Y-40304205D01*
X96328683Y-40324747D01*
X96373919Y-40376951D01*
X96390151Y-40411762D01*
X96390154Y-40411767D01*
X96392477Y-40416749D01*
X96523802Y-40604300D01*
X96685700Y-40766198D01*
X96690208Y-40769355D01*
X96690211Y-40769357D01*
X96711746Y-40784436D01*
X96873251Y-40897523D01*
X96878233Y-40899846D01*
X96878238Y-40899849D01*
X97074765Y-40991490D01*
X97080757Y-40994284D01*
X97086065Y-40995706D01*
X97086067Y-40995707D01*
X97296598Y-41052119D01*
X97296600Y-41052119D01*
X97301913Y-41053543D01*
X97530000Y-41073498D01*
X97535475Y-41073019D01*
X97535485Y-41073019D01*
X97544330Y-41072245D01*
X97613935Y-41086232D01*
X97664928Y-41135631D01*
X97681119Y-41204757D01*
X97657368Y-41271663D01*
X97644408Y-41286860D01*
X95501679Y-43429588D01*
X93373672Y-45557595D01*
X93311360Y-45591621D01*
X93284577Y-45594500D01*
X75275511Y-45594500D01*
X75207390Y-45574498D01*
X75169719Y-45536940D01*
X75082822Y-45402617D01*
X75082820Y-45402614D01*
X75080014Y-45398277D01*
X74929670Y-45233051D01*
X74925619Y-45229852D01*
X74925615Y-45229848D01*
X74758414Y-45097800D01*
X74758410Y-45097798D01*
X74754359Y-45094598D01*
X74713053Y-45071796D01*
X74663084Y-45021364D01*
X74648312Y-44951921D01*
X74673428Y-44885516D01*
X74700780Y-44858909D01*
X74766655Y-44811921D01*
X74879860Y-44731173D01*
X75038096Y-44573489D01*
X75057809Y-44546056D01*
X75165435Y-44396277D01*
X75168453Y-44392077D01*
X75200833Y-44326562D01*
X75265136Y-44196453D01*
X75265137Y-44196451D01*
X75267430Y-44191811D01*
X75321141Y-44015028D01*
X75330865Y-43983023D01*
X75330865Y-43983021D01*
X75332370Y-43978069D01*
X75361529Y-43756590D01*
X75361716Y-43748938D01*
X75363074Y-43693365D01*
X75363074Y-43693361D01*
X75363156Y-43690000D01*
X75344852Y-43467361D01*
X75290431Y-43250702D01*
X75201354Y-43045840D01*
X75150573Y-42967344D01*
X75082822Y-42862617D01*
X75082820Y-42862614D01*
X75080014Y-42858277D01*
X75063071Y-42839657D01*
X74932798Y-42696488D01*
X74901746Y-42632642D01*
X74910141Y-42562143D01*
X74955317Y-42507375D01*
X74981761Y-42493706D01*
X75088297Y-42453767D01*
X75096705Y-42450615D01*
X75213261Y-42363261D01*
X75300615Y-42246705D01*
X75351745Y-42110316D01*
X75357211Y-42060000D01*
X84586526Y-42060000D01*
X84606391Y-42312403D01*
X84607545Y-42317210D01*
X84607546Y-42317216D01*
X84645179Y-42473968D01*
X84665495Y-42558591D01*
X84667388Y-42563162D01*
X84667389Y-42563164D01*
X84756806Y-42779035D01*
X84762384Y-42792502D01*
X84894672Y-43008376D01*
X85059102Y-43200898D01*
X85251624Y-43365328D01*
X85467498Y-43497616D01*
X85472068Y-43499509D01*
X85472072Y-43499511D01*
X85696836Y-43592611D01*
X85701409Y-43594505D01*
X85779447Y-43613240D01*
X85942784Y-43652454D01*
X85942790Y-43652455D01*
X85947597Y-43653609D01*
X86200000Y-43673474D01*
X86452403Y-43653609D01*
X86457210Y-43652455D01*
X86457216Y-43652454D01*
X86620553Y-43613240D01*
X86698591Y-43594505D01*
X86703164Y-43592611D01*
X86927928Y-43499511D01*
X86927932Y-43499509D01*
X86932502Y-43497616D01*
X87148376Y-43365328D01*
X87152131Y-43362121D01*
X87152135Y-43362118D01*
X87237548Y-43289167D01*
X87302505Y-43233689D01*
X87367294Y-43204658D01*
X87384335Y-43203500D01*
X90107195Y-43203500D01*
X90115436Y-43203770D01*
X90180061Y-43208006D01*
X90267973Y-43197601D01*
X90271186Y-43197264D01*
X90359279Y-43189169D01*
X90364839Y-43187601D01*
X90368412Y-43186939D01*
X90379415Y-43184750D01*
X90383028Y-43183982D01*
X90388765Y-43183303D01*
X90473276Y-43157062D01*
X90476373Y-43156146D01*
X90561549Y-43132123D01*
X90566737Y-43129565D01*
X90570188Y-43128240D01*
X90580566Y-43124099D01*
X90583953Y-43122696D01*
X90589473Y-43120982D01*
X90609013Y-43110702D01*
X90667745Y-43079802D01*
X90670682Y-43078305D01*
X90678175Y-43074610D01*
X90750037Y-43039171D01*
X90754668Y-43035713D01*
X90757871Y-43033750D01*
X90767258Y-43027827D01*
X90770351Y-43025818D01*
X90775463Y-43023129D01*
X90844956Y-42968344D01*
X90847526Y-42966373D01*
X90913801Y-42916884D01*
X90913808Y-42916877D01*
X90918429Y-42913427D01*
X90925443Y-42905840D01*
X90974261Y-42853028D01*
X90977691Y-42849462D01*
X92784702Y-41042452D01*
X92841185Y-41009841D01*
X92853085Y-41006652D01*
X92899243Y-40994284D01*
X92905235Y-40991490D01*
X93101762Y-40899849D01*
X93101767Y-40899846D01*
X93106749Y-40897523D01*
X93268254Y-40784436D01*
X93289789Y-40769357D01*
X93289792Y-40769355D01*
X93294300Y-40766198D01*
X93456198Y-40604300D01*
X93587523Y-40416749D01*
X93589846Y-40411767D01*
X93589849Y-40411762D01*
X93606081Y-40376951D01*
X93652998Y-40323666D01*
X93721275Y-40304205D01*
X93789235Y-40324747D01*
X93834471Y-40376951D01*
X93850586Y-40411511D01*
X93856069Y-40421007D01*
X93981028Y-40599467D01*
X93988084Y-40607875D01*
X94142125Y-40761916D01*
X94150533Y-40768972D01*
X94328993Y-40893931D01*
X94338489Y-40899414D01*
X94535947Y-40991490D01*
X94546239Y-40995236D01*
X94718503Y-41041394D01*
X94732599Y-41041058D01*
X94736000Y-41033116D01*
X94736000Y-38492033D01*
X94732027Y-38478502D01*
X94723478Y-38477273D01*
X94546239Y-38524764D01*
X94535947Y-38528510D01*
X94338489Y-38620586D01*
X94328993Y-38626069D01*
X94150533Y-38751028D01*
X94142125Y-38758084D01*
X93988084Y-38912125D01*
X93981028Y-38920533D01*
X93856069Y-39098993D01*
X93850586Y-39108489D01*
X93834471Y-39143049D01*
X93787554Y-39196334D01*
X93719277Y-39215795D01*
X93651317Y-39195253D01*
X93606081Y-39143049D01*
X93589849Y-39108238D01*
X93589846Y-39108233D01*
X93587523Y-39103251D01*
X93472125Y-38938446D01*
X93459357Y-38920211D01*
X93459355Y-38920208D01*
X93456198Y-38915700D01*
X93294300Y-38753802D01*
X93289789Y-38750643D01*
X93289785Y-38750640D01*
X93282591Y-38745603D01*
X93238260Y-38690148D01*
X93230949Y-38619528D01*
X93262978Y-38556167D01*
X93290529Y-38534047D01*
X93339995Y-38504676D01*
X93345659Y-38500884D01*
X93626732Y-38289849D01*
X93631958Y-38285464D01*
X93641613Y-38276428D01*
X93649682Y-38262750D01*
X93649654Y-38262024D01*
X93644512Y-38253723D01*
X91512810Y-36122020D01*
X91498869Y-36114408D01*
X91497034Y-36114539D01*
X91490420Y-36118790D01*
X89356774Y-38252437D01*
X89349160Y-38266381D01*
X89349237Y-38267470D01*
X89351698Y-38271206D01*
X89625632Y-38481404D01*
X89631262Y-38485259D01*
X89931591Y-38667862D01*
X89937593Y-38671080D01*
X90255897Y-38820184D01*
X90262202Y-38822732D01*
X90594743Y-38936587D01*
X90601313Y-38938446D01*
X90944183Y-39015714D01*
X90950912Y-39016853D01*
X91158593Y-39040515D01*
X91224011Y-39068100D01*
X91264131Y-39126674D01*
X91266215Y-39197640D01*
X91258525Y-39218952D01*
X91215716Y-39310757D01*
X91214293Y-39316067D01*
X91214292Y-39316071D01*
X91200159Y-39368816D01*
X91167547Y-39425300D01*
X89713252Y-40879595D01*
X89650940Y-40913621D01*
X89624157Y-40916500D01*
X87384335Y-40916500D01*
X87316214Y-40896498D01*
X87302504Y-40886311D01*
X87152135Y-40757882D01*
X87152131Y-40757879D01*
X87148376Y-40754672D01*
X86932502Y-40622384D01*
X86927932Y-40620491D01*
X86927928Y-40620489D01*
X86703164Y-40527389D01*
X86703162Y-40527388D01*
X86698591Y-40525495D01*
X86602547Y-40502437D01*
X86457216Y-40467546D01*
X86457210Y-40467545D01*
X86452403Y-40466391D01*
X86200000Y-40446526D01*
X85947597Y-40466391D01*
X85942790Y-40467545D01*
X85942784Y-40467546D01*
X85797453Y-40502437D01*
X85701409Y-40525495D01*
X85696838Y-40527388D01*
X85696836Y-40527389D01*
X85472072Y-40620489D01*
X85472068Y-40620491D01*
X85467498Y-40622384D01*
X85251624Y-40754672D01*
X85059102Y-40919102D01*
X85055894Y-40922858D01*
X85043570Y-40937288D01*
X84894672Y-41111624D01*
X84762384Y-41327498D01*
X84760491Y-41332068D01*
X84760489Y-41332072D01*
X84684771Y-41514873D01*
X84665495Y-41561409D01*
X84658973Y-41588577D01*
X84608705Y-41797960D01*
X84606391Y-41807597D01*
X84586526Y-42060000D01*
X75357211Y-42060000D01*
X75358500Y-42048134D01*
X75358500Y-40251866D01*
X75351745Y-40189684D01*
X75300615Y-40053295D01*
X75213261Y-39936739D01*
X75096705Y-39849385D01*
X74960316Y-39798255D01*
X74898134Y-39791500D01*
X73101866Y-39791500D01*
X73039684Y-39798255D01*
X72903295Y-39849385D01*
X72786739Y-39936739D01*
X72699385Y-40053295D01*
X72648255Y-40189684D01*
X72641500Y-40251866D01*
X72641500Y-41207577D01*
X72621498Y-41275698D01*
X72604595Y-41296672D01*
X72223595Y-41677672D01*
X72161283Y-41711698D01*
X72090468Y-41706633D01*
X72033632Y-41664086D01*
X72008821Y-41597566D01*
X72008500Y-41588577D01*
X72008500Y-38094669D01*
X76542001Y-38094669D01*
X76542371Y-38101490D01*
X76547895Y-38152352D01*
X76551521Y-38167604D01*
X76596676Y-38288054D01*
X76605214Y-38303649D01*
X76681715Y-38405724D01*
X76694276Y-38418285D01*
X76796351Y-38494786D01*
X76811946Y-38503324D01*
X76932394Y-38548478D01*
X76947649Y-38552105D01*
X76998514Y-38557631D01*
X77005328Y-38558000D01*
X77977885Y-38558000D01*
X77993124Y-38553525D01*
X77994329Y-38552135D01*
X77996000Y-38544452D01*
X77996000Y-37122115D01*
X77991525Y-37106876D01*
X77990135Y-37105671D01*
X77982452Y-37104000D01*
X76560116Y-37104000D01*
X76544877Y-37108475D01*
X76543672Y-37109865D01*
X76542001Y-37117548D01*
X76542001Y-38094669D01*
X72008500Y-38094669D01*
X72008500Y-36577885D01*
X76542000Y-36577885D01*
X76546475Y-36593124D01*
X76547865Y-36594329D01*
X76555548Y-36596000D01*
X77977885Y-36596000D01*
X77993124Y-36591525D01*
X77994329Y-36590135D01*
X77996000Y-36582452D01*
X77996000Y-35160116D01*
X77991525Y-35144877D01*
X77990135Y-35143672D01*
X77982452Y-35142001D01*
X77005331Y-35142001D01*
X76998510Y-35142371D01*
X76947648Y-35147895D01*
X76932396Y-35151521D01*
X76811946Y-35196676D01*
X76796351Y-35205214D01*
X76694276Y-35281715D01*
X76681715Y-35294276D01*
X76605214Y-35396351D01*
X76596676Y-35411946D01*
X76551522Y-35532394D01*
X76547895Y-35547649D01*
X76542369Y-35598514D01*
X76542000Y-35605328D01*
X76542000Y-36577885D01*
X72008500Y-36577885D01*
X72008500Y-33134500D01*
X72028502Y-33066379D01*
X72082158Y-33019886D01*
X72134500Y-33008500D01*
X84499375Y-33008500D01*
X84567496Y-33028502D01*
G37*
%TD.AperFunction*%
%TA.AperFunction,Conductor*%
G36*
X99352532Y-41480367D02*
G01*
X99409368Y-41522914D01*
X99434179Y-41589434D01*
X99434500Y-41598423D01*
X99434500Y-42362639D01*
X99433970Y-42373873D01*
X99432292Y-42381378D01*
X99433336Y-42414598D01*
X99434438Y-42449671D01*
X99434500Y-42453628D01*
X99434500Y-42481642D01*
X99434996Y-42485567D01*
X99434996Y-42485568D01*
X99435008Y-42485663D01*
X99435941Y-42497508D01*
X99437335Y-42541864D01*
X99440797Y-42553779D01*
X99443013Y-42561407D01*
X99447023Y-42580771D01*
X99449573Y-42600958D01*
X99452489Y-42608323D01*
X99452490Y-42608327D01*
X99455652Y-42616313D01*
X99464500Y-42662696D01*
X99464500Y-44620980D01*
X99463970Y-44632214D01*
X99462292Y-44639719D01*
X99462915Y-44659536D01*
X99464438Y-44708012D01*
X99464500Y-44711969D01*
X99464500Y-44739983D01*
X99464996Y-44743908D01*
X99464996Y-44743909D01*
X99465008Y-44744004D01*
X99465941Y-44755849D01*
X99467335Y-44800205D01*
X99469547Y-44807817D01*
X99473013Y-44819748D01*
X99477023Y-44839112D01*
X99479573Y-44859299D01*
X99482489Y-44866663D01*
X99482490Y-44866668D01*
X99495907Y-44900556D01*
X99499752Y-44911785D01*
X99504598Y-44928465D01*
X99512131Y-44954393D01*
X99516169Y-44961220D01*
X99516170Y-44961223D01*
X99522488Y-44971906D01*
X99531188Y-44989664D01*
X99535761Y-45001215D01*
X99535765Y-45001221D01*
X99538681Y-45008588D01*
X99543339Y-45014999D01*
X99543340Y-45015001D01*
X99564764Y-45044488D01*
X99571281Y-45054410D01*
X99589826Y-45085768D01*
X99589829Y-45085772D01*
X99593866Y-45092598D01*
X99608250Y-45106982D01*
X99621091Y-45122016D01*
X99633058Y-45138487D01*
X99639166Y-45143540D01*
X99667255Y-45166777D01*
X99676035Y-45174767D01*
X100994750Y-46493483D01*
X101002326Y-46501809D01*
X101006447Y-46508303D01*
X101012222Y-46513726D01*
X101056265Y-46555085D01*
X101059107Y-46557840D01*
X101078906Y-46577639D01*
X101082031Y-46580063D01*
X101082040Y-46580071D01*
X101082126Y-46580137D01*
X101091151Y-46587845D01*
X101123494Y-46618217D01*
X101130438Y-46622035D01*
X101130440Y-46622036D01*
X101141329Y-46628022D01*
X101157847Y-46638873D01*
X101173933Y-46651350D01*
X101214666Y-46668976D01*
X101225314Y-46674193D01*
X101236942Y-46680585D01*
X101264197Y-46695569D01*
X101271872Y-46697540D01*
X101271878Y-46697542D01*
X101283911Y-46700631D01*
X101302613Y-46707034D01*
X101321292Y-46715117D01*
X101354818Y-46720427D01*
X101365127Y-46722060D01*
X101376740Y-46724465D01*
X101419718Y-46735500D01*
X101440065Y-46735500D01*
X101459777Y-46737051D01*
X101479879Y-46740235D01*
X101487771Y-46739489D01*
X101524056Y-46736059D01*
X101535914Y-46735500D01*
X122570980Y-46735500D01*
X122582214Y-46736030D01*
X122589719Y-46737708D01*
X122658012Y-46735562D01*
X122661969Y-46735500D01*
X122689983Y-46735500D01*
X122693908Y-46735004D01*
X122693909Y-46735004D01*
X122694004Y-46734992D01*
X122705849Y-46734059D01*
X122735670Y-46733122D01*
X122742282Y-46732914D01*
X122742283Y-46732914D01*
X122750205Y-46732665D01*
X122769749Y-46726987D01*
X122789112Y-46722977D01*
X122801440Y-46721420D01*
X122801442Y-46721420D01*
X122809299Y-46720427D01*
X122816663Y-46717511D01*
X122816668Y-46717510D01*
X122850556Y-46704093D01*
X122861785Y-46700248D01*
X122878465Y-46695402D01*
X122904393Y-46687869D01*
X122911220Y-46683831D01*
X122911223Y-46683830D01*
X122921906Y-46677512D01*
X122939664Y-46668812D01*
X122951215Y-46664239D01*
X122951221Y-46664235D01*
X122958588Y-46661319D01*
X122967977Y-46654498D01*
X122994488Y-46635236D01*
X123004410Y-46628719D01*
X123035768Y-46610174D01*
X123035772Y-46610171D01*
X123042598Y-46606134D01*
X123056982Y-46591750D01*
X123072016Y-46578909D01*
X123082073Y-46571602D01*
X123088487Y-46566942D01*
X123116778Y-46532744D01*
X123124767Y-46523965D01*
X123625173Y-46023559D01*
X123687485Y-45989533D01*
X123758300Y-45994598D01*
X123815136Y-46037145D01*
X123840059Y-46105401D01*
X123843011Y-46156590D01*
X123850110Y-46279715D01*
X123851247Y-46284761D01*
X123851248Y-46284767D01*
X123871119Y-46372939D01*
X123899222Y-46497639D01*
X123945980Y-46612790D01*
X123980394Y-46697542D01*
X123983266Y-46704616D01*
X124004636Y-46739489D01*
X124089832Y-46878516D01*
X124099987Y-46895088D01*
X124246250Y-47063938D01*
X124418126Y-47206632D01*
X124488595Y-47247811D01*
X124491445Y-47249476D01*
X124540169Y-47301114D01*
X124553240Y-47370897D01*
X124526509Y-47436669D01*
X124486055Y-47470027D01*
X124473607Y-47476507D01*
X124469474Y-47479610D01*
X124469471Y-47479612D01*
X124317809Y-47593483D01*
X124294965Y-47610635D01*
X124291393Y-47614373D01*
X124163787Y-47747905D01*
X124140629Y-47772138D01*
X124137715Y-47776410D01*
X124137714Y-47776411D01*
X124136083Y-47778802D01*
X124014743Y-47956680D01*
X124013945Y-47958400D01*
X123963589Y-48007088D01*
X123905074Y-48021500D01*
X114108136Y-48021500D01*
X114091690Y-48020422D01*
X114068188Y-48017328D01*
X114060000Y-48016250D01*
X114051812Y-48017328D01*
X114020129Y-48021499D01*
X114020120Y-48021500D01*
X114020115Y-48021500D01*
X113901150Y-48037162D01*
X113753125Y-48098476D01*
X113753123Y-48098477D01*
X113753124Y-48098477D01*
X113657928Y-48171523D01*
X113657925Y-48171526D01*
X113626013Y-48196013D01*
X113620983Y-48202568D01*
X113606548Y-48221379D01*
X113595681Y-48233770D01*
X108131132Y-53698319D01*
X108068820Y-53732345D01*
X108009426Y-53730931D01*
X107923402Y-53707881D01*
X107923400Y-53707881D01*
X107918087Y-53706457D01*
X107690000Y-53686502D01*
X107461913Y-53706457D01*
X107456600Y-53707881D01*
X107456598Y-53707881D01*
X107246067Y-53764293D01*
X107246065Y-53764294D01*
X107240757Y-53765716D01*
X107235776Y-53768039D01*
X107235775Y-53768039D01*
X107038238Y-53860151D01*
X107038233Y-53860154D01*
X107033251Y-53862477D01*
X106987482Y-53894525D01*
X106850211Y-53990643D01*
X106850208Y-53990645D01*
X106845700Y-53993802D01*
X106683802Y-54155700D01*
X106680645Y-54160208D01*
X106680643Y-54160211D01*
X106629368Y-54233439D01*
X106552477Y-54343251D01*
X106550154Y-54348233D01*
X106550151Y-54348238D01*
X106534195Y-54382457D01*
X106487278Y-54435742D01*
X106419001Y-54455203D01*
X106351041Y-54434661D01*
X106305805Y-54382457D01*
X106289849Y-54348238D01*
X106289846Y-54348233D01*
X106287523Y-54343251D01*
X106210632Y-54233439D01*
X106159357Y-54160211D01*
X106159355Y-54160208D01*
X106156198Y-54155700D01*
X105994300Y-53993802D01*
X105989792Y-53990645D01*
X105989789Y-53990643D01*
X105852518Y-53894525D01*
X105806749Y-53862477D01*
X105801767Y-53860154D01*
X105801762Y-53860151D01*
X105604225Y-53768039D01*
X105604224Y-53768039D01*
X105599243Y-53765716D01*
X105593935Y-53764294D01*
X105593933Y-53764293D01*
X105383402Y-53707881D01*
X105383400Y-53707881D01*
X105378087Y-53706457D01*
X105150000Y-53686502D01*
X104921913Y-53706457D01*
X104916602Y-53707880D01*
X104916591Y-53707882D01*
X104860690Y-53722861D01*
X104789713Y-53721172D01*
X104738983Y-53690250D01*
X103355250Y-52306517D01*
X103347674Y-52298191D01*
X103343553Y-52291697D01*
X103293734Y-52244914D01*
X103290893Y-52242160D01*
X103271094Y-52222361D01*
X103267969Y-52219937D01*
X103267960Y-52219929D01*
X103267874Y-52219863D01*
X103258849Y-52212155D01*
X103232285Y-52187210D01*
X103226506Y-52181783D01*
X103208669Y-52171977D01*
X103192153Y-52161127D01*
X103176067Y-52148650D01*
X103135334Y-52131024D01*
X103124686Y-52125807D01*
X103095787Y-52109920D01*
X103085803Y-52104431D01*
X103078128Y-52102460D01*
X103078122Y-52102458D01*
X103066089Y-52099369D01*
X103047387Y-52092966D01*
X103028708Y-52084883D01*
X102988913Y-52078580D01*
X102984873Y-52077940D01*
X102973260Y-52075535D01*
X102930282Y-52064500D01*
X102909935Y-52064500D01*
X102890224Y-52062949D01*
X102877950Y-52061005D01*
X102870121Y-52059765D01*
X102862229Y-52060511D01*
X102825944Y-52063941D01*
X102814086Y-52064500D01*
X88879032Y-52064500D01*
X88867793Y-52063970D01*
X88860281Y-52062291D01*
X88852356Y-52062540D01*
X88852355Y-52062540D01*
X88791970Y-52064438D01*
X88788012Y-52064500D01*
X88760017Y-52064500D01*
X88756083Y-52064997D01*
X88756081Y-52064997D01*
X88755994Y-52065008D01*
X88744160Y-52065940D01*
X88699795Y-52067335D01*
X88692182Y-52069547D01*
X88692181Y-52069547D01*
X88680252Y-52073013D01*
X88660888Y-52077023D01*
X88648560Y-52078580D01*
X88648558Y-52078580D01*
X88640701Y-52079573D01*
X88633337Y-52082489D01*
X88633332Y-52082490D01*
X88599444Y-52095907D01*
X88588215Y-52099752D01*
X88578902Y-52102458D01*
X88545607Y-52112131D01*
X88538781Y-52116168D01*
X88528091Y-52122490D01*
X88510341Y-52131187D01*
X88491412Y-52138681D01*
X88484998Y-52143341D01*
X88455514Y-52164762D01*
X88445594Y-52171278D01*
X88414229Y-52189827D01*
X88414226Y-52189829D01*
X88407402Y-52193865D01*
X88393014Y-52208253D01*
X88377980Y-52221094D01*
X88361513Y-52233058D01*
X88356460Y-52239166D01*
X88333228Y-52267249D01*
X88325238Y-52276029D01*
X87423672Y-53177595D01*
X87361360Y-53211621D01*
X87334577Y-53214500D01*
X75275511Y-53214500D01*
X75207390Y-53194498D01*
X75169719Y-53156940D01*
X75082822Y-53022617D01*
X75082820Y-53022614D01*
X75080014Y-53018277D01*
X74929670Y-52853051D01*
X74925619Y-52849852D01*
X74925615Y-52849848D01*
X74758414Y-52717800D01*
X74758410Y-52717798D01*
X74754359Y-52714598D01*
X74713053Y-52691796D01*
X74663084Y-52641364D01*
X74648312Y-52571921D01*
X74673428Y-52505516D01*
X74700780Y-52478909D01*
X74760329Y-52436433D01*
X74879860Y-52351173D01*
X74929299Y-52301907D01*
X75016241Y-52215268D01*
X75038096Y-52193489D01*
X75082862Y-52131191D01*
X75165435Y-52016277D01*
X75168453Y-52012077D01*
X75172145Y-52004608D01*
X75265136Y-51816453D01*
X75265137Y-51816451D01*
X75267430Y-51811811D01*
X75332370Y-51598069D01*
X75361529Y-51376590D01*
X75363156Y-51310000D01*
X75344852Y-51087361D01*
X75290431Y-50870702D01*
X75201354Y-50665840D01*
X75095111Y-50501613D01*
X75082822Y-50482617D01*
X75082820Y-50482614D01*
X75080014Y-50478277D01*
X74929670Y-50313051D01*
X74925619Y-50309852D01*
X74925615Y-50309848D01*
X74758414Y-50177800D01*
X74758410Y-50177798D01*
X74754359Y-50174598D01*
X74712569Y-50151529D01*
X74662598Y-50101097D01*
X74647826Y-50031654D01*
X74672942Y-49965248D01*
X74700294Y-49938641D01*
X74875328Y-49813792D01*
X74883200Y-49807139D01*
X75034052Y-49656812D01*
X75040730Y-49648965D01*
X75165003Y-49476020D01*
X75170313Y-49467183D01*
X75264670Y-49276267D01*
X75268469Y-49266672D01*
X75330377Y-49062910D01*
X75332555Y-49052837D01*
X75333986Y-49041962D01*
X75331775Y-49027778D01*
X75318617Y-49024000D01*
X73872000Y-49024000D01*
X73803879Y-49003998D01*
X73757386Y-48950342D01*
X73746000Y-48898000D01*
X73746000Y-48642000D01*
X73766002Y-48573879D01*
X73819658Y-48527386D01*
X73872000Y-48516000D01*
X75318344Y-48516000D01*
X75331875Y-48512027D01*
X75333180Y-48502947D01*
X75291214Y-48335875D01*
X75287894Y-48326124D01*
X75202972Y-48130814D01*
X75198105Y-48121739D01*
X75082426Y-47942926D01*
X75076136Y-47934757D01*
X74932806Y-47777240D01*
X74925273Y-47770215D01*
X74758139Y-47638222D01*
X74749556Y-47632520D01*
X74712602Y-47612120D01*
X74662631Y-47561687D01*
X74647859Y-47492245D01*
X74672975Y-47425839D01*
X74700327Y-47399232D01*
X74766655Y-47351921D01*
X74879860Y-47271173D01*
X75038096Y-47113489D01*
X75141712Y-46969292D01*
X75165438Y-46936273D01*
X75165439Y-46936272D01*
X75168453Y-46932077D01*
X75170742Y-46927445D01*
X75171247Y-46926605D01*
X75223477Y-46878516D01*
X75279250Y-46865500D01*
X93520980Y-46865500D01*
X93532214Y-46866030D01*
X93539719Y-46867708D01*
X93608012Y-46865562D01*
X93611969Y-46865500D01*
X93639983Y-46865500D01*
X93643908Y-46865004D01*
X93643909Y-46865004D01*
X93644004Y-46864992D01*
X93655849Y-46864059D01*
X93685670Y-46863122D01*
X93692282Y-46862914D01*
X93692283Y-46862914D01*
X93700205Y-46862665D01*
X93719749Y-46856987D01*
X93739112Y-46852977D01*
X93751440Y-46851420D01*
X93751442Y-46851420D01*
X93759299Y-46850427D01*
X93766663Y-46847511D01*
X93766668Y-46847510D01*
X93800556Y-46834093D01*
X93811785Y-46830248D01*
X93837289Y-46822838D01*
X93854393Y-46817869D01*
X93861220Y-46813831D01*
X93861223Y-46813830D01*
X93871906Y-46807512D01*
X93889664Y-46798812D01*
X93901215Y-46794239D01*
X93901221Y-46794235D01*
X93908588Y-46791319D01*
X93944491Y-46765234D01*
X93954410Y-46758719D01*
X93985768Y-46740174D01*
X93985772Y-46740171D01*
X93992598Y-46736134D01*
X94006982Y-46721750D01*
X94022016Y-46708909D01*
X94032073Y-46701602D01*
X94038487Y-46696942D01*
X94066778Y-46662744D01*
X94074767Y-46653965D01*
X99219405Y-41509328D01*
X99281717Y-41475302D01*
X99352532Y-41480367D01*
G37*
%TD.AperFunction*%
%TD*%
M02*
