%TF.GenerationSoftware,KiCad,Pcbnew,(6.0.9-0)*%
%TF.CreationDate,2023-02-26T22:19:27+01:00*%
%TF.ProjectId,FilamentSpoolScale,46696c61-6d65-46e7-9453-706f6f6c5363,rev?*%
%TF.SameCoordinates,Original*%
%TF.FileFunction,Legend,Bot*%
%TF.FilePolarity,Positive*%
%FSLAX46Y46*%
G04 Gerber Fmt 4.6, Leading zero omitted, Abs format (unit mm)*
G04 Created by KiCad (PCBNEW (6.0.9-0)) date 2023-02-26 22:19:27*
%MOMM*%
%LPD*%
G01*
G04 APERTURE LIST*
%ADD10C,0.150000*%
%ADD11C,0.120000*%
G04 APERTURE END LIST*
D10*
%TO.C,J3*%
X80333333Y-40762380D02*
X80333333Y-41476666D01*
X80380952Y-41619523D01*
X80476190Y-41714761D01*
X80619047Y-41762380D01*
X80714285Y-41762380D01*
X79952380Y-40762380D02*
X79333333Y-40762380D01*
X79666666Y-41143333D01*
X79523809Y-41143333D01*
X79428571Y-41190952D01*
X79380952Y-41238571D01*
X79333333Y-41333809D01*
X79333333Y-41571904D01*
X79380952Y-41667142D01*
X79428571Y-41714761D01*
X79523809Y-41762380D01*
X79809523Y-41762380D01*
X79904761Y-41714761D01*
X79952380Y-41667142D01*
%TO.C,J6*%
X33148333Y-38332380D02*
X33148333Y-39046666D01*
X33195952Y-39189523D01*
X33291190Y-39284761D01*
X33434047Y-39332380D01*
X33529285Y-39332380D01*
X32243571Y-38332380D02*
X32434047Y-38332380D01*
X32529285Y-38380000D01*
X32576904Y-38427619D01*
X32672142Y-38570476D01*
X32719761Y-38760952D01*
X32719761Y-39141904D01*
X32672142Y-39237142D01*
X32624523Y-39284761D01*
X32529285Y-39332380D01*
X32338809Y-39332380D01*
X32243571Y-39284761D01*
X32195952Y-39237142D01*
X32148333Y-39141904D01*
X32148333Y-38903809D01*
X32195952Y-38808571D01*
X32243571Y-38760952D01*
X32338809Y-38713333D01*
X32529285Y-38713333D01*
X32624523Y-38760952D01*
X32672142Y-38808571D01*
X32719761Y-38903809D01*
%TO.C,J2*%
X114233333Y-45502380D02*
X114233333Y-46216666D01*
X114280952Y-46359523D01*
X114376190Y-46454761D01*
X114519047Y-46502380D01*
X114614285Y-46502380D01*
X113804761Y-45597619D02*
X113757142Y-45550000D01*
X113661904Y-45502380D01*
X113423809Y-45502380D01*
X113328571Y-45550000D01*
X113280952Y-45597619D01*
X113233333Y-45692857D01*
X113233333Y-45788095D01*
X113280952Y-45930952D01*
X113852380Y-46502380D01*
X113233333Y-46502380D01*
%TO.C,R1*%
X37582380Y-58813333D02*
X37106190Y-58480000D01*
X37582380Y-58241904D02*
X36582380Y-58241904D01*
X36582380Y-58622857D01*
X36630000Y-58718095D01*
X36677619Y-58765714D01*
X36772857Y-58813333D01*
X36915714Y-58813333D01*
X37010952Y-58765714D01*
X37058571Y-58718095D01*
X37106190Y-58622857D01*
X37106190Y-58241904D01*
X37582380Y-59765714D02*
X37582380Y-59194285D01*
X37582380Y-59480000D02*
X36582380Y-59480000D01*
X36725238Y-59384761D01*
X36820476Y-59289523D01*
X36868095Y-59194285D01*
D11*
%TO.C,J3*%
X75850000Y-32950000D02*
X77350000Y-32950000D01*
X76090000Y-40310000D02*
X83910000Y-40310000D01*
X76090000Y-34750000D02*
X83910000Y-34750000D01*
X76090000Y-40310000D02*
X76090000Y-33190000D01*
X75850000Y-34690000D02*
X75850000Y-32950000D01*
X76090000Y-33190000D02*
X83910000Y-33190000D01*
X83910000Y-40310000D02*
X83910000Y-33190000D01*
X79682109Y-37457742D02*
G75*
G03*
X79682000Y-36242000I-1432112J607743D01*
G01*
X78277011Y-35294507D02*
G75*
G03*
X77642000Y-35418000I-27013J-1555481D01*
G01*
X76817891Y-36242258D02*
G75*
G03*
X76818000Y-37458000I1432109J-607742D01*
G01*
X77642258Y-38282109D02*
G75*
G03*
X78858000Y-38282000I607742J1432109D01*
G01*
X78857587Y-35418615D02*
G75*
G03*
X78250000Y-35295000I-607587J-1431385D01*
G01*
X83305000Y-36850000D02*
G75*
G03*
X83305000Y-36850000I-1555000J0D01*
G01*
%TO.C,J6*%
X35760000Y-55180000D02*
X33100000Y-55180000D01*
X36157071Y-48390000D02*
X35760000Y-48390000D01*
X33100000Y-48390000D02*
X27100000Y-48390000D01*
X33100000Y-41190000D02*
X27100000Y-41190000D01*
X33100000Y-39820000D02*
X35760000Y-39820000D01*
X33100000Y-40830000D02*
X27100000Y-40830000D01*
X36157071Y-46610000D02*
X35760000Y-46610000D01*
X27100000Y-51690000D02*
X33100000Y-51690000D01*
X35760000Y-39820000D02*
X35760000Y-55180000D01*
X36090000Y-41530000D02*
X35760000Y-41530000D01*
X27100000Y-44070000D02*
X33100000Y-44070000D01*
X38470000Y-39880000D02*
X37200000Y-39880000D01*
X33100000Y-53470000D02*
X27100000Y-53470000D01*
X27100000Y-49150000D02*
X33100000Y-49150000D01*
X27100000Y-50930000D02*
X27100000Y-51690000D01*
X33100000Y-45850000D02*
X27100000Y-45850000D01*
X33100000Y-50930000D02*
X27100000Y-50930000D01*
X27100000Y-48390000D02*
X27100000Y-49150000D01*
X33100000Y-41430000D02*
X27100000Y-41430000D01*
X36157071Y-53470000D02*
X35760000Y-53470000D01*
X33100000Y-40770000D02*
X27100000Y-40770000D01*
X36157071Y-45850000D02*
X35760000Y-45850000D01*
X36157071Y-49150000D02*
X35760000Y-49150000D01*
X27100000Y-54230000D02*
X33100000Y-54230000D01*
X35760000Y-42420000D02*
X33100000Y-42420000D01*
X27100000Y-45850000D02*
X27100000Y-46610000D01*
X38470000Y-41150000D02*
X38470000Y-39880000D01*
X27100000Y-40770000D02*
X27100000Y-41530000D01*
X35760000Y-52580000D02*
X33100000Y-52580000D01*
X27100000Y-46610000D02*
X33100000Y-46610000D01*
X27100000Y-53470000D02*
X27100000Y-54230000D01*
X36157071Y-44070000D02*
X35760000Y-44070000D01*
X35760000Y-47500000D02*
X33100000Y-47500000D01*
X33100000Y-41310000D02*
X27100000Y-41310000D01*
X36090000Y-40770000D02*
X35760000Y-40770000D01*
X33100000Y-41070000D02*
X27100000Y-41070000D01*
X33100000Y-40950000D02*
X27100000Y-40950000D01*
X35760000Y-50040000D02*
X33100000Y-50040000D01*
X36157071Y-43310000D02*
X35760000Y-43310000D01*
X36157071Y-51690000D02*
X35760000Y-51690000D01*
X35760000Y-44960000D02*
X33100000Y-44960000D01*
X27100000Y-41530000D02*
X33100000Y-41530000D01*
X36157071Y-54230000D02*
X35760000Y-54230000D01*
X36157071Y-50930000D02*
X35760000Y-50930000D01*
X33100000Y-55180000D02*
X33100000Y-39820000D01*
X33100000Y-43310000D02*
X27100000Y-43310000D01*
X27100000Y-43310000D02*
X27100000Y-44070000D01*
%TO.C,J2*%
X129700000Y-57450000D02*
X94700000Y-57450000D01*
X94700000Y-37350000D02*
X129700000Y-37350000D01*
X129700000Y-37350000D02*
X129700000Y-57450000D01*
X94700000Y-57450000D02*
X94700000Y-37350000D01*
%TO.C,R1*%
X40870000Y-62250000D02*
X38130000Y-62250000D01*
X40870000Y-55710000D02*
X40870000Y-62250000D01*
X38130000Y-55710000D02*
X40870000Y-55710000D01*
X39500000Y-54940000D02*
X39500000Y-55710000D01*
X39500000Y-63020000D02*
X39500000Y-62250000D01*
X38130000Y-62250000D02*
X38130000Y-55710000D01*
%TD*%
M02*
